<?xml version="1.0" encoding="utf-8"?>
<!-- Generator: Adobe Illustrator 16.0.0, SVG Export Plug-In . SVG Version: 6.00 Build 0)  -->
<!DOCTYPE svg PUBLIC "-//W3C//DTD SVG 1.1//EN" "http://www.w3.org/Graphics/SVG/1.1/DTD/svg11.dtd">
<svg version="1.1" id="Layer_1" xmlns="http://www.w3.org/2000/svg" xmlns:xlink="http://www.w3.org/1999/xlink" x="0px" y="0px"
	 width="117.391px" height="152.179px" viewBox="-139.972 -17.82 117.391 152.179"
	 enable-background="new -139.972 -17.82 117.391 152.179" xml:space="preserve">
<g>
	<g>
		<path fill="#E8E8E8" d="M-43.569,64.128c-0.237,2.144-2.166,3.688-4.308,3.451l-29.979-3.312c-2.142-0.237-3.688-2.165-3.45-4.309
			l4.785-43.297c0.237-2.142,2.166-3.688,4.308-3.451l29.978,3.313c2.142,0.236,3.688,2.166,3.451,4.308L-43.569,64.128z"/>
		<path fill="#C9C9C9" d="M-54.105,15.895c0,0,10.925,8.753,9.296,22.043s1.704,31.624-10.296,25.624S-54.105,15.895-54.105,15.895z
			"/>
		<path fill="#C9C9C9" d="M-79.189,94.811c0,0,23.5,14.75,24.5,16s-1.75,8.5,2,9.25s10.75-2.5,9.75-10.25s-0.75-10.75-6.25-11
			c0,0-7.25-10-13.25-15.25S-79.189,94.811-79.189,94.811z"/>
		<circle fill="#FFFFFF" cx="-68.126" cy="22.561" r="17"/>
		<circle fill="#0F122D" cx="-70.798" cy="21.475" r="13"/>
		<path fill="#FFFFFF" d="M-79.689,34.061c0,0-10.25,4-19.973,2.23c-3.85-0.701-8.527-3.23-10.777-5.23s-2.5-2.75-3.25-5.25
			s-11.598-2.326-10,4.75c1.75,7.75,4.5,6,8.25,6.25c0,0,4.75,9.5,8.75,10s16,5.75,21,4.25c0,0,0.75,5.75,0,12s-0.25,1-0.25,1
			s-1.531,4-1.281,13.75s-0.219,10.75,3.781,15.75c0,0-3,8.25-2.75,16s1.75,10.25,1.75,10.25s-7.416,4.918-6.666,11.418
			s10.916,1.332,15.166-1.668s3-9.75,3-9.75s-1.25-12,8.25-26s10.75-13.715,10.75-21.75c0-3.75,1.5-9.5,1.5-9.5l1.25-8.5
			c0,0,9,4.5,13.25,13.5s4.25,9,4.25,9s-1.75,4.75,0.25,7.75s12,1.5,10.75-5.5s-5.5-7.5-5.5-7.5s-2-24.75-24.75-40.75
			C-52.939,30.561-67.189,40.311-79.689,34.061z"/>
		<path fill="#C73035" d="M-49.189,55.561c0,0-0.25-14.25,7.25-15.75l3.293,3.668c0,0-8.293,4.214-7.043,14.964L-49.189,55.561z"/>
		<path fill="#C73035" d="M-85.486,35.561c0,0-4.297,5-1.797,16.25l-4.77-0.684c0,0-1.387-6.816,1.863-14.816L-85.486,35.561z"/>
		<path fill="#0F122D" d="M-55.399,37.213l2.789,3.067c0,0,3.082-2.431,7.801-2.343c0,0-0.477-2.134-3.609-2.461
			C-48.418,35.476-52.515,34.772-55.399,37.213z"/>
		<path fill="#C73035" d="M-85.689,61.561c0,0,8.18,15,32.43,5.25l-0.43,7.25c0,0-22,8.25-33.25-6L-85.689,61.561z"/>
		<path fill="#C73035" d="M-84.939,97.311c0,0,1.25,6.25,15.5,5.5l-1.25,2.75c0,0-11.635,2.25-15.135-4L-84.939,97.311z"/>
		<path fill="#722D35" d="M-58.689,87.311c0,0-0.5,14.75-8.25,15.25l1.75,1.25c0,0,9.339,0.958,9.034-14.003
			c-0.007-0.325-0.37-0.724-0.94-1.337C-57.634,87.892-58.689,87.311-58.689,87.311z"/>
		<ellipse fill="#BBB494" cx="-65.679" cy="21.728" rx="6.445" ry="8.517"/>
		<path fill="#E8E8E8" d="M-83.439,93.561l4-8.333l-6.333,3.666C-85.772,88.894-86.772,91.228-83.439,93.561z"/>
		<path fill="#E8E8E8" d="M-81.439,33.561c0,0,15.667,13.667,28.5-3C-52.939,30.561-67.439,57.561-81.439,33.561z"/>
		<path fill="#E8E8E8" d="M-119.105,25.895c0,0,6,4.833,3.667,10.917C-115.439,36.811-105.438,29.895-119.105,25.895z"/>
	</g>
	<g>
		<path fill="#868787" d="M-118.66-10.896c0.103,1.121-0.722,2.113-1.842,2.216l0,0c-1.12,0.103-2.112-0.722-2.215-1.843
			l-0.397-4.314c-0.103-1.119,0.722-2.111,1.841-2.215l0,0c1.121-0.103,2.112,0.723,2.215,1.842L-118.66-10.896z"/>
		<path fill="#969696" d="M-119.036,25.647l-13.353-40.087c0,0-1.948-1.146-2.948,1.854l13.667,39
			C-121.67,26.414-120.703,27.98-119.036,25.647z"/>
		<path fill="#969696" d="M-120.608-11.145c0.256,1.913-1.087,3.672-3,3.928l-10.912,1.461c-1.913,0.256-3.672-1.087-3.928-3
			l-0.488-3.645c-0.256-1.913,1.087-3.672,3-3.928l10.912-1.461c1.913-0.256,3.672,1.087,3.928,3L-120.608-11.145z"/>
		<g>
			<g>
				<path fill="#E7E7E7" d="M-136.63-14.895c-0.395,0.057-0.668,0.422-0.611,0.817l0.918,6.371c0.058,0.395,0.423,0.668,0.818,0.611
					l14.63-2.109c0.395-0.057,0.668-0.423,0.611-0.818l-0.918-6.371c-0.058-0.395-0.423-0.668-0.818-0.611L-136.63-14.895z"/>
				<circle fill="#D1D2D3" cx="-135.628" cy="-11.101" r="0.759"/>
				<circle fill="#FFFFFF" cx="-135.628" cy="-11.101" r="0.653"/>
				<path fill="#414142" d="M-121.741-13.657c-0.053,0.007-0.088,0.056-0.081,0.107l0.131,0.908
					c0.007,0.052,0.056,0.088,0.107,0.081l0,0c0.052-0.007,0.088-0.055,0.08-0.107l-0.13-0.909
					C-121.641-13.628-121.689-13.665-121.741-13.657L-121.741-13.657z"/>
			</g>
			
				<rect x="-131.81" y="-18.163" transform="matrix(0.1428 0.9898 -0.9898 0.1428 -122.0406 116.7398)" fill="#242425" width="6.793" height="12.16"/>
		</g>
		<path fill="#868787" d="M-135.51-9.265c0.103,1.121-0.722,2.112-1.842,2.215l0,0c-1.12,0.103-2.112-0.722-2.215-1.842
			l-0.397-4.314c-0.103-1.12,0.722-2.112,1.841-2.215l0,0c1.121-0.103,2.112,0.722,2.215,1.842L-135.51-9.265z"/>
	</g>
</g>
</svg>
