<?xml version="1.0" encoding="utf-8"?>
<!-- Generator: Adobe Illustrator 16.0.0, SVG Export Plug-In . SVG Version: 6.00 Build 0)  -->
<!DOCTYPE svg PUBLIC "-//W3C//DTD SVG 1.1//EN" "http://www.w3.org/Graphics/SVG/1.1/DTD/svg11.dtd">
<svg version="1.1" id="Layer_1" xmlns="http://www.w3.org/2000/svg" xmlns:xlink="http://www.w3.org/1999/xlink" x="0px" y="0px"
	 width="926.805px" height="672.158px" viewBox="0 0 926.805 672.158" enable-background="new 0 0 926.805 672.158"
	 xml:space="preserve">
<g>
	<g>
		<g>
			<g>
				<polygon fill="#D1D2D3" points="853.582,586.218 561.057,544.117 531.164,2.413 921.363,7.47 				"/>
				<path fill="#231F20" d="M926.805,0.662L724.528,0h-94.165l-98.982,0.233L528.815,0l0.162,2.534l4.33,67.68l2.079,33.844
					l1.994,33.85l1.924,33.854l1.798,33.859l0.892,16.93l0.822,16.935c0.533,11.291,1.132,22.578,1.61,33.871l6.006,135.508
					l1.62,33.869c0.57,11.289,1.085,22.581,1.719,33.865l1.828,33.858l1.941,33.853l0.166,2.891l2.848,0.402l36.582,5.157
					l36.593,5.069l36.598,5.039l36.615,4.924l36.622,4.866l36.635,4.78l36.652,4.664l37.074,4.561l4.62-34.425l4.486-34.035
					l8.836-68.085l8.617-68.111l8.472-68.128l8.342-68.143l8.169-68.163l4.058-34.085l3.961-34.096l3.961-34.096l3.863-34.108
					L926.805,0.662L926.805,0.662z M908.999,74.31l-3.991,34.093l-3.991,34.093l-3.895,34.103l-7.734,68.213l-7.563,68.234
					l-7.432,68.25l-7.287,68.267l-7.07,68.292l-3.465,34.154l-3.344,33.744l-36.044-5.946l-36.479-5.86l-36.497-5.746l-36.509-5.659
					l-36.517-5.602l-36.532-5.486L598.109,546l-33.688-4.949l-1.643-30.987l-1.908-33.856c-0.612-11.285-1.343-22.564-2.019-33.848
					l-2.116-33.842l-8.94-135.344c-0.768-11.278-1.414-22.563-2.127-33.843l-1.047-16.922l-0.976-16.926l-1.938-33.853l-1.813-33.86
					l-1.743-33.864l-1.657-33.868l-3.023-65.174L635.807,6.47l88.028,0.536l191.364,8.464L908.999,74.31z"/>
			</g>
			
				<ellipse transform="matrix(0.9999 -0.0141 0.0141 0.9999 -7.3776 10.2488)" opacity="0.1" fill="#231F20" cx="721.923" cy="527.45" rx="131.2" ry="12.696"/>
			<g>
				<path fill="#31323B" d="M603.124,151.487l79.985,1.79c0,0,16.02-102.669-33.94-105.051
					C599.21,45.846,603.438,105.01,603.124,151.487z"/>
			</g>
			<g>
				<path fill="#6E6F71" d="M619.243,134.025c12.398-4.115,47.087-3.368,39.84,7.592c-7.247,10.96-29.935-3.262-39.99-0.895
					S603.119,139.375,619.243,134.025z"/>
				<path fill="#6E6F71" d="M660.53,118.235c10.087-0.888,9.726,8.964-0.21,9.369C650.385,128.011,642.414,119.831,660.53,118.235z"
					/>
				<circle fill="#BBB494" cx="635.807" cy="87.675" r="18.962"/>
				<path fill="#6E6F71" d="M648.783,110.179c5.523,1.198,36.995,0.828,36.995,0.828s-0.876-22.244-5.159-33.055
					c-4.282-10.812-16.008-4.636-31.004-4.972s-43.877-5.983-27.061,2.395c16.817,8.378,38.644,4.866,22.62,11.509
					c-16.024,6.644,3.065,2.976-19.135,11.579c-22.2,8.603-10.423,18.768,6.573,19.148
					C649.609,117.991,637.832,107.807,648.783,110.179z"/>
				<path fill="#231F20" d="M686.852,121.977c-0.076-2.635-0.139-5.266-0.257-7.898c-0.131-2.63-0.282-5.259-0.46-7.885
					c-0.376-5.252-0.844-10.502-1.664-15.721c-0.385-2.613-0.837-5.219-1.41-7.807c-0.545-2.595-1.196-5.174-1.973-7.728
					c-1.53-5.108-3.623-10.136-6.65-14.736c-1.52-2.291-3.275-4.471-5.33-6.396c-2.054-1.919-4.381-3.599-6.921-4.906
					c-2.544-1.295-5.275-2.226-8.061-2.8l-2.099-0.35c-0.7-0.102-1.404-0.147-2.107-0.219l-0.528-0.051l-0.065-0.005l-0.171-0.006
					l-0.122-0.004l-0.246-0.005l-0.981-0.026l-1.964-0.052c-1.261-0.085-2.757,0.069-4.154,0.127
					c-1.433,0.033-2.806,0.266-4.19,0.469c-1.391,0.154-2.762,0.51-4.132,0.859c-1.385,0.288-2.711,0.83-4.053,1.308l-1.006,0.366
					l-0.969,0.465l-1.935,0.941c-1.279,0.651-2.458,1.492-3.688,2.24l-1.7,1.33c-0.556,0.455-1.155,0.866-1.646,1.389
					c-1.006,1.019-2.107,1.963-2.979,3.09c-3.732,4.336-6.392,9.371-8.307,14.517c-1.919,5.162-3.152,10.465-3.989,15.767
					c-0.82,5.307-1.351,10.613-1.581,15.914c-0.254,5.297-0.32,10.578-0.224,15.847c0.071,5.267,0.308,10.517,0.565,15.759
					c0.281,5.244,0.596,10.477,0.969,15.715l0.02,0.272l0.273,0.029c3.326,0.36,6.653,0.668,9.982,0.954
					c3.328,0.256,6.656,0.549,9.986,0.759c3.328,0.225,6.658,0.465,9.988,0.637c3.33,0.176,6.659,0.403,9.991,0.538l9.993,0.448
					l4.998,0.176l4.997,0.165c3.332,0.108,6.665,0.229,9.997,0.288c3.333,0.071,6.666,0.097,10.002,0.085l2.305-0.007l0.282-2.158
					c0.351-2.688,0.587-5.295,0.763-7.946c0.19-2.637,0.324-5.277,0.4-7.917C686.979,132.527,686.954,127.248,686.852,121.977z
					 M684.197,121.937c-0.265,5.207-0.786,10.397-1.408,15.564c-0.323,2.581-0.661,5.16-1.024,7.731
					c-0.27,1.797-0.544,3.602-0.825,5.389c-2.589-0.111-5.178-0.208-7.768-0.268c-3.332-0.09-6.666-0.12-10-0.159l-5-0.059l-5-0.047
					l-10.004,0.001c-3.335-0.014-6.67,0.063-10.006,0.091c-3.334,0.023-6.671,0.114-10.007,0.19
					c-3.336,0.061-6.674,0.202-10.01,0.312c-3.233,0.131-6.468,0.289-9.701,0.49c0.423-5.134,0.698-10.272,0.985-15.4l0.861-15.67
					c0.349-5.205,0.725-10.395,1.284-15.544c0.587-5.144,1.237-10.26,2.272-15.267c1.025-5.002,2.323-9.916,4.152-14.544
					c1.828-4.62,4.188-8.953,7.269-12.594c0.716-0.967,1.625-1.728,2.44-2.591c0.85-0.823,1.805-1.517,2.697-2.292
					c0.998-0.625,1.938-1.352,2.979-1.911l1.578-0.818l0.79-0.41l0.835-0.321c1.116-0.422,2.203-0.922,3.388-1.188l1.743-0.491
					c0.574-0.187,1.192-0.233,1.787-0.358c1.201-0.217,2.404-0.47,3.596-0.528c1.217-0.083,2.327-0.281,3.69-0.241l1.964-0.013
					l0.983-0.005l0.245-0.003l0.116,0.001h0.016l0.452,0.03c0.6,0.047,1.207,0.06,1.804,0.126l1.787,0.227
					c2.366,0.387,4.668,1.063,6.837,2.056c4.366,1.934,8.164,5.158,11.229,9.083c3.063,3.937,5.432,8.516,7.266,13.316
					c0.905,2.408,1.682,4.875,2.369,7.372c0.67,2.502,1.201,5.043,1.682,7.598c0.906,5.117,1.473,10.307,1.738,15.511
					c0.127,2.603,0.176,5.21,0.15,7.816C684.422,116.728,684.351,119.334,684.197,121.937z"/>
			</g>
		</g>
	</g>
	<g>
		<g>
			
				<rect x="11.995" y="21.454" transform="matrix(0.9984 -0.0559 0.0559 0.9984 -10.8503 14.7552)" fill="#E7E7E7" width="493.006" height="360.001"/>
			<path fill="#231F20" d="M514.235,344.893l-0.914-22.483l-1.839-44.968l-4.018-89.916l-4.294-89.9l-4.558-89.886l-0.205-4.041
				l-4.074,0.216l-61.541,3.25l-61.529,3.43L340.5,12.338l-30.759,1.838l-61.516,3.676l-123.028,7.434l-61.499,3.969L2.203,33.32
				L0,33.465l0.139,2.164l5.774,89.817l2.694,44.92l2.554,44.926l2.384,44.937l2.184,44.949l4.032,89.915l0.118,2.65l2.706-0.125
				l61.564-2.82l30.774-1.545l30.771-1.633l30.765-1.695l30.762-1.804c20.506-1.222,41.015-2.362,61.517-3.66l61.507-3.828
				l61.498-4.024l30.744-2.083l30.74-2.159l30.736-2.228l31.122-2.366L514.235,344.893z M483.85,368.11l-30.792,1.216l-30.79,1.282
				l-30.785,1.358l-61.563,2.861l-61.551,3.059c-20.519,0.997-41.027,2.151-61.541,3.225l-30.77,1.639l-30.762,1.748l-30.763,1.809
				l-30.754,1.899l-58.852,3.889l-5.842-87.104l-2.844-44.911l-2.643-44.922l-2.478-44.932l-2.332-44.941L4.616,37.593l59.396-2.72
				l61.56-2.916l123.089-6.338l61.542-3.208l30.772-1.604l30.766-1.699l61.529-3.456l57.488-3.396l5.248,85.77l5.761,89.817
				l6.038,89.804l3.19,44.892l1.599,22.445l1.646,22.035L483.85,368.11z"/>
		</g>
		<path opacity="0.1" fill="#231F20" d="M397.783,360.996c4.025-1.23,8.375-4.809,13.287-1.709c4.566,2.879,3.27,3.603,8.691,1.147
			c7.265-3.288,31.8-19.946,29.516-21.454c-8.602-5.673-28.134,2.311-44.76-7.295c-4.773-2.759-19.539-7.538-35.998-16.579
			c0,0-20.877-23.142,35.43,7.702c3.124,1.711,4.201,6.709,6.227,3.347c2.025-3.362,40.971-24.303,40.894-31.166
			c-0.08-6.86-28.093,4.575-30.753,5.7c-2.658,1.121-13.117-11.529-19.133-6.48c-6.013,5.046-14.002,6.239-27.375,4.997
			c-13.373-1.246-47.239-6.422-47.239-6.422s13.216-12.476,14.495-25.396c1.282-12.918-4.806-38.079-2.751-46.936
			c2.054-8.86-6.029-8.563,11.539-12.227c17.565-3.661,52.654,11.001,56.962,8.63c55.226-30.387,11.233-25.347,12.601-25.454
			c1.364-0.106,22.583-25.715,20.946-32.597c-0.724-3.043-23.217,4.212-28.883,7.858c-5.666,3.648-6.71,7.849-14.41,8.908
			c-7.7,1.061-23.063,3.636-31.396,2.455c-8.331-1.18-19.852-2.112-19.852-2.112s-5.713-9.107-14.344-16.734
			c-13.643-12.05-27.105-15.736-27.105-15.736l-31.781-25.898c0,0,15.641-26.514,8.674-27.804
			c-6.966-1.285-1.607-31.897-6.256-26.957c-4.649,4.944-33.507,22.767-39.592,26.904c-6.086,4.14-7.281,0.569-11.929,5.511
			c-4.65,4.94-6.808,26.518-10.653,30.02c-3.848,3.508-2.163,7.495,0.711,9.105c2.873,1.605-2.088,6.568-2.088,6.568
			s6.581,4.067,10.009,1.05c0,0,18.398,19.983,24.487,33.816c0,0-1.929,27.337-0.484,63.39c1.445,36.056-1.415,46.35-4.021,59.828
			c-2.612,13.479-1.486,16.168-0.895,29.614c0.595,13.444-0.736,14.005,8.897,20.117c9.634,6.115,15.307,8.419,28.254,4.201
			c12.945-4.213,45.769-4.572,54.425-2.918c8.651,1.654,15.066,7.561,15.066,7.561s-3.476-9.343-9.927-15.702
			c0,0,9.031-1.623,15.194,1.099c0,0,12.683,6.258,25.235,9.894C391.629,356.876,397.783,360.996,397.783,360.996z"/>
		<g opacity="0.1">
			<path fill="#231F20" d="M15.6,215.161c12.857-13.2,10.528-6.072,10.528-6.072c-0.44-0.8-0.269-2.601,0.267-4.945l-0.267,4.945
				c0,0,13.641-4.609,16.212-14.435l1.781-0.947l-1.686-5.256c-1.536-7.108-5.383-7.018-8.821-5.183
				c1.324-3.394-2.859-10.373-3.696-8.919c-2.713,4.714-4.778,13.784-17.477,19.819l4.419,136.255
				c1.831,0.586,3.729,18.801,5.231,19.366c32.11-4.99,16.701-5.167,28.114-1.398c-1.014,1.27,0,0,1.862,0.202
				c7.43,0.808,11.551-2.562,16.354-3.567l3.117-11.73c-1.07-5.35-3.709-12.116-9.605-10.153c-5.932,1.976-9.057,0.827-13.001-0.42
				c-9.635-11.555,5.524-10.019-20.561-14.294c23.956-11.24,19.916-15.75,35.37-22.393c25.179-10.824,60.92-17.857,76.068-23.342
				c15.151-5.489-7.841-21.554,4.494-20.8c0.845,0.05-7.266,7.103-6.631,6.734c-3.075-8.95,8.113-33.359-1.797-35.344
				c-2.371-8.385,27.941-14.017,23.922-24.33c-2.282-5.854-4.304-11.649-6.236-16.765c5.885-4.692-9.315-50.526-14.252-54.609
				c-4.899-4.048-7.328,12.166-2.873,25.025c-2.216,0.786-5.065,2.513-7.602,6.272c-5.069,7.516-10.478,15.454-18.374,19.253
				c-7.896,3.798-31.652,11.356-44.907,21.339c-9.074,6.838-27.28,19.825-37.861,27.34l-13.631,6.224L15.6,215.161z"/>
		</g>
		<g>
			<path fill="#AA3B3A" d="M262.516,106.006c0,0-5.447-16.67-20.75-15.939c-15.305,0.729-5.317,6.936-13.857,14.879
				c-8.539,7.943,1.43,14.467-1.051,22.592c-2.479,8.126,8.916,9.71,16.973,3.662C251.887,125.151,262.516,106.006,262.516,106.006z
				"/>
			<g>
				<g>
					<g>
						<path fill="#3A1E14" d="M352.768,193.461c0,0,15.617-2.976,30.47-0.366c14.854,2.61,30.822,14.136,33.686,9.792
							c2.865-4.345,9.267-3.433,14.26-3.955c4.995-0.526,5.977,0.311,5.096-5.111c-0.884-5.427,0.497-3.31-7.47-5.052
							c-3.811-0.835-5.487-0.495-21.767-3.8c-16.28-3.305-38.423-17.141-48.921-16.78
							C347.619,168.551,352.768,193.461,352.768,193.461z"/>
						<path fill="#4A2E23" d="M422.573,344.298c4.026-1.232,8.374-4.813,13.289-1.713c4.565,2.883,3.27,3.604,8.689,1.15
							c7.269-3.287,4.582-7.201,2.299-8.708c-8.601-5.673-8.057,0.693-24.681-8.915c-4.773-2.759-19.764-8.44-36.223-17.481
							c0,0-13.514-33.368,42.792-2.526c3.127,1.715,6.441,0.613,8.47-2.747c2.022-3.362,7.805,0.305,7.729-6.557
							c-0.079-6.86,0.563-10.925-2.098-9.802c-2.657,1.123-3.587,3.947-9.604,8.995c-6.012,5.049-21.265-12.246-34.639-13.491
							c-13.371-1.245-47.238-6.422-47.238-6.422s13.216-12.476,14.497-25.394c1.281-12.918-4.807-38.082-2.752-46.936
							c2.054-8.861-0.796-21.914,16.771-25.577c17.568-3.662,47.25-4.607,51.659-6.785c4.408-2.175,2.054-8.858,3.421-8.965
							c1.364-0.105,7.192,0.106,5.558-6.775c-0.724-3.047,1.422-9.334-4.243-5.687c-5.666,3.644-6.713,7.848-14.41,8.907
							c-7.699,1.061-23.066,3.635-31.396,2.453c-8.333-1.176-19.853-2.11-19.853-2.11s-5.712-9.108-14.345-16.735
							c-13.642-12.045-27.106-15.735-27.106-15.735l-31.783-25.9c0,0-4.207-36.295-11.175-37.581
							c-6.965-1.288-8.09-3.946-12.737,0.995c-4.652,4.942-6.67,14.255-12.757,18.393c-6.088,4.139-7.281,0.571-11.93,5.51
							c-4.647,4.943-7.31,16.857-11.155,20.362c-3.847,3.506-2.158,7.495,0.713,9.101c2.873,1.608-2.087,6.573-2.087,6.573
							s6.578,4.063,10.007,1.048c0,0,18.399,19.982,24.487,33.817c0,0-1.928,27.335-0.48,63.388
							c1.439,36.053-1.42,46.35-4.026,59.829c-2.609,13.479-1.484,16.167-0.893,29.614c0.595,13.442-0.736,14.004,8.897,20.121
							c9.633,6.114,15.308,8.417,28.256,4.2c12.945-4.217,45.769-4.575,54.424-2.921c8.651,1.653,15.064,7.559,15.064,7.559
							s-3.476-9.339-9.924-15.7c0,0,9.028-1.623,15.195,1.101c0,0,12.682,6.257,25.232,9.891
							C416.419,340.177,422.573,344.298,422.573,344.298z"/>
						<path fill="#3A1E14" d="M351.358,276.082c0,0-6.271,8.497-5.796,14.564c0,0,27.536,10.834,40.385,17.986
							c0,0,3.485-14.134,42.938-0.176c7.18,2.538,8.394-4.187,8.394-4.187s3.648-0.014,7.021-3.354
							c3.375-3.341,4.273-15.783-1.459-13.914c-6.1,1.985-10.596,9.046-19.969,5.021c-12.079-5.188-14.264-7.314-24.274-9.517
							C388.591,280.302,359.461,275.382,351.358,276.082z"/>
					</g>
					<path fill="#3A1E14" d="M254.976,87.411c-3.38,1.949,0.465,10.188,1.647,11.165c1.181,0.975,5.205,5.189,5.205,5.189
						S272.172,77.5,254.976,87.411z"/>
					<path fill="#E7E7E7" d="M257.858,88.844c0.074-3.047,7.319-3.919,6.198,4.538C262.938,101.843,257.739,93.744,257.858,88.844z"
						/>
					<circle fill="#3A1E14" cx="260.89" cy="91.73" r="2.002"/>
					<path fill="#3A1E14" d="M246.255,125.244c0,0,2.771,0.363,8.947-0.698c6.178-1.063,10.079-2.284,7.783-8.985
						c-2.292-6.696-1.647,3.34-8.292,2.482c-6.646-0.855-7.509,0.581-11.396,4.1c-3.887,3.522-7.265-1.264-9.787,2.142
						C230.987,127.692,243.685,129.234,246.255,125.244z"/>
					<path fill="#3A1E14" d="M247.574,116.646c-1.781-1.004,0.968-4.991,5.526-3.968
						C257.659,113.699,251.657,118.947,247.574,116.646z"/>
					<path fill="#3A1E14" d="M370.61,159.214c0,0-6.987-0.618-10.462-4.016s-18.639-24.53-30.989-28.455
						C329.159,126.744,364.986,139.269,370.61,159.214z"/>
					<path fill="#3A1E14" d="M334.83,324.083c0,0,29.434,2.714,31.945,6.86l-4.715-5.792
						C362.061,325.151,350.146,320.592,334.83,324.083z"/>
					<path fill="#3A1E14" d="M268.976,296.223c-0.207,12.501,22.69-18.085,11.339-50.211c-11.354-32.128-9.937-44.541-9.937-44.541
						S269.615,257.463,268.976,296.223z"/>
					<path fill="#8A5E3C" d="M434.955,162.426l2.032-4.681l-2.678-6.371c0,0,8.365-7.054,9.909-3.049
						c1.545,4.005-1.529,10.97-3.559,12.963C438.631,163.28,440.436,162.693,434.955,162.426z"/>
					<path fill="#603A17" d="M427.082,198.088c0,0,4.149-3.242,5.762-8.496c0,0,12.939,2.658,10.785,4.37
						C441.475,195.679,435.133,203.563,427.082,198.088z"/>
					<path fill="#8A5E3C" d="M443.162,333.403l-3.599-1.361c0,0,13.38-1.816,15.56,2.167c2.179,3.98-13.781,16.33-18.065,9.068"/>
					<path fill="#603A17" d="M437.02,304.286c0,0,3.107-11.783,5.171-12.069c2.062-0.285-6.246-1.663-3.139-3.407
						c3.104-1.741,13.344-6.212,15.268-3.066C458.191,292.058,445.74,304.447,437.02,304.286z"/>
					<path fill="#F8C32D" d="M263.352,116.846c-3.96,0.307-3.205,12.667-3.205,12.667s8.278,1.596,11.495-3.038
						C271.642,126.475,267.449,116.525,263.352,116.846z"/>
				</g>
				<path fill="#3A1E14" d="M277.837,64.693c1.228-0.093,2.361,1.594,2.53,3.773c0.17,2.178-0.684,4.024-1.912,4.121
					c-1.227,0.096-2.361-1.593-2.53-3.773C275.755,66.635,276.611,64.789,277.837,64.693z"/>
			</g>
		</g>
		<g>
			<path fill="#EFDDCE" d="M136.355,105.932c0,0,10.688-21.711,20.465-7.55c9.779,14.159-13.727,30.845-13.727,30.845
				L136.355,105.932z"/>
			<path fill="#EFDDCE" d="M156.171,278.854c0,0,20.937,12.132,6.148,20.929c-14.787,8.8-29.847-15.781-29.847-15.781
				L156.171,278.854z"/>
			<g>
				<path fill="#F2F2F2" d="M128.725,105.038c-16.061,7.387-16.904,141.725-3.564,169.915c16.707,35.302,40.313,7.373,37.987-12.715
					c-2.988-25.825-2.597-63.129-4.76-98.218C156.224,128.93,159.296,90.98,128.725,105.038z"/>
				<path fill="#3C547B" d="M117.795,134.916c0,0,19.758,9.342,39.135,0.391l0.706,13.4c0,0-22.841,5.448-41.226-2.862
					L117.795,134.916z"/>
				<path fill="#3C547B" d="M113.583,236.674c0,0,18.258,22.945,46.867,7.228l0.177-17.613c0,0-30.151,11.662-46.688-0.964
					L113.583,236.674z"/>
				<path fill="#808184" d="M133.48,155.857c0,0,0.718,3.765-0.563,5.66c12.825-5.675,29.175-10.463,35.611-7.355
					c0,0,7.869,2.298,0.164,7.713c3.15,1.714,10.675,7.694,10.675,7.694c-4.099-0.534,6.82,11.776,1.245,13.785
					c-1.275,0.981,8.539,6.404,7.176,7.481c-8.1,6.4-3.557,5.286-3.557,5.286c11.459,10.954-5.384,14.064-2.927,20.591
					c2.452,6.531-12.087,14.468-15.017,16.171c0,0,0.864-4.257-3.418-7.88c0,0,0.431,13.249-7.662,14.317
					c0,0,3.647-3.709-1.862-8.398c0,0-15.215,5.244-26.269-5.035c-11.056-10.28-11.702-25.152-18.606-32.035
					c-6.901-6.883-6.901-6.883-6.901-6.883s6.621-0.94,9.679,2.368c0,0-1.254-11.615,5.627-18.517L133.48,155.857z"/>
			</g>
		</g>
	</g>
	<g>
		<g>
			<g>
				<polygon fill="#A6A8AC" points="530.501,657.578 199.98,669.785 112.473,421.585 512.434,404.659 				"/>
				<path fill="#231F20" d="M530.9,657.549c-0.483-10.557-0.991-21.114-1.553-31.666l-1.632-31.66l-1.738-31.649l-1.815-31.648
					l-1.865-31.642l-1.93-31.639l-4.007-63.267l-0.24-3.799l-3.854,0.146l-50.005,1.883l-25.001,0.957l-24.998,1.056
					c-16.663,0.737-33.331,1.382-49.991,2.193l-49.985,2.365l-99.966,4.795l-49.973,2.646l-49.967,2.776l-2.978,0.166l1.005,2.749
					l22.548,61.813l11.128,30.959l11.004,31.002l10.869,31.048c3.643,10.344,7.161,20.729,10.731,31.099l5.316,15.566l5.256,15.586
					l10.513,31.178l0.539,1.594l1.755-0.035l41.342-0.806c6.89-0.165,13.78-0.272,20.667-0.483l20.665-0.575l20.659-0.712
					c6.887-0.234,13.772-0.48,20.658-0.78l41.307-1.708l41.301-1.904l41.293-2.113l20.645-1.146l20.641-1.213l20.638-1.293
					l21.036-1.438L530.9,657.549z M509.805,657.292l-20.678,0.234l-20.673,0.313l-20.672,0.378l-41.337,0.938l-41.329,1.148
					l-41.321,1.344c-6.888,0.209-13.773,0.47-20.658,0.745l-20.656,0.814l-20.649,0.949c-6.885,0.298-13.765,0.699-20.647,1.041
					l-39.603,2.154l-10.756-29.223l-5.683-15.438l-5.622-15.458c-3.722-10.313-7.497-20.61-11.146-30.952l-11.007-31l-10.875-31.048
					l-10.749-31.092l-20.242-59.454l47.087-1.371l50.018-1.585l100.014-3.669l50.005-1.866c16.67-0.598,33.332-1.364,50-2.036
					l24.996-1.061l24.993-1.16l46.197-2.171l4.722,59.362l2.588,31.592l2.65,31.586l2.701,31.584l2.779,31.578l2.885,31.57
					c0.932,10.381,1.917,20.762,2.926,31.139L509.805,657.292z"/>
			</g>
			<polygon fill="#AA3B3A" points="301.735,449.058 282.48,663.208 369.745,660.131 363.686,432.783 			"/>
			<path fill="#231F20" d="M472.6,516.298c0,0-20.344-69.295-18.57-109.439l-177.301,8.285l24.453,53.547
				c4.15-3.926-0.694-8.078,8.146-13.118c20.233-11.536,11.02-0.754,20.017-0.553c8.997,0.202,14.915-5.667,14.915-5.667
				l8.526,1.208l3.553,5.063c0,0,0.156-6.998-8.764-0.196s-4.39,6.903-11.032,6.755c-6.644-0.148-13.408,3.701-13.408,3.701
				l-16.297,11.59l15.17,36.82c0,0-32.689,91.479-17.591,102.748c15.092,11.266,14.645,18.926,31.54,12.621
				c16.904-6.308,32.677-26.138,52.058-28.836c19.384-2.701,18.029,7.212,34.923,0.908c16.899-6.314,37.266-31.588,50.557-35.415
				c13.296-3.827,13.974-15.32,9.017-22.532c-3.504-5.1,4.292-9.588,9.165-11.785c2.973,2.215,5.876,3.793,10.179,1.58
				C511.876,528.433,483.424,509.81,472.6,516.298z"/>
		</g>
		<g>
			<g>
				<g>
					<path fill="#E7E7E7" d="M191.912,558.275c0,0,34.804-100.85,59.431-129.315c0,0-7.375,53.246-36.024,137.643L191.912,558.275z"
						/>
					<path fill="#BBBDBF" d="M205.709,556.529l45.634-127.569c0,0-4.335,44.181-36.024,137.643l-11.711-4.167L205.709,556.529z"/>
				</g>
				<path fill="#1D76BB" d="M180.219,553.57c-2.694,7.572,12.497,10.652,8.917,16.357c-1.641,2.613-6.746,15.988-12.254,31.417
					l14.444,37.144c7.58-22.504,17.06-56.861,20.808-62.936c5.494-8.903,10.384,0.822,14.897-5.327
					C231.546,564.076,182.912,545.998,180.219,553.57z"/>
			</g>
			<path fill="#EFDDCE" d="M171.504,586.376c0,0,14.403-10.237,26.263,5.646c11.859,15.885,17.31,32.797-3.19,53.461
				L171.504,586.376z"/>
			<path fill="#AA3B3A" d="M251.343,428.959c0,0-26.473,36.929-24.016,61.929s-1.855,19.576-5.699,37.787
				c-3.844,18.213-2.844,28.213-2.844,28.213S253.917,452.254,251.343,428.959z"/>
		</g>
	</g>
</g>
</svg>
