<?xml version="1.0" encoding="utf-8"?>
<!-- Generator: Adobe Illustrator 16.0.0, SVG Export Plug-In . SVG Version: 6.00 Build 0)  -->
<!DOCTYPE svg PUBLIC "-//W3C//DTD SVG 1.1//EN" "http://www.w3.org/Graphics/SVG/1.1/DTD/svg11.dtd">
<svg version="1.1" id="Layer_1" xmlns="http://www.w3.org/2000/svg" xmlns:xlink="http://www.w3.org/1999/xlink" x="0px" y="0px"
	 width="401.059px" height="452.852px" viewBox="0 0 401.059 452.852" enable-background="new 0 0 401.059 452.852"
	 xml:space="preserve">
<g>
	<g>
		<path fill="#101112" d="M334.391,81.398c-6.66-8.839-62.154-1.845-89.639,2.853l-3.84,48.248
			c3.475-0.893,37.744-2.221,42.008-2.839c28.227-4.098,19.459,13.18,33.268,29.5c13.81,16.318-6.903,55.723-6.903,55.723
			c5.649-1.254,30.128,17.088,26.36,11.438c-3.765-5.648,20.114-36.059,23.094-53.352
			C365.121,135.937,334.391,81.398,334.391,81.398z"/>
		<path fill="#F2F2F2" d="M250.594,235.15l0.723-5.151h-6.563C248.281,233.262,250.594,235.15,250.594,235.15z"/>
		<path fill="#101112" d="M223.921,90.873c-12.739,5.244-16.751,31.865-17.575,47.574c-1.285,24.477-2.412,21.787,3.293,42.053
			c5.729,20.348,25.234,40.364,35.113,49.499h6.562l2.98-21.255c13.18-10.043-25.611-24.479-16.827-49.584
			c7.625-21.784,3.634-9.55,2.442-5.93c1.27-3.332-19.237-13.542,4.841-19.731V84.25C225.584,87.528,233.703,86.846,223.921,90.873z
			"/>
		<path fill="#F2F2F2" d="M239.911,153.23c-0.22,0.575-0.3,0.906-0.3,0.906S239.729,153.782,239.911,153.23z"/>
	</g>
	<path opacity="0.2" fill="#0F131A" enable-background="new    " d="M401.059,415.204c0,20.246-89.781,36.66-200.533,36.66
		C89.778,451.864,0,435.45,0,415.204c0-20.242,89.779-36.662,200.526-36.662C311.277,378.542,401.059,394.962,401.059,415.204z"/>
	<path fill="#181B1E" d="M281.83,390.794c-6.459-31.781-2.701-44.795-2.299-82.311c0.201-18.886-7.328-34.934-39.234-35.792
		c-31.906-0.86-50.232-5.161-69.957-2.588c-32.655,4.271-51.819-11.854-54.816-13.362c-11.061-5.537-10.52-2.306-18.56-3.427
		c0,0-1.22-1.666-5.245-2.336c-2.954-1.158-6.356-1.582-8.561,2.336c-3.872,6.888,6.049,11.213,6.049,11.213
		s-4.154,1.289-10.582,9.003c0,0-5.956,5.362-14.153,12.688c-8.191,7.336-0.918,22.125,14.738,22.113
		c11.709-0.014,26.266,2.764,26.266,2.764s3.218,2.104,10.294,3.166c15.877,2.361,2.064,16.646,11.722,78.828
		c0.982,6.201,12.459,9.685,11.541-2.764c-0.41-5.479,0.121-14.709,0.86-23.478c0.178,2.568,0.334,4.138,0.334,4.138
		c0.256-9.726,1.282-17.209,2.809-22.945c2.179,10.285,8.264,38.402,10.734,43.664c2.997,6.459,12.472,7.729,9.211-3.211
		c-6.453-21.656,3.463-53.668,8.644-51.521c4.894,2.041,30.889,0.787,41.32-1.92c-0.178,0.263-0.272,0.412-0.272,0.412
		c1.009,1.775,2.624,5.797,5.656,8.541c-0.445,1.742-0.517,3.556,0.722,4.369c1.338,0.891,3.168-0.182,4.816-1.684
		c1.009,0.145,2.105,0.139,3.298-0.043c0.11,1.36,0.666,2.526,2.224,2.646c0.956,0.076,1.604-0.121,2.043-0.492l3.571,1.426
		c0,0,0.026-0.051,0.065-0.135c0.697,1.892,7.08,19.84,5.765,41.609c-0.422,7.014,8.449,10.777,12.328-2.588
		c2.87-9.904,3.825-25.908,4.129-33.56c0.894,1.597,1.75,3.136,2.553,4.586c3.064,11.041,8.361,29.23,11.857,36.238
		C276.875,406.731,284.738,405.167,281.83,390.794z"/>
	<g>
		<path fill="#101112" d="M261.486,59.988c-4.437,9.273,0,20.086-6.275,24.479c-6.277,4.395,23.936,21.799,33.895,8.16
			c17.871-24.479,11.927-7.533-7.53-32.639C262.115,34.88,261.486,59.988,261.486,59.988z"/>
		<path fill="#101112" d="M314.299,73.966c0,0,20.092,85.824,25.112,129.131s-0.627,46.445,6.274,95.402
			c6.905,48.959,5.123,77.023,12.556,102.936c5.399,18.832-34.325,20.916-60.702,13.812c-47.257-12.73-93.076,10.672-87.428-1.881
			c6.639-14.752,7.986-60.465,9.904-83.48c1.885-22.596,7.043-46.447,8.299-84.734c1.256-38.287,3.582-131.794,0.85-158.229
			l17.98-3.08c0,0-6.903,50.211,28.772,43.309c28.199-5.457,27.716-7.535,21.621-51.801L314.299,73.966z"/>
		<path fill="#101112" d="M266.211,8.238c-19.271-1.453-30.625,18.83-30.625,34.521c0,15.691,4.445,40.799,18.229,46.447
			c13.783,5.65,27.174,3.137,33.031-4.395c5.859-7.533,10.252-29.5,8.368-45.191C293.332,23.929,291.188,10.119,266.211,8.238z"/>
		<path fill="#101112" d="M235.793,40.042c0.109-6.959,34.143-14.576,48.795-10.811s13.247,16.115,11.402,30.73
			c-2.102,16.645-16.014,33.92-18.307,13.205c0,0,15.711-26.988-1.767-23.223c-17.478,3.765-16.921,0.486-17.338,8.508
			c-1.255,24.199-1.527,6.625-4.284,0c-2.759-6.625-6.08-6.707-11.545-6.625c-5.466,0.082-3.955,6.625-3.955,6.625
			S235.616,51.207,235.793,40.042z"/>
		<path fill="#101112" d="M274.661,49.945c-4.922-4.393-11.202-3.742-12.771,2.383C260.325,58.453,279.584,54.337,274.661,49.945z"
			/>
		<path fill="#101112" d="M252.91,53.089c-4.182-5.072-10.465-5.389-12.938,0.404C237.497,59.289,257.087,58.164,252.91,53.089z"/>
		<circle fill="#101112" cx="270.255" cy="52.308" r="2.994"/>
		<circle fill="#101112" cx="248.895" cy="54.058" r="2.994"/>
		<path fill="#101112" d="M306.977,44.189c0,0-3.615-1.27-4.61-3.326c-1.533,13.934-5.603,30.471-11.519,34.475
			c0,0,0.053-5.016-0.762-14.395c-3.064,1.861-5.896,2.395-5.896,2.395c2.519-3.273,3.371-9.967,4.433-15.795
			c-0.207-1.596-0.433-3.246-0.679-4.965c-1.469-10.215-4.192-4.174-19.307,0.584c-15.117,4.754-25.941,7.209-32.818,6.057
			c-6.875-1.158-11.896-11.949-11.896-15.34c0,0,3.246,2.887,8.527,1.002c0,0-11.665-6.277-8.527-13.809
			c0,0,1.374,5.016,8.192,2.605c0,0,3.104-15.783,17.542-20.18c14.438-4.395,27.615,2.512,37.031,0
			c9.416-2.51,9.416-2.51,9.416-2.51s-2.512,6.193-6.905,7.176c0,0,10.672,4.75,13.182,14.162"/>
		<polygon fill="#101112" points="328.471,139.757 335.645,118.988 335.645,137.191 343.176,129.373 335.823,144.093 
			343.176,144.093 331.049,152.675 		"/>
		<polygon fill="#101112" points="230.416,142.208 223.387,138.447 226.898,146.605 218.9,146.605 224.656,152.675 223.387,159.791 
			230.416,165.435 		"/>
		<path fill="#101112" d="M254.361,95.138c5.334,5.646-0.342,10.668,17.246,10.668c17.59,0,20.729-4.393,20.1-5.334
			c-0.625-0.943,0.23,9.1-14.635,10.982c-14.865,1.885-11.342,9.418-4,7.533c7.34-1.881-10.994,11.924-18.711-8.16
			C246.643,90.748,254.361,95.138,254.361,95.138z"/>
		<path fill="#101112" d="M268.527,70.658c0,0-21.383,13.184-14.231-12.205C254.296,58.453,261.664,72.541,268.527,70.658z"/>
		<path fill="#101112" d="M253.495,155.296c8.712,33.99,12.147,20.811,11.687,44.66c-0.465,23.852-2.824,50.842-11.687,96.033
			c-8.862,45.192-10.458,83.479-13.738,38.916c-3.284-44.562,18.206-74.691,13.738-109.841
			C249.027,189.916,253.495,155.296,253.495,155.296z"/>
		<path fill="#101112" d="M284.189,147.861c10.658,7.533,28.859,14.438,30.115,32.639c1.254,18.201-12.554,26.363,7.53,89.756
			c20.085,63.395-6.901,109.841-6.276,63.395c0.627-46.447,7.532-26.988-5.646-55.234c-13.184-28.244-0.703-82.854-3.178-96.66
			C304.264,167.947,284.189,147.861,284.189,147.861z"/>
		<path fill="#101112" d="M284.189,262.098c-5.192,42.976-29.541,46.444-15.092,55.233c14.448,8.787,0.038-11.927,15.092-32.64
			c15.051-20.711,9.729-71.551-1.731-58.372c-11.464,13.18-29.69,48.6-13.36,28.694
			C285.432,235.107,286.084,246.404,284.189,262.098z"/>
		<path fill="#101112" d="M329.279,373.819c10.529,8.936,33.18,20.086,0,21.34c-33.178,1.256-22.508,5.649-41.338,5.649
			c-18.828,0-32.789-7.53-43.199-7.53c-10.412,0-30.146-5.105-21.356-13.892c8.785-8.789,14.444-21.887,30.976-11.844
			s-0.916,23.223,29.828,18.203C314.934,380.724,320.406,366.288,329.279,373.819z"/>
		<path fill="#101112" d="M329.279,419.011c0,0,11.843-11.756,29.459-14.237c17.617-2.482,37.607,9.034,30.027,14.237
			S360.762,431.495,329.279,419.011z"/>
		<path fill="#101112" d="M253.764,410.646c0,0-22.59-15.646-40.688-5.707c-18.098,9.938-18.534,17.832-3.913,17.485
			C223.781,422.075,254.305,423.188,253.764,410.646z"/>
		<path fill="#101112" d="M287.742,20.238c0,0-25.984-11.205-38.241-2.912c-12.259,8.293-7.798,12.422-7.798,12.422
			S264.184,12.72,287.742,20.238z"/>
		<path fill="#101112" d="M261.561,45.767c-1.781,6.168,16.672,1.564,13.849-1.232C272.58,41.734,263.077,40.529,261.561,45.767z"/>
		<path fill="#101112" d="M253.395,46.328c2.283-4.459-16.432-1.225-13.854,0.82C243,49.894,250.445,52.085,253.395,46.328z"/>
	</g>
</g>
<path opacity="0.2" fill="#0F131A" enable-background="new    " d="M228.628,235.15c0,0-1.75,36.031-3.346,41.849
	c-1.597,5.817-6.534,53.819-7.212,77.731c-0.678,23.913-5.815,36.149-4.996,50.209c0.818,14.061,35.154,8.815,62.629,10.229
	c27.474,1.412,57.757,11.707,67.473,7.27c9.717-4.438,23.336,5.152,13.674-38.069c-9.664-43.226-7.439-72.438-12.193-101.368
	s-2.417-42.219-3.133-53.984c-0.715-11.765,1.369,188.72-29.631,153.353s-70.291-51.271-76.105-127.353
	C229.971,178.931,228.628,235.15,228.628,235.15z"/>
</svg>
