<?xml version="1.0" encoding="utf-8"?>
<!-- Generator: Adobe Illustrator 16.0.0, SVG Export Plug-In . SVG Version: 6.00 Build 0)  -->
<!DOCTYPE svg PUBLIC "-//W3C//DTD SVG 1.1//EN" "http://www.w3.org/Graphics/SVG/1.1/DTD/svg11.dtd">
<svg version="1.1" id="Layer_1" xmlns="http://www.w3.org/2000/svg" xmlns:xlink="http://www.w3.org/1999/xlink" x="0px" y="0px"
	 width="125.794px" height="112.759px" viewBox="0 0 125.794 112.759" enable-background="new 0 0 125.794 112.759"
	 xml:space="preserve">
<g>
	<path fill="#291A12" d="M112.555,46.315c8.605-10.398-1.793-11.474-3.281-27.25c-1.488-15.776-9.106-22.261-13.125-17.569
		c-22.095,25.8-23.951,61.861-24.1,69.012c-2.369-2.307-6.059-6.846-5.191-10.525c1.604-6.818-4.612-15.792-4.878-16.17
		c-0.513-0.733-1.524-0.913-2.257-0.398c-0.733,0.514-0.912,1.525-0.397,2.258c1.576,2.248,5.436,9.069,4.376,13.565
		c-0.739,3.148,0.548,6.338,2.238,8.941c-2.354-2.801-5.333-6.455-8.314-10.42c-7.092-9.432-14.039-8.181-14.33-8.124
		c-0.878,0.175-1.45,1.026-1.276,1.905c0.174,0.878,1.026,1.452,1.905,1.275c0.05-0.011,5.322-0.807,11.11,6.891l7.607,10.865
		C52.302,65.052,9.055,42.605,2.119,49.542c-7.888,7.888,8.247,9.681,15.776,18.644c7.531,8.965,25.099,19.361,25.099,19.361
		c0.717,18.287,35.856,30.479,39.801,22.949c3.943-7.529-5.737-27.609-5.737-27.609c2.868,2.51,10.398,13.984,11.832,11.133
		c1.435-2.85-3.585-7.548-3.585-7.548s3.227,1.435,12.52,4.662c9.295,3.228,18.674,8.604,26.205-15.417
		C131.559,51.693,112.555,46.315,112.555,46.315z"/>
	<g>
		<path fill="#F69321" d="M108.526,60.706l7.244-3.251c-0.76-1.822-1.707-3.427-2.856-4.686c-0.64-0.701-1.382-1.151-2.2-1.392
			L108.526,60.706z"/>
		<path fill="#FAAF42" d="M113.493,62.559l4.539,5.073c-0.174-2.242-0.521-4.463-1.055-6.537L113.493,62.559z"/>
		<path fill="#FAAF42" d="M98.176,68.991l7.29,4.93l12.64-0.633c0.028-0.537,0.044-1.078,0.053-1.623l-7.884-7.755L98.176,68.991z"
			/>
		<path fill="#FAAF42" d="M94.36,70.595l-8.777,3.686c0.014,0.133,0.038,0.256,0.081,0.361c0.034,0.087,0.082,0.174,0.12,0.262
			l12.022-0.601L94.36,70.595z"/>
		<path fill="#FFCC29" d="M116.651,77.868l-14.705,8.567c4.346,1.487,8.497,1.989,10.968,0.755c2.286-1.143,3.893-4.764,4.686-9.322
			H116.651z"/>
		<path fill="#F69321" d="M100.877,64.14l5.131-12.333c-7.001,2.613-15.861,12.566-19.141,18.62L100.877,64.14z"/>
		<path fill="#FFCA61" d="M109.666,77.868H87.839c1.997,2.165,4.968,4.283,8.232,6.01C99.606,82.137,105.59,79.577,109.666,77.868z"
			/>
	</g>
	<g>
		<path fill="#F69321" d="M98.301,37.976L88.76,53.717l9.314-2.462c1.348-1.404,2.631-2.821,3.793-4.201L98.301,37.976z"/>
		<path fill="#F69321" d="M82.401,64.21c2.245-1.102,5.427-3.458,8.777-6.375h-4.914L82.401,64.21z"/>
		<path fill="#F15B2A" d="M98.939,25.592l3.821-7.352c-1.211-2.309-2.697-4.293-4.548-5.629c-1.104-0.797-2.309-0.072-3.558,1.71
			L98.939,25.592z"/>
		<path fill="#F15B2A" d="M89.786,25.276l2.729,12.675l3.29-6.331l-4.312-10.979C90.922,22.067,90.353,23.626,89.786,25.276z"/>
		<path fill="#F15B2A" d="M89.68,43.404L89.68,43.404l-2.602-9.503c-3.458,11.853-6.389,24.785-7.512,28.011
			c-0.238,0.687-0.356,1.237-0.377,1.677L89.68,43.404z"/>
		<path fill="#F15B2A" d="M105.618,25.907l-4.031,6.649l3.767,9.907c1.46-2.218,2.304-4.111,2.182-5.365
			C107.231,33.942,106.661,29.886,105.618,25.907z"/>
	</g>
	<g>
		<path fill="#F69321" d="M35.883,66.062l-7.754,4.152c5.102,3.525,10.188,6.829,13.704,9.09c1.265-3.682,4.571-9.773,4.574-9.779
			L35.883,66.062z"/>
		<path fill="#F15B2A" d="M12.101,52.548l13.035,6.675l24.785,7.863C39.278,60.598,19.04,52.702,12.101,52.548z"/>
		<path fill="#F15B2A" d="M33.831,65.386l-10.557-3.474l-12.003-9.337c-0.357,0.033-0.665,0.094-0.905,0.194
			c-3.559,1.465,5.469,8.794,15.383,15.785L33.831,65.386z"/>
		<path fill="#F69321" d="M49.722,70.614l-4.975,10.533c8.28,4.844,8.254-3.98,11.417-6.773c0.466-0.41,0.57-0.926,0.377-1.516
			L49.722,70.614z"/>
	</g>
	<g>
		<path fill="#FAAF42" d="M66.208,89.813L66.66,89.7l2.329-8.691c-1.698-1.832-3.604-2.992-5.654-3.116L66.208,89.813z"/>
		<path fill="#FFCA61" d="M67.377,91.853l9.789,12.785c-0.021-6.429-2.502-15.697-6.469-21.473L67.377,91.853z"/>
		<polygon fill="#6F489D" points="66.776,92.171 67.377,91.853 66.766,92.134 		"/>
		<path fill="#FAAF42" d="M63.733,90.43L61.459,78.11c-4.883,1.399-13.762,8.625-9.571,15.27L63.733,90.43z"/>
		<path fill="#FFCC29" d="M68.409,98.954l2.342,9.717c2.505,0.987,4.551,1.101,5.607-0.203L68.409,98.954z"/>
		<path fill="#FFCA61" d="M64.425,94.185l-0.444-0.531l0.315-0.167l-0.038-0.202l-8.951,4.111c3.161,3.228,7.457,6.799,11.409,9.21
			L64.425,94.185z"/>
	</g>
</g>
</svg>
