<?xml version="1.0" encoding="utf-8"?>
<!-- Generator: Adobe Illustrator 16.0.0, SVG Export Plug-In . SVG Version: 6.00 Build 0)  -->
<!DOCTYPE svg PUBLIC "-//W3C//DTD SVG 1.1//EN" "http://www.w3.org/Graphics/SVG/1.1/DTD/svg11.dtd">
<svg version="1.1" id="Layer_1" xmlns="http://www.w3.org/2000/svg" xmlns:xlink="http://www.w3.org/1999/xlink" x="0px" y="0px"
	 width="600px" height="407px" viewBox="0 0 600 407" enable-background="new 0 0 600 407" xml:space="preserve">
<g opacity="0.1">
	<path fill="#FFFFFF" d="M77.305,30.606c5.982,1.048,11.413,1.802,16.317,2.238c0.006,0.001,0.011,0.003,0.017,0.005
		c15.705,3.816,35.911,1.534,47.556,0.434c11.645-1.1,5.035-6.139,2.203-11.804c-2.259-4.519-9.524-2.429-16.206-0.164
		c0.174-0.509,0.335-1.03,0.469-1.575c3.462-14.013-23.29,0.165-46.579-4.871c-23.29-5.035-19.198-0.314-46.895,2.518
		C6.491,20.22,17.594,23.7,11.842,26.83C-9.56,38.475,46.776,25.256,77.305,30.606z"/>
	<path fill="#FFFFFF" d="M505.172,340.676c-12.57-11.354-40.087-15.532-63.022-13.074c-9.222,0.987-19.101,6.961-24.711,15.986
		c-23.796-5.996-54.522-10.626-61.507,2.955c-11.758,22.861,15.022,37.883,82.299,41.365c67.275,3.482,156.106,6.315,158.799-30.493
		C599.37,325.426,544.799,330.961,505.172,340.676z"/>
	<path fill="#FFFFFF" d="M590.385,64.079c-12.41-13.716-85.564,9.145-85.564,9.145s-34.618-15.676-71.849-14.37
		c-37.229,1.306-56.685,16.696-61.397,28.739c-23.514,60.091,158.72,32.658,199.869,24.82
		C612.593,104.575,602.795,77.795,590.385,64.079z"/>
	<path fill="#FFFFFF" d="M320.445,36.555c11.757,1.129,37.884,2.137,51.601-8.64c13.716-10.778-18.289-8.817-27.434-12.769
		s-18.115-1.738-28.739,0C300.881,17.599,308.688,35.426,320.445,36.555z"/>
	<path fill="#FFFFFF" d="M317.905,164.495c-11.124,0.325-11.757,13.063-11.757,21.554s50.946,7.839,71.194,7.186
		s60.745-5.879,69.235-13.717C455.069,171.68,382.594,162.599,317.905,164.495z"/>
</g>
<path opacity="0.1" fill="#FFFFFF" d="M89,204.646c6.798-13.38,32-15.523,61-9.523s81,10,67,18s-47,15-75,15S74,234.169,89,204.646z
	"/>
<path opacity="0.1" fill="#FFFFFF" d="M63.958,272.928c58.138-17.889,147.351,4,153.175,33s-5.175,36-59.175,37
	S-14.042,296.928,63.958,272.928z"/>
</svg>
