<?xml version="1.0" encoding="utf-8"?>
<!-- Generator: Adobe Illustrator 16.0.0, SVG Export Plug-In . SVG Version: 6.00 Build 0)  -->
<!DOCTYPE svg PUBLIC "-//W3C//DTD SVG 1.1//EN" "http://www.w3.org/Graphics/SVG/1.1/DTD/svg11.dtd">
<svg version="1.1" id="Layer_1" xmlns="http://www.w3.org/2000/svg" xmlns:xlink="http://www.w3.org/1999/xlink" x="0px" y="0px"
	 width="600px" height="578px" viewBox="0 0 600 578" enable-background="new 0 0 600 578" xml:space="preserve">
<g opacity="0.1">
	<path fill="#FFFFFF" d="M149.5,172.62c5.982,1.048,45.096-0.436,50,0c0.006,0.001,19.994-0.002,20,0
		c28-3.825,25.672-8.726,37.317-9.825c13.683-7.762-1.613-10.856-4.445-16.521c-2.259-4.519-9.524-2.429-16.206-0.164
		c0.174-0.509,0.335-1.03,0.469-1.575c3.462-14.013-23.29,0.165-46.579-4.871c-23.29-5.035-19.198-0.314-46.895,2.518
		c-27.696,2.833-16.593,6.313-22.345,9.443C99.415,163.27,118.971,167.27,149.5,172.62z"/>
	<path fill="#FFFFFF" d="M500.172,102.646c-12.57-11.354-40.087-15.531-63.021-13.074c-9.223,0.987-19.102,6.961-24.711,15.986
		c-23.797-5.996-54.522-10.626-61.508,2.955c-11.758,22.861,15.022,37.883,82.3,41.365c67.274,3.482,156.105,6.314,158.799-30.493
		C594.37,87.396,539.799,92.931,500.172,102.646z"/>
	<path fill="#FFFFFF" d="M248.609,461.586c-12.41-13.716-85.563,9.146-85.563,9.146s-34.618-15.677-71.85-14.371
		C53.968,457.667,34.512,473.057,29.8,485.1c-23.515,60.091,158.72,32.658,199.869,24.82
		C270.817,502.082,261.02,475.302,248.609,461.586z"/>
	<path fill="#FFFFFF" d="M320.445,36.555c11.757,1.129,37.884,2.137,51.601-8.64c13.716-10.778-18.289-8.817-27.434-12.769
		c-9.146-3.952-18.115-1.738-28.739,0C300.881,17.599,308.688,35.426,320.445,36.555z"/>
</g>
<path opacity="0.1" fill="#FFFFFF" d="M531.445,434.842c11.757,1.129,37.884,2.137,51.601-8.64
	c13.716-10.778-18.289-8.817-27.434-12.769c-9.146-3.953-18.115-1.738-28.739,0C511.881,415.887,519.688,433.713,531.445,434.842z"
	/>
</svg>
