<?xml version="1.0" encoding="utf-8"?>
<!-- Generator: Adobe Illustrator 16.0.0, SVG Export Plug-In . SVG Version: 6.00 Build 0)  -->
<!DOCTYPE svg PUBLIC "-//W3C//DTD SVG 1.1//EN" "http://www.w3.org/Graphics/SVG/1.1/DTD/svg11.dtd">
<svg version="1.1" id="Layer_1" xmlns="http://www.w3.org/2000/svg" xmlns:xlink="http://www.w3.org/1999/xlink" x="0px" y="0px"
	 width="50px" height="36.097px" viewBox="0 0 50 36.097" enable-background="new 0 0 50 36.097" xml:space="preserve">
<path fill="#51362B" d="M3.228,19.705c0,0-0.897,3.475,0,5.612s1.223,1.888,4.623,4.388s7.89,5.625,10.832,5.75
	s-0.881,0.75,4.593,0.625s2.867-0.125,8.483-0.625s5.474-0.75,6.607-1.875s2.759-2.752,3.384-4.376s1.729-1.774,1.927-3.887
	s2.825-6.768,1.823-8.34s-0.869-4.748-0.869-4.748S10.581,11.955,3.228,19.705z"/>
<path fill="#845C40" d="M31.907,1.127c5.036,1.258,11.032,6.708,12.159,9.381c1.129,2.675,0.404,6.065-0.769,10.057
	c-1.175,3.99-2.047,5.762-5.208,7.074c-3.162,1.311-2.227,5.28-11.681,4.55c-9.453-0.735-15.38-2.675-21.101-6.224
	C0.495,22.98,5.192,10.828,7.795,7.514C10.398,4.199,18.173-2.3,31.907,1.127z"/>
<path fill="#CEBAB2" d="M39.559,22.315c1.52,1.044-2.602,3.314-4.594,1.079C32.974,21.159,37.063,20.604,39.559,22.315z"/>
<path fill="#CEBAB2" d="M25.537,21.86c-0.921,2.438-0.789,3.463-1.744,3.457c-0.955-0.006-3.436-0.647-2.657-2.479
	c0.777-1.83,0.824-1.978,2.139-1.969C24.588,20.88,25.766,21.255,25.537,21.86z"/>
<path fill="#CEBAB2" d="M37.247,10.303c-0.724,2.63-1.563,2.656-2.753,3.758c-1.191,1.103-2.926,3.313-2.903-0.021
	C31.614,10.708,37.604,9.01,37.247,10.303z"/>
<path fill="#CEBAB2" d="M23.344,12.76c1.483,2.671,3.191,2.556-0.021,3.101c-3.213,0.544-2.797,2.29-3.424-0.141
	C19.271,13.289,22.521,11.277,23.344,12.76z"/>
<path fill="#CEBAB2" d="M13.861,8.363c-0.874,1.994-0.597,3.547-2.036,4.316c-1.439,0.769-2.586,0.98-3.44-0.023
	c-0.853-1.004-0.564-1.196,0.021-2.982c0.586-1.789,0.041-1.57,2.467-2.22C13.298,6.804,13.861,8.363,13.861,8.363z"/>
<path fill="#CEBAB2" d="M24.196,5.991c0.842,0.928-1.018,2.326-1.658,1.378C21.899,6.42,22.774,4.427,24.196,5.991z"/>
<path fill="#CEBAB2" d="M11.745,24.169c-0.594,2.838-1.75,4.385-2.594,2.157C8.306,24.099,12.338,21.332,11.745,24.169z"/>
<path fill="#51362B" d="M30.406,19.809c2.147-0.651,0.558,1.874,1.114,4.498c0.555,2.624-0.033,4.619-0.033,4.619
	s-2.015,1.206-2.283-1.405C28.937,24.908,28.97,20.244,30.406,19.809z"/>
<path fill="#51362B" d="M31.893,7.435c1.911,2.32-2.307,6.477-4.015,4.856c-1.709-1.621-0.78,0.415-1.088-2.491
	C26.481,6.896,29.361,4.363,31.893,7.435z"/>
<path fill="#51362B" d="M38.801,7.794c-2.166-1.586-5.64-2.833-4.255-1.167S39.8,8.526,38.801,7.794z"/>
<path fill="#51362B" d="M18.631,23.059c0.384,3.795-1.47,5.211-2.897,4.368c-1.426-0.844-4.219-1.383-1.975-4.401
	C16.002,20.007,17.818,15.036,18.631,23.059z"/>
<path fill="#51362B" d="M19.86,9.282c1.417,1.415,1.543,2.796-1.095,2.945C16.126,12.377,16.375,5.804,19.86,9.282z"/>
<path fill="#91715C" d="M25.234,2.887c2.584,0.629-4.643,3.044-6.276,2.495c-1.633-0.549-3.367,1.438-1.633-0.549
	C19.058,2.845,20.527,1.745,25.234,2.887z"/>
<path fill="#91715C" d="M42.507,10.534c3.472,3.48-1.706,4.195-3.592,4.204C37.033,14.746,40.431,8.454,42.507,10.534z"/>
<path fill="#91715C" d="M29.204,27.521c0.16-5.275,1.182-5.108,0.05-6.862c-1.137-1.755-5.466,6.143-2.589,7.074
	C29.542,28.662,29.159,29.02,29.204,27.521z"/>
</svg>
