<?xml version="1.0" encoding="utf-8"?>
<!-- Generator: Adobe Illustrator 16.0.0, SVG Export Plug-In . SVG Version: 6.00 Build 0)  -->
<!DOCTYPE svg PUBLIC "-//W3C//DTD SVG 1.1//EN" "http://www.w3.org/Graphics/SVG/1.1/DTD/svg11.dtd">
<svg version="1.1" id="Layer_1" xmlns="http://www.w3.org/2000/svg" xmlns:xlink="http://www.w3.org/1999/xlink" x="0px" y="0px"
	 width="1066.136px" height="392.605px" viewBox="0 0 1066.136 392.605" enable-background="new 0 0 1066.136 392.605"
	 xml:space="preserve">
<path fill="#595A5C" d="M163.095,130.458h748c0,0,2.786,252.969-0.688,255.321c-3.473,2.35-738.121,8.879-744.967-6.072
	C158.595,364.751,163.095,130.458,163.095,130.458z"/>
<path fill="#414142" d="M163.095,7.716c0,0,2.922-0.076,8.4-0.217c5.479-0.133,13.514-0.328,23.74-0.576
	c10.227-0.201,22.645-0.447,36.889-0.73c14.244-0.256,30.314-0.547,47.846-0.764c17.531-0.248,36.523-0.518,56.611-0.689
	c20.088-0.193,41.271-0.441,63.186-0.537c10.957-0.066,22.097-0.133,33.373-0.2c11.277-0.077,22.69-0.14,34.195-0.146
	c23.01-0.045,46.385-0.092,69.76-0.139c23.375,0.045,46.75,0.09,69.76,0.135c5.753,0.012,11.482,0.024,17.183,0.035
	c5.701,0.035,11.374,0.068,17.013,0.104c11.276,0.068,22.416,0.136,33.373,0.201c21.914,0.098,43.098,0.336,63.186,0.537
	c10.044,0.106,19.813,0.209,29.265,0.309c9.45,0.132,18.581,0.258,27.347,0.382c17.531,0.218,33.602,0.505,47.846,0.765
	c14.244,0.283,26.662,0.531,36.889,0.735c10.227,0.25,18.262,0.444,23.74,0.577c5.479,0.143,8.4,0.219,8.4,0.219
	s-2.922,0.074-8.4,0.217c-5.479,0.133-13.514,0.328-23.74,0.578c-10.227,0.203-22.645,0.452-36.889,0.734
	c-14.244,0.26-30.314,0.548-47.846,0.768c-8.766,0.121-17.896,0.248-27.347,0.379c-9.451,0.1-19.221,0.203-29.265,0.309
	c-20.088,0.201-41.271,0.439-63.186,0.537c-10.957,0.066-22.097,0.135-33.373,0.201c-5.639,0.035-11.312,0.068-17.013,0.104
	c-5.7,0.011-11.43,0.022-17.183,0.034c-23.01,0.045-46.385,0.09-69.76,0.136c-23.375-0.046-46.75-0.093-69.76-0.14
	c-11.505-0.006-22.918-0.068-34.195-0.145c-11.276-0.068-22.416-0.134-33.373-0.201c-21.914-0.096-43.098-0.342-63.186-0.537
	c-20.088-0.172-39.08-0.438-56.611-0.688c-17.531-0.218-33.602-0.509-47.846-0.765c-14.244-0.281-26.662-0.526-36.889-0.73
	c-10.227-0.248-18.262-0.443-23.74-0.576C166.017,7.79,163.095,7.716,163.095,7.716z"/>
<g>
	<g>
		<path fill="#F3CF6D" d="M537.322,234.472c0,0-35.663,11.396-35.886,21.526c-0.224,10.131,3.823,20.051,10.714,20.57
			c6.89,0.52,6.615,1.211,12.437,1.416c5.821,0.207,6.57-0.564,11.768-3.309c5.195-2.742-4.286,9.096,9.01-1.354
			C558.661,262.875,537.322,234.472,537.322,234.472z"/>
		<path fill="#F69321" d="M554.807,139.836l-20.735-28.304c0,0,4.141-4.73,4.141-8.871c0-4.139-2.957-1.773-6.506,0
			c0,0-16.56-2.957-19.517-7.096c-2.957-4.141-13.603-2.365-8.28,0c5.323,2.365,7.689,5.322,7.689,5.322s-5.301,0-9.156,1.184
			c-3.855,1.183,0.285,4.73,4.424,4.14c4.141-0.593,4.141-0.593,4.141-0.593s-14.281,11.033-10.098,10.84s10.098-4.926,11.871-5.516
			c1.775-0.592,6.872,0,6.872,0l15.603,19.516C535.255,130.458,547.745,143.888,554.807,139.836z"/>
		<path fill="#FFDE74" d="M535.255,130.458c7.096,1.184,15.968,4.73,22.473,12.421c6.506,7.687,14.848,8.073,24.248,13.601
			c13.011,7.649,16.161,16.811,19.118,25.088c2.957,8.279,10.452,13.945,9.27,24c-1.183,10.053,0.233,13.01,0.233,13.01
			s0.949,5.324,3.314,13.604c2.366,8.28,9.463,5.914,0,20.108c-9.462,14.193-4.623,6.008-7.58,10.146
			c-2.957,4.141-10.162,12.918-6.021,11.736c4.14-1.184-11.237,10.053-6.506,11.236c4.731,1.182-2.957,5.914-0.592,5.914
			c2.366,0-1.773,1.182-2.365,5.914c-0.592,4.73,0,4.73-4.731,10.645s-6.505,17.15-14.785,22.475
			c-8.279,5.322-18.925,11.828-36.075,5.914c0,0-5.323-4.141-4.732-8.871c0.592-4.732,0-10.055,2.366-14.785
			c2.366-4.732,1.774-1.775,2.957-7.689s4.14-13.602,3.548-20.699c-0.591-7.096-0.591-4.139-3.548-13.602s1.183-15.719,2.366-22.351
			c1.182-6.628-0.685-11.38-7.735-13.736c-7.05-2.355-2.319-1.764-7.05-2.355c-4.732-0.592-5.323-14.785,0-18.334
			c5.322-3.549,7.096,1.184,10.053-3.549c2.957-4.73-5.322-0.592-0.591-20.107c4.731-19.518,4.14-23.063,4.14-31.346
			C537.028,150.565,535.255,130.458,535.255,130.458z"/>
		<path fill="#F69321" d="M524.608,218.577c0,0-3.548-1.773-7.688,3.55c-4.141,5.321-5.322,17.741-8.871,18.925
			c-3.549,1.182-2.807,1.182-7.908-0.591c-5.104-1.774-8.651-1.185-5.104,1.183c3.549,2.365,9.023,3.797,5.104,9.586
			c-3.92,5.789-12.791,5.789-11.608,9.93s6.505-5.322,8.871,0s-1.623,23.656,2.737,18.926c4.359-4.732,1.66-12.666,7.924-17.988
			c0,0-2.717,2.02-0.002,0.836c2.715-1.182,2.352-5.322,4.717-10.645c2.366-5.323,1.775-15.969,10.646-20.108
			C532.298,228.04,524.608,218.577,524.608,218.577z"/>
		<path fill="#F69321" d="M540.095,330.568l-5.236-9.988l-3.572,1.99l-1.188,5.137c-0.01,0-0.02,0-0.029,0l-2.862,12.502
			c0,0,6.034,0.135,11.005-5.123c0,0-3.654-0.209,0,0C540.095,330.568,540.095,330.568,540.095,330.568z"/>
		<path fill="#F3CF6D" d="M569.173,245.19c5.227,8.385-8.488-15.354-5.531-26.896c2.957-11.546,8.28-26.331,8.28-28.696
			s-2.366,4.732,0,6.506c2.365,1.774,5.914-6.982,5.914-6.982v8.757l7.097-8.757c0,0,1.774,1.295,5.914,0
			c4.14-1.297,4.14,3.434,4.14,3.434s-0.998-14.785-16.171-10.052C563.642,187.233,546.316,208.524,569.173,245.19z"/>
		<path fill="#F3CF6D" d="M554.807,307.289c-2.434-4.016,7.652,4.141,7.652,6.506S558.391,313.203,554.807,307.289z"/>
		<path fill="#F3CF6D" d="M569.173,331.722c0,0,5.114-6.832,2.749-17.111c-2.366-10.279,4.731,0.545,11.828-8.416
			c7.097-8.959,6.287-4.09,6.287-4.09S578.209,327.066,569.173,331.722z"/>
		<path fill="#F3CF6D" d="M579.619,249.576c-2.007,1.768,4.722-16.803,4.722-22.717s5.725-8.563,5.725-8.563s-4.922,18.005,0,16.241
			c4.921-1.764,4.921-1.764,4.921-1.764S586.726,243.313,579.619,249.576z"/>
		<path fill="#F3CF6D" d="M544.717,150.565c-2.509-6.688,5.914,11.236,3.549,17.742c-2.366,6.506,0,8.871-3.549,10.055
			C541.169,179.546,548.266,160.028,544.717,150.565z"/>
		<path fill="#231F20" d="M551.358,326.093c1.239-1.148,1.748-3.484,0.601-4.725s-3.517-0.912-4.757,0.236
			c-1.239,1.146-1.748,3.484-0.6,4.725C547.749,327.568,550.118,327.242,551.358,326.093z"/>
		<polygon fill="#F69321" points="534.858,320.58 523.616,329.406 532.221,329.673 		"/>
		<ellipse fill="#FFFFFF" cx="550.319" cy="324.97" rx="1.039" ry="1.123"/>
		<polygon fill="#E88225" points="534.071,111.532 545.96,133.854 552.601,136.823 		"/>
		<path fill="#E88225" d="M514.556,103.845c1.773,0,11.021,0,11.021,0l-5.925,4.141l5.925,5.914l-12.797-2.957L514.556,103.845z"/>
		<path fill="#E88225" d="M511.81,234.536l-6.352,15.159l-4.031-7.581C501.427,242.114,505.515,242.806,511.81,234.536z"/>
		<path fill="#F3CF6D" d="M534.071,242.114c0,0,0.677,22.372,3,32.241c0,0-12.299-20.158-11.494-24.66
			C526.384,245.19,533.432,229.538,534.071,242.114z"/>
	</g>
	<g>
		<rect x="534.095" y="7.915" fill="#414142" width="6" height="111.839"/>
	</g>
	<polygon fill="#414142" points="527.7,121.583 535.858,113.413 540.095,120.327 531.306,126.093 	"/>
</g>
<path fill="#414142" d="M157.605,156.104h-9.5v6h-44v14.414c-12.924,2.32-28.39,7.83-43.502,19.936
	C20.681,228.433,0.439,291.736,0.439,384.605c0,4.418,3.582,8,8,8s8-3.582,8-8c0-48.275,5.71-88.467,16.972-119.459
	c8.928-24.571,21.348-43.405,36.915-55.979c11.695-9.445,23.594-14.146,33.78-16.372v13.31h44v6.184h9.5V156.104z"/>
<path opacity="0.3" fill="#FFFFFF" d="M682.105,189.948c-14.266,0-6.213-0.91-39.598-2.229c-0.755-3.697,1.37-9.146,11.536-16.775
	c22.748-17.072-6.102-22.146-11.678,3.256c-1.584,7.22-8.549,11.188-10.955,13.074c-2.352-0.094,0,0-2.402-0.098
	c-3.484-2.811-6.248-9.164-6.542-16.232c-0.675-16.209-29.958-8.029-17.549,4.465s-78.11,13.105-85.265-4.465
	c-7.155-17.57-47.612-6.459-19.639,3.256c27.975,9.713,1.426,10.836-24.574,0c-14.101-5.877-33.076-0.844-37,5.723
	c-32.602-1.225-79.234-2.055-95.48-2.055c-62,0-179.865,8.117-179.865,8.117s0,0,0,3.93v188.508c0,3.928,5.373,7.113,12,7.113h724
	c6.627,0,12-3.186,12-7.113V189.915c0-3.93,0-8.383,0-8.383S734.105,189.948,682.105,189.948z"/>
<path fill="#414142" d="M911.095,110.339c-3.584,0-6.5,2.916-6.5,6.5v256.698c0,3.031-2.467,5.5-5.5,5.5h-724
	c-3.033,0-5.5-2.469-5.5-5.5V116.839c0-3.584-2.916-6.5-6.5-6.5s-6.5,2.916-6.5,6.5v256.698c0,10.201,8.299,18.5,18.5,18.5h724
	c10.201,0,18.5-8.299,18.5-18.5V116.839C917.595,113.255,914.679,110.339,911.095,110.339z"/>
</svg>
