<?xml version="1.0" encoding="utf-8"?>
<!-- Generator: Adobe Illustrator 16.0.0, SVG Export Plug-In . SVG Version: 6.00 Build 0)  -->
<!DOCTYPE svg PUBLIC "-//W3C//DTD SVG 1.1//EN" "http://www.w3.org/Graphics/SVG/1.1/DTD/svg11.dtd">
<svg version="1.1" id="Layer_1" xmlns="http://www.w3.org/2000/svg" xmlns:xlink="http://www.w3.org/1999/xlink" x="0px" y="0px"
	 width="391.028px" height="391.029px" viewBox="0 0 391.028 391.029" enable-background="new 0 0 391.028 391.029"
	 xml:space="preserve">
<g>
	<defs>
		<circle id="SVGID_1_" cx="195.514" cy="195.515" r="195.514"/>
	</defs>
	<clipPath id="SVGID_2_">
		<use xlink:href="#SVGID_1_"  overflow="visible"/>
	</clipPath>
	<g clip-path="url(#SVGID_2_)">
		<rect x="-47.521" y="-10.427" fill="#609949" width="457.873" height="442.405"/>
		<path fill="#55823F" d="M245.076,148.955c0,0,11.976-18.63-9.749-25.314c-21.727-6.684-25.226,8.884-25.226,8.884L245.076,148.955
			z"/>
		<path fill="#55823F" d="M248.273,111.921c0,0,0.207-0.257,0.57-0.73c3.465-4.525,21.148-28.778,8.208-36.542
			c-14.293-8.575-19.124,13.585-19.124,13.585L248.273,111.921z"/>
		<path fill="#55823F" d="M379.079,267.815c0,0,54.637-81.68,54.065-89.684c-0.572-8.005-8.004-117.539-20.01-123.09
			c-12.008-5.549-30.949,46.479-34.056,39.046c-3.107-7.433,10.745-45.738-10.188-46.311c-20.934-0.571-59.811,14.929-69.53,23.473
			l-23.607,42.308l7.708,14.794c0,0-62.35,58.977-67.82,66.67c-5.471,7.693,30.875,39.582,32.955,41.997
			C250.676,239.436,379.079,267.815,379.079,267.815z"/>
		<path fill="#734B2E" d="M393.417,245.646c-12.085,38.139-22.509,50.383-41.87,59.112c-19.362,8.729-27.591,11.474-72.123,21.948
			c-44.533,10.476-49.908,16.961-77.957,25.44c-28.05,8.48-74.76,8.231-121.955,8.979s-90.517,12.97-90.517,12.97l93.484,32.913
			c0,0,141.244,0.476,179-10c38.583-10.705,121.531-77.188,133.875-86.84c12.343-9.651,31.947-51.463,34.609-114.655h-28.076
			C401.887,195.515,401.162,221.204,393.417,245.646z"/>
		<g>
			<g>
				
					<rect x="220.793" y="186.375" transform="matrix(0.9808 -0.195 0.195 0.9808 -38.9673 61.9907)" fill="#231914" width="149.221" height="85.116"/>
				
					<rect x="216.474" y="183.471" transform="matrix(0.9808 -0.195 0.195 0.9808 -34.8135 60.7315)" fill="#311F18" width="149.221" height="47.467"/>
			</g>
			<path fill="#311F18" d="M213.278,198.474c0,0,4.871-11.305,14.89-2.959c0,0,4.301-8.199,15.449-3.072
				c0,0,4.058-8.587,15.893-3.159c0,0,8.977-7.311,16.98-1.799c0,0,1.744-9.322,14.594-4.478c0,0,8.557-6.913,16.706-3.321
				c0,0,8.745-9.446,16.166-3.214c0,0,10.28-6.486,17.14-2.126c0,0,11.923-9.716,18.54-4.966l3.435,17.28l-146.389,28.932
				L213.278,198.474z"/>
			<path fill="#231914" d="M379.079,267.815c0,0-4.87,11.306-14.889,2.96c0,0-4.302,8.198-15.45,3.071c0,0-4.057,8.587-15.893,3.159
				c0,0-8.977,7.311-16.981,1.799c0,0-1.744,9.322-14.593,4.479c0,0-8.557,6.912-16.706,3.32c0,0-8.744,9.446-16.165,3.213
				c0,0-10.28,6.486-17.141,2.128c0,0-11.923,9.716-18.54,4.966l-3.435-17.279l146.389-28.933L379.079,267.815z"/>
		</g>
		<g>
			<g>
				
					<rect x="280.871" y="113.61" transform="matrix(0.9808 -0.195 0.195 0.9808 -20.067 64.3413)" fill="#231914" width="71.868" height="40.994"/>
				
					<rect x="278.791" y="112.211" transform="matrix(0.9808 -0.195 0.195 0.9808 -18.0664 63.734)" fill="#311F18" width="71.869" height="22.861"/>
			</g>
		</g>
		<path fill="#231914" d="M356.047,147.204c0,0-3.622,7.522-10.43,2.073c0,0-5.093,5.98-13.668,1.981c0,0-7.417,10.349-15.144,3.747
			c0,0-5.058,8.662-9.999,3.263c0,0-4.068,6.357-8.268,2.949c-0.281-0.227-1.11,2.706-7.455,2.432
			c-4.576-0.197-5.526-2.432-5.526-2.432l-2.097-10.549l70.582-13.546L356.047,147.204z"/>
		<path fill="#311F18" d="M275.753,113.559c0,0,3.622-7.522,10.431-2.073c0,0,5.092-5.981,13.668-1.981
			c0,0,7.417-10.349,15.143-3.746c0,0,5.059-8.662,9.998-3.263c0,0,4.07-6.357,8.269-2.949c0.28,0.227,1.11-2.706,7.455-2.433
			c4.576,0.197,5.527,2.433,5.527,2.433l2.097,10.549l-70.583,13.546L275.753,113.559z"/>
		<path fill="#F8A893" d="M210.102,132.525c0.859-3.006,2.395-4.632,4.123-3.68s1.936-1.357,5.994-0.118c0,0,1.99-1.16,3.564,0.602
			c1.574,1.763,0.438,3.558,0.438,3.558s4.224-0.484,11.202,3.813c6.979,4.297,10.326,8.075,9.653,12.254
			c0,0,1.047,0.896,2.436,0.967c1.391,0.072,1.346,0.709,0.416,1.895c-0.931,1.187-1.42-2.007-3.547-0.914
			c-2.127,1.093-2.83,7.302-7.957,6.053c-5.128-1.25-6.563-0.163-11.566-5.549c-5.005-5.387-8.585-4.548-7.854-10.518
			c0,0-2.428,1.568-4.131-0.841c-1.702-2.409-1.624-4.8-1.624-4.8S209.512,134.59,210.102,132.525z"/>
		<path fill="#F8A893" d="M248.273,111.921c-2.146,0.984-3.834,0.902-4.136-0.557c-0.305-1.459-1.729-0.442-3.015-3.379
			c0,0-1.643-0.572-1.405-2.34c0.237-1.769,1.825-2,1.825-2s-2.354-2.185-3.318-8.298s-0.443-9.89,2.285-11.557
			c0,0-0.001-1.041-0.643-1.873c-0.642-0.833-0.254-1.12,0.882-1.169c1.138-0.05-0.453,1.8,1.218,2.483
			c1.673,0.683,5.579-1.965,7.383,1.589c1.803,3.556,3.131,3.844,2.502,9.361c-0.631,5.517,1.609,7.157-2.174,9.672
			c0,0,2.092,0.622,1.548,2.783c-0.545,2.16-1.954,3.29-1.954,3.29S249.748,111.245,248.273,111.921z"/>
		<path fill="#88C6ED" d="M337.273-10.427c0,0-33.049,49.417-128.467,56.589c-80.474,6.049-89.453,51.731-140.061,79.808
			c-50.607,28.078-57.32-7.077-111.026-20.353c-53.705-13.276-18.59-31.226-58.869-67.366
			c-40.279-36.141-41.829-48.679-41.829-48.679H337.273z"/>
		<g>
			<path fill="#55823F" d="M129.39,305.895c0,0,9.016-33.3,41.218-53.334c16.087-10.008,26.557,12.723,17.688,28.374
				c-8.868,15.649-43.01,45.451-43.01,45.451l-15.896-19.118V305.895z"/>
			<g>
				<path fill="#331D1D" d="M160.3,277.699c-1.072-0.644-1.931-5.147,0-4.933c1.931,0.214,4.718,2.462,4.718,2.462
					s8.365-8.039,11.797-5.465c3.432,2.573,2.145,6.22-2.574,11.581c0,0,3.861,4.719,1.074,5.147c-2.79,0.43-4.505-1.501-4.505,0
					c0,1.502-0.496,7.078-1.856,8.58c-1.361,1.501,3.143,4.289-1.79,6.005s-3.003-0.215-3.003-0.215s-8.15,14.155-17.586,21.662
					c0,0,1.715,1.716-1.288,3.861c-3.002,2.145-19.088,0.214-18.443-14.585c0,0-1.932-7.721,5.575-5.576
					c0,0,14.156-20.161,18.23-22.52c0,0,0.43-5.791,3.861-6.221c3.432-0.429,3.002,3.003,3.002,3.003L160.3,277.699z"/>
				<path fill="#331D1D" d="M132.633,319.736c0,0-1.288,3.861-4.933,2.574c-3.646-1.287-2.789,2.359,0,3.217
					c2.787,0.858-3.889-3.861,2.145-1.716C135.878,325.957,132.633,319.736,132.633,319.736z"/>
				<path fill="#AFA3A3" d="M155.152,304.08c-2.621,1.865-2.573,1.071-2.467,5.146c0.107,4.076,1.609,1.502,4.183-2.573
					C159.442,302.578,156.96,302.793,155.152,304.08z"/>
				<path fill="#AFA3A3" d="M143.356,298.186c-3.906,2.762-7.721,10.612-2.145,10.612c5.576,0,6.862-3.217,6.22-6.863
					C146.788,298.288,145.931,296.367,143.356,298.186z"/>
				<path fill="#AFA3A3" d="M166.521,287.564c3.328-0.221,0.429,6.863-2.146,6.649S163.303,287.779,166.521,287.564z"/>
			</g>
			<path fill="#55823F" d="M175.183,257.135c0,0,13.149-16.167,18.867-13.515c5.718,2.651-7.154,23.234-7.154,23.234
				L175.183,257.135z"/>
		</g>
		<g>
			<path fill="#55823F" d="M60.17,195.515c0,0,53.747,27.095,47.732,49.136c-6.015,22.042-25.666,24.033-36.74,12.811L60.17,195.515
				z"/>
			<g>
				<path fill="#331D1D" d="M54.514,212.682c-1.039,0.697-5.48-0.44-4.466-2.096c1.016-1.656,4.234-3.226,4.234-3.226
					s-3.722-10.988,0.067-13c3.789-2.013,6.542,0.702,9.389,7.252c0,0,5.912-1.49,5.116,1.217c-0.796,2.706-3.272,3.438-1.914,4.076
					c1.359,0.639,6.195,3.457,6.976,5.327c0.782,1.87,5.219-1.022,4.675,4.172c-0.542,5.195-1.468,2.628-1.468,2.628
					s9.348,13.394,12.132,25.125c0,0,2.283-0.822,2.948,2.807c0.665,3.629-7.918,17.369-21.041,10.496c0,0-7.81-1.533-2.678-7.418
					c0,0-12.233-21.382-12.636-26.072c0,0-5.06-2.85-3.99-6.139c1.07-3.289,3.995-1.442,3.995-1.442L54.514,212.682z"/>
				<path fill="#331D1D" d="M80.806,255.593c0,0,2.948,2.806,0.233,5.56c-2.714,2.753,0.951,3.526,2.912,1.367
					c1.962-2.159-5.147,1.879-0.642-2.671C87.815,255.299,80.806,255.593,80.806,255.593z"/>
				<path fill="#AFA3A3" d="M74.87,232.664c0.575,3.165-0.124,2.785,3.611,4.42c3.733,1.636,2.042-0.818-0.552-4.879
					C75.334,228.143,74.473,230.48,74.87,232.664z"/>
				<path fill="#AFA3A3" d="M59.873,218.334c1.86-4.906,11.562,4.684,9.49,8.18C67.293,230.009,58.079,223.075,59.873,218.334z"/>
			</g>
			<path fill="#55823F" d="M101.423,253.826c0,0,5.152,1.481,4.42,5.553c-0.732,4.07-1.886-0.617-7.813-1.123
				C92.104,257.749,101.423,253.826,101.423,253.826z"/>
		</g>
		<g>
			<path fill="#55823F" d="M94.186,150.381c0,0,22.589-27.198,44.422-30.057c21.832-2.859,48.302-0.751,23.633,28.497
				L94.186,150.381z"/>
			<g>
				<path fill="#331D1D" d="M110.421,159.796c0.375,1.194-1.973,5.132-3.274,3.69s-1.895-4.973-1.895-4.973
					s-11.593,0.46-12.45-3.743c-0.859-4.203,2.523-6.076,9.612-6.953c0,0,0.245-6.092,2.615-4.563c2.37,1.53,2.372,4.112,3.368,2.99
					c0.997-1.124,5.068-4.965,7.083-5.185c2.014-0.22,0.496-5.295,5.324-3.304c4.829,1.991,2.104,2.153,2.104,2.153
					s15.493-5.177,27.534-4.527c0,0-0.145-2.422,3.524-2.033c3.669,0.389,14.419,12.51,4.114,23.151c0,0-3.682,7.057-7.873,0.47
					c0,0-23.969,5.683-28.583,4.743c0,0-4.166,4.046-7.017,2.089c-2.851-1.957-0.252-4.24-0.252-4.24L110.421,159.796z"/>
				<path fill="#331D1D" d="M159.018,146.721c0,0,3.526-2.033,5.398,1.35c1.873,3.383,3.652,0.086,2.136-2.406
					c-1.516-2.492,0.345,5.469-2.743-0.141C160.72,139.915,159.018,146.721,159.018,146.721z"/>
				<path fill="#AFA3A3" d="M128.727,149.884c4.51,0.638,3.076,1.317,10.271-2.483c7.192-3.799,1.934-2.796-6.478-1.384
					C124.106,147.43,125.616,149.445,128.727,149.884z"/>
			</g>
			<path fill="#55823F" d="M125.564,126.026c-6.662,2.361-14.61-3.67-11.62,0s6.147,9.972,12.313,7.28
				C132.425,130.615,125.564,126.026,125.564,126.026z"/>
			<path fill="#55823F" d="M171.051,129.382c0.561-2.607,2.254-3.02,8.256-4.574c4.002-1.036-3.589,17.771-11.799,10.073
				C159.297,127.185,171.051,129.382,171.051,129.382z"/>
		</g>
		<path fill="#55823F" d="M248.342,137.121c2.992,1.562,2.627,0.842,3.667-1.657c1.042-2.499-2.122-1.932-7.115-1.357
			S248.342,137.121,248.342,137.121z"/>
	</g>
</g>
</svg>
