<?xml version="1.0" encoding="utf-8"?>
<!-- Generator: Adobe Illustrator 16.0.0, SVG Export Plug-In . SVG Version: 6.00 Build 0)  -->
<!DOCTYPE svg PUBLIC "-//W3C//DTD SVG 1.1//EN" "http://www.w3.org/Graphics/SVG/1.1/DTD/svg11.dtd">
<svg version="1.1" id="Layer_1" xmlns="http://www.w3.org/2000/svg" xmlns:xlink="http://www.w3.org/1999/xlink" x="0px" y="0px"
	 width="286.708px" height="308.486px" viewBox="0 0 286.708 308.486" enable-background="new 0 0 286.708 308.486"
	 xml:space="preserve">
<g>
	<defs>
		<rect id="SVGID_1_" x="-0.708" width="287.416" height="308.486"/>
	</defs>
	<clipPath id="SVGID_2_">
		<use xlink:href="#SVGID_1_"  overflow="visible"/>
	</clipPath>
	<g clip-path="url(#SVGID_2_)">
		
			<rect x="-36.165" y="-5.088" transform="matrix(0.9993 -0.0376 0.0376 0.9993 -2.9838 4.9865)" fill="#77D0E9" width="334.82" height="174.014"/>
		<path fill="#5EAD9B" d="M3.03,121.805c20.594,1.329,19.266-6.642,28.566-0.664c9.301,5.979,17.937,14.52,26.572,19.218
			c8.637,4.697,11.958,3.369,17.273,9.349c5.315,5.979,17.272,5.979,19.265,4.649c1.994-1.328,3.322-1.993,7.308-1.993
			c3.986,0,12.622-1.327,16.608-2.656c3.986-1.328,20.594-9.397,36.538-9.349c15.943,0.048,18.602-1.281,29.895-4.602
			c11.293-3.322,16.608-2.658,23.252-7.309c6.643-4.65,2.657-3.321,15.279-15.943s6.643-7.973,12.622-12.622
			c5.979-4.651,13.286-4.651,19.93-0.665s6.644,3.986,6.644,3.986S313.348,99.591,297,101c-2.717,0.234-1.835,54.687-8.394,67.972
			c-6.559,13.287-247.613,12.83-284.814-3.114C-33.411,149.914,3.03,121.805,3.03,121.805z"/>
		<g>
			<path fill="#734B2E" d="M-29.308,193.582c0,0-76.372-40.09,57.064-32.297c133.437,7.792,105.954,6.758,205.831,0.813
				c65.448-3.896,25.549-6.425,89.309-2.809c49.504,2.809-5.989,5.567-5.989,5.567L318,328l-344-2L-29.308,193.582z"/>
			<path fill="#603A17" d="M-76.792,217.447c0,0,168.57-5.898,233.211-18.43c64.639-12.531,87.896-35.616,145.665-32.785
				C359.854,169.062,354,169,354,169l-6,166l-413,1L-76.792,217.447z"/>
			<path fill="#473515" d="M344.804,256.207c0,0-28.559-32.885-106.719-23.93c-78.158,8.953-114.877-10.406-178.973-39.896
				c-64.095-29.491-19.363-16.811-86.149-12.477c-66.788,4.33-97.26,15.979-97.26,15.979l-8.048,106.377L337.6,349.134
				L344.804,256.207z"/>
			<g>
				<path fill="#603A17" d="M10.72,179.392c0.855-0.238,1.714-0.475,2.579-0.715c0.863-0.242,1.738-0.459,2.613-0.691
					c0.875-0.229,1.753-0.459,2.634-0.688c0.885-0.217,1.772-0.434,2.662-0.65c0.89-0.215,1.78-0.438,2.674-0.645
					c0.896-0.203,1.792-0.402,2.688-0.604c3.582-0.826,7.186-1.551,10.739-2.234c0.89-0.162,1.776-0.32,2.659-0.48
					c0.883-0.158,1.758-0.33,2.633-0.471c1.75-0.291,3.476-0.594,5.181-0.844c0.852-0.129,1.696-0.258,2.533-0.385
					c0.838-0.119,1.669-0.234,2.49-0.352c0.411-0.059,0.819-0.115,1.225-0.174c0.407-0.053,0.812-0.104,1.214-0.156
					c0.805-0.104,1.599-0.205,2.382-0.307c1.569-0.178,3.095-0.369,4.574-0.52c0.74-0.078,1.466-0.156,2.18-0.232
					c0.715-0.068,1.416-0.135,2.102-0.199c2.747-0.252,5.269-0.455,7.507-0.6c2.237-0.153,4.192-0.241,5.801-0.303
					c1.609-0.057,2.875-0.094,3.738-0.107c0.863-0.012,1.324-0.008,1.324-0.008s-0.461-0.027-1.323-0.059
					c-0.863-0.026-2.13-0.072-3.743-0.068c-1.614,0.002-3.572,0.015-5.818,0.083c-1.125,0.025-2.319,0.08-3.578,0.127
					c-0.63,0.033-1.275,0.066-1.937,0.103c-0.662,0.033-1.337,0.073-2.026,0.123c-2.763,0.167-5.749,0.428-8.904,0.741
					c-3.152,0.34-6.479,0.705-9.9,1.211c-3.427,0.48-6.957,1.051-10.532,1.697c-3.571,0.672-7.192,1.385-10.792,2.197
					c-0.9,0.207-1.8,0.412-2.699,0.619c-0.896,0.211-1.789,0.438-2.683,0.656c-0.892,0.223-1.782,0.443-2.67,0.662
					c-0.884,0.236-1.765,0.471-2.643,0.703c-0.877,0.238-1.754,0.459-2.62,0.707c-0.864,0.25-1.725,0.498-2.58,0.746
					c-0.854,0.252-1.707,0.484-2.546,0.746c-0.839,0.26-1.671,0.52-2.499,0.775c-0.825,0.258-1.646,0.506-2.455,0.766
					c-0.806,0.271-1.604,0.537-2.395,0.799c-0.788,0.268-1.569,0.529-2.34,0.789c-0.77,0.262-1.523,0.543-2.271,0.807
					c-0.746,0.27-1.481,0.531-2.207,0.793c-0.363,0.129-0.722,0.258-1.079,0.387c-0.356,0.129-0.705,0.27-1.054,0.402
					c-1.391,0.539-2.734,1.057-4.024,1.557c-0.647,0.246-1.268,0.518-1.881,0.766c-0.612,0.252-1.209,0.5-1.792,0.74
					c-1.162,0.488-2.27,0.938-3.292,1.406c-1.026,0.457-1.987,0.883-2.875,1.279c-0.443,0.197-0.869,0.387-1.277,0.566
					c-0.407,0.18-0.788,0.369-1.153,0.539c-1.461,0.686-2.598,1.242-3.377,1.613c-0.779,0.375-1.194,0.574-1.194,0.574
					s0.425-0.178,1.222-0.512c0.795-0.336,1.967-0.818,3.447-1.455c0.372-0.154,0.758-0.328,1.172-0.492
					c0.413-0.166,0.846-0.338,1.297-0.52c0.9-0.359,1.875-0.75,2.917-1.166c1.036-0.426,2.159-0.832,3.336-1.277
					c1.18-0.436,2.409-0.922,3.706-1.393c1.3-0.463,2.654-0.945,4.055-1.443c0.35-0.125,0.704-0.25,1.06-0.375
					c0.358-0.121,0.719-0.244,1.083-0.365c0.727-0.244,1.466-0.492,2.215-0.746c0.749-0.25,1.506-0.514,2.278-0.76
					c0.773-0.242,1.556-0.488,2.349-0.736c0.789-0.25,1.589-0.504,2.396-0.76c0.808-0.25,1.63-0.486,2.455-0.734
					c0.826-0.244,1.658-0.494,2.497-0.742C9.015,179.855,9.867,179.63,10.72,179.392z"/>
				<path fill="#603A17" d="M51.111,176.923c0.75-0.195,1.503-0.387,2.254-0.58c0.752-0.191,1.501-0.398,2.255-0.578
					c0.755-0.184,1.508-0.365,2.26-0.545c0.375-0.09,0.751-0.182,1.127-0.271c0.376-0.086,0.753-0.168,1.127-0.252
					c0.752-0.168,1.501-0.334,2.247-0.498c0.745-0.17,1.494-0.309,2.235-0.467c0.742-0.152,1.479-0.314,2.214-0.455
					c1.473-0.275,2.923-0.576,4.359-0.814c0.717-0.125,1.429-0.25,2.133-0.371c0.707-0.115,1.406-0.229,2.098-0.34
					c1.381-0.234,2.741-0.416,4.062-0.615c2.646-0.357,5.15-0.688,7.469-0.926c2.318-0.246,4.448-0.439,6.339-0.58
					c1.89-0.145,3.54-0.234,4.9-0.301c1.36-0.061,2.43-0.094,3.16-0.109c0.729-0.014,1.12-0.01,1.12-0.01s-0.389-0.025-1.119-0.057
					c-0.73-0.027-1.802-0.068-3.166-0.068c-1.363-0.004-3.021,0-4.921,0.072c-0.95,0.025-1.959,0.08-3.025,0.125
					c-1.064,0.064-2.185,0.125-3.352,0.219c-2.335,0.162-4.858,0.41-7.524,0.715c-1.331,0.17-2.7,0.322-4.094,0.525
					c-0.697,0.098-1.403,0.197-2.114,0.299c-0.71,0.113-1.426,0.229-2.149,0.344c-1.447,0.221-2.908,0.5-4.393,0.756
					c-1.481,0.277-2.978,0.566-4.481,0.883c-0.751,0.164-1.506,0.326-2.262,0.49c-0.378,0.082-0.757,0.166-1.136,0.25
					c-0.378,0.088-0.756,0.176-1.134,0.266c-0.756,0.18-1.516,0.357-2.274,0.537c-0.759,0.176-1.514,0.383-2.271,0.572
					c-0.755,0.195-1.511,0.395-2.266,0.592c-0.751,0.211-1.501,0.422-2.25,0.633c-0.748,0.215-1.499,0.41-2.238,0.639
					c-0.741,0.225-1.479,0.447-2.215,0.67c-0.735,0.225-1.471,0.436-2.193,0.678c-0.724,0.24-1.443,0.477-2.158,0.713
					c-1.435,0.461-2.833,0.971-4.214,1.457c-1.383,0.479-2.729,0.986-4.043,1.496c-0.658,0.25-1.308,0.5-1.95,0.746
					c-0.637,0.262-1.267,0.518-1.887,0.773c-0.622,0.252-1.233,0.504-1.835,0.75c-0.605,0.242-1.195,0.496-1.77,0.754
					c-1.155,0.51-2.27,1.002-3.34,1.475c-1.062,0.49-2.075,0.973-3.04,1.428c-0.481,0.229-0.949,0.451-1.405,0.67
					c-0.458,0.215-0.89,0.445-1.314,0.656c-0.849,0.43-1.641,0.832-2.374,1.203c-0.367,0.188-0.718,0.367-1.053,0.539
					c-0.334,0.174-0.647,0.35-0.948,0.512c-2.391,1.311-3.757,2.061-3.757,2.061s1.407-0.67,3.868-1.84
					c0.308-0.146,0.628-0.305,0.971-0.461c0.343-0.156,0.703-0.316,1.077-0.486c0.747-0.338,1.555-0.705,2.418-1.096
					c0.433-0.195,0.874-0.406,1.337-0.602c0.464-0.197,0.94-0.4,1.43-0.607c0.977-0.42,2.004-0.861,3.075-1.318
					c2.165-0.871,4.497-1.838,7-2.773c0.624-0.236,1.255-0.48,1.896-0.725c0.645-0.23,1.298-0.463,1.958-0.699
					c0.66-0.236,1.327-0.477,2-0.719c0.67-0.248,1.359-0.465,2.048-0.701c1.38-0.465,2.777-0.951,4.211-1.389
					c1.43-0.445,2.872-0.918,4.34-1.344c0.732-0.217,1.469-0.438,2.206-0.656c0.736-0.223,1.484-0.416,2.229-0.625
					C49.615,177.335,50.363,177.128,51.111,176.923z"/>
				<path fill="#603A17" d="M94.315,174.71c0.601-0.133,1.199-0.266,1.794-0.396c1.186-0.273,2.369-0.494,3.528-0.73
					c1.162-0.223,2.309-0.424,3.43-0.629c1.123-0.188,2.221-0.383,3.294-0.537c0.537-0.082,1.066-0.16,1.588-0.238
					c0.522-0.07,1.037-0.143,1.543-0.211c1.011-0.146,1.992-0.258,2.932-0.375c0.943-0.102,1.846-0.209,2.705-0.289
					c0.86-0.09,1.677-0.164,2.445-0.229c1.537-0.125,2.877-0.223,3.983-0.279c1.105-0.061,1.976-0.1,2.569-0.115
					c0.594-0.02,0.911-0.02,0.911-0.02s-0.315-0.023-0.909-0.049c-0.594-0.021-1.466-0.061-2.576-0.064
					c-1.11-0.008-2.459,0-4.005,0.055c-1.547,0.045-3.29,0.141-5.19,0.281c-1.898,0.154-3.956,0.332-6.122,0.615
					c-1.085,0.125-2.194,0.291-3.331,0.447c-0.569,0.076-1.14,0.174-1.717,0.268c-0.577,0.098-1.162,0.184-1.748,0.295
					c-1.172,0.217-2.367,0.418-3.568,0.672c-0.601,0.121-1.206,0.246-1.814,0.369c-0.604,0.139-1.211,0.277-1.821,0.418
					c-1.224,0.268-2.443,0.594-3.673,0.898c-0.615,0.15-1.226,0.326-1.838,0.494c-0.613,0.168-1.227,0.338-1.84,0.508
					c-1.215,0.371-2.435,0.736-3.642,1.125c-0.6,0.201-1.2,0.4-1.798,0.6c-0.599,0.199-1.195,0.396-1.783,0.615
					c-1.175,0.434-2.353,0.828-3.487,1.301c-0.569,0.227-1.137,0.453-1.699,0.676c-0.281,0.113-0.563,0.221-0.839,0.34
					s-0.551,0.236-0.826,0.355c-0.547,0.234-1.09,0.469-1.628,0.701c-0.269,0.115-0.537,0.23-0.803,0.346
					c-0.261,0.125-0.523,0.246-0.782,0.369c-0.519,0.246-1.032,0.488-1.539,0.729c-0.506,0.242-1.012,0.469-1.495,0.723
					c-0.974,0.498-1.92,0.98-2.835,1.447c-0.898,0.502-1.766,0.982-2.599,1.447c-0.838,0.451-1.613,0.938-2.357,1.385
					c-0.372,0.225-0.734,0.445-1.084,0.658c-0.351,0.215-0.695,0.416-1.016,0.633c-0.647,0.428-1.252,0.824-1.811,1.191
					c-0.555,0.373-1.076,0.699-1.522,1.031c-0.901,0.648-1.608,1.158-2.09,1.506c-0.481,0.348-0.737,0.535-0.737,0.535
					s0.27-0.168,0.775-0.479c0.505-0.313,1.244-0.773,2.187-1.355c0.464-0.303,1.004-0.596,1.58-0.934
					c0.576-0.336,1.198-0.697,1.864-1.088c0.33-0.199,0.682-0.383,1.042-0.578c0.36-0.195,0.73-0.395,1.11-0.6
					c0.762-0.406,1.548-0.863,2.4-1.279c0.845-0.426,1.726-0.869,2.638-1.332c0.921-0.436,1.876-0.887,2.856-1.352
					c1.975-0.896,4.072-1.809,6.265-2.693c2.191-0.893,4.488-1.727,6.83-2.551c0.583-0.213,1.175-0.404,1.771-0.598
					c0.594-0.195,1.19-0.389,1.786-0.584c1.198-0.379,2.409-0.732,3.616-1.098c0.607-0.17,1.214-0.342,1.82-0.514
					c0.608-0.168,1.211-0.348,1.821-0.498c1.217-0.311,2.426-0.639,3.637-0.912C93.116,174.994,93.717,174.851,94.315,174.71z"/>
				<path fill="#603A17" d="M139.071,170.699c0.278-0.021,0.516-0.043,0.707-0.045c0.385-0.02,0.592-0.016,0.592-0.016
					s-0.204-0.027-0.589-0.053c-0.193-0.018-0.432-0.025-0.712-0.033c-0.28-0.01-0.603-0.025-0.963-0.012
					c-0.361,0.01-0.763,0.008-1.197,0.029c-0.435,0.029-0.905,0.063-1.408,0.096c-0.504,0.033-1.033,0.111-1.596,0.17
					c-0.28,0.033-0.568,0.068-0.863,0.105c-0.292,0.049-0.591,0.098-0.897,0.148c-0.61,0.107-1.25,0.205-1.907,0.33
					c-0.652,0.146-1.328,0.297-2.022,0.453c-0.697,0.143-1.398,0.344-2.119,0.539c-0.719,0.197-1.457,0.396-2.198,0.625
					c-0.735,0.244-1.483,0.492-2.241,0.744c-0.379,0.125-0.76,0.25-1.144,0.379c-0.378,0.139-0.754,0.291-1.134,0.438
					c-0.757,0.297-1.521,0.596-2.288,0.898l-0.575,0.225c-0.19,0.08-0.378,0.166-0.567,0.248l-1.133,0.504
					c-0.752,0.342-1.505,0.684-2.254,1.023c-0.378,0.164-0.741,0.355-1.106,0.541c-0.365,0.186-0.729,0.369-1.091,0.553
					c-1.451,0.734-2.877,1.461-4.207,2.252c-0.669,0.389-1.332,0.762-1.973,1.141c-0.32,0.189-0.639,0.375-0.952,0.559
					c-0.157,0.092-0.313,0.184-0.467,0.275c-0.153,0.094-0.302,0.191-0.452,0.287c-1.193,0.764-2.313,1.498-3.345,2.18
					c-0.515,0.342-1.016,0.656-1.478,0.979c-0.455,0.332-0.886,0.646-1.292,0.943c-0.813,0.59-1.514,1.113-2.092,1.543
					c-0.579,0.426-1.026,0.773-1.335,1.004c-0.307,0.232-0.47,0.357-0.47,0.357s0.176-0.105,0.509-0.301
					c0.33-0.199,0.822-0.482,1.435-0.857c0.616-0.371,1.365-0.82,2.214-1.348c0.426-0.262,0.878-0.541,1.357-0.836
					c0.483-0.283,0.997-0.572,1.53-0.879c1.068-0.609,2.225-1.271,3.439-1.982c0.152-0.09,0.303-0.182,0.459-0.268
					c0.158-0.082,0.316-0.168,0.476-0.252c0.32-0.168,0.643-0.34,0.969-0.512c0.655-0.342,1.316-0.707,1.992-1.068
					c0.678-0.359,1.353-0.752,2.069-1.084c0.711-0.342,1.428-0.693,2.147-1.055c0.361-0.18,0.722-0.359,1.085-0.539
					c0.363-0.18,0.723-0.367,1.099-0.525c0.744-0.33,1.49-0.662,2.236-0.992l1.116-0.508c0.186-0.084,0.37-0.17,0.557-0.25
					l0.566-0.23c0.755-0.301,1.507-0.604,2.252-0.904c0.373-0.148,0.745-0.297,1.115-0.445c0.375-0.135,0.747-0.27,1.117-0.404
					c0.741-0.268,1.474-0.531,2.192-0.791c0.724-0.248,1.448-0.451,2.147-0.686c0.702-0.223,1.387-0.453,2.066-0.625
					c0.677-0.184,1.336-0.363,1.973-0.537c0.639-0.164,1.262-0.299,1.858-0.441c0.298-0.068,0.591-0.135,0.877-0.201
					c0.288-0.055,0.569-0.107,0.844-0.16c0.549-0.1,1.068-0.221,1.56-0.291c0.495-0.076,0.955-0.145,1.382-0.209
					c0.428-0.063,0.822-0.098,1.178-0.141C138.475,170.742,138.793,170.722,139.071,170.699z"/>
				<path fill="#603A17" d="M148.063,170.824c-0.106,0.045-0.234,0.094-0.365,0.162c-0.133,0.066-0.283,0.141-0.445,0.221
					c-0.159,0.086-0.324,0.188-0.504,0.293c-0.184,0.102-0.365,0.23-0.561,0.359c-0.194,0.131-0.401,0.268-0.601,0.428
					c-0.203,0.158-0.413,0.326-0.631,0.498c-0.212,0.178-0.419,0.377-0.64,0.574c-0.108,0.1-0.219,0.201-0.33,0.303
					c-0.105,0.111-0.211,0.221-0.319,0.332c-0.212,0.225-0.43,0.457-0.651,0.689c-0.211,0.244-0.414,0.5-0.624,0.756
					c-0.209,0.256-0.428,0.512-0.614,0.795c-0.384,0.553-0.795,1.104-1.134,1.699c-0.173,0.295-0.347,0.59-0.52,0.885l-0.13,0.219
					l-0.114,0.227c-0.076,0.152-0.151,0.303-0.226,0.453c-0.151,0.301-0.299,0.6-0.442,0.896c-0.151,0.291-0.27,0.594-0.389,0.891
					c-0.238,0.594-0.476,1.162-0.668,1.713c-0.179,0.559-0.342,1.084-0.487,1.572c-0.071,0.244-0.144,0.477-0.202,0.701
					c-0.05,0.227-0.098,0.441-0.142,0.643c-0.092,0.404-0.16,0.758-0.217,1.049c-0.061,0.289-0.097,0.52-0.126,0.676
					c-0.026,0.156-0.04,0.238-0.04,0.238s0.038-0.076,0.109-0.219c0.066-0.143,0.173-0.354,0.292-0.621
					c0.123-0.27,0.274-0.594,0.433-0.969c0.081-0.189,0.167-0.389,0.258-0.598c0.098-0.207,0.202-0.424,0.311-0.65
					c0.214-0.453,0.442-0.943,0.677-1.465c0.247-0.516,0.533-1.047,0.803-1.604c0.259-0.566,0.593-1.111,0.896-1.688
					c0.16-0.281,0.301-0.58,0.477-0.855c0.169-0.281,0.339-0.563,0.51-0.846c0.319-0.576,0.71-1.105,1.056-1.652
					c0.172-0.275,0.368-0.529,0.552-0.785c0.187-0.258,0.37-0.512,0.55-0.76c0.192-0.24,0.381-0.477,0.566-0.709
					c0.091-0.117,0.183-0.232,0.273-0.346c0.095-0.109,0.189-0.217,0.283-0.322c0.186-0.213,0.367-0.42,0.542-0.623
					c0.183-0.191,0.361-0.379,0.531-0.557c0.166-0.188,0.344-0.342,0.504-0.504c0.162-0.156,0.312-0.314,0.466-0.443
					c0.151-0.135,0.293-0.26,0.424-0.379c0.136-0.111,0.261-0.213,0.373-0.305c0.23-0.18,0.412-0.328,0.542-0.414
					c0.128-0.092,0.2-0.139,0.2-0.139s-0.082,0.02-0.232,0.074C148.262,170.744,148.17,170.781,148.063,170.824z"/>
				<path fill="#603A17" d="M343.187,190.732c-0.779-0.371-1.918-0.93-3.377-1.613c-0.365-0.17-0.746-0.359-1.154-0.539
					c-0.406-0.18-0.832-0.371-1.275-0.568c-0.89-0.395-1.85-0.822-2.876-1.277c-1.022-0.469-2.13-0.918-3.292-1.406
					c-0.583-0.24-1.181-0.488-1.791-0.742c-0.613-0.246-1.236-0.518-1.883-0.764c-1.289-0.498-2.633-1.018-4.023-1.557
					c-0.349-0.135-0.698-0.273-1.055-0.404c-0.355-0.127-0.715-0.256-1.078-0.387c-0.725-0.26-1.461-0.523-2.207-0.791
					c-0.747-0.266-1.501-0.545-2.271-0.807c-0.771-0.26-1.551-0.523-2.34-0.787c-0.789-0.266-1.588-0.531-2.394-0.799
					c-0.809-0.262-1.63-0.51-2.456-0.768c-0.826-0.256-1.658-0.516-2.497-0.775c-0.839-0.262-1.692-0.496-2.546-0.746
					c-0.855-0.248-1.717-0.498-2.58-0.75c-0.866-0.246-1.744-0.467-2.621-0.703c-0.877-0.234-1.759-0.469-2.643-0.703
					c-0.889-0.219-1.779-0.441-2.671-0.662c-0.892-0.219-1.785-0.447-2.683-0.656c-0.898-0.207-1.797-0.412-2.697-0.619
					c-3.6-0.814-7.223-1.527-10.793-2.199c-3.575-0.646-7.105-1.215-10.532-1.698c-3.423-0.505-6.747-0.87-9.899-1.211
					c-3.156-0.313-6.142-0.572-8.904-0.74c-0.689-0.047-1.365-0.089-2.026-0.123c-0.661-0.033-1.307-0.068-1.936-0.103
					c-1.261-0.045-2.455-0.101-3.579-0.125c-2.246-0.068-4.205-0.081-5.817-0.083c-1.614-0.005-2.881,0.043-3.743,0.068
					c-0.863,0.03-1.324,0.057-1.324,0.057s0.461-0.004,1.325,0.01c0.862,0.014,2.128,0.049,3.738,0.106
					c1.608,0.062,3.563,0.148,5.8,0.302c2.238,0.146,4.76,0.352,7.507,0.601c0.688,0.065,1.388,0.132,2.103,0.198
					c0.713,0.078,1.439,0.154,2.18,0.233c1.479,0.149,3.004,0.343,4.574,0.52c0.783,0.101,1.578,0.203,2.381,0.308
					c0.402,0.052,0.808,0.104,1.214,0.156c0.406,0.058,0.814,0.116,1.226,0.174c0.821,0.115,1.651,0.233,2.488,0.35
					c0.838,0.129,1.683,0.258,2.535,0.387c1.705,0.248,3.43,0.553,5.18,0.842c0.875,0.143,1.752,0.313,2.634,0.473
					c0.882,0.158,1.769,0.318,2.659,0.479c3.553,0.686,7.156,1.41,10.739,2.234c0.896,0.201,1.792,0.404,2.688,0.604
					c0.894,0.209,1.783,0.432,2.674,0.645c0.889,0.219,1.776,0.434,2.661,0.65c0.882,0.23,1.759,0.461,2.634,0.689
					c0.875,0.232,1.75,0.449,2.613,0.691c0.864,0.238,1.724,0.477,2.578,0.713c0.853,0.242,1.707,0.463,2.545,0.715
					c0.838,0.25,1.671,0.496,2.497,0.742c0.825,0.246,1.646,0.484,2.455,0.734c0.808,0.254,1.606,0.508,2.397,0.758
					c0.79,0.25,1.574,0.496,2.348,0.736c0.771,0.246,1.527,0.512,2.277,0.762c0.748,0.252,1.487,0.502,2.215,0.744
					c0.364,0.123,0.725,0.244,1.083,0.365c0.356,0.127,0.71,0.252,1.06,0.377c1.4,0.498,2.755,0.98,4.055,1.441
					c1.297,0.471,2.525,0.959,3.705,1.396c1.178,0.441,2.3,0.848,3.337,1.275c1.042,0.416,2.017,0.807,2.917,1.166
					c0.451,0.182,0.884,0.354,1.297,0.52c0.413,0.162,0.801,0.338,1.172,0.494c1.479,0.635,2.651,1.115,3.447,1.451
					c0.796,0.334-58.726,0.514-58.726,0.514S343.965,191.105,343.187,190.732z"/>
				<path fill="#603A17" d="M299.522,189.16c-0.336-0.17-0.686-0.35-1.053-0.537c-0.732-0.371-1.525-0.775-2.373-1.205
					c-0.426-0.211-0.857-0.441-1.315-0.656c-0.456-0.217-0.925-0.439-1.405-0.67c-0.965-0.455-1.977-0.936-3.039-1.426
					c-1.071-0.473-2.186-0.965-3.34-1.475c-0.576-0.258-1.164-0.514-1.77-0.756c-0.604-0.244-1.215-0.498-1.836-0.75
					c-0.621-0.254-1.25-0.512-1.887-0.771c-0.643-0.246-1.293-0.496-1.95-0.748c-1.313-0.508-2.66-1.018-4.044-1.496
					c-1.38-0.484-2.777-0.996-4.213-1.455c-0.715-0.236-1.435-0.475-2.158-0.713c-0.723-0.242-1.458-0.453-2.193-0.678
					c-0.734-0.223-1.474-0.447-2.214-0.672c-0.739-0.227-1.491-0.424-2.238-0.639c-0.749-0.211-1.499-0.422-2.25-0.633
					c-0.755-0.195-1.51-0.393-2.265-0.59c-0.758-0.191-1.512-0.395-2.271-0.572c-0.759-0.18-1.518-0.359-2.274-0.539
					c-0.378-0.088-0.757-0.176-1.135-0.266c-0.379-0.084-0.757-0.166-1.135-0.248c-0.757-0.164-1.511-0.328-2.262-0.492
					c-1.503-0.316-3.001-0.604-4.481-0.881c-1.484-0.258-2.946-0.537-4.393-0.758c-0.723-0.113-1.439-0.23-2.15-0.344
					c-0.712-0.102-1.416-0.199-2.113-0.299c-1.394-0.203-2.764-0.355-4.095-0.525c-2.665-0.304-5.188-0.552-7.524-0.716
					c-1.166-0.092-2.285-0.152-3.35-0.218c-1.066-0.044-2.076-0.101-3.026-0.124c-1.899-0.073-3.557-0.077-4.921-0.074
					c-1.363,0.001-2.436,0.044-3.166,0.07c-0.729,0.029-1.118,0.057-1.118,0.057s0.39-0.003,1.12,0.01
					c0.729,0.014,1.799,0.049,3.158,0.108c1.361,0.065,3.012,0.158,4.9,0.303c1.891,0.14,4.02,0.332,6.34,0.579
					c2.318,0.237,4.823,0.569,7.47,0.924c1.319,0.199,2.679,0.383,4.062,0.617c0.691,0.111,1.391,0.223,2.098,0.338
					c0.704,0.123,1.416,0.246,2.133,0.373c1.437,0.238,2.887,0.537,4.359,0.813c0.736,0.143,1.473,0.305,2.214,0.455
					c0.741,0.158,1.489,0.297,2.234,0.467c0.747,0.166,1.495,0.332,2.247,0.498c0.375,0.084,0.752,0.168,1.129,0.252
					c0.375,0.092,0.75,0.18,1.126,0.271c0.752,0.182,1.505,0.363,2.259,0.545c0.756,0.18,1.504,0.387,2.256,0.58
					c0.752,0.191,1.504,0.385,2.256,0.578c0.746,0.207,1.494,0.414,2.239,0.617c0.744,0.211,1.492,0.402,2.228,0.625
					c0.738,0.221,1.475,0.439,2.206,0.658c1.47,0.424,2.91,0.896,4.341,1.342c1.435,0.438,2.831,0.926,4.211,1.389
					c0.688,0.238,1.378,0.455,2.049,0.703c0.674,0.242,1.34,0.482,1.999,0.719c0.66,0.236,1.313,0.469,1.959,0.699
					c0.639,0.244,1.272,0.486,1.896,0.725c2.502,0.934,4.834,1.902,6.999,2.771c1.071,0.459,2.099,0.9,3.075,1.318
					c0.489,0.209,0.966,0.412,1.43,0.609c0.465,0.193,0.904,0.406,1.338,0.6c0.863,0.391,1.672,0.76,2.418,1.098
					c0.375,0.168,0.734,0.33,1.077,0.484c0.342,0.156,0.663,0.316,0.971,0.463c2.462,1.17,3.868,1.838,3.868,1.838
					s-1.367-0.748-3.758-2.061C300.171,189.511,299.856,189.335,299.522,189.16z"/>
				<path fill="#603A17" d="M259.694,189.691c-0.447-0.332-0.969-0.658-1.523-1.031c-0.559-0.367-1.164-0.764-1.811-1.189
					c-0.32-0.217-0.664-0.42-1.016-0.633c-0.352-0.215-0.713-0.434-1.084-0.66c-0.744-0.447-1.519-0.932-2.357-1.385
					c-0.832-0.463-1.701-0.945-2.6-1.445c-0.916-0.467-1.861-0.949-2.834-1.447c-0.484-0.254-0.99-0.482-1.494-0.725
					c-0.509-0.238-1.021-0.482-1.541-0.727c-0.258-0.123-0.52-0.246-0.782-0.369c-0.267-0.115-0.533-0.23-0.802-0.348
					c-0.538-0.23-1.081-0.465-1.629-0.701c-0.273-0.119-0.549-0.236-0.824-0.355c-0.277-0.117-0.56-0.225-0.84-0.338
					c-0.563-0.225-1.129-0.451-1.699-0.678c-1.135-0.473-2.313-0.867-3.488-1.301c-0.586-0.219-1.184-0.414-1.782-0.613
					c-0.599-0.201-1.198-0.4-1.798-0.6c-1.206-0.389-2.426-0.754-3.643-1.127c-0.613-0.17-1.227-0.338-1.838-0.508
					c-0.613-0.166-1.223-0.344-1.838-0.492c-1.23-0.307-2.451-0.631-3.674-0.9c-0.609-0.139-1.217-0.279-1.822-0.416
					c-0.608-0.125-1.213-0.248-1.813-0.369c-1.2-0.254-2.396-0.457-3.567-0.674c-0.586-0.111-1.171-0.195-1.748-0.293
					c-0.577-0.094-1.148-0.193-1.717-0.268c-1.137-0.156-2.246-0.324-3.331-0.449c-2.166-0.281-4.224-0.459-6.122-0.613
					c-1.9-0.143-3.644-0.236-5.189-0.281c-1.547-0.055-2.896-0.064-4.006-0.055c-1.109,0.002-1.981,0.041-2.576,0.064
					c-0.593,0.025-0.91,0.047-0.91,0.047s0.318,0,0.911,0.02c0.594,0.018,1.464,0.057,2.569,0.115
					c1.105,0.057,2.447,0.154,3.983,0.281c0.769,0.064,1.585,0.137,2.444,0.229c0.86,0.08,1.764,0.186,2.705,0.289
					c0.94,0.117,1.922,0.229,2.934,0.373c0.504,0.07,1.02,0.141,1.543,0.213c0.521,0.076,1.051,0.156,1.587,0.236
					c1.074,0.154,2.172,0.352,3.295,0.539c1.122,0.203,2.268,0.404,3.43,0.627c1.159,0.236,2.342,0.459,3.528,0.73
					c0.594,0.133,1.192,0.264,1.793,0.396c0.599,0.141,1.201,0.285,1.805,0.428c1.213,0.273,2.42,0.604,3.638,0.912
					c0.609,0.152,1.213,0.332,1.82,0.5c0.606,0.172,1.213,0.342,1.82,0.514c1.207,0.365,2.419,0.717,3.615,1.096
					c0.597,0.195,1.193,0.393,1.787,0.584c0.595,0.193,1.188,0.385,1.77,0.6c2.342,0.824,4.64,1.658,6.83,2.551
					c2.193,0.883,4.291,1.795,6.265,2.693c0.981,0.465,1.936,0.914,2.858,1.354c0.911,0.459,1.792,0.902,2.636,1.33
					c0.854,0.416,1.639,0.871,2.4,1.277c0.381,0.207,0.751,0.406,1.11,0.602c0.36,0.195,0.713,0.379,1.042,0.58
					c0.666,0.387,1.289,0.75,1.865,1.084c0.575,0.34,1.115,0.633,1.579,0.934c0.942,0.584,1.683,1.043,2.187,1.355
					c0.506,0.313,0.775,0.479,0.775,0.479s-0.256-0.186-0.737-0.533C261.301,190.849,260.594,190.339,259.694,189.691z"/>
				<path fill="#603A17" d="M217.055,186.98c-0.538-0.404-1.188-0.896-1.944-1.449s-1.594-1.201-2.564-1.822
					c-0.959-0.641-1.998-1.334-3.107-2.053c-0.277-0.184-0.557-0.367-0.841-0.551c-0.285-0.186-0.585-0.355-0.882-0.535
					c-0.593-0.359-1.209-0.711-1.831-1.078c-0.622-0.365-1.257-0.736-1.896-1.111c-0.646-0.367-1.319-0.707-1.99-1.059
					c-0.673-0.352-1.352-0.705-2.032-1.059L199.454,176c-0.174-0.088-0.35-0.164-0.523-0.246l-1.051-0.486
					c-0.702-0.318-1.405-0.635-2.105-0.953c-0.346-0.166-0.703-0.305-1.06-0.445c-0.355-0.143-0.71-0.283-1.063-0.426
					c-0.706-0.281-1.405-0.564-2.104-0.822c-0.707-0.236-1.405-0.471-2.092-0.701c-0.343-0.115-0.684-0.229-1.021-0.342
					c-0.337-0.111-0.681-0.195-1.018-0.287c-0.673-0.184-1.331-0.363-1.972-0.537c-0.646-0.152-1.279-0.285-1.891-0.416
					c-0.307-0.064-0.606-0.127-0.901-0.188c-0.3-0.045-0.591-0.092-0.878-0.137c-0.286-0.043-0.567-0.088-0.842-0.129
					c-0.273-0.041-0.54-0.094-0.805-0.109c-0.525-0.049-1.024-0.094-1.494-0.137c-0.469-0.039-0.912-0.043-1.317-0.059
					c-0.406-0.02-0.782-0.004-1.118,0.004c-0.17,0.004-0.329,0.008-0.479,0.012c-0.15,0.006-0.292,0.021-0.422,0.033
					c-0.261,0.027-0.482,0.035-0.662,0.066c-0.358,0.049-0.547,0.09-0.547,0.09s0.049-0.004,0.143-0.01
					c0.094-0.002,0.229-0.006,0.41-0.01c0.179-0.008,0.4,0.01,0.66,0.014c0.26,0.002,0.558,0.025,0.891,0.051
					c0.332,0.025,0.701,0.047,1.1,0.107s0.831,0.094,1.289,0.172c0.457,0.08,0.943,0.166,1.456,0.258
					c0.512,0.092,1.044,0.227,1.602,0.346c0.278,0.063,0.563,0.127,0.852,0.191c0.287,0.078,0.579,0.158,0.875,0.24
					c0.592,0.168,1.21,0.318,1.837,0.504c0.622,0.201,1.261,0.408,1.914,0.619c0.325,0.107,0.658,0.205,0.988,0.322
					c0.329,0.119,0.662,0.242,0.997,0.365c0.669,0.246,1.35,0.496,2.038,0.748c0.679,0.283,1.366,0.566,2.059,0.852
					c0.346,0.145,0.694,0.287,1.043,0.43c0.35,0.145,0.701,0.283,1.042,0.451c0.688,0.318,1.378,0.641,2.069,0.961l1.04,0.477
					c0.172,0.08,0.347,0.154,0.519,0.238l0.507,0.26c0.678,0.342,1.353,0.684,2.022,1.023c0.336,0.168,0.67,0.336,1.002,0.504
					c0.332,0.17,0.67,0.32,0.991,0.5c0.646,0.355,1.284,0.705,1.911,1.049c0.629,0.342,1.243,0.686,1.852,1.01
					c0.303,0.164,0.608,0.318,0.899,0.488c0.29,0.17,0.577,0.338,0.86,0.506c1.131,0.668,2.207,1.289,3.203,1.861
					c1.003,0.561,1.888,1.133,2.686,1.615c0.794,0.492,1.493,0.91,2.068,1.256c0.573,0.35,1.031,0.613,1.342,0.799
					c0.311,0.182,0.477,0.279,0.477,0.279s-0.152-0.117-0.437-0.338C218.01,187.707,217.593,187.382,217.055,186.98z"/>
				<path fill="#603A17" d="M174.366,187.671c-0.066-0.313-0.145-0.691-0.247-1.123c-0.054-0.217-0.097-0.451-0.169-0.689
					c-0.074-0.236-0.152-0.486-0.234-0.748c-0.17-0.52-0.342-1.09-0.563-1.678c-0.24-0.578-0.497-1.191-0.771-1.82
					c-0.066-0.16-0.141-0.314-0.225-0.469c-0.08-0.156-0.162-0.311-0.244-0.467c-0.162-0.316-0.33-0.631-0.502-0.949
					c-0.162-0.324-0.367-0.627-0.559-0.938c-0.197-0.311-0.395-0.621-0.59-0.932c-0.201-0.307-0.432-0.596-0.646-0.893
					c-0.22-0.293-0.433-0.59-0.663-0.871c-0.234-0.275-0.469-0.549-0.703-0.814c-0.117-0.135-0.232-0.268-0.348-0.398
					c-0.124-0.125-0.246-0.248-0.368-0.371c-0.244-0.242-0.483-0.482-0.719-0.719c-0.251-0.217-0.493-0.432-0.732-0.641
					c-0.119-0.104-0.237-0.205-0.353-0.305c-0.123-0.096-0.242-0.186-0.36-0.277c-0.238-0.18-0.464-0.355-0.687-0.516
					c-0.461-0.307-0.877-0.588-1.27-0.803c-0.381-0.234-0.738-0.398-1.022-0.539c-0.292-0.135-0.523-0.23-0.686-0.289
					c-0.158-0.061-0.247-0.086-0.247-0.086s0.078,0.051,0.216,0.148c0.14,0.094,0.335,0.252,0.589,0.436
					c0.246,0.197,0.546,0.432,0.877,0.717c0.339,0.273,0.69,0.621,1.087,0.975c0.191,0.186,0.389,0.381,0.594,0.582
					c0.104,0.1,0.207,0.201,0.313,0.305c0.101,0.107,0.203,0.219,0.308,0.33c0.208,0.221,0.422,0.449,0.641,0.682
					c0.209,0.242,0.421,0.49,0.637,0.742c0.109,0.125,0.218,0.25,0.329,0.379c0.104,0.133,0.208,0.266,0.313,0.398
					c0.209,0.27,0.423,0.541,0.641,0.813c0.216,0.271,0.405,0.568,0.616,0.852c0.202,0.287,0.421,0.564,0.61,0.861
					c0.192,0.297,0.385,0.596,0.576,0.891c0.186,0.301,0.398,0.582,0.562,0.891c0.341,0.607,0.709,1.189,1.026,1.773
					c0.305,0.592,0.608,1.162,0.899,1.703c0.147,0.268,0.259,0.545,0.388,0.805c0.125,0.26,0.245,0.514,0.361,0.754
					c0.119,0.242,0.233,0.475,0.342,0.695c0.113,0.219,0.193,0.438,0.283,0.637c0.17,0.404,0.331,0.752,0.462,1.039
					c0.128,0.289,0.239,0.516,0.312,0.67c0.075,0.154,0.115,0.236,0.115,0.236s-0.018-0.09-0.047-0.258
					C174.478,188.226,174.435,187.98,174.366,187.671z"/>
			</g>
		</g>
	</g>
</g>
</svg>
