<?xml version="1.0" encoding="utf-8"?>
<!-- Generator: Adobe Illustrator 16.0.0, SVG Export Plug-In . SVG Version: 6.00 Build 0)  -->
<!DOCTYPE svg PUBLIC "-//W3C//DTD SVG 1.1//EN" "http://www.w3.org/Graphics/SVG/1.1/DTD/svg11.dtd">
<svg version="1.1" id="Layer_1" xmlns="http://www.w3.org/2000/svg" xmlns:xlink="http://www.w3.org/1999/xlink" x="0px" y="0px"
	 width="379.826px" height="379.826px" viewBox="0 0 379.826 379.826" enable-background="new 0 0 379.826 379.826"
	 xml:space="preserve">
<g>
	<defs>
		<circle id="SVGID_1_" cx="189.913" cy="189.913" r="189.913"/>
	</defs>
	<clipPath id="SVGID_2_">
		<use xlink:href="#SVGID_1_"  overflow="visible"/>
	</clipPath>
	<rect x="-75.896" y="-32.317" clip-path="url(#SVGID_2_)" fill="#ACDDEF" width="497.957" height="320.116"/>
	<path clip-path="url(#SVGID_2_)" fill="#7BC15E" d="M-222.346,179.314c-9.058-0.363,71.377-8.078,108.695-16.358
		c37.319-8.279,30.797-7.491,66.304-10.603s56.159,6.023,71.014,7.072c14.855,1.048,2.174-0.508,32.608,3.531
		c30.435,4.04,23.067,20.235,64.25,4.709c41.185-15.525,49.577-20.391,62.591-22.306c13.014-1.915,20.702-7.29,40.952-1.704
		c20.25,5.586,18.277,9.934,45.713,12.833c27.435,2.898,95.189-6.1,125.624-12.833c30.434-6.733,110.507-7.807,126.448-4.19
		c15.942,3.616,7.972-5.079,43.841,16.297c35.87,21.377,41.304,7.247,56.158,34.058c14.855,26.812,6.16,61.05,5.437,63.316
		c-0.726,2.263-3.624,57.698-3.624,57.698l-817.026-22.101L-222.346,179.314z"/>
	<g clip-path="url(#SVGID_2_)">
		<path fill="#734B2E" d="M-260.876,222.506c0,0,81.596-42.495,280.047-30.905c198.451,11.589,157.578,10.051,306.119,1.207
			c97.336-5.795,127.151-9.554,221.978-4.175c73.622,4.175,94.218,8.28,94.218,8.28l-0.292,98.465h-902.069V222.506z"/>
		<path fill="#603A17" d="M556.688,221.239c0,0-138.956-20.227-249.822,17.165C196,275.791,136.567,259.086,34.166,236.185
			c-102.4-22.904-142.222,4.922-237.993,32.044c-95.772,27.121-136.451,53.561-136.451,53.561l21.461,157.2l894.002-120.37
			L556.688,221.239z"/>
		<g>
			<path fill="#603A17" d="M-6.167,223.426c1.272-0.352,2.55-0.705,3.834-1.062c1.284-0.361,2.585-0.683,3.886-1.028
				c1.301-0.34,2.608-0.682,3.918-1.025c1.315-0.321,2.635-0.644,3.958-0.966c1.323-0.319,2.647-0.649,3.977-0.958
				c1.332-0.3,2.665-0.6,3.998-0.899c5.327-1.228,10.687-2.305,15.972-3.322c1.324-0.239,2.642-0.478,3.955-0.714
				c1.313-0.235,2.614-0.492,3.916-0.701c2.602-0.432,5.168-0.883,7.705-1.254c1.267-0.193,2.523-0.384,3.768-0.572
				c1.247-0.176,2.481-0.351,3.703-0.522c0.611-0.087,1.218-0.173,1.821-0.259c0.604-0.078,1.207-0.155,1.805-0.232
				c1.196-0.154,2.377-0.306,3.543-0.457c2.334-0.264,4.602-0.548,6.803-0.772c1.099-0.118,2.18-0.233,3.241-0.346
				c1.063-0.101,2.105-0.2,3.126-0.296c4.086-0.373,7.836-0.676,11.165-0.893c3.328-0.229,6.234-0.357,8.626-0.45
				c2.394-0.085,4.276-0.139,5.561-0.159c1.283-0.02,1.969-0.013,1.969-0.013s-0.685-0.041-1.968-0.087
				c-1.283-0.038-3.168-0.107-5.566-0.1c-2.399,0.002-5.313,0.022-8.653,0.124c-1.671,0.037-3.448,0.119-5.32,0.187
				c-0.938,0.05-1.897,0.1-2.88,0.152c-0.983,0.05-1.988,0.11-3.014,0.185c-4.108,0.248-8.549,0.636-13.243,1.1
				c-4.688,0.506-9.634,1.049-14.723,1.802c-5.096,0.714-10.346,1.563-15.664,2.523c-5.31,0.999-10.697,2.06-16.051,3.27
				c-1.339,0.307-2.677,0.612-4.014,0.918c-1.333,0.314-2.661,0.653-3.99,0.978c-1.327,0.33-2.651,0.658-3.97,0.986
				c-1.315,0.349-2.625,0.698-3.931,1.044c-1.304,0.352-2.609,0.681-3.897,1.049c-1.285,0.372-2.566,0.743-3.837,1.111
				c-1.271,0.374-2.539,0.722-3.788,1.111c-1.248,0.388-2.485,0.771-3.716,1.153c-1.227,0.384-2.448,0.753-3.651,1.14
				c-1.199,0.4-2.385,0.797-3.56,1.188c-1.173,0.395-2.334,0.786-3.481,1.171c-1.145,0.388-2.265,0.807-3.377,1.2
				c-1.109,0.398-2.203,0.791-3.282,1.177c-0.54,0.194-1.074,0.386-1.604,0.576c-0.53,0.194-1.049,0.4-1.567,0.599
				c-2.068,0.801-4.067,1.575-5.986,2.316c-0.962,0.364-1.886,0.768-2.797,1.137c-0.91,0.376-1.798,0.744-2.664,1.103
				c-1.729,0.725-3.376,1.395-4.896,2.09c-1.527,0.679-2.956,1.314-4.277,1.901c-0.66,0.294-1.293,0.575-1.898,0.844
				c-0.606,0.267-1.173,0.548-1.716,0.801c-2.172,1.019-3.864,1.848-5.023,2.4c-1.158,0.557-1.775,0.853-1.775,0.853
				s0.632-0.265,1.817-0.761c1.183-0.5,2.925-1.216,5.126-2.162c0.553-0.231,1.127-0.49,1.744-0.734
				c0.614-0.246,1.258-0.502,1.928-0.771c1.339-0.536,2.789-1.116,4.338-1.735c1.542-0.635,3.211-1.24,4.961-1.899
				c1.755-0.649,3.583-1.374,5.511-2.074c1.934-0.688,3.947-1.404,6.031-2.145c0.521-0.186,1.047-0.372,1.576-0.56
				c0.533-0.18,1.069-0.361,1.611-0.542c1.082-0.365,2.18-0.734,3.293-1.108c1.114-0.372,2.24-0.765,3.389-1.13
				c1.15-0.361,2.313-0.728,3.492-1.097c1.175-0.373,2.364-0.749,3.564-1.129c1.202-0.372,2.424-0.725,3.651-1.091
				c1.228-0.366,2.466-0.733,3.713-1.104C-8.704,224.115-7.435,223.784-6.167,223.426z"/>
			<path fill="#603A17" d="M53.903,219.754c1.117-0.288,2.236-0.575,3.354-0.861c1.119-0.286,2.232-0.594,3.354-0.861
				c1.121-0.271,2.242-0.54,3.359-0.81c0.559-0.134,1.117-0.269,1.677-0.404c0.559-0.125,1.12-0.249,1.676-0.374
				c1.118-0.249,2.231-0.496,3.342-0.742c1.107-0.252,2.222-0.458,3.324-0.692c1.104-0.226,2.198-0.468,3.292-0.678
				c2.19-0.41,4.348-0.856,6.484-1.211c1.067-0.186,2.125-0.371,3.172-0.553c1.05-0.17,2.091-0.337,3.121-0.503
				c2.054-0.351,4.075-0.621,6.04-0.917c3.936-0.53,7.659-1.02,11.109-1.375c3.448-0.366,6.616-0.653,9.427-0.861
				c2.811-0.214,5.264-0.351,7.288-0.448c2.022-0.09,3.614-0.141,4.699-0.163c1.086-0.019,1.666-0.015,1.666-0.015
				s-0.579-0.039-1.664-0.084c-1.085-0.039-2.679-0.102-4.708-0.104c-2.028-0.002-4.495,0.003-7.32,0.11
				c-1.413,0.037-2.914,0.121-4.499,0.187c-1.583,0.096-3.249,0.185-4.983,0.325c-3.474,0.242-7.227,0.609-11.19,1.063
				c-1.979,0.252-4.017,0.477-6.089,0.78c-1.037,0.147-2.086,0.295-3.145,0.445c-1.055,0.17-2.121,0.34-3.195,0.512
				c-2.153,0.326-4.326,0.744-6.534,1.124c-2.202,0.414-4.429,0.842-6.665,1.312c-1.117,0.242-2.238,0.486-3.363,0.73
				c-0.562,0.123-1.125,0.246-1.688,0.369c-0.562,0.132-1.125,0.266-1.687,0.397c-1.125,0.267-2.254,0.533-3.382,0.799
				c-1.129,0.264-2.251,0.568-3.377,0.851c-1.123,0.293-2.247,0.587-3.369,0.879c-1.117,0.314-2.232,0.628-3.346,0.942
				c-1.112,0.319-2.229,0.612-3.329,0.95c-1.102,0.333-2.2,0.666-3.294,0.997c-1.093,0.334-2.187,0.648-3.261,1.009
				c-1.076,0.355-2.146,0.708-3.209,1.06c-2.134,0.684-4.213,1.443-6.267,2.165c-2.057,0.712-4.059,1.468-6.013,2.224
				c-0.978,0.375-1.945,0.746-2.9,1.112c-0.947,0.388-1.884,0.77-2.806,1.148c-0.924,0.378-1.833,0.75-2.729,1.117
				c-0.9,0.36-1.777,0.737-2.632,1.121c-1.717,0.758-3.376,1.491-4.967,2.194c-1.579,0.729-3.086,1.443-4.52,2.123
				c-0.715,0.34-1.412,0.671-2.09,0.995c-0.68,0.318-1.323,0.663-1.956,0.978c-1.261,0.639-2.439,1.237-3.531,1.79
				c-0.544,0.279-1.066,0.545-1.565,0.801c-0.497,0.257-0.962,0.52-1.41,0.761c-3.556,1.949-5.587,3.063-5.587,3.063
				s2.092-0.995,5.752-2.735c0.458-0.217,0.936-0.455,1.444-0.687c0.51-0.23,1.045-0.47,1.602-0.721
				c1.111-0.505,2.313-1.05,3.597-1.632c0.645-0.288,1.3-0.604,1.989-0.894c0.689-0.293,1.397-0.595,2.126-0.905
				c1.452-0.624,2.98-1.278,4.573-1.961c3.219-1.292,6.688-2.733,10.41-4.123c0.927-0.353,1.867-0.713,2.819-1.076
				c0.959-0.343,1.931-0.689,2.912-1.039c0.981-0.354,1.973-0.71,2.974-1.07c0.997-0.37,2.022-0.692,3.045-1.045
				c2.053-0.689,4.131-1.417,6.263-2.065c2.128-0.663,4.272-1.365,6.455-1.998c1.09-0.324,2.185-0.649,3.281-0.976
				c1.096-0.332,2.208-0.618,3.314-0.93C51.68,220.368,52.791,220.061,53.903,219.754z"/>
			<path fill="#603A17" d="M118.159,216.463c0.894-0.197,1.783-0.393,2.668-0.589c1.764-0.405,3.523-0.733,5.248-1.085
				c1.728-0.333,3.432-0.632,5.1-0.935c1.67-0.278,3.303-0.572,4.9-0.801c0.798-0.12,1.585-0.237,2.361-0.354
				c0.777-0.106,1.541-0.211,2.294-0.314c1.504-0.216,2.963-0.381,4.362-0.557c1.401-0.151,2.744-0.309,4.022-0.429
				c1.278-0.135,2.493-0.245,3.636-0.34c2.285-0.187,4.279-0.331,5.924-0.417c1.645-0.09,2.939-0.146,3.821-0.171
				c0.884-0.028,1.355-0.028,1.355-0.028s-0.47-0.035-1.353-0.072c-0.884-0.034-2.18-0.092-3.83-0.095
				c-1.652-0.014-3.658-0.001-5.957,0.08c-2.301,0.066-4.893,0.208-7.72,0.418c-2.822,0.229-5.883,0.494-9.104,0.915
				c-1.613,0.185-3.263,0.432-4.954,0.665c-0.845,0.114-1.694,0.262-2.554,0.4c-0.857,0.145-1.728,0.271-2.599,0.436
				c-1.743,0.324-3.521,0.624-5.306,1.002c-0.894,0.181-1.793,0.365-2.698,0.547c-0.899,0.207-1.802,0.414-2.709,0.622
				c-1.82,0.399-3.634,0.883-5.463,1.338c-0.915,0.221-1.822,0.485-2.733,0.733c-0.911,0.251-1.823,0.503-2.735,0.754
				c-1.808,0.555-3.622,1.095-5.416,1.673c-0.892,0.299-1.786,0.596-2.675,0.894c-0.89,0.295-1.777,0.587-2.649,0.914
				c-1.749,0.645-3.501,1.232-5.187,1.934c-0.848,0.338-1.69,0.674-2.528,1.008c-0.417,0.168-0.837,0.328-1.249,0.502
				c-0.411,0.177-0.819,0.352-1.227,0.529c-0.814,0.35-1.622,0.699-2.423,1.043c-0.399,0.173-0.798,0.345-1.192,0.515
				c-0.39,0.185-0.78,0.367-1.164,0.55c-0.773,0.365-1.536,0.726-2.289,1.082c-0.754,0.359-1.505,0.697-2.224,1.076
				c-1.448,0.739-2.855,1.458-4.216,2.154c-1.335,0.743-2.626,1.46-3.866,2.15c-1.246,0.672-2.398,1.394-3.504,2.059
				c-0.553,0.335-1.09,0.662-1.613,0.979c-0.522,0.318-1.032,0.62-1.51,0.942c-0.961,0.632-1.862,1.224-2.693,1.771
				c-0.826,0.556-1.601,1.04-2.265,1.533c-1.339,0.965-2.391,1.723-3.108,2.24c-0.715,0.518-1.096,0.795-1.096,0.795
				s0.4-0.247,1.154-0.711c0.75-0.466,1.85-1.148,3.251-2.017c0.69-0.447,1.493-0.884,2.349-1.386
				c0.857-0.501,1.783-1.039,2.774-1.618c0.49-0.295,1.013-0.57,1.549-0.861c0.536-0.289,1.086-0.586,1.651-0.892
				c1.134-0.605,2.302-1.284,3.57-1.9c1.257-0.635,2.566-1.297,3.923-1.982c1.371-0.648,2.79-1.32,4.248-2.011
				c2.937-1.335,6.056-2.69,9.318-4.006c3.258-1.328,6.675-2.567,10.158-3.792c0.867-0.318,1.749-0.603,2.633-0.891
				c0.883-0.289,1.769-0.579,2.656-0.869c1.781-0.564,3.583-1.086,5.378-1.631c0.902-0.254,1.805-0.509,2.708-0.763
				c0.902-0.251,1.799-0.519,2.707-0.742c1.81-0.462,3.607-0.952,5.408-1.359C116.374,216.887,117.268,216.674,118.159,216.463z"/>
			<path fill="#603A17" d="M184.72,210.499c0.414-0.035,0.767-0.063,1.052-0.069c0.572-0.027,0.88-0.023,0.88-0.023
				s-0.303-0.04-0.877-0.078c-0.288-0.027-0.643-0.038-1.059-0.05c-0.417-0.016-0.897-0.036-1.433-0.016
				c-0.537,0.014-1.134,0.012-1.78,0.043c-0.646,0.043-1.347,0.091-2.094,0.142c-0.749,0.049-1.536,0.167-2.374,0.254
				c-0.417,0.051-0.845,0.103-1.283,0.154c-0.436,0.074-0.88,0.147-1.335,0.224c-0.908,0.158-1.86,0.304-2.836,0.491
				c-0.971,0.216-1.974,0.44-3.007,0.671c-1.038,0.213-2.08,0.511-3.152,0.804c-1.07,0.295-2.167,0.589-3.269,0.93
				c-1.095,0.362-2.207,0.731-3.333,1.105c-0.563,0.186-1.131,0.374-1.701,0.563c-0.562,0.208-1.12,0.436-1.686,0.654
				c-1.127,0.441-2.263,0.886-3.404,1.334l-0.855,0.335c-0.283,0.119-0.562,0.247-0.842,0.371l-1.685,0.748
				c-1.12,0.508-2.239,1.016-3.353,1.522c-0.563,0.242-1.101,0.53-1.645,0.804c-0.542,0.276-1.084,0.551-1.623,0.825
				c-2.157,1.092-4.279,2.17-6.256,3.349c-0.996,0.576-1.982,1.13-2.934,1.695c-0.478,0.28-0.95,0.557-1.416,0.831
				c-0.233,0.136-0.465,0.272-0.695,0.407c-0.229,0.139-0.449,0.286-0.671,0.428c-1.775,1.137-3.441,2.229-4.976,3.241
				c-0.766,0.51-1.511,0.978-2.197,1.457c-0.677,0.493-1.318,0.962-1.922,1.402c-1.209,0.877-2.251,1.656-3.112,2.294
				c-0.862,0.635-1.526,1.15-1.986,1.495c-0.456,0.347-0.699,0.531-0.699,0.531s0.262-0.155,0.758-0.449
				c0.491-0.294,1.223-0.716,2.134-1.272c0.916-0.553,2.03-1.222,3.292-2.005c0.635-0.391,1.308-0.806,2.019-1.243
				c0.719-0.423,1.484-0.853,2.277-1.309c1.589-0.906,3.309-1.89,5.114-2.95c0.227-0.131,0.452-0.268,0.683-0.396
				c0.235-0.124,0.471-0.248,0.708-0.375c0.475-0.25,0.955-0.504,1.441-0.761c0.975-0.509,1.957-1.052,2.962-1.59
				c1.007-0.534,2.011-1.118,3.077-1.611c1.057-0.508,2.123-1.032,3.192-1.568c0.537-0.267,1.074-0.534,1.613-0.803
				c0.541-0.266,1.077-0.546,1.635-0.781c1.105-0.491,2.216-0.984,3.326-1.477l1.66-0.754c0.276-0.125,0.551-0.253,0.83-0.374
				l0.841-0.338c1.122-0.451,2.241-0.901,3.349-1.346c0.555-0.223,1.107-0.444,1.657-0.665c0.558-0.201,1.111-0.4,1.662-0.599
				c1.103-0.398,2.191-0.791,3.261-1.178c1.077-0.369,2.153-0.672,3.193-1.018c1.043-0.334,2.062-0.676,3.073-0.93
				c1.006-0.275,1.985-0.543,2.933-0.801c0.95-0.243,1.877-0.443,2.764-0.656c0.443-0.102,0.879-0.202,1.304-0.299
				c0.429-0.081,0.847-0.161,1.255-0.238c0.816-0.15,1.588-0.328,2.32-0.433c0.733-0.112,1.419-0.216,2.054-0.312
				c0.636-0.091,1.222-0.144,1.752-0.208C183.833,210.561,184.307,210.534,184.72,210.499z"/>
			<path fill="#603A17" d="M198.094,210.687c-0.157,0.067-0.347,0.137-0.542,0.239c-0.2,0.099-0.42,0.209-0.661,0.328
				c-0.237,0.127-0.482,0.279-0.751,0.436c-0.274,0.152-0.542,0.342-0.833,0.534c-0.289,0.196-0.598,0.397-0.895,0.637
				c-0.302,0.237-0.615,0.484-0.938,0.741c-0.317,0.266-0.624,0.56-0.952,0.853c-0.16,0.149-0.325,0.3-0.491,0.453
				c-0.155,0.162-0.313,0.326-0.474,0.492c-0.316,0.335-0.64,0.679-0.969,1.027c-0.313,0.361-0.616,0.741-0.928,1.123
				c-0.31,0.383-0.635,0.763-0.913,1.182c-0.571,0.822-1.183,1.644-1.687,2.528c-0.257,0.439-0.516,0.878-0.774,1.314l-0.193,0.327
				l-0.17,0.338c-0.113,0.225-0.225,0.45-0.336,0.673c-0.225,0.447-0.444,0.892-0.657,1.333c-0.224,0.435-0.401,0.884-0.579,1.325
				c-0.353,0.882-0.706,1.729-0.993,2.549c-0.266,0.828-0.508,1.613-0.725,2.337c-0.105,0.364-0.214,0.708-0.3,1.042
				c-0.074,0.337-0.146,0.657-0.211,0.957c-0.137,0.6-0.237,1.127-0.323,1.558c-0.09,0.431-0.144,0.773-0.187,1.005
				c-0.039,0.232-0.06,0.357-0.06,0.357s0.056-0.113,0.162-0.327c0.098-0.213,0.256-0.525,0.435-0.924
				c0.182-0.399,0.407-0.882,0.644-1.441c0.122-0.28,0.249-0.575,0.384-0.888c0.147-0.307,0.3-0.63,0.462-0.967
				c0.319-0.673,0.658-1.405,1.006-2.179c0.367-0.766,0.792-1.555,1.194-2.385c0.385-0.84,0.882-1.655,1.333-2.51
				c0.236-0.42,0.447-0.862,0.708-1.273c0.253-0.417,0.506-0.836,0.759-1.255c0.477-0.859,1.055-1.645,1.571-2.458
				c0.256-0.41,0.548-0.785,0.822-1.168c0.277-0.382,0.55-0.759,0.818-1.131c0.286-0.357,0.567-0.708,0.841-1.054
				c0.137-0.172,0.272-0.344,0.407-0.513c0.142-0.162,0.282-0.322,0.42-0.479c0.276-0.317,0.546-0.626,0.806-0.925
				c0.273-0.288,0.537-0.564,0.79-0.831c0.246-0.278,0.512-0.508,0.75-0.748c0.24-0.234,0.464-0.467,0.693-0.659
				c0.226-0.201,0.436-0.388,0.631-0.562c0.203-0.166,0.388-0.318,0.556-0.457c0.342-0.266,0.612-0.485,0.805-0.614
				c0.191-0.137,0.299-0.206,0.299-0.206s-0.123,0.03-0.347,0.112C198.39,210.567,198.253,210.62,198.094,210.687z"/>
			<path fill="#603A17" d="M488.289,240.292c-1.158-0.553-2.852-1.381-5.022-2.399c-0.544-0.253-1.111-0.534-1.717-0.801
				c-0.605-0.269-1.239-0.552-1.898-0.845c-1.322-0.586-2.75-1.221-4.276-1.9c-1.521-0.695-3.168-1.365-4.896-2.09
				c-0.866-0.359-1.755-0.727-2.663-1.104c-0.912-0.369-1.838-0.772-2.799-1.136c-1.919-0.742-3.917-1.516-5.984-2.316
				c-0.52-0.199-1.038-0.405-1.568-0.599c-0.529-0.19-1.064-0.382-1.604-0.576c-1.078-0.387-2.173-0.78-3.282-1.177
				c-1.111-0.395-2.231-0.812-3.377-1.201c-1.146-0.385-2.307-0.776-3.48-1.17c-1.175-0.392-2.361-0.788-3.56-1.188
				c-1.204-0.387-2.424-0.756-3.652-1.14c-1.229-0.381-2.469-0.766-3.715-1.154c-1.249-0.389-2.519-0.736-3.787-1.111
				c-1.272-0.367-2.552-0.739-3.837-1.111c-1.287-0.368-2.593-0.696-3.896-1.048c-1.307-0.347-2.616-0.695-3.932-1.045
				c-1.321-0.328-2.645-0.657-3.973-0.985c-1.325-0.325-2.654-0.665-3.988-0.979c-1.337-0.305-2.675-0.611-4.012-0.917
				c-5.354-1.21-10.742-2.272-16.052-3.271c-5.317-0.96-10.567-1.809-15.664-2.522c-5.09-0.754-10.035-1.296-14.723-1.804
				c-4.693-0.463-9.136-0.852-13.242-1.1c-1.026-0.072-2.031-0.133-3.014-0.184c-0.984-0.051-1.943-0.102-2.88-0.152
				c-1.875-0.067-3.65-0.151-5.321-0.186c-3.342-0.103-6.255-0.122-8.653-0.124c-2.399-0.007-4.284,0.063-5.567,0.1
				c-1.283,0.046-1.968,0.086-1.968,0.086s0.685-0.006,1.97,0.014c1.283,0.02,3.165,0.074,5.56,0.158
				c2.394,0.093,5.3,0.222,8.626,0.45c3.329,0.217,7.079,0.521,11.165,0.894c1.021,0.096,2.063,0.195,3.126,0.295
				c1.061,0.114,2.143,0.229,3.241,0.347c2.199,0.223,4.469,0.508,6.805,0.771c1.164,0.15,2.347,0.303,3.541,0.458
				c0.599,0.076,1.201,0.154,1.805,0.231c0.604,0.086,1.211,0.173,1.822,0.26c1.221,0.173,2.456,0.346,3.701,0.521
				c1.246,0.189,2.502,0.38,3.77,0.573c2.536,0.371,5.102,0.822,7.704,1.255c1.303,0.208,2.604,0.465,3.916,0.701
				c1.313,0.237,2.632,0.475,3.955,0.714c5.284,1.017,10.645,2.094,15.973,3.321c1.333,0.299,2.665,0.6,3.997,0.899
				c1.331,0.309,2.653,0.64,3.977,0.958c1.322,0.323,2.643,0.645,3.958,0.966c1.312,0.342,2.618,0.684,3.919,1.024
				c1.301,0.346,2.601,0.668,3.886,1.029c1.285,0.355,2.563,0.709,3.834,1.062c1.269,0.357,2.537,0.688,3.785,1.061
				c1.246,0.371,2.485,0.739,3.715,1.104c1.226,0.368,2.447,0.722,3.65,1.092c1.2,0.379,2.39,0.755,3.564,1.128
				c1.176,0.37,2.341,0.736,3.491,1.097c1.148,0.366,2.272,0.759,3.389,1.13c1.113,0.375,2.211,0.745,3.293,1.108
				c0.542,0.183,1.078,0.364,1.611,0.542c0.529,0.188,1.054,0.375,1.575,0.56c2.084,0.742,4.098,1.458,6.031,2.145
				c1.928,0.699,3.756,1.425,5.511,2.074c1.751,0.659,3.419,1.264,4.962,1.899c1.549,0.619,2.998,1.199,4.339,1.735
				c0.67,0.268,1.314,0.525,1.928,0.771c0.614,0.244,1.19,0.502,1.742,0.734c2.201,0.946,3.944,1.662,5.128,2.162
				c1.184,0.496,1.815,0.761,1.815,0.761S489.446,240.848,488.289,240.292z"/>
			<path fill="#603A17" d="M423.35,237.955c-0.499-0.255-1.021-0.521-1.564-0.8c-1.091-0.554-2.27-1.152-3.53-1.791
				c-0.633-0.314-1.276-0.659-1.956-0.977c-0.678-0.322-1.376-0.653-2.09-0.995c-1.435-0.677-2.941-1.393-4.521-2.122
				c-1.592-0.703-3.251-1.437-4.967-2.194c-0.856-0.385-1.732-0.761-2.632-1.122c-0.897-0.367-1.807-0.74-2.73-1.118
				c-0.922-0.377-1.859-0.76-2.806-1.147c-0.955-0.367-1.923-0.738-2.901-1.113c-1.954-0.756-3.956-1.513-6.013-2.224
				c-2.055-0.722-4.133-1.482-6.266-2.165c-1.064-0.352-2.136-0.706-3.21-1.061c-1.075-0.36-2.169-0.673-3.262-1.008
				c-1.094-0.332-2.192-0.664-3.294-0.998c-1.1-0.339-2.217-0.632-3.329-0.951c-1.114-0.313-2.229-0.626-3.346-0.94
				c-1.123-0.293-2.245-0.587-3.369-0.88c-1.127-0.282-2.247-0.587-3.376-0.85c-1.13-0.268-2.258-0.533-3.384-0.799
				c-0.563-0.133-1.125-0.266-1.687-0.398c-0.563-0.123-1.127-0.246-1.688-0.369c-1.125-0.244-2.246-0.487-3.363-0.729
				c-2.237-0.471-4.464-0.899-6.666-1.313c-2.207-0.381-4.382-0.798-6.533-1.125c-1.075-0.171-2.141-0.342-3.196-0.511
				c-1.059-0.15-2.106-0.298-3.146-0.445c-2.071-0.303-4.107-0.528-6.088-0.78c-3.964-0.454-7.718-0.822-11.19-1.063
				c-1.734-0.14-3.4-0.229-4.982-0.325c-1.585-0.066-3.087-0.149-4.501-0.186c-2.824-0.108-5.289-0.113-7.318-0.111
				c-2.028,0.002-3.623,0.066-4.708,0.105c-1.084,0.045-1.664,0.085-1.664,0.085s0.579-0.004,1.666,0.014
				c1.084,0.021,2.675,0.073,4.699,0.163c2.023,0.097,4.477,0.234,7.289,0.448c2.812,0.208,5.977,0.495,9.426,0.862
				c3.449,0.354,7.174,0.846,11.109,1.375c1.964,0.296,3.986,0.567,6.041,0.918c1.029,0.166,2.07,0.333,3.119,0.502
				c1.048,0.184,2.106,0.368,3.173,0.554c2.137,0.355,4.294,0.801,6.483,1.209c1.095,0.21,2.188,0.453,3.293,0.679
				c1.102,0.234,2.215,0.44,3.323,0.692c1.11,0.246,2.225,0.494,3.342,0.742c0.559,0.124,1.119,0.25,1.678,0.374
				c0.559,0.134,1.116,0.269,1.676,0.404c1.117,0.27,2.238,0.54,3.359,0.81c1.123,0.268,2.235,0.576,3.354,0.862
				c1.118,0.287,2.236,0.574,3.354,0.861c1.111,0.308,2.222,0.614,3.331,0.919c1.107,0.313,2.219,0.599,3.313,0.93
				c1.099,0.327,2.192,0.652,3.281,0.976c2.184,0.633,4.327,1.335,6.454,1.997c2.134,0.65,4.211,1.378,6.265,2.066
				c1.023,0.354,2.049,0.676,3.045,1.045c1.002,0.359,1.993,0.716,2.975,1.068c0.981,0.351,1.952,0.698,2.913,1.04
				c0.95,0.364,1.891,0.723,2.819,1.078c3.72,1.389,7.189,2.829,10.408,4.121c1.594,0.684,3.122,1.339,4.574,1.961
				c0.728,0.31,1.437,0.612,2.125,0.905c0.691,0.289,1.347,0.606,1.99,0.893c1.285,0.583,2.486,1.128,3.597,1.632
				c0.559,0.251,1.092,0.491,1.603,0.721c0.508,0.233,0.985,0.471,1.443,0.688c3.66,1.741,5.753,2.734,5.753,2.734
				s-2.033-1.113-5.588-3.063C424.313,238.475,423.848,238.215,423.35,237.955z"/>
			<path fill="#603A17" d="M364.115,238.744c-0.664-0.493-1.439-0.977-2.265-1.533c-0.831-0.546-1.731-1.137-2.693-1.77
				c-0.478-0.323-0.987-0.625-1.51-0.942c-0.523-0.318-1.061-0.645-1.611-0.98c-1.108-0.665-2.26-1.385-3.507-2.059
				c-1.238-0.688-2.53-1.408-3.866-2.149c-1.362-0.696-2.769-1.414-4.216-2.154c-0.719-0.379-1.471-0.717-2.223-1.077
				c-0.755-0.356-1.518-0.717-2.29-1.082c-0.384-0.182-0.773-0.366-1.164-0.55c-0.396-0.171-0.793-0.342-1.192-0.516
				c-0.8-0.344-1.607-0.692-2.422-1.044c-0.407-0.174-0.816-0.351-1.228-0.527c-0.412-0.174-0.831-0.334-1.248-0.503
				c-0.837-0.334-1.679-0.669-2.528-1.007c-1.687-0.702-3.438-1.289-5.186-1.935c-0.871-0.325-1.761-0.618-2.651-0.913
				c-0.889-0.297-1.781-0.595-2.675-0.893c-1.794-0.579-3.607-1.119-5.416-1.674c-0.912-0.252-1.824-0.503-2.734-0.754
				c-0.912-0.248-1.818-0.512-2.734-0.733c-1.829-0.455-3.643-0.938-5.462-1.338c-0.908-0.208-1.811-0.415-2.71-0.621
				c-0.905-0.183-1.804-0.367-2.698-0.548c-1.786-0.377-3.563-0.677-5.305-1.002c-0.872-0.165-1.742-0.291-2.599-0.436
				c-0.86-0.139-1.71-0.286-2.555-0.4c-1.69-0.233-3.339-0.479-4.953-0.665c-3.221-0.419-6.282-0.685-9.104-0.914
				c-2.827-0.21-5.42-0.351-7.719-0.419c-2.3-0.08-4.306-0.093-5.957-0.08c-1.65,0.003-2.947,0.061-3.831,0.095
				c-0.884,0.038-1.354,0.072-1.354,0.072s0.473,0.001,1.354,0.028c0.884,0.026,2.177,0.082,3.823,0.172
				c1.644,0.086,3.639,0.23,5.923,0.417c1.141,0.095,2.357,0.205,3.635,0.34c1.279,0.12,2.622,0.277,4.022,0.429
				c1.399,0.176,2.858,0.34,4.362,0.557c0.751,0.104,1.518,0.208,2.295,0.314c0.774,0.116,1.563,0.234,2.36,0.353
				c1.598,0.23,3.23,0.522,4.901,0.801c1.667,0.304,3.372,0.602,5.101,0.935c1.724,0.352,3.483,0.681,5.248,1.086
				c0.883,0.195,1.772,0.391,2.666,0.588c0.891,0.211,1.787,0.423,2.685,0.635c1.802,0.407,3.599,0.897,5.409,1.358
				c0.906,0.225,1.804,0.493,2.706,0.743c0.903,0.254,1.805,0.509,2.709,0.763c1.794,0.545,3.596,1.067,5.377,1.631
				c0.888,0.291,1.773,0.581,2.657,0.869s1.766,0.572,2.632,0.891c3.483,1.226,6.9,2.465,10.158,3.793
				c3.261,1.315,6.382,2.671,9.316,4.007c1.459,0.69,2.878,1.361,4.251,2.01c1.354,0.684,2.664,1.346,3.921,1.981
				c1.269,0.618,2.437,1.295,3.568,1.901c0.566,0.305,1.117,0.603,1.652,0.893c0.536,0.291,1.061,0.564,1.549,0.86
				c0.99,0.578,1.919,1.119,2.773,1.618c0.856,0.502,1.66,0.937,2.351,1.387c1.4,0.867,2.501,1.55,3.251,2.016
				c0.753,0.464,1.154,0.711,1.154,0.711s-0.382-0.276-1.098-0.794C366.506,240.469,365.454,239.709,364.115,238.744z"/>
			<path fill="#603A17" d="M300.701,234.711c-0.801-0.599-1.768-1.333-2.893-2.155c-1.125-0.821-2.372-1.785-3.814-2.71
				c-1.425-0.953-2.973-1.985-4.622-3.055c-0.412-0.269-0.829-0.541-1.25-0.818c-0.423-0.274-0.869-0.526-1.31-0.794
				c-0.883-0.535-1.8-1.059-2.724-1.604c-0.926-0.543-1.869-1.096-2.821-1.654c-0.961-0.547-1.962-1.05-2.959-1.575
				c-1.001-0.521-2.01-1.046-3.023-1.573l-0.762-0.394c-0.256-0.126-0.519-0.243-0.778-0.363l-1.562-0.722
				c-1.045-0.474-2.09-0.947-3.131-1.418c-0.515-0.246-1.047-0.454-1.577-0.664c-0.528-0.211-1.056-0.422-1.579-0.632
				c-1.05-0.42-2.09-0.839-3.129-1.223c-1.051-0.354-2.09-0.701-3.11-1.044c-0.511-0.17-1.017-0.34-1.519-0.508
				c-0.502-0.164-1.013-0.289-1.513-0.428c-1.001-0.272-1.98-0.538-2.933-0.797c-0.961-0.229-1.904-0.426-2.812-0.619
				c-0.456-0.095-0.903-0.188-1.341-0.279c-0.445-0.069-0.879-0.136-1.306-0.202c-0.425-0.066-0.843-0.131-1.25-0.194
				c-0.407-0.06-0.804-0.137-1.197-0.161c-0.783-0.073-1.524-0.141-2.223-0.205c-0.698-0.056-1.356-0.064-1.96-0.085
				c-0.604-0.03-1.162-0.008-1.664,0.005c-0.25,0.006-0.487,0.012-0.71,0.019c-0.224,0.006-0.433,0.034-0.627,0.048
				c-0.388,0.039-0.718,0.052-0.984,0.098c-0.534,0.071-0.812,0.133-0.812,0.133s0.071-0.005,0.21-0.014
				c0.139-0.003,0.342-0.008,0.611-0.014c0.266-0.015,0.595,0.012,0.981,0.018c0.386,0.004,0.829,0.038,1.325,0.077
				c0.495,0.038,1.042,0.071,1.635,0.161c0.593,0.086,1.236,0.137,1.918,0.253c0.679,0.12,1.403,0.248,2.165,0.384
				c0.76,0.138,1.552,0.336,2.381,0.514c0.413,0.093,0.836,0.187,1.267,0.283c0.425,0.118,0.86,0.238,1.301,0.36
				c0.881,0.251,1.798,0.474,2.731,0.748c0.925,0.299,1.875,0.606,2.847,0.92c0.484,0.161,0.979,0.306,1.47,0.479
				c0.489,0.179,0.983,0.361,1.482,0.544c0.995,0.365,2.008,0.737,3.032,1.113c1.008,0.419,2.03,0.841,3.06,1.268
				c0.516,0.212,1.034,0.424,1.553,0.638c0.519,0.212,1.042,0.421,1.549,0.669c1.023,0.475,2.049,0.954,3.078,1.432l1.545,0.706
				c0.257,0.119,0.516,0.232,0.77,0.355l0.755,0.386c1.008,0.509,2.013,1.018,3.009,1.521c0.499,0.251,0.995,0.502,1.49,0.75
				c0.493,0.251,0.997,0.476,1.473,0.746c0.96,0.526,1.91,1.046,2.842,1.558c0.936,0.508,1.849,1.021,2.756,1.501
				c0.45,0.245,0.903,0.474,1.335,0.726c0.432,0.253,0.859,0.505,1.28,0.751c1.681,0.997,3.282,1.919,4.763,2.769
				c1.492,0.834,2.808,1.685,3.995,2.403c1.181,0.73,2.221,1.353,3.076,1.868c0.853,0.519,1.534,0.913,1.994,1.187
				c0.463,0.27,0.709,0.415,0.709,0.415s-0.225-0.174-0.648-0.502C302.122,235.791,301.502,235.309,300.701,234.711z"/>
			<path fill="#603A17" d="M237.213,235.739c-0.098-0.463-0.214-1.027-0.367-1.67c-0.08-0.32-0.143-0.669-0.251-1.023
				c-0.11-0.353-0.226-0.726-0.348-1.112c-0.253-0.773-0.51-1.62-0.838-2.495c-0.358-0.862-0.739-1.771-1.148-2.709
				c-0.098-0.236-0.209-0.469-0.332-0.697c-0.121-0.229-0.242-0.462-0.364-0.694c-0.241-0.468-0.492-0.939-0.746-1.413
				c-0.241-0.48-0.546-0.931-0.833-1.394c-0.291-0.46-0.584-0.922-0.876-1.383c-0.3-0.458-0.643-0.887-0.961-1.329
				c-0.326-0.437-0.643-0.877-0.986-1.293c-0.347-0.413-0.697-0.816-1.045-1.214c-0.174-0.199-0.346-0.396-0.516-0.592
				c-0.185-0.186-0.367-0.369-0.549-0.552c-0.363-0.362-0.72-0.718-1.069-1.067c-0.373-0.326-0.734-0.645-1.088-0.955
				c-0.179-0.153-0.353-0.304-0.526-0.453c-0.182-0.14-0.359-0.276-0.535-0.411c-0.355-0.265-0.689-0.53-1.023-0.767
				c-0.683-0.456-1.302-0.875-1.887-1.196c-0.565-0.347-1.096-0.589-1.519-0.802c-0.434-0.199-0.779-0.341-1.02-0.428
				c-0.236-0.091-0.368-0.127-0.368-0.127s0.115,0.074,0.321,0.221c0.209,0.137,0.499,0.373,0.877,0.646
				c0.366,0.294,0.813,0.642,1.303,1.066c0.504,0.408,1.028,0.921,1.617,1.448c0.284,0.278,0.579,0.568,0.884,0.867
				c0.152,0.148,0.308,0.3,0.465,0.453c0.15,0.162,0.303,0.325,0.457,0.492c0.311,0.329,0.628,0.668,0.954,1.014
				c0.311,0.36,0.625,0.729,0.947,1.104c0.162,0.186,0.323,0.373,0.488,0.562c0.154,0.197,0.311,0.395,0.467,0.595
				c0.313,0.4,0.629,0.804,0.954,1.206c0.32,0.406,0.602,0.847,0.916,1.267c0.3,0.429,0.624,0.841,0.908,1.285
				c0.287,0.441,0.572,0.883,0.857,1.323c0.276,0.446,0.591,0.865,0.835,1.323c0.506,0.905,1.055,1.77,1.526,2.64
				c0.454,0.88,0.905,1.727,1.337,2.53c0.22,0.401,0.386,0.812,0.576,1.197c0.186,0.389,0.366,0.763,0.538,1.123
				c0.177,0.36,0.347,0.704,0.509,1.032c0.167,0.325,0.288,0.65,0.42,0.947c0.253,0.601,0.492,1.119,0.687,1.548
				c0.191,0.431,0.357,0.764,0.463,0.995c0.112,0.229,0.17,0.351,0.17,0.351s-0.024-0.133-0.068-0.382
				C237.378,236.566,237.315,236.2,237.213,235.739z"/>
		</g>
	</g>
	<g clip-path="url(#SVGID_2_)">
		<path fill="#E1BAA6" d="M402.175,233.469c-4.33,1.333-88.336,26.722-114.317,26.722c-25.982,0-20.654-1.999-29.314-9.327
			c-8.66-7.328-14.656-17.988-30.646-24.65c-15.99-6.662-17.988-11.325-27.314-17.321c-9.327-5.996-22.652-7.328-22.652,3.998
			c0,11.325,24.65,21.318,25.649,26.648c1,5.33-1,2.665-6.995,6.662s-12.658,4.663-27.315,4.663c-14.656,0-13.99,4.664-31.312,4.664
			c-17.322,0-38.061-5.996-41.349,4.663c0,0-13.874-7.328-16.575,3.998c-2.702,11.325,13.955,11.658,13.955,11.658
			s-10.66,0.333-8.662,7.662c2,7.328,24.565,10.659,24.565,10.659s-6.432,2.665-3.839,9.993
			c2.592,7.329,51.225,11.992,74.542,13.324c23.318,1.333,42.638-3.331,57.294-3.331c14.657,0,15.323,1.676,38.641-0.988
			c23.317-2.665,30.233,1.153,50.631,4.558c22.889,3.82,34.963,8.211,34.963,8.211L402.175,233.469z"/>
		<path fill="#D3AA98" d="M80.036,264.188c0,0,24.444-3.313,29.858,7.67c0,0,8.098-5.394,21.079,1.463
			c0,0,45.671-0.473,48.336,5.523c0,0-34.688-2.665-40.018,3.997c0,0-11.992-5.996-22.651-6.995c0,0-15.071-2.681-22.651,0
			C93.99,275.847,76.741,276.846,80.036,264.188z"/>
		<path fill="#D3AA98" d="M173.056,297.499c0,0-7.116-3.332-19.108,0c0,0-5.996-1.628-19.986-1.481c0,0-17.229-6.828-26.602-0.009
			c0,0-16.925-2.75-19.508-9.162c-2.585-6.413,14.912-2.657,25.181,0c0,0,11.603-3.536,26.259,3.558
			C139.292,290.405,165.062,287.505,173.056,297.499z"/>
		<path fill="#D3AA98" d="M96.611,260.191c0,0,8.537-2.922,13.283,3.529c0,0,13.428-3.134,21.079,0l38.991-2.437
			C169.964,261.283,98.565,252.196,96.611,260.191z"/>
		<path fill="#A87D50" d="M195.187,257.208c1.833-7.46,9.675,6.235,10.709,10.37C206.929,271.712,191.719,271.319,195.187,257.208z"
			/>
		<path fill="#A87D50" d="M182.168,268.047c6.134-4.628,9.677,6.234,10.709,10.368C193.912,282.55,175.651,272.965,182.168,268.047z
			"/>
		<path fill="#C3996B" d="M201.781,281.064c1.833-7.462,9.726-3.161,10.76,0.972C213.574,286.171,198.314,295.173,201.781,281.064z"
			/>
		<path fill="#A87D50" d="M161.708,280.633c2.057-5.614,10.854,4.691,12.014,7.803C174.881,291.547,157.82,291.25,161.708,280.633z"
			/>
		<path fill="#8A5E3C" d="M187.373,285.171c1.833-7.461,9.676,6.234,10.709,10.369C199.116,299.674,183.906,299.28,187.373,285.171z
			"/>
		<path fill="#8A5E3C" d="M174.024,262.602c7.001,3.164-7.896,8.376-12.148,8.638C157.622,271.501,160.784,256.619,174.024,262.602z
			"/>
	</g>
	<path clip-path="url(#SVGID_2_)" fill="#D3AA98" d="M236,305.317c0,0,84-28,123-6l-14,29c0,0-25.532-6.849-47-10
		s-60.972,0.489-74,1c-51,2-73.957-4.408-73.957-4.408S206.21,313.271,236,305.317z"/>
</g>
</svg>
