<?xml version="1.0" encoding="utf-8"?>
<!-- Generator: Adobe Illustrator 16.0.0, SVG Export Plug-In . SVG Version: 6.00 Build 0)  -->
<!DOCTYPE svg PUBLIC "-//W3C//DTD SVG 1.1//EN" "http://www.w3.org/Graphics/SVG/1.1/DTD/svg11.dtd">
<svg version="1.1" id="Layer_1" xmlns="http://www.w3.org/2000/svg" xmlns:xlink="http://www.w3.org/1999/xlink" x="0px" y="0px"
	 width="401.771px" height="401.771px" viewBox="0 0 401.771 401.771" enable-background="new 0 0 401.771 401.771"
	 xml:space="preserve">
<g>
	<defs>
		<circle id="SVGID_1_" cx="201.715" cy="201.715" r="199.056"/>
	</defs>
	<clipPath id="SVGID_2_">
		<use xlink:href="#SVGID_1_"  overflow="visible"/>
	</clipPath>
	<g clip-path="url(#SVGID_2_)">
		<polygon fill="#808285" points="-86.687,33.246 481.268,12.936 484.584,446.842 -76.416,444.015 		"/>
		<path fill="#BE202E" d="M279.641,142.591c0,0,26.4,17.302,27.152,24.072c0,0,60.932,16.549,64.693,43.63
			c3.762,27.08,3.762,51.152,0,63.94s3.1,30.09-4.844,41.374c-7.943,11.283,10.764,55.042-18.148,53.474
			c-28.912-1.569-149.77,24.033-149.77,24.033l-52.161-30.115c0,0-26.448-71.464-24.13-104.563
			c2.315-33.099,8.334-89.517,34.663-94.783c26.329-5.266,50.399-5.266,50.399-5.266L279.641,142.591z"/>
		<path fill="#D5B1A9" d="M280.688,128.266c0,0,10.004,24.587,5.412,35.871c-4.588,11.284-27.908,53.409-33.174,58.675
			s-27.832,27.834-35.355,8.275c-7.521-19.559,1.504-50.401,0-63.189C216.066,155.109,280.688,128.266,280.688,128.266z"/>
		<path fill="#E4BDB2" d="M188.232,109.223c2.256,24.072,11.354,84.252,49.648,76.729c33.615-6.603,44.535-20.31,48.219-42.125
			c3.686-21.815,0-11.284,0-11.284s18.73,6.771,21.74-12.036c3.008-18.807-6.506-25.577-15.289-26.329V88.16
			c0,0-49.404-21.815-77.99-17.302S188.232,109.223,188.232,109.223z"/>
		<path fill="#FEE7D9" d="M173.437,228.83c1.505-18.054,97.807-9.027,119.114-3.009c0,0,21.607,113.031,6.037,119.328
			c-15.572,6.297-113.266,11.562-127.559-14.014C156.737,305.559,171.482,252.31,173.437,228.83z"/>
		<path fill="#EBCFC1" d="M294.896,238.924h-97.369l-9.336,4.951h95.576l-59.422,5.266l68.205,6.716c0,0,19.584,62.355-17.275,72.27
			c-36.861,9.914-77.748,13.541-97.574-49.286c-5.509-17.456-7.272-30.169-7.272-30.169s-16.916,47.861-6.326,72.686
			c10.59,24.823,84.92,48.896,116.584,36.859C312.354,346.18,305.273,291.144,294.896,238.924z"/>
		<path fill="#414142" d="M303.674,89.283c0,0-78.799-25.195-106.146-6.389c-27.349,18.806-16.816,34.604-23.586,34.604
			c-6.771,0-9.246-37.442,23.586-51.82C230.357,51.3,307.943,74.991,303.674,89.283z"/>
		<path fill="#D3AAA0" d="M222.711,108.174c0.912-3.649,10.914-14.293,24.264-5.266s15.379,9.345,2.703,13.699
			C237.006,120.962,220.455,117.2,222.711,108.174z"/>
		<path fill="#D3AAA0" d="M197.768,105.333c7.744-5.157,21.188,14.974,9.773,18.638C195.83,127.73,177.988,118.504,197.768,105.333z
			"/>
		<path fill="#D3AAA0" d="M296.057,103.425c0,0,14.541,15.592,5.896,19.138c-8.641,3.546-8.932-5.064-8.932-5.064
			S296.533,115.429,296.057,103.425z"/>
		<polygon points="56.589,43.025 73.357,391.615 377.799,369.122 362.709,74.619 423.686,117.498 440.234,411.675 138.471,429.68 
			-95.363,440.963 -109.286,389.811 2.427,379.279 -0.581,27.98 		"/>
		<path fill="#C7A394" d="M291.141,242.37H171.996l-1.566,6.301l125.577-3.15c0,0,8.246,64.289,2.854,72.826
			s-59.014,27.833-124.918,25.577c0,0,113.364,49.19,130.756,6.406c13.213-32.503-2.432-84.763-9.801-111.406L291.141,242.37z"/>
		<path fill="#E4BDB2" d="M318.479,314.354c0,0,16.93-7.813,30.604,0c13.676,7.813,9.768,33.859,0,44.278
			c-9.766,10.419-25.395,19.535-40.371,16.279s-18.23-1.915-35.162,0.67c-16.93,2.586-37.768-14.344-29.301-21.508
			c8.465-7.162,29.807-16.93,42.252-15.627c12.443,1.303,19.607-1.954,17.002-10.419c-2.604-8.465-11.07-31.906,1.953-22.79
			s18.883,22.79,16.279,31.255C321.734,336.492,328.246,327.377,318.479,314.354z"/>
		<path fill="#F2F2F2" d="M228.855,112.036c-4.254-6.268,13.322-13.116,22.066-5.822c7.143,5.957,0.6,9.472,0.6,9.472
			S236.377,123.124,228.855,112.036z"/>
		<path fill="#F2F2F2" d="M209.756,110.986c0,0-14.041-8.196-18.813,11.588C190.943,122.574,211.627,130.861,209.756,110.986z"/>
		<circle fill="#231F20" cx="238.296" cy="110.531" r="5.386"/>
		<circle fill="#231F20" cx="201.854" cy="116.745" r="5.387"/>
		<path fill="#231F20" d="M173.941,117.498c0,0,13.067-5.173,14.25-13.075s2.752-16.462,2.752-16.462
			S175.444,99.444,173.941,117.498z"/>
		<path fill="#F6EC70" d="M306.793,166.663c0,0-10.236,28.315-23.777,44.865c0,0,18.676-16.969,29.648-43.088L306.793,166.663z"/>
		<g>
			<path fill="#F6EC70" d="M307.172,171.424c8.365,2.831,16.631,5.948,24.756,9.451c4.061,1.751,8.084,3.607,12.029,5.659
				c1.975,1.024,3.918,2.12,5.828,3.292c1.908,1.176,3.775,2.455,5.523,3.983c0.439,0.377,0.848,0.814,1.271,1.221
				c0.395,0.459,0.805,0.896,1.164,1.415l0.521,0.805l0.064,0.102c0.023,0.048-0.031-0.071,0.057,0.113l0.012,0.023l0.02,0.047
				l0.084,0.189l0.168,0.377l0.672,1.511c0.369,1.098,0.742,2.263,1.053,3.378c0.248,1.102,0.52,2.204,0.75,3.308l0.586,3.313
				l0.465,3.318c0.271,2.212,0.527,4.427,0.705,6.641c0.391,4.429,0.646,8.858,0.811,13.289c0.164,4.437,0.26,8.851,0.252,13.313
				l-0.002,1.157l-1.316,0.686c-0.039,0.021-0.291,0.148-0.455,0.242c-0.184,0.118-0.375,0.223-0.559,0.357
				c-0.375,0.253-0.734,0.549-1.088,0.851c-0.699,0.624-1.334,1.339-1.914,2.104c-1.158,1.535-2.037,3.322-2.668,5.214
				c-0.611,1.9-1.078,3.876-1.264,5.924l-0.09,0.761l-0.023,0.19c0.002-0.033-0.006,0.108-0.01,0.154l-0.025,0.409l-0.051,0.813
				l-0.014,0.735c-0.023,0.985,0.016,2.044,0.064,3.071c0.238,4.158,0.969,8.37,1.682,12.685c0.342,2.162,0.715,4.347,0.951,6.61
				c0.225,2.262,0.402,4.591,0.113,7.104c-0.158,1.25-0.438,2.558-1.016,3.861c-0.293,0.651-0.662,1.291-1.111,1.889
				c-0.244,0.287-0.469,0.592-0.742,0.852l-0.727,0.664c-0.291,0.258-0.186,0.162-0.287,0.271c-0.074,0.074-0.098,0.134-0.137,0.183
				c-0.039,0.1-0.084,0.169-0.063,0.38c0.014,0.409,0.389,1.187,0.902,1.92c0.525,0.748,1.195,1.502,1.914,2.254
				c0.732,0.776,1.479,1.455,2.363,2.447c0.115,0.135,0.232,0.273,0.371,0.466c0.125,0.19,0.305,0.39,0.5,0.97
				c0.049,0.201,0.09,0.284,0.1,0.642c0,0.152-0.012,0.306-0.039,0.452c-0.031,0.168-0.104,0.377-0.191,0.554
				c-0.193,0.385-0.41,0.583-0.686,0.796c-0.25,0.171-0.379,0.214-0.586,0.296c-0.574,0.172-0.863,0.138-1.088,0.136
				c-0.891-0.06-1.398-0.213-1.996-0.362c-1.133-0.308-2.186-0.655-3.24-1.011l-12.42-4.22l-6.219-1.97
				c-1.033-0.358-2.088-0.611-3.135-0.922c-1.049-0.313-2.096-0.622-3.15-0.868l0.064-0.496c1.107,0.078,2.199,0.22,3.289,0.363
				c1.088,0.159,2.191,0.274,3.27,0.487l6.504,1.215l6.398,1.484c2.135,0.503,4.244,1.014,6.387,1.561
				c1.043,0.26,2.094,0.51,3.09,0.693c0.469,0.085,1.035,0.174,1.238,0.158c0.047,0.011,0.035-0.043-0.277,0.054
				c-0.146,0.052-0.207,0.077-0.402,0.206c-0.229,0.164-0.379,0.329-0.555,0.644c-0.076,0.146-0.129,0.324-0.154,0.46
				c-0.025,0.112-0.037,0.231-0.035,0.35c0.02,0.288,0.029,0.307,0.063,0.441c0.105,0.322,0.137,0.288,0.096,0.263l-0.156-0.163
				c-0.607-0.605-1.516-1.362-2.336-2.124c-0.842-0.778-1.689-1.606-2.49-2.599c-0.773-1.008-1.602-2.154-1.914-3.926
				c-0.154-0.869-0.061-1.924,0.313-2.836c0.191-0.445,0.428-0.871,0.701-1.222c0.225-0.33,0.719-0.814,0.836-0.918l0.074-0.07
				l0.105-0.095l0.021-0.023l0.086-0.093l0.18-0.18c0.121-0.117,0.203-0.272,0.314-0.399c0.191-0.287,0.357-0.604,0.498-0.958
				c0.279-0.711,0.439-1.569,0.514-2.487c0.166-1.844-0.004-3.906-0.271-5.979c-0.266-2.08-0.607-4.211-0.967-6.364
				c-0.705-4.308-1.389-8.748-1.504-13.335c-0.016-1.157-0.01-2.285,0.064-3.485l0.059-0.901l0.082-0.821l0.043-0.408l0.027-0.254
				l0.033-0.216l0.137-0.862c0.305-2.299,0.93-4.588,1.744-6.813c0.828-2.223,1.967-4.383,3.506-6.293
				c0.77-0.953,1.623-1.851,2.584-2.651c0.49-0.393,0.99-0.773,1.533-1.115c0.266-0.177,0.557-0.333,0.842-0.495
				c0.318-0.161,0.551-0.289,1.02-0.47l-1.316,1.843c0.135-4.354,0.164-8.761,0.127-13.142c-0.037-4.386-0.166-8.771-0.428-13.136
				c-0.111-2.187-0.303-4.361-0.504-6.531l-0.361-3.246l-0.475-3.214c-0.189-1.061-0.416-2.106-0.623-3.162
				c-0.254-1.014-0.521-1.963-0.813-2.965l-0.629-1.53l-0.156-0.383l-0.078-0.19l-0.02-0.049l-0.01-0.023
				c0.08,0.168,0.016,0.036,0.031,0.068l-0.047-0.073l-0.363-0.593c-0.252-0.395-0.594-0.775-0.902-1.161
				c-0.363-0.364-0.695-0.748-1.082-1.1c-1.523-1.431-3.26-2.728-5.063-3.927c-1.805-1.201-3.664-2.341-5.568-3.419
				c-3.805-2.159-7.727-4.145-11.697-6.031c-3.971-1.889-7.994-3.676-12.047-5.401c-4.049-1.729-8.127-3.406-12.238-4.986
				L307.172,171.424z"/>
		</g>
		<g>
			<path fill="#F6EC70" d="M182.441,159.889c0,0,0.83,0.434,2.201,1.316c0.676,0.453,1.514,0.989,2.424,1.667
				c0.908,0.68,1.939,1.446,3.016,2.344c2.152,1.793,4.559,4.033,6.865,6.747c2.291,2.718,4.537,5.891,6.049,9.652
				c0.723,1.885,1.287,3.927,1.355,6.087c0.02,0.548,0.01,1.06-0.031,1.646c-0.037,0.445-0.08,0.888-0.131,1.327
				c-0.1,0.878-0.182,1.748-0.293,2.6c-0.211,1.707-0.441,3.353-0.695,4.913c-0.293,1.571-0.594,3.053-0.904,4.413
				s-0.596,2.605-0.938,3.691c-0.318,1.091-0.6,2.04-0.871,2.814c-0.246,0.777-0.486,1.383-0.646,1.794
				c-0.156,0.412-0.256,0.629-0.256,0.629s-0.125-0.944-0.238-2.571c-0.076-0.815-0.119-1.8-0.164-2.925
				c-0.049-1.126-0.1-2.39-0.121-3.763c-0.025-1.372-0.018-2.853,0.016-4.413c0.004-1.577,0.033-3.242,0.096-4.959
				c0.025-0.859,0.084-1.731,0.123-2.614c0.02-0.442,0.049-0.886,0.082-1.331c0.014-0.306,0.021-0.692,0.002-1.046
				c-0.088-1.449-0.432-3.004-1.008-4.541c-1.117-3.097-2.918-6.128-4.752-8.884c-1.85-2.76-3.754-5.282-5.432-7.429
				c-0.84-1.071-1.605-2.069-2.316-2.929c-0.705-0.871-1.318-1.63-1.824-2.256C183.025,160.609,182.441,159.889,182.441,159.889z"/>
		</g>
		<g>
			<path fill="#F6EC70" d="M188.709,166.912c0,0-0.725,0.077-2.084,0.289c-1.357,0.212-3.346,0.562-5.846,1.13
				c-2.5,0.571-5.514,1.366-8.887,2.508c-3.366,1.151-7.102,2.661-10.886,4.805c-3.761,2.146-7.621,4.953-10.655,8.778
				c-1.518,1.901-2.781,4.068-3.683,6.424c-0.451,1.178-0.809,2.403-1.06,3.664c-0.248,1.231-0.408,2.612-0.604,3.978
				c-1.521,10.926-2.99,22.582-3.893,34.266c-0.451,5.84-0.739,11.686-0.84,17.431c-0.071,5.745,0.077,11.386,0.354,16.813
				c0.286,5.428,0.754,10.643,1.461,15.531c0.695,4.89,1.692,9.447,2.983,13.514c0.354,1.012,0.657,1.987,1.032,2.975
				c0.363,0.992,0.717,1.961,1.062,2.905c0.698,1.881,1.36,3.665,1.983,5.342c1.236,3.358,2.363,6.265,3.314,8.643
				c0.965,2.371,1.771,4.215,2.427,5.382c0.298,0.569,0.683,1.023,0.767,1.06c-0.02-0.005-0.084,0.042-0.068,0.05
				c0.008-0.003,0.027-0.027,0.036-0.055c0.017-0.053,0.024-0.08,0.024-0.08l0.5,0.01c-0.001,0.006,0.006,0.066-0.013,0.189
				c-0.01,0.061-0.027,0.145-0.092,0.256c-0.062,0.119-0.274,0.255-0.476,0.225c-0.623-0.164-0.921-0.604-1.413-1.143
				c-0.914-1.106-2.046-2.826-3.351-5.078c-1.317-2.246-2.795-5.03-4.426-8.249c-0.809-1.613-1.642-3.338-2.517-5.165
				c-0.432-0.912-0.874-1.848-1.326-2.805c-0.448-0.958-0.872-2.021-1.324-3.064c-1.744-4.23-3.013-9.009-3.999-14.093
				c-0.953-5.092-1.563-10.514-1.746-16.114c-0.213-5.602-0.043-11.377,0.297-17.214c0.335-5.838,0.876-11.742,1.518-17.625
				c1.307-11.767,3.178-23.433,5.064-34.318c0.242-1.358,0.439-2.694,0.76-4.113c0.316-1.39,0.755-2.74,1.304-4.023
				c1.091-2.57,2.567-4.892,4.277-6.884c3.427-4.006,7.577-6.773,11.535-8.851c3.983-2.07,7.845-3.468,11.302-4.514
				c3.463-1.043,6.542-1.709,9.086-2.18c5.094-0.928,8.057-1.095,8.057-1.095L188.709,166.912z"/>
		</g>
		<path fill="#F2F2F2" d="M205.979,156.265c0,0,21.645-2.333,31.959-3.761l-0.75,3.761
			C237.188,156.265,212.303,165.417,205.979,156.265z"/>
		<path fill="#D3AAA0" d="M209.756,110.986c0,0,3.469,13.282,0,24.566c-3.469,11.283-1.213,8.813,7.814,7.039
			c9.027-1.773,6.768-5.434,0-8.544S216.979,117.266,209.756,110.986z"/>
		<path fill="#231F20" d="M225.752,96.814c-3.537-6.414,22.977-8.222,24.516-6.259S228.768,102.29,225.752,96.814z"/>
		<path fill="#231F20" d="M205.273,100.473c4.711,7.665-16.27,7.205-18.082,4.815C185.379,102.899,201.252,93.93,205.273,100.473z"
			/>
		<path fill="#FFFFFF" d="M216.16,189.095c0,0,18.049,25.994,60.881-5.5c0,0-11.605,28.62-21.998,36.551
			c0,0-32.232-2.155-40.506-1.974C214.537,218.172,210.24,207.283,216.16,189.095z"/>
		<path fill="#EDCEC8" d="M305.582,305.469c0,0,29.795,11.782,15.502,33.598C321.084,339.066,320.172,320.768,305.582,305.469z"/>
		<g>
			<path d="M-81.416,76.964c72.139-10.044,378.156-66.867,624.65,117.263l27.689,20.799L563.584,0H-96.289h-6.186L-81.416,76.964z"
				/>
		</g>
		<path fill="#E4BDB2" d="M18.733,406.36l25.067,2.605c0,0,18.055-13.138,47.393-28.183c29.338-15.044,63.941-43.63,63.941-43.63
			s1.505-45.887,15.796-52.657c14.292-6.771,20.312-8.275,23.32,0c3.01,8.274-12.119,3.491-6.059,18.671
			c6.059,15.18,1.545,21.197,19.6,27.216c18.055,6.018,40.508,19.302,40.508,19.302s-32.904,23.028-44.164,25.285
			c0,0-67.055,112.787-165.6,142.047C38.535,517.017,64.375,451.495,18.733,406.36z"/>
		<g>
			<g>
				<path fill="none" stroke="#F1E4E0" stroke-miterlimit="10" d="M-255.592,205.51"/>
			</g>
		</g>
		<g>
			<g>
				<path fill="none" stroke="#F1E4E0" stroke-miterlimit="10" d="M-260.857,208.519"/>
			</g>
		</g>
		<path fill="#D8ADA3" d="M245.035,352.458c0,0-27.133,3.527-52.875-2.128c-25.743-5.654,0.586,17.469-18.219,28.475
			c-18.807,11.006-33.852,78.708-112.086,113.312l-14.649,5.789l-8.671,19.111c0,0,40.061-9.859,57.924-24.9
			c17.863-15.042,48.533-39.529,62.327-53.926s28.263-24.309,45.349-63.221C204.135,374.97,234.809,366.129,245.035,352.458z"/>
		<polygon fill="#414042" points="4.742,65.222 14.185,375.847 22.739,375.847 13.741,65.222 41.624,66.866 46.811,375.847 
			56.589,375.847 56.589,65.222 		"/>
		<polygon fill="#414042" points="374.309,107.971 389.082,367.815 398.861,367.815 381.703,110.986 411.367,122.132 
			420.676,367.815 428.953,367.815 420.904,124.288 		"/>
		<path fill="#A12137" d="M297.84,234.472l9.248-22.828l2.736,30.353l15.141-12.414l-9.691,15.074l6.859,13.853l-6.859,7.418
			l4.602,32.707l0.752,13.698l-11.328-5.075C309.299,307.257,304.391,249.141,297.84,234.472z"/>
		<polygon fill="#A12137" points="178.848,222.911 165.474,197.235 182.441,211.644 187.049,193.475 188.191,211.528 
			196.504,211.528 190.943,219.698 		"/>
		<path fill="#A12137" d="M298.859,156.922l-11.555,44.949c0,0,16.938-21.398,19.488-35.208L298.859,156.922z"/>
		<path fill="#A12137" d="M349.082,314.354c0,0,15.176,37.958-8.52,51.817C340.563,366.171,385.063,336.688,349.082,314.354z"/>
		<path fill="#D3AAA0" d="M274.52,89.354c0,0-3.541,38.461-9.559,53.237c-6.018,14.776-9.639,22.278,4.779,24.072
			c14.422,1.793,10.947,0,10.947,0s4.252-6.161,4.043-26.159C284.52,120.507,295.363,80.016,274.52,89.354z"/>
		<path fill="#231F20" d="M245.594,76.964c0,0,41.898,1.077,35.094,40.534c-5.578,32.346,6.617,21.123,6.617,21.123
			s-1.016-27.894,5.246-44.443l12.072,6.404l-0.949-13.556C303.674,87.026,262.324,78.205,245.594,76.964z"/>
		<path fill="#D3AAA0" d="M190.943,87.961c0,0,22.088-10.997,82.578,1.393C273.521,89.354,240.127,50.548,190.943,87.961z"/>
		<path d="M-81.416,76.964c0,0,371.201-76.964,652.34,138.062C570.924,215.025,484.584-15.158-81.416,76.964z"/>
		<g>
			<g>
				<path fill="#FFFFFF" d="M207.672,253.167c3.744-0.072,75.637-4.184,75.637-4.184l6.477,39.871h-86.51L207.672,253.167z"/>
				<path fill="#EBCFC1" d="M207.672,253.167l18.898-1.325c6.297-0.455,12.592-0.898,18.891-1.294l18.896-1.249
					c6.299-0.43,12.6-0.82,18.9-1.19l0.785-0.045l0.129,0.779l6.6,39.852l0.191,1.162l-1.178-0.004l-43.254-0.124
					c-7.211-0.006-14.42-0.05-21.629-0.126l-21.627-0.188l-0.639-0.005l0.082-0.624c0.773-5.943,1.613-11.878,2.438-17.814
					C205.979,265.034,206.803,259.098,207.672,253.167z M207.672,253.167c-0.596,5.965-1.238,11.924-1.881,17.883
					s-1.268,11.92-1.959,17.873l-0.557-0.629l21.627-0.188c7.209-0.076,14.418-0.12,21.629-0.126l43.254-0.124l-0.984,1.158
					l-6.357-39.891l0.914,0.733c-6.303,0.35-12.607,0.678-18.914,0.959l-18.918,0.888c-6.309,0.305-12.619,0.562-18.928,0.807
					C220.289,252.778,213.98,252.983,207.672,253.167z"/>
			</g>
			<polygon fill="#BE202E" points="276.531,261.907 278.789,269.079 248.947,270.325 248.947,265.493 			"/>
			<path fill="#A6A8AC" d="M282.285,272.466l-0.199,3.506c0,0-33.852,0.171-36.549,0.256c-2.695,0.084-0.191-2.512-0.191-2.512
				L282.285,272.466z"/>
			<path fill="#A6A8AC" d="M283.055,277.995l-0.197,3.506c0,0-33.852,0.171-36.549,0.256c-2.697,0.084-0.191-2.513-0.191-2.513
				L283.055,277.995z"/>
			<g>
				<path fill="#FAA62C" d="M232.525,280.074c-4.615,4.615-12.125,4.615-16.74,0c-4.617-4.616-4.617-12.126,0-16.741
					c4.615-4.615,12.125-4.615,16.74,0S237.141,275.458,232.525,280.074z"/>
				<path fill="#03AA5C" d="M234.846,268.311c0,0,4.174,4.472,1.941,7.132c-2.234,2.661-3.045,1.439-4.873,3.584
					s-2.219,6.079-3.912,5.164c-1.691-0.916,1.102-3.073-1.68-2.58c-2.777,0.492-1.555,2.501-2.563,2.413
					c-2.439-0.21-4.732-5.048-4.732-5.048L234.846,268.311z"/>
				<circle fill="#24572B" cx="220.011" cy="279.746" r="4.101"/>
				<path fill="#03AA5C" d="M217.459,282.091l1.715,1.104l-1.715-1.962l2.76,1.362l-2.346-2.053c0,0,1.293,0.603,2.432,1.104
					c0.928,0.407,1.754,0.747,1.715,0.646c-0.09-0.227-3.916-3.497-3.916-3.497l3.66,2.2l-3.98-2.752l-0.324,0.644l2.436,2.161
					l-2.436-1.195v0.896l-0.568,0.147L217.459,282.091z"/>
				<path fill="#3CB766" d="M228.682,283.3c0,0,2.029-3.526,0.863-3.156c-1.168,0.371-1.701,0.16-2.793,0.931
					C226.752,281.074,228.033,284.29,228.682,283.3z"/>
				<path fill="#3CB766" d="M217.027,261.114c0,0-0.588-0.912,1.592-1.939c1.777-0.838,2.943,0.447,4.033,0.152
					s-1.67,1.477-5.393,1.787"/>
				<circle fill="#24572B" cx="216.611" cy="274.484" r="3.865"/>
				<path fill="#03AA5C" d="M213.689,275.939l1.262,1.448l-1.039-2.226l2.143,1.956l-1.588-2.473c0,0,1.012,0.883,1.914,1.636
					c0.732,0.61,1.395,1.135,1.383,1.033c-0.021-0.229-2.631-4.19-2.631-4.19l2.74,2.95l-2.887-3.533l-0.459,0.498l1.639,2.594
					l-1.893-1.72l-0.232,0.812l-0.555-0.015L213.689,275.939z"/>
				<polygon fill="#FDEB03" points="215.488,262.205 234.846,263.194 236.799,276.699 210.988,272.541 				"/>
				<circle fill="#EE3326" cx="230.184" cy="277.74" r="5.688"/>
				<circle fill="#F1594E" cx="230.185" cy="277.74" r="4.507"/>
				<path fill="#511911" d="M231.717,278.433c-4.17,4.17-10.953,4.17-15.123,0s-4.17-10.954,0-15.124s10.953-4.17,15.123,0
					S235.887,274.263,231.717,278.433z"/>
				<g>
					<path fill="#371410" d="M217.811,270.648c0,0,0.994-0.69,2.986-1.337c0.996-0.315,2.244-0.63,3.742-0.747
						c1.49-0.106,3.262-0.03,5.152,0.627c0.471,0.163,0.943,0.371,1.414,0.616c0.234,0.123,0.461,0.27,0.695,0.407l0.15,0.106
						c-0.02-0.018,0.141,0.105,0.25,0.217c0.061,0.063,0.102,0.1,0.17,0.188c0.072,0.093,0.139,0.193,0.195,0.297l0.082,0.161
						c0.039,0.096,0.072,0.197,0.098,0.302c0.047,0.223,0.074,0.403,0.045,0.657c-0.027,0.247-0.113,0.509-0.225,0.713
						c-0.082,0.144-0.184,0.282-0.301,0.405c-0.139,0.145-0.191,0.176-0.266,0.232c-0.074,0.054-0.152,0.104-0.23,0.148
						c-0.109,0.06-0.193,0.097-0.295,0.139l-0.211,0.073c-0.49,0.146-0.738,0.148-1.037,0.186c-0.281,0.024-0.539,0.044-0.799,0.045
						c-0.516,0.009-1.014-0.001-1.516-0.033c-2-0.115-4.035-0.507-6.148-0.79c-1.055-0.122-2.129-0.24-3.193-0.202
						c-0.529,0.021-1.066,0.057-1.543,0.177c-0.227,0.053-0.473,0.138-0.557,0.214c-0.049,0.038-0.008,0.028,0.01-0.059
						c0.002-0.009,0.002-0.019,0-0.028c-0.008-0.143,0-0.024-0.002-0.05l0.004,0.026l0.006,0.052c0.002-0.02,0-0.039-0.004-0.059
						c-0.031-0.085-0.027-0.059-0.025-0.07c0.016,0.02,0.238,0.123,0.463,0.163c0.232,0.045,0.49,0.068,0.752,0.083
						c0.527,0.031,1.078,0.023,1.631-0.022c1.109-0.069,2.234-0.242,3.367-0.396c1.133-0.151,2.275-0.341,3.445-0.426
						c1.184-0.099,2.33-0.147,3.732,0.052c0.359,0.066,0.742,0.143,1.234,0.358c0.248,0.117,0.527,0.256,0.859,0.57
						c0.32,0.292,0.676,0.844,0.754,1.45l0.023,0.22l0.004,0.11l-0.008,0.193l-0.002,0.052c-0.002,0.03,0.006-0.008-0.012,0.127
						c-0.025,0.188-0.082,0.408-0.141,0.56c-0.055,0.133-0.117,0.268-0.186,0.389c-0.293,0.49-0.643,0.758-0.924,0.943
						c-0.584,0.365-0.988,0.459-1.375,0.57c-1.477,0.327-2.582,0.311-3.725,0.339c-2.23-0.007-4.295-0.249-6.129-0.388
						c-0.451-0.034-0.891-0.048-1.252-0.059l-0.41,0.004c-0.037-0.002-0.039-0.001,0.039-0.046c0.053-0.052,0.297-0.12,0.58-0.616
						c0.07-0.124,0.115-0.269,0.143-0.402c0.016-0.066,0.025-0.135,0.029-0.203l0.002-0.102c-0.025-0.46-0.006-0.115-0.012-0.212
						c0.002,0.033,0.01,0.169,0.006,0.117c-0.006-0.109-0.049-0.237-0.09-0.315c-0.01-0.021-0.023-0.041-0.039-0.057
						c-0.029-0.028-0.016,0.034,0.059,0.111c0.133,0.158,0.381,0.373,0.658,0.547c1.145,0.714,2.559,1.138,3.789,1.34
						c1.252,0.223,2.391,0.214,3.338,0.151c0.943-0.081,1.701-0.222,2.213-0.348c0.516-0.118,0.791-0.201,0.791-0.201l0.188,0.354
						c0,0-0.227,0.186-0.684,0.508c-0.457,0.318-1.164,0.756-2.154,1.147c-0.986,0.4-2.264,0.745-3.789,0.853
						c-1.525,0.078-3.279-0.006-5.209-0.8c-0.484-0.21-0.99-0.449-1.521-0.883c-0.262-0.213-0.545-0.491-0.816-0.901
						c-0.07-0.115-0.137-0.234-0.197-0.356c-0.082-0.185-0.156-0.421-0.199-0.639l-0.041-0.222
						c-0.004-0.111,0.008,0.219-0.012-0.255l0.006-0.145c0.008-0.097,0.021-0.194,0.039-0.289c0.039-0.189,0.113-0.386,0.201-0.563
						c0.395-0.701,0.844-0.904,1.105-1.051c0.287-0.141,0.51-0.21,0.701-0.263c0.387-0.104,0.691-0.151,0.988-0.191
						c0.586-0.081,1.113-0.093,1.639-0.108c2.078-0.042,4.125,0.117,6.162,0.236c0.984,0.071,2.068,0.107,2.752,0.009
						c0.145-0.011,0.281-0.063,0.17,0.009c-0.049,0.041-0.178,0.129-0.328,0.379c-0.035,0.061-0.07,0.132-0.094,0.202
						c-0.033,0.087-0.076,0.239-0.082,0.361c-0.008,0.102,0,0.027,0,0.024l0.008-0.052c-0.002,0.065,0.01-0.185-0.004,0.141
						l0.002,0.059c0,0.039,0.006,0.078,0.012,0.116c0.043,0.33,0.252,0.629,0.375,0.729c0.135,0.115,0.17,0.111,0.168,0.106
						c-0.012-0.024-0.174-0.097-0.359-0.147c-0.801-0.233-1.926-0.322-3.004-0.455c-1.123-0.117-2.248-0.235-3.375-0.354
						c-1.15-0.122-2.303-0.244-3.451-0.365c-0.58-0.077-1.16-0.136-1.754-0.238c-0.297-0.053-0.598-0.117-0.91-0.213
						c-0.313-0.104-0.648-0.178-1.035-0.559c-0.094-0.111-0.174-0.203-0.248-0.421c-0.016-0.052-0.029-0.105-0.037-0.157
						l-0.006-0.053l-0.008-0.128l0.014-0.132c0.057-0.368,0.295-0.604,0.469-0.73c0.369-0.255,0.67-0.332,0.973-0.424
						c0.602-0.155,1.166-0.245,1.73-0.328c1.113-0.153,2.215-0.305,3.299-0.453c2.154-0.313,4.244-0.58,6.156-0.697
						c0.465-0.028,0.924-0.057,1.375-0.084l0.613-0.043c0.166-0.011,0.383-0.055,0.334-0.039l-0.047,0.02
						c-0.049,0.02-0.08,0.035-0.139,0.068c-0.055,0.029-0.107,0.063-0.158,0.101c-0.051,0.041-0.078,0.059-0.201,0.179
						c-0.098,0.101-0.182,0.219-0.246,0.34c-0.104,0.177-0.182,0.411-0.201,0.631c-0.016,0.227-0.01,0.379,0.037,0.573
						c0.021,0.091,0.053,0.179,0.09,0.261l0.057,0.125c0.043,0.079,0.094,0.155,0.15,0.225c0.053,0.064,0.07,0.084,0.111,0.125
						c0.068,0.072,0.189,0.153,0.123,0.104l-0.033-0.025l-0.016-0.014c0.029,0.021-0.094-0.066,0.064,0.045
						c-0.154-0.096-0.297-0.203-0.451-0.293c-0.309-0.185-0.617-0.364-0.943-0.506c-1.293-0.602-2.684-0.912-3.955-1.092
						c-1.277-0.183-2.445-0.245-3.418-0.269c-1.947-0.036-3.119,0.018-3.119,0.018L217.811,270.648z"/>
				</g>
				<path fill="#FAA62C" d="M224.115,274.964c-6.084,0-11.033-4.18-11.033-9.319c0-5.139,4.949-9.32,11.033-9.32
					c6.082,0,11.033,4.182,11.033,9.32C235.148,270.784,230.197,274.964,224.115,274.964z"/>
			</g>
		</g>
		<polygon fill="#E7E7E7" points="240.127,252.339 283.016,258.887 283.309,248.983 		"/>
	</g>
</g>
</svg>
