<?xml version="1.0" encoding="utf-8"?>
<!-- Generator: Adobe Illustrator 16.0.0, SVG Export Plug-In . SVG Version: 6.00 Build 0)  -->
<!DOCTYPE svg PUBLIC "-//W3C//DTD SVG 1.1//EN" "http://www.w3.org/Graphics/SVG/1.1/DTD/svg11.dtd">
<svg version="1.1" id="Layer_1" xmlns="http://www.w3.org/2000/svg" xmlns:xlink="http://www.w3.org/1999/xlink" x="0px" y="0px"
	 width="366.387px" height="366.387px" viewBox="0 0 366.387 366.387" enable-background="new 0 0 366.387 366.387"
	 xml:space="preserve">
<g>
	<g>
		<defs>
			<circle id="SVGID_1_" cx="183.193" cy="183.193" r="183.193"/>
		</defs>
		<clipPath id="SVGID_2_">
			<use xlink:href="#SVGID_1_"  overflow="visible"/>
		</clipPath>
		<polygon clip-path="url(#SVGID_2_)" fill="#28A8E0" points="-27.514,462.459 -27.514,-47.201 378.66,-47.201 378.66,462.459 
			216.472,462.459 		"/>
		<circle clip-path="url(#SVGID_2_)" fill="#FFDD51" cx="58.537" cy="115.952" r="29.3"/>
		<path clip-path="url(#SVGID_2_)" fill="#FFFFFF" d="M258.289,91.928c-37.884,0-48.353-4.473-65.922-4.792
			c-17.57-0.319-12.778,0.639-36.736,2.395c-23.956,1.757-25.554-0.159-39.609,4.632c-14.056,4.791-74.429,8.944-54.623,13.417
			c19.804,4.472,7.348,6.708,0.32,7.985c-7.028,1.277-25.875,3.512-26.194,5.43c-0.32,1.917,0.559,8.306,13.856,8.306
			c13.295,0,34.378,0.639,49.391,0c15.015-0.639,41.208,0.888,59.097,0.284c17.887-0.603,62.954,3.869,57.831-1.881
			c-5.125-5.75,34.831,1.597,43.442-1.277c8.61-2.876,38.024-19.237,24.276-24.472C269.67,96.719,280.771,91.928,258.289,91.928z"/>
		<path clip-path="url(#SVGID_2_)" fill="#FFFFFF" d="M227.878,31.296c20.706-3.907,31.363,2.387,29.718-8.07
			c-1.645-10.462,1.211-14.569-7.131-12.136c-8.343,2.43-5.287-0.732-19.337,2.413c-14.049,3.143-7.427,1.475-19.179,2.395
			c-11.751,0.917-20.647,1.544-24.768,5.936C183.062,26.225,205.113,35.593,227.878,31.296z"/>
		<path clip-path="url(#SVGID_2_)" fill="#FFCA61" d="M417.63,126.398c-163.637-9.202-120.045,4.644-211.914,19.022
			c-84.575,13.237-173.563,14.54-200.039,0.938C-20.797,132.757-17.687,140.171-29,143c-8,2-21.059,15.052-24,19
			c-2.941,3.947,16,15.749,16,15.749L36,374l299-7.613L417.63,126.398z"/>
		<path clip-path="url(#SVGID_2_)" fill="#754D29" d="M201.598,124.812c-22.063-9.894-36.771-13.586-68.395-8.682
			c-31.624,4.903-61.041,51.597-66.926,55.768c-5.883,4.17-12.502,0.956-19.12,1.254c-6.62,0.296-17.651,11.993-30.153,0.903
			c-12.502-11.09-9.561-12.763-20.958-12.8c-11.401-0.038-18.755,17.503-19.491,21.836c-0.735,4.334-29.417,14.97-29.417,4.41
			c0-10.561-14.708-17.852-26.476-20.322c-11.766-2.468-3.676,7.216-30.888-5.924c-27.212-13.142-11.032-25.799-32.358-15.976
			c-21.327,9.824-6.62,1.042-27.946,21.594c-21.329,20.552-21.329,24.045-25.741,30.16c-4.413,6.116-5.149,5.137-16.181,20.916
			c-11.031,15.775-19.12,20.145-21.327,22.764c-2.208,2.621-1.471-4.367-2.208,2.621c-0.735,6.988,2.942,42.637-5.882,49.709
			c-8.825,7.073-16.179,8.82-16.915,22.797c-0.736,13.979-6.619,34.943-6.619,34.943l2.941,70.759h470.68L201.598,124.812z"/>
		<g clip-path="url(#SVGID_2_)">
			<path fill="#2FAF6C" d="M88.212,11.635l-0.418,0.286C87.419,11.833,88.212,11.635,88.212,11.635z"/>
			<path fill="#2FAF6C" d="M87.715,163.605v0.188C87.017,163.74,87.715,163.605,87.715,163.605z"/>
			<path fill="#387853" d="M-5.923,223.994c9.56,0.182,16.914-0.904,19.121-3.671c2.206-2.766-1.472,0.177,2.206-2.766
				s6.62-3.937,9.561-4.91c2.942-0.974,16.544,0,16.544,0l7.755-14.941v-15.142c0,0,2.177-1.088,4.384-2.904
				c2.206-1.818,23.811,0,23.811,0l10.258,2.904v-18.771c0.607,0.046,2.271,0.031,6.379-0.188c8.825-0.47,18.576,2.712,18.576,2.712
				l0,0l5.737-3.735c-2.943-6.203-6.952-16.098-2.954-16.802c3.518-0.621,15.035-0.171,23.661,0.285
				c-0.768-10.757-1.872-19.86-3.437-21.042c-4.075-3.072-13.574-1.777-20.224-5.367c-6.651-3.59-23.564-10.208-23.564-10.208
				s-3.678-2.943-4.414-6.62c-0.736-3.677-3.89-16.915-3.89-16.915s8.613,0,0-3.676c-8.612-3.678-21.115-9.561-21.115-9.561
				s0-2.943,0-5.884s0-9.561,0-9.561l5.421-7.354L61,39.582c0,0,8.638-5.149,6.892-8.825c-1.743-3.677,9.565-11.769,9.565-11.769
				l10.337-7.067c0.346,0.081,1.683,0.067,5.565-0.286c8.09-0.736,27.553,0,27.553,0l5.206-0.328h13.851
				c0,0,1.993,1.064,9.315,6.946c7.322,5.883,0.429,9.56,13.804,11.031c13.375,1.472,20.104,1.472,20.104,1.472s5.436,0,6.706,2.205
				c1.273,2.207,8.211,6.62,8.211,6.62s2.971,5.884,3.533,8.089c0.56,2.207,0,6.619,0,6.619s-0.063,0,0.249,4.414
				c0.311,4.412,1.843,6.619,3.284,10.296c1.441,3.677-2.334,7.353-7.066,12.503c-4.731,5.147-7.687,8.088-7.687,8.088v2.942
				c0,0-3.149,4.737,5.166,9.562c8.318,4.822,8.318,4.822,8.318,4.822l11.564-15.119l4.204-6.62c0,0-6.319-11.766-5.645-18.385
				c0.675-6.619-0.674-5.884,0-14.709c0.675-8.825-1.409-6.618,0-12.501c1.409-5.884,4.567-6.62,13.652-13.973
				c9.085-7.354,27.589-15.214,29.602-14.301c2.016,0.915,11.108-0.073,11.108-0.073s38.241-2.605,47.802,0
				c9.562,2.606,17.651-0.603,23.534,7.252l25.74-16.758h32.139v246.589H338H-13.278C-13.278,248.318-15.486,223.813-5.923,223.994z
				"/>
		</g>
		<polygon clip-path="url(#SVGID_2_)" fill="#3B2416" points="-49.951,366.387 -74.552,241.769 414.635,226.984 417.865,366.387 
			221.238,366.387 		"/>
		<path clip-path="url(#SVGID_2_)" fill="#128848" d="M480.85,224.639c-1.679,1.375-3.803,3.053-5.592,4.257h16.491l-14.758,4.647
			c4.388,2.258,9.927,4.969,9.296,5.196c-0.732,0.263-16.846,2.407-27.386,3.792l-0.487,1.473l11.854,0.407l-12.371,1.159
			l-0.371,1.117l-6.529,0.152c-1.336,0.685-2.7,1.336-4.096,1.949l12.082,4.528h-25.59c-6.369,1.528-13.114,2.354-20.1,2.354
			c-5.313,0-10.488-0.478-15.467-1.38l-13.839,1.38l-10.923-8.501l-20.75,1.348l10.445-5.578c-1.689-0.461-3.482-0.998-5.275-1.563
			l-9.176,0.778l1.344-3.405c-1.945-0.685-3.627-1.296-4.832-1.743l-1.973,1.733l0.826-2.159c-0.527-0.2-0.826-0.313-0.826-0.313
			s0.381-0.067,1.015-0.184l3.487-9.109c-3.746-1.305-6.795-2.346-6.795-2.346l7.459-4.45c-0.528-1.051-1.024-2.113-1.476-3.194
			l-5.983,1.281l5.213-3.261c-0.35-0.951-0.671-1.91-0.961-2.882l-10.447-0.944l5.984-3.904l-11.725-11.846l11.936-7.928v-6.73
			l2.555,5.145l1.648-0.401l1.074-4.112l-2.984-6.841c0,0,1.823,0.426,4.506,1.021l1.928-7.375l-1.412-5.076l-0.653-2.35
			l3.796-4.546c-0.783-0.937-1.247-1.492-1.247-1.492l2.499-0.006l3.584-4.292l10.218,3.225l-1.01-11.829l7.696,1.784l1.041-7.65
			l13.47,5.866l7.042-9.495l3.881-9.757l7.281,5.417l2.527,9.556l0.306,0.48l6.392-10.036l5.209,8.198l10.322-4.017l0.506,1.105
			l7.503-3.222v7.954l8.01,0.217l-5.142,8.207c0.07,0.026,0.14,0.052,0.209,0.076l3.959-0.498l6.798-4.503v-7.122l2.489,5.472
			l5.885-3.899l-1.069,8.282l19.272-2.416l-13.396,10.101l10.848-1.497l-8.545,12.006c0.536,0.523,1.061,1.056,1.574,1.596
			l8.02,1.679l6.598-2.189l-1.213,3.315l4.853,1.016l-6.761,4.202l-1.973,5.396l16.379,7.806l-8.266,1.583l16.639,5.03
			l-17.698,4.922l-1.972,2.667c-0.037,2.439-0.264,4.842-0.671,7.202l0.605,0.327l7.722-5.275l-0.66,9.093l1.388,0.752l-1.628,2.537
			l0,0l0,0l-6.744,10.519C483.74,224.628,482.543,224.621,480.85,224.639z M349.811,170.112l-0.807,5.342
			c0.494-0.889,1.014-1.764,1.563-2.628L349.811,170.112z M351.261,234.673l0.728-1.843l-3.457,0.914l-2.127,1.87
			C347.819,235.348,349.521,235.021,351.261,234.673z"/>
		<g clip-path="url(#SVGID_2_)">
			<g>
				<path fill="#3E3330" d="M239.295,134.828c-11.362-9.895-45.287,15.586-52.597,30.649c-7.308,15.061-3.792,11.582-7.367,13.874
					c-3.572,2.293-16.413,19.66-19.008,27.164c-2.597,7.503-4.163,14.384,1.034,13.413c5.196-0.973,27.153-24.474,28.863-29.875
					c1.709-5.402,40.536-20.867,45.087-33.264C239.859,144.393,243.449,138.444,239.295,134.828z"/>
				<path fill="#3E3330" d="M228.854,155.886c-0.909,28.84,5.739,37.185,31.705,37.185c25.965,0,55.347-22.42,47.016-47.014
					c-8.59-25.35-18.514-35.831-42.045-35.828C232.17,110.23,229.688,129.327,228.854,155.886z"/>
				<path fill="#3E3330" d="M210.125,128.811c5.791,13.91,16.277,23.244,30.188,17.449c13.91-5.792,23.453-14.649,17.66-28.559
					c-5.793-13.912-15.613-39.236-38.64-21.814C198.332,111.778,204.331,114.901,210.125,128.811z"/>
				<path fill="#3E3330" d="M247.477,120.237c0,0,41.51-10.72,56.162,18.026c14.654,28.744,23.91,26.307,32.68,40.922
					c8.77,14.618,8.945,25.426,2.923,40.924c-6.366,16.387-16.619,25.74-7.216,26.109c17.448,0.689,24.268,12.383,36.052,19.489
					c3.058,1.844,1.985,7.399-7.308,11.206c-11.207,4.587-7.806,10.951-17.695,11.086c-4.235,0.057-19.676-1.445-19.332-3.291
					c0.723-3.874,15.592-3.208,22.41-13.641c4.918-7.518-13.641-5.848-28.743-7.309c-15.104-1.461-10.321-20.264-5.938-50.956"/>
				<path fill="#3E3330" d="M300.232,170.227c-1.342,0-16.535,20.109-26.59,40.219c-10.055,20.111-7.374,33.517-3.352,43.797
					c4.023,10.277,0.447,14.746-3.127,15.639c-3.576,0.895-5.855,5.676-13.182,8.689c-6.463,2.661-7.355,7.516,2.922,7.516
					c10.278,0,11.557-6.822,17.592-4.587c6.031,2.233,8.146,6.396,12.615,3.716c3.85-2.311,0.391-13.58-0.975-26.129
					c-2.234-20.556,41.803-37.021,37.779-62.939C319.895,170.227,300.232,170.227,300.232,170.227z"/>
				<path fill="#3E3330" d="M268.109,136.802c12.975,7.207,3.411,44.334-4.384,59.924c-7.794,15.591-9.743,27.284-17.54,29.478
					c-7.795,2.191-20.948,36.781-27.28,41.653c0,0-0.393,1.016,1.202,5.542c2.436,6.906-2.924,5.804-2.924,5.804
					s-0.476,5.69-8.51,4.732c-10.644-1.269-11.675-1.945-11.694-7.796c-0.017-6.333,1.398-10.289,8.706-14.675
					c7.309-4.385,0.063-14.556,7.86-25.763c7.795-11.204,12.279-12.667,13.448-20.948c1.168-8.284-6.14-41.413,6.039-68.696
					C245.213,118.774,259.34,131.927,268.109,136.802z"/>
				<path fill="#3E3330" d="M268.926,183.678c6.979,1.842,19.719,6.229,17.735,14.997c-1.985,8.77,24.323-22.304,10.682-28.448
					C283.701,164.084,268.926,183.678,268.926,183.678z"/>
				<path fill="#29201D" d="M265.529,192.805c0,0,15.35-30.443,8.967-47.365c0,0-4.682,34.964-13.938,47.631
					c-9.257,12.667-21.191,26.947-21.191,26.947s-16.565,31.275-18.514,39.557c-1.948,8.282-1.948,8.282-1.948,8.282
					s13.64-22.655,20.462-32.155C246.186,226.203,255.244,225.921,265.529,192.805z"/>
				<path fill="#29201D" d="M295.879,196.042c0,0,7.76,5.247,7.76,55.25c0,0,0,13.199,22.498,13.041c0,0-17.122-5.65-17.122-23.272
					C309.015,214.748,324.177,221.086,295.879,196.042z"/>
				<path fill="#29201D" d="M268.926,183.083l0.248,0.1l25.168,9.888c0,0-8.008-1.749-28.813-0.266"/>
				<path fill="#29201D" d="M239.367,135.426c0,0-14.29,35.964-13.333,57.645C226.035,193.071,219.385,162.571,239.367,135.426z"/>
				<path fill="#8E6860" d="M288.117,284.157c-3.441-5.582-2.285-4.813-8.184-5.929c-5.895-1.113-23.516,4.082-24.002,0.974
					c-0.49-3.108-14.469,1.962-8.559,4.955c5.91,2.997,8.559,3.592,14.891,1.929c6.336-1.665,14.129-1.746,19.976,0
					S288.117,284.157,288.117,284.157z"/>
				<path fill="#8E6860" d="M369.61,267.856c-0.25-2.628-12.349,0.719-18.677,5.542c-4.283,3.266-7.588,0.623-11.499,3.926
					c-3.915,3.303-8.864,1.468-13.298,1.878c-4.436,0.408-6.871,8.807,7.744,8.8c11.551-0.007,6.047-0.193,11.551-0.007
					c3.664,0.125,12.115-7.221,17.195-11.37C367.707,272.478,370.26,274.678,369.61,267.856z"/>
				<path fill="#8E6860" d="M224.973,152.757c-12.665,7.038-10.375-3.891-11.077-9.837c-0.829-7.043-1.867-9.536-4.956-16.95
					c-3.21-7.709-7.502-12.309,4.547-15.741c12.05-3.436,11.555,11.096,8.593,16.087c-2.962,4.991,7.95,9.839,6.693,19.124
					C228.044,150.827,224.973,152.757,224.973,152.757z"/>
				<path fill="#8E6860" d="M210.984,129.354c1.341,5.424,0.136,13.13,0.136,13.13s4.808,3.811,7.47,0.063
					C221.251,138.799,210.984,129.354,210.984,129.354z"/>
				<path fill="#8E6860" d="M236.992,110.954c-8.426-2.065,13.217-9.37,13.131,0.839c-0.086,10.207-5.535,14.807-9.796,13.356
					C236.068,123.7,246.211,113.213,236.992,110.954z"/>
				<path fill="#FFFFFF" d="M219.031,126.787c-6.757-5.069-8.405,5.549-4.023,6.807
					C219.391,134.853,222.567,129.438,219.031,126.787z"/>
				<circle fill="#352622" cx="215.743" cy="131.424" r="2.256"/>
				<path fill="#8E6860" d="M219.658,127.078c4.766-0.971-14.859-9.182-14.916-3.922C204.688,128.418,208.5,129.354,219.658,127.078
					z"/>
				<path fill="#78524B" d="M214.113,146.776c0,0,7.279,0.194,11.391-1.427C229.617,143.728,212.946,154.998,214.113,146.776z"/>
				<path fill="#78524B" d="M326.656,286.998c0,0,2.355-4.85,13.725-5.826c11.366-0.973-11.85-0.676-14.244,1.429
					c-2.395,2.108,3.432-3.398,3.432-3.398s-7.918-2.13-6.835,3.331C323.816,287.995,326.656,286.998,326.656,286.998z"/>
				<path fill="#78524B" d="M255.283,282.533c0,0-6.11-1.776-6.14,2.49l-3.22-2.49C245.924,282.533,251.833,278.24,255.283,282.533z
					"/>
				<path fill="#8E6860" d="M205.685,261.464c3.301-2.899-7.845,2.543-8.234,9.637c-0.393,7.089-2.987,10.827,4.117,11.831
					c7.105,1.003,11.287,1.944,13.439,1.226c2.154-0.716,4.402-1.743,5.542-6.09c1.139-4.343,4.524-8.263-1.645-9.886
					c-6.171-1.625-7.096,2.6-10.717-0.325C204.568,264.932,203.676,263.229,205.685,261.464z"/>
				<path fill="#78524B" d="M218.905,268.902c0,0-6.937,3.176-5.418,6.098c1.52,2.926,0.773,1.604,3.695,0
					c2.924-1.602-2.499,8.561-4.61,3.792c-2.11-4.765-0.849-7.429,3.167-10.985C215.739,267.807,221.225,267.611,218.905,268.902z"
					/>
			</g>
			<g>
				<path fill="#36A365" d="M68.831,264.343c1.496,1.136,3.392,2.522,4.988,3.514H59.106l13.167,3.833
					c-3.915,1.864-8.856,4.1-8.296,4.287c0.655,0.217,15.029,1.986,24.435,3.129l0.435,1.213l-10.576,0.336l11.038,0.957
					l0.328,0.922l5.826,0.125c1.193,0.564,2.41,1.103,3.655,1.609l-10.779,3.734h22.831c5.685,1.26,11.7,1.941,17.93,1.941
					c4.742,0,9.36-0.395,13.8-1.139l12.347,1.139l9.746-7.012l18.513,1.111l-9.322-4.601c1.508-0.382,3.108-0.823,4.707-1.292
					l8.187,0.642l-1.2-2.806c1.737-0.566,3.237-1.071,4.313-1.439l1.76,1.43l-0.739-1.781c0.472-0.166,0.739-0.258,0.739-0.258
					s-0.339-0.057-0.906-0.152l-3.108-7.514c3.339-1.076,6.058-1.936,6.058-1.936l-6.653-3.671c0.472-0.868,0.915-1.743,1.317-2.636
					l5.336,1.057l-4.648-2.689c0.313-0.785,0.6-1.576,0.855-2.378l9.322-0.778l-5.338-3.219l10.459-9.773l-10.65-6.539v-5.553
					l-2.278,4.244l-1.47-0.331l-0.958-3.393l2.663-5.643c0,0-1.625,0.351-4.021,0.843l-1.718-6.084l1.258-4.187l0.58-1.938
					l-3.383-3.752c0.696-0.772,1.112-1.23,1.112-1.23l-2.23-0.004l-3.196-3.54l-9.116,2.658l0.9-9.757l-6.865,1.473l-0.93-6.311
					l-12.017,4.838l-6.282-7.833l-3.46-8.05l-6.496,4.47l-2.256,7.881l-0.275,0.396l-5.701-8.278l-4.646,6.764l-9.211-3.314
					l-0.45,0.912l-6.694-2.658v6.561l-7.146,0.178l4.587,6.771c-0.062,0.021-0.125,0.042-0.186,0.063l-3.532-0.408l-6.066-3.716
					v-5.875l-2.217,4.514l-5.25-3.214l0.952,6.83l-17.193-1.992l11.952,8.332l-9.678-1.233l7.625,9.904
					c-0.478,0.433-0.947,0.871-1.403,1.316l-7.157,1.383l-5.887-1.807l1.083,2.736l-4.33,0.84l6.031,3.467l1.76,4.45l-14.612,6.438
					l7.374,1.309l-14.844,4.148l15.791,4.06l1.759,2.2c0.034,2.012,0.235,3.996,0.598,5.939l-0.539,0.271l-6.891-4.351l0.592,7.5
					l-1.24,0.62l1.452,2.095l0,0h0.002l6.016,8.676C66.25,264.336,67.319,264.33,68.831,264.343z M185.735,219.367l0.722,4.406
					c-0.442-0.733-0.906-1.457-1.395-2.168L185.735,219.367z M184.441,272.621l-0.648-1.521l3.083,0.755l1.898,1.543
					C187.512,273.178,185.994,272.908,184.441,272.621z"/>
				<circle fill="#13609A" cx="134.565" cy="208.491" r="1.844"/>
				<circle fill="#13609A" cx="147.09" cy="231.533" r="3.448"/>
				<circle fill="#13609A" cx="122.118" cy="222.617" r="2.599"/>
				<circle fill="#13609A" cx="171.975" cy="222.13" r="2.11"/>
				<circle fill="#13609A" cx="153.136" cy="206.686" r="2.598"/>
				<circle fill="#13609A" cx="92.633" cy="210.328" r="1.553"/>
				<circle fill="#13609A" cx="83.467" cy="238.95" r="2.598"/>
				<path fill="#13609A" d="M168.89,242.848c0,1.437,1.162,2.6,2.599,2.6c1.435,0,2.596-1.163,2.596-2.6
					c0-1.434-1.162-2.597-2.596-2.597C170.051,240.251,168.89,241.414,168.89,242.848z"/>
				<circle fill="#13609A" cx="119.519" cy="201.489" r="2.599"/>
				<circle fill="#13609A" cx="157.917" cy="233.282" r="2.598"/>
				<circle fill="#13609A" cx="178.633" cy="233.282" r="2.599"/>
				<circle fill="#13609A" cx="147.939" cy="230.684" r="2.599"/>
			</g>
		</g>
		<path clip-path="url(#SVGID_2_)" fill="#2B1910" d="M-84.617,273.45l-5.883-11.739l5.883-15.614h15.445l0.551,1.394
			c9.315,2.658,28.694,8.412,30.985,10.9c3.03,3.293,19.945-4.668,24.358,7.033c4.412,11.703-6.618,4.35,4.412,11.703
			c11.032,7.354,13.972,14.62,16.179,13.93c2.207-0.691,4.412,5.192,4.412,5.192s-9.559,55.017-6.62,58.764
			c2.943,3.749,19.858,55.964,19.858,63.318c0,7.355,0,45.597,0,45.597h-49.274l-0.033-0.15l-19.824,0.15
			c0,0-2.207-2.941-6.619-7.354l3.678-25.739c0,0-8.827-15.443-15.444-25.74c-6.62-10.297-2.207-7.354-2.207-11.033
			c0-3.676,4.412-25.738,4.412-27.945s-2.206-32.359-2.942-37.507c-0.736-5.149-1.47-4.413-4.412-7.354
			c-2.941-2.942-3.678-1.471-5.885-3.678c-2.205-2.205,0.736-11.031,0-13.973c-0.732-2.942,0-3.679,0-3.679
			s-3.676-4.411-5.882-8.868c-2.206-4.457-5.149-4.369-11.032-12.458C-96.383,270.508-84.617,273.45-84.617,273.45z"/>
		<path clip-path="url(#SVGID_2_)" fill="#101E11" d="M303.523,462.459c0,0,24.921-52.068,17.686-61.016
			c-7.234-8.951-12.059-20.34-12.861-22.78c-0.805-2.44,32.157-78.274,32.961-84.696c0.803-6.42,34.686-43.313,24.176-68.391
			c-10.51-25.079-33.02-89.764-53.117-118.437c-20.099-28.674-49.869-63.601-52.281-74.178
			c-2.411-10.575-112.763-80.162-112.763-80.162h231.835l2.619,509.66H303.523z"/>
		<path clip-path="url(#SVGID_2_)" fill="#128848" d="M325.528,354.276c0,0-34.624,8.897-43.25-9.488
			c-8.627-18.386-22.192-27.946-22.192-27.946s39.904,4.412,51.874,12.502C323.931,337.434,325.528,354.276,325.528,354.276z"/>
		<path clip-path="url(#SVGID_2_)" fill="#128848" d="M317.33,336.018c0,0-31.919-15.232-24.635-34.104
			c7.283-18.873,4.426-34.389,4.426-34.389s25.938,28.286,28.717,41.725C328.618,322.689,317.33,336.018,317.33,336.018z"/>
		<path clip-path="url(#SVGID_2_)" fill="#101E11" d="M332.789,448.414c0,0-34.623,8.895-43.248-9.49
			c-8.627-18.387-22.193-27.947-22.193-27.947s39.902,4.414,51.875,12.502C331.193,431.57,332.789,448.414,332.789,448.414z"/>
		<path clip-path="url(#SVGID_2_)" fill="#101E11" d="M293.727,58.962c0,0,6.374,24.806-6.799,30.985
			c-13.172,6.181-20.02,15.899-20.02,15.899s3.159-28.587,8.955-37.164C281.66,60.106,293.727,58.962,293.727,58.962z"/>
		<path clip-path="url(#SVGID_2_)" fill="#101E11" d="M268.691,24.726c0,0,16.082,19.931,6.658,31.014
			c-9.426,11.085-11.629,22.77-11.629,22.77s-8.975-27.326-7.256-37.533C258.183,30.769,268.691,24.726,268.691,24.726z"/>
		<path clip-path="url(#SVGID_2_)" fill="#2C6743" d="M-65.683,196.832c13.757,0,52.41,2.143,52.41,2.143s25.294-4.202,22.919,1.071
			c-2.375,5.273-13.363-17.937,2.179,2.283c15.542,20.219,18.399,19.147,27.15,33.078c8.751,13.93,18.395,35.36,21.609,41.79
			c3.215,6.429-4.286-5.358,3.215,6.429c7.5,11.786,7.5-8.572,13.93,16.073c6.429,24.645-10.715,18.215,11.787,32.146
			c22.502,13.93,36.432,13.93,36.432,13.93c1.071,12.858,8.572,19.288-4.286,27.86s-16.073,13.93-35.36,15.001
			s-113.95-58.935-125.017-83.579C-49.782,280.411-65.683,196.832-65.683,196.832z"/>
	</g>
</g>
</svg>
