<?xml version="1.0" encoding="utf-8"?>
<!-- Generator: Adobe Illustrator 16.0.0, SVG Export Plug-In . SVG Version: 6.00 Build 0)  -->
<!DOCTYPE svg PUBLIC "-//W3C//DTD SVG 1.1//EN" "http://www.w3.org/Graphics/SVG/1.1/DTD/svg11.dtd">
<svg version="1.1" id="Layer_1" xmlns="http://www.w3.org/2000/svg" xmlns:xlink="http://www.w3.org/1999/xlink" x="0px" y="0px"
	 width="156.168px" height="51.588px" viewBox="0 0 156.168 51.588" enable-background="new 0 0 156.168 51.588"
	 xml:space="preserve">
<path fill="#595A5C" d="M132.654,48.8c0,0.962-0.78,1.742-1.745,1.742H25.633c-0.963,0-1.745-0.78-1.745-1.742V2.679
	c0-0.961,0.781-1.74,1.745-1.74h105.276c0.965,0,1.745,0.779,1.745,1.74V48.8z"/>
<g>
	<path fill="#E7D1C1" d="M92.826,42.845c0,0-0.371,4.408,3.104,2.704l0.897-0.919c0,0-0.324-0.618-0.577-2.437
		c-0.252-1.818,1.344-2.323,0.957-3.909c-0.387-1.586-0.633-1.502-1.021-3.076c-0.387-1.573,0.127-1.005,1.542-4.073
		c1.416-3.068-0.127-7.486-0.127-7.486s2.372-2.022,1.223-3.652c0,0-0.405-0.587-0.472,1.174s-1.563,1.95-1.563,1.95
		s-3.906-3.167-7.243-3.761c-3.337-0.594-11.048-0.572-16.014,1.896c-4.966,2.468-5.411,1.857-8.417,3.773
		c-3.005,1.916-3.248,5.977-4.386,6.876c-1.138,0.897-2.662,0.185-3.793,0.969c-1.13,0.786-3.386,4.256-3.076,5.114
		c0.31,0.861,1.193,0.191,2.112-1.075c0.919-1.267,1.661-1.583,1.661-1.583s0.845,1.974,0.569,2.559
		c-0.276,0.583-0.212,1.549,0.239,2.057c0.451,0.508-0.552,5.39,0.143,5.656c1.776,0.675,3.656,1.297,5.678-0.264
		c2.021-1.562,2.639-1.827,3.68-3.117c1.04-1.288,1.662-1.611,2.312-2.415c0.65-0.802,1.392-1.118,2.119-1.194
		c0.728-0.078,0.728-0.078,0.728-0.078s-1.742,7.959-0.053,7.929c1.688-0.031,2.358-0.146,3.096-2.423
		c0.737-2.275,1.002-4.664,1.397-5.24c0.396-0.578,0.841-1.993,1.199-2.934c0.358-0.938,2.272-0.728,4.722-1.411
		c2.45-0.686,3.221-1.484,3.221-1.484s1.665,2.386,2.83,3.056c0,0,0.676,2.805,1.495,3.214"/>
	<path fill="#DBBCA5" d="M62.085,39.439c1.24-0.198,1.695-0.14,2.684-0.561c0.989-0.424-0.079,1.315-0.086,1.437
		C64.676,40.435,60.394,39.708,62.085,39.439z"/>
	<path fill="#DBBCA5" d="M65.403,35.431c-0.446-1.803,1.959,0.356,2.262,1.336c0.303,0.979,0.728,1.923-0.131,2.194
		C66.674,39.231,65.553,36.04,65.403,35.431z"/>
	<path fill="#DBBCA5" d="M58.297,34.3c-0.975,0.17-2.326,2.611-2.326,2.611l2.244-1.241L58.297,34.3z"/>
	<polygon fill="#DBBCA5" points="72.373,38.61 73.048,37.81 74.059,36.614 73.996,37.658 74.697,38.027 73.101,38.532 	"/>
	<path fill="#DBBCA5" d="M77.558,28.464c0,0,2.016,5.18,1.183,7.399l0.944-0.662C79.685,35.202,79.949,30.769,77.558,28.464z"/>
	<path fill="#DBBCA5" d="M85.215,33.355c0,0,1.574-3.06,3.146-4.249c0.384-0.288-1.677,3.862-1.677,3.862
		S86.409,33.535,85.215,33.355z"/>
	<path fill="#DBBCA5" d="M86.684,32.968c0,0-0.219,3.662-0.684,5.405c-0.466,1.74-0.94,1.477-1.146,2.893
		c-0.205,1.415-0.181,1.775,1.936,1.903c2.16,0.128,1.183-1.526,1.989-2.923c0.806-1.393,1.206-2.685,1.206-2.685l-0.47-1.538
		C89.513,36.024,87.538,32.552,86.684,32.968z"/>
	<path fill="#D1A890" d="M63.759,33.959c0,0,3.783,0.396,4.437,1.759c0.655,1.36-0.157,2.634-0.157,2.634
		S66.282,34.418,63.759,33.959z"/>
	<path fill="#DBBCA5" d="M80.833,34.976l5.244-2.891c0,0,0.302-1.451,1.3-0.546s2.606,6.022,2.606,6.022s-3.102-4.544-4.112-3.882
		C84.862,34.337,82.728,35.273,80.833,34.976z"/>
	<path fill="#D1A890" d="M68.694,32.863c0,0-0.15,4.879-0.655,5.489C68.039,38.352,69.753,36.531,68.694,32.863z"/>
	<polygon fill="#D1A890" points="62.085,39.439 64.769,38.878 62.761,40.026 61.703,39.385 	"/>
</g>
<path opacity="0.5" fill="#FFFFFF" d="M23.889,22.405c0,0,3.781-5.366,16.722,0c12.94,5.366,15.121,8.122,26.172,7.252
	c11.051-0.87,16.345-7.542,12.244-17.26C74.924,2.679,38.284,4.129,23.889,22.405z"/>
<path opacity="0.5" fill="#FFFFFF" d="M66.056,22.549c6.859,4.318,14.394,7.542,29.225,3.191c14.836-4.351,17.89-0.871,26.325,0
	c8.431,0.87,11.049-2.031,11.049-2.031V0.939H23.889v21.466C23.889,22.405,41.628,7.176,66.056,22.549z"/>
<g opacity="0.5">
	<path fill="#FFFFFF" d="M79.667,7.258c0,0-0.248,0.076-0.701,0.237c-0.452,0.161-1.111,0.418-1.916,0.795
		c-0.399,0.192-0.836,0.414-1.288,0.683c-0.451,0.271-0.927,0.58-1.372,0.963c-0.108,0.099-0.225,0.192-0.327,0.299
		c-0.053,0.052-0.107,0.104-0.161,0.157c-0.05,0.055-0.1,0.11-0.151,0.166c-0.105,0.109-0.189,0.233-0.284,0.35
		c-0.043,0.062-0.083,0.124-0.124,0.187l-0.062,0.093l-0.053,0.098c-0.152,0.258-0.255,0.536-0.32,0.82
		c-0.013,0.072-0.031,0.143-0.041,0.214c-0.005,0.074-0.011,0.146-0.019,0.22c-0.011,0.073,0.003,0.148,0.001,0.223l0.004,0.112
		v0.014c-0.001-0.011,0.001,0.044-0.001-0.021l0.004,0.036l0.008,0.071l0.009,0.072c0.001,0.015,0.004,0.021,0.005,0.024
		l0.006,0.015c0.008,0.021,0.012,0.041,0.02,0.064c0.023,0.057,0.039,0.116,0.068,0.172c0.05,0.116,0.12,0.228,0.208,0.338
		c0.172,0.223,0.422,0.432,0.708,0.621c0.577,0.379,1.31,0.678,2.092,0.91c1.574,0.467,3.364,0.7,5.22,0.821
		c0.464,0.029,0.935,0.046,1.409,0.061c0.475,0.015,0.954,0.021,1.436,0.019c0.964-0.003,1.942-0.038,2.928-0.088
		c1.971-0.115,3.973-0.317,5.962-0.617c0.996-0.144,1.988-0.311,2.972-0.5c0.492-0.094,0.982-0.195,1.471-0.294
		c0.245-0.052,0.488-0.105,0.731-0.156c0.251-0.056,0.503-0.113,0.755-0.169c0.494-0.104,0.986-0.206,1.482-0.308
		c0.247-0.05,0.491-0.099,0.735-0.147l0.366-0.073l0.377-0.061c0.505-0.08,1.004-0.159,1.502-0.237
		c0.249-0.039,0.495-0.077,0.742-0.115c0.245-0.032,0.49-0.056,0.733-0.083c0.974-0.103,1.929-0.231,2.869-0.276
		c0.469-0.031,0.934-0.062,1.395-0.092c0.457-0.021,0.912-0.034,1.357-0.045c0.449-0.008,0.89-0.03,1.324-0.026
		c0.435,0.003,0.862,0.006,1.283,0.01c0.211,0.002,0.418,0.005,0.625,0.008c0.207,0.005,0.411,0.016,0.614,0.023
		c0.404,0.019,0.802,0.036,1.19,0.053c0.391,0.014,0.77,0.051,1.142,0.078c0.37,0.029,0.733,0.058,1.088,0.085
		c0.704,0.078,1.374,0.141,2,0.225c1.252,0.167,2.338,0.341,3.226,0.521c0.223,0.043,0.433,0.085,0.631,0.124
		c0.195,0.044,0.382,0.086,0.552,0.125c0.344,0.076,0.635,0.149,0.868,0.207c0.469,0.118,0.717,0.195,0.717,0.195
		s-0.259-0.02-0.74-0.047c-0.24-0.013-0.536-0.032-0.887-0.043c-0.35-0.015-0.749-0.028-1.198-0.04
		c-0.897-0.028-1.985-0.038-3.23-0.035c-0.621,0.01-1.285,0.021-1.98,0.031c-0.697,0.033-1.43,0.042-2.192,0.088
		c-0.379,0.021-0.769,0.043-1.165,0.066c-0.199,0.011-0.397,0.02-0.6,0.034c-0.199,0.017-0.404,0.034-0.608,0.052
		c-0.409,0.032-0.824,0.064-1.246,0.098c-0.422,0.031-0.851,0.088-1.283,0.131c-0.433,0.045-0.872,0.091-1.315,0.138
		c-0.441,0.06-0.891,0.12-1.342,0.181c-0.227,0.03-0.453,0.061-0.681,0.091c-0.229,0.025-0.458,0.065-0.688,0.103
		c-0.459,0.076-0.92,0.151-1.388,0.228c-0.233,0.04-0.469,0.075-0.701,0.118c-0.232,0.046-0.464,0.093-0.697,0.14
		c-0.466,0.091-0.934,0.183-1.406,0.276l-0.355,0.071l-0.363,0.087c-0.241,0.059-0.484,0.116-0.728,0.175
		c-0.488,0.113-0.984,0.226-1.475,0.341c-0.242,0.06-0.483,0.12-0.724,0.18c-0.251,0.06-0.503,0.12-0.756,0.179
		c-0.505,0.118-1.014,0.227-1.526,0.327c-1.022,0.204-2.053,0.388-3.09,0.542c-1.037,0.147-2.078,0.273-3.118,0.37
		c-1.04,0.099-2.081,0.156-3.114,0.191c-0.516,0.017-1.033,0.027-1.545,0.027c-0.514-0.003-1.024-0.01-1.533-0.029
		c-1.016-0.033-2.021-0.101-3.01-0.216c-0.987-0.114-1.958-0.257-2.903-0.468c-0.944-0.209-1.869-0.458-2.752-0.802
		c-0.441-0.171-0.874-0.362-1.292-0.584c-0.418-0.222-0.825-0.47-1.202-0.778c-0.376-0.307-0.734-0.661-1.011-1.104
		c-0.14-0.218-0.256-0.458-0.339-0.712c-0.043-0.125-0.072-0.257-0.1-0.387c-0.011-0.072-0.02-0.149-0.028-0.223
		c-0.003-0.033-0.01-0.083-0.009-0.103l-0.001-0.073c-0.014-0.963,0.329-1.837,0.815-2.48l0.088-0.122l0.097-0.113
		c0.064-0.074,0.127-0.149,0.192-0.22c0.137-0.133,0.265-0.273,0.405-0.387c0.272-0.246,0.559-0.443,0.838-0.626
		c0.561-0.358,1.113-0.621,1.631-0.832c0.519-0.209,1-0.37,1.441-0.494c0.879-0.254,1.584-0.372,2.062-0.452
		C79.41,7.276,79.667,7.258,79.667,7.258z"/>
</g>
<path fill="#414142" d="M130.909,0.141H25.633c-1.402,0-2.544,1.138-2.544,2.538v14.722h-1.381v0.87H15.31v2.09
	c-1.878,0.337-4.128,1.136-6.325,2.892c-5.805,4.638-8.748,13.82-8.748,27.29c0,0.641,0.521,1.159,1.163,1.159
	s1.163-0.519,1.163-1.159c0-7.001,0.831-12.832,2.468-17.326c1.298-3.563,3.104-6.296,5.368-8.119
	c1.7-1.371,3.431-2.052,4.911-2.375v1.931h6.398v0.896h1.381V48.8c0,1.401,1.142,2.539,2.544,2.539h105.276
	c1.403,0,2.546-1.138,2.546-2.539V2.679C133.455,1.279,132.312,0.141,130.909,0.141z M131.855,48.8c0,0.522-0.425,0.944-0.946,0.944
	H25.633c-0.521,0-0.945-0.422-0.945-0.944V2.679c0-0.52,0.424-0.942,0.945-0.942h105.276c0.521,0,0.946,0.422,0.946,0.942V48.8z"/>
</svg>
