<?xml version="1.0" encoding="utf-8"?>
<!-- Generator: Adobe Illustrator 16.0.0, SVG Export Plug-In . SVG Version: 6.00 Build 0)  -->
<!DOCTYPE svg PUBLIC "-//W3C//DTD SVG 1.1//EN" "http://www.w3.org/Graphics/SVG/1.1/DTD/svg11.dtd">
<svg version="1.1" id="Layer_1" xmlns="http://www.w3.org/2000/svg" xmlns:xlink="http://www.w3.org/1999/xlink" x="0px" y="0px"
	 width="43.502px" height="43.503px" viewBox="0 0 43.502 43.503" enable-background="new 0 0 43.502 43.503" xml:space="preserve">
<path fill="#29B574" d="M41.762,17.422h-3.16c-0.412-1.584-1.049-3.107-1.867-4.492l2.242-2.246c0.68-0.68,0.68-1.783,0-2.465
	l-3.691-3.691c-0.68-0.68-1.781-0.68-2.461-0.002l-2.252,2.242c-1.383-0.818-2.908-1.453-4.492-1.865V1.74
	c0-0.961-0.758-1.74-1.719-1.74h-5.221c-0.961,0-1.719,0.779-1.719,1.74v3.162c-1.584,0.412-3.109,1.047-4.492,1.865l-2.248-2.242
	c-0.68-0.68-1.783-0.68-2.463,0L4.525,8.217c-0.68,0.68-0.68,1.781,0,2.461l2.241,2.252c-0.819,1.385-1.454,2.908-1.866,4.492H1.739
	C0.778,17.422,0,18.182,0,19.141v5.221c0,0.961,0.778,1.719,1.739,1.719H4.9c0.412,1.586,1.047,3.109,1.866,4.494L4.524,32.82
	c-0.68,0.68-0.68,1.785,0,2.463l3.691,3.693c0.679,0.68,1.781,0.68,2.461,0l2.253-2.24c1.383,0.818,2.908,1.453,4.492,1.867v3.16
	c0,0.961,0.758,1.74,1.719,1.74h5.221c0.961,0,1.719-0.779,1.719-1.74v-3.16c1.584-0.414,3.108-1.049,4.492-1.867l2.247,2.242
	c0.679,0.68,1.784,0.68,2.463,0l3.692-3.691c0.68-0.68,0.681-1.781,0.002-2.461l-2.242-2.254c0.818-1.383,1.455-2.906,1.867-4.492
	h3.16c0.961,0,1.74-0.758,1.74-1.719v-5.221C43.502,18.182,42.723,17.422,41.762,17.422z M21.751,30.451
	c-4.806,0-8.7-3.895-8.7-8.699s3.895-8.701,8.7-8.701s8.7,3.896,8.7,8.701S26.557,30.451,21.751,30.451z"/>
</svg>
