<?xml version="1.0" encoding="utf-8"?>
<!-- Generator: Adobe Illustrator 16.0.0, SVG Export Plug-In . SVG Version: 6.00 Build 0)  -->
<!DOCTYPE svg PUBLIC "-//W3C//DTD SVG 1.1//EN" "http://www.w3.org/Graphics/SVG/1.1/DTD/svg11.dtd">
<svg version="1.1" id="Layer_1" xmlns="http://www.w3.org/2000/svg" xmlns:xlink="http://www.w3.org/1999/xlink" x="0px" y="0px"
	 width="251px" height="496.912px" viewBox="0 0 251 496.912" enable-background="new 0 0 251 496.912" xml:space="preserve">
<path fill="#231F20" d="M242.54,319.76c8.644-10.312,10.005-9.829,7.034-20.846c-2.974-11.015-5.601-16.547-17.995-22.184
	c-12.395-5.64-10.337-8.75-15.603-15.818c-5.26-7.065-4.89-8.652-4.89-8.652s-2.379-6.84-3.26-5.832
	c0.281-4.353,0.431-11.891-1.418-16.107c0,0,0.19-26.174,0.897-44.299c0.566-14.492-3.26-21.704-3.26-21.704
	c-2.969-1.414-7.041-1.918-9.414-4.736L190.487,0.202L181.443,0l1.574,147.625c-4.634-0.644-9.278,0.085-9.784,2.141
	c-1.083,4.407,10.008,12.109,10.008,12.109l-0.37-0.732c0.119,0.146,0.242,0.288,0.365,0.429l0.005,0.304
	c0,0-6.131,3.27-11.976,7.128c-0.222-0.426-0.438-0.848-0.666-1.278c-3.521-6.615-8.839-2.714-9.007-2.589
	c-6.471-5.825-23.69-5.051-25.09,2.151c-0.516,2.636,4.954,5.272,9.303,6.824c0.004,0.002,0.006,0.004,0.01,0.004
	c1.116,0.507,2.314,0.84,3.552,1.107c0.166,0.043,0.323,0.084,0.466,0.116c0.091,0.021,0.153,0.018,0.231,0.03
	c3.736,0.746,7.747,1.132,10.896,4.175c0.114,0.296,0.355,0.548,0.712,0.758c0.833,0.962,1.597,2.133,2.259,3.603
	c0.329,0.729,0.625,1.444,0.897,2.149c1.42,10.063,1.268,23.987,1.887,31.944c-0.017,1.225,0.076,2.625,0.217,4.194
	c0.789,28.927-12.003,65.858-12.003,65.858s-18.171,0.269-27.843,8.929c-9.673,8.66-22.182,31.324-29.681,36.467
	c-2.956,2.028-5.792,5.046-9.085,7.403c-4.163-3.445-8.969-7.955-12.958-13.147c-9.191-11.961-13.177-31.248-18.222-29.979
	c-4.292,1.076-7.899-2.368-11.362-5.262c-3.064-7.314-11.814-6.023-14.358-6.201c-1.926-0.136,1.313,5.094,3.417,8.225
	c-0.081,0.914,1.184,1.618,4.001,5.618c2.247,3.188,3.712,4.071,13.481,17.507c4.041,5.554,7.602,13.111,10.954,20.55
	c-14.99-9.816-33.902-25.841-38.183-27.086c-4.721-1.375-7.5,5.143-8.581,4.298c-3.86-3.898-2.131-3.112-4.974-3.014
	c-2.843,0.099-9.815,3.155-11.383,7.154c-1.564,3.995,9.368,4.444,9.368,4.444c5.205,0.358,8.666-0.974,14.244,2.885
	c6.393,4.419,19.463,12.901,24.807,19.4c5.348,6.498,13.209,14.967,13.209,14.967c-5.657,11.224-1.279,27.929,3.044,39.348
	c2.655,7.939,5.583,12.596,5.583,12.596l5.934,40.566c0,0-21.417,29.605-17.148,35.262c4.267,5.652,3.3,8.373,10.064,7.871
	c6.769-0.502,14.548-6.006,21.832-4.945c7.284,1.063,5.753,4.502,12.516,3.998c6.768-0.504,16.779-7.492,21.98-7.477
	c5.206,0.014,6.657-4.064,5.625-7.191c-0.73-2.213,2.56-3.01,4.551-3.291c0.84,1.111,1.721,1.986,3.507,1.641
	c4.162-0.809-4.157-10.525-8.748-9.318c0,0-0.066-27.164,4.793-41.479c0,0,18.646-17.676,40.971-43.812
	c8.017-8.506,19.116-20.275,30.435-32.262c5.636-4.876,10.2-8.05,15.157-11.727c4.858-3.602,7.769-6.147,10.242-8.752
	c0.753,14.801-7.346,18.187-5.296,32.128c2.142,14.572,13.843,6.194,13.843,6.194s-7.89,3.199-7.799-10.236
	c0.074-10.998,5.805-31.373,7.881-38.402C241.309,321.239,241.901,320.523,242.54,319.76z M183.961,221.679
	c-0.028-0.375-0.069-0.788-0.128-1.252c0.894-6.409,1.083-19.899-7.114-39.764c5.466-0.572,11.257-1.475,15.478-2.195
	C193.641,183.731,193.205,194.592,183.961,221.679z"/>
</svg>
