<?xml version="1.0" encoding="utf-8"?>
<!-- Generator: Adobe Illustrator 16.0.0, SVG Export Plug-In . SVG Version: 6.00 Build 0)  -->
<!DOCTYPE svg PUBLIC "-//W3C//DTD SVG 1.1//EN" "http://www.w3.org/Graphics/SVG/1.1/DTD/svg11.dtd">
<svg version="1.1" id="Layer_1" xmlns="http://www.w3.org/2000/svg" xmlns:xlink="http://www.w3.org/1999/xlink" x="0px" y="0px"
	 width="982px" height="280.628px" viewBox="-36 -21.748 982 280.628" enable-background="new -36 -21.748 982 280.628"
	 xml:space="preserve">
<g>
	<g>
		<defs>
			<rect id="SVGID_1_" x="-36" y="-55.764" width="982" height="314.645"/>
		</defs>
		<clipPath id="SVGID_2_">
			<use xlink:href="#SVGID_1_"  overflow="visible"/>
		</clipPath>
		<g clip-path="url(#SVGID_2_)">
			<path fill="#13609A" d="M471.558-21.344c272.229,0,492.912,220.668,492.912,492.894c0,272.229-220.684,492.912-492.912,492.912
				c-272.226,0-492.91-220.684-492.91-492.912C-21.352,199.323,199.332-21.344,471.558-21.344z"/>
			<g>
				<path fill="#77C372" d="M510.057,195.842c-25.016-7.849-36.278-31.129-20.508-40.893c15.769-9.764,46.604-14.609,48.085-36.219
					c1.482-21.609,15.224-27.194-9.783-25.364c-25.008,1.826-19.591-23.704-52.604-29.871c-33.012-6.166-40.254,0.769-55.036,2.932
					c-14.777,2.162,20.78-22.143-1.492-31.628c-22.275-9.483-16.282-22.339-47.23-19.54c-30.947,2.797-41.162,19.034-56.928,17.287
					c-15.762-1.746,4.421-29.545-2.636-27.267c-0.001,0-0.003,0-0.007,0.001c-46.925,15.247-84.899,35.446-125.188,64.771
					c0,0-0.005,0.003-0.011,0.009c-0.405,0.447-12.721,14.187,0.26,20.929c13.197,6.855,27.349,16.592,15.958,29.832
					c-11.394,13.239-8.139,43.463-6.462,55.316c1.675,11.853-11.08-10.871-29.581,16.791c-18.496,27.661,0.197,29.123,8.939,30.719
					c8.744,1.595,10.208,10.038,20.269,19.814c8.91,8.652,60.761,184.997,63.767,196.268l211.689-82.494
					c6.777-12.952,29.305-115.815,59.296-131.693C569.157,205.267,535.073,203.692,510.057,195.842z"/>
				<path fill="#77C372" d="M626.232,24.287c-3.752-9.762-43.911-12.569-66.837-24.031c-10.514-5.257-18.776-7.513-47.316-3.756
					c-28.537,3.756-32.294-2.253-48.063,0c-15.773,2.251,14.27,24.783,42.809,30.04c28.541,5.259,22.529,12.018,52.572,23.185
					c30.041,11.166,29.29,40.635,52.572,47.393c23.282,6.761,24.031-2.253,33.045-39.789
					C654.024,19.782,629.99,34.05,626.232,24.287z"/>
			</g>
		</g>
	</g>
</g>
</svg>
