<?xml version="1.0" encoding="utf-8"?>
<!-- Generator: Adobe Illustrator 16.0.0, SVG Export Plug-In . SVG Version: 6.00 Build 0)  -->
<!DOCTYPE svg PUBLIC "-//W3C//DTD SVG 1.1//EN" "http://www.w3.org/Graphics/SVG/1.1/DTD/svg11.dtd">
<svg version="1.1" id="Layer_1" xmlns="http://www.w3.org/2000/svg" xmlns:xlink="http://www.w3.org/1999/xlink" x="0px" y="0px"
	 width="559px" height="174.354px" viewBox="0 0 559 174.354" enable-background="new 0 0 559 174.354" xml:space="preserve">
<g>
	<defs>
		<rect id="SVGID_1_" x="-36" y="-21.748" width="612" height="196.103"/>
	</defs>
	<clipPath id="SVGID_2_">
		<use xlink:href="#SVGID_1_"  overflow="visible"/>
	</clipPath>
	<g clip-path="url(#SVGID_2_)">
		<circle fill="#13609A" cx="280.32" cy="306.894" r="307.191"/>
		<g>
			<path fill="#77C372" d="M304.313,135.069c-15.591-4.892-22.61-19.401-12.781-25.486c9.827-6.085,29.044-9.104,29.967-22.572
				c0.924-13.468,9.488-16.948-6.097-15.808c-15.585,1.139-12.209-14.778-32.784-18.623c-20.573-3.844-25.086,0.48-34.298,1.828
				c-9.21,1.348,12.95-13.803-0.931-19.714c-13.882-5.911-10.148-13.922-29.435-12.178c-19.287,1.743-25.653,11.862-35.478,10.773
				c-9.823-1.088,2.755-18.413-1.643-16.993c-0.001,0-0.002,0-0.005,0.001c-29.244,9.502-52.91,22.091-78.018,40.371
				c0,0-0.003,0.002-0.007,0.006c-0.252,0.278-7.928,8.846,0.162,13.049c8.225,4.272,17.044,10.34,9.945,18.592
				c-7.1,8.251-5.072,27.087-4.027,34.474c1.044,7.387-6.905-6.775-18.435,10.464c-11.528,17.239,0.123,18.151,5.571,19.145
				c5.449,0.994,6.361,6.256,12.632,12.348c5.552,5.393,37.867,115.294,39.74,122.318l131.929-51.412
				c4.223-8.072,18.262-72.178,36.954-82.074C341.145,140.942,319.903,139.96,304.313,135.069z"/>
			<path fill="#77C372" d="M376.715,28.142c-2.339-6.084-27.366-7.833-41.654-14.977c-6.553-3.276-11.702-4.682-29.488-2.341
				s-20.126-1.404-29.955,0c-9.83,1.404,8.893,15.446,26.679,18.722c17.787,3.277,14.041,7.489,32.765,14.449
				c18.721,6.961,18.254,25.335,32.763,29.547c14.51,4.213,14.977-1.404,20.594-24.806
				C394.035,25.334,379.057,34.226,376.715,28.142z"/>
		</g>
	</g>
</g>
</svg>
