<?xml version="1.0" encoding="utf-8"?>
<!-- Generator: Adobe Illustrator 16.0.0, SVG Export Plug-In . SVG Version: 6.00 Build 0)  -->
<!DOCTYPE svg PUBLIC "-//W3C//DTD SVG 1.1//EN" "http://www.w3.org/Graphics/SVG/1.1/DTD/svg11.dtd">
<svg version="1.1" id="Layer_1" xmlns="http://www.w3.org/2000/svg" xmlns:xlink="http://www.w3.org/1999/xlink" x="0px" y="0px"
	 width="26.891px" height="29.355px" viewBox="0 0 26.891 29.355" enable-background="new 0 0 26.891 29.355" xml:space="preserve">
<path fill="#777777" d="M7.219,7.305c0,0-0.105-1.383,1.126-1.377c0,0-0.027-0.355-0.5-0.417C7.495,5.464,7.364,5.571,6.602,5.259
	C5.84,4.948,5.873,4.262,5.479,3.695C5.053,3.082,4.87,2.953,4.012,2.575C3.383,2.298,3.137,2.813,3.501,3.721
	s0.917,1.383,1.865,1.877c0.949,0.495,0.526,0.242,0.816,0.702C6.552,6.887,6.613,7.028,7.219,7.305z"/>
<path fill="#777777" d="M4.322,3.5c0,0-0.363,0.741-0.018,1.724c0.345,0.983,0.614,0.963,0.614,0.963S4.65,4.927,5.281,4.14
	L4.322,3.5z"/>
<path fill="#777777" d="M4.422,3.93c0,0,0.429,0.512,1.269,0.58c0.84,0.069,0.914-0.138,0.914-0.138s-1.019-0.216-1.393-0.94
	L4.422,3.93z"/>
<path fill="#777777" d="M12.147,10.799c0,0-2.056-1.642-0.458-3.344c0,0-0.527-0.421-1.224,0.154
	c-0.52,0.427-0.539,0.748-1.957,1.403C7.092,9.669,6.183,8.737,4.886,8.552c-1.401-0.2-1.816-0.112-3.45,0.591
	c-1.198,0.517-0.799,1.524,0.933,2.191c1.731,0.667,3.104,0.512,5.016-0.167c1.913-0.678,1.016-0.418,2.028-0.228
	C10.707,11.183,10.979,11.28,12.147,10.799z"/>
<path fill="#777777" d="M3.119,9.908c0,0,0.562,1.46,2.374,2.25c1.811,0.79,2.13,0.39,2.13,0.39s-2.095-1.255-2.374-3.145
	L3.119,9.908z"/>
<path fill="#777777" d="M3.848,10.324c0,0,1.264,0.066,2.445-1.013c1.18-1.081,0.989-1.449,0.989-1.449S5.665,9,4.176,8.584
	L3.848,10.324z"/>
<path fill="#777777" d="M17.807,8.098c0,0-0.651-2.549,1.65-2.945c0,0-0.168-0.654-1.069-0.615
	c-0.672,0.028-0.881,0.272-2.407-0.059c-1.525-0.329-1.689-1.621-2.613-2.55c-0.998-1.005-1.381-1.185-3.108-1.608
	c-1.268-0.31-1.557,0.734-0.577,2.31c0.979,1.576,2.168,2.28,4.103,2.891c1.934,0.613,1.062,0.279,1.755,1.042
	C16.425,7.537,16.584,7.779,17.807,8.098z"/>
<path fill="#777777" d="M11.14,1.947c0,0-0.432,1.503,0.537,3.227c0.969,1.721,1.465,1.595,1.465,1.595s-0.915-2.265,0.002-3.941
	L11.14,1.947z"/>
<path fill="#777777" d="M11.471,2.718c0,0,0.969,0.814,2.562,0.666c1.593-0.151,1.662-0.56,1.662-0.56s-1.976-0.068-2.913-1.297
	L11.471,2.718z"/>
<path fill="#777777" d="M10.174,12.43c0,0,2.339,1.206,1.106,3.19c0,0,0.6,0.309,1.17-0.393c0.425-0.521,0.382-0.839,1.643-1.759
	c1.258-0.924,2.334-0.189,3.641-0.263c1.415-0.079,1.804-0.246,3.268-1.257c1.072-0.742,0.484-1.651-1.345-1.965
	c-1.828-0.313-3.145,0.107-4.886,1.149c-1.743,1.039-0.914,0.608-1.944,0.62C11.511,11.77,11.224,11.728,10.174,12.43z"/>
<path fill="#777777" d="M19.2,11.53c0,0-0.839-1.32-2.77-1.741c-1.93-0.418-2.164,0.037-2.164,0.037s2.3,0.819,2.945,2.618
	L19.2,11.53z"/>
<path fill="#777777" d="M18.405,11.266c0,0-1.253,0.184-2.198,1.474c-0.944,1.292-0.687,1.613-0.687,1.613s1.363-1.432,2.905-1.316
	L18.405,11.266z"/>
<path fill="#777777" d="M3.688,12.992c0,0,0.401,2.601-1.929,2.771c0,0,0.103,0.667,1.005,0.716c0.671,0.038,0.902-0.184,2.39,0.294
	c1.487,0.474,1.525,1.776,2.353,2.79c0.896,1.098,1.26,1.314,2.939,1.903c1.231,0.431,1.619-0.58,0.798-2.242
	c-0.821-1.665-1.936-2.48-3.802-3.276c-1.866-0.798-1.03-0.381-1.646-1.207C5.008,13.685,4.873,13.428,3.688,12.992z"/>
<path fill="#777777" d="M9.726,19.761c0,0,0.574-1.455-0.222-3.263c-0.797-1.807-1.303-1.729-1.303-1.729s0.691,2.343-0.385,3.923
	L9.726,19.761z"/>
<path fill="#777777" d="M9.471,18.964c0,0-0.886-0.904-2.486-0.911c-1.599-0.005-1.708,0.395-1.708,0.395s1.961,0.26,2.775,1.574
	L9.471,18.964z"/>
<path fill="#777777" d="M26.144,17.337c0,0-2.682-1.566-1.104-3.827c0,0-0.687-0.402-1.402,0.388
	c-0.536,0.587-0.503,0.965-2.047,1.972c-1.542,1.01-2.764,0.076-4.309,0.08c-1.672,0.005-2.14,0.177-3.929,1.277
	c-1.311,0.805-0.674,1.916,1.461,2.399c2.136,0.484,3.712,0.071,5.83-1.048c2.12-1.115,1.116-0.66,2.331-0.609
	C24.528,18.031,24.862,18.099,26.144,17.337z"/>
<path fill="#777777" d="M15.448,17.834c0,0,0.906,1.607,3.154,2.225c2.249,0.614,2.554,0.094,2.554,0.094s-2.66-1.111-3.307-3.271
	L15.448,17.834z"/>
<path fill="#777777" d="M16.369,18.195c0,0,1.487-0.139,2.684-1.6c1.194-1.463,0.91-1.859,0.91-1.859s-1.696,1.604-3.507,1.371
	L16.369,18.195z"/>
<path fill="#777777" d="M7.436,25.112c0,0-0.486-1.861,1.196-2.159c0,0-0.125-0.477-0.785-0.444c-0.492,0.021-0.642,0.2-1.76-0.035
	c-1.117-0.234-1.242-1.178-1.92-1.854c-0.734-0.73-1.015-0.86-2.28-1.162c-0.927-0.223-1.135,0.542-0.413,1.689
	c0.722,1.148,1.594,1.659,3.011,2.099c1.417,0.441,0.778,0.2,1.287,0.755C6.424,24.708,6.541,24.884,7.436,25.112z"/>
<path fill="#777777" d="M2.537,20.64c0,0-0.308,1.101,0.405,2.357c0.715,1.254,1.077,1.159,1.077,1.159s-0.677-1.652-0.014-2.881
	L2.537,20.64z"/>
<path fill="#777777" d="M2.782,21.202c0,0,0.712,0.592,1.876,0.477s1.213-0.414,1.213-0.414s-1.445-0.042-2.136-0.937L2.782,21.202z
	"/>
<path fill="#777777" d="M9.364,26.189c0,0,2.088,0.457,1.536,2.274c0,0,0.536,0.117,0.836-0.553
	c0.227-0.498,0.125-0.737,0.922-1.727c0.794-0.989,1.792-0.637,2.804-0.967c1.097-0.359,1.366-0.572,2.303-1.672
	c0.689-0.807,0.035-1.399-1.466-1.262c-1.502,0.137-2.447,0.741-3.598,1.925c-1.151,1.181-0.591,0.67-1.397,0.895
	C10.274,25.393,10.04,25.418,9.364,26.189z"/>
<path fill="#777777" d="M16.264,23.593c0,0-0.936-0.86-2.54-0.787c-1.603,0.076-1.693,0.48-1.693,0.48s1.979,0.164,2.862,1.44
	L16.264,23.593z"/>
<path fill="#777777" d="M15.584,23.551c0,0-0.946,0.408-1.42,1.619c-0.471,1.211-0.2,1.41-0.2,1.41s0.771-1.41,2.005-1.643
	L15.584,23.551z"/>
<path fill="#777777" d="M22.337,25.24c0,0-0.084-1.116,0.91-1.111c0,0-0.021-0.287-0.403-0.338c-0.283-0.037-0.389,0.05-1.004-0.202
	s-0.588-0.804-0.906-1.263c-0.343-0.495-0.491-0.599-1.184-0.904c-0.508-0.224-0.706,0.193-0.412,0.926
	c0.293,0.733,0.739,1.116,1.504,1.516c0.766,0.398,0.425,0.194,0.659,0.565C21.8,24.902,21.849,25.015,22.337,25.24z"/>
<path fill="#777777" d="M19.999,22.168c0,0-0.292,0.599-0.014,1.393c0.278,0.793,0.496,0.777,0.496,0.777s-0.216-1.018,0.292-1.652
	L19.999,22.168z"/>
<path fill="#777777" d="M20.08,22.515c0,0,0.347,0.414,1.024,0.469c0.679,0.056,0.737-0.11,0.737-0.11s-0.821-0.176-1.124-0.76
	L20.08,22.515z"/>
<path fill="#777777" d="M22.095,2.42c0,0-0.678,1.226-1.716,0.541c0,0-0.173,0.315,0.191,0.63c0.271,0.233,0.441,0.214,0.913,0.9
	c0.471,0.686,0.063,1.246,0.083,1.944c0.021,0.754,0.104,0.964,0.62,1.758c0.38,0.583,0.873,0.282,1.066-0.687
	c0.195-0.969-0.009-1.677-0.537-2.619c-0.527-0.942-0.311-0.496-0.302-1.045C22.425,3.142,22.453,2.989,22.095,2.42z"/>
<path fill="#777777" d="M22.438,7.24c0,0,0.716-0.427,0.97-1.449c0.251-1.023,0.012-1.154,0.012-1.154s-0.47,1.213-1.438,1.53
	L22.438,7.24z"/>
<path fill="#777777" d="M22.591,6.82c0,0-0.079-0.67-0.752-1.193c-0.673-0.522-0.849-0.389-0.849-0.389s0.741,0.748,0.656,1.567
	L22.591,6.82z"/>
</svg>
