<?xml version="1.0" encoding="utf-8"?>
<!-- Generator: Adobe Illustrator 16.0.0, SVG Export Plug-In . SVG Version: 6.00 Build 0)  -->
<!DOCTYPE svg PUBLIC "-//W3C//DTD SVG 1.1//EN" "http://www.w3.org/Graphics/SVG/1.1/DTD/svg11.dtd">
<svg version="1.1" id="Layer_1" xmlns="http://www.w3.org/2000/svg" xmlns:xlink="http://www.w3.org/1999/xlink" x="0px" y="0px"
	 width="26.891px" height="29.355px" viewBox="0 0 26.891 29.355" enable-background="new 0 0 26.891 29.355" xml:space="preserve">
<g>
	<g>
		<path fill="#E6A65A" d="M16.364,3.185c-1.765-0.971-2.953-2.109-5.906-2.814C7.504-0.333,4.48-0.05,3.004,1.356
			s-1.055,2.25-1.547,3.164C0.965,5.435,1.246,6.278,0.965,6.63C0.683,6.981-0.09,8.177,0.05,8.599s1.758-0.211,2.743,0
			C3.777,8.81,5.113,8.95,4.902,9.302s-0.255,1.215-0.422,3.656c-0.211,3.083,0.12,6.231,1.394,7.778
			c1.274,1.547,4.443-0.816,5.708,1.574c0.949,1.793,6.258,1.828,8.578,0.633s3.023,0.141,3.234-2.18s3.4-3.314,2.768-6.268
			c-0.633-2.954,0-4.631-4.074-7.989C19.442,4.327,17.748,3.944,16.364,3.185z"/>
		<path fill="#E6A65A" d="M21.145,20.201c0.4-0.916,2.039-0.844,1.828,1.125s-0.752,3.375-0.902,4.5
			c-0.152,1.125,0.48,2.109,1.395,2.252c0.914,0.139,1.688,0.701,0.984,0.982c-0.702,0.281-1.125,0.492-2.039,0
			s-0.633-0.914-1.266-0.703s0.141,0.703-1.617,0.703s-2.109-0.141-1.406-0.633c0,0-1.055-0.07-1.406,0.211s-1.125-0.703,0-0.844
			s2.25,0.492,2.602-0.141s0.811-0.844,1.108-1.617S20.653,21.326,21.145,20.201z"/>
		<path fill="#E6A65A" d="M11.583,22.31c0,0-0.422,3.445-1.477,3.797s-2.11,0.773-2.883,0.773c-0.774,0-2.672,0.352-2.25,0.846
			c0.422,0.49,1.336,0.068,2.391,0c1.055-0.072,0.492,0.469,1.829,0.234c1.335-0.234,0.914,0.494,1.828,0.059
			s0.352-1.842,1.195-1.42s1.195,1.266,1.617,1.055s0.422-0.563-0.492-1.406s-1.232-2.162-0.37-3.578L11.583,22.31z"/>
		<path fill="#E6A65A" d="M4.27,7.05c-0.352,0-3.169-0.852-3.305-0.42C0.829,7.06,0.228,7.333,0.034,8.247s0.49,0.506,1.131,0.422
			C1.807,8.583,2.09,8.88,2.793,8.599S4.27,7.05,4.27,7.05z"/>
		<path fill="#E6A65A" d="M15.45,8.458c-1.151-0.732,1.125,1.266,1.055,4.219c-0.07,2.954,0.844,2.25,0.914,1.547
			c0.07-0.704,0.914-1.266,0.914,1.055c0,2.32,0.914,3.023,1.055,2.531s0.529-0.266,1.038,0.148s-1.038-1.203-1.53-3.172
			c-0.492-1.969-0.196-2.672-0.906-2.11C17.278,13.239,16.997,9.442,15.45,8.458z"/>
		<path fill="#E6A65A" d="M5.324,11.06c-2.036-2.041,4.313,10.092,4.837,10.493c0.523,0.398,1.917,2.941,4.963,2.209
			c1.826-0.439-2.838-1.381-4.807-3.842S6.239,11.976,5.324,11.06z"/>
		<path fill="#E6A65A" d="M17.042,3.44c-3.139,0.094-4.391,0.518-4.391,0.518s-1.565-0.484,0.479-0.984
			C15.173,2.472,17.042,3.44,17.042,3.44z"/>
		<path fill="#E6A65A" d="M4.912,5.153c-0.708-0.15-1.768-1.41-0.291-1.76s3.445-0.141,3.234,0.457
			C7.645,4.45,5.948,5.37,4.912,5.153z"/>
		<circle fill="#E6A65A" cx="4.639" cy="4.114" r="0.721"/>
		<path fill="#E6A65A" d="M4.858,3.833c0.199,0,0.361,0.16,0.361,0.359S5.058,4.554,4.858,4.554"/>
		<path fill="#E6A65A" d="M23.417,10.575c-0.029,0.221,2.334,5.067,3.173,5.334s-0.408,1.23,0.093,2.348
			c0.502,1.119,0.051,0.352-0.837,0.16c-0.887-0.189,0.193,0.676,0.252,1.311c0.059,0.633-0.253,1.816-0.652,1.414
			c-0.401-0.402-3.8-2.35-3.8-2.35c-0.373-0.057-0.576-7.766-0.576-7.766L23.417,10.575z"/>
		<path fill="#E6A65A" d="M21.215,27.232c-0.413-0.275-1.365,1.895-2.25,1.822c-0.884-0.072,2.039,0.498,2.25-0.346
			s0.873,0.148,0.873,0.148S21.848,27.654,21.215,27.232z"/>
		<path fill="#E6A65A" d="M11.653,26.949c0.052-0.773-2.04,0.34-1.336,0.705C11.02,28.019,11.583,28.001,11.653,26.949z"/>
		<path fill="#E6A65A" d="M7.363,27.726c0.632,0.074,2.595,0.025,1.829-0.518C8.425,26.666,7.363,27.726,7.363,27.726z"/>
		<path fill="#E6A65A" d="M24.018,28.216c0.391-0.119,0.432,0.844,0.432,0.844S23.093,28.498,24.018,28.216z"/>
	</g>
</g>
</svg>
