<?xml version="1.0" encoding="utf-8"?>
<!-- Generator: Adobe Illustrator 16.0.0, SVG Export Plug-In . SVG Version: 6.00 Build 0)  -->
<!DOCTYPE svg PUBLIC "-//W3C//DTD SVG 1.1//EN" "http://www.w3.org/Graphics/SVG/1.1/DTD/svg11.dtd">
<svg version="1.1" id="Layer_1" xmlns="http://www.w3.org/2000/svg" xmlns:xlink="http://www.w3.org/1999/xlink" x="0px" y="0px"
	 width="44.091px" height="33.751px" viewBox="0 0 44.091 33.751" enable-background="new 0 0 44.091 33.751" xml:space="preserve">
<path fill="#EC827A" d="M43.786,7.935c0,0-0.396-0.572-0.461,1.145c-0.064,1.719-1.52,1.902-1.52,1.902s-3.802-3.09-7.049-3.668
	c-3.248-0.58-10.752-0.559-15.584,1.85c-4.833,2.408-5.266,1.811-8.191,3.68c-2.924,1.869-3.161,5.83-4.268,6.707
	c-1.107,0.877-2.59,0.182-3.691,0.948c-1.1,0.764-3.295,4.15-2.994,4.988c0.301,0.84,1.161,0.188,2.056-1.049l1.824-1.012
	c0.224,0.613,0.524,1.584,0.347,1.963c-0.269,0.568-0.208,1.51,0.232,2.006c0.439,0.496-0.537,5.26,0.14,5.518
	c1.728,0.66,3.558,1.268,5.525-0.256c1.966-1.523,2.568-1.783,3.581-3.041c1.012-1.258,1.618-1.572,2.25-2.355
	s1.354-1.092,2.062-1.166c0.164-0.018,0.287-0.031,0.383-0.041l0.03-0.004c0.097-0.01,0.163-0.016,0.206-0.021l0.089-0.01
	c0,0-1.694,7.764-0.051,7.734s2.294-0.141,3.013-2.361s0.975-4.551,1.359-5.115c0.386-0.563,0.82-1.943,1.168-2.861l0.908-0.637
	c0.313-0.09,0.695-0.158,1.131-0.229c1.842,0.289,3.918-0.621,4.9-1.266c0.184-0.119,0.438-0.063,0.732,0.111
	c-0.091,1.152-0.29,3.273-0.608,4.469c-0.454,1.697-0.915,1.441-1.114,2.822c-0.2,1.381-0.177,1.734,1.881,1.855
	c2.104,0.127,1.152-1.488,1.938-2.85c0.784-1.359,1.173-2.619,1.173-2.619l-0.004-0.014c0.262,0.713,0.614,1.455,1,1.648l1.77,3.52
	c0,0-0.361,4.301,3.021,2.637l0.874-0.895c0,0-0.315-0.605-0.562-2.379s1.308-2.266,0.932-3.813
	c-0.377-1.547-0.617-1.465-0.994-3.002c-0.377-1.535,0.122-0.98,1.5-3.973c1.377-2.994-0.123-7.305-0.123-7.305
	S44.903,9.524,43.786,7.935z"/>
</svg>
