<?xml version="1.0" encoding="utf-8"?>
<!-- Generator: Adobe Illustrator 16.0.0, SVG Export Plug-In . SVG Version: 6.00 Build 0)  -->
<!DOCTYPE svg PUBLIC "-//W3C//DTD SVG 1.1//EN" "http://www.w3.org/Graphics/SVG/1.1/DTD/svg11.dtd">
<svg version="1.1" id="Layer_1" xmlns="http://www.w3.org/2000/svg" xmlns:xlink="http://www.w3.org/1999/xlink" x="0px" y="0px"
	 width="53.734px" height="38.999px" viewBox="0 0 53.734 38.999" enable-background="new 0 0 53.734 38.999" xml:space="preserve">
<path fill="#603A17" d="M0.47,8.44c0.857-0.945,2.573-1.459,3.259-2.66s0-1.373,0.858-2.314c0.857-0.945,3.051-1.617,3.651-2.389
	s1.372-0.516,1.715,0c0.244,0.365,0.744-0.033,1.015-0.295C10.902,0.53,10.874,0.3,11.131,0.075
	c0.602-0.523,1.077,1.834,0.367,2.373c0,0,4.013,3.156,6.694,4.094c0,0,4.766-0.711,11.204-0.99
	c2.188-0.201,5.224-0.482,8.319-0.771c1.376-0.27,2.377-0.578,3.496-0.887c2.488-0.686,3.008-0.514,5.535-0.6s2.613-0.344,3.9,1.371
	c1.286,1.715,1.801,2.744,1.201,5.232c-0.602,2.486-0.188,8.643,0.249,10.241c0.437,1.596,1.638,2.711,1.638,2.711
	s-0.937-0.271-1.939-0.838c0.002,0.002,0.004,0.006,0.006,0.006l-0.014-0.01c-0.388-0.219-0.783-0.477-1.141-0.787
	c0,0-0.172,1.715,0.429,2.83c0,0,0.515,3.088,0,5.49c-0.515,2.4,0,6.689,0,6.689c-0.172,0.771-0.172,0-0.944,0.771
	c-0.654,0.656,0.101,0.697-0.229,1.061c-0.121,0.943-2.581,0.959-3.444,0.48c-0.168-0.066-0.271-0.15-0.271-0.254
	c-0.292-0.674,1.188-1.301,1.604-1.461c0.191-0.186,0.357-0.381,0.455-0.598c0.43-0.943,0.43-8.32-0.343-10.293
	c0,0,0.278,7.816-0.171,9.176c-0.448,1.359-1.201,0.344-1.201,0.344s0.01,0.154-0.039,0.385h0.002
	c-0.001,0.002-0.002,0.002-0.002,0.002c-0.055,0.262-0.183,0.617-0.486,0.977c-0.171,0.203-0.502,0.359-0.881,0.463
	c-0.713,0.275-1.541,0.229-2.162-0.184c-1.014-0.674-0.137-1.201,0.43-1.625c0.229-0.314,0.492-0.67,0.823-1.133
	c0.102-0.143,0.196-0.299,0.284-0.463c0.005-0.014,0.011-0.021,0.015-0.035c0.278-0.891,0.548-1.721,0.689-2.553
	c0.069-0.816,0.036-1.721-0.132-2.693c-0.559-1.844-3.786-7.135-3.773-8.664c0,0-2.145,2.658-4.546,3.088s-7.204-0.344-8.835,0.172
	c-0.516,0.162-1.116,0.24-1.711,0.375c0.221,1.215,0.527,2.75,0.875,4.1c0.706,2.746,1.307,7.463,0.535,8.064
	c-0.772,0.6-1.751-0.344-1.776,0.6c-0.005,0.182-0.049,0.324-0.111,0.447c-0.446,1.199-1.85,0.504-2.311,0.584
	c-0.51,0.086,0.51-1.289,0.51-1.289c0.257-0.686,1.973-1.373,1.115-4.373c-0.354-1.24-1.06-2.641-1.772-3.998
	c-0.283,3.355-0.102,8.008-0.413,8.785c-0.343,0.857-1.629,0.514-1.629,0.771c0.087,0.686-0.003,0.939-0.174,1.156
	c-0.038,0.063-0.088,0.113-0.142,0.162c-0.05,0.055-0.102,0.111-0.157,0.176c-0.344,0.41-1.46,0.232-2.233,0
	c-0.773-0.23,0.627-1.453,0.627-1.453h0c0.55-0.813,1.147-1.17,1.222-2.443c0.086-1.457,0.343-4.373,0-5.918
	c-0.343-1.543-0.686-3.688-0.686-3.688c-2.305-0.461-4.259-3.016-5.451-4.975c-0.883-1.329-1.239-2.317-1.239-2.317l-5.318-5.576
	c0,0-6.862-0.256-7.205-1.543C0.126,9.554-0.388,9.384,0.47,8.44z"/>
</svg>
