<?xml version="1.0" encoding="utf-8"?>
<!-- Generator: Adobe Illustrator 16.0.0, SVG Export Plug-In . SVG Version: 6.00 Build 0)  -->
<!DOCTYPE svg PUBLIC "-//W3C//DTD SVG 1.1//EN" "http://www.w3.org/Graphics/SVG/1.1/DTD/svg11.dtd">
<svg version="1.1" id="Layer_1" xmlns="http://www.w3.org/2000/svg" xmlns:xlink="http://www.w3.org/1999/xlink" x="0px" y="0px"
	 width="26.891px" height="29.355px" viewBox="0 0 26.891 29.355" enable-background="new 0 0 26.891 29.355" xml:space="preserve">
<path fill="#5393D3" d="M20.712,28.241c0,0-0.556-7.356,5.995-7.328c0,0-0.143-1.888-2.656-2.222
	c-1.865-0.248-2.563,0.323-6.616-1.335s-3.875-5.302-5.974-8.321C9.195,5.773,8.225,5.089,3.659,3.076
	C0.311,1.601-0.998,4.345,0.938,9.176s4.877,7.357,9.922,9.988s2.799,1.288,4.341,3.732C17.169,26.014,17.491,26.763,20.712,28.241z
	"/>
<path fill="#5393D3" d="M5.302,7.994c0,0-1.928,3.944-0.092,9.174s3.268,5.122,3.268,5.122s-1.423-6.702,1.927-10.884L5.302,7.994z"
	/>
<path fill="#5393D3" d="M5.838,10.285c0,0,2.281,2.724,6.751,3.087c4.472,0.364,4.863-0.73,4.863-0.73s-5.423-1.154-7.412-5.006
	L5.838,10.285z"/>
</svg>
