<?xml version="1.0" encoding="utf-8"?>
<!-- Generator: Adobe Illustrator 16.0.0, SVG Export Plug-In . SVG Version: 6.00 Build 0)  -->
<!DOCTYPE svg PUBLIC "-//W3C//DTD SVG 1.1//EN" "http://www.w3.org/Graphics/SVG/1.1/DTD/svg11.dtd">
<svg version="1.1" id="Layer_1" xmlns="http://www.w3.org/2000/svg" xmlns:xlink="http://www.w3.org/1999/xlink" x="0px" y="0px"
	 width="195.511px" height="128.876px" viewBox="0 0 195.511 128.876" enable-background="new 0 0 195.511 128.876"
	 xml:space="preserve">
<g>
	<path fill="#BBBDBF" d="M91.137,57.742c0.94-0.39,1.959,2.265,1.315,2.833c-0.642,0.567-1.624,0.552-1.778-0.351
		C90.518,59.315,90.076,58.183,91.137,57.742z"/>
	<path fill="#BBBDBF" d="M101.466,60.081c1.27-0.62,9.876-6.081,10.231-5.874c0.36,0.21-1.894,7.276-1.893,7.632
		c0.004,0.354-1.057,0.65-0.995,0.012c0.063-0.644,1.559-6.134,1.559-6.134s-8.456,5.842-8.895,5.113
		C101.043,60.103,100.443,60.582,101.466,60.081z"/>
	<path fill="#E7E7E7" d="M141.381,62.681c-0.303,0.019-8.865,0.114-8.865,0.114s-0.564,7.218-0.208,7.223
		c1.327,0.03,8.318,0.288,8.88-0.1c0.481-0.331,0.749-5.403,0.415-6.854C141.546,62.817,141.475,62.675,141.381,62.681z"/>
	<path fill="#929497" d="M142.89,63.947l-1.287-0.883c0,0,0.216,6.235-0.415,6.854l1.757-1.612L142.89,63.947z"/>
	<g>
		
			<rect x="6.989" y="2.838" transform="matrix(0.9999 -0.0128 0.0128 0.9999 -0.3869 0.1435)" fill="#FAA62C" width="8.1" height="55.009"/>
		
			<rect x="19.14" y="2.681" transform="matrix(0.9999 -0.013 0.013 0.9999 -0.3911 0.3045)" fill="#FAA62C" width="8.1" height="55.009"/>
		
			<rect x="15.468" y="57.766" transform="matrix(0.9999 -0.013 0.013 0.9999 -0.777 0.2328)" fill="#D1D2D3" width="4.05" height="4.049"/>
		
			<rect x="8.374" y="2.869" transform="matrix(0.9999 -0.0107 0.0107 0.9999 -0.3236 0.0945)" fill="#F2F2F2" width="0.641" height="55.007"/>
		
			<rect x="10.612" y="2.84" transform="matrix(0.9999 -0.0137 0.0137 0.9999 -0.4156 0.1529)" fill="#F2F2F2" width="0.64" height="55.008"/>
		
			<rect x="13.063" y="2.806" transform="matrix(0.9999 -0.0114 0.0114 0.9999 -0.3454 0.1549)" fill="#F2F2F2" width="0.641" height="55.009"/>
		
			<rect x="20.525" y="2.713" transform="matrix(0.9999 -0.013 0.013 0.9999 -0.3909 0.2734)" fill="#F2F2F2" width="0.639" height="55.007"/>
		
			<rect x="22.765" y="2.683" transform="matrix(0.9999 -0.0122 0.0122 0.9999 -0.3669 0.2842)" fill="#F2F2F2" width="0.64" height="55.007"/>
		
			<rect x="25.217" y="2.653" transform="matrix(0.9999 -0.0107 0.0107 0.9999 -0.3218 0.2754)" fill="#F2F2F2" width="0.638" height="55.008"/>
		
			<rect x="15.097" y="4.038" transform="matrix(0.9999 -0.0128 0.0128 0.9999 -0.3934 0.2213)" fill="#414142" width="4.052" height="53.731"/>
	</g>
	<path fill="#BBBDBF" d="M90.938,58.884c0,0-1.401,0.971-1.39,2.164l0.71,0.021c0,0,0.767-1.167,1.299-1.365L90.938,58.884z"/>
	<path fill="#BBBDBF" d="M65.436,59.994c0.005,0.349-0.279,0.639-0.63,0.648l0,0c-0.351,0.003-0.644-0.279-0.648-0.634l-0.028-2.057
		c-0.002-0.355,0.279-0.647,0.632-0.649l0,0c0.354-0.005,0.646,0.278,0.649,0.631L65.436,59.994z"/>
	<path fill="#BBBDBF" d="M77.102,60.592c0.002,0.099-0.079,0.181-0.175,0.182l0,0c-0.099,0.003-0.18-0.081-0.182-0.177l-0.022-1.773
		c0-0.096,0.077-0.178,0.175-0.179l0,0c0.1,0,0.182,0.078,0.181,0.178L77.102,60.592z"/>
	<path fill="#D1D2D3" d="M58.123,60.558c0.011,0.997-0.79,1.82-1.789,1.834l0,0c-1,0.013-1.821-0.789-1.836-1.788l-0.043-3.421
		c-0.011-1,0.788-1.823,1.789-1.836l0,0c1.001-0.013,1.822,0.788,1.833,1.79L58.123,60.558z"/>
	<path fill="#A6A8AC" d="M66.342,80.592c0.426-0.005,58.876,2.158,58.876,2.158l0.881,2.123l-61.012-2.14L66.342,80.592z"/>
	
		<rect x="85.724" y="99.547" transform="matrix(0.9999 -0.0129 0.0129 0.9999 -1.2992 1.2486)" fill="#BBBDBF" width="20.184" height="2.913"/>
	<path fill="#F2F2F2" d="M98.362,103.092c0.062,1.274-0.923,2.355-2.2,2.415l0,0c-1.272,0.062-2.352-0.922-2.413-2.198
		l-0.683-14.627c-0.06-1.272,0.926-2.355,2.199-2.413l0,0c1.273-0.06,2.354,0.925,2.417,2.198L98.362,103.092z"/>
	<g>
		<rect x="30.976" y="2.598" transform="matrix(1 -0.001 0.001 1 -0.0308 0.0359)" fill="#FAA62C" width="8.103" height="55.009"/>
		<polygon fill="#FAA62C" points="51.255,57.592 43.154,57.601 43.104,2.591 51.205,2.587 		"/>
		<rect x="39.105" y="57.602" fill="#D1D2D3" width="4.05" height="4.049"/>
		<rect x="32.362" y="2.601" fill="#F2F2F2" width="0.639" height="55.008"/>
		<rect x="34.602" y="2.6" fill="#F2F2F2" width="0.638" height="55.007"/>
		<rect x="37.052" y="2.596" fill="#F2F2F2" width="0.641" height="55.01"/>
		<rect x="44.514" y="2.589" fill="#F2F2F2" width="0.639" height="55.009"/>
		<polygon fill="#F2F2F2" points="47.417,57.599 46.78,57.597 46.729,2.586 47.368,2.59 		"/>
		<rect x="49.206" y="2.588" fill="#F2F2F2" width="0.639" height="55.005"/>
		<rect x="39.077" y="3.876" fill="#414142" width="4.052" height="53.727"/>
	</g>
	<g>
		<polygon fill="#FAA62C" points="19.018,70.023 27.108,70.431 24.372,125.368 16.279,124.964 		"/>
		<polygon fill="#FAA62C" points="6.878,69.422 14.969,69.824 12.234,124.759 4.142,124.361 		"/>
		
			<rect x="15.07" y="65.876" transform="matrix(-0.9988 -0.0498 0.0498 -0.9988 30.7873 136.5678)" fill="#D1D2D3" width="4.049" height="4.049"/>
		
			<rect x="23.715" y="70.311" transform="matrix(-0.9987 -0.051 0.051 -0.9987 43.0472 196.7248)" fill="#F2F2F2" width="0.641" height="55.004"/>
		
			<rect x="21.483" y="70.197" transform="matrix(-0.9988 -0.0483 0.0483 -0.9988 38.8624 196.3401)" fill="#F2F2F2" width="0.637" height="55.008"/>
		
			<rect x="19.032" y="70.076" transform="matrix(-0.9989 -0.0479 0.0479 -0.9989 34.0103 195.9745)" fill="#F2F2F2" width="0.642" height="55.009"/>
		
			<rect x="11.578" y="69.704" transform="matrix(-0.9987 -0.051 0.051 -0.9987 18.8285 194.8946)" fill="#F2F2F2" width="0.642" height="55.006"/>
		
			<rect x="9.342" y="69.593" transform="matrix(-0.9987 -0.0504 0.0504 -0.9987 14.4174 194.5539)" fill="#F2F2F2" width="0.639" height="55.005"/>
		
			<rect x="6.896" y="69.471" transform="matrix(-0.9986 -0.052 0.052 -0.9986 9.3819 194.1936)" fill="#F2F2F2" width="0.639" height="55.007"/>
		
			<rect x="13.629" y="69.89" transform="matrix(-0.9988 -0.0493 0.0493 -0.9988 26.5253 194.1636)" fill="#414142" width="4.053" height="53.729"/>
	</g>
	
		<rect x="14.244" y="61.579" transform="matrix(0.9999 -0.0129 0.0129 0.9999 -0.8171 0.4664)" fill="#BBBDBF" width="43.279" height="4.477"/>
	<path fill="#D1D2D3" d="M49.387,67.468c0.303-0.016,8.865-0.114,8.865-0.114s1.366-7.228,1.008-7.235
		c-1.33-0.027-9.118-0.275-9.68,0.113c-0.481,0.329-0.748,5.402-0.415,6.853C49.222,67.333,49.293,67.475,49.387,67.468z"/>
	<g>
		
			<rect x="43.642" y="69.855" transform="matrix(-0.9999 0.013 -0.013 -0.9999 96.6478 194.0871)" fill="#FAA62C" width="8.101" height="55.007"/>
		
			<rect x="31.492" y="70.009" transform="matrix(-0.9999 0.0127 -0.0127 -0.9999 72.3155 194.5692)" fill="#FAA62C" width="8.101" height="55.009"/>
		
			<rect x="39.213" y="65.883" transform="matrix(-0.9999 0.0129 -0.0129 -0.9999 83.3483 135.2812)" fill="#D1D2D3" width="4.05" height="4.053"/>
		
			<rect x="49.718" y="69.824" transform="matrix(-0.9999 0.0168 -0.0168 -0.9999 101.7037 193.8017)" fill="#F2F2F2" width="0.639" height="55.007"/>
		
			<rect x="47.48" y="69.852" transform="matrix(-0.9999 0.0115 -0.0115 -0.9999 96.711 194.1583)" fill="#F2F2F2" width="0.639" height="55.008"/>
		
			<rect x="45.03" y="69.884" transform="matrix(-1 0.0092 -0.0092 -1 91.5899 194.3528)" fill="#F2F2F2" width="0.637" height="55.006"/>
		
			<rect x="37.562" y="69.979" transform="matrix(-0.9999 0.0159 -0.0159 -0.9999 77.3168 194.3504)" fill="#F2F2F2" width="0.644" height="55.007"/>
		
			<rect x="35.329" y="70.009" transform="matrix(-0.9999 0.013 -0.013 -0.9999 72.5635 194.5509)" fill="#F2F2F2" width="0.637" height="55.007"/>
		<polygon fill="#F2F2F2" points="32.522,70.046 33.162,70.036 33.87,125.038 33.23,125.052 		"/>
		
			<rect x="39.584" y="69.933" transform="matrix(-0.9999 0.0124 -0.0124 -0.9999 84.4177 193.0683)" fill="#414142" width="4.051" height="53.727"/>
	</g>
	<g>
		
			<rect x="145.332" y="5.336" transform="matrix(1 0.0028 -0.0028 1 0.0936 -0.423)" fill="#FAA62C" width="8.102" height="55.008"/>
		
			<rect x="157.483" y="5.374" transform="matrix(1 0.0031 -0.0031 1 0.1018 -0.4964)" fill="#FAA62C" width="8.102" height="55.005"/>
		
			<rect x="153.343" y="60.359" transform="matrix(1 0.0023 -0.0023 1 0.1432 -0.3555)" fill="#D1D2D3" width="4.053" height="4.055"/>
		<rect x="146.717" y="5.329" fill="#F2F2F2" width="0.638" height="55.008"/>
		<rect x="148.954" y="5.336" fill="#F2F2F2" width="0.644" height="55.007"/>
		<rect x="151.407" y="5.34" fill="#F2F2F2" width="0.64" height="55.01"/>
		<rect x="158.868" y="5.363" fill="#F2F2F2" width="0.64" height="55.011"/>
		<rect x="161.109" y="5.371" fill="#F2F2F2" width="0.641" height="55.01"/>
		
			<rect x="163.561" y="5.381" transform="matrix(1 0.0092 -0.0092 1 0.3091 -1.5043)" fill="#F2F2F2" width="0.638" height="55.006"/>
		
			<rect x="153.431" y="6.633" transform="matrix(1 0.0029 -0.0029 1 0.0976 -0.4499)" fill="#414142" width="4.048" height="53.727"/>
	</g>
	<g>
		
			<rect x="170.481" y="6.309" transform="matrix(0.9997 0.0252 -0.0252 0.9997 0.9069 -4.3846)" fill="#FAA62C" width="8.105" height="55.009"/>
		
			<rect x="182.63" y="6.62" transform="matrix(0.9997 0.0256 -0.0256 0.9997 0.933 -4.7595)" fill="#FAA62C" width="8.101" height="55.008"/>
		
			<rect x="177.834" y="61.462" transform="matrix(0.9997 0.0252 -0.0252 0.9997 1.6578 -4.5144)" fill="#D1D2D3" width="4.048" height="4.05"/>
		<polygon fill="#F2F2F2" points="171.808,61.255 171.171,61.244 172.563,6.25 173.201,6.267 		"/>
		
			<rect x="174.104" y="6.305" transform="matrix(0.9997 0.0244 -0.0244 0.9997 0.877 -4.2462)" fill="#F2F2F2" width="0.64" height="55.01"/>
		
			<rect x="176.556" y="6.369" transform="matrix(0.9997 0.0251 -0.0251 0.9997 0.9069 -4.4334)" fill="#F2F2F2" width="0.641" height="55.006"/>
		
			<rect x="184.015" y="6.558" transform="matrix(0.9997 0.0258 -0.0258 0.9997 0.9405 -4.7459)" fill="#F2F2F2" width="0.643" height="55.009"/>
		
			<rect x="186.253" y="6.616" transform="matrix(0.9997 0.0252 -0.0252 0.9997 0.9177 -4.684)" fill="#F2F2F2" width="0.64" height="55.007"/>
		<polyline fill="#F2F2F2" points="189.404,6.677 190.041,6.695 188.646,61.684 188.008,61.667 		"/>
		
			<rect x="178.564" y="7.744" transform="matrix(0.9997 0.0257 -0.0257 0.9997 0.9484 -4.6265)" fill="#414142" width="4.05" height="53.729"/>
	</g>
	<path fill="#808184" d="M47.88,66.204l1.286,0.881c0,0-0.216-6.232,0.415-6.853l-1.757,1.608L47.88,66.204z"/>
	<path fill="#414142" d="M110.797,73.382c-1.675,1.044-29.94-0.401-31.219-1.467c-1.279-1.07-1.635-6.504-1.635-6.504l34.397-0.439
		C112.34,64.971,112.478,72.341,110.797,73.382z"/>
	<path fill="#BBBDBF" d="M58.273,67.573c0.107,0.989,25.104,0.993,26.451,0.763c1.346-0.232,1.249-2.435,1.241-3.002
		c-0.009-0.568,0.582-4.626-0.344-4.616c-0.921,0.014-25.881-0.734-26.8-0.58C57.897,60.292,58.031,65.268,58.273,67.573z"/>
	<path fill="#929497" d="M78.815,61.337c-0.675-0.081-0.016-1.16,1.475-1.394c1.492-0.233,5.609-0.427,5.755-0.073
		c0.147,0.353,0.024,1.707,0.024,1.707S83.797,61.936,78.815,61.337z"/>
	<path fill="#808184" d="M108.034,61.791l-1.366,3.001l0.06,4.623c0,0-18.801-0.26-20.134-0.739
		c-1.332-0.477-0.977-7.805-0.42-7.741C86.731,60.998,101.085,61.312,108.034,61.791z"/>
	<path fill="#BBBDBF" d="M132.502,62.577c-0.096-0.989-23.467-1.014-24.728-0.782c-1.259,0.227-1.165,2.429-1.156,3
		c0.007,0.57-0.541,4.626,0.325,4.612c0.865-0.009,24.195,0.757,25.058,0.603C132.862,69.857,132.732,64.884,132.502,62.577z"/>
	<polygon fill="#D1D2D3" points="98.682,86.223 102.875,88.015 102.507,90.65 97.985,88.468 	"/>
	<g>
		
			<rect x="181.769" y="72.662" transform="matrix(-0.9999 0.0128 -0.0128 -0.9999 372.9124 197.9383)" fill="#FAA62C" width="8.103" height="55.008"/>
		
			<rect x="169.618" y="72.82" transform="matrix(-0.9999 0.0133 -0.0133 -0.9999 348.6609 198.3274)" fill="#FAA62C" width="8.104" height="55.008"/>
		
			<rect x="177.34" y="68.69" transform="matrix(-0.9999 0.0128 -0.0128 -0.9999 359.6204 139.1344)" fill="#D1D2D3" width="4.051" height="4.052"/>
		
			<rect x="187.848" y="72.632" transform="matrix(-0.9999 0.0123 -0.0123 -0.9999 377.5475 197.9561)" fill="#F2F2F2" width="0.637" height="55.007"/>
		
			<rect x="185.61" y="72.662" transform="matrix(-0.9998 0.0183 -0.0183 -0.9998 373.6649 196.9083)" fill="#F2F2F2" width="0.639" height="55.01"/>
		
			<rect x="183.158" y="72.693" transform="matrix(-0.9999 0.0115 -0.0115 -0.9999 368.0924 198.2843)" fill="#F2F2F2" width="0.638" height="55.01"/>
		<polygon fill="#F2F2F2" points="175.342,72.797 175.979,72.789 176.689,127.79 176.046,127.801 		"/>
		
			<rect x="173.456" y="72.817" transform="matrix(-0.9999 0.016 -0.016 -0.9999 349.1382 197.8436)" fill="#F2F2F2" width="0.639" height="55.01"/>
		
			<rect x="171.005" y="72.85" transform="matrix(-1 0.0084 -0.0084 -1 343.486 199.2592)" fill="#F2F2F2" width="0.638" height="55.006"/>
		
			<rect x="177.713" y="72.74" transform="matrix(-0.9999 0.013 -0.013 -0.9999 360.757 196.8607)" fill="#414142" width="4.049" height="53.73"/>
	</g>
	<g>
		
			<rect x="156.749" y="72.159" transform="matrix(-0.9999 -0.0113 0.0113 -0.9999 320.4623 201.1403)" fill="#FAA62C" width="8.104" height="55.006"/>
		<polygon fill="#FAA62C" points="144.901,71.98 153.004,72.07 152.394,127.076 144.296,126.983 		"/>
		
			<rect x="153.027" y="68.042" transform="matrix(-0.9999 -0.0108 0.0108 -0.9999 309.3357 141.8133)" fill="#D1D2D3" width="4.051" height="4.052"/>
		
			<rect x="162.827" y="72.186" transform="matrix(-0.9999 -0.0107 0.0107 -0.9999 325.2198 201.1176)" fill="#F2F2F2" width="0.64" height="55.007"/>
		<polygon fill="#F2F2F2" points="160.894,72.156 161.535,72.167 160.924,127.17 160.283,127.16 		"/>
		<rect x="158.135" y="72.131" fill="#F2F2F2" width="0.642" height="55.01"/>
		<polygon fill="#F2F2F2" points="150.979,72.048 151.622,72.057 151.009,127.062 150.37,127.051 		"/>
		
			<rect x="148.438" y="72.025" transform="matrix(-1 -0.0099 0.0099 -1 296.5164 200.5341)" fill="#F2F2F2" width="0.638" height="55.009"/>
		<polygon fill="#F2F2F2" points="146.291,71.998 146.928,72.002 146.321,127.008 145.68,126.998 		"/>
		
			<rect x="152.707" y="72.091" transform="matrix(-0.9999 -0.0112 0.0112 -0.9999 308.3458 199.6391)" fill="#414142" width="4.051" height="53.729"/>
	</g>
	<path fill="#BBBDBF" d="M183.364,65.062c-0.399-0.254-40.475-1.114-40.475-1.114l0.052,4.147l40.473,0.9l-0.048-3.625"/>
	<path fill="#E7E7E7" d="M116.619,65.9c0.004,0.363-0.284,0.656-0.643,0.663c-0.359,0.001-0.655-0.284-0.659-0.646
		c-0.002-0.355,0.281-0.65,0.644-0.657C116.316,65.254,116.611,65.545,116.619,65.9z"/>
	<path fill="#E7E7E7" d="M119.875,65.894c0.006,0.36-0.281,0.653-0.638,0.662c-0.363,0-0.655-0.285-0.663-0.646
		c-0.002-0.355,0.283-0.651,0.641-0.658C119.576,65.25,119.872,65.535,119.875,65.894z"/>
	<path fill="#E7E7E7" d="M123.785,65.845c0.003,0.358-0.285,0.655-0.643,0.655c-0.362,0.008-0.654-0.281-0.658-0.64
		c-0.006-0.359,0.281-0.654,0.641-0.659C123.485,65.198,123.779,65.484,123.785,65.845z"/>
	<path fill="#E7E7E7" d="M73.899,64.199c0.005,0.36-0.286,0.652-0.641,0.658c-0.36,0.008-0.655-0.284-0.658-0.642
		c-0.005-0.357,0.283-0.653,0.643-0.657C73.601,63.551,73.895,63.84,73.899,64.199z"/>
	<path fill="#E7E7E7" d="M71.116,64.234c0.006,0.359-0.282,0.656-0.638,0.658c-0.363,0.005-0.66-0.283-0.661-0.643
		c-0.004-0.355,0.283-0.651,0.642-0.657C70.817,63.591,71.113,63.876,71.116,64.234z"/>
	<circle fill="#E7E7E7" cx="67.604" cy="64.219" r="0.651"/>
	<path fill="#6E6F71" d="M111.338,75.29c0.012,1.196-0.942,2.176-2.141,2.192l-20.407-0.268c-1.196,0.015-2.175-0.944-2.191-2.145
		l0,0c-0.015-1.194,0.94-2.178,2.14-2.192l20.401,0.271C110.339,73.134,111.323,74.092,111.338,75.29L111.338,75.29z"/>
	<path fill="#D1D2D3" d="M98.956,86.553c-0.456,2.23-2.634,3.669-4.863,3.214l0,0c-2.23-0.453-3.67-2.632-3.213-4.86l3.578-17.786
		c0.454-2.231,2.632-3.667,4.861-3.213l0,0c2.232,0.458,3.669,2.633,3.215,4.861L98.956,86.553z"/>
	<path fill="#A6A8AC" d="M98.328,85.774c0.024,1.914-1.506,3.484-3.42,3.508c-1.917,0.025-3.489-1.505-3.514-3.424
		c-0.024-1.911,1.508-3.484,3.423-3.505C96.731,82.325,98.303,83.858,98.328,85.774z"/>
	<path fill="#E7E7E7" d="M97.553,85.779c0.021,1.49-1.172,2.711-2.657,2.729c-1.49,0.021-2.707-1.171-2.727-2.658
		c-0.018-1.48,1.167-2.706,2.659-2.725C96.31,83.105,97.535,84.297,97.553,85.779z"/>
	<circle fill="#E7E7E7" cx="103.897" cy="75.104" r="0.481"/>
	<circle fill="#E7E7E7" cx="106.307" cy="75.1" r="0.481"/>
	<path fill="#E7E7E7" d="M109.681,75.053c0.005,0.267-0.212,0.487-0.474,0.49c-0.27,0.001-0.486-0.209-0.49-0.478
		c-0.001-0.265,0.209-0.479,0.476-0.485C109.459,74.58,109.676,74.791,109.681,75.053z"/>
</g>
</svg>
