<?xml version="1.0" encoding="utf-8"?>
<!-- Generator: Adobe Illustrator 16.0.0, SVG Export Plug-In . SVG Version: 6.00 Build 0)  -->
<!DOCTYPE svg PUBLIC "-//W3C//DTD SVG 1.1//EN" "http://www.w3.org/Graphics/SVG/1.1/DTD/svg11.dtd">
<svg version="1.1" id="Layer_1" xmlns="http://www.w3.org/2000/svg" xmlns:xlink="http://www.w3.org/1999/xlink" x="0px" y="0px"
	 width="195.511px" height="156.864px" viewBox="0 0 195.511 156.864" enable-background="new 0 0 195.511 156.864"
	 xml:space="preserve">
<g>
	<path fill="#BBBDBF" d="M93.851,69.938c0.932-0.107,1.161,2.5,0.446,2.84c-0.711,0.339-1.577,0.077-1.484-0.761
		C92.905,71.174,92.801,70.06,93.851,69.938z"/>
	<path fill="#BBBDBF" d="M102.398,74.624c1.28-0.227,10.278-2.879,10.54-2.605c0.266,0.277-3.519,5.958-3.607,6.274
		c-0.086,0.313-1.1,0.308-0.883-0.242c0.219-0.553,2.933-5.033,2.933-5.033s-8.962,3.028-9.165,2.272
		C102.019,74.536,101.366,74.809,102.398,74.624z"/>
	<path fill="#E7E7E7" d="M137.058,87.036c-0.273-0.061-7.873-2.145-7.873-2.145s-2.327,6.243-2.014,6.338
		c1.166,0.363,7.287,2.362,7.883,2.161c0.51-0.171,2.031-4.591,2.104-5.96C137.169,87.198,137.142,87.053,137.058,87.036z"/>
	<path fill="#929497" d="M138.071,88.538l-0.914-1.107c0,0-1.389,5.571-2.104,5.96l1.963-0.981L138.071,88.538z"/>
	<g>
		
			<rect x="26.191" y="0.09" transform="matrix(0.9648 0.2629 -0.2629 0.9648 7.7308 -6.9715)" fill="#FAA62C" width="7.456" height="50.63"/>
		
			<rect x="36.982" y="3.03" transform="matrix(0.9649 0.2627 -0.2627 0.9649 8.8767 -9.6993)" fill="#FAA62C" width="7.455" height="50.629"/>
		
			<rect x="26.306" y="51.233" transform="matrix(0.9649 0.2626 -0.2626 0.9649 14.9344 -5.5345)" fill="#D1D2D3" width="3.728" height="3.727"/>
		
			<rect x="27.541" y="-0.475" transform="matrix(0.9643 0.2649 -0.2649 0.9643 7.573 -6.4857)" fill="#F2F2F2" width="0.59" height="50.627"/>
		
			<rect x="29.528" y="0.066" transform="matrix(0.9651 0.2618 -0.2618 0.9651 7.6841 -6.9221)" fill="#F2F2F2" width="0.589" height="50.628"/>
		
			<rect x="31.706" y="0.656" transform="matrix(0.9643 0.2647 -0.2647 0.9643 8.0145 -7.5432)" fill="#F2F2F2" width="0.59" height="50.629"/>
		
			<rect x="38.332" y="2.464" transform="matrix(0.9647 0.2632 -0.2632 0.9647 8.6724 -9.1867)" fill="#F2F2F2" width="0.588" height="50.627"/>
		
			<rect x="40.322" y="3.005" transform="matrix(0.9646 0.2637 -0.2637 0.9646 8.9072 -9.7097)" fill="#F2F2F2" width="0.589" height="50.627"/>
		
			<rect x="42.499" y="3.599" transform="matrix(0.9644 0.2646 -0.2646 0.9644 9.1753 -10.2922)" fill="#F2F2F2" width="0.587" height="50.627"/>
		
			<rect x="33.295" y="2.716" transform="matrix(0.9648 0.2629 -0.2629 0.9648 8.4529 -8.2791)" fill="#414142" width="3.729" height="49.453"/>
	</g>
	<path fill="#BBBDBF" d="M93.385,70.898c0,0-1.485,0.504-1.778,1.563l0.624,0.198c0,0,0.974-0.838,1.494-0.879L93.385,70.898z"/>
	<path fill="#BBBDBF" d="M70.539,65.42c-0.083,0.31-0.409,0.495-0.722,0.414l0,0c-0.312-0.086-0.5-0.41-0.413-0.725l0.496-1.828
		c0.088-0.315,0.411-0.502,0.724-0.414l0,0c0.314,0.084,0.5,0.409,0.414,0.723L70.539,65.42z"/>
	<path fill="#BBBDBF" d="M80.71,68.904c-0.023,0.088-0.116,0.141-0.201,0.118l0,0c-0.088-0.023-0.138-0.118-0.117-0.203l0.43-1.575
		c0.024-0.085,0.113-0.139,0.2-0.114l0,0c0.088,0.025,0.141,0.114,0.115,0.203L80.71,68.904z"/>
	<path fill="#D1D2D3" d="M63.926,64.067c-0.242,0.885-1.159,1.411-2.047,1.17l0,0c-0.888-0.241-1.412-1.159-1.172-2.047l0.828-3.038
		c0.243-0.887,1.159-1.413,2.047-1.171l0,0c0.889,0.242,1.413,1.158,1.169,2.048L63.926,64.067z"/>
	<path fill="#A6A8AC" d="M66.125,83.875c0.378,0.104,51.548,16.823,51.548,16.823l0.242,2.102L64.472,85.453L66.125,83.875z"/>
	
		<rect x="77.744" y="108.061" transform="matrix(0.9649 0.2627 -0.2627 0.9649 31.8024 -19.0236)" fill="#BBBDBF" width="18.577" height="2.681"/>
	<path fill="#F2F2F2" d="M88.757,111.895c-0.268,1.143-1.414,1.85-2.558,1.58l0,0c-1.142-0.269-1.847-1.412-1.579-2.557
		l3.102-13.115c0.269-1.141,1.416-1.85,2.557-1.578l0,0c1.142,0.27,1.849,1.414,1.582,2.557L88.757,111.895z"/>
	<g>
		
			<rect x="47.476" y="5.955" transform="matrix(0.9617 0.2743 -0.2743 0.9617 10.5395 -12.8445)" fill="#FAA62C" width="7.458" height="50.629"/>
		
			<rect x="58.232" y="9.023" transform="matrix(0.9617 0.2741 -0.2741 0.9617 11.7867 -15.6699)" fill="#FAA62C" width="7.456" height="50.629"/>
		
			<rect x="47.262" y="57.076" transform="matrix(0.9615 0.2747 -0.2747 0.9615 18.0807 -11.2276)" fill="#D1D2D3" width="3.727" height="3.727"/>
		
			<rect x="48.834" y="5.363" transform="matrix(0.9619 0.2733 -0.2733 0.9619 10.2543 -12.2586)" fill="#F2F2F2" width="0.588" height="50.628"/>
		
			<rect x="50.816" y="5.929" transform="matrix(0.9611 0.276 -0.276 0.9611 10.61 -12.8945)" fill="#F2F2F2" width="0.587" height="50.627"/>
		
			<rect x="52.985" y="6.547" transform="matrix(0.9606 0.278 -0.278 0.9606 10.9577 -13.5559)" fill="#F2F2F2" width="0.59" height="50.629"/>
		
			<rect x="59.59" y="8.431" transform="matrix(0.9629 0.27 -0.27 0.9629 11.3352 -14.9153)" fill="#F2F2F2" width="0.588" height="50.628"/>
		<polygon fill="#F2F2F2" points="55.203,58.737 54.64,58.574 68.528,9.886 69.093,10.051 		"/>
		
			<rect x="63.742" y="9.618" transform="matrix(0.9613 0.2756 -0.2756 0.9613 12.1067 -16.2954)" fill="#F2F2F2" width="0.588" height="50.626"/>
		
			<rect x="54.555" y="8.647" transform="matrix(0.9615 0.2747 -0.2747 0.9615 11.3385 -14.2156)" fill="#414142" width="3.729" height="49.449"/>
	</g>
	<g>
		
			<rect x="18.558" y="62.387" transform="matrix(-0.9463 -0.3232 0.3232 -0.9463 15.0311 177.8963)" fill="#FAA62C" width="7.456" height="50.626"/>
		<polygon fill="#FAA62C" points="16.337,58.93 23.395,61.334 7.059,109.25 0,106.848 		"/>
		
			<rect x="23.899" y="58.308" transform="matrix(-0.9465 -0.3227 0.3227 -0.9465 30.7327 125.4367)" fill="#D1D2D3" width="3.727" height="3.727"/>
		
			<rect x="24.033" y="63.085" transform="matrix(-0.9463 -0.3232 0.3232 -0.9463 18.7817 179.9126)" fill="#F2F2F2" width="0.589" height="50.624"/>
		
			<rect x="22.086" y="62.418" transform="matrix(-0.947 -0.3212 0.3212 -0.947 15.3909 178.0031)" fill="#F2F2F2" width="0.587" height="50.628"/>
		
			<rect x="19.948" y="61.691" transform="matrix(-0.9468 -0.3217 0.3217 -0.9468 11.4227 175.8967)" fill="#F2F2F2" width="0.59" height="50.628"/>
		
			<rect x="13.447" y="59.474" transform="matrix(-0.9463 -0.3234 0.3234 -0.9463 -0.6754 169.461)" fill="#F2F2F2" width="0.59" height="50.626"/>
		
			<rect x="11.497" y="58.809" transform="matrix(-0.9462 -0.3237 0.3237 -0.9462 -4.2822 167.53)" fill="#F2F2F2" width="0.588" height="50.625"/>
		
			<rect x="9.362" y="58.081" transform="matrix(-0.9458 -0.3247 0.3247 -0.9458 -8.2877 165.4066)" fill="#F2F2F2" width="0.588" height="50.627"/>
		
			<rect x="15.316" y="60.612" transform="matrix(-0.9466 -0.3223 0.3223 -0.9466 5.943 171.6596)" fill="#414142" width="3.73" height="49.451"/>
	</g>
	
		<rect x="23.505" y="59.258" transform="matrix(0.9648 0.2628 -0.2628 0.9648 17.6427 -9.2567)" fill="#BBBDBF" width="39.833" height="4.121"/>
	<path fill="#D1D2D3" d="M54.446,67.969c0.272,0.063,7.873,2.145,7.873,2.145s3.04-6.049,2.725-6.146
		c-1.169-0.361-7.998-2.553-8.594-2.352c-0.509,0.169-2.029,4.591-2.103,5.958C54.333,67.807,54.361,67.951,54.446,67.969z"/>
	<g>
		
			<rect x="41.646" y="68.673" transform="matrix(-0.9649 -0.2627 0.2627 -0.9649 64.4684 196.5914)" fill="#FAA62C" width="7.456" height="50.627"/>
		
			<rect x="30.857" y="65.732" transform="matrix(-0.9648 -0.263 0.263 -0.9648 44.0055 187.9838)" fill="#FAA62C" width="7.456" height="50.629"/>
		
			<rect x="45.26" y="64.429" transform="matrix(-0.9649 -0.2627 0.2627 -0.9649 75.1748 142.6404)" fill="#D1D2D3" width="3.727" height="3.73"/>
		
			<rect x="47.164" y="69.241" transform="matrix(-0.9656 -0.2601 0.2601 -0.9656 68.6894 198.1976)" fill="#F2F2F2" width="0.588" height="50.627"/>
		
			<rect x="45.176" y="68.698" transform="matrix(-0.9645 -0.264 0.264 -0.9645 64.5123 196.6925)" fill="#F2F2F2" width="0.588" height="50.628"/>
		
			<rect x="43" y="68.106" transform="matrix(-0.9638 -0.2666 0.2666 -0.9638 60.1174 194.9973)" fill="#F2F2F2" width="0.586" height="50.626"/>
		
			<rect x="36.369" y="66.299" transform="matrix(-0.9657 -0.2598 0.2598 -0.9657 48.273 189.6049)" fill="#F2F2F2" width="0.592" height="50.627"/>
		
			<rect x="34.385" y="65.759" transform="matrix(-0.9649 -0.2625 0.2625 -0.9649 44.2361 188.0537)" fill="#F2F2F2" width="0.586" height="50.627"/>
		<polygon fill="#F2F2F2" points="38.87,65.978 39.439,66.131 26.133,114.978 25.563,114.828 		"/>
		
			<rect x="38.271" y="67.224" transform="matrix(-0.9647 -0.2633 0.2633 -0.9647 54.6487 191.2202)" fill="#414142" width="3.728" height="49.45"/>
	</g>
	<g>
		
			<rect x="147.968" y="37.343" transform="matrix(0.9606 0.2779 -0.2779 0.9606 23.3879 -39.6886)" fill="#FAA62C" width="7.457" height="50.627"/>
		
			<rect x="158.71" y="40.455" transform="matrix(0.9605 0.2782 -0.2782 0.9605 24.7067 -42.5911)" fill="#FAA62C" width="7.456" height="50.625"/>
		
			<rect x="147.645" y="88.452" transform="matrix(0.9607 0.2775 -0.2775 0.9607 30.9332 -37.94)" fill="#D1D2D3" width="3.73" height="3.732"/>
		
			<rect x="149.328" y="36.743" transform="matrix(0.9601 0.2796 -0.2796 0.9601 23.3134 -39.3528)" fill="#F2F2F2" width="0.587" height="50.627"/>
		
			<rect x="151.306" y="37.317" transform="matrix(0.9599 0.2804 -0.2804 0.9599 23.6412 -39.9939)" fill="#F2F2F2" width="0.592" height="50.627"/>
		
			<rect x="153.475" y="37.94" transform="matrix(0.9623 0.2721 -0.2721 0.9623 23.0127 -39.4527)" fill="#F2F2F2" width="0.589" height="50.63"/>
		
			<rect x="160.07" y="39.851" transform="matrix(0.9623 0.2721 -0.2721 0.9623 23.7814 -41.1751)" fill="#F2F2F2" width="0.589" height="50.631"/>
		
			<rect x="162.051" y="40.426" transform="matrix(0.9601 0.2797 -0.2797 0.9601 24.8726 -42.7909)" fill="#F2F2F2" width="0.59" height="50.629"/>
		
			<rect x="164.219" y="41.056" transform="matrix(0.9586 0.2846 -0.2846 0.9586 25.6916 -44.0755)" fill="#F2F2F2" width="0.587" height="50.625"/>
		
			<rect x="155.04" y="40.053" transform="matrix(0.9606 0.2781 -0.2781 0.9606 24.2015 -41.0762)" fill="#414142" width="3.726" height="49.449"/>
	</g>
	<g>
		
			<rect x="169.974" y="44.575" transform="matrix(0.9542 0.2993 -0.2993 0.9542 28.8794 -48.784)" fill="#FAA62C" width="7.459" height="50.63"/>
		
			<rect x="180.645" y="47.927" transform="matrix(0.954 0.2998 -0.2998 0.954 30.438 -51.9054)" fill="#FAA62C" width="7.456" height="50.628"/>
		
			<rect x="169.036" y="95.631" transform="matrix(0.9541 0.2993 -0.2993 0.9541 37.0218 -46.6877)" fill="#D1D2D3" width="3.726" height="3.728"/>
		
			<rect x="171.348" y="43.926" transform="matrix(0.9561 0.2931 -0.2931 0.9561 27.8388 -47.2746)" fill="#F2F2F2" width="0.586" height="50.631"/>
		
			<rect x="173.314" y="44.544" transform="matrix(0.9545 0.2983 -0.2983 0.9545 28.7399 -48.6031)" fill="#F2F2F2" width="0.589" height="50.63"/>
		
			<rect x="175.467" y="45.222" transform="matrix(0.954 0.2998 -0.2998 0.954 29.2291 -49.4464)" fill="#F2F2F2" width="0.59" height="50.626"/>
		
			<rect x="182.019" y="47.279" transform="matrix(0.9538 0.3003 -0.3003 0.9538 30.2199 -51.4051)" fill="#F2F2F2" width="0.592" height="50.629"/>
		
			<rect x="183.984" y="47.897" transform="matrix(0.954 0.2998 -0.2998 0.954 30.4227 -51.8766)" fill="#F2F2F2" width="0.59" height="50.627"/>
		<polyline fill="#F2F2F2" points="193.735,49.645 194.295,49.822 179.132,98.125 178.571,97.949 		"/>
		
			<rect x="176.997" y="47.401" transform="matrix(0.954 0.2998 -0.2998 0.954 29.8445 -50.2971)" fill="#414142" width="3.727" height="49.45"/>
	</g>
	<path fill="#808184" d="M53.433,66.468l0.915,1.106c0,0,1.387-5.569,2.103-5.958l-1.962,0.978L53.433,66.468z"/>
	<path fill="#414142" d="M107.285,88.756c-1.747,0.5-26.39-7.938-27.251-9.206c-0.861-1.271,0.2-6.169,0.2-6.169l30.547,8.325
		C110.781,81.706,109.036,88.261,107.285,88.756z"/>
	<path fill="#BBBDBF" d="M62.282,70.313c-0.156,0.901,21.961,7.237,23.211,7.375c1.25,0.135,1.721-1.838,1.859-2.343
		c0.136-0.505,1.687-3.946,0.865-4.171c-0.819-0.221-22.714-7.205-23.567-7.302C63.793,63.775,62.651,68.211,62.282,70.313z"/>
	<path fill="#929497" d="M82.038,69.998c-0.578-0.242,0.28-1.031,1.658-0.859c1.379,0.171,5.071,1.043,5.111,1.393
		c0.041,0.35-0.411,1.516-0.411,1.516S86.294,71.79,82.038,69.998z"/>
	<path fill="#808184" d="M107.776,77.801l-1.969,2.309l-1.118,4.105c0,0-16.57-4.992-17.627-5.754
		c-1.058-0.76,1.112-7.154,1.588-6.956C89.128,71.703,101.749,75.617,107.776,77.801z"/>
	<path fill="#BBBDBF" d="M129.228,84.694c0.165-0.899-20.508-6.84-21.682-6.956c-1.172-0.118-1.646,1.854-1.783,2.362
		c-0.139,0.506-1.65,3.957-0.881,4.164c0.768,0.211,21.217,6.799,22.02,6.881C127.702,91.227,128.847,86.793,129.228,84.694z"/>
	<polygon fill="#D1D2D3" points="93.313,97.049 96.569,99.698 95.576,101.936 92.127,98.86 	"/>
	<g>
		
			<rect x="163.155" y="106.145" transform="matrix(-0.9648 -0.2629 0.2629 -0.9648 293.3362 302.1694)" fill="#FAA62C" width="7.459" height="50.628"/>
		
			<rect x="152.363" y="103.208" transform="matrix(-0.965 -0.2624 0.2624 -0.965 272.9941 293.4975)" fill="#FAA62C" width="7.459" height="50.628"/>
		
			<rect x="166.767" y="101.902" transform="matrix(-0.9648 -0.2629 0.2629 -0.9648 304.0456 248.221)" fill="#D1D2D3" width="3.729" height="3.729"/>
		
			<rect x="168.675" y="106.713" transform="matrix(-0.9647 -0.2633 0.2633 -0.9647 297.2181 303.8787)" fill="#F2F2F2" width="0.586" height="50.627"/>
		
			<rect x="166.686" y="106.173" transform="matrix(-0.9659 -0.2589 0.2589 -0.9659 294.225 301.7239)" fill="#F2F2F2" width="0.588" height="50.629"/>
		
			<rect x="164.509" y="105.58" transform="matrix(-0.9644 -0.2644 0.2644 -0.9644 289.1341 300.7025)" fill="#F2F2F2" width="0.587" height="50.63"/>
		<polygon fill="#F2F2F2" points="164.545,104.588 165.11,104.743 151.807,153.588 151.235,153.436 		"/>
		
			<rect x="155.892" y="103.232" transform="matrix(-0.9659 -0.2589 0.2589 -0.9659 273.7666 293.1478)" fill="#F2F2F2" width="0.588" height="50.63"/>
		
			<rect x="153.716" y="102.64" transform="matrix(-0.964 -0.2659 0.2659 -0.964 268.4477 292.2537)" fill="#F2F2F2" width="0.588" height="50.626"/>
		
			<rect x="159.78" y="104.697" transform="matrix(-0.9649 -0.2626 0.2626 -0.9649 283.6304 296.7484)" fill="#414142" width="3.726" height="49.452"/>
	</g>
	<g>
		
			<rect x="141.144" y="99.364" transform="matrix(-0.9582 -0.2861 0.2861 -0.9582 248.0206 285.59)" fill="#FAA62C" width="7.458" height="50.626"/>
		<polygon fill="#FAA62C" points="137.816,96.155 144.964,98.287 130.49,146.803 123.349,144.67 		"/>
		
			<rect x="145.419" y="95.17" transform="matrix(-0.9584 -0.2856 0.2856 -0.9584 260.7234 232.0872)" fill="#D1D2D3" width="3.727" height="3.729"/>
		
			<rect x="146.648" y="99.981" transform="matrix(-0.9583 -0.2857 0.2857 -0.9583 251.9682 287.3457)" fill="#F2F2F2" width="0.588" height="50.627"/>
		<polygon fill="#F2F2F2" points="151.923,100.362 152.487,100.534 138.015,149.047 137.45,148.875 		"/>
		
			<rect x="142.509" y="98.744" transform="matrix(-0.9592 -0.2828 0.2828 -0.9592 244.6972 283.4384)" fill="#F2F2F2" width="0.591" height="50.63"/>
		<polygon fill="#F2F2F2" points="143.178,97.754 143.743,97.924 129.269,146.44 128.706,146.268 		"/>
		
			<rect x="133.957" y="96.194" transform="matrix(-0.9586 -0.2846 0.2846 -0.9586 228.3673 276.1992)" fill="#F2F2F2" width="0.587" height="50.629"/>
		
			<rect x="131.795" y="95.549" transform="matrix(-0.9591 -0.2831 0.2831 -0.9591 224.5609 274.173)" fill="#F2F2F2" width="0.586" height="50.629"/>
		
			<rect x="137.819" y="97.788" transform="matrix(-0.9582 -0.286 0.286 -0.9582 238.4835 279.8643)" fill="#414142" width="3.728" height="49.451"/>
	</g>
	<path fill="#BBBDBF" d="M173.603,99.776c-0.289-0.326-35.531-11.238-35.531-11.238l-1.004,3.683l35.583,11.049l0.876-3.22"/>
	<path fill="#E7E7E7" d="M114.331,83.611c-0.088,0.322-0.417,0.509-0.736,0.424c-0.318-0.09-0.508-0.417-0.419-0.739
		c0.087-0.314,0.413-0.504,0.735-0.418C114.228,82.963,114.415,83.295,114.331,83.611z"/>
	<path fill="#E7E7E7" d="M117.214,84.43c-0.086,0.319-0.414,0.506-0.731,0.424c-0.321-0.092-0.508-0.418-0.423-0.739
		c0.088-0.315,0.415-0.505,0.733-0.42C117.113,83.785,117.302,84.112,117.214,84.43z"/>
	<path fill="#E7E7E7" d="M120.687,85.377c-0.088,0.318-0.418,0.508-0.734,0.418c-0.322-0.085-0.508-0.415-0.42-0.733
		c0.086-0.319,0.414-0.508,0.734-0.421C120.585,84.729,120.772,85.057,120.687,85.377z"/>
	<circle fill="#E7E7E7" cx="76.386" cy="71.127" r="0.598"/>
	<path fill="#E7E7E7" d="M74.491,70.611c-0.085,0.319-0.416,0.509-0.731,0.42c-0.323-0.087-0.512-0.417-0.422-0.736
		c0.087-0.315,0.416-0.505,0.734-0.419C74.39,69.966,74.579,70.293,74.491,70.611z"/>
	<circle fill="#E7E7E7" cx="71.388" cy="69.708" r="0.599"/>
	<path fill="#6E6F71" d="M107.28,90.582c-0.292,1.062-1.385,1.687-2.449,1.397l-17.989-5.406c-1.062-0.29-1.686-1.387-1.396-2.453
		l0,0c0.29-1.061,1.383-1.688,2.449-1.397l17.982,5.407C106.942,88.42,107.57,89.518,107.28,90.582L107.28,90.582z"/>
	<path fill="#D1D2D3" d="M93.471,97.411c-0.969,1.858-3.26,2.58-5.117,1.612l0,0c-1.858-0.966-2.58-3.259-1.611-5.114l7.67-14.832
		c0.967-1.859,3.258-2.578,5.115-1.611l0,0c1.859,0.971,2.58,3.26,1.613,5.116L93.471,97.411z"/>
	<path fill="#A6A8AC" d="M93.114,96.563c-0.464,1.699-2.215,2.701-3.916,2.238c-1.702-0.464-2.705-2.216-2.241-3.92
		c0.462-1.697,2.217-2.701,3.917-2.234C92.574,93.107,93.576,94.862,93.114,96.563z"/>
	<path fill="#E7E7E7" d="M92.426,96.372c-0.359,1.323-1.723,2.102-3.042,1.741c-1.324-0.358-2.099-1.722-1.739-3.043
		c0.358-1.314,1.717-2.099,3.043-1.737C92.003,93.69,92.786,95.055,92.426,96.372z"/>
	<circle fill="#E7E7E7" cx="100.744" cy="88.533" r="0.443"/>
	<circle fill="#E7E7E7" cx="102.877" cy="89.139" r="0.443"/>
	<path fill="#E7E7E7" d="M105.874,89.953c-0.063,0.237-0.311,0.378-0.543,0.313c-0.238-0.067-0.377-0.309-0.313-0.547
		c0.066-0.234,0.307-0.371,0.545-0.309C105.798,89.477,105.937,89.719,105.874,89.953z"/>
</g>
</svg>
