<?xml version="1.0" encoding="utf-8"?>
<!-- Generator: Adobe Illustrator 16.0.0, SVG Export Plug-In . SVG Version: 6.00 Build 0)  -->
<!DOCTYPE svg PUBLIC "-//W3C//DTD SVG 1.1//EN" "http://www.w3.org/Graphics/SVG/1.1/DTD/svg11.dtd">
<svg version="1.1" id="Layer_1" xmlns="http://www.w3.org/2000/svg" xmlns:xlink="http://www.w3.org/1999/xlink" x="0px" y="0px"
	 width="401.771px" height="401.771px" viewBox="0 0 401.771 401.771" enable-background="new 0 0 401.771 401.771"
	 xml:space="preserve">
<g>
	<g>
		<defs>
			<circle id="SVGID_1_" cx="200.886" cy="200.885" r="200.886"/>
		</defs>
		<clipPath id="SVGID_2_">
			<use xlink:href="#SVGID_1_"  overflow="visible"/>
		</clipPath>
		<g clip-path="url(#SVGID_2_)">
			<rect x="-14.043" y="-18.614" fill="#3F3F3F" width="421.761" height="323.308"/>
			<path fill="#2D2D2D" d="M42.17,171.982l-2.748,11.505c0,0-7.793-0.158-21.157-4.566c-9.701-3.201-90.69-3.47-104.96-1.735
				c-14.27,1.735-29.564,8.674-29.564,8.674l-1.425-10.987h-14.58l2.23,126.953l18.594-4.111l0.957-33.77l144.145,1.036
				l-0.136,47.047l21.771,2.465V171.982H42.17z M34.731,241.937h-148.104l-1.349-41.977c61.725-27.757,152.386-0.618,152.386-0.618
				L34.731,241.937z"/>
			<rect x="-5.35" y="302.988" fill="#ADADAD" width="413.068" height="112.397"/>
			<path fill="#FFFFFF" d="M228.986,310.29c45.429,0,92.639,0.539,92.639,18.862s-55.229,27.486-92.639,27.486
				c-37.413,0-77.052-7.545-77.052-23.174C151.935,317.834,200.48,310.29,228.986,310.29z"/>
			<path fill="#F2F2F2" d="M230.985,314.723c41.204,0,84.022,0.404,84.022,14.139s-50.091,20.602-84.022,20.602
				s-69.886-5.654-69.886-17.369C161.099,320.377,205.131,314.723,230.985,314.723z"/>
			<path fill="#FFDA89" d="M205.53,306.955c13.038-3.801,23.899,2.411,30.896,3.872c6.996,1.459,4.686-2.529,12.662,3.194
				c7.979,5.725,13.94-2.145,13.41,3.96c-0.532,6.105,4.874,9.271-7.94,8.557c-12.813-0.716-47.071,7.477-50.584-2.66
				C200.462,313.742,205.53,306.955,205.53,306.955z"/>
			<path fill="#2D2D2D" d="M329.17,171.908l-2.748,10.214c0,0-7.793-0.14-21.157-4.054c-9.701-2.841-90.69-3.08-104.96-1.54
				c-14.27,1.54-29.564,7.7-29.564,7.7l-1.425-9.753h-14.579l2.229,112.7l18.594-3.649l0.957-29.978l144.145,0.919l-0.136,41.766
				l21.771,2.188V171.908H329.17z M321.731,234.008H173.628l-1.349-37.264c61.725-24.641,152.386-0.549,152.386-0.549
				L321.731,234.008z"/>
			<path fill="#A8887B" d="M218.977,258.611c-5.646-5.646-6.16-14.373-6.16-14.373s-2.054,7.187-4.621,0
				c-2.566-7.188-6.16-11.295-9.239-15.401c-3.079-4.107,1.026-4.62,0-8.213c-1.027-3.594-14.888-30.288,6.673-46.715
				c21.561-16.427,30.288-20.534,48.256-13.347c17.968,7.187,27.72,20.021,26.181,35.934c-1.54,15.915,0.158,8.214,0.158,8.214
				s2.922-5.452,3.435,3.177c0.514,8.629,2.566,10.683,0,16.33c-2.567,5.646-6.36,9.753-8.57,7.187c0,0,1.385,12.835-3.749,20.534
				l10.78,1.54l9.754,7.7c0,0-21.562,25.154-43.123,21.562c-21.561-3.593-36.388-18.479-35.42-25.154L218.977,258.611z"/>
			<path fill="#A8887B" d="M163.021,280.392l-15.914,2.698c0,0-12.833,0.603-15.4-2.698c0,0,2.054-10.999-3.08-14.593
				c-5.133-3.595-10.78-4.106-11.293,0c0,0-11.808-4.622-15.914,5.132c-4.106,9.755-7.187,25.154,0,28.749
				c7.187,3.593,11.807-1.028,17.454,2.566c5.646,3.593,15.4,3.081,23.101,2.566c7.7-0.513,15.4-2.566,15.4-2.566l11.293-1.54
				L163.021,280.392z"/>
			<path fill="#D8BDDB" d="M215.175,252.625c0,0-15.901-2.741-21.353,1.88c-5.452,4.62-3.398,6.025-5.452,8.403
				c-2.054,2.376-10.267,4.431-14.887,8.023c-4.62,3.594-16.427,9.46-16.427,9.46s6.641,1.729,9.224,11.021
				s-2.732,10.018-2.732,10.018l-9.121,1.558h149.66c0,0,14.337-16.027,15.7-18.946c1.366-2.922,4.621-8.491,0-14.649
				c-4.619-6.16-12.832-9.755-21.56-12.834c-8.727-3.081-9.045-5.712-14.887-4.74c-5.844,0.971-10.636-2.368-12.003,0.119
				c-2.854,5.196-1.497,17.109-11.099,18.48C249.459,271.96,224.014,274.36,215.175,252.625z"/>
			<path fill="#A8887B" d="M304.192,304.812c-1.551-5.428,2.613-13.859,9.776-19.506c7.164-5.648,12.297-6.485,17.944-2.217
				c5.647,4.27,14.887,12.482,13.86,18.644c-1.027,6.16-6.237,7.7-11.846,6.673c0,0-7.414,4.693-10.875,0.293
				c0,0-8.548,6.112-9.084,1.883C313.969,310.582,306.246,311.999,304.192,304.812z"/>
			<path fill="#C7ABD2" d="M198.637,302.988c0,0,6.16-9.469,7.188-16.142c1.027-6.675,1.027-6.675,1.027-6.675
				s1.141,5.363,3.649,11.408c2.511,6.047,3.536-3.195,3.536-3.195v14.604H198.637z"/>
			<path fill="#3B2416" d="M242.749,183.662c-6.806,1.01-9.422-0.196-8.286,9.399c1.136,9.595,4.266,11.106,3.841,18.321
				c-0.394,6.671-0.724,3.081-4.023-5.646c-3.302-8.728-7.782-9.753-7.782-9.753s0.651,2.567,0,6.161
				c-0.653,3.594-2.516,10.225,0,9.181c2.514-1.044-6.038,8.118-8.604-7.796c-2.566-15.914-4.883,1.182-3.857,6.315
				c1.027,5.134-6.16,9.772-7.7,11.56s1.54-2.833,0-9.506c-1.54-6.674-4.62,13.229,0,18.935c4.62,5.706,4.165,9.298,4.165,9.298
				s-17.776-15.915-16.874-24.64c0.9-8.724-3.204-8.727-3.204-8.727s-13.347,6.673-13.347-4.107l2.31,1.54c0,0-0.771-3.08,0-5.133
				c0.771-2.053,2.823,2.884,7.957-6.001c5.133-8.886,3.329-3.239,6.284-16.074c2.956-12.834,2.921-17.062,16.285-19.825
				c13.365-2.762,13.365-2.762,13.365-2.762s1.303-10.78,15.026-6.16c13.722,4.62,24.917,12.833,24.917,12.833
				s9.337,3.594,13.957,8.214c4.621,4.621,4.106,14.375,10.268,15.914l-5.133,2.566c0,0-1.54,11.295,5.133,12.834l-3.788,7.285
				c0,0-4.939-3.691-6.479,4.009c0,0-3.593-9.949-7.7-18.835c0,0,6.675,8.055,0,12.162c-6.673,4.106-0.513,6.16-0.513,6.16
				s-7.379,2.053-5.744-6.16c1.637-8.214,3.117-13.286-2.53-14.827c-5.647-1.54-5.647-1.54-13.8,8.153
				C246.893,198.549,253.12,182.122,242.749,183.662z"/>
			<path fill="#997A6D" d="M234.463,248.345c0,0,6.401-8.727,15.318-2.055C249.781,246.289,245.133,253.99,234.463,248.345z"/>
			<path fill="#997A6D" d="M216.479,218.024c0,0-6.329,10.752,0,13.623c0,0,11.269-9.551,17.579,1.492c0,0,6.596-10.41-2.388-17.764
				L216.479,218.024z"/>
			<path fill="#FFFFFF" d="M234.058,233.14c2.569-4.016-7.7-7.594-13.86-5.179c-6.16,2.417-3.593,6.025,0,8.84
				C223.791,239.618,230.979,237.955,234.058,233.14z"/>
			<circle fill="#3B2416" cx="226.498" cy="234.519" r="3.688"/>
			<path fill="#997A6D" d="M243.718,215.042c0,0-4.956,8.823,0.119,14.028c0,0,15.165,4.722,18.703-1.109
				c5.913-9.738,0.709-15.988,0.709-15.988L243.718,215.042z"/>
			<path fill="#FFFFFF" d="M243.837,229.07c-1.685-5.335,14.957-11.055,18.858-5.202C266.596,229.72,247.738,241.426,243.837,229.07
				z"/>
			<circle fill="#3B2416" cx="253.471" cy="229.864" r="3.688"/>
			<path fill="#3B2416" d="M242.901,212.103c-0.651-4.639,20.452-2.735,20.452-2.735S243.549,216.709,242.901,212.103z"/>
			<path fill="#3B2416" d="M213.904,216.84c0,0,18.606-5.269,17.775-0.552c-0.836,4.716-17.542,1.889-17.542,1.889"/>
			<path fill="#C7ABD2" d="M309.118,283.089c3.713-2.982-8.919,18.074-6.922,19.899h-4.516
				C297.682,302.988,301.014,289.602,309.118,283.089z"/>
			<polygon fill="#C7ABD2" points="292.654,302.988 291.873,286.847 287.445,302.988 			"/>
			<path fill="#C7ABD2" d="M193.822,254.505c0,0-1.222,6.538,0,8.401c1.222,1.864-5.452,0-5.452,0S186.49,256.982,193.822,254.505z"
				/>
			<polygon fill="#C7ABD2" points="289.232,252.45 287.445,259.119 294.27,254.505 			"/>
			<path fill="#997A6D" d="M268.35,255.785c0,0-6.059,4.861-11.19,7.95c-5.133,3.089-20.883,7.522-31.948,0
				c-6.063-4.12-6.063-4.12-6.063-4.12s19.019,21.584,41.093,10.803C282.313,259.638,268.35,255.785,268.35,255.785z"/>
			<path fill="#E2887F" d="M215.66,335.285c0,0,43.319,7.554,66.386-0.698c30.413-10.884,13.071-18.257,13.071-18.257
				s0,0-8.544,2.383c-8.543,2.381-10.062,4.724-34.013,5.34c-23.95,0.617-41.314-6.335-41.479,3.345
				C210.915,337.078,215.66,335.285,215.66,335.285z"/>
			<path fill="#F19A8D" d="M217.894,341.775c0,0,55.804,9.557,75.463-5.063c6.215-4.621,12.469-8.286,12.469-8.286
				s4.283-11.611-4.217-9.083c-8.502,2.527-15.271,11.722-39.206,12.75c-23.938,1.025-44.507-9.683-44.507,0
				C217.896,341.775,217.894,341.775,217.894,341.775z"/>
			<path fill="#997A6D" d="M117.334,265.799c-5.251-2.122,7.984,7.376,3.318,17.29c-4.665,9.917-6.337,13.143-6.337,13.143
				S137.673,274.011,117.334,265.799z"/>
			<path fill="#F2F2F2" d="M110.927,264.758l6.726-21.493c0,0-8.089-0.592-3.338-10.589c4.752-9.999,4.752-9.999,4.752-9.999
				l0.162,10.463l5.555-7.458v7.871l8.104-5.59c0,0,0.145,18.763-9.209,16.328l-6.346,21.508L110.927,264.758z"/>
			<path fill="#F9CCC8" d="M217.894,338.445c0,0,10.563-3.842,18.886,0c8.321,3.841,7.932,4.354,20.703,3.328
				c12.772-1.026,3.908-2.944,24.563-7.187s19.562-7.199,19.562-7.199s-20.571,6.622-32.892,7.425
				c-12.319,0.803,0.719,3.633-15.609,3.633C236.779,338.445,230.346,328.523,217.894,338.445z"/>
			<path fill="#F9CCC8" d="M225.595,331.913c10.148,2.609,10.148,2.609,17.651,2.899c7.503,0.287,11.752,2.833,16.51,0
				c4.758-2.835-10.603-0.373-18.014-2.899C234.334,329.387,225.595,331.913,225.595,331.913z"/>
			<path fill="#059347" d="M194.206,311.197c7.229-2.793,6.827,1.849,9.109,1.493c2.283-0.355,3.689-1.097,5.859,1.161
				c2.172,2.256,3.838,2.256,3.838,2.256v9.551c-7.313,6.362-8.944,4.759-12.491,4.021c-3.55-0.738-0.867-3.672-6.315-2.719
				c-5.447,0.955-6.298,4.356-10.236,1.372c-3.938-2.983-7.864-8.165-3.537-9.772C184.759,316.95,187.659,313.729,194.206,311.197z"
				/>
			<path fill="#03A550" d="M165.983,330.415c1.603-5.582-0.14-7.67,3.279-10.059c3.42-2.39,1.43-5.507,11.171-1.799
				c9.74,3.708,17.106,5.071,17.106,5.071s6.339-1.899,0,3.758c-6.34,5.66-6.404,9.273-11.763,8.75c-5.358-0.523-5.696,2.064-12.2,0
				C167.072,334.073,165.983,330.415,165.983,330.415z"/>
			<path fill="#03A550" d="M178.543,318.984c1.89-0.427-0.313-0.539,4.627-2.653c4.94-2.114,1.778-1.965,6.958-1.608
				c5.178,0.358,11.753,2.361,9.582,5.635c-2.171,3.272,5.596-0.953-2.171,7.031C189.771,335.375,178.543,318.984,178.543,318.984z"
				/>
			<path fill="#F2706C" d="M181.291,328.387c9.384-6.54,29.684-4.861,27.206,4.764C206.017,342.776,161.269,342.342,181.291,328.387
				z"/>
			<polygon fill="#F59193" points="197.54,327.388 190.128,329.581 183.904,326.897 186.701,330.415 180.225,330.791 
				186.701,332.094 185.777,336.137 190.128,333.465 195.854,336.949 192.923,333.465 205.185,333.465 199.711,330.791 
				205.185,329.581 194.494,330.415 			"/>
			<path fill="#997A6D" d="M280.259,212.433c4.499-2.261-3.398,8.703,0,10.244c3.399,1.54-4.105,0.836-5.133,3.498
				C275.126,226.175,271.019,217.075,280.259,212.433z"/>
			<path fill="#997A6D" d="M311.574,301.219c3.452,2.8,8.168,1.77,8.168,1.77s1.466,2.925,5.119-2.245c0,0,5.117,7.606,9.261,2.245
				c0,0,7.598,0.24,8.175-4.569h3.168c0,0,1.173,13.755-5.182,11.871c-6.355-1.885-6.16,0.178-6.16,0.178s-2.441,3.602-8.131,0
				c0,0-8.56,3.088-11.828,1.605c0,0-6.08,1.458-8.079-3.813L311.574,301.219z"/>
			<polygon fill="#E7D6E9" points="291.873,280.865 281.685,302.988 287.445,302.988 			"/>
			<path fill="#E7D6E9" d="M274.218,280.865c-14.492,7.007-39.755,14.052-39.755,14.052l18.657,3.502l-3.338-5.525l36.997-12.723
				l-26.126-6.738l-19.762,7.432l19.762-3.874L274.218,280.865z"/>
			<path fill="#E7D6E9" d="M201.078,273.434c0,0,4.746,10.229-2.441,18.494C198.637,291.926,213.786,283.962,201.078,273.434z"/>
			<g>
				<circle fill="#F2F2F2" cx="121.984" cy="105.357" r="35.78"/>
				<path fill="#2D2D2D" d="M124.091,106.861c-0.847,0.847-2.221,0.847-3.068,0l0,0c-0.847-0.847-0.848-2.221,0-3.068l10.2-10.2
					c0.848-0.847,2.222-0.847,3.069,0l0,0c0.847,0.847,0.847,2.221,0,3.069L124.091,106.861z"/>
				<path fill="#2D2D2D" d="M123.353,103.611c0.847,0.848,0.847,2.221,0,3.068l0,0c-0.847,0.847-2.221,0.848-3.069,0l-17.107-17.107
					c-0.848-0.848-0.848-2.222,0-3.069l0,0c0.847-0.847,2.221-0.847,3.069,0L123.353,103.611z"/>
			</g>
		</g>
	</g>
	<g>
		<defs>
			<circle id="SVGID_3_" cx="200.886" cy="200.885" r="200.886"/>
		</defs>
		<clipPath id="SVGID_4_">
			<use xlink:href="#SVGID_3_"  overflow="visible"/>
		</clipPath>
	</g>
</g>
</svg>
