<?xml version="1.0" encoding="utf-8"?>
<!-- Generator: Adobe Illustrator 16.0.0, SVG Export Plug-In . SVG Version: 6.00 Build 0)  -->
<!DOCTYPE svg PUBLIC "-//W3C//DTD SVG 1.1//EN" "http://www.w3.org/Graphics/SVG/1.1/DTD/svg11.dtd">
<svg version="1.1" id="Layer_1" xmlns="http://www.w3.org/2000/svg" xmlns:xlink="http://www.w3.org/1999/xlink" x="0px" y="0px"
	 width="102.96px" height="40.411px" viewBox="0 0 102.96 40.411" enable-background="new 0 0 102.96 40.411" xml:space="preserve">
<g>
	<g>
		<path fill="#FFFFFF" d="M32.971,0.157l-0.843,0.001l-0.001,9.425l-0.756,0L31.181,0.08l-1.138,0.001l-0.312,9.502h-0.768V0.158
			H28.12l-0.843,9.425l-0.001,0.749c0,0-0.141,2.029,1.862,2.029c0.185,0,0.354,0,0.519,0l-0.389,9.706h2.641l-0.48-9.706
			c0.36,0,0.525,0,0.525,0s1.862-0.075,1.862-2.029v-0.75L32.971,0.157z"/>
	</g>
	<g>
		<path fill="#FFFFFF" d="M21.647,22.377h2.408V0c0,0-5.932,4.281-2.806,12.504C22.652,16.192,21.647,22.377,21.647,22.377z"/>
	</g>
	<g>
		<g>
			<path fill="#FFFFFF" d="M0,16.592c0.393-0.062,0.776-0.103,1.148-0.124c0.373-0.02,0.755-0.031,1.149-0.031
				c0.352,0,0.714,0.011,1.086,0.031c0.373,0.021,0.756,0.062,1.149,0.124v22.386c-0.394,0.063-0.776,0.104-1.149,0.124
				c-0.373,0.021-0.745,0.031-1.118,0.031c-0.372,0-0.745-0.011-1.118-0.031S0.393,39.04,0,38.978V16.592z M5.185,27.707
				l6.054-11.084c0.476-0.082,0.917-0.134,1.32-0.155c0.403-0.02,0.77-0.031,1.102-0.031c0.352,0,0.745,0.021,1.18,0.062
				c0.435,0.042,0.89,0.083,1.366,0.124L10.09,27.396l6.645,11.55c-0.477,0.041-0.937,0.082-1.382,0.125
				c-0.445,0.041-0.844,0.062-1.195,0.062c-0.331,0-0.698-0.011-1.102-0.031s-0.854-0.073-1.351-0.155L5.185,27.707z"/>
		</g>
	</g>
	<g>
		<g>
			<path fill="#FFFFFF" d="M44.087,20.473H38.53c-0.125-0.621-0.187-1.272-0.187-1.956c0-0.641,0.062-1.272,0.187-1.894h15.68
				c0.123,0.622,0.186,1.253,0.186,1.894c0,0.684-0.063,1.335-0.186,1.956h-5.558v18.474c-0.373,0.041-0.746,0.078-1.118,0.109
				c-0.373,0.031-0.735,0.046-1.087,0.046s-0.729-0.011-1.133-0.03c-0.404-0.021-0.812-0.063-1.226-0.125V20.473z"/>
		</g>
	</g>
	<g>
		<g>
			<path fill="#FFFFFF" d="M61.03,20.473h-5.558c-0.124-0.621-0.187-1.272-0.187-1.956c0-0.641,0.063-1.272,0.187-1.894h15.68
				c0.124,0.622,0.187,1.253,0.187,1.894c0,0.684-0.063,1.335-0.187,1.956h-5.558v18.474c-0.373,0.041-0.745,0.078-1.118,0.109
				s-0.735,0.046-1.087,0.046c-0.353,0-0.729-0.011-1.133-0.03c-0.404-0.021-0.813-0.063-1.227-0.125V20.473z"/>
		</g>
	</g>
	<g>
		<g>
			<path fill="#FFFFFF" d="M72.856,16.623h12.667c0.125,0.622,0.187,1.253,0.187,1.894c0,0.684-0.062,1.335-0.187,1.956h-8.134
				v4.843h6.457c0.125,0.664,0.187,1.305,0.187,1.926c0,0.662-0.062,1.314-0.187,1.956h-6.457v5.899h8.352
				c0.125,0.621,0.187,1.253,0.187,1.895c0,0.682-0.062,1.334-0.187,1.955H72.856V16.623z"/>
		</g>
	</g>
	<g>
		<g>
			<path fill="#FFFFFF" d="M92.652,20.473h-5.558c-0.125-0.621-0.187-1.272-0.187-1.956c0-0.641,0.062-1.272,0.187-1.894h15.68
				c0.123,0.622,0.186,1.253,0.186,1.894c0,0.684-0.063,1.335-0.186,1.956h-5.559v18.474c-0.372,0.041-0.745,0.078-1.117,0.109
				c-0.373,0.031-0.735,0.046-1.086,0.046c-0.354,0-0.73-0.011-1.135-0.03c-0.402-0.021-0.813-0.063-1.226-0.125V20.473z"/>
		</g>
	</g>
	<g>
		<path fill="#FFFFFF" d="M17.504,27.997c0.231,0.817,0.65,1.779,1.328,2.738c0.667,0.965,1.614,1.906,2.794,2.685
			c1.175,0.769,2.664,1.313,4.201,1.505c1.634,0.166,3.322-0.061,4.923-0.781c1.597-0.708,3.028-1.928,4.054-3.471
			c1.032-1.562,1.622-3.373,1.714-5.337c0.003-0.93-0.078-1.915-0.322-2.841c-0.274-0.92-0.642-1.815-1.151-2.623
			c-1.019-1.615-2.529-2.864-4.19-3.543c-0.825-0.334-1.689-0.584-2.521-0.66c-0.4-0.07-0.854-0.054-1.285-0.068
			c-0.383,0.007-0.815,0.04-1.208,0.087c-1.599,0.221-3.037,0.809-4.227,1.574c-1.183,0.78-2.124,1.729-2.792,2.695
			c-0.677,0.961-1.096,1.923-1.326,2.743c-0.122,0.409-0.217,0.778-0.254,1.107c-0.056,0.327-0.095,0.606-0.098,0.838
			c-0.026,0.461-0.04,0.705-0.04,0.705s0.015,0.242,0.042,0.7c0.003,0.229,0.043,0.51,0.101,0.837
			C17.286,27.218,17.381,27.589,17.504,27.997z"/>
		<path fill="#FFFFFF" d="M36.736,29.36c-0.279,0.975-0.658,1.925-1.188,2.785c-1.06,1.721-2.606,3.101-4.36,3.938
			c-1.74,0.845-3.722,1.107-5.435,0.881c-1.82-0.231-3.365-0.943-4.604-1.862c-1.229-0.932-2.093-2.065-2.699-3.125
			c-0.621-1.062-0.919-2.093-1.127-2.931c-0.095-0.378-0.152-0.717-0.189-1.025c-0.758,3.286,0.12,6.877,2.676,9.434
			c3.944,3.943,10.361,3.943,14.304,0c2.411-2.41,3.325-5.741,2.787-8.869C36.855,28.847,36.802,29.106,36.736,29.36z"/>
	</g>
</g>
</svg>
