<?xml version="1.0" encoding="utf-8"?>
<!-- Generator: Adobe Illustrator 16.0.0, SVG Export Plug-In . SVG Version: 6.00 Build 0)  -->
<!DOCTYPE svg PUBLIC "-//W3C//DTD SVG 1.1//EN" "http://www.w3.org/Graphics/SVG/1.1/DTD/svg11.dtd">
<svg version="1.1" id="Layer_1" xmlns="http://www.w3.org/2000/svg" xmlns:xlink="http://www.w3.org/1999/xlink" x="0px" y="0px"
	 width="495.105px" height="183.225px" viewBox="0 0 495.105 183.225" enable-background="new 0 0 495.105 183.225"
	 xml:space="preserve">
<g>
	<path fill="#F7F1ED" d="M151.373,0.566l-3.029,0.002l-0.002,33.846h-2.714L144.946,0.29l-4.087,0.003l-1.118,34.122h-2.757V0.568
		h-3.029l-3.031,33.846l-0.001,2.69c0,0-0.507,7.285,6.684,7.285c0.663,0.002,1.27,0,1.863,0l-1.396,34.851h9.479l-1.725-34.851
		c1.295,0,1.891,0,1.891,0s6.683-0.271,6.685-7.285v-2.69L151.373,0.566z"/>
	<path fill="#F7F1ED" d="M110.712,80.353h8.645V0c0,0-21.3,15.377-10.076,44.902C114.318,58.147,110.712,80.353,110.712,80.353z"/>
	<path fill="#EA8724" d="M166.743,164.38c-20.456,20.455-53.74,20.455-74.195,0c-20.456-20.455-20.456-53.737,0-74.192
		c20.455-20.458,53.739-20.458,74.195,0C187.196,110.642,187.196,143.925,166.743,164.38z"/>
	<path fill="#F7F1ED" d="M0,70.975c1.888-0.3,3.731-0.497,5.524-0.599c1.791-0.096,3.631-0.147,5.523-0.147
		c1.691,0,3.434,0.053,5.225,0.147c1.793,0.103,3.633,0.299,5.525,0.599V178.62c-1.893,0.297-3.732,0.498-5.525,0.598
		c-1.791,0.101-3.583,0.149-5.375,0.149c-1.791,0-3.583-0.05-5.374-0.149c-1.793-0.1-3.637-0.301-5.524-0.598L0,70.975L0,70.975z
		 M24.932,124.425l29.114-53.302c2.289-0.396,4.406-0.645,6.346-0.747c1.94-0.096,3.705-0.147,5.3-0.147
		c1.691,0,3.583,0.1,5.673,0.298c2.09,0.201,4.279,0.399,6.569,0.597l-29.413,51.81l31.951,55.54
		c-2.291,0.196-4.505,0.395-6.644,0.598c-2.142,0.197-4.059,0.298-5.748,0.298c-1.593,0-3.359-0.05-5.3-0.149
		c-1.941-0.1-4.108-0.352-6.496-0.745L24.932,124.425z"/>
	<path fill="#F7F1ED" d="M212.003,89.637h-26.726c-0.598-2.985-0.896-6.121-0.896-9.407c0-3.083,0.299-6.121,0.896-9.107h75.399
		c0.596,2.986,0.896,6.024,0.896,9.107c0,3.286-0.3,6.421-0.896,9.407H233.95v88.835c-1.792,0.196-3.584,0.373-5.374,0.522
		c-1.793,0.148-3.536,0.223-5.227,0.223c-1.693,0-3.508-0.051-5.45-0.147c-1.941-0.103-3.905-0.3-5.896-0.598V89.637z"/>
	<path fill="#F7F1ED" d="M293.475,89.637h-26.726c-0.595-2.985-0.893-6.121-0.893-9.407c0-3.083,0.298-6.121,0.893-9.107h75.399
		c0.597,2.986,0.896,6.024,0.896,9.107c0,3.286-0.299,6.421-0.896,9.407h-26.727v88.835c-1.793,0.196-3.582,0.373-5.375,0.522
		c-1.792,0.148-3.533,0.223-5.227,0.223c-1.694,0-3.51-0.051-5.448-0.147c-1.94-0.103-3.908-0.3-5.897-0.598V89.637L293.475,89.637z
		"/>
	<path fill="#F7F1ED" d="M350.343,71.123h60.914c0.6,2.986,0.896,6.024,0.896,9.107c0,3.286-0.297,6.421-0.896,9.407h-39.116v23.289
		h31.055c0.599,3.188,0.896,6.272,0.896,9.259c0,3.186-0.298,6.321-0.896,9.406h-31.055v28.365h40.162
		c0.6,2.987,0.896,6.025,0.896,9.108c0,3.285-0.298,6.421-0.896,9.406h-61.96V71.123z"/>
	<path fill="#F7F1ED" d="M445.536,89.637H418.81c-0.597-2.985-0.896-6.121-0.896-9.407c0-3.083,0.301-6.121,0.896-9.107h75.399
		c0.596,2.986,0.896,6.024,0.896,9.107c0,3.286-0.301,6.421-0.896,9.407h-26.727v88.835c-1.792,0.196-3.584,0.373-5.375,0.522
		c-1.793,0.148-3.535,0.223-5.225,0.223c-1.696,0-3.511-0.051-5.451-0.147c-1.94-0.103-3.908-0.3-5.896-0.598L445.536,89.637
		L445.536,89.637z"/>
	<path fill="#03AA5C" d="M177.018,112.247c0,0,18.502,19.817,8.605,31.607c-9.895,11.79-13.489,6.377-21.589,15.881
		c-8.101,9.502-9.834,26.944-17.339,22.887c-7.501-4.059,4.879-13.62-7.438-11.436c-12.318,2.183-6.892,11.084-11.368,10.695
		c-10.808-0.935-20.967-22.372-20.967-22.372L177.018,112.247z"/>
	<circle fill="#24572B" cx="111.282" cy="162.924" r="18.172"/>
	<path fill="#03AA5C" d="M99.975,173.315l7.595,4.896l-7.595-8.7l12.226,6.039l-10.392-9.098c0,0,5.72,2.67,10.778,4.894
		c4.105,1.803,7.771,3.311,7.592,2.86c-0.397-1.004-17.352-15.496-17.352-15.496l16.224,9.751l-17.648-12.195l-1.428,2.853
		l10.786,9.579l-10.786-5.299v3.973l-2.52,0.655L99.975,173.315z"/>
	<path fill="#3CB766" d="M149.707,178.675c0,0,8.992-15.629,3.822-13.984c-5.17,1.642-7.542,0.71-12.375,4.122
		C141.154,168.812,146.837,183.061,149.707,178.675z"/>
	<path fill="#3CB766" d="M98.057,80.353c0,0-2.601-4.041,7.053-8.593c7.876-3.715,13.05,1.982,17.879,0.673
		c4.826-1.31-7.406,6.545-23.9,7.92"/>
	<circle fill="#24572B" cx="96.217" cy="139.605" r="17.123"/>
	<path fill="#03AA5C" d="M83.263,146.056l5.593,6.418l-4.598-9.863l9.486,8.666l-7.026-10.955c0,0,4.481,3.914,8.479,7.248
		c3.242,2.705,6.168,5.031,6.123,4.578c-0.097-1.015-11.651-18.567-11.651-18.567l12.134,13.07l-12.787-15.657l-2.038,2.209
		l7.258,11.492l-8.378-7.618l-1.039,3.597l-2.451-0.063L83.263,146.056z"/>
	<polygon fill="#FDEB03" points="91.241,85.186 181.362,93.741 185.682,149.419 71.298,130.993 	"/>
	<circle fill="#EE3326" cx="156.366" cy="154.033" r="25.206"/>
	<circle fill="#F1594E" cx="156.367" cy="154.033" r="19.978"/>
	<polygon fill="#F37261" points="160.492,144.325 173.161,145.942 168.133,152.913 173.161,157.562 164.012,157.562 168.45,168.018 
		158.794,163.286 155.089,169.813 151.661,166.677 147.827,172.097 147.827,160.756 	"/>
	<path fill="#511911" d="M163.158,157.103c-18.48,18.479-48.546,18.479-67.025,0c-18.48-18.48-18.48-48.545,0-67.025
		c18.479-18.479,48.545-18.479,67.025,0C181.638,108.558,181.638,138.622,163.158,157.103z"/>
	<g>
		<path fill="#371410" d="M101.739,123.26c0,0,1.184-0.465,3.451-1.185c2.272-0.697,5.635-1.654,10.012-2.479
			c4.373-0.813,9.767-1.569,16.027-1.558c6.235,0.005,13.426,0.769,20.782,3.572c1.837,0.688,3.65,1.569,5.453,2.55
			c0.919,0.499,1.731,1.04,2.702,1.63c0.154,0.104,0.536,0.371,0.833,0.674c0.163,0.17,0.335,0.354,0.518,0.68
			c0.167,0.275,0.374,0.826,0.299,1.435c-0.034,0.314-0.137,0.586-0.268,0.836c-0.121,0.209-0.279,0.416-0.405,0.533
			c-0.281,0.283-0.503,0.41-0.718,0.537c-0.413,0.224-0.739,0.33-1.058,0.43c-1.238,0.361-2.294,0.447-3.385,0.562
			c-1.08,0.096-2.149,0.149-3.222,0.19c-2.144,0.084-4.298,0.097-6.479,0.058c-4.359-0.04-8.813-0.248-13.36-0.439
			c-4.547-0.188-9.188-0.377-13.904-0.486c-2.358-0.053-4.736-0.085-7.128-0.073c-2.391,0.039-4.798,0.119-7.208,0.289
			c-2.404,0.188-4.827,0.474-7.154,1.043c-1.145,0.297-2.319,0.666-3.189,1.307c-0.43,0.318-0.724,0.703-0.773,1.094
			c-0.011,0.119-0.016,0.159-0.001,0.341c0.015,0.085,0.032,0.167,0.069,0.276c0.073,0.197,0.198,0.385,0.366,0.559
			c0.703,0.706,1.892,1.11,3.032,1.408c1.168,0.283,2.383,0.456,3.606,0.588c2.45,0.259,4.942,0.342,7.44,0.337
			c4.998-0.005,10.03-0.203,15.068-0.438c5.039-0.223,10.087-0.497,15.146-0.551c2.531-0.035,5.064-0.022,7.606,0.1
			c2.543,0.128,5.093,0.312,7.687,0.827c1.299,0.27,2.611,0.595,3.968,1.226c0.675,0.322,1.375,0.725,2.041,1.364
			c0.662,0.614,1.274,1.612,1.406,2.695c0.022,0.134,0.029,0.265,0.036,0.396c0.002,0.103,0.008,0.052,0.006,0.277l-0.003,0.115
			c0.005,0.071-0.033,0.527-0.086,0.757c-0.1,0.515-0.297,1.021-0.562,1.464c-0.536,0.896-1.264,1.478-1.946,1.914
			c-1.387,0.842-2.723,1.212-4.022,1.52c-2.598,0.574-5.094,0.753-7.559,0.867c-2.462,0.104-4.884,0.101-7.276,0.058
			c-4.781-0.131-9.44-0.429-13.983-0.701c-4.539-0.303-8.966-0.64-13.232-0.77c-2.129-0.064-4.225-0.07-6.215,0.034
			c-0.988,0.062-1.961,0.157-2.814,0.338c-0.419,0.091-0.819,0.205-1.098,0.33c-0.294,0.113-0.406,0.271-0.31,0.125
			c0.038-0.077,0.056-0.174,0.044-0.243l0.008,0.19c0.001,0.074,0.006,0.127,0.013,0.121c0.017,0.036-0.003,0.024,0.021,0.104
			c0.057,0.262,0.175,0.567,0.362,0.882c0.365,0.629,0.924,1.271,1.562,1.85c1.28,1.169,2.819,2.163,4.4,2.998
			c3.179,1.676,6.547,2.788,9.796,3.586c3.256,0.806,6.435,1.252,9.437,1.455c6.017,0.404,11.304-0.219,15.57-1.072
			c4.274-0.873,7.528-2.049,9.709-2.916c1.095-0.428,1.922-0.793,2.476-1.045s0.84-0.383,0.84-0.383l0.187,0.354
			c0,0-0.275,0.156-0.809,0.46c-0.533,0.305-1.332,0.745-2.397,1.276c-2.126,1.066-5.347,2.479-9.655,3.697
			c-4.297,1.235-9.733,2.119-16.015,2.043c-6.256-0.119-13.445-1.063-20.654-4.45c-1.79-0.87-3.586-1.892-5.26-3.331
			c-0.833-0.724-1.643-1.555-2.322-2.639c-0.337-0.539-0.634-1.164-0.82-1.885c-0.051-0.162-0.089-0.429-0.122-0.64
			c-0.02-0.131-0.025-0.203-0.028-0.256l-0.013-0.19c-0.038-0.574,0.083-1.188,0.36-1.717c0.583-1.061,1.383-1.488,2.008-1.81
			c0.652-0.313,1.25-0.486,1.838-0.637c1.169-0.285,2.28-0.421,3.389-0.525c2.211-0.201,4.397-0.204,6.6-0.181
			c4.402,0.066,8.865,0.31,13.411,0.565c4.542,0.287,9.165,0.587,13.839,0.733c2.334,0.09,4.683,0.141,7.021,0.09
			c2.33-0.056,4.683-0.193,6.852-0.629c1.068-0.217,2.114-0.535,2.831-0.961c0.349-0.21,0.594-0.435,0.692-0.598
			c0.053-0.084,0.083-0.154,0.105-0.242c0.007-0.072,0.01,0.078,0.021-0.156l0.006-0.115c-0.004,0.148-0.003,0.021-0.004,0.047
			c0-0.021,0.003-0.046-0.003-0.063c-0.016-0.146-0.054-0.275-0.28-0.513c-0.215-0.225-0.585-0.475-1.02-0.688
			c-0.877-0.438-1.979-0.759-3.102-1.011c-4.58-0.977-9.604-1.133-14.566-1.323c-4.989-0.136-10.028-0.191-15.075-0.229
			c-5.048-0.058-10.105-0.06-15.154-0.306c-2.523-0.137-5.046-0.287-7.563-0.613c-1.258-0.17-2.515-0.385-3.762-0.719
			c-1.233-0.356-2.532-0.723-3.614-1.787c-0.26-0.272-0.49-0.61-0.628-0.999c-0.065-0.184-0.116-0.405-0.137-0.628
			c-0.012-0.127-0.015-0.396,0.016-0.586c0.128-0.856,0.712-1.486,1.267-1.889c1.152-0.806,2.386-1.182,3.603-1.522
			c2.447-0.638,4.906-0.928,7.344-1.186c2.438-0.262,4.864-0.428,7.272-0.554c2.407-0.15,4.798-0.262,7.168-0.349
			c4.741-0.172,9.4-0.254,13.955-0.324c4.544-0.063,8.99-0.126,13.317-0.187c2.154-0.048,4.275-0.081,6.34-0.165
			c1.031-0.046,2.05-0.105,3.035-0.199c0.968-0.094,1.969-0.229,2.694-0.43c0.169-0.047,0.327-0.107,0.36-0.126
			c0.003-0.001,0.001-0.007-0.104,0.091c-0.072,0.07-0.28,0.338-0.325,0.715c-0.049,0.359,0.093,0.649,0.127,0.713
			c0.063,0.103,0.067,0.095,0.057,0.084c-0.058-0.055-0.082-0.086-0.34-0.268c-0.742-0.451-1.574-1.029-2.38-1.478
			c-1.641-0.922-3.297-1.761-4.993-2.424c-6.753-2.776-13.572-3.724-19.586-4.049c-6.04-0.274-11.353,0.082-15.703,0.562
			c-4.354,0.485-7.756,1.106-10.067,1.563c-2.315,0.456-3.528,0.78-3.528,0.78L101.739,123.26z"/>
	</g>
	<path fill="#EA8724" d="M129.466,154.033c-26.959,0-48.895-21.288-48.894-47.454c-0.001-26.165,21.933-47.454,48.894-47.454
		c26.962,0,48.898,21.289,48.896,47.454C178.364,132.745,156.428,154.033,129.466,154.033z"/>
	<path fill="#FFFFFF" d="M99.549,103.01c-0.091,1.333-1.242,2.34-2.574,2.248c-1.333-0.09-2.338-1.241-2.251-2.575
		c0.092-1.331,1.244-2.338,2.576-2.246C98.633,100.526,99.64,101.679,99.549,103.01z"/>
	<circle fill="#FFFFFF" cx="124.053" cy="100.43" r="2.417"/>
	<circle fill="#FFFFFF" cx="148.143" cy="93.741" r="2.418"/>
	<path fill="#FFFFFF" d="M136.712,74.844c0,1.335-1.084,2.417-2.417,2.417c-1.336,0-2.42-1.082-2.42-2.417
		c0-1.336,1.084-2.419,2.42-2.419C135.627,72.425,136.712,73.508,136.712,74.844z"/>
	<circle fill="#FFFFFF" cx="110.016" cy="86.77" r="2.417"/>
	<circle fill="#FFFFFF" cx="156.366" cy="112.247" r="2.418"/>
	<circle fill="#FFFFFF" cx="126.47" cy="124.061" r="2.416"/>
</g>
</svg>
