<?xml version="1.0" encoding="utf-8"?>
<!-- Generator: Adobe Illustrator 16.0.0, SVG Export Plug-In . SVG Version: 6.00 Build 0)  -->
<!DOCTYPE svg PUBLIC "-//W3C//DTD SVG 1.1//EN" "http://www.w3.org/Graphics/SVG/1.1/DTD/svg11.dtd">
<svg version="1.1" id="Layer_1" xmlns="http://www.w3.org/2000/svg" xmlns:xlink="http://www.w3.org/1999/xlink" x="0px" y="0px"
	 width="428.222px" height="385.104px" viewBox="0 0 428.222 385.104" enable-background="new 0 0 428.222 385.104"
	 xml:space="preserve">
<g>
	<g>
		<rect y="0.152" fill="#29B574" width="53.487" height="384.951"/>
	</g>
</g>
<path fill="#29B574" d="M163.648,116.379c-0.031,0.68-0.101,1.353-0.148,2.02c-0.098,1.335-0.193,2.646-0.288,3.937
	c-0.108,1.287-0.294,2.542-0.432,3.777c-0.569,4.938-1.466,9.417-2.297,13.377c-0.479,1.967-0.929,3.807-1.344,5.51
	c-0.325,1.161-0.626,2.231-0.914,3.258l-7.213-8.117l-1.238,28.557l21.316-19.04l-11.001-0.449c0.375-1.122,0.77-2.302,1.199-3.59
	c0.497-1.71,1.037-3.562,1.572-5.551c0.996-3.996,2.054-8.536,2.735-13.573c0.831-5.02,1.146-10.532,1.29-16.36
	c-0.029-1.458-0.06-2.936-0.091-4.432c-0.018-0.748-0.035-1.501-0.052-2.258c-0.065-0.756-0.131-1.515-0.197-2.277
	c-0.135-1.525-0.271-3.067-0.41-4.624c-0.229-1.546-0.459-3.106-0.691-4.681c-0.12-0.787-0.24-1.576-0.361-2.369
	c-0.137-0.789-0.335-1.57-0.5-2.361c-0.347-1.577-0.697-3.166-1.049-4.764c-0.396-1.587-0.897-3.157-1.346-4.749
	c-0.469-1.586-0.881-3.193-1.502-4.759c-0.573-1.574-1.15-3.155-1.729-4.741l-0.436-1.188l-0.507-1.141l-1.016-2.285
	c-0.701-1.536-1.3-3.028-2.079-4.612l-2.323-4.51c-3.25-5.936-7-11.598-11.196-16.768c-4.19-5.174-8.822-9.849-13.687-13.904
	c-4.86-4.063-9.951-7.506-15.009-10.334c-5.056-2.836-10.067-5.079-14.799-6.836c-9.476-3.517-17.785-5.106-23.604-5.86
	c-5.833-0.748-9.209-0.678-9.209-0.678v0.301c0,0,3.353-0.002,9.143,0.863C80.01,2.035,88.24,3.788,97.556,7.465
	c4.651,1.838,9.563,4.159,14.493,7.063c4.928,2.902,9.88,6.378,14.603,10.441c4.721,4.063,9.196,8.725,13.229,13.863
	c4.038,5.136,7.628,10.744,10.726,16.611l2.209,4.459c0.678,1.428,1.313,3.048,1.966,4.562l0.97,2.304l0.484,1.15l0.397,1.162
	c0.528,1.545,1.056,3.086,1.58,4.621c0.57,1.515,0.943,3.103,1.37,4.659c0.406,1.563,0.866,3.104,1.222,4.658
	c0.313,1.565,0.623,3.121,0.932,4.666c0.146,0.773,0.325,1.539,0.443,2.312c0.105,0.773,0.211,1.546,0.315,2.313
	c0.209,1.535,0.417,3.059,0.623,4.566c0.117,1.518,0.231,3.021,0.346,4.509c0.057,0.743,0.111,1.483,0.167,2.219
	c0.019,0.737,0.038,1.471,0.058,2.198c0.041,1.458,0.082,2.898,0.123,4.318c-0.037,1.421-0.073,2.822-0.109,4.203
	C163.686,115.015,163.667,115.699,163.648,116.379z"/>
<path fill="#29B574" d="M352.896,156.445l-18.475-21.812l-0.691,10.292c-0.52-0.157-1.043-0.313-1.592-0.479
	c-2.822-0.732-6.029-1.515-9.59-2.062c-3.553-0.598-7.455-0.89-11.582-1.022c-2.066,0.011-4.189,0.005-6.354,0.191
	c-2.17,0.092-4.367,0.399-6.602,0.688c-4.451,0.74-8.992,1.664-13.508,3.203c-2.309,0.662-4.424,1.599-6.639,2.416
	c-1.166,0.453-2.199,0.969-3.307,1.45c-1.1,0.47-2.164,1.019-3.227,1.57c-4.258,2.184-8.344,4.714-12.074,7.594
	c-3.729,2.879-7.121,6.062-10.094,9.408c-5.977,6.692-10.141,14.047-12.896,20.607c-2.764,6.581-4.162,12.381-4.895,16.456
	c-0.73,4.084-0.805,6.467-0.805,6.467l0.299,0.016c0,0,0.141-2.354,0.98-6.391c0.842-4.025,2.396-9.74,5.311-16.159
	c2.891-6.412,7.236-13.484,13.203-19.908c2.977-3.211,6.352-6.244,10.043-8.972c3.693-2.728,7.725-5.106,11.914-7.142
	c1.045-0.518,2.09-1.029,3.172-1.463c1.064-0.437,2.156-0.947,3.193-1.322c2.213-0.771,4.426-1.661,6.609-2.219
	c4.332-1.351,8.816-2.14,13.109-2.734c4.32-0.516,8.523-0.711,12.512-0.643c3.98,0.08,7.752,0.34,11.199,0.852
	c3.463,0.414,6.596,1.086,9.367,1.688c0.457,0.115,0.891,0.224,1.326,0.333l-8.43,7.104L352.896,156.445z"/>
<path fill="#34453C" d="M383.251,192.249c0-6.039-3.576-4.697-5.365-8.946c-1.791-4.249-1.342-6.484-1.342-8.944
	s-0.051-3.803-0.051-3.803s-1.738-2.013-3.305,0c0,0,1.342-6.932,5.031-9.614c0,0-1.9-1.789-3.467,0c0,0,3.803-4.248,8.498-2.908
	c0,0,4.576-3.206,10.838-0.262c6.262,2.945,10.063,2.051,11.629,0.709c0,0,2.553,4.92,0.539,6.038c0,0-4.459,6.411-1.553,4.659
	c0,0,0.342,3.168-1.67,4.063c-2.016,0.895-2.016,4.895-2.016,4.895s0.227,1.367-2.904,8.523s0.67,6.931,2.012,9.169
	c1.342,2.233,13.418,11.629,16.102,22.809c2.684,11.183,5.98,48.08,1.955,53.896c-4.025,5.814,1.117,8.272-2.014,10.733
	c-3.131,2.459-10.957,0-10.957,0s2.684,33.32,4.025,47.855c1.342,14.537,1.117,16.549,0.895,28.178
	c-0.225,11.627,2.012,7.156,6.037,11.854c4.025,4.694,7.547-2.238,11.348,4.022c3.803,6.263-8.439,8.945-21.188,6.935
	c-12.746-2.015-12.746-2.015-12.746-2.015s-2.236-5.366-1.564-10.733c0,0-2.684-46.738-6.039-57.474c0,0-8.498,54.789-11.629,69.55
	c0,0-21.021,2.657-29.295,1.327c-8.273-1.327-8.021,0.015-6.457-6.473c1.564-6.483,4.893-4.695,10.93-3.801s5.145-3.131,6.484-5.367
	c1.344-2.236,2.908-1.789,2.908-1.789s5.287-58.633,9.289-76.928c1.564-7.156,1.564-7.156,1.564-7.156s-10.154-2.041-10.154-11.418
	c0-9.379,3.279-45.158,6.412-57.906C369.164,199.18,383.251,192.249,383.251,192.249z"/>
<g>
	<path fill="#34453C" d="M83.085,250.467c3.742-4.127,11.228-6.363,14.22-11.604c2.992-5.242,0-5.992,3.742-10.103
		c3.743-4.119,13.311-7.049,15.932-10.414c2.619-3.371,5.984-2.256,7.48,0c1.067,1.593,3.245-0.147,4.427-1.293
		c-0.29-1.1-0.41-2.104,0.709-3.078c2.626-2.288,4.698,7.998,1.603,10.347c0,0,17.507,13.772,29.199,17.862
		c0,0,20.793-3.1,48.88-4.319c9.543-0.875,22.788-2.105,36.295-3.369c6-1.174,10.367-2.519,15.248-3.869
		c10.855-2.986,13.121-2.236,24.15-2.609c11.023-0.377,11.398-1.498,17.01,5.976c5.613,7.483,7.859,11.977,5.24,22.832
		c-2.621,10.848-0.814,37.701,1.088,44.672c1.906,6.965,7.145,11.828,7.145,11.828s-4.082-1.187-8.459-3.656
		c0.008,0.006,0.016,0.027,0.027,0.027l-0.063-0.045c-1.691-0.949-3.416-2.082-4.98-3.435c0,0-0.746,7.484,1.875,12.351
		c0,0,2.244,13.469,0,23.95c-2.246,10.474,0,29.185,0,29.185c-0.75,3.364-0.75,0-4.117,3.364c-2.857,2.861,0.436,3.037-1.006,4.623
		c-0.527,4.119-11.26,4.185-15.021,2.095c-0.732-0.285-1.184-0.652-1.184-1.104c-1.277-2.94,5.178-5.678,6.992-6.375
		c0.834-0.807,1.559-1.666,1.986-2.604c1.871-4.121,1.871-36.301-1.496-44.906c0,0,1.211,34.098-0.746,40.031
		c-1.955,5.928-5.24,1.498-5.24,1.498s0.041,0.676-0.168,1.678h0.002c0,0.006-0.004,0.006-0.004,0.006
		c-0.24,1.146-0.797,2.695-2.123,4.264c-0.742,0.886-2.188,1.566-3.844,2.019c-3.107,1.203-6.721,0.996-9.432-0.801
		c-4.424-2.941-0.596-5.24,1.877-7.089c0.994-1.368,2.145-2.926,3.59-4.938c0.443-0.631,0.855-1.307,1.242-2.027
		c0.02-0.057,0.043-0.092,0.061-0.147c1.215-3.894,2.395-7.508,3.01-11.135c0.305-3.566,0.158-7.509-0.572-11.755
		c-2.438-8.045-16.521-31.129-16.465-37.801c0,0-9.354,11.604-19.83,13.478c-10.479,1.871-31.431-1.5-38.542,0.748
		c-2.249,0.711-4.872,1.047-7.471,1.637c0.968,5.301,2.302,11.994,3.817,17.889c3.082,11.978,5.699,32.554,2.334,35.181
		c-3.368,2.614-7.639-1.5-7.748,2.614c-0.022,0.789-0.215,1.412-0.487,1.951c-1.947,5.229-8.07,2.195-10.082,2.545
		c-2.224,0.373,2.227-5.623,2.227-5.623c1.121-2.987,8.605-5.985,4.864-19.077c-1.545-5.414-4.621-11.521-7.731-17.441
		c-1.229,14.637-0.443,34.934-1.803,38.326c-1.496,3.742-7.106,2.244-7.106,3.364c0.382,2.986-0.011,4.099-0.761,5.048
		c-0.163,0.27-0.384,0.491-0.618,0.702c-0.218,0.24-0.442,0.486-0.687,0.769c-1.499,1.791-6.372,1.012-9.745,0
		c-3.373-1.002,2.735-6.334,2.735-6.334h0.003c2.399-3.549,5.004-5.104,5.329-10.668c0.375-6.351,1.5-19.076,0-25.816
		c-1.5-6.729-2.992-16.08-2.992-16.08c-10.057-2.014-18.58-13.16-23.781-21.709c-3.852-5.791-5.408-10.104-5.408-10.104
		l-23.197-24.32c0,0-29.936-1.121-31.432-6.734C81.589,255.325,79.343,254.581,83.085,250.467z"/>
	<g>
		<path fill="#29B574" d="M170.643,348.266c0.076,6.215-0.498,13.228-0.746,17.438c-0.326,5.563-2.931,7.119-5.33,10.668h-0.004
			c0,0-6.107,5.332-2.734,6.334c3.374,1.012,8.246,1.791,9.745,0c0.243-0.281,0.469-0.527,0.687-0.769
			c0.234-0.211,0.455-0.434,0.618-0.702c0.75-0.949,1.142-2.062,0.761-5.048c0-1.12,5.611,0.377,7.106-3.364
			c0.961-2.398,0.85-13.238,1.136-24.558H170.643z"/>
		<path fill="#29B574" d="M303.08,348.266h-10.428c0.336,10.574-0.125,21.187-1.146,23.437c-0.43,0.938-1.154,1.797-1.986,2.604
			c-1.816,0.697-8.271,3.435-6.994,6.375c0,0.451,0.451,0.818,1.184,1.104c3.764,2.09,14.494,2.025,15.023-2.094
			c1.439-1.586-1.854-1.763,1.004-4.623c3.367-3.365,3.367,0,4.117-3.365C303.853,371.702,302.291,358.667,303.08,348.266z"/>
		<path fill="#29B574" d="M189.041,348.266c0.473,1.25,0.898,2.479,1.238,3.672c3.742,13.093-3.743,16.091-4.864,19.078
			c0,0-4.449,5.996-2.228,5.623c2.013-0.35,8.135,2.685,10.084-2.545c0.271-0.539,0.464-1.162,0.486-1.951
			c0.109-4.114,4.38,0,7.748-2.614c2.239-1.748,1.828-11.441,0.396-21.263H189.041z"/>
		<path fill="#29B574" d="M283.857,370.002h-0.002c0.209-1.002,0.168-1.678,0.168-1.678s3.285,4.43,5.24-1.498
			c0.85-2.576,1.102-10.463,1.115-18.562h-12.035c-0.023,0.64-0.059,1.271-0.111,1.888c-0.613,3.627-1.793,7.242-3.01,11.135
			c-0.018,0.057-0.039,0.092-0.059,0.148c-0.387,0.721-0.799,1.396-1.242,2.026c-1.445,2.012-2.596,3.568-3.59,4.938
			c-2.475,1.848-6.301,4.146-1.877,7.088c2.711,1.797,6.32,2.004,9.432,0.801c1.654-0.451,3.1-1.133,3.842-2.018
			c1.328-1.568,1.885-3.119,2.123-4.265C283.853,370.008,283.857,370.008,283.857,370.002z"/>
	</g>
</g>
<g>
	<path fill="#FAA52C" d="M284.623,162.437c-5.404,5.402-14.195,5.402-19.599,0c-5.403-5.403-5.403-14.195,0-19.599
		s14.194-5.403,19.599,0C290.025,148.241,290.025,157.033,284.623,162.437z"/>
	<path fill="#00AA5C" d="M287.335,148.666c0,0,4.889,5.234,2.273,8.349c-2.613,3.114-3.563,1.685-5.703,4.194
		c-2.139,2.51-2.598,7.117-4.58,6.046c-1.98-1.072,1.289-3.599-1.965-3.021c-3.253,0.576-1.82,2.927-3.002,2.825
		c-2.855-0.247-5.538-5.91-5.538-5.91L287.335,148.666z"/>
	<circle fill="#20562A" cx="269.973" cy="162.051" r="4.8"/>
	<path fill="#00AA5C" d="M266.986,164.796l2.006,1.293l-2.006-2.298l3.229,1.595l-2.744-2.402c0,0,1.511,0.705,2.847,1.292
		c1.085,0.477,2.053,0.875,2.005,0.756c-0.104-0.265-4.582-4.093-4.582-4.093l4.285,2.575l-4.662-3.222l-0.377,0.754l2.849,2.53
		l-2.849-1.399v1.049l-0.666,0.173L266.986,164.796z"/>
	<path fill="#00C466" d="M280.123,166.212c0,0,2.375-4.128,1.008-3.694c-1.365,0.434-1.992,0.188-3.268,1.089
		C277.863,163.606,279.365,167.37,280.123,166.212z"/>
	<path fill="#00C466" d="M266.479,140.241c0,0-0.687-1.067,1.863-2.27c2.08-0.981,3.446,0.524,4.723,0.178
		c1.274-0.346-1.956,1.729-6.313,2.092"/>
	<circle fill="#20562A" cx="265.993" cy="155.892" r="4.523"/>
	<path fill="#00AA5C" d="M262.572,157.596l1.477,1.695l-1.215-2.605l2.506,2.289l-1.855-2.894c0,0,1.184,1.033,2.239,1.914
		c0.856,0.715,1.63,1.329,1.617,1.209c-0.025-0.268-3.077-4.904-3.077-4.904l3.205,3.453l-3.378-4.136l-0.538,0.583l1.917,3.036
		l-2.213-2.013l-0.274,0.95l-0.647-0.017L262.572,157.596z"/>
	<polygon fill="#FFEC00" points="264.679,141.517 287.335,142.676 289.625,158.484 259.411,153.617 	"/>
	<circle fill="#EE2F25" cx="281.881" cy="159.703" r="6.658"/>
	<circle fill="#FF574A" cx="281.881" cy="159.703" r="5.276"/>
	<polygon fill="#FF725F" points="282.97,157.139 286.318,157.565 284.99,159.407 286.318,160.635 283.9,160.635 285.074,163.396 
		282.523,162.146 281.544,163.871 280.638,163.042 279.625,164.474 279.625,161.479 	"/>
	<path fill="#52140B" d="M283.675,160.514c-4.881,4.881-12.824,4.881-17.705,0c-4.881-4.882-4.881-12.823,0-17.705
		c4.881-4.881,12.824-4.881,17.705,0C288.556,147.69,288.556,155.632,283.675,160.514z"/>
	<g>
		<path fill="#3A0A05" d="M267.407,151.434c-0.001,0,1.179-0.754,3.507-1.453c1.162-0.336,2.617-0.685,4.352-0.777
			c1.727-0.114,3.768,0,5.93,0.764c0.539,0.189,1.08,0.43,1.615,0.711c0.268,0.142,0.527,0.309,0.793,0.467l0.162,0.115
			c-0.014-0.015,0.148,0.111,0.262,0.226c0.061,0.063,0.104,0.103,0.174,0.192c0.072,0.095,0.141,0.197,0.199,0.302l0.082,0.163
			c0.041,0.096,0.074,0.199,0.1,0.305c0.049,0.224,0.076,0.408,0.047,0.663c-0.027,0.249-0.109,0.512-0.223,0.722
			c-0.084,0.146-0.188,0.287-0.307,0.412c-0.141,0.146-0.195,0.181-0.271,0.239c-0.076,0.055-0.156,0.106-0.236,0.152
			c-0.223,0.12-0.41,0.187-0.535,0.224c-0.527,0.156-0.816,0.164-1.152,0.204c-0.322,0.028-0.621,0.05-0.922,0.053
			c-0.596,0.013-1.178,0.003-1.762-0.028c-2.334-0.115-4.721-0.518-7.198-0.798c-1.235-0.121-2.496-0.235-3.748-0.182
			c-0.621,0.029-1.253,0.076-1.82,0.22c-0.273,0.065-0.566,0.164-0.687,0.271c-0.066,0.052-0.041,0.063-0.023-0.003
			c0.002-0.007,0.002-0.014,0-0.021c-0.01-0.144,0-0.022-0.002-0.047l0.004,0.03l0.008,0.062c0.003-0.017,0.003-0.035-0.001-0.052
			c-0.026-0.077-0.018-0.04-0.009-0.044c0.045,0.054,0.314,0.176,0.584,0.231c0.278,0.056,0.584,0.087,0.895,0.107
			c0.621,0.043,1.27,0.039,1.919-0.004c1.302-0.064,2.622-0.241,3.948-0.398c1.328-0.154,2.664-0.348,4.027-0.432
			c1.377-0.096,2.719-0.141,4.307,0.096c0.408,0.076,0.836,0.165,1.371,0.401c0.27,0.127,0.57,0.278,0.918,0.609
			c0.338,0.31,0.705,0.882,0.787,1.512l0.023,0.229l0.006,0.114l-0.008,0.197l-0.004,0.061c-0.002,0.034,0.006-0.001-0.014,0.136
			c-0.027,0.194-0.084,0.421-0.146,0.577c-0.055,0.139-0.119,0.278-0.193,0.404c-0.305,0.512-0.672,0.794-0.975,0.992
			c-0.623,0.39-1.072,0.496-1.506,0.617c-1.66,0.364-2.953,0.343-4.277,0.368c-2.595-0.018-5.01-0.295-7.176-0.441
			c-0.535-0.036-1.057-0.05-1.499-0.054c-0.218-0.001-0.422,0.011-0.53,0.02c-0.057,0.003-0.077,0.01-0.018-0.027
			c0.037-0.044,0.262-0.101,0.537-0.582c0.068-0.119,0.111-0.26,0.137-0.388c0.016-0.064,0.024-0.13,0.027-0.196l0.002-0.099
			c-0.024-0.45-0.006-0.11-0.011-0.204c0.003,0.041,0.011,0.189,0.009,0.144c-0.003-0.1-0.043-0.22-0.081-0.286
			c-0.004-0.013-0.013-0.023-0.024-0.03c-0.008,0.004,0.031,0.096,0.135,0.197c0.188,0.208,0.502,0.462,0.843,0.669
			c1.409,0.843,3.091,1.31,4.558,1.521c1.488,0.233,2.834,0.194,3.945,0.092c1.109-0.122,1.992-0.312,2.586-0.475
			c0.598-0.155,0.918-0.262,0.918-0.262l0.186,0.354c0,0-0.27,0.209-0.809,0.569c-0.539,0.356-1.371,0.842-2.527,1.274
			c-1.151,0.44-2.635,0.814-4.396,0.912c-1.762,0.068-3.783-0.06-5.977-0.981c-0.55-0.242-1.119-0.521-1.707-1.005
			c-0.29-0.237-0.601-0.545-0.893-0.986c-0.074-0.124-0.145-0.252-0.21-0.382c-0.085-0.191-0.163-0.439-0.208-0.666l-0.045-0.252
			c-0.006-0.111,0.007,0.213-0.014-0.255l0.007-0.148c0.008-0.1,0.021-0.199,0.04-0.296c0.038-0.194,0.114-0.395,0.203-0.578
			c0.405-0.722,0.871-0.935,1.151-1.091c0.307-0.149,0.548-0.225,0.759-0.282c0.426-0.113,0.771-0.164,1.107-0.208
			c0.668-0.087,1.276-0.099,1.887-0.112c2.412-0.034,4.809,0.16,7.209,0.29c1.166,0.074,2.438,0.115,3.305-0.02
			c0.189-0.022,0.375-0.087,0.301-0.04c-0.029,0.03-0.137,0.102-0.275,0.332c-0.033,0.056-0.066,0.12-0.086,0.186
			c-0.031,0.082-0.074,0.228-0.078,0.345c-0.006,0.099,0.002,0.021,0.002,0.015l0.008-0.061c-0.002,0.064,0.01-0.187-0.002,0.138
			v0.054c0,0.036,0.006,0.072,0.012,0.107c0.041,0.306,0.234,0.584,0.342,0.666c0.119,0.099,0.133,0.083,0.109,0.067
			c-0.055-0.044-0.264-0.129-0.496-0.19c-0.988-0.271-2.307-0.362-3.578-0.499c-1.315-0.115-2.636-0.231-3.956-0.348
			c-1.347-0.121-2.692-0.242-4.034-0.362c-0.676-0.08-1.353-0.143-2.043-0.257c-0.344-0.059-0.691-0.13-1.051-0.238
			c-0.359-0.113-0.744-0.199-1.169-0.614c-0.104-0.119-0.193-0.222-0.27-0.455c-0.017-0.055-0.03-0.112-0.041-0.167l-0.006-0.061
			l-0.008-0.139l0.015-0.143c0.063-0.395,0.321-0.649,0.514-0.787c0.41-0.28,0.758-0.371,1.107-0.477
			c0.692-0.179,1.35-0.279,2.008-0.37c1.31-0.167,2.591-0.334,3.853-0.475c2.519-0.314,4.96-0.572,7.206-0.689
			c0.549-0.03,1.09-0.059,1.623-0.087c0.246-0.017,0.49-0.034,0.732-0.051c0.205-0.015,0.461-0.063,0.451-0.058
			c0.006,0.001-0.057,0.017-0.16,0.078c-0.053,0.028-0.104,0.06-0.152,0.097c-0.047,0.039-0.074,0.057-0.195,0.176
			c-0.098,0.099-0.18,0.215-0.24,0.335c-0.104,0.178-0.18,0.408-0.199,0.625c-0.016,0.223-0.008,0.374,0.037,0.565
			c0.023,0.09,0.053,0.176,0.09,0.257l0.055,0.12c0.041,0.077,0.092,0.151,0.146,0.218c0.051,0.062,0.066,0.081,0.105,0.12
			c0.066,0.067,0.184,0.145,0.113,0.093l-0.041-0.03l-0.02-0.016c0.031,0.021-0.094-0.067,0.063,0.043
			c-0.186-0.116-0.361-0.245-0.549-0.354c-0.373-0.221-0.75-0.434-1.145-0.602c-1.564-0.709-3.225-1.048-4.732-1.248
			c-1.514-0.169-2.887-0.223-4.027-0.218c-1.142,0.003-2.055,0.042-2.68,0.077c-0.627,0.037-0.961,0.056-0.961,0.056
			L267.407,151.434z"/>
	</g>
	<path fill="#FAA52C" d="M274.775,159.703c-7.121,0-12.914-5.623-12.914-12.535s5.793-12.535,12.914-12.535
		c7.123,0,12.916,5.623,12.916,12.535S281.898,159.703,274.775,159.703z"/>
	<circle fill="#FFFFFF" cx="273.345" cy="145.544" r="0.639"/>
	<circle fill="#FFFFFF" cx="279.708" cy="143.777" r="0.639"/>
	<circle fill="#FFFFFF" cx="269.638" cy="141.936" r="0.639"/>
	<circle fill="#FFFFFF" cx="281.88" cy="148.666" r="0.639"/>
	<circle fill="#FFFFFF" cx="273.984" cy="151.786" r="0.638"/>
</g>
<path fill="#E5D94E" d="M152.585,39.87c5.696,1.885-3.957,9-5.957,6S146.542,37.87,152.585,39.87z"/>
<path fill="#E5D94E" d="M152.578,46.879c2.341-3.868,8.064-0.992,5.307,2.454C155.127,52.779,149.269,52.349,152.578,46.879z"/>
<path fill="#E5D94E" d="M139.468,26.35c6.259,1.392,9.32,9.238,2.842,6.119S134.31,25.203,139.468,26.35z"/>
<path fill="#E5D94E" d="M172.733,38.34c-1.027,5.435-8.428,13.705-10.228,6.57S172.733,38.34,172.733,38.34z"/>
<path fill="#E5D94E" d="M134.338,42.22c-2.607,5.404-8.411-5.09-5.177-6.684C132.395,33.941,137.105,36.487,134.338,42.22z"/>
<path fill="#E5D94E" d="M133.357,52.924c3.532,2.822-0.062,8.125-3.12,4.944C127.177,54.688,128.363,48.934,133.357,52.924z"/>
<path fill="#E5D94E" d="M149.121,63.561c-2.19,6.026-10.368,8.045-6.436,2.025C146.618,59.566,150.926,58.595,149.121,63.561z"/>
<path fill="#E5D94E" d="M139.212,74.016c-5.255-1.723-12.496-10.132-5.188-10.993C141.332,62.163,139.212,74.016,139.212,74.016z"/>
<path fill="#E5D94E" d="M150.863,85.686c-5.524-2.341,4.674-8.65,6.424-5.498C159.038,83.34,156.724,88.168,150.863,85.686z"/>
<path fill="#E5D94E" d="M151.439,78.7c-2.646,3.665-8.118,0.335-5.09-2.876C149.376,72.613,155.18,73.517,151.439,78.7z"/>
<path fill="#E5D94E" d="M149.699,107.505c1.464-5.334,9.51-12.976,10.726-5.72C161.641,109.042,149.699,107.505,149.699,107.505z"/>
<path fill="#E5D94E" d="M164.234,72.757c3.037-5.174,7.972,5.755,4.619,7.081C165.5,81.166,161.012,78.246,164.234,72.757z"/>
<path fill="#E5D94E" d="M171.086,74.232c-3.292-3.099,0.72-8.093,3.511-4.675C177.389,72.976,175.741,78.614,171.086,74.232z"/>
<path fill="#E5D94E" d="M156.237,62.353c2.671-5.828,10.985-7.178,6.578-1.496C158.408,66.538,154.035,67.157,156.237,62.353z"/>
<path fill="#E5D94E" d="M166.959,52.736c5.099,2.144,11.634,11.111,4.28,11.377C163.887,64.377,166.959,52.736,166.959,52.736z"/>
<g>
	<path fill="#FAA52C" d="M254.029,182.705c-3.961,3.959-10.403,3.959-14.363,0c-3.96-3.96-3.96-10.403,0-14.363
		s10.402-3.96,14.363,0C257.988,172.302,257.988,178.745,254.029,182.705z"/>
	<path fill="#00AA5C" d="M256.017,172.613c0,0,3.583,3.836,1.666,6.119c-1.915,2.283-2.61,1.235-4.18,3.074
		c-1.567,1.839-1.903,5.216-3.356,4.431c-1.451-0.786,0.944-2.637-1.44-2.213c-2.384,0.422-1.334,2.145-2.199,2.07
		c-2.093-0.181-4.06-4.332-4.06-4.332L256.017,172.613z"/>
	<circle fill="#20562A" cx="243.292" cy="182.422" r="3.518"/>
	<path fill="#00AA5C" d="M241.103,184.435l1.471,0.947l-1.471-1.684l2.366,1.169l-2.011-1.761c0,0,1.107,0.517,2.086,0.947
		c0.795,0.35,1.505,0.642,1.47,0.554c-0.077-0.194-3.358-3-3.358-3l3.141,1.887l-3.417-2.361l-0.276,0.552l2.088,1.854l-2.088-1.026
		v0.769l-0.487,0.126L241.103,184.435z"/>
	<path fill="#00C466" d="M250.731,185.472c0,0,1.74-3.025,0.738-2.708c-1,0.318-1.46,0.137-2.395,0.798
		C249.075,183.563,250.175,186.321,250.731,185.472z"/>
	<path fill="#00C466" d="M240.732,166.438c0,0-0.503-0.782,1.365-1.664c1.524-0.719,2.526,0.384,3.461,0.13
		s-1.433,1.267-4.627,1.533"/>
	<circle fill="#20562A" cx="240.375" cy="177.909" r="3.315"/>
	<path fill="#00AA5C" d="M237.869,179.158l1.082,1.242l-0.891-1.909l1.837,1.677l-1.36-2.121c0,0,0.868,0.757,1.642,1.403
		c0.628,0.524,1.194,0.974,1.185,0.886c-0.019-0.196-2.255-3.594-2.255-3.594l2.349,2.531l-2.476-3.031l-0.394,0.427l1.404,2.225
		l-1.621-1.475l-0.201,0.696l-0.475-0.012L237.869,179.158z"/>
	<polygon fill="#FFEC00" points="239.413,167.374 256.017,168.223 257.695,179.809 235.552,176.242 	"/>
	<circle fill="#EE2F25" cx="252.02" cy="180.702" r="4.879"/>
	<circle fill="#FF574A" cx="252.02" cy="180.702" r="3.867"/>
	<polygon fill="#FF725F" points="252.818,178.823 255.271,179.135 254.298,180.485 255.271,181.385 253.5,181.385 254.36,183.409 
		252.49,182.493 251.773,183.756 251.109,183.149 250.366,184.198 250.366,182.003 	"/>
	<path fill="#52140B" d="M253.334,181.296c-3.577,3.577-9.398,3.577-12.976,0c-3.577-3.578-3.577-9.397,0-12.975
		c3.577-3.577,9.398-3.577,12.976,0C256.912,171.898,256.912,177.718,253.334,181.296z"/>
	<g>
		<path fill="#3A0A05" d="M241.395,174.591c0,0,0.841-0.638,2.552-1.241c0.856-0.294,1.933-0.59,3.233-0.712
			c1.296-0.111,2.841-0.063,4.506,0.505c0.414,0.142,0.832,0.322,1.247,0.536c0.206,0.108,0.407,0.236,0.613,0.357l0.142,0.1
			c-0.022-0.02,0.134,0.1,0.241,0.208c0.059,0.06,0.098,0.097,0.165,0.183c0.07,0.091,0.136,0.189,0.192,0.291l0.078,0.157
			c0.039,0.094,0.073,0.195,0.098,0.299c0.049,0.22,0.073,0.399,0.046,0.65c-0.026,0.245-0.109,0.503-0.221,0.708
			c-0.081,0.142-0.182,0.279-0.297,0.401c-0.138,0.143-0.19,0.175-0.263,0.23c-0.071,0.052-0.146,0.101-0.224,0.145
			c-0.208,0.112-0.378,0.172-0.484,0.204c-0.46,0.136-0.675,0.136-0.939,0.169c-0.25,0.021-0.474,0.04-0.7,0.039
			c-0.447,0.006-0.878-0.005-1.311-0.037c-1.722-0.115-3.464-0.499-5.273-0.783c-0.902-0.124-1.823-0.245-2.733-0.221
			c-0.45,0.013-0.91,0.041-1.309,0.141c-0.19,0.043-0.397,0.116-0.449,0.169c-0.032,0.026,0.021,0.001,0.043-0.106
			c0.002-0.012,0.002-0.024,0.001-0.036c-0.009-0.146-0.001-0.027-0.002-0.054l0.003,0.022l0.005,0.044
			c0.001-0.02-0.001-0.043-0.007-0.064c-0.033-0.096-0.036-0.077-0.041-0.096c-0.014-0.009,0.17,0.082,0.356,0.112
			c0.192,0.036,0.411,0.057,0.633,0.069c0.448,0.02,0.919,0,1.392-0.045c0.947-0.073,1.911-0.242,2.882-0.394
			c0.973-0.148,1.953-0.334,2.961-0.42c1.024-0.101,2.01-0.153,3.254,0.017c0.322,0.057,0.665,0.123,1.121,0.321
			c0.23,0.108,0.492,0.237,0.811,0.537c0.307,0.278,0.651,0.811,0.728,1.397l0.022,0.213l0.005,0.106l-0.008,0.192l-0.001,0.044
			c-0.003,0.032,0.006-0.017-0.011,0.116c-0.024,0.185-0.079,0.398-0.137,0.547c-0.051,0.128-0.111,0.258-0.179,0.375
			c-0.282,0.474-0.616,0.729-0.881,0.905c-0.552,0.344-0.916,0.428-1.267,0.53c-1.323,0.297-2.272,0.284-3.265,0.316
			c-1.928,0.002-3.699-0.212-5.255-0.343c-0.354-0.021-0.703-0.042-1.047-0.062c-0.143-0.007-0.274-0.003-0.312-0.011
			c-0.021-0.005-0.006-0.01,0.086-0.061c0.068-0.058,0.326-0.137,0.618-0.648c0.071-0.127,0.118-0.275,0.146-0.413
			c0.016-0.068,0.025-0.139,0.029-0.209l0.003-0.105c-0.024-0.459-0.007-0.117-0.012-0.214c0.001,0.025,0.008,0.152,0.003,0.093
			c-0.009-0.117-0.054-0.253-0.099-0.338c-0.012-0.028-0.029-0.054-0.05-0.077c-0.045-0.056-0.054-0.018-0.003,0.039
			c0.086,0.116,0.28,0.298,0.503,0.445c0.927,0.607,2.115,0.995,3.15,1.188c1.054,0.215,2.021,0.231,2.831,0.201
			c0.807-0.048,1.46-0.147,1.902-0.241c0.447-0.086,0.688-0.15,0.688-0.15l0.186,0.354c0.001,0-0.19,0.167-0.577,0.458
			c-0.389,0.287-0.991,0.682-1.845,1.041c-0.85,0.367-1.955,0.687-3.282,0.802c-1.331,0.088-2.858,0.039-4.57-0.647
			c-0.431-0.183-0.882-0.39-1.366-0.782c-0.237-0.192-0.501-0.446-0.755-0.829c-0.066-0.108-0.128-0.221-0.186-0.335
			c-0.079-0.176-0.151-0.406-0.191-0.616l-0.037-0.198c-0.006-0.11,0.008,0.221-0.014-0.251l0.007-0.142
			c0.008-0.095,0.021-0.19,0.039-0.283c0.037-0.186,0.108-0.378,0.195-0.552c0.388-0.688,0.821-0.88,1.068-1.021
			c0.273-0.134,0.48-0.198,0.655-0.248c0.354-0.097,0.626-0.14,0.889-0.178c0.519-0.076,0.977-0.088,1.434-0.104
			c1.801-0.049,3.556,0.082,5.288,0.192c0.834,0.068,1.762,0.101,2.292,0.032c0.106-0.003,0.206-0.045,0.06,0.048
			c-0.065,0.052-0.21,0.153-0.37,0.421c-0.039,0.065-0.076,0.14-0.101,0.215c-0.036,0.094-0.079,0.249-0.087,0.376
			c-0.007,0.104,0.001,0.026,0.001,0.028l0.007-0.044c-0.002,0.068,0.01-0.184-0.004,0.147l0.001,0.063
			c0.002,0.042,0.007,0.083,0.014,0.124c0.046,0.349,0.265,0.666,0.401,0.777c0.149,0.129,0.201,0.136,0.218,0.139
			c0.022-0.007-0.1-0.069-0.248-0.112c-0.644-0.203-1.607-0.288-2.525-0.419c-0.961-0.119-1.925-0.239-2.889-0.358
			c-0.991-0.123-1.981-0.246-2.968-0.368c-0.5-0.071-1-0.135-1.514-0.23c-0.257-0.045-0.518-0.1-0.792-0.185
			c-0.274-0.094-0.571-0.155-0.928-0.508c-0.089-0.104-0.163-0.187-0.232-0.396c-0.016-0.05-0.028-0.102-0.036-0.15l-0.005-0.045
			l-0.007-0.121l0.013-0.125c0.055-0.348,0.279-0.567,0.437-0.681c0.337-0.231,0.6-0.296,0.865-0.378
			c0.524-0.136,1.011-0.217,1.497-0.292c0.959-0.147,1.905-0.293,2.837-0.436c1.852-0.31,3.648-0.587,5.282-0.704
			c0.396-0.027,0.786-0.053,1.171-0.08l0.512-0.037c0.133-0.008,0.317-0.049,0.236-0.023c-0.011,0.006-0.09,0.029-0.209,0.097
			c-0.057,0.03-0.111,0.065-0.163,0.104c-0.052,0.042-0.082,0.062-0.207,0.184c-0.099,0.103-0.184,0.222-0.248,0.345
			c-0.105,0.182-0.182,0.417-0.202,0.638c-0.018,0.228-0.009,0.383,0.038,0.578c0.022,0.092,0.054,0.181,0.091,0.263l0.059,0.126
			c0.043,0.082,0.095,0.16,0.152,0.23c0.055,0.065,0.073,0.087,0.115,0.129c0.072,0.075,0.196,0.158,0.133,0.111l-0.029-0.023
			l-0.014-0.011c0.031,0.022-0.091-0.065,0.067,0.047c-0.126-0.08-0.243-0.169-0.37-0.244c-0.252-0.154-0.505-0.306-0.775-0.426
			c-1.066-0.512-2.232-0.794-3.309-0.969c-1.079-0.178-2.075-0.258-2.908-0.303c-1.669-0.08-2.686-0.079-2.686-0.079
			L241.395,174.591z"/>
	</g>
	<path fill="#FAA52C" d="M246.812,180.702c-5.219,0-9.465-4.121-9.465-9.187s4.246-9.186,9.465-9.186
		c5.22,0,9.466,4.121,9.466,9.186S252.032,180.702,246.812,180.702z"/>
	<circle fill="#FFFFFF" cx="245.764" cy="170.325" r="0.468"/>
	<circle fill="#FFFFFF" cx="250.428" cy="169.03" r="0.468"/>
	<circle fill="#FFFFFF" cx="243.047" cy="167.681" r="0.468"/>
	<circle fill="#FFFFFF" cx="252.019" cy="172.613" r="0.468"/>
	<circle fill="#FFFFFF" cx="246.232" cy="174.9" r="0.468"/>
</g>
<g>
	<path fill="#FAA52C" d="M317.828,150.938c-3.961,3.96-10.403,3.96-14.363,0s-3.96-10.403,0-14.363s10.402-3.96,14.363,0
		C321.787,140.534,321.787,146.978,317.828,150.938z"/>
	<path fill="#00AA5C" d="M319.816,140.845c0,0,3.583,3.835,1.666,6.119c-1.915,2.283-2.61,1.234-4.18,3.074
		c-1.567,1.84-1.903,5.216-3.356,4.431c-1.451-0.786,0.944-2.638-1.44-2.214c-2.384,0.423-1.334,2.146-2.199,2.07
		c-2.093-0.181-4.06-4.331-4.06-4.331L319.816,140.845z"/>
	<circle fill="#20562A" cx="307.091" cy="150.655" r="3.518"/>
	<path fill="#00AA5C" d="M304.902,152.667l1.471,0.947l-1.471-1.684l2.366,1.168l-2.011-1.76c0,0,1.107,0.516,2.086,0.946
		c0.795,0.35,1.505,0.642,1.47,0.554c-0.077-0.193-3.358-2.999-3.358-2.999l3.141,1.888l-3.417-2.361l-0.276,0.553l2.088,1.854
		l-2.088-1.025v0.77l-0.487,0.126L304.902,152.667z"/>
	<path fill="#00C466" d="M314.53,153.704c0,0,1.74-3.025,0.738-2.707c-1,0.318-1.46,0.137-2.395,0.798
		C312.874,151.795,313.974,154.554,314.53,153.704z"/>
	<path fill="#00C466" d="M304.531,134.671c0,0-0.503-0.782,1.365-1.664c1.524-0.719,2.526,0.384,3.461,0.13
		s-1.433,1.267-4.627,1.533"/>
	<circle fill="#20562A" cx="304.174" cy="146.141" r="3.315"/>
	<path fill="#00AA5C" d="M301.667,147.39l1.082,1.242l-0.891-1.908l1.837,1.677l-1.36-2.12c0,0,0.868,0.757,1.642,1.402
		c0.628,0.523,1.194,0.975,1.185,0.887c-0.019-0.197-2.255-3.595-2.255-3.595l2.349,2.53l-2.476-3.031l-0.394,0.428l1.404,2.225
		l-1.621-1.475l-0.201,0.696l-0.475-0.012L301.667,147.39z"/>
	<polygon fill="#FFEC00" points="303.211,135.606 319.816,136.456 321.494,148.041 299.351,144.474 	"/>
	<circle fill="#EE2F25" cx="315.818" cy="148.935" r="4.879"/>
	<circle fill="#FF574A" cx="315.819" cy="148.935" r="3.867"/>
	<polygon fill="#FF725F" points="316.617,147.056 319.07,147.368 318.097,148.718 319.07,149.617 317.298,149.617 318.159,151.642 
		316.289,150.726 315.572,151.989 314.908,151.382 314.165,152.431 314.165,150.235 	"/>
	<path fill="#52140B" d="M317.133,149.528c-3.577,3.577-9.398,3.577-12.976,0c-3.577-3.578-3.577-9.397,0-12.975
		c3.577-3.577,9.398-3.577,12.976,0C320.71,140.131,320.71,145.95,317.133,149.528z"/>
	<g>
		<path fill="#3A0A05" d="M305.194,142.823c0,0,0.841-0.638,2.552-1.241c0.856-0.294,1.933-0.59,3.233-0.712
			c1.296-0.111,2.841-0.063,4.506,0.505c0.414,0.142,0.832,0.322,1.247,0.536c0.206,0.108,0.407,0.236,0.613,0.357l0.142,0.1
			c-0.022-0.02,0.134,0.1,0.241,0.208c0.059,0.06,0.098,0.097,0.165,0.183c0.07,0.091,0.136,0.189,0.192,0.291l0.078,0.157
			c0.039,0.095,0.073,0.195,0.098,0.299c0.049,0.22,0.073,0.399,0.046,0.649c-0.026,0.246-0.109,0.504-0.221,0.709
			c-0.081,0.142-0.182,0.279-0.297,0.4c-0.138,0.144-0.19,0.176-0.263,0.23c-0.071,0.053-0.146,0.102-0.224,0.146
			c-0.208,0.112-0.378,0.172-0.484,0.204c-0.46,0.137-0.675,0.136-0.939,0.169c-0.25,0.021-0.474,0.04-0.7,0.039
			c-0.447,0.007-0.878-0.005-1.311-0.036c-1.722-0.115-3.464-0.499-5.273-0.783c-0.902-0.124-1.823-0.246-2.733-0.221
			c-0.45,0.012-0.91,0.04-1.309,0.141c-0.19,0.043-0.397,0.115-0.449,0.168c-0.032,0.026,0.021,0.002,0.043-0.105
			c0.002-0.012,0.002-0.023,0.001-0.035c-0.009-0.146-0.001-0.027-0.002-0.055l0.003,0.022l0.005,0.044
			c0.001-0.02-0.001-0.043-0.007-0.064c-0.033-0.096-0.036-0.076-0.041-0.096c-0.014-0.009,0.17,0.082,0.356,0.112
			c0.192,0.036,0.411,0.057,0.633,0.069c0.448,0.02,0.919,0,1.392-0.045c0.947-0.073,1.911-0.242,2.882-0.395
			c0.973-0.147,1.953-0.334,2.961-0.42c1.024-0.102,2.01-0.152,3.254,0.017c0.322,0.058,0.665,0.123,1.121,0.321
			c0.23,0.107,0.492,0.237,0.811,0.537c0.307,0.277,0.651,0.811,0.728,1.396l0.022,0.213l0.005,0.106l-0.008,0.192l-0.001,0.044
			c-0.003,0.032,0.006-0.017-0.011,0.116c-0.024,0.185-0.079,0.398-0.137,0.547c-0.051,0.129-0.111,0.259-0.179,0.376
			c-0.282,0.474-0.616,0.729-0.881,0.905c-0.552,0.344-0.916,0.428-1.267,0.53c-1.323,0.298-2.272,0.284-3.265,0.315
			c-1.928,0.002-3.699-0.211-5.255-0.343c-0.354-0.021-0.703-0.042-1.047-0.062c-0.143-0.008-0.274-0.004-0.312-0.012
			c-0.021-0.005-0.006-0.01,0.086-0.061c0.068-0.059,0.326-0.137,0.618-0.648c0.071-0.127,0.118-0.275,0.146-0.412
			c0.016-0.068,0.025-0.14,0.029-0.21l0.003-0.104c-0.024-0.46-0.007-0.117-0.012-0.215c0.001,0.025,0.008,0.152,0.003,0.093
			c-0.009-0.117-0.054-0.253-0.099-0.339c-0.012-0.027-0.029-0.054-0.05-0.076c-0.045-0.057-0.054-0.018-0.003,0.039
			c0.086,0.115,0.28,0.298,0.503,0.444c0.927,0.607,2.115,0.995,3.15,1.188c1.054,0.215,2.021,0.23,2.831,0.201
			c0.807-0.049,1.46-0.147,1.902-0.242c0.447-0.086,0.688-0.15,0.688-0.15l0.186,0.354c0.001,0.001-0.19,0.167-0.577,0.459
			c-0.389,0.287-0.991,0.682-1.845,1.041c-0.85,0.367-1.955,0.687-3.282,0.803c-1.331,0.088-2.858,0.039-4.57-0.648
			c-0.431-0.182-0.882-0.39-1.366-0.781c-0.237-0.192-0.501-0.446-0.755-0.828c-0.066-0.109-0.128-0.222-0.186-0.336
			c-0.079-0.176-0.151-0.406-0.191-0.615l-0.037-0.199c-0.006-0.109,0.008,0.221-0.014-0.25l0.007-0.143
			c0.008-0.094,0.021-0.189,0.039-0.282c0.037-0.186,0.108-0.378,0.195-0.552c0.388-0.688,0.821-0.881,1.068-1.021
			c0.273-0.134,0.48-0.198,0.655-0.247c0.354-0.098,0.626-0.141,0.889-0.178c0.519-0.076,0.977-0.088,1.434-0.104
			c1.801-0.05,3.556,0.081,5.288,0.192c0.834,0.067,1.762,0.1,2.292,0.031c0.106-0.002,0.206-0.045,0.06,0.049
			c-0.065,0.053-0.21,0.152-0.37,0.421c-0.039,0.065-0.076,0.14-0.101,0.216c-0.036,0.094-0.079,0.248-0.087,0.376
			c-0.007,0.104,0.001,0.026,0.001,0.028l0.007-0.045c-0.002,0.068,0.01-0.184-0.004,0.147l0.001,0.063
			c0.002,0.042,0.007,0.083,0.014,0.124c0.046,0.35,0.265,0.666,0.401,0.777c0.149,0.129,0.201,0.137,0.218,0.139
			c0.022-0.006-0.1-0.068-0.248-0.111c-0.644-0.203-1.607-0.288-2.525-0.419c-0.961-0.119-1.925-0.239-2.889-0.358
			c-0.991-0.123-1.981-0.246-2.968-0.368c-0.5-0.071-1-0.135-1.514-0.229c-0.257-0.046-0.518-0.101-0.792-0.186
			c-0.274-0.094-0.571-0.154-0.928-0.508c-0.089-0.104-0.163-0.187-0.232-0.396c-0.016-0.049-0.028-0.102-0.036-0.149l-0.005-0.045
			l-0.007-0.121l0.013-0.125c0.055-0.349,0.279-0.567,0.437-0.681c0.337-0.232,0.6-0.297,0.865-0.379
			c0.524-0.136,1.011-0.217,1.497-0.292c0.959-0.147,1.905-0.293,2.837-0.436c1.852-0.31,3.648-0.587,5.282-0.704
			c0.396-0.027,0.786-0.053,1.171-0.08l0.512-0.037c0.133-0.008,0.317-0.049,0.236-0.023c-0.011,0.006-0.09,0.029-0.209,0.097
			c-0.057,0.03-0.111,0.065-0.163,0.104c-0.052,0.042-0.082,0.062-0.207,0.184c-0.099,0.103-0.184,0.222-0.248,0.345
			c-0.105,0.182-0.182,0.417-0.202,0.638c-0.018,0.227-0.009,0.383,0.038,0.578c0.022,0.092,0.054,0.18,0.091,0.263l0.059,0.126
			c0.043,0.082,0.095,0.16,0.152,0.23c0.055,0.064,0.073,0.086,0.115,0.129c0.072,0.074,0.196,0.158,0.133,0.111l-0.029-0.023
			l-0.014-0.011c0.031,0.022-0.091-0.065,0.067,0.047c-0.126-0.079-0.243-0.169-0.37-0.243c-0.252-0.154-0.505-0.307-0.775-0.427
			c-1.066-0.512-2.232-0.794-3.309-0.97c-1.079-0.178-2.075-0.258-2.908-0.302c-1.669-0.08-2.686-0.079-2.686-0.079L305.194,142.823
			z"/>
	</g>
	<path fill="#FAA52C" d="M310.611,148.935c-5.219,0-9.465-4.121-9.465-9.187s4.246-9.186,9.465-9.186
		c5.22,0,9.466,4.121,9.466,9.186S315.831,148.935,310.611,148.935z"/>
	<circle fill="#FFFFFF" cx="309.563" cy="138.558" r="0.468"/>
	<circle fill="#FFFFFF" cx="314.227" cy="137.263" r="0.468"/>
	<circle fill="#FFFFFF" cx="306.846" cy="135.913" r="0.468"/>
	<circle fill="#FFFFFF" cx="315.818" cy="140.845" r="0.468"/>
	<circle fill="#FFFFFF" cx="310.031" cy="143.132" r="0.468"/>
</g>
</svg>
