<?xml version="1.0" encoding="utf-8"?>
<!-- Generator: Adobe Illustrator 16.0.0, SVG Export Plug-In . SVG Version: 6.00 Build 0)  -->
<!DOCTYPE svg PUBLIC "-//W3C//DTD SVG 1.1//EN" "http://www.w3.org/Graphics/SVG/1.1/DTD/svg11.dtd">
<svg version="1.1" id="Layer_1" xmlns="http://www.w3.org/2000/svg" xmlns:xlink="http://www.w3.org/1999/xlink" x="0px" y="0px"
	 width="66.336px" height="65.265px" viewBox="0 0 66.336 65.265" enable-background="new 0 0 66.336 65.265" xml:space="preserve">
<g>
	<circle fill="#FAA62C" cx="23.781" cy="41.483" r="23.778"/>
	<path fill="#785736" d="M31.766,30.633l-2.06-6.907c0,0,10.757-3.634,9.666,4.248C38.28,35.858,31.766,30.633,31.766,30.633z"/>
	<path fill="#FCB537" d="M38.239,36.151c0,0-1.234,17.625-13.053,20.211C25.187,56.362,40.739,57.305,38.239,36.151z"/>
	<path fill="#FCB537" d="M28.042,35.737L15.167,50.322C15.167,50.322,11.603,41.684,28.042,35.737z"/>
	<path fill="#FCB537" d="M20.937,26.069c0,0-7.607,1.461-13.285,13.179C7.651,39.249,2.503,24.165,20.937,26.069z"/>
	<path fill="#128848" d="M30.907,28.115c0,0-15.918-8.149-7.646-28.115C23.261,0,39.649,8.086,30.907,28.115z"/>
	<path fill="#128848" d="M33.708,31.619c0,0,1.365-5.427,18.6-3.556c17.232,1.869,13.738,9.684,13.738,9.684
		S50.63,40.008,33.708,31.619z"/>
</g>
</svg>
