<?xml version="1.0" encoding="utf-8"?>
<!-- Generator: Adobe Illustrator 16.0.0, SVG Export Plug-In . SVG Version: 6.00 Build 0)  -->
<!DOCTYPE svg PUBLIC "-//W3C//DTD SVG 1.1//EN" "http://www.w3.org/Graphics/SVG/1.1/DTD/svg11.dtd">
<svg version="1.1" id="Layer_1" xmlns="http://www.w3.org/2000/svg" xmlns:xlink="http://www.w3.org/1999/xlink" x="0px" y="0px"
	 width="66.336px" height="65.265px" viewBox="0 0 66.336 65.265" enable-background="new 0 0 66.336 65.265" xml:space="preserve">
<g>
	<path fill="#FAA62C" d="M39.45,41.436c-9.508,6.359-28.622,19.991-28.622,19.991C5.375,59.227-0.75,50.477,0.228,38.221
		C1.271,25.13,14.034,16.128,27.044,17.929C40.052,19.73,51.875,33.125,39.45,41.436z"/>
	<path fill="#785736" d="M31.766,30.633l-2.06-6.907c0,0,10.757-3.634,9.666,4.248C38.28,35.858,31.766,30.633,31.766,30.633z"/>
	<path fill="#FCB537" d="M38.239,36.151c0,0-1.234,17.625-13.053,20.211C25.187,56.362,40.739,57.305,38.239,36.151z"/>
	<path fill="#FCB537" d="M23.15,32.517l-9.586,16.929C13.563,49.446,8.292,41.73,23.15,32.517z"/>
	<path fill="#FCB537" d="M20.937,26.069c0,0-7.607,1.461-13.285,13.179C7.651,39.249,2.503,24.165,20.937,26.069z"/>
	<path fill="#128848" d="M30.907,28.115c0,0-15.918-8.149-7.646-28.115C23.261,0,39.649,8.086,30.907,28.115z"/>
	<path fill="#128848" d="M33.708,31.619c0,0,1.365-5.427,18.6-3.556c17.232,1.869,13.738,9.684,13.738,9.684
		S50.63,40.008,33.708,31.619z"/>
</g>
<path fill="#EFCC38" d="M10.828,61.426c0,0-0.453-2.918,0.797-5.059s1.75-3.391,1.75-3.391s5.375-2.061,6.75-2.655
	s3.249-6.22,5.062-8.345s1.292-7.5,1.99-8.125s9.813-0.727,9.813-0.727s7.571,2.741,10.023,3.261c0,0-6.889,2.841-7.014,7.466
	s-1.375,6.25-2.375,7.625s-3.167,4.516-3.917,4.891s-10.996,0.559-10.558,2.484s-3.65,3.375-3.65,3.375l-3-0.375L10.828,61.426z"/>
<path fill="#FAA62C" d="M46.041,36.151l-5.666,3.098c0,0-1.375,1.228-1.375,2.103s-0.375,1.875-0.875,3.25s-1,4.625-2.125,6
	s-2.164,5.431-2.832,5.028s-7.294,1.347-7.981,1.347s-1.012,0.5-2.037,1s-0.775,0.375-1.65,1.5s-1.5,1.148-1.75,1.949
	s-6.625,0-6.625,0s3.181,0.801,4.778,0.801s2.429,0.999,3.034,0s3.063-1.625,3.438-2.375s0.25-0.875,1.375-0.875s3.131,0,3.131,0
	s1.442,0.25,2.968-0.75s2.401-0.844,3.401-1.859s1.375-1.391,2.375-2.391s1.5-0.75,2.375-2.875s0.875-2.977,0.875-3.426
	s0.125-2.074,0.5-2.449s1-1.375,1.25-2s-0.375-0.375,0-1.5s-0.125-1.703,1-2.164S45,37.947,45.5,38.024s1.514-1.639,1.514-1.639
	L46.041,36.151z"/>
<path fill="#E98E23" d="M17.525,48.926c-1.298,0.622,2.625,0.176,3.125-0.824s0.832-2.375,0.916-2.75s-1.116,0.25,0.734-2
	s4.1-5.104,3.6-6.302s-0.5-1.823-0.5-1.823s-0.875,3.375-1.75,4.625s-1.43,1.773-1.902,2.324s-2.348,1.176-2.723,1.926
	S21.025,47.25,17.525,48.926z"/>
<path fill="#E9C11E" d="M29.706,44.477c-0.081,0.375-3.735,10.75-3.735,10.75l1.868-10.125L18.5,59.727l6.687-13.875l-2.771,1.022
	l1.206-2.397l2.349-1.25l2.404-8l0.506,5.754l6.744-7.004l-4.5,7.004l10.5-4.83l-9,6.576l4.625,1.375l-5.401,0.25l1.859,7.125
	L29.706,44.477z"/>
</svg>
