<?xml version="1.0" encoding="utf-8"?>
<!-- Generator: Adobe Illustrator 16.0.0, SVG Export Plug-In . SVG Version: 6.00 Build 0)  -->
<!DOCTYPE svg PUBLIC "-//W3C//DTD SVG 1.1//EN" "http://www.w3.org/Graphics/SVG/1.1/DTD/svg11.dtd">
<svg version="1.1" id="Layer_1" xmlns="http://www.w3.org/2000/svg" xmlns:xlink="http://www.w3.org/1999/xlink" x="0px" y="0px"
	 width="1000.071px" height="432.491px" viewBox="0 0.561 1000.071 432.491" enable-background="new 0 0.561 1000.071 432.491"
	 xml:space="preserve">
<g>
	<polygon fill="#9C8576" points="128.058,21.48 754.398,19.033 760.193,392.856 76.967,363.999 	"/>
	<path fill="#94796D" d="M672.002,118.094c0,0-218.235-68.728-419.599-58.774c-201.364,9.953,8.182-12.666,74.254,45.208
		c66.07,57.877,419.323,21.389,222.476,70.463c-196.851,49.071-377.904-125.393-252.682-20.854
		c125.222,104.543,95.553,107.902,211.071,84.197c115.516-23.703,200.761-71.528,94.578-94.182
		c-106.173-22.652-347.295-37.679-260.971-57.375C427.454,67.082,605.809,152.443,672.002,118.094z"/>
	<polygon fill="#E0D0C1" points="702.324,89.41 716.165,344.262 443.35,354.959 438.664,396.488 993.488,412.22 993.816,132.828 	
		"/>
	<path fill="#BE202E" d="M584.975,119.84c0,0,22.085,14.473,22.713,20.135c0,0,50.973,13.845,54.117,36.497
		c3.15,22.655,3.15,42.79,0,53.487c-3.143,10.698,2.596,25.171-4.05,34.612c-6.646,9.438,9.005,46.04-15.179,44.73
		c-24.186-1.315-125.285,20.103-125.285,20.103l-43.631-25.192c0,0-22.125-59.78-20.187-87.467
		c1.938-27.688,6.973-74.881,28.997-79.288c22.026-4.405,42.161-4.405,42.161-4.405L584.975,119.84z"/>
	<path fill="#D5B1A9" d="M585.851,107.857c0,0,8.369,20.568,4.527,30.004c-3.839,9.439-23.345,44.677-27.75,49.082
		c-4.408,4.407-23.282,23.281-29.577,6.923c-6.292-16.359,1.26-42.158,0-52.856C531.795,130.312,585.851,107.857,585.851,107.857z"
		/>
	<path fill="#E4BDB2" d="M508.512,91.926c1.888,20.137,9.497,70.479,41.531,64.185c28.12-5.522,37.255-16.988,40.335-35.239
		c3.082-18.248,0-9.439,0-9.439s15.671,5.662,18.185-10.068c2.52-15.731-5.44-21.396-12.79-22.024v-5.034
		c0,0-41.324-18.248-65.237-14.473C506.624,63.609,508.512,91.926,508.512,91.926z"/>
	<path fill="#FEE7D9" d="M496.136,191.98c1.257-15.102,81.815-7.551,99.636-2.517c0,0,18.076,94.553,5.05,99.818
		c-13.023,5.27-94.744,9.675-106.701-11.722C482.164,256.164,494.499,211.62,496.136,191.98z"/>
	<path fill="#EBCFC1" d="M597.735,200.422h-81.449l-7.805,4.144h79.947l-49.708,4.403l57.052,5.618c0,0,16.388,52.162-14.448,60.455
		c-30.835,8.295-65.038,11.327-81.62-41.227c-4.608-14.604-6.084-25.237-6.084-25.237s-14.15,40.035-5.292,60.802
		c8.86,20.764,71.035,40.902,97.523,30.832C612.338,290.144,606.416,244.106,597.735,200.422z"/>
	<path fill="#414142" d="M605.077,75.248c0,0-65.913-21.076-88.792-5.344c-22.877,15.731-14.064,28.945-19.73,28.945
		c-5.662,0-7.731-31.32,19.73-43.348C543.751,43.474,608.65,63.291,605.077,75.248z"/>
	<path fill="#D3AAA0" d="M537.354,91.048c0.762-3.051,9.129-11.955,20.295-4.405c11.166,7.552,12.864,7.818,2.264,11.459
		C549.311,101.746,535.468,98.601,537.354,91.048z"/>
	<path fill="#D3AAA0" d="M516.488,88.672c6.479-4.313,17.725,12.525,8.174,15.592C514.866,107.41,499.942,99.691,516.488,88.672z"/>
	<path fill="#D3AAA0" d="M598.706,87.077c0,0,12.163,13.042,4.935,16.007c-7.229,2.966-7.473-4.237-7.473-4.237
		S599.107,97.117,598.706,87.077z"/>
	<polygon fill="#4A423F" points="398.39,36.551 412.416,328.15 667.086,309.334 654.461,62.98 705.47,98.849 719.314,344.933 
		466.884,359.991 271.281,369.431 259.633,326.642 353.085,317.83 350.568,23.966 	"/>
	<path fill="#C7A394" d="M594.594,203.307H494.93l-1.311,5.271l105.046-2.636c0,0,6.895,53.775,2.386,60.918
		c-4.514,7.142-49.364,23.283-104.496,21.396c0,0,94.831,41.148,109.379,5.358c11.054-27.188-2.037-70.905-8.199-93.192
		L594.594,203.307z"/>
	<path fill="#E4BDB2" d="M617.462,263.52c0,0,14.164-6.536,25.602,0c11.441,6.536,8.173,28.323,0,37.039
		c-8.168,8.713-21.24,16.339-33.77,13.616c-12.53-2.724-15.253-1.601-29.417,0.562c-14.159,2.161-31.59-11.998-24.51-17.99
		c7.08-5.991,24.934-14.161,35.344-13.073c10.41,1.093,16.402-1.631,14.224-8.712c-2.178-7.082-9.258-26.692,1.632-19.064
		c10.893,7.626,15.797,19.064,13.619,26.146C620.187,282.042,625.633,274.413,617.462,263.52z"/>
	<path fill="#F2F2F2" d="M542.491,94.279c-3.557-5.242,11.148-10.969,18.459-4.869c5.975,4.982,0.502,7.922,0.502,7.922
		S548.785,103.554,542.491,94.279z"/>
	<path fill="#F2F2F2" d="M526.515,93.402c0,0-11.743-6.855-15.734,9.692C510.781,103.094,528.082,110.027,526.515,93.402z"/>
	<circle fill="#231F20" cx="550.39" cy="93.021" r="4.505"/>
	<circle fill="#231F20" cx="519.906" cy="98.219" r="4.505"/>
	<path fill="#231F20" d="M496.555,98.849c0,0,10.93-4.326,11.922-10.937c0.989-6.61,2.302-13.77,2.302-13.77
		S497.814,83.746,496.555,98.849z"/>
	<path fill="#F6EC70" d="M607.687,139.975c0,0-8.562,23.686-19.889,37.529c0,0,15.624-14.193,24.801-36.042L607.687,139.975z"/>
	<g>
		<path fill="#F6EC70" d="M608.087,143.731c7.072,2.191,14.057,4.643,20.937,7.45c3.44,1.398,6.857,2.889,10.225,4.555
			c1.687,0.83,3.354,1.725,5.002,2.693c1.648,0.974,3.273,2.033,4.845,3.358c0.776,0.678,1.546,1.425,2.256,2.387l0.512,0.776
			l0.064,0.099l0.115,0.241l0.073,0.155l0.146,0.313l0.582,1.256c0.348,0.965,0.71,2.043,0.996,3.027l0.692,2.837
			c0.385,1.88,0.717,3.761,0.981,5.628c0.264,1.872,0.509,3.744,0.688,5.609c0.391,3.733,0.663,7.464,0.866,11.189
			c0.199,3.739,0.34,7.435,0.393,11.222l-2.378,3.334c0.01,0.009,0.037,0,0.031,0.007l-0.151,0.106
			c-0.105,0.079-0.202,0.113-0.317,0.215l-0.692,0.581c-0.42,0.503-0.913,0.904-1.254,1.523l-0.576,0.835l-0.452,0.972l-0.458,0.962
			c-0.142,0.327-0.209,0.715-0.322,1.068c-0.172,0.738-0.469,1.395-0.551,2.184l-0.282,2.326l-0.077,0.575l-0.019,0.143
			c-0.016,0.158,0.015-0.189,0.012-0.147v0.022v0.041l-0.004,0.087l-0.008,0.341l-0.029,1.373c-0.008,0.896,0.091,1.515,0.115,2.286
			c0.262,3.27,0.899,6.687,1.491,10.293c0.275,1.809,0.6,3.668,0.781,5.65c0.188,1.959,0.294,4.093,0.012,6.49
			c-0.117,0.637-0.178,1.214-0.371,1.878c-0.219,0.681-0.412,1.336-0.713,2.011c-0.378,0.695-0.746,1.389-1.227,2.028
			c-0.274,0.312-0.562,0.619-0.855,0.917l-0.444,0.435l-0.227,0.211l-0.057,0.053c-0.25,0.228,0.308-0.279,0.245-0.223l-0.016,0.015
			l-0.061,0.057l-0.26,0.229l-0.128,0.114c0,0.006,0.087-0.067,0.116-0.104c0.181-0.188,0.275-0.441,0.329-0.556
			c0.097-0.312,0.124-0.708,0.057-0.864c-0.11-0.301-0.054,0.136,0.263,0.626c0.307,0.507,0.777,1.102,1.318,1.72
			c0.576,0.664,1.106,1.173,1.998,2.216c0.091,0.104,0.272,0.338,0.422,0.55l0.114,0.159l0.203,0.349l0.182,0.366
			c0.063,0.162,0.082,0.118,0.215,0.607c0.104,0.381,0.146,0.801,0.127,1.2c-0.008,0.2-0.033,0.396-0.062,0.581
			c-0.064,0.271-0.168,0.577-0.316,0.871c-0.293,0.597-0.787,1.135-1.275,1.463c-0.313,0.196-0.462,0.253-0.722,0.358
			c-1.229,0.4-1.293,0.233-1.697,0.271c-1.093-0.086-1.523-0.247-2.066-0.402c-1.025-0.32-1.896-0.657-2.79-1.001
			c-1.547-0.655-3.4-1.254-5.075-1.938l-5.136-2.025l-5.101-2.144c-0.855-0.409-1.675-0.641-2.524-0.973l-2.557-0.988l0.117-0.897
			c1.839,0.056,3.799,0.064,5.649,0.279l5.475,0.742l5.447,0.86c1.845,0.302,3.541,0.588,5.491,1
			c0.862,0.166,1.748,0.337,2.507,0.422c0.341,0.049,0.815,0.072,0.636,0.034c-0.18,0.03-0.008-0.109-1.022,0.196
			c-0.208,0.088-0.296,0.133-0.563,0.305c-0.452,0.279-0.915,0.771-1.17,1.322c-0.131,0.27-0.219,0.555-0.266,0.802
			c-0.036,0.159-0.062,0.325-0.077,0.496c-0.025,0.343,0.015,0.707,0.107,1.031l0.152,0.452c0.028,0.072,0.058,0.145,0.099,0.216
			c0.035,0.064,0.081,0.14,0.118,0.193l0.01,0.029c0.006,0.033,0.051,0.083-0.021,0.022l-1.929-1.612
			c-0.761-0.661-1.558-1.391-2.361-2.337c-0.777-0.962-1.685-2.148-2.089-4.263c-0.178-1.052-0.107-2.401,0.385-3.544
			c0.196-0.556,0.57-1.17,1.018-1.733l0.317-0.382l0.116-0.125l0.233-0.25l0.061-0.064l0.013-0.016
			c-0.053,0.044,0.517-0.474,0.276-0.256v-0.011l0.007-0.037l0.018-0.067c0.019-0.04,0.042-0.068,0.078-0.092
			c0.036-0.108,0.046-0.26,0.119-0.351c0.038-0.17,0.056-0.414,0.116-0.601c0.045-0.214,0.029-0.562,0.06-0.826
			c0.057-1.24-0.032-2.779-0.297-4.445c-0.24-1.649-0.502-3.399-0.815-5.198c-0.305-1.8-0.558-3.655-0.788-5.57
			c-0.229-1.901-0.329-3.887-0.381-5.895c0.027-1.057,0.037-2.268,0.129-3.197l0.144-1.364l0.038-0.34l0.036-0.34l0.038-0.192
			l0.162-0.773l0.66-3.074c0.211-1.021,0.706-2.043,1.049-3.054c0.203-0.502,0.352-1.014,0.604-1.508l0.814-1.467
			c0.279-0.485,0.543-0.974,0.842-1.447l1.067-1.356c0.658-0.925,1.592-1.704,2.452-2.498c1.041-0.76,1.794-1.375,3.468-2.048
			l-2.382,3.331c0.177-3.588,0.261-7.271,0.29-10.909c0.031-3.646-0.017-7.29-0.171-10.914c-0.064-1.814-0.19-3.615-0.326-5.408
			c-0.141-1.797-0.349-3.565-0.593-5.321l-0.46-2.574l-0.563-2.277l-0.506-1.289l-0.127-0.322l-0.063-0.161l-0.015-0.039
			l-0.006-0.021c0.147,0.312,0.034,0.079,0.066,0.146l-0.028-0.046l-0.226-0.393c-0.351-0.55-0.867-1.142-1.446-1.711
			c-2.363-2.313-5.461-4.314-8.538-6.178c-3.115-1.856-6.347-3.581-9.623-5.226c-6.568-3.266-13.291-6.3-20.087-9.144
			L608.087,143.731z"/>
	</g>
	<g>
		<path fill="#F6EC70" d="M503.671,134.309c0,0,3.244,0.899,7.307,3.563c2.034,1.324,4.288,3.07,6.441,5.312
			c2.14,2.254,4.229,4.983,5.688,8.453c0.674,1.746,1.25,3.689,1.307,5.839c0.007,0.557-0.009,1.051-0.043,1.667
			c-0.032,0.372-0.074,0.743-0.132,1.108c-0.113,0.732-0.191,1.459-0.327,2.169c-0.25,1.422-0.54,2.788-0.874,4.086
			c-0.369,1.322-0.763,2.561-1.187,3.692c-0.822,2.271-1.759,4.095-2.528,5.354c-0.352,0.634-0.703,1.12-0.937,1.45
			c-0.226,0.334-0.374,0.504-0.374,0.504s-0.359-0.829-0.755-2.222c-0.452-1.403-0.873-3.376-1.254-5.684
			c-0.184-1.153-0.321-2.392-0.415-3.692c-0.119-1.325-0.194-2.728-0.212-4.169c-0.021-0.723,0.015-1.452,0.021-2.193
			c0-0.371,0.02-0.744,0.042-1.116c-0.015-0.129-0.007-0.387-0.015-0.585c-0.087-0.866-0.268-1.933-0.678-3.047
			c-0.741-2.265-2.026-4.734-3.342-7.059c-1.326-2.329-2.669-4.58-3.846-6.544c-1.177-1.961-2.146-3.686-2.832-4.908
			C504.046,135.058,503.671,134.309,503.671,134.309z"/>
	</g>
	<g>
		<path fill="#F6EC70" d="M508.936,140.425c0,0-2.432,0.304-6.577,1.346c-2.067,0.529-4.556,1.257-7.336,2.258
			c-2.768,1.022-5.839,2.329-8.9,4.165c-3.06,1.817-6.125,4.208-8.487,7.305c-1.185,1.541-2.123,3.289-2.779,5.156
			c-0.673,1.912-0.95,3.735-1.195,6.148c-1.034,9.168-2.072,18.911-2.689,28.636c-0.312,4.862-0.411,9.725-0.389,14.483
			c0.072,4.764,0.351,9.415,0.613,13.872c0.289,4.456,0.611,8.715,1.084,12.707c0.44,3.995,1.143,7.699,2.002,11.024
			c2.116,6.99,3.879,12.819,5.114,16.898c0.642,2.041,1.161,3.645,1.581,4.648c0.158,0.489,0.52,0.876,0.328,0.847
			c-0.123-0.021-0.31,0.107-0.32,0.175c-0.023,0.05-0.005,0.06,0.001,0.053c0.018-0.013,0.026-0.029,0.026-0.015l0.904,0.018
			c-0.001,0.012,0.009,0.076-0.005,0.212c-0.007,0.067-0.021,0.166-0.105,0.312c-0.073,0.16-0.388,0.362-0.66,0.32
			c-0.784-0.199-0.99-0.561-1.496-0.996c-0.892-0.896-1.995-2.276-3.251-4.104c-1.279-1.813-2.686-4.084-4.244-6.708
			c-0.765-1.316-1.539-2.732-2.364-4.233c-0.409-0.756-0.837-1.506-1.237-2.297c-0.412-0.789-0.825-1.719-1.249-2.606
			c-1.679-3.617-2.87-7.721-3.839-12.069c-0.916-4.359-1.498-8.996-1.6-13.763c-0.147-4.771,0.149-9.667,0.564-14.594
			c0.389-4.929,0.981-9.894,1.583-14.839c0.629-4.943,1.372-9.855,2.174-14.672c0.835-4.812,1.736-9.521,2.629-14.062
			c0.402-2.149,0.929-4.831,1.952-7.038c0.998-2.255,2.323-4.284,3.854-5.989c3.07-3.422,6.664-5.745,10.078-7.437
			c3.425-1.706,6.721-2.806,9.654-3.64c2.942-0.82,5.55-1.314,7.695-1.665c4.304-0.674,6.802-0.757,6.802-0.757L508.936,140.425z"/>
	</g>
	<path fill="#F2F2F2" d="M523.356,131.276c0,0,18.107-1.949,26.734-3.145l-0.629,3.145
		C549.463,131.276,528.646,138.933,523.356,131.276z"/>
	<path fill="#D3AAA0" d="M526.515,93.402c0,0,2.902,11.11,0,20.549c-2.901,9.44-1.015,7.373,6.536,5.89
		c7.555-1.485,5.661-4.546,0-7.149C527.393,110.091,532.557,98.653,526.515,93.402z"/>
	<path fill="#231F20" d="M539.897,81.546c-2.957-5.366,19.22-6.877,20.508-5.235C561.694,77.953,542.42,86.128,539.897,81.546z"/>
	<path fill="#231F20" d="M522.765,84.608c3.941,6.411-13.607,6.026-15.124,4.027C506.124,86.637,519.406,79.134,522.765,84.608z"/>
	<path fill="#FFFFFF" d="M531.874,158.74c0,0,15.099,21.745,50.926-4.602c0,0-9.708,23.942-18.401,30.577
		c0,0-26.961-1.804-33.883-1.652C530.516,183.063,526.921,173.955,531.874,158.74z"/>
	<path fill="#EDCEC8" d="M606.677,256.089c0,0,24.924,9.855,12.967,28.104C619.644,284.193,618.882,268.886,606.677,256.089z"/>
	<path opacity="0.8" fill="#E7F6FC" enable-background="new    " d="M261.731,322.382l731.864-1.403
		c0,0,15.261,68.189-37.186,73.258c-55.486,5.362-686.523,9.28-686.523,9.28L261.731,322.382z"/>
	<path fill="#231F20" d="M133.473,0.561h-5.175H0v432.49h130.955h22.653h846.463V0.561H133.473z M819.993,391.454
		c-257.999,0-507.811-3.146-507.811-3.146L156.617,87.077l0,0l-10.701-40.007c60.343-8.403,453.364-38.063,659.56,115.964
		C1027.024,328.528,1075.054,391.454,819.993,391.454z"/>
	<path fill="#D5B1A9" d="M220.309,320.979c3.775,2.517,28.146,35.237,39.324,36.498c0,0-26.769,54.116-101.007,56.634
		c-74.238,2.517-93.392,22.928-49.345-92.502C153.329,206.178,220.309,320.979,220.309,320.979z"/>
	<path fill="#D8ADA3" d="M240.909,189.461c5.833,4.639,24.08,10.698,24.08,19.507c0,8.811-6.292,23.888-16.36,24.846
		C238.559,234.769,240.909,189.461,240.909,189.461z"/>
	<path fill="#E4BDB2" d="M96.347,123.391c33.896-29.559,84.949-25.17,108.863,5.035c23.912,30.204,52.857,74.881,53.487,111.378
		c0.629,36.499,20.196,105.778-49.5,101.8c-87.468-4.993-113.208,18.073-128.938-32.268C64.526,258.994,17.69,191.98,96.347,123.391
		z"/>
	<path fill="#E4BDB2" d="M366.722,340.487l20.971,2.178c0,0,15.103-10.988,39.643-23.574c24.543-12.587,53.488-36.497,53.488-36.497
		s1.259-38.384,13.216-44.05c11.959-5.662,16.99-6.922,19.508,0c2.519,6.922-10.139,2.922-5.066,15.621
		c5.066,12.696,1.291,17.732,16.393,22.768c15.103,5.033,33.886,16.145,33.886,16.145s-27.523,19.263-36.941,21.151
		c0,0-56.094,94.348-138.527,118.824C383.29,433.051,404.904,378.24,366.722,340.487z"/>
	<path fill="#1D76BB" d="M366.722,340.487c0,0-34.647-19.527-188.572,13.84c-43.6,9.455-75.118,19.167-97.92,28.432
		c-1.099-0.49-20.358,6.19-20.358,6.19c-40.681,15.87-52.253,44.103-52.253,44.103h12.585h363.083
		C417.268,371.448,366.722,340.487,366.722,340.487z"/>
	<path fill="#146CA6" d="M314.687,334.927c0,0,29.59-3.512,40.288-1.494c10.697,2.019,20.651,1.604,20.911,8.213
		c0.262,6.611,4.957,5.322,11.182,20.797c6.224,15.476,12.577,21.462,5.03,49.779c0,0,4.406-35.238-20.761-60.408
		c0,0,0.873,33.435-1.014,53.006c0,0-3.598-75.415-53.95-62.155c-20.118,5.299-90.438,2.269-90.438,2.269
		S278.806,335.03,314.687,334.927z"/>
	<path fill="#D8ADA3" d="M180.038,183.058c4.912-10.589,8.18,12.067,18.25,46.049c10.069,33.98,42.3,46.25,34.365,73.78
		c-7.936,27.532-15.068,43.892-31.323,43.892C185.072,346.778,160.531,225.104,180.038,183.058z"/>
	<g>
		<g>
			<path fill="none" stroke="#F1E4E0" stroke-miterlimit="10" d="M137.248,172.472"/>
		</g>
	</g>
	<g>
		<g>
			<path fill="none" stroke="#F1E4E0" stroke-miterlimit="10" d="M132.843,174.991"/>
		</g>
	</g>
	<path fill="#4A372D" d="M209.243,270.46c0,0-25.731-85.461-25.429-55.873c0.618,60.886,37.127,106.757,12.583,130.346
		c-24.542,23.586-124.594,27.581-124.594,27.581s19.436-6.229,4.997-35.806c-14.436-29.572-8.774,2.602-8.774,8.225
		c0,5.62-2.565-5.076-10.406-26.473c-7.841-21.395-22.315-57.354-22.315-74.298c0-16.945,6.923-20.779,0-27.356
		c-6.919-6.581-2.364-27.64,3.565-47.381c7.588-25.272,8.928-37.512,19.887-44.205c6.695-4.09,5.495-6.469,21.225-17.363
		c15.731-10.896,87.468-19.078,104.457-9.008c16.991,10.069,42.79,52.229,59.78,13.844c0,0,0.599,9.455-7.572,32.189
		c0,0-7.936,12.039,4.019,5.747c11.957-6.291,11.732-7.102,11.732-7.102S252.83,236.09,209.243,270.46L209.243,270.46z"/>
	<path fill="#D8ADA3" d="M197.683,262.63c0,0-46.64,6.83-41.241-33.286c5.399-40.112,30.153-20.011,30.153-20.011L197.683,262.63z"
		/>
	<path fill="#D8ADA3" d="M556.03,295.396c0,0-22.699,2.949-44.229-1.781c-21.536-4.729,0.488,14.612-15.243,23.822
		c-15.731,9.205-28.317,65.839-93.759,94.785l-12.255,4.843l-7.252,15.987c0,0,33.512-8.249,48.453-20.829
		c14.942-12.582,40.599-33.063,52.137-45.107c11.538-12.046,23.642-20.334,37.937-52.885
		C521.818,314.227,547.474,306.83,556.03,295.396z"/>
	<polygon fill="#423B38" points="355.021,40.244 362.918,314.96 370.074,314.96 362.547,40.244 385.872,41.698 390.212,314.96 
		398.39,314.96 398.39,40.244 	"/>
	<polygon fill="#423B38" points="664.166,90.879 676.526,308.245 684.703,308.245 670.348,93.402 695.166,102.724 702.952,308.245 
		709.874,308.245 703.144,104.527 	"/>
	<path fill="#A12137" d="M600.198,196.698l7.737-19.097l2.288,25.389l12.667-10.381l-8.105,12.609l5.737,11.588l-5.737,6.204
		l3.849,27.36l0.632,11.459l-9.478-4.247C609.783,257.582,605.679,208.969,600.198,196.698z"/>
	<polygon fill="#A12137" points="500.662,187.027 489.475,165.55 503.671,177.602 507.522,162.406 508.481,177.507 515.432,177.507 
		510.781,184.339 	"/>
	<path fill="#A12137" d="M601.051,131.828l-9.665,37.601c0,0,14.167-17.899,16.301-29.452L601.051,131.828z"/>
	<path fill="#A12137" d="M643.064,263.52c0,0,12.694,31.754-7.126,43.346C635.935,306.865,673.16,282.204,643.064,263.52z"/>
	<path fill="#D3AAA0" d="M580.692,75.304c0,0-2.96,32.172-7.995,44.536c-5.035,12.361-8.064,18.635,3.998,20.135
		c12.062,1.501,9.156,0,9.156,0s3.559-5.153,3.381-21.883C589.055,101.363,598.129,67.495,580.692,75.304z"/>
	<path fill="#231F20" d="M556.495,64.942c0,0,35.048,0.9,29.355,33.907c-4.665,27.058,5.537,17.668,5.537,17.668
		s-0.852-23.333,4.385-37.177l10.104,5.356l-0.796-11.338C605.077,73.361,570.49,65.98,556.495,64.942z"/>
	<path fill="#D3AAA0" d="M510.781,74.141c0,0,18.476-9.199,69.078,1.164C579.859,75.304,551.923,42.845,510.781,74.141z"/>
	<path fill="#181516" d="M145.916,47.071c0,0,483.076-44.94,682.72,133.361C828.635,180.431,646.661-18.555,145.916,47.071z"/>
	<path fill="#402E26" d="M176.191,132.772c-18.25,7.587-27.461,3.812-28.519,27.724c-1.058,23.913,23.197,58.295-10.011,70.993
		c-33.208,12.698,5.42-8.063,6.878-18.42c1.461-10.354-19.319-49.606-0.441-75.002C162.975,112.668,176.191,132.772,176.191,132.772
		z"/>
	<path fill="#402E26" d="M169.97,306.865c-10.07,13.483-5.061,36.737-31.79,27.941c-26.731-8.795-39.945,8.796-39.945,8.796
		s10.31-18.516,42.28-18.369c0,0,6.174,2.666,11.836-6.144C158.014,310.282,169.97,306.865,169.97,306.865z"/>
	<path fill="#402E26" d="M52.532,219.715c2.686,6.41,2.281,6.448-2.75,15.158c-5.036,8.704-3.777,9.814,0,21.216
		c3.774,11.402,7.549,19.01,7.549,28.104c0,9.098-1.887,2.449,3.146-13.732c5.033-16.185-6.467-31.081-2.604-35.589
		c3.862-4.507,17.706,0.768,16.447,28.648c-1.257,27.881-16.828,21.589,0.079,36.062c16.909,14.473,15.023,21.394,15.023,21.394
		s-1.258-12.143-6.292-28.094c-5.036-15.953-1.294-38.402-2.22-58.011c-0.927-19.612-25.467-10.366-21.063-36.698
		c4.407-26.331,18.248-54.72,18.248-63.493C78.097,134.682,43.328,197.742,52.532,219.715z"/>
	<path fill="#CEBFB2" d="M735.675,180.431c-3.122,1.415,4.405,12.972,3.775,6.594C738.821,180.653,744.482,176.436,735.675,180.431z
		"/>
	<path fill="#CEBFB2" d="M756.697,180.431c6.665,2.738,8.553,7.772,4.779,9.03C757.7,190.723,756.697,180.431,756.697,180.431z"/>
	<path fill="#CEBFB2" d="M763.395,254.164c-8.842,5.146-6.328,8.923-8.842,5.146c-2.52-3.775,5.495-8.939,5.495-8.939
		L763.395,254.164z"/>
	<path fill="#CEBFB2" d="M773.427,202.99c0,0,6.296-1.884,4.409,8.654C775.948,222.184,775.317,215.264,773.427,202.99z"/>
	<path fill="#CEBFB2" d="M737.79,238.336c-2.748,1.468-2.379,0.207-2.878,8.389c-0.497,8.183,0,16.881,0,16.881L737.79,238.336z"/>
	<path fill="#CEBFB2" d="M912.497,270.46c0,0,2.516,15.278-4.406,19.054c-6.923,3.776-13.216,3.368-13.216,3.368
		S909.616,291.99,912.497,270.46z"/>
	<path fill="#CEBFB2" d="M873.483,263.855c5.034,4.266,9.439,3.638,5.034,4.266c-4.404,0.626-4.404,0.628-4.404,0.628
		L873.483,263.855z"/>
	<path fill="#CEBFB2" d="M806.153,227.828c3.775,1.276,3.775,6,3.775,6l-8.179-0.431L806.153,227.828z"/>
	<path fill="#CEBFB2" d="M809.928,278.189c4.407,1.89,8.18-1.257,4.407,1.89C810.554,283.223,805.523,276.302,809.928,278.189z"/>
	<path fill="#CEBFB2" d="M795.454,288.886c0,0,1.258,7.553,0,8.18C794.195,297.697,793.568,293.29,795.454,288.886z"/>
	<path fill="#CEBFB2" d="M761.217,297.126c7.632,3.165,1.688,15.37-2.487,11.116C754.554,303.987,755.296,294.668,761.217,297.126z"
		/>
	<path fill="#CEBFB2" d="M805.839,184.715c0.6-5.346,11.587,10.845,10.043,13.458C814.333,200.787,805.523,187.519,805.839,184.715z
		"/>
	<path fill="#CEBFB2" d="M862.786,263.52c4.643-5.18,8.81,14.039,3.145,11.521C860.267,272.524,859.01,267.732,862.786,263.52z"/>
	<path fill="#CEBFB2" d="M747.629,144.154c2.519-5.033,4.408,1.888,2.519,5.035C748.261,152.335,745.11,149.19,747.629,144.154z"/>
	<path fill="#CEBFB2" d="M848.271,304.105c4.629-3.146,11.414,4.759,7.279,6.016C851.416,311.379,843.236,307.525,848.271,304.105z"
		/>
	<g>
		<g>
			<path fill="#FFFFFF" d="M524.773,212.337c3.13-0.059,63.271-3.5,63.271-3.5l5.417,33.353h-72.365L524.773,212.337z"/>
			<path fill="#EBCFC1" d="M524.773,212.337c5.264-0.548,10.529-1.001,15.795-1.461c5.266-0.471,10.53-0.927,15.8-1.319
				l15.792-1.218l15.789-1.112l1.43-0.103l0.257,1.455c1.956,11.094,3.757,22.21,5.607,33.323l0.349,2.104l-2.132-0.01
				c-12.062-0.046-24.124-0.043-36.183-0.193l-18.093-0.233l-18.09-0.344l-1.191-0.023l0.163-1.139
				c0.715-4.963,1.515-9.916,2.294-14.87C523.134,222.237,523.912,217.281,524.773,212.337z M524.773,212.337
				c-0.364,5.007-0.813,10.002-1.266,14.999c-0.448,4.994-0.874,9.992-1.387,14.981l-1.025-1.162l18.091-0.345l18.092-0.232
				c12.059-0.15,24.124-0.149,36.183-0.193l-1.783,2.096c-1.762-11.124-3.576-22.242-5.231-33.384l1.689,1.353l-15.844,0.68
				c-5.282,0.211-10.563,0.42-15.844,0.572c-5.273,0.175-10.553,0.288-15.834,0.387
				C535.335,212.199,530.056,212.317,524.773,212.337z"/>
		</g>
		<polygon fill="#BE202E" points="582.374,219.649 584.26,225.648 559.299,226.689 559.299,222.648 		"/>
		<path fill="#A6A8AC" d="M587.184,228.484l-0.166,2.933c0,0-28.312,0.143-30.57,0.213c-2.256,0.067-0.162-2.101-0.162-2.101
			L587.184,228.484z"/>
		<path fill="#A6A8AC" d="M587.832,233.105l-0.166,2.934c0,0-28.317,0.144-30.574,0.214c-2.256,0.07-0.158-2.101-0.158-2.101
			L587.832,233.105z"/>
		<g>
			<path fill="#FAA62C" d="M545.563,234.845c-3.859,3.861-10.144,3.861-14.005,0c-3.859-3.861-3.859-10.142,0-14.003
				c3.861-3.862,10.146-3.862,14.005,0C549.424,224.703,549.424,230.984,545.563,234.845z"/>
			<path fill="#03AA5C" d="M547.505,225.006c0,0,3.491,3.738,1.623,5.967c-1.87,2.223-2.548,1.204-4.077,2.998
				c-1.529,1.792-1.855,5.085-3.27,4.318c-1.417-0.766,0.918-2.571-1.406-2.157c-2.327,0.413-1.301,2.093-2.148,2.019
				c-2.039-0.177-3.955-4.222-3.955-4.222L547.505,225.006z"/>
			<circle fill="#24572B" cx="535.095" cy="234.573" r="3.43"/>
			<path fill="#03AA5C" d="M532.962,236.532l1.434,0.925l-1.434-1.642l2.307,1.139l-1.962-1.716c0,0,1.079,0.503,2.033,0.925
				c0.777,0.339,1.471,0.625,1.434,0.54c-0.073-0.19-3.274-2.925-3.274-2.925l3.062,1.84l-3.33-2.299l-0.271,0.538l2.038,1.808
				l-2.038-1v0.75l-0.476,0.121L532.962,236.532z"/>
			<path fill="#3CB766" d="M542.348,237.543c0,0,1.697-2.949,0.722-2.641c-0.978,0.311-1.423,0.135-2.336,0.778
				C540.737,235.681,541.806,238.37,542.348,237.543z"/>
			<path fill="#3CB766" d="M532.602,218.987c0,0-0.491-0.763,1.33-1.622c1.486-0.701,2.461,0.376,3.372,0.128
				c0.91-0.248-1.395,1.233-4.51,1.494"/>
			<circle fill="#24572B" cx="532.251" cy="230.17" r="3.233"/>
			<path fill="#03AA5C" d="M529.809,231.387l1.055,1.212l-0.868-1.86l1.791,1.633l-1.326-2.067c0,0,0.848,0.74,1.603,1.367
				c0.611,0.512,1.164,0.95,1.154,0.867c-0.017-0.189-2.199-3.504-2.199-3.504l2.292,2.467l-2.416-2.956l-0.385,0.414l1.372,2.171
				l-1.581-1.439l-0.195,0.68l-0.464-0.012L529.809,231.387z"/>
			<polygon fill="#FDEB03" points="531.315,219.898 547.505,220.725 549.137,232.024 527.548,228.545 			"/>
			<circle fill="#EE3326" cx="543.605" cy="232.891" r="4.758"/>
			<circle fill="#F1594E" cx="543.605" cy="232.892" r="3.77"/>
			<path fill="#511911" d="M544.887,233.471c-3.486,3.488-9.163,3.488-12.651,0c-3.488-3.486-3.488-9.162,0-12.65
				c3.488-3.489,9.162-3.489,12.651,0C548.374,224.309,548.374,229.986,544.887,233.471z"/>
			<g>
				<path fill="#371410" d="M533.198,226.775c0,0,0.749-0.889,2.429-1.757c0.845-0.449,1.927-0.88,3.288-1.12
					c1.354-0.228,3.022-0.279,4.892,0.306c0.464,0.166,0.942,0.312,1.408,0.573l0.706,0.384l0.205,0.145
					c-0.059-0.047,0.224,0.165,0.397,0.342c0.101,0.102,0.158,0.156,0.278,0.312c0.121,0.155,0.233,0.326,0.331,0.501l0.134,0.28
					c0.068,0.166,0.127,0.341,0.173,0.525c0.083,0.389,0.118,0.694,0.071,1.146c-0.046,0.431-0.202,0.896-0.398,1.24
					c-0.137,0.25-0.317,0.49-0.517,0.702c-0.247,0.249-0.321,0.29-0.446,0.391c-0.122,0.089-0.252,0.171-0.38,0.245
					c-0.171,0.092-0.3,0.149-0.457,0.216l-0.302,0.105c-0.672,0.2-0.894,0.185-1.21,0.227c-0.28,0.022-0.518,0.046-0.759,0.038
					c-0.471-0.004-0.904-0.027-1.334-0.084c-1.715-0.198-3.392-0.867-5.142-1.387c-0.866-0.229-1.756-0.464-2.618-0.487
					c-0.426-0.015-0.863-0.008-1.199,0.075c-0.152,0.023-0.333,0.1-0.265,0.076c0.022-0.011,0.189-0.136,0.241-0.429
					c0.007-0.032,0.011-0.066,0.011-0.1c0-0.003-0.015-0.232-0.008-0.121l0.005,0.023l0.004,0.042c0-0.037-0.009-0.1-0.022-0.148
					c-0.078-0.224-0.111-0.23-0.155-0.302c-0.17-0.161-0.037-0.059,0.109-0.057c0.153,0.019,0.346,0.023,0.551,0.022
					c0.407-0.015,0.856-0.066,1.305-0.16c0.903-0.153,1.834-0.436,2.775-0.707c0.944-0.269,1.903-0.557,2.917-0.73
					c1.041-0.196,2.013-0.321,3.475-0.151c0.385,0.062,0.812,0.128,1.455,0.4c0.327,0.15,0.713,0.334,1.215,0.799
					c0.481,0.429,1.052,1.296,1.185,2.256l0.038,0.348l0.011,0.173l-0.057,0.657l-0.004,0.089c-0.011,0.057,0.01-0.004-0.02,0.147
					c-0.064,0.298-0.17,0.604-0.306,0.896c-0.139,0.291-0.31,0.563-0.498,0.805c-0.123,0.146-0.222,0.249-0.339,0.369
					c-0.223,0.223-0.53,0.465-0.679,0.552c-0.188,0.123-0.384,0.233-0.58,0.334l-0.432,0.189c-0.323,0.132-0.493,0.173-0.739,0.249
					c-1.62,0.406-2.562,0.403-3.59,0.455c-1.964,0.047-3.697-0.194-5.11-0.397c-0.34-0.051-0.671-0.081-0.857-0.125
					c-0.09-0.021-0.147-0.034-0.053-0.081c-0.014-0.01,0.084-0.033,0.147-0.063l0.258-0.128c0.177-0.09,0.347-0.203,0.492-0.335
					c0.325-0.249,0.62-0.611,0.801-0.996c0.132-0.241,0.234-0.52,0.291-0.804c0.03-0.143,0.047-0.283,0.053-0.425l0.004-0.209
					c-0.042-0.807-0.014-0.214-0.021-0.388c-0.008,0,0.007,0.2-0.019,0.037c-0.029-0.249-0.125-0.54-0.221-0.724
					c-0.04-0.088-0.092-0.171-0.146-0.249c-0.174-0.235-0.294-0.283-0.327-0.283c-0.084,0.001,0.005,0.161,0.135,0.284
					c0.574,0.561,1.589,1.097,2.476,1.395c0.913,0.347,1.8,0.504,2.573,0.615c1.545,0.174,2.594,0.079,2.594,0.079l0.339,0.641
					c0,0-0.166,0.203-0.517,0.574c-0.357,0.358-0.924,0.869-1.773,1.347c-0.845,0.5-1.982,0.95-3.389,1.201
					c-1.417,0.194-3.052,0.307-5.051-0.396c-0.507-0.196-1.045-0.418-1.689-0.909c-0.311-0.244-0.684-0.577-1.058-1.13
					c-0.101-0.16-0.196-0.33-0.282-0.5c-0.124-0.271-0.249-0.655-0.311-0.995c-0.045-0.26-0.034-0.153-0.056-0.245
					c-0.008-0.189,0.02,0.394-0.022-0.426l0.012-0.242c0.014-0.165,0.037-0.332,0.071-0.497c0.067-0.331,0.185-0.656,0.327-0.942
					c0.243-0.459,0.604-0.892,0.992-1.212c0.229-0.181,0.483-0.342,0.744-0.481c0.271-0.137,0.342-0.155,0.53-0.23
					c0.155-0.06,0.342-0.121,0.429-0.144c0.475-0.135,0.809-0.191,1.114-0.245c0.607-0.108,1.084-0.131,1.562-0.166
					c1.859-0.125,3.561-0.031,5.17,0.12c0.747,0.092,1.637,0.129,1.822,0.181c-0.025,0.013,0.035,0.019-0.074,0.059
					c-0.039,0.021-0.069,0.041-0.111,0.069c-0.096,0.046-0.188,0.104-0.274,0.168c-0.042,0.04-0.271,0.192-0.407,0.341
					c-0.078,0.081-0.129,0.146-0.212,0.254c-0.158,0.188-0.301,0.413-0.41,0.653s-0.182,0.5-0.216,0.745
					c-0.014,0.099,0.009-0.019,0.013-0.019l0.026-0.086c-0.023,0.275,0.057-0.647-0.049,0.615l0.006,0.131l0.027,0.261
					c0.104,0.731,0.554,1.385,0.867,1.653c0.339,0.301,0.521,0.365,0.635,0.414c0.223,0.071,0.195,0.015,0.121-0.022
					c-0.379-0.191-1.307-0.348-2.158-0.576c-0.884-0.189-1.829-0.432-2.787-0.668c-0.959-0.235-1.936-0.484-2.929-0.681
					l-1.526-0.341c-0.264-0.059-0.536-0.126-0.838-0.228c-0.305-0.117-0.64-0.166-1.146-0.663c-0.125-0.152-0.227-0.259-0.34-0.594
					c-0.021-0.076-0.041-0.165-0.048-0.232l-0.005-0.042l-0.009-0.188l0.017-0.187c0.089-0.528,0.421-0.841,0.628-0.987
					c0.446-0.3,0.726-0.359,1.017-0.457c0.565-0.146,1.049-0.249,1.539-0.348c0.968-0.181,1.893-0.454,2.81-0.697
					c1.82-0.543,3.597-1.107,5.155-1.308c0.385-0.058,0.758-0.093,1.083-0.125c0.157-0.026,0.313-0.02,0.419-0.037
					c0.076,0.004,0.241-0.051-0.061,0.04l-0.163,0.061c-0.115,0.042-0.2,0.086-0.327,0.155c-0.11,0.06-0.216,0.128-0.32,0.203
					c-0.109,0.087-0.159,0.117-0.393,0.347c-0.188,0.192-0.349,0.412-0.473,0.645c-0.188,0.322-0.338,0.763-0.376,1.169
					c-0.039,0.431-0.02,0.713,0.064,1.076c0.037,0.174,0.097,0.34,0.162,0.493l0.117,0.249c0.083,0.156,0.184,0.306,0.29,0.441
					c0.109,0.134,0.146,0.175,0.23,0.264c0.139,0.142,0.389,0.321,0.29,0.246l-0.027-0.022l-0.015-0.015
					c0.062,0.045-0.157-0.11,0.134,0.098l-0.267-0.185c-0.157-0.144-0.365-0.252-0.558-0.374c-1.599-0.969-3.846-1.46-5.423-1.856
					c-1.701-0.401-2.672-0.632-2.672-0.632L533.198,226.775z"/>
			</g>
			<path fill="#FAA62C" d="M538.527,230.57c-5.087,0-9.227-3.497-9.227-7.794c0-4.3,4.14-7.799,9.227-7.799
				c5.091,0,9.23,3.499,9.229,7.799C547.757,227.073,543.617,230.57,538.527,230.57z"/>
		</g>
	</g>
	<polygon fill="#E7E7E7" points="551.923,211.645 587.798,217.122 588.043,208.837 	"/>
</g>
</svg>
