<?xml version="1.0" encoding="utf-8"?>
<!-- Generator: Adobe Illustrator 16.0.0, SVG Export Plug-In . SVG Version: 6.00 Build 0)  -->
<!DOCTYPE svg PUBLIC "-//W3C//DTD SVG 1.1//EN" "http://www.w3.org/Graphics/SVG/1.1/DTD/svg11.dtd">
<svg version="1.1" id="Layer_1" xmlns="http://www.w3.org/2000/svg" xmlns:xlink="http://www.w3.org/1999/xlink" x="0px" y="0px"
	 width="585.628px" height="529px" viewBox="0 0 585.628 529" enable-background="new 0 0 585.628 529" xml:space="preserve">
<g>
	<g>
		<path fill="#ECE2DE" d="M571.063,529l-6.113-7c0,0,1.697,1,0-5s-0.303,5,0-12s2.303-10,0.303-17s-2,2-2-7s0-10,0-18s4,5,0-8
			s-4-13-4-13s-9.398-4-6.699-10s0.301-8,0-16s1.564-12-2.367-17c-3.934-5-3.934-4-5.934-10s8-6,0-11s-11-12-14-19s-2-9-5-13
			s-5-5-9-6s-4,8-8,0s-2-7-6-14s2.07-6-8.465-10s-10.535-4-10.535-4s0-7-7-13s-7-6-7-6s-17-4-22-8s5,1-5-4s-3-1-10-5s-7-7-12-8
			s-3-10,6-15s8.77-14,8.77-14s-0.23-7,0-7s-10.77-9-10.77-9s5-2.832,4-8.916s0-6.084-1-11.084s7.77-12,7.77-12s47.23,12,78.23,5
			s77-42,72-59s-24-25-41-36s-38-24-59-22s-52,18-59,9s-23-25-22-34l-1,9c0,0-7-16-10-21s0-19.68,0-19.68s-10,23.68-9,27.68
			c0,0,3.859-10-0.07-18s1.07,8-5.93,9s-4.949-18.68-4.949-18.68S372.252,37,367.252,34s-14-25-17-25s5,10-6,7s-23-16-23-16
			s11,12,0,12s-23-12-23-12s-1,12-9,12s-12-12-12-12s-3.975,12.041-21,8c0,0,1,4-14,1s-15,18-23,13s-2,4-12,11s-21,15-22,9
			s2,14-11,11c0,0,7,14-4,12s6,7-18,19s-3,15-25,22s-70,25-97,40s-32,34-25,41s44,25,74,13s59-4,71-4s9-4.832,11,18.084
			s15.603,65.928,35.999,98.637c14.247,22.848,0.001,40.279-7.999,54.279s-23,16-28,13s13,11,11,17c-2,6-2,23-8,27s-8,12-5,13
			s10,3,7,6s-11,8-11,11s-1,26-1,26s0-2,0,6s-2,16-2,16l-1,6c0,0,6.989-1.824,1.372,11c-2.628,6,0,0-7,10H571.063z"/>
		<path fill="#E8C3BA" d="M443.252,153c1.959-10.448-2,11,8-7s-1-25,20-26s50.238-17.186,81.301,5s17,49-54.65,50
			S440.252,169,443.252,153z"/>
		<path fill="#E8C3BA" d="M99.252,186c-29-2-27-28-45-16s-56,6-26,16S99.252,186,99.252,186z"/>
		<path fill="#E8C3BA" d="M253.252,241c8.603-8.603,23,9,30,8s26-20.902,28-3.951s-30,25.952-29,36.952s-9-13.764-20-21.882
			C251.252,252,248.252,246,253.252,241z"/>
		<path fill="#E8C3BA" d="M213.252,166.85c0,0-24,21.338-28,8.244S213.252,166.85,213.252,166.85z"/>
		<path fill="#E8C3BA" d="M364.252,165.972c-2.576,3.228,6,8.716,15,13.372s15-0.156,12-4.25S376.252,150.943,364.252,165.972z"/>
		<path fill="#DBC8C1" d="M227.252,322c20,3,53,31,104,0c51-31,13,33-44,25C230.252,339,227.252,322,227.252,322z"/>
		<path fill="#DBC8C1" d="M314.221,286.889c-0.002,0-58.262-6.102-60.936,0S314.221,286.889,314.221,286.889z"/>
		<path fill="#C18F84" d="M253.502,252.142c0,0,16.82-3.56,15.201,14.498L253.502,252.142z"/>
		<path fill="#C18F84" d="M310.221,251.857c0,0-13.603,2.102-14.273,14.782C295.948,266.639,309.188,258.666,310.221,251.857z"/>
		<path fill="#DBC8C1" d="M219.87,161.428c0,0-5.565-37.521-26.946-34.521s-16.51,42.469-1.094,39.942
			S219.87,161.428,219.87,161.428z"/>
		<path fill="#FFFFFF" d="M213.252,166.85c-10.084,7.574-23.691,7.094-28.346-0.878S188.252,134,206.252,149
			S213.252,166.85,213.252,166.85z"/>
		<circle fill="#414142" cx="200.567" cy="158.916" r="12.479"/>
		<path fill="#DBC8C1" d="M432.252,276c0,0-11,20.059-10,23.674s-10,11.289-10,11.289l0,0c0,0,1.398,19.5-6,11.037
			c-3.301-3.777-2.891,6.789,0,8.58c7.398,4.582,0,11.895,0,11.895S391.813,357,392.033,361c0.219,4-0.781-3,0.219,4
			s-0.439,14-0.219,18c0.219,4,5.313,5-0.234,11c-5.547,6-11.408,11-10.477,16c0.93,5-8.482,93-26.141,97s-0.756-64-2.342-96
			c-1.588-32,13.58-83.876-17.627-73.753c-31.207,10.123,31.898-28.477,19.969-48.861s-13.07-24.385,0-17.385
			c13.07,7,22.729,13.77,22.729,13.77s3.48,3.896,3.412-2.438c-0.07-6.332,2.516-13.055-1.777-15.693
			C375.252,264,375.252,264,375.252,264s16.205,12.278,23.604,2.639c7.396-9.639,0.396-15.924,7.396-14.782S417.064,248,418.158,244
			s1.094,3,1.094-4s6-9,0-13s-8-12.916-8-12.916l2-5.084l-7-10c0,0,5-0.111,0-8.556s-0.938-14.181-18.01-19.584
			s0.57-40.86,3.791-37.86c3.219,3-10.711-12.811-10.711-12.811S417.586,130,421.92,135c4.332,5,20.146,17.096,23.24,22.048
			c3.092,4.952,2.008,18.604,16.584,18.289s-8.262,14.552-17.492,15.107s-7.461,4.556-9.23,7.556s-0.299,15.37,0,16.084
			c6.23,14.916,6.23,14.916,6.23,14.916s0-7,0,0s-1.092,16-1.092,16s-3.369,1.715-5.139,6.857s0,14.782,0,14.782L432.252,276"/>
		<path fill="#DBC8C1" d="M355.182,165.521c0,0-13.93-47.521,26.141-45.331c22.986,1.256,24.93,34.021,24.93,34.021
			S392.631,185,355.182,165.521z"/>
		<path fill="#FFFFFF" d="M363.787,160.466c4.465-8.466,16.025-21.126,28.246-16.296c12.219,4.83,6.199,25.551-3.791,26.69
			S363.787,160.466,363.787,160.466z"/>
		<path fill="#414142" d="M370.908,156.211c0,6.855,5.559,12.417,12.414,12.417c6.857,0,12.414-5.562,12.414-12.417
			c0-6.853-5.557-12.415-12.414-12.415C376.467,143.796,370.908,149.358,370.908,156.211z"/>
		<path fill="#DBC8C1" d="M186.088,292.542c0,0,39.633,38.684,24.633,90.684c-4.841,16.779,7,23,0,31s-8.711-18-10.355-28
			s-9.12-19.92-9.12-19.92S188.116,298.44,186.088,292.542z"/>
		<path fill="#DBC8C1" d="M149.252,120.116c2.987,14.887-1,29.927,0,36.905s8.771,17.486,8.386,24.232S160.255,200,160.255,200
			l-12.587-13c0,0-5.416-14.883-6.416-26.941s2-16.059,0-24.059S142.252,85.232,149.252,120.116z"/>
		<path fill="#DBC8C1" d="M440.16,101.5c0,0-11.947,38.203-10.791,38.852c1.158,0.648-0.078,12.953-0.078,12.953l5.434,4.906
			C434.725,158.211,446.066,118,440.16,101.5z"/>
		<path fill="#FFFFFF" d="M477.871,400.131l1.729,3.684l2.197,2.951c0,0-0.535,0.115,3.496,3.227
			c4.033,3.113,3.402-5.135,3.719-1.01c0.314,4.123,7.031,4.602,7.031,4.602l1.324,6.68c0,0,0.094,5.584,1.682,6.861
			c1.59,1.275,1.59,1.275,1.59,1.275s1.623,3.594,2.391,5.039c0.766,1.445,0.182,5.207,1.307,7.127
			c1.123,1.922,4.406,5.295,4.406,5.295s-4.225,7.361-3.053,10.877c1.176,3.514,5.541,9.777,5.541,9.777l-1.938,6.303
			c0,0,3.207,2.598,0.943,6.232s-0.523,7.289-0.523,7.289l4.336,1.334l-3.762,12.236l-1.105,3.6l-4.938,18.232l-4.043,6.582
			c0,0,1.324-15.352,1.988-17.51c0.662-2.158-0.02-5.52-0.48-9.602c-0.461-4.08,0.264-10.162,0.264-10.162s-1.809-5.281-1.668-7.602
			c0.143-2.32-0.348-2.404-0.756-7.684c-0.406-5.279,0.65-12.445-2.43-13.586s-7.156-8.697-8.836-12.365
			c-1.678-3.668-4.328-4.354-5.705-9.174c-1.379-4.82-0.482-2.182-3.592-7.865c-3.111-5.684-6.451-5.98-8.297-9.277
			c-1.848-3.297-5.246-5.127-5.787-5.295c-0.541-0.166-4.057-11.557-4.057-11.557l1.443-16.427l7.352-10.391L477.871,400.131z"/>
	</g>
	<path fill="#D8A39B" d="M445.91,153.305c0,0,6.598-24.244,11.756-28.213c5.156-3.969,50.523-11.292,50.523-11.292
		s-38.703,39.505-36.703,57.061C472.924,183.479,438.336,175.066,445.91,153.305z"/>
	<path fill="#D8A39B" d="M62.604,166.85c0,0,31.731,14.969,48.731,11.797s19,2.607,19,2.607s-29.965,9.664-44,9.19
		S55.788,163.904,62.604,166.85z"/>
</g>
</svg>
