<?xml version="1.0" encoding="utf-8"?>
<!-- Generator: Adobe Illustrator 16.0.0, SVG Export Plug-In . SVG Version: 6.00 Build 0)  -->
<!DOCTYPE svg PUBLIC "-//W3C//DTD SVG 1.1//EN" "http://www.w3.org/Graphics/SVG/1.1/DTD/svg11.dtd">
<svg version="1.1" id="Layer_1" xmlns="http://www.w3.org/2000/svg" xmlns:xlink="http://www.w3.org/1999/xlink" x="0px" y="0px"
	 width="184.834px" height="215.093px" viewBox="0 0 184.834 215.093" enable-background="new 0 0 184.834 215.093"
	 xml:space="preserve">
<g>
	<path fill="#F2F2F2" d="M184.462,209.768c-2.541,4.442-24.216,6.206-24.84,0c-0.622-6.215-7.252-11.173-8.903-21.734
		c-1.651-10.554-7.862-18.627-12.212-9.313c-4.342,9.313-9.933,12.421-3.721,19.875c6.211,7.445,10.174,24.833-26.994,11.286
		c0,0-56.835,2.993-68.634,0.506c-11.794-2.479-40.359-8.073-39.12-23.594c1.242-15.527,1.242,5.587,9.315,0
		c8.074-5.586,6.206,3.614,6.828-12.158c0.622-15.782,14.282-50.557,24.22-61.738c9.936-11.163,16.146-13.032,16.146-13.032
		s-5.591-3.107-1.246-9.313c4.349-6.214,8.851-23.602,16.229-31.676c7.369-8.074,26.311-15.52,26.311-15.52
		s4.037-11.182,4.037-16.148c0-4.967-2.483-14.28,7.449-23.593c9.932-9.313,14.283,1.239,10.558,10.553
		c-3.728,9.313,1.859,24.833,1.859,24.833s10.06-16.759,19.937-22.965c9.869-6.215,17.941-12.421,21.668-9.314
		c3.723,3.099,2.481,26.692-7.449,36.634c-9.938,9.933-19.251,16.759-19.251,24.833c0,8.074,9.936,15.528,18.007,21.734
		c8.072,6.214,15.703,29.188,16.852,45.947c1.156,16.776-4.875,39.122,0,49.684C176.39,196.107,186.943,205.42,184.462,209.768z"/>
	<path fill="#D1D2D3" d="M103.116,190.521c2.651,6.563-0.679,16.872,13.632,21.786l-12.469-3.368c0,0,1.944-0.358-9.232-7.524
		c-11.18-7.175-12.175-20.207-33.909-14.001c-21.734,6.215-19.491,3.107-19.491,3.107S63.494,178.1,78.335,178.72
		C93.18,179.339,101.253,185.894,103.116,190.521z"/>
	<path fill="#E7E7E7" d="M180.279,212.307c0,0,5.748-3.779,0-7.506c0,0-1.471,6.136-4.513,7.506c0,0-1.864-8.754-4.343-7.506
		c-2.482,1.239-2.482,1.239-2.482,1.239s7.449,8.808-0.935,6.267C168.006,212.307,172.365,218.575,180.279,212.307z"/>
	<path fill="#E7E7E7" d="M124.23,212.832c0,0,3.725-3.309-2.485-8.153c0,0,9.558,3.745,9.75,8.153c0,0,0.81-2.061,2.05-8.153
		c0,0,4.867-0.881,3.674,5.203C137.218,209.881,134.859,214.638,124.23,212.832z"/>
	<path fill="#D1D2D3" d="M98.769,111.667c0,0-18.627,9.305-42.221-11.801c0,0,10.136,13.451,18.832,21.525
		c8.691,8.074-3.935,7.655,2.276,21.315C77.656,142.706,85.11,124.699,98.769,111.667z"/>
	<path fill="#E7E7E7" d="M148.447,11.689c0,0-31.047,31.667-26.702,45.327c4.349,13.66,5.38,14.908-0.415,8.694
		C115.535,59.496,111.191,35.911,148.447,11.689z"/>
	<path fill="#E7E7E7" d="M111.443,1.86c0,0-18.006,45.686-9.623,44.595c9.564-1.24,6.265,4.478-3.813,2.487
		c-8.962-1.771-5.586-3.247-5.586-3.247l3.244,0.148C95.666,45.844,101.82,1.86,111.443,1.86z"/>
	<path fill="#3B2416" d="M96.912,68.207c-6.677-1.519-10.985,7.123-10.985,7.123c4.011,6.319,9.938,7.733,14.098,2.47
		C104.191,72.519,102.552,69.49,96.912,68.207z"/>
	<path fill="#F2F2F2" d="M96.288,72.335l-4.491-0.952C91.797,71.384,101.175,69.507,96.288,72.335z"/>
	<path fill="#D1D2D3" d="M91.797,157.23c0,0,4.325,29.599,12.482,38.275C104.279,195.505,87.306,211.496,91.797,157.23z"/>
	<path fill="#E7E7E7" d="M143.889,81.029c0,0-1.374,10.771-6.481,14.489l15.109-7.236L143.889,81.029z"/>
	<path fill="#E7E7E7" d="M160.247,11.689c-0.817-2.348-23.497,11.172-27.274,21.725c-3.775,10.562,3.677,23.462,15.475,7.07
		C160.247,24.101,165.21,25.969,160.247,11.689z"/>
	<path fill="#D1D2D3" d="M64.555,95.519c-2.483-1.859-6.289-2.436-8.006,4.347L64.555,95.519z"/>
</g>
</svg>
