<?xml version="1.0" encoding="utf-8"?>
<!-- Generator: Adobe Illustrator 16.0.0, SVG Export Plug-In . SVG Version: 6.00 Build 0)  -->
<!DOCTYPE svg PUBLIC "-//W3C//DTD SVG 1.1//EN" "http://www.w3.org/Graphics/SVG/1.1/DTD/svg11.dtd">
<svg version="1.1" id="Layer_1" xmlns="http://www.w3.org/2000/svg" xmlns:xlink="http://www.w3.org/1999/xlink" x="0px" y="0px"
	 width="14.734px" height="92.561px" viewBox="0 0 14.734 92.561" enable-background="new 0 0 14.734 92.561" xml:space="preserve">
<path fill="#898989" d="M3.415,92.561c0,0,0.283-1.475,0.777-4.059c0.232-1.277,0.516-2.828,0.84-4.611
	c0.314-1.771,0.659-3.762,0.986-5.924c0.65-4.316,1.304-9.342,1.359-14.541c0-1.299-0.027-2.602-0.11-3.898
	c-0.116-1.284-0.243-2.579-0.482-3.817c-0.204-1.258-0.571-2.439-0.948-3.58c-0.216-0.553-0.414-1.119-0.687-1.621l-0.972-2.068
	l-0.453-1.014c-0.148-0.35-0.307-0.642-0.441-1.08l-0.822-2.443c-0.129-0.403-0.276-0.821-0.387-1.215l-0.269-1.15
	c-0.176-0.768-0.351-1.531-0.523-2.293c-0.304-1.519-0.513-3.022-0.728-4.512c-0.143-1.481-0.314-2.944-0.399-4.383
	C0.104,28.915,0.003,27.508,0,26.132c0.016-1.374-0.006-2.716,0.039-4.021c0.067-1.302,0.113-2.565,0.194-3.785
	c0.107-1.218,0.214-2.394,0.313-3.521c0.258-2.252,0.54-4.305,0.855-6.115C1.71,6.877,2.055,5.309,2.347,4.02
	c0.269-1.29,0.577-2.291,0.754-2.976C3.292,0.361,3.415,0,3.415,0S3.63,1.507,3.936,4.107c0.301,2.578,0.73,6.262,1.248,10.682
	c0.261,2.19,0.549,4.553,0.872,7.034c0.172,1.233,0.349,2.502,0.529,3.798c0.202,1.281,0.409,2.594,0.619,3.925
	c0.242,1.312,0.488,2.647,0.737,3.999c0.301,1.316,0.604,2.651,0.913,3.997c0.184,0.651,0.367,1.307,0.552,1.964l0.271,0.985
	c0.094,0.313,0.203,0.588,0.303,0.886l0.595,1.757c0.069,0.275,0.265,0.639,0.411,0.968l0.465,1.009l0.451,1.017l0.112,0.253
	l0.015,0.032c-0.041-0.082,0.11,0.227-0.088-0.175l0.037,0.076l0.071,0.153l0.287,0.611c0.407,0.813,0.697,1.646,0.996,2.474
	c0.551,1.658,0.903,3.338,1.109,4.969c0.436,3.273,0.343,6.42-0.005,9.363c-0.697,5.893-2.306,11.043-3.966,15.295
	c-1.674,4.254-3.451,7.604-4.799,9.883c-0.65,1.15-1.25,2.013-1.632,2.607C3.646,92.258,3.415,92.561,3.415,92.561z"/>
</svg>
