<?xml version="1.0" encoding="utf-8"?>
<!-- Generator: Adobe Illustrator 16.0.0, SVG Export Plug-In . SVG Version: 6.00 Build 0)  -->
<!DOCTYPE svg PUBLIC "-//W3C//DTD SVG 1.1//EN" "http://www.w3.org/Graphics/SVG/1.1/DTD/svg11.dtd">
<svg version="1.1" id="Layer_1" xmlns="http://www.w3.org/2000/svg" xmlns:xlink="http://www.w3.org/1999/xlink" x="0px" y="0px"
	 width="401.771px" height="401.771px" viewBox="0 0 401.771 401.771" enable-background="new 0 0 401.771 401.771"
	 xml:space="preserve">
<g>
	<g>
		<defs>
			<circle id="SVGID_1_" cx="201.925" cy="201.904" r="199.66"/>
		</defs>
		<clipPath id="SVGID_2_">
			<use xlink:href="#SVGID_1_"  overflow="visible"/>
		</clipPath>
		<g clip-path="url(#SVGID_2_)">
			<rect x="-29.647" y="-21.945" fill="#D1D2D3" width="461.051" height="449.477"/>
			
				<rect x="-89.753" y="92.861" transform="matrix(-0.7071 0.7071 -0.7071 -0.7071 497.3945 204.4301)" fill="#414142" width="592.224" height="224.736"/>
			
				<rect x="-88.388" y="110.62" transform="matrix(-0.7071 0.7071 -0.7071 -0.7071 500.6883 205.7912)" fill="#231F20" width="592.223" height="191.942"/>
			<g>
				
					<rect x="92.874" y="229.477" transform="matrix(-0.7512 0.66 -0.66 -0.7512 387.2026 465.4075)" fill="#D1D2D3" width="26.043" height="152.389"/>
				
					<rect x="47.06" y="246.768" transform="matrix(0.7512 -0.66 0.66 0.7512 -152.3881 102.7258)" fill="#686868" width="26.043" height="13.504"/>
				
					<rect x="139.026" y="351.937" transform="matrix(-0.7512 0.66 -0.66 -0.7512 502.6995 526.9442)" fill="#686868" width="26.043" height="12.538"/>
			</g>
			<g>
				<path fill="#414142" d="M99.41,230.005c-1.623-9.193,9.362-12.027,26.215-26.216c16.854-14.188,22.256-27.583,31.321-31.32
					c9.063-3.736,5.587,5.957,27.972,27.972c22.386,22.017,61.013,57.093,53.465,65.528c-7.549,8.438-44.845,50.173-54.612,48.396
					c-9.769-1.776-37.297-29.304-52.615-47.286C115.837,249.097,100.741,237.553,99.41,230.005z"/>
				<path fill="#CA5151" d="M111.842,230.005c-0.814-13.848,4.923-8.475,20-20c15.077-11.524,7.084-12.412,20.848-8.416
					c13.765,3.995,20.868-1.332,23.088,11.543c2.22,12.878-9.042,2.503,2.361,23.674c11.403,21.172,16.326,20.688,10.091,29.588
					s26.175,34.209,5.752,32.433c-20.425-1.776-23.976-9.769-39.072-25.752C139.814,257.09,112.286,237.553,111.842,230.005z"/>
				<path fill="#BC4343" d="M167.342,225.121c18.817,13.626,24.42,0.444,38.63,18.204c14.207,17.76,28.414,13.32,14.207,28.416
					c-14.207,15.097-15.539,26.195-33.3,15.54c-17.76-10.656-35.964-26.196-39.517-50.173
					C143.809,213.133,154.465,215.797,167.342,225.121z"/>
				<path fill="#C74C4C" d="M133.755,210.25c10.318-14.34,14.676-32.564,27.528-21.313c12.852,11.253-3.624,14.417,9.324,26.196
					c12.948,11.779,16.895-0.731,29.314,18.728c12.422,19.457,12.525,22.935-13.755,20.77c-26.282-2.163-44.244-4.46-48.55-21.09
					C133.312,216.909,121.609,227.131,133.755,210.25z"/>
				<path opacity="0.1" fill="#FFFFFF" enable-background="new    " d="M118.93,256.447c0,0,99.494,20.526,110.805-10.283
					c0,0-23.162-27.388-41.667-42.642c-18.506-15.253-14.154-19.605-22.102-27.643c-7.948-8.036-10.435-6.835-24.288,13.876
					c-13.853,20.713-44.806,27.056-42.871,37.87C100.741,238.442,118.93,256.447,118.93,256.447z"/>
				<path fill="#FFFFFF" d="M125.015,221.271l39.318-34.662c0,0,8.258,13.779,14.879,16.876l-39.317,34.662
					C139.895,238.147,129.169,228.458,125.015,221.271z"/>
				
					<rect x="143.164" y="199.903" transform="matrix(-0.7409 0.6717 -0.6717 -0.7409 407.036 246.2658)" fill="#231F20" width="25.692" height="3.506"/>
				
					<rect x="131.55" y="210.774" transform="matrix(-0.7409 0.6716 -0.6716 -0.7409 409.4564 265.4927)" fill="#6E6F71" width="43.933" height="1.906"/>
				
					<rect x="139.598" y="212.256" transform="matrix(-0.7409 0.6717 -0.6717 -0.7409 419.8559 264.4264)" fill="#6E6F71" width="38.638" height="1.906"/>
				<g>
					
						<rect x="172.318" y="285.03" transform="matrix(-0.7071 0.7071 -0.7071 -0.7071 522.2605 371.2913)" fill="#FFFFFF" width="23.833" height="17.554"/>
					
						<rect x="177.437" y="292.566" transform="matrix(-0.7071 0.7071 -0.7071 -0.7071 516.8453 384.9069)" fill="#231F20" width="2.538" height="13.859"/>
					
						<rect x="179.76" y="290.876" transform="matrix(-0.7071 0.7071 -0.7071 -0.7071 518.5339 380.8275)" fill="#231F20" width="1.269" height="13.859"/>
					
						<rect x="181.371" y="288.629" transform="matrix(-0.7069 0.7073 -0.7073 -0.7069 520.8003 375.3117)" fill="#231F20" width="2.539" height="13.858"/>
					
						<rect x="184.067" y="286.804" transform="matrix(-0.708 0.7062 -0.7062 -0.708 522.4922 371.4453)" fill="#231F20" width="0.787" height="13.857"/>
					
						<rect x="184.961" y="285.045" transform="matrix(-0.7074 0.7068 -0.7068 -0.7074 524.3425 366.8838)" fill="#231F20" width="2.539" height="13.858"/>
					
						<rect x="187.386" y="283.097" transform="matrix(-0.7064 0.7079 -0.7079 -0.7064 526.4378 361.671)" fill="#231F20" width="1.633" height="13.86"/>
					
						<rect x="189.255" y="281.228" transform="matrix(-0.7064 0.7079 -0.7079 -0.7064 528.3041 357.1585)" fill="#231F20" width="1.633" height="13.86"/>
				</g>
			</g>
			<g>
				
					<rect x="281.785" y="43.921" transform="matrix(-0.6901 0.7237 -0.7237 -0.6901 585.1871 -10.3345)" fill="#D1D2D3" width="26.042" height="152.397"/>
				
					<rect x="231.544" y="65.463" transform="matrix(0.6901 -0.7237 0.7237 0.6901 23.5288 199.3752)" fill="#686868" width="26.042" height="13.503"/>
				
					<rect x="332.391" y="162.107" transform="matrix(-0.6901 0.7237 -0.7237 -0.6901 705.6393 34.5984)" fill="#686868" width="26.042" height="12.54"/>
			</g>
			<path fill="#414142" d="M186.12,178.653c-2.97-6.444,4.558-10.652,14.204-24.34c9.646-13.688,11.028-24.579,16.97-29.079
				c5.941-4.499,5.26,3.299,25.973,15.157c20.711,11.858,55.889,30.177,51.969,37.837c-3.918,7.662-23.27,45.552-30.793,46.136
				c-7.521,0.58-33.082-14.336-47.817-24.594C201.886,189.513,188.558,183.944,186.12,178.653z"/>
			<polygon fill="#F19A8D" points="199.671,175.423 262.812,219.964 272.319,210.944 205.224,165.909 			"/>
			<path fill="#F19A8D" d="M211.75,154.727l68.136,43.252l-5.007,8.583c0,0-65.218-35.164-66.394-46.244L211.75,154.727z"/>
			<polygon fill="#E2887F" points="202.664,170.294 214.031,159.544 276.103,204.463 266.628,211.968 			"/>
			<polygon fill="#F19A8D" points="221.481,152.413 218.999,159.328 274.261,198.89 281.085,187.197 			"/>
			<polygon fill="#E2887F" points="220.401,139.899 215.229,148.764 277.673,193.044 283.093,176.485 			"/>
			<polygon fill="#E2887F" points="286.472,186.696 281.472,195.262 227.017,163.48 233.754,151.935 			"/>
			<polygon fill="#F9CCC8" points="224.81,146.713 276.812,177.064 280.942,183.05 			"/>
			<polygon fill="#F9CCC8" points="218.999,159.328 264.765,193.346 274.261,198.89 268.888,192.098 			"/>
			<path fill="#F9CCC8" d="M219.683,176.044c3.088,3.436,47.137,31.208,47.137,31.208l-2.812-5.34L219.683,176.044z"/>
			<path fill="#F9CCC8" d="M210.075,174.618l36.923,25.894l-1.101,1.888C245.897,202.399,214.927,183.328,210.075,174.618z"/>
			<path opacity="0.1" fill="#FFFFFF" enable-background="new    " d="M206.162,194.657c0,0,77.11-4.141,79.47-28.977
				c0,0-22.32-15.658-38.874-23.293c-16.554-7.636-14.194-11.677-21.59-16.049c-7.396-4.371-8.992-3.008-15.174,14.896
				c-6.179,17.903-27.708,28.549-24.195,36.125C189.311,184.937,206.162,194.657,206.162,194.657z"/>
			<g>
				
					<rect x="244.569" y="192.918" transform="matrix(-0.5041 0.8637 -0.8637 -0.5041 559.9728 81.8505)" fill="#FFFFFF" width="23.835" height="17.556"/>
				
					<rect x="251.299" y="201.664" transform="matrix(-0.5044 0.8635 -0.8635 -0.5044 560.0778 95.7202)" fill="#231F20" width="2.54" height="13.858"/>
				
					<rect x="253.146" y="199.609" transform="matrix(-0.5044 0.8635 -0.8635 -0.5044 560.128 91.583)" fill="#231F20" width="1.27" height="13.859"/>
				
					<rect x="254.098" y="196.87" transform="matrix(-0.5035 0.864 -0.864 -0.5035 560.0323 85.7893)" fill="#231F20" width="2.539" height="13.86"/>
				
					<rect x="256.27" y="194.664" transform="matrix(-0.5041 0.8636 -0.8636 -0.5041 560.158 81.5654)" fill="#231F20" width="0.786" height="13.858"/>
				
					<rect x="256.655" y="192.494" transform="matrix(-0.504 0.8637 -0.8637 -0.504 560.1651 77.171)" fill="#231F20" width="2.54" height="13.858"/>
				
					<rect x="258.509" y="190.116" transform="matrix(-0.5039 0.8638 -0.8638 -0.5039 560.1915 72.3245)" fill="#231F20" width="1.632" height="13.859"/>
				
					<rect x="259.845" y="187.833" transform="matrix(-0.5042 0.8636 -0.8636 -0.5042 560.2773 67.8475)" fill="#231F20" width="1.633" height="13.859"/>
			</g>
			<g>
				<path fill="#3D3D3D" d="M9.851,326.76c13.195-15.987,18.819-22.522,36.069-18.646c17.251,3.875,17.872-1.584,23.641,11.48
					c5.77,13.063,6.07-2.441,11.391,22.334c5.321,24.776,11.056,29.295,9.1,39.5c-1.954,10.202,3.541,8.403-5.895,14.774
					c-9.434,6.371-10.243,6.779-18.351,9.615c-8.107,2.835-3.711,6.017-14.116,2.905c-10.407-3.108-8.945-0.433-15.452-5.723
					c-6.506-5.291-3.466-4.684-13.498-13.498c-10.031-8.816-16.755-5.109-14.609-14.258c2.147-9.148,2.025-15.35,2.694-19.545
					c0.669-4.196,2.478-2.389,2.181-7.547C12.71,342.994,9.851,326.76,9.851,326.76z"/>
				<path fill="#515151" d="M58.318,409.966c0,0-36.319-23.468-33.972-33.972c2.346-10.505,1.518-2.821,4.365-18.216
					c2.846-15.393-8.706-0.192,2.846-15.393c11.551-15.199,13.341-19.488,18.83-22.513c5.488-3.021,9.214,4.351,14.194,2.035
					c4.98-2.313,7.437,1.196,12.133,1.717c4.695,0.521,2.264-11.638,10.471,3.864c8.208,15.504,5.927,19.303,9.195,27.435
					s9.002-15.315,4.616,15.56c-4.387,30.876-4.387,30.876-4.387,30.876S77.663,414.85,58.318,409.966z"/>
				<path fill="#606060" d="M99.18,383.271c-0.81-2.224-10.836-29.086-12.479-30.729s-3.537-4.753-6.542-6.541
					c-3.005-1.789-11.561-2.36-13.361-4.508c-1.803-2.146-4.6,1.159-8.673,0.724c-4.074-0.438-10.214,3.271-10.183,3.241
					c0.03-0.031-1.954,2.854-3.697,8.403c-1.744,5.55-4.175,15.277-2.656,16.797c1.52,1.52-2.101-2.102,0.318,5.181
					c2.418,7.283,5.096,9.962,6.493,15.006s-7.725,3.253-2.216,10.567c5.508,7.313,6.422,4.739,9.279,6.646
					c2.857,1.908,9.694,2.923,9.694,2.923l29.021-7.188C94.177,403.791,106.144,402.404,99.18,383.271z"/>
				<path fill="#4CB967" d="M36.239,403.002c0,0-18.584-7.826-23.346-17.791c-4.762-9.965,1.516-0.959-0.276-15.233
					c-1.792-14.275-0.063-14.08,7.04-17.604c7.102-3.525,11.899-9.986,11.899-9.986c1.216,4.863-0.529,8.405,4.863,14.59
					c5.393,6.186,3.041,6.688,9.424,11.854c6.383,5.168,2.225-7.501,10.688,8.257c8.462,15.758,6.639,9.071,8.462,15.758
					c1.824,6.688-3.722,17.361-3.722,17.361S49.737,416.5,36.239,403.002z"/>
			</g>
		</g>
	</g>
</g>
</svg>
