<?xml version="1.0" encoding="utf-8"?>
<!-- Generator: Adobe Illustrator 16.0.0, SVG Export Plug-In . SVG Version: 6.00 Build 0)  -->
<!DOCTYPE svg PUBLIC "-//W3C//DTD SVG 1.1//EN" "http://www.w3.org/Graphics/SVG/1.1/DTD/svg11.dtd">
<svg version="1.1" id="Layer_1" xmlns="http://www.w3.org/2000/svg" xmlns:xlink="http://www.w3.org/1999/xlink" x="0px" y="0px"
	 width="646px" height="439.07px" viewBox="0 0 646 439.07" enable-background="new 0 0 646 439.07" xml:space="preserve">
<g>
	<ellipse opacity="0.1" fill="#231F20" cx="146.34" cy="415.57" rx="146.34" ry="23.5"/>
	<ellipse opacity="0.1" fill="#231F20" cx="488.417" cy="415.57" rx="157.583" ry="23.5"/>
	<g>
		<g>
			<g>
				<path fill="#3A1E14" d="M224.773,318.765c0,0-3.114,20.465-7.226,36.439c-4.111,15.975-7.605,43.432-3.113,46.926
					s10.193-1.998,10.338,3.494c0.145,5.49,5.137,5.988,11.127,5.49c5.991-0.5,1.498-2.996,0-6.988
					c-1.497-3.994-11.481-7.988-6.49-25.459c4.993-17.473,21.965-40.436,22.464-51.918
					C252.375,315.269,224.773,318.765,224.773,318.765z"/>
				<path fill="#4A2E23" d="M77.889,405.033c0.998,4.494,0.998,0,5.492,4.494c4.493,4.494-2.497,3.994,2.995,7.488
					c5.492,3.494,19.968,2.994,19.968,0s-9.485-6.49-11.98-11.982c-2.496-5.488-2.496-48.422,1.997-59.902
					c0,0-0.501,50.408,1.995,53.404c2.496,2.996,3.494-0.498,6.989,1.998c3.494,2.494-0.998,8.486,6.49,8.984
					c7.487,0.5,15.974,0.998,14.975-1.996c-0.998-2.996-3.994-6.49-8.985-13.479c-4.992-6.988-7.486-18.961-4.99-33.438
					c2.496-14.477,21.965-50.42,21.965-50.42s12.479,15.475,26.458,17.971c13.978,2.498,41.933-1.996,51.417,0.998
					c9.485,2.996,23.962,1,26.458,20.469s0.999,51.916,2.995,56.91c1.997,4.99,9.485,2.994,9.485,4.492s-0.998,10.365,6.49,8.426
					c7.488-1.936,10.483,0.559,6.988-5.93c-3.494-6.49-7.986-7.988-8.485-16.475c-0.5-8.484-1.998-25.459,0-34.443
					c1.996-8.986,3.993-21.467,3.993-21.467s10.418-5.451,19.469-14.217c14.301-13.85,19.469-28.217,19.469-28.217l30.95-32.449
					c0,0,39.938-1.496,41.933-8.984c1.997-7.486,4.993-8.486,0-13.977c-4.991-5.492-14.976-8.484-18.97-15.477
					c-3.993-6.988,0-7.988-4.991-13.476c-4.993-5.491-17.759-9.405-21.252-13.898c-3.495-4.492-7.987-2.996-9.984,0
					c-1.997,2.994-6.989-2.836-6.989-2.836s-4.992,6.829-1.997,10.822c0,0-23.356,18.361-38.96,23.822c0,0-29.644-4.434-69.081-5.93
					c-39.438-1.496-50.42-5.492-64.896-9.484c-14.477-3.994-17.505-2.996-32.216-3.496c-14.71-0.498-15.208-1.996-22.697,7.988
					c-7.488,9.982-10.483,15.973-6.989,30.451c3.495,14.475,1.088,50.297-1.453,59.594c-2.541,9.295-9.529,15.785-9.529,15.785
					s10.483-2.994,17.971-9.484c0,0,0.998,9.984-2.496,16.475c0,0-2.996,17.971,0,31.947
					C80.884,380.074,77.889,405.033,77.889,405.033z"/>
				<path fill="#3A1E14" d="M134.798,310.185c0,0-8.729-7.562-15.385-7.562c0,0-14.159,29.104-23.054,42.508
					c0,0-1.616,45.494,0.995,53.404c2.61,7.912,6.989,1.998,6.989,1.998s-0.294,3.979,3.06,7.939
					c3.354,3.965,16.817,5.447,18.406-0.951c1.588-6.4-6.399-5.732-9.727-16.383s-6.501-19.807-3.249-30.533
					C116.085,349.88,134.873,319.08,134.798,310.185z"/>
			</g>
			<path fill="#3A1E14" d="M348.746,221.162c1.163-4.104-11.146-0.361-12.312,0.844c-1.166,1.207-6.104,5.234-6.104,5.234
				S347.319,226.199,348.746,221.162z"/>
			<path fill="#E7E7E7" d="M346.941,224.185c3.315,0.338,3.649,8.311-5.481,6.369C332.331,228.613,341.606,223.634,346.941,224.185z
				"/>
			<circle fill="#3A1E14" cx="345.506" cy="225.734" r="3.163"/>
			<path fill="#3A1E14" d="M308.235,208.428c0,0-0.633,2.99,0,9.816c0.633,6.826,1.633,11.185,9.133,9.255
				c7.5-1.93-3.5-2.082-2-9.255c1.5-7.174,0.005-8.238-3.5-12.777s2-7.812-1.5-10.854
				C306.868,191.57,304.102,205.285,308.235,208.428z"/>
			<path fill="#3A1E14" d="M317.499,210.601c1.247-1.856,5.357,1.481,3.857,6.364C319.856,221.845,314.642,214.854,317.499,210.601z
				"/>
			<path fill="#3A1E14" d="M260.597,341.136c0,0,1.271-7.566,5.271-11.066s28.336-18.234,33.668-31.367
				C299.536,298.703,282.826,336.703,260.597,341.136z"/>
			<path fill="#3A1E14" d="M83.868,288.07c0,0-5.468,31.865-10.205,34.248l6.722-4.645C80.385,317.673,86.368,305.07,83.868,288.07z
				"/>
			<path fill="#3A1E14" d="M119.856,218.634c-13.614-1.289,17.789,26.285,53.789,16.643s49.414-7.041,49.414-7.041
				S162.068,222.634,119.856,218.634z"/>
			<path fill="#8A5E3C" d="M251.611,411.025l4.931,2.617l7.176-2.379c0,0,8.149,7.119,3.649,8.463s-10.999,2.383-13,0
				S250.855,416.98,251.611,411.025z"/>
			<path fill="#603A17" d="M224.773,405.625c0,0,5.667,1.02,11.127-1.498c0,0,5.936,8.004,2.968,7.496
				S226.178,416.177,224.773,405.625z"/>
			<path fill="#8A5E3C" d="M97.597,412.283l-1.237-4.02c0,0,11.959,4.197,9.984,8.752s-24.764,5.197-21.37-3.373"/>
			<path fill="#603A17" d="M104.563,402.767c0,0,13.304-0.787,14.304,1.258s-0.399-7.059,2.471-4.424s10.527,6.004,3.778,10.486
				S107.368,411.886,104.563,402.767z"/>
			<path fill="#F8C32D" d="M313.088,226.57c-4.271-0.779-6.923,12.5-6.923,12.5s8.306,4,13.004,0
				C319.169,239.07,317.512,227.376,313.088,226.57z"/>
		</g>
		<ellipse fill="#3A1E14" cx="367.241" cy="248.027" rx="4.33" ry="2.438"/>
	</g>
	<g>
		<g>
			<g>
				<path fill="#2B3A43" d="M569.566,212.392L533.26,222.57l36.084,189.83l25.771-4.137c0,0,3.98-8.193-1.633-18.193
					c-5.615-10-11.512-20.633-11.562-32.816c-0.053-12.184,4.051-47.184,0-69.184C577.867,266.07,569.566,212.392,569.566,212.392z"
					/>
				<g>
					<path fill="#DCC5B6" d="M514.428,46.922c0,0,8.416-8.539,12.613,4.086c3.768,11.33-11.02,11.223-11.02,11.223
						S520.654,48.287,514.428,46.922z"/>
					<g>
						<path fill="#EFDDCE" d="M602.916,237.226c0,0,9.293,22.344-7.801,20.373c-17.094-1.973-14.164-30.648-14.164-30.648
							L602.916,237.226z"/>
						<path fill="#EFDDCE" d="M385.009,181.865c0,0-9.18,2.459-13.438,7.672c-5.384,6.588-8.364,15.348,1.71,20.85
							c10.072,5.502,17.895-1.51,22.419-6.791c4.525-5.281,4.525-5.281,4.525-5.281L385.009,181.865z"/>
						<path fill="#DCC5B6" d="M371.57,189.537c0,0,19.204,3.375,24.129,14.059l21.299-9.824l-22.713-18.505
							C394.285,175.267,373.354,187.127,371.57,189.537z"/>
						<g>
							<path fill="#F2F2F2" d="M582.846,80.439c-11.307-15.007-86.693-0.324-110.51,9.48c-12.744,5.246-24.561,28.947-33.83,41.666
								c-13.607,18.67-18.936,20.062-35.615,32.922c-16.005,12.343-22.675,17.096-22.675,17.096l19.341,20.913
								c13.186-10.048,52.645-14.911,79.279-62.937c12.906-23.271,15.07,106.095,15.07,106.095l77.744-19.941
								c1.195-52.498-1.783-73.99-1.783-73.99c13.814,16.324,11.084,75.207,11.084,75.207c5.652-1.256,30.02,16.816,26.252,11.164
								c-3.766-5.65,0-46.509,0-66.07C607.201,134.453,582.846,80.439,582.846,80.439z"/>
							<path fill="#E0C8AF" d="M509.916,59.023c-4.439,9.275,0,20.094-6.279,24.486c-6.279,4.396,23.943,21.807,33.906,8.164
								c17.879-24.488,11.932-7.537-7.533-32.65C510.545,33.906,509.916,59.023,509.916,59.023z"/>
							<path fill="#EFDDCE" d="M514.641,7.254c-19.279-1.453-30.635,18.838-30.635,34.535c0,15.695,4.445,40.812,18.236,46.463
								c13.787,5.652,27.182,3.14,33.043-4.396c5.859-7.535,10.254-29.51,8.369-45.207C541.773,22.951,539.627,9.135,514.641,7.254z
								"/>
							<path fill="#DCC5B6" d="M484.213,39.07c0.109-6.961,34.154-14.582,48.812-10.814s11.611,16.009,11.406,30.742
								c-0.336,24.068-9.146,24.857-9.146,24.857l0,0c-8.76,2.746-13.197,3.02-24.258-1.619c-4.768-2.002-8.176-9.328-8.24-18.674
								c-0.051-7.18-6.146-12.785-11.615-12.703c-5.467,0.082-3.955,6.627-3.955,6.627S484.035,50.238,484.213,39.07z"/>
							<path fill="#FFFFFF" d="M501.334,52.121c-4.18-5.072-10.467-5.391-12.941,0.406
								C485.916,58.324,505.514,57.197,501.334,52.121z"/>
							<circle fill="#3C547B" cx="493.316" cy="55.092" r="2.996"/>
							<path fill="#808184" d="M555.422,43.219c0,0-3.617-1.27-4.613-3.327c-1.533,13.938-5.604,30.481-11.521,34.487
								c0,0-15.432-12.987-16.246-22.371c-3.064,1.863-8.523-7.268-8.523-7.268c2.52-3.275-6.545,25.428-5.484,19.598
								c-0.207-1.596,0.246-10.52,0-12.239c-1.469-10.218-4.982-3.054-4.982-3.054c-15.229,4.408-12.934,0.357-19.812-0.795
								c-6.879-1.158-11.902-11.953-11.902-15.346c0,0,3.248,2.887,8.531,1.002c0,0-11.672-6.279-8.531-13.814
								c0,0,1.375,5.018,8.195,2.607c0,0,3.107-15.789,17.549-20.188c14.441-4.396,27.627,2.512,37.045,0
								C544.545,0,544.545,0,544.545,0s-2.514,6.197-6.908,7.18c0,0,10.676,4.75,13.186,14.169"/>
							<polyline fill="#D7D6D6" points="580.016,152.775 573.957,164.025 567.547,153.043 565.676,132.154 572.002,148.666 
								574.898,139.422 							"/>
							<path fill="#D7D6D6" d="M502.787,94.186c5.338,5.648-0.34,10.672,17.254,10.672c17.596,0,20.734-4.395,20.105-5.336
								c-0.625-0.943,0.23,9.104-14.641,10.986c-14.869,1.887-11.346,9.422-4,7.537c7.342-1.883-10.998,11.929-18.719-8.164
								C495.066,89.795,502.787,94.186,502.787,94.186z"/>
							<path fill="#EFDDCE" d="M493.002,74.312c0,0-15.422,11.652-7.303-17.275C485.699,57.037,486.016,72.938,493.002,74.312z"/>
							<path fill="#231F20" d="M555.422,410.8c0,0,19.328-5.072,36.949-7.555c17.625-2.484,37.621,9.037,30.039,14.242
								C614.826,422.693,548.229,423.089,555.422,410.8z"/>
							<path fill="#231F20" d="M497.283,399.968c0,0-26.596-5.387-44.703,4.557c-18.104,9.939-18.539,17.838-3.914,17.492
								C463.291,421.667,507.836,431.07,497.283,399.968z"/>
							<path fill="#6E6F71" d="M499.622,47.369c1.608-4.744-16.44,1.186-13.594,2.834C489.857,52.416,497.544,53.499,499.622,47.369
								z"/>
							<path fill="#3C547B" d="M562.746,73.006c0,0-6.111,89.996-1.088,133.318c5.023,43.324-3.691,57.095,3.213,106.07
								c6.908,48.977,13.506,61.963,15.889,88.824c1.16,13.064-22.078,11.26-47.5,13.064c-48.838,3.467-80.863-2.607-75.211-15.164
								c7.271-16.166,5.496-47.496,7.379-70.102c1.885-22.605,10.047-46.465,11.303-84.766c1.256-38.3,3.584-131.841,0.85-158.287
								l17.986-3.08c0,0-6.904,50.229,28.785,43.324c28.209-5.459,27.727-7.537,21.629-51.817L562.746,73.006z"/>
							<path fill="#334A6C" d="M485.535,155.525c14.178,32.111,15.404,18.543,18.863,42.152c3.459,23.613,5.559,50.634,4.232,96.683
								c-1.324,46.053,3.385,84.096-7.168,40.658c-10.555-43.436,5.705-76.695-4.475-110.646
								C486.809,190.422,485.535,155.525,485.535,155.525z"/>
							<path fill="#334A6C" d="M507.836,155.773c7.176,2.508,18.602,3.557,21.861,13.236s-3.539,16.146,16.842,47.533
								c19.283,29.691,11.277,60.259,5.232,35.285c-6.115-25.264,0.566-15.74-10.947-29.1c-11.514-13.359-11.957-44.8-15.303-51.917
								C522.174,163.693,507.836,155.773,507.836,155.773z"/>
							<path fill="#334A6C" d="M540.635,314.378c-5.193,42.992-29.551,46.461-15.098,55.254c14.455,8.791,0.039-11.93,15.098-32.652
								c15.057-20.719,9.734-71.576-1.73-58.393c-11.467,13.184-29.703,48.617-13.367,28.703
								C541.877,287.378,542.531,298.679,540.635,314.378z"/>
							<path fill="#334A6C" d="M545.697,372.968c7.412,8.939,23.357,20.094,0,21.348c-23.355,1.258-15.844,5.652-29.102,5.652
								c-13.256,0-23.082-7.533-30.41-7.533c-7.332,0-21.223-5.107-15.035-13.896c6.184-8.791,10.168-21.895,21.805-11.848
								s-0.643,23.232,20.998,18.209C535.598,379.876,539.449,365.435,545.697,372.968z"/>
						</g>
						<g>
							<path fill="#2D2E2D" d="M388.11,212.488c2.312,1.508,11.048-5.922,11.372-8.051c0.324-2.127,0.234-2.516-3.084-3.711
								c-3.316-1.197-15.569-10.074-17.054-13.256c-1.482-3.186,3.697-3.662,1.318-5.689l-17.752,13.424
								c0,0,8.801,5.023,9.748,6.725c0.947,1.699,5.98,3.715,8.879,5.525C384.438,209.268,386.231,211.262,388.11,212.488z"/>
							<path fill="#2D2E2D" d="M382.14,168.301c3.096-0.277,7.223-2.066,8.902,1.076c1.683,3.145-11.812,15.156-19.216,20.789
								c-7.405,5.635-4.399,3.654-4.399,3.654s1.418,6.186-0.26,5.848c-1.676-0.342-1.533-3.809-3.349-6.553
								c-1.813-2.744-1.995-2.361-4.457-2.408c-2.462-0.045-7.461,5.965-7.461,5.965l0.8,0.963l-7.152,5.939l-1.143,0.021
								l-4.156,3.684l-4.596,1.727c0,0-5.193-1.496-4.797-5.775l0.613-1.904l0.422-2.443l5.227-4.34l-0.227-1.672l6.738-5.596
								l1.189,0.869l1.182-1.91l13.896-12.473l2.361,0.131l5.982-5.667l2.767,0.726l0.558-3.717l1.511,0.139l1.483,1.785
								c0,0,2.354-2.182,1.422-3.732s1.553-2.219,2.617,0.611C379.665,166.871,380.538,168.445,382.14,168.301z"/>
							<polygon fill="#231F20" points="337.118,194.543 344.405,203.596 345.548,203.574 346.237,203.002 337.441,192.414 							
								"/>
							<polygon fill="#231F20" points="344.819,188.145 351.9,196.672 352.397,196.094 346.001,186.234 							"/>
							<path fill="#231F20" d="M356.255,190.267c0,0,5.723-5.683,7.242-7.411l-1.842-3.812l3.839,1.457l9.671-7.332l0.66-2.525
								l1.656,1.994L356.255,190.267z"/>
							<path fill="#231F20" d="M363.198,190.006c0,0,3.706,0.525,4.229,3.814C367.427,193.82,366.485,197.197,363.198,190.006z"/>
							<path fill="#231F20" d="M372.149,170.326c0,0,2.323,5.274,6.156,1.623c3.834-3.648,3.834-3.648,3.834-3.648
								s-0.721,1.457-2.672-2.195C377.515,162.455,380.796,171.974,372.149,170.326z"/>
							<path fill="#231F20" d="M377.481,187.639c0,0-2.783,3.876,4.502,11.967c7.285,8.088,15.626,7.604,16.026,5.094
								c0,0-0.676-1.846-3.203-2.648C392.277,201.244,383.063,198.004,377.481,187.639z"/>
						</g>
						<path fill="#EFDDCE" d="M366.426,199.824c0,0,9.77-6.658,15.833,2.305c6.064,8.965,4.852,11.361,4.852,11.361
							S360.435,212.392,366.426,199.824z"/>
						<path fill="#EFDDCE" d="M356.573,194.154c0,0-3.488,2.438,0,6.383s12.501-2.563,8.072-7.066
							C361.614,190.389,356.573,194.154,356.573,194.154z"/>
						<path fill="#DCC5B6" d="M380.604,183.602c0,0-10.436-3.953-12.308,3.633c-1.871,7.588,8.604,3.107,15.124,1.404
							L380.604,183.602z"/>
						<path fill="#D7D6D6" d="M434.02,137.498h11.277l-11.277,3.428l4.275,10.818l-7.002-7.123l-28.402,19.887
							C402.891,164.508,422.74,144.74,434.02,137.498z"/>
					</g>
				</g>
			</g>
			<path fill="#DCC5B6" d="M526.508,60.285c0,0,9.324-3.922,0-15.185c-5.721-6.911-12.752,4.147-12.752,4.147
				S513.148,62.5,526.508,60.285z"/>
		</g>
		<path fill="#DCC5B6" d="M483.338,73.006l9.664,1.307C493.002,74.312,489.582,80.941,483.338,73.006z"/>
	</g>
</g>
</svg>
