<?xml version="1.0" encoding="utf-8"?>
<!-- Generator: Adobe Illustrator 16.0.0, SVG Export Plug-In . SVG Version: 6.00 Build 0)  -->
<!DOCTYPE svg PUBLIC "-//W3C//DTD SVG 1.1//EN" "http://www.w3.org/Graphics/SVG/1.1/DTD/svg11.dtd">
<svg version="1.1" id="Layer_1" xmlns="http://www.w3.org/2000/svg" xmlns:xlink="http://www.w3.org/1999/xlink" x="0px" y="0px"
	 width="510.978px" height="419px" viewBox="-117.35 0 510.978 419" enable-background="new -117.35 0 510.978 419"
	 xml:space="preserve">
<rect x="-15.545" y="235" transform="matrix(0.9988 -0.0493 0.0493 0.9988 -12.3716 0.749)" fill="#65B458" width="49.114" height="32.829"/>
<g>
	<path fill="#DBAF75" d="M92.301,287.509c-2.835,15.07-3.362,38.14,43.037,37.563c46.4-0.577,112.973,7.492,125.75-14.699
		c12.777-22.19,4.707-45.154-27.57-41.069s-67.246,6.774-92.127,0.723C116.51,263.973,93.68,280.186,92.301,287.509z"/>
	<path fill="#664030" d="M48.245,260.829c4.144,8.769,33.623,52,82.712,52.226c49.088,0.227,154.555-11.306,171.42-28.066
		c16.867-16.762,10.143-36.936-20.117-24.159c-30.262,12.777-58.078,21.519-102.674,25.89
		c-44.594,4.371-76.992-12.441-96.097-29.925C64.384,239.311,40.263,243.94,48.245,260.829z"/>
	<path fill="#C15959" d="M59.061,254.824c0.012-0.004,0.046-0.058,0.243-0.204c0.224-0.165,0.491-0.318,0.887-0.491
		c0.78-0.333,1.943-0.626,3.455-0.839c3.025-0.397,7.442-0.517,13.03,0.075c2.806,0.287,5.878,0.747,9.296,1.704
		c0.858,0.248,1.738,0.526,2.667,0.904c0.465,0.19,0.94,0.4,1.441,0.669c0.252,0.136,0.509,0.284,0.775,0.456
		c0.289,0.194,0.499,0.332,0.884,0.666c0.088,0.067,0.542,0.438,0.939,1.017l0.177,0.293c0.047,0.079,0.116,0.211,0.191,0.404
		c0.068,0.177,0.123,0.337,0.171,0.537c0.061,0.283,0.089,0.584,0.082,0.877c0,0.282-0.086,0.738-0.22,1.081
		c-0.137,0.374-0.315,0.644-0.542,0.933c-0.255,0.311-0.413,0.43-0.61,0.584c-0.198,0.15-0.423,0.281-0.529,0.33
		c-0.137,0.069-0.278,0.132-0.421,0.188c-0.121,0.045-0.199,0.067-0.302,0.099c-0.216,0.064-0.357,0.092-0.494,0.118
		c-0.155,0.03-0.269,0.046-0.377,0.06l-0.315,0.033c-0.396,0.034-0.69,0.037-0.993,0.041c-1.147-0.003-2.1-0.074-3.08-0.136
		c-1.929-0.137-3.829-0.304-5.68-0.324c-0.916-0.009-1.824-0.003-2.626,0.084c-0.773,0.068-1.549,0.283-1.615,0.393
		c-0.052,0.047,0.217-0.03,0.493-0.42c0.131-0.19,0.236-0.406,0.276-0.585c0.051-0.162,0.049-0.283,0.061-0.312l-0.025-0.221
		l0.018,0.102l0.035,0.203c0.02-0.001-0.03-0.253-0.046-0.293c-0.016-0.092-0.063-0.187-0.092-0.255
		c-0.086-0.143-0.089-0.14,0.039-0.074c0.258,0.141,0.989,0.414,1.833,0.585c0.852,0.183,1.847,0.307,2.885,0.393
		c2.09,0.16,4.375,0.207,6.742,0.198c2.419-0.024,4.883-0.05,7.39-0.075c2.56-0.021,5.196,0.03,8.019,0.258
		c1.406,0.131,2.889,0.315,4.455,0.661c0.443,0.099,0.838,0.199,1.379,0.375c0.27,0.091,0.56,0.19,0.959,0.375
		c0.211,0.101,0.421,0.201,0.736,0.401c0.305,0.21,0.669,0.428,1.212,1.074c0.265,0.323,0.563,0.787,0.778,1.397
		c0.229,0.645,0.303,1.435,0.197,2.109c-0.236,1.393-0.826,2.037-1.156,2.432c-0.364,0.397-0.641,0.603-0.859,0.76
		c-0.232,0.165-0.407,0.267-0.58,0.365c-0.65,0.354-1.074,0.504-1.502,0.664c-1.618,0.57-2.938,0.845-4.314,1.17
		c-1.332,0.297-2.672,0.596-4.02,0.896c-2.646,0.608-5.294,1.195-7.803,1.963c-1.245,0.385-2.465,0.818-3.51,1.32
		c-0.518,0.248-0.993,0.518-1.337,0.765c-0.171,0.122-0.309,0.237-0.394,0.315l-0.058,0.052c0.177-0.291,0.007-0.017,0.027-0.052
		l-0.074,0.112c-0.046,0.07-0.015,0.025,0.019-0.038c0.026-0.052,0.048-0.106,0.064-0.163c0.026-0.117,0.06-0.205,0.062-0.313
		c0.02-0.223-0.002-0.552-0.125-0.814c-0.035-0.113-0.107-0.231-0.168-0.31c-0.035-0.063-0.107-0.132-0.144-0.162
		c-0.165-0.123-0.076-0.006,0.065,0.08c0.306,0.204,0.873,0.44,1.466,0.632c1.209,0.396,2.591,0.676,3.983,0.94
		c5.627,1.031,11.607,1.643,17.604,2.339c6.012,0.683,12.117,1.358,18.251,2.379c3.066,0.509,6.143,1.1,9.219,1.817
		c1.521,0.343,3.125,0.84,4.48,1.134c1.434,0.324,2.926,0.523,4.428,0.683c6.025,0.63,12.234,0.523,18.414,0.291
		c6.188-0.246,12.383-0.715,18.555-1.209c6.18-0.493,12.334-0.984,18.441-1.472c12.232-0.948,24.264-2.067,36.025-2.879
		c2.945-0.202,5.873-0.394,8.807-0.53c2.957-0.103,5.834-0.202,9.021-0.058c0.814,0.042,1.643,0.108,2.668,0.273
		c0.533,0.098,1.059,0.175,1.988,0.505c0.264,0.103,0.477,0.18,0.846,0.371c0.293,0.146,0.764,0.417,1.256,0.836
		c1.369,1.385,0.277,0.165-0.271-0.124c-0.398-0.25-0.977-0.525-1.75-0.649c-0.775-0.133-1.652-0.035-2.275,0.182
		c-1.287,0.47-1.645,0.981-1.881,1.197c-0.393,0.469-0.301,0.436-0.281,0.359c0.104-0.203,0.307-0.724,0.48-1.254
		c0.721-2.239,1.434-4.944,2.18-7.566c0.76-2.653,1.553-5.333,2.697-8.079c0.582-1.379,1.229-2.778,2.172-4.266
		c0.479-0.744,1.031-1.516,1.797-2.314c0.766-0.786,1.77-1.649,3.238-2.272c0.732-0.304,1.57-0.527,2.428-0.595
		c0.805-0.093,1.92,0.065,1.998,0.092c0.479,0.079,1.002,0.146,1.484,0.19l0.748,0.053l0.996,0.038l0.5,0.033
		c0.199,0.021,0.523,0.048,1.035,0.177c0.258,0.066,0.633,0.186,1.064,0.399c0.48,0.238,1.047,0.62,1.561,1.205
		c0.51,0.563,0.871,1.311,1.021,1.817c0.182,0.572,0.213,0.984,0.234,1.278c0.029,0.644-0.023,0.925-0.053,1.166
		c-0.035,0.238-0.068,0.395-0.096,0.522l-0.143,0.582c-0.158,0.583-0.27,1.014-0.375,1.508c-0.104,0.482-0.191,0.979-0.266,1.485
		c-0.148,1.014-0.248,2.067-0.307,3.133c-0.021,0.537-0.043,1.072-0.064,1.605c-0.008-0.064,0,0.678,0.004,0.554
		c-0.008,0.033,0,0.132-0.008,0.174c-0.023,0.099-0.031-0.232-0.68-0.774c-0.314-0.273-0.783-0.457-1.123-0.519
		c-0.332-0.066-0.574-0.02-0.645-0.004c-0.178,0.06,0.021,0.058,0.264-0.045c0.254-0.098,0.578-0.268,0.912-0.471
		c0.678-0.416,1.396-0.974,2.086-1.575c2.744-2.466,5.221-5.483,6.742-8.337c0.371-0.709,0.689-1.413,0.889-2.04
		c0.205-0.624,0.285-1.184,0.297-1.423c0.01-0.126,0.021-0.152,0.061-0.147c0.035,0.003,0.08-0.012,0.033-0.076
		c0.041,0-0.24-0.151-0.408-0.237c-0.252-0.135-0.598-0.326-0.867-0.518c-0.293-0.206-0.619-0.442-1.016-0.898
		c-0.105-0.132-0.191-0.232-0.299-0.401c-0.115-0.187-0.213-0.364-0.301-0.577c-0.098-0.267-0.174-0.52-0.209-0.821
		c-0.027-0.321-0.029-0.657,0.045-0.964c0.066-0.313,0.184-0.63,0.311-0.842c0.133-0.244,0.287-0.455,0.414-0.588
		c0.297-0.334,0.533-0.487,0.768-0.644c0.461-0.285,0.791-0.388,1.129-0.501c0.639-0.188,1.166-0.252,1.676-0.295
		c1.01-0.069,1.918-0.012,2.793,0.104c1.74,0.258,3.328,0.762,4.754,1.475c1.424,0.711,2.678,1.651,3.635,2.763
		c0.967,1.104,1.59,2.377,1.914,3.578c0.33,1.206,0.389,2.336,0.328,3.329c-0.061,0.995-0.223,1.867-0.434,2.618
		c-0.414,1.504-0.9,2.563-1.232,3.268c-0.348,0.693-0.527,1.052-0.527,1.052l-0.922-0.387c0,0,0.104-0.369,0.305-1.085
		c0.184-0.714,0.441-1.789,0.549-3.17c0.086-1.362,0.078-3.092-0.686-4.703c-0.734-1.604-2.244-2.98-4.449-3.688
		c-1.088-0.356-2.332-0.556-3.602-0.552c-0.629-0.002-1.271,0.046-1.834,0.163c-0.271,0.059-0.531,0.141-0.658,0.212
		c-0.039,0.027-0.092,0.07,0.029,0.015c0.068-0.04,0.135-0.074,0.303-0.247c0.053-0.062,0.156-0.184,0.24-0.338
		c0.064-0.127,0.166-0.341,0.205-0.554c0.035-0.209,0.064-0.438,0.029-0.658c-0.021-0.199-0.057-0.355-0.129-0.521
		c-0.043-0.121-0.086-0.211-0.15-0.307c-0.053-0.081-0.063-0.107-0.105-0.158c-0.117-0.146-0.105-0.129-0.045-0.111l0.244,0.09
		c0.219,0.086,0.326,0.113,0.748,0.309c0.707,0.337,1.438,0.884,1.984,1.597c0.557,0.711,0.893,1.528,1.068,2.273
		c0.357,1.514,0.227,2.796,0.021,3.96c-0.213,1.169-0.551,2.229-0.938,3.266c-0.785,2.059-1.801,3.977-2.979,5.866
		c-1.18,1.892-2.559,3.709-4.223,5.486c-0.842,0.888-1.75,1.765-2.857,2.618c-0.563,0.426-1.168,0.848-1.906,1.249
		c-0.744,0.393-1.6,0.803-2.891,1.016c-0.625,0.104-1.438,0.13-2.32-0.047c-0.896-0.169-1.873-0.634-2.629-1.257
		c-0.744-0.621-1.268-1.352-1.598-1.981c-0.346-0.647-0.537-1.218-0.686-1.751c-0.137-0.518-0.23-0.986-0.285-1.527
		c-0.072-0.695-0.057-0.534-0.094-1.176c-0.027-0.622-0.047-1.253-0.055-1.891c-0.018-1.277,0.01-2.591,0.111-3.954
		c0.053-0.683,0.123-1.378,0.225-2.086c0.096-0.695,0.236-1.452,0.355-2.057c0.027-0.142,0.051-0.271,0.053-0.311
		c0.004-0.022-0.002-0.017-0.018,0.07c-0.01,0.09-0.047,0.219-0.027,0.708c0.018,0.219,0.039,0.554,0.195,1.054
		c0.131,0.432,0.453,1.112,0.912,1.617c0.465,0.526,0.967,0.865,1.379,1.068c0.363,0.182,0.664,0.274,0.848,0.322
		c0.365,0.094,0.535,0.099,0.58,0.109c0.074,0.008,0.063,0.009,0.041,0.011l-0.854,0.027c-0.359,0.008-0.736,0.008-1.109,0.001
		c-0.758-0.015-1.477-0.055-2.242-0.125c-0.541-0.056-0.053,0.022,0.123-0.003c0.23-0.017,0.453-0.068,0.604-0.131
		c0.305-0.123,0.303-0.171,0.195-0.032c-0.107,0.129-0.303,0.404-0.5,0.75c-0.404,0.7-0.832,1.669-1.217,2.711
		c-0.768,2.109-1.449,4.526-2.109,7.049c-0.686,2.553-1.234,5.146-2.207,8.152c-0.262,0.776-0.523,1.561-1.023,2.605
		c-0.287,0.543-0.535,1.124-1.389,2.114c-0.23,0.254-0.506,0.533-0.932,0.858c-0.398,0.304-0.982,0.676-1.785,0.943
		c-0.787,0.271-1.842,0.391-2.789,0.229c-0.945-0.153-1.686-0.5-2.234-0.839c-0.852-0.47-2.15-1.979-1.037-0.831
		c0.357,0.311,0.682,0.481,0.814,0.555c0.219,0.105,0.266,0.126,0.367,0.162c0.271,0.09,0.107,0.03-0.049,0.013
		c-0.359-0.058-0.936-0.109-1.527-0.15c-2.443-0.149-5.27-0.11-8.064-0.047c-2.814,0.046-5.689,0.13-8.596,0.234
		c-11.633,0.447-23.756,1.018-36.088,1.397c-12.336,0.426-24.93,0.291-37.543-0.467c-6.309-0.407-12.621-0.941-18.926-2.061
		c-1.576-0.297-3.148-0.646-4.729-1.067c-1.658-0.457-2.994-0.962-4.477-1.375c-2.912-0.864-5.887-1.537-8.877-2.095
		c-5.984-1.095-12.022-1.755-18.015-2.161c-6.006-0.43-11.924-0.521-17.923-0.953c-1.509-0.124-3.015-0.291-4.625-0.591
		c-0.812-0.166-1.641-0.352-2.632-0.788c-0.5-0.239-1.046-0.493-1.702-1.15c-0.159-0.162-0.331-0.384-0.477-0.587
		c-0.154-0.231-0.298-0.517-0.412-0.791c-0.227-0.607-0.298-1.299-0.219-1.878c0.044-0.282,0.085-0.554,0.191-0.835
		c0.049-0.139,0.104-0.277,0.163-0.413l0.132-0.282l0.06-0.12c0.065-0.113-0.061,0.083,0.162-0.285
		c0.083-0.132,0.169-0.266,0.256-0.386c0.35-0.493,0.718-0.89,1.083-1.241c0.732-0.698,1.458-1.216,2.173-1.679
		c1.431-0.912,2.829-1.588,4.216-2.208c2.769-1.223,5.488-2.176,8.15-3.04c1.309-0.426,2.608-0.851,3.901-1.271
		c1.24-0.414,2.532-0.856,3.424-1.241c0.196-0.087,0.393-0.196,0.324-0.176c-0.03,0.014-0.062,0.028-0.16,0.095
		c-0.082,0.061-0.23,0.157-0.483,0.431c-0.22,0.271-0.712,0.771-0.925,1.997c-0.089,0.593-0.029,1.299,0.178,1.863
		c0.184,0.532,0.44,0.924,0.652,1.183c0.438,0.516,0.664,0.635,0.83,0.756c0.174,0.11,0.234,0.139,0.293,0.17
		c0.097,0.048,0.071,0.04,0.024,0.032l-0.552-0.1c-1.031-0.171-2.17-0.256-3.365-0.3c-2.385-0.114-4.89-0.058-7.381-0.061
		c-2.497,0.023-5,0.034-7.503-0.018c-2.507-0.051-5.01-0.135-7.583-0.457c-1.291-0.163-2.595-0.37-3.974-0.725
		c-1.376-0.372-2.837-0.814-4.462-1.905c-0.8-0.554-1.664-1.3-2.347-2.381c-0.342-0.527-0.616-1.131-0.81-1.742
		c-0.1-0.302-0.21-0.823-0.25-1.092l-0.023-0.204l-0.011-0.103c-0.052-0.479-0.021-0.261-0.035-0.426
		c-0.031-0.574,0.009-1.243,0.166-1.938c0.169-0.706,0.461-1.439,0.895-2.08c0.871-1.299,2.049-2.029,2.967-2.416
		c1.893-0.769,3.259-0.783,4.551-0.836c1.276-0.016,2.422,0.071,3.523,0.197c2.186,0.265,4.181,0.646,6.027,0.993
		c0.908,0.175,1.815,0.345,2.508,0.437l0.382,0.047c0.027,0.004,0.027,0.006,0.025,0.01c0.005,0.004,0.005,0.008-0.039,0.017
		l-0.161,0.048l-0.139,0.052c-0.091,0.032-0.18,0.072-0.266,0.118c-0.052,0.031-0.232,0.127-0.385,0.243
		c-0.152,0.12-0.259,0.211-0.486,0.471c-0.199,0.242-0.324,0.476-0.456,0.79c-0.123,0.288-0.179,0.691-0.186,0.917
		c-0.012,0.237,0.012,0.481,0.068,0.709c0.032,0.146,0.065,0.254,0.116,0.378c0.059,0.139,0.104,0.22,0.12,0.252
		c0.028,0.051,0.059,0.101,0.092,0.147c0.148,0.205,0.28,0.261,0.046,0.022c0.055,0.036-0.081-0.103-0.151-0.165
		c-0.093-0.083-0.206-0.171-0.327-0.261c-0.248-0.182-0.545-0.363-0.854-0.539c-0.622-0.353-1.314-0.676-2.01-0.975
		c-2.821-1.179-5.686-1.998-8.251-2.703c-5.175-1.333-9.376-2.034-12.204-2.218c-1.415-0.107-2.488-0.058-3.154,0.063
		c-0.326,0.052-0.585,0.135-0.688,0.173c-0.134,0.049-0.247,0.128-0.238,0.118L59.061,254.824z"/>
	<path fill="#EDDA54" d="M70.343,253.981c0,0,1.086-0.067,3.175-0.02c2.07,0.081,5.119,0.229,8.986,0.946
		c1.938,0.367,4.073,0.852,6.434,1.677c1.178,0.429,2.411,0.923,3.736,1.657c0.335,0.193,0.663,0.375,1.01,0.622
		c0.34,0.224,0.69,0.479,1.051,0.787c0.705,0.604,1.488,1.32,2.17,2.626c0.17,0.285,0.316,0.685,0.443,1.075
		c0.136,0.374,0.219,0.815,0.264,1.28c0.062,0.455,0.047,0.919-0.016,1.392c-0.047,0.485-0.156,0.918-0.306,1.331
		c-0.587,1.663-1.587,2.766-2.393,3.483c-0.442,0.426-0.825,0.676-1.258,1.016c-0.158,0.141-0.568,0.435-0.76,0.598
		c-0.344,0.298-0.783,0.684-1.095,1.03c-0.309,0.343-0.545,0.686-0.601,0.858c-0.075,0.183,0.139,0.079,0.178-0.564
		c0.032-0.309-0.069-0.692-0.159-0.941c-0.127-0.271-0.195-0.39-0.233-0.445c-0.057-0.086,0.219,0.071,0.616,0.223
		c0.797,0.332,2.131,0.629,3.504,0.826c1.396,0.207,2.925,0.357,4.514,0.432c1.677,0.058,3.382,0.115,5.113,0.175
		c0.902,0.023,1.763,0.08,2.818,0.182c1.012,0.097,2.029,0.164,3.052,0.355c0.511,0.083,1.022,0.166,1.536,0.249
		c0.536,0.119,1.074,0.239,1.613,0.359c0.521,0.112,1.094,0.288,1.67,0.478c0.568,0.18,1.13,0.354,1.769,0.646
		c0.311,0.131,0.619,0.268,0.922,0.41c0.307,0.143,0.668,0.374,0.992,0.566c0.344,0.225,0.637,0.36,1.008,0.672
		c0.355,0.286,0.703,0.585,1.037,0.892c0.686,0.716,1.352,1.545,1.785,2.557c0.252,0.493,0.377,0.979,0.506,1.474
		c0.146,0.516,0.182,0.943,0.221,1.384c0.123,1.734-0.162,2.878-0.266,3.619l-0.049,0.275c0.014,0.218-0.191-1.67-0.098-0.827
		c0.057,0.274-0.09-0.521-0.365-0.975c-0.273-0.518-0.721-0.939-0.703-0.916c-0.098-0.093-0.205-0.179-0.314-0.256
		c-0.174-0.119-0.207-0.133-0.326-0.19c-0.07-0.031-0.074-0.028-0.117-0.039c-0.051-0.009-0.027,0.018-0.002,0.04
		c0.152,0.111,0.531,0.271,0.912,0.409c1.605,0.568,3.547,1.058,5.455,1.512c7.752,1.807,16.066,2.886,24.486,3.178
		c8.432,0.36,17.029,0.006,25.598-0.759s17.102-1.653,25.465-2.241c8.365-0.59,16.563-1.367,24.369-2.349
		c3.9-0.49,7.707-1.005,11.35-1.599c1.82-0.285,3.598-0.61,5.307-0.964c1.713-0.332,3.357-0.717,4.859-1.158
		c1.482-0.438,2.887-0.924,3.758-1.389c0.219-0.111,0.383-0.212,0.506-0.285l0.123-0.074l0.021-0.009
		c-0.025,0.026,0.066-0.065-0.051,0.059l0.061-0.058l0.236-0.231c0.639-0.611,1.273-1.219,1.902-1.82
		c2.32-2.267,4.512-4.563,6.754-6.957c0.549-0.595,1.131-1.186,1.738-1.802c0.566-0.592,1.244-1.228,1.902-1.842
		c0.301-0.3,0.719-0.628,1.094-0.938c0.404-0.314,0.711-0.613,1.207-0.917c0.457-0.3,0.918-0.59,1.375-0.869
		c0.512-0.265,1.064-0.503,1.596-0.729c0.516-0.252,1.119-0.365,1.686-0.51c0.576-0.144,1.145-0.261,1.688-0.267
		c0.547-0.032,1.098-0.053,1.623-0.05c0.484,0.058,0.965,0.114,1.443,0.171c1.865,0.281,3.375,0.791,4.742,1.337
		c0.717,0.254,1.328,0.558,1.953,0.842c0.311,0.143,0.619,0.284,0.924,0.425l0.227,0.105l0.113,0.053l0.057,0.026
		c0.068,0.025-0.379-0.127-0.166-0.052l0.426,0.186c0.564,0.248,1.117,0.492,1.66,0.732c0.305,0.146,0.477,0.183,0.666,0.238
		c0.193,0.062,0.385,0.122,0.574,0.183c0.193,0.067,0.385,0.134,0.574,0.2c0.201,0.04,0.408,0.06,0.611,0.093
		c0.205,0.033,0.408,0.066,0.609,0.099c0.207,0.046,0.406,0.068,0.59,0.046c0.373-0.021,0.76,0.007,1.131-0.007
		c0.35-0.068,0.701-0.127,1.059-0.181c2.742-0.746,4.629-3.037,5.611-4.609c0.52-0.801,0.854-1.473,1.068-1.926
		c0.221-0.458,0.311-0.682,0.311-0.683l1.184,0.203c0-0.001-0.002,0.306-0.047,0.855c-0.049,0.553-0.154,1.366-0.406,2.427
		c-0.277,1.05-0.67,2.365-1.52,3.817c-0.824,1.45-2.148,3.06-4.207,4.306c-0.527,0.268-1.082,0.539-1.664,0.81
		c-0.588,0.215-1.213,0.37-1.859,0.537c-0.328,0.098-0.652,0.146-0.979,0.166c-0.33,0.03-0.664,0.061-1.002,0.091
		c-0.34,0.025-0.684,0.063-1.037,0.072c-0.357-0.024-0.719-0.048-1.084-0.072c-0.371-0.032-0.744-0.064-1.121-0.098
		c-0.381-0.035-0.789-0.075-1.041-0.136c-0.582-0.111-1.178-0.224-1.781-0.339l-0.455-0.089c0.178,0.063-0.307-0.1-0.275-0.088
		l-0.053-0.013l-0.105-0.024l-0.213-0.05c-0.281-0.066-0.566-0.134-0.855-0.201c-0.57-0.133-1.162-0.292-1.719-0.362
		c-1.137-0.2-2.27-0.354-3.176-0.29c-0.221,0.021-0.439,0.035-0.656,0.043c-0.176,0.055-0.332,0.117-0.498,0.152
		c-0.178,0.014-0.301,0.103-0.42,0.177c-0.119,0.08-0.252,0.08-0.369,0.218c-0.445,0.258-1.119,1.025-1.908,1.938
		c-0.402,0.509-0.805,0.998-1.25,1.618c-0.447,0.609-0.9,1.225-1.357,1.847c-0.941,1.27-1.938,2.645-3.004,4.021
		c-1.023,1.354-2.277,2.841-3.422,4.213c-0.572,0.656-1.146,1.318-1.729,1.985l-0.219,0.248l-0.057,0.063l-0.168,0.174l-0.221,0.22
		c-0.303,0.305-0.588,0.547-0.883,0.8c-0.578,0.477-1.15,0.886-1.699,1.237c-2.209,1.389-4.229,2.226-6.254,2.933
		c-4.02,1.374-7.969,2.207-11.994,2.857c-4.02,0.63-8.088,1.05-12.211,1.321c-8.244,0.535-16.689,0.61-25.244,0.521
		c-8.553-0.099-17.219-0.877-25.844-1.819c-8.627-0.945-17.219-1.771-25.695-2.186c-4.238-0.225-8.445-0.385-12.621-0.417
		c-4.207-0.016-8.365-0.031-12.455-0.047c-2.088-0.035-4.117-0.065-6.381-0.336c-0.584-0.08-1.164-0.159-1.941-0.374
		c-0.207-0.062-0.414-0.125-0.688-0.236c-0.152-0.066-0.27-0.112-0.447-0.204c-0.221-0.123-0.363-0.194-0.636-0.388
		c-0.156-0.117-0.309-0.243-0.453-0.375c-0.035-0.014-0.514-0.487-0.822-1.055c-0.31-0.505-0.504-1.346-0.451-1.135
		c0.082,0.783-0.15-1.163-0.127-1.007l-0.029-0.46c-0.059-1.215-0.124-2.028-0.258-2.221c-0.161-0.203-0.071,0.336-0.046,0.373
		c-0.044,0.013-0.074,0.017-0.095,0.01c0.008-0.007-0.162-0.03-0.225-0.053c-0.101-0.021-0.141-0.056-0.277-0.084
		c-0.141-0.025-0.277-0.057-0.41-0.093c-0.234-0.08-0.591-0.134-0.936-0.19c-0.332-0.062-0.667-0.125-1.072-0.153l-1.141-0.144
		l-1.223-0.084c-1.652-0.112-3.141-0.179-5.027-0.215c-0.893-0.028-1.777-0.056-2.656-0.084c-0.942-0.024-1.879-0.099-2.82-0.18
		c-1.877-0.167-3.752-0.386-5.655-0.78c-1.915-0.429-3.814-0.899-5.941-1.941c-1.058-0.529-2.181-1.193-3.357-2.397
		c-0.58-0.624-1.163-1.352-1.606-2.34c-0.456-0.941-0.703-2.106-0.705-3.182c0.035-2.196,0.873-3.765,1.623-4.829
		c0.778-1.085,1.575-1.828,2.345-2.479c0.777-0.641,1.498-1.132,2.325-1.654c0.395-0.246,0.59-0.326,1.017-0.58
		c0.133-0.08,0.371-0.172,0.439-0.222c0.291-0.132,0.192-0.135,0.099,0.277c-0.014,0.101-0.026,0.213-0.051,0.36
		c-0.002,0.141,0.017,0.273,0.023,0.396c0.026,0.132,0.079,0.243,0.095,0.306c0.03,0.075,0.102,0.154,0.102,0.154
		c0.074,0.061,0.054-0.003,0.054-0.072c-0.072-0.1-0.086-0.205-0.221-0.349c-0.185-0.272-0.533-0.586-0.874-0.896
		c-0.708-0.629-1.577-1.225-2.447-1.764c-1.743-1.106-3.548-2.003-5.183-2.806c-3.299-1.577-6.033-2.71-7.904-3.452
		c-1.89-0.756-2.898-1.159-2.898-1.159L70.343,253.981z"/>
	<path fill="#EFC889" d="M92.301,297.749c-2.836,15.069-3.362,38.14,43.037,37.563c46.4-0.577,112.973,7.492,125.75-14.699
		c12.775-22.191,4.707-45.155-27.57-41.07c-32.279,4.085-67.246,6.775-92.127,0.723C116.51,274.213,93.679,290.426,92.301,297.749z"
		/>
</g>
<ellipse fill="#D3B363" cx="277.676" cy="337.974" rx="44" ry="32.261"/>
<ellipse fill="#EDE48A" cx="346.858" cy="346.418" rx="46.77" ry="35.238"/>
<g>
	<circle fill="#472E26" cx="222.777" cy="357.301" r="15.681"/>
	<path fill="#472E26" d="M231.974,357.202c1.797-1.635-5.612,8.338-6.429,7.987c-0.815-0.35-2.769-7.889-2.769-7.889
		S226.375,362.295,231.974,357.202z"/>
	<path fill="#472E26" d="M215.93,359.704c1.996,2.163-6.97,5.659-5.113,1.795c1.857-3.866-0.757-6.56,3.943-8.209
		S212.861,356.379,215.93,359.704z"/>
	<path fill="#472E26" d="M224.767,349.778c2.559,2.292-3.949,3.535-4.397,1.543C219.923,349.328,221.382,346.746,224.767,349.778z"
		/>
	<path fill="#472E26" d="M236.722,350.136c0,0-2.66-6.967-8.999-7.711C227.723,342.425,231.959,345.77,236.722,350.136z"/>
</g>
<path fill="#472E26" d="M286.936,337.993c-0.332-0.944-0.743-1.836-1.189-2.701c0.014,0.013,0.027,0.024,0.041,0.037
	c0,0-3.592-9.41-12.143-10.42c0,0,0.022,0.018,0.035,0.027c-4.304-1.447-9.096-1.545-13.709,0.074
	c-11.019,3.867-16.81,15.95-12.938,26.986c3.874,11.037,15.946,16.849,26.965,12.982
	C285.017,361.112,290.81,349.031,286.936,337.993z"/>
<g>
	<circle fill="#51382D" cx="242.535" cy="360.911" r="21.145"/>
	<path fill="#472E26" d="M254.937,360.777c2.424-2.204-7.567,11.244-8.668,10.771s-3.733-10.638-3.733-10.638
		S247.387,367.645,254.937,360.777z"/>
	<path fill="#472E26" d="M233.302,364.151c2.691,2.917-9.398,7.632-6.895,2.42c2.504-5.213-1.021-8.845,5.317-11.069
		C238.063,353.278,229.164,359.667,233.302,364.151z"/>
	<path fill="#472E26" d="M245.218,350.767c3.45,3.091-5.325,4.768-5.929,2.081C238.687,350.16,240.654,346.678,245.218,350.767z"/>
	<path fill="#472E26" d="M261.339,351.249c0,0-3.586-9.395-12.135-10.398C249.204,340.851,254.917,345.361,261.339,351.249z"/>
</g>
<g>
	<path fill="#65B458" d="M35.111,17c0,0,89.5-3.5,119-17c0,0,4.5,38,14,55c0,0-47,44-99.5,38.5L35.111,17z"/>
	<g transform="matrix(0.1,0,0,-0.1,0,362)">
		<path fill="#FFFFFF" d="M1282.549,3448.213c-10.342-5.469-32.402-16.147-48.955-23.647
			c-42.168-19.014-48.584-23.276-64.863-42.476c-23.096-27.334-33.252-72.124-24.57-108.594c3.389-13.872,7.773-23.306,9.492-20.142
			c0.4,0.815,1.396,5.259,2.08,9.785c3.662,22.207,20.82,58.755,37.725,80.283c8.613,11.021,27.998,24.409,29.023,20.005
			c0.352-1.519-4.824-12.31-11.367-23.428c-6.104-10.581-8.027-14.805-18.115-40.552c-10.4-26.978-21.328-73.403-26.582-113.701
			c-5.098-39.106-8.311-70.073-9.893-93.101c-2.559-39.38-5.82-70.791-7.48-71.763c-2.012-1.343-12.676,16.934-36.777,62.866
			c-37.598,71.968-52.158,96.309-83.467,139.531c-21.406,29.424-45.703,51.338-91.992,82.778
			c-25.43,17.441-59.17,31.919-77.871,33.647c-12.197,1.216-12.715-0.942-1.953-8.442c50.82-35.903,81.943-64.067,117.783-106.099
			c30.283-35.767,54.043-72.769,101.719-159.233c12.158-22.139,40.859-79.048,51.016-101.367
			c11.328-24.805,23.066-48.931,25.508-52.563c0.84-1.113,3.291-2.285,5.488-2.354c4.971-0.146,27.559,5.132,32.09,7.505
			c6.68,3.735,6.738,9.707,1.455,77.031c-3.672,45.479-4.17,73.105-2.051,115c3.486,71.411,12.402,125.205,22.93,136.094
			c1.533,1.519,9.834,5.781,18.711,9.458c34.424,14.292,59.502,36.86,73.994,66.831c9.707,19.99,10.381,33.228,4.16,75.347
			c-3.33,22.314-3.672,28.77-2.598,42.817c0.615,9.15,0.605,17.285,0.098,18.188
			C1305.742,3460.171,1303.603,3459.38,1282.549,3448.213z"/>
	</g>
	<path fill="#333130" d="M201.611,374.501c-6-2-8.5-10.5-11-11s-3-5.5-3.504-7c-0.502-1.5-1.996-8.5-0.321-14s-3.675-9-4.675-15
		s0.5-4.5-0.5-14.5s-3.5-26-3.5-26s3.5,0.5,7.5-3s-3.5-11.5-3.5-18s-2.5-13.5-4.5-22.5s-2.5-19-5-26s-17.73-8.5-17.73-8.5
		s1.73-4,4.73-5s4.5-5.5,5-11c0.125-1.384,0.283-2.767,0.385-4.126l13.865,0.958c0,0-1.021-0.987-2.517-2.543
		c12.413-4.763,21.767-18.932,21.767-18.932c-10.139,5.47-20.975,1.302-31.611-1.191c4.355-1.276,13.135,0.899,13.135,0.899
		c-6.644-5.65-18.357-3.837-24.771-2.248c-8.396,0.613-13.369,5.396-16.457,9.683c-2.311,3.208-1.079,9.293,1.229,13.608
		c0.419,4.477,2.063,8.693,2.976,10.392c2.146,4-0.5,5-0.5,5s-1-2.5-5.5-8s-16-17-21-21.5c-5-4.5-15.5-19-17-19.5s-2.5-11-8.5-16
		c-0.396-0.33-0.77-0.609-1.123-0.847C78.274,111.815,38.209,11.799,35.611,10.5c-3-1.5-9-0.5-8,4
		c0.863,3.886,43.851,100.22,55.57,126.447c-0.454,1.379-0.762,3.013-1.07,4.553c-1,5,6.5,8,6.5,8l16,40.5c0,0,0,0,3.5-1
		s-6.24-21-6.24-21s4.74,7.5,8.24,9.389c3.5,1.889,3.5,10.112,10,17.612c6.5,7.5,9.5,17,9.5,17s3.5,25.5,3.5,30.5s2,20.5-2.5,27
		s-11,36-15.5,52.5c-4.5,16.5-11,33-11,33l2.5,3c0,0-6,7.5-4.5,13.5s12.5,6,18,3c5.5-3-3-14.5-3-14.5s5,0.5,9,0s5-20,5.5-25
		s1-12,5-20.5s14-26,14-26s8,4,12.5,13.481c4.5,9.484,8,31.519,8,37.019s-0.5,15.5,0,20.5s5.191,1,5.191,1v3.5
		c-2.308,1.5-3.691,5.5-3.691,9.5s19.5,4.5,29,4.5S207.611,376.501,201.611,374.501z M172.611,259.809c0,0-8-11.309-6.5-21.809
		C166.111,238.001,173.111,254.62,172.611,259.809z"/>
</g>
<g>
	<path fill="#EFC889" d="M-94.247,389.087c29.343,3.887,158.441,5.661,165.011-2.726c10.081-12.868,14.031-24.247,1.139-31.803
		c-12.893-7.555-120.378-13.926-154.644-5.737C-117.006,357.01-102.116,388.043-94.247,389.087z"/>
	<path fill="#51382D" d="M-108.855,365.897c0,0,89.048,15.947,193.908,0c0,0,9.831-5.633,2.261-20.947
		c-7.571-15.314-166.323-16.198-185.408-10.016C-117.178,341.118-108.855,365.897-108.855,365.897z"/>
	<path fill="#65B458" d="M-110.662,344.95c5.911,2.659,3.893,0.6,16.038,7.216c12.145,6.617,17.543-8.025,28.627,5.733
		c11.083,13.759,13.012,20.615,29.494,10.749c16.483-9.865,14.037-10.942,24.369-9.521s12.817,5.838,25.454,5.838
		s33.457,3.533,37.794-1.767c4.338-5.3,1.735-4.609,11.277-4.071c9.542,0.538,19.736-1.229,22.711-3.878
		c2.976-2.649,17.574,3.069,16.575-3.091c-1.001-6.159,4.152-10.601,0.049-11.925c-4.105-1.324,3.223-3.533-11.55-3.533
		c-14.772,0,5.471-8.942-18.243-5.354c-23.713,3.588-25.832-0.927-44.146,0s-34.654,5.128-57.689,0.013
		c-23.034-5.114-24.819-5.3-46.507-0.862s-32.449,5.321-32.449,5.321S-126.7,337.734-110.662,344.95z"/>
	<path fill="#EDE48A" d="M85.49,333.862c4.651,1.102-4.5,17.844-16.083,17.132c-11.583-0.713-10.181-0.819-26.761,2.302
		c-16.581,3.122-22.925-1.192-31.722,1.71c-8.796,2.902,9.085-9.69-15.431-7.467c-24.515,2.223-27.728,2.349-37.662,2.285
		c-9.934-0.063-25.024,0.636-31.238,1.17s-27.519,0.395-6.214-14.552C-58.317,321.497,48.206,325.03,85.49,333.862z"/>
	<path fill="#C15959" d="M70.667,323.062c13.471,2.399,28.114,16.104,15.099,17.839c-13.015,1.735-62.887,8.282-74.146,0
		S25.149,314.955,70.667,323.062z"/>
	<path fill="#C15959" d="M-86.816,334.249c22.052,4.391,26.023,16.3,50.314,10.701c24.29-5.599,48.58,2.24,32.965-13.604
		c-15.615-15.844-26.024-19.376-51.182-18.493C-79.876,313.736-130.191,325.614-86.816,334.249z"/>
	<path fill="#D36363" d="M28.695,329.656c0,0-0.106,0.021-0.303,0.06c-2.689,0.519-22.367,4.321-22.339,4.276
		c0.029-0.048,27.908,0,27.908,0l-9.046,10.54l21.032-12.443l10.007,11.825l5.631-8.467l20.254,6.454l-23.359-14.32l16.779,3.72
		l-14.484-8.17L28.695,329.656z"/>
	<path fill="#D36363" d="M-44.309,334.249l-3.47,10.701l-6.94-10.701l-19.085-1.081l8.675-7.065l-33.581-2.543l36.183-2.261
		l18.218-8.516c0,0-5.206,9.717,0,9.752c5.205,0.034,30.928,0,30.928,0l-16.519,4.242l17.766,7.472h-24.369l6.603,5.985
		L-44.309,334.249z"/>
	<path fill="#EFC889" d="M-98.709,330.822c30.959,3.947,167.142,5.984,174.055-2.39c10.608-12.849,14.752-24.221,1.139-31.802
		c-13.615-7.581-92.166-32.16-163.136-6.054C-121.448,303.378-107.014,329.763-98.709,330.822z"/>
</g>
<ellipse fill="#F4D8B0" cx="27.5" cy="294.5" rx="6.5" ry="3.5"/>
<ellipse fill="#F4D8B0" cx="-39" cy="298" rx="6.5" ry="3.5"/>
<ellipse fill="#F4D8B0" cx="2.611" cy="312.783" rx="6.5" ry="3.5"/>
<ellipse fill="#DBAF75" cx="-16.721" cy="298" rx="6.5" ry="3.5"/>
<ellipse fill="#F4D8B0" cx="-69.5" cy="309.283" rx="6.5" ry="3.5"/>
<g>
	<circle fill="#51382D" cx="300.089" cy="360.911" r="26.089"/>
	<path fill="#472E26" d="M305,346.418c-1.576-3.722,10,13.404,9,14.493s-13.911,0-13.911,0S309.911,358.014,305,346.418z"/>
	<path fill="#472E26" d="M300.089,372.985c4.496-1.942,5.045,14.061,0,9.016s-10.714-2.427-10.714-10.714
		S293.178,375.971,300.089,372.985z"/>
	<path fill="#472E26" d="M289.375,353.643c5.008-2.754,3.375,8.148,0,7.753S282.75,357.285,289.375,353.643z"/>
	<path fill="#472E26" d="M296.522,335.071c0,0-12.402,0.337-17.063,9.879C279.459,344.95,287.045,340.143,296.522,335.071z"/>
</g>
<path fill="#C15959" d="M324.589,344.271l-5.508-1.613l-5.534-1.545c-0.709-0.192-1.425-0.366-2.136-0.553
	c0.021-0.028,0.047-0.053,0.067-0.082c0.132-0.227,0.228-0.34,0.283-0.783c0.02-0.196,0.005-0.408-0.043-0.604
	c-0.035-0.176-0.153-0.42-0.17-0.449c-0.075-0.147-0.176-0.294-0.292-0.423c-0.058-0.064-0.122-0.127-0.183-0.18l-0.065-0.066
	c-0.084-0.085-0.196-0.175-0.281-0.24l-0.144-0.138c-0.186-0.167-0.283-0.306-0.389-0.408c-0.21-0.213-0.369-0.396-0.544-0.5
	l-0.489-0.318c-0.316-0.201-0.619-0.389-0.937-0.409c-0.315-0.026-0.636,0.091-0.957,0.286c-0.16,0.096-0.319,0.216-0.481,0.368
	c-0.159,0.129-0.32,0.302-0.481,0.498c-0.16,0.181-0.322,0.414-0.484,0.675c-0.065,0.119-0.13,0.227-0.193,0.337
	c-1.358-0.528-2.723-1.039-4.064-1.61c-1.349-0.567-2.71-1.102-4.046-1.701c-2.688-1.159-5.354-2.38-8.021-3.596
	c-2.671-1.206-5.324-2.458-8.009-3.627c-1.343-0.585-2.678-1.188-4.031-1.742l-4.052-1.688l-0.41-0.171l-0.613-0.001
	c-6.425-0.005-12.717,1.085-18.784,2.74c-6.064,1.696-11.872,4.106-17.402,7.006c-1.379,0.732-2.739,1.502-4.071,2.319
	c-1.325,0.829-2.623,1.705-3.907,2.599c-2.543,1.832-4.989,3.805-7.253,6.043c-1.13,1.142-2.235,2.244-3.144,3.855
	c-0.11,0.213-0.216,0.443-0.295,0.734c-0.07,0.28-0.153,0.652-0.003,1.11c0.123,0.473,0.558,0.8,0.859,0.924
	c0.311,0.125,0.596,0.172,0.83,0.175c0.964,0.027,1.714-0.201,2.489-0.388c1.521-0.422,2.958-0.957,4.39-1.507
	c1.425-0.556,2.839-1.121,4.247-1.701c1.491-0.528,2.979-1.078,4.493-1.536c1.528-0.39,3.053-0.771,4.59-1.09l4.678-0.725
	l4.714-0.442l4.717-0.309c1.562-0.139,3.147-0.144,4.708-0.272l4.692-0.327l4.684-0.398c1.563-0.129,3.118-0.32,4.683-0.464
	c0.961-0.095,1.921-0.206,2.882-0.321c-0.289,0.102-0.578,0.202-0.865,0.308c-1.808,0.633-3.566,1.391-5.31,2.179l-2.577,1.262
	c-0.844,0.448-1.677,0.916-2.51,1.385c-1.647,0.965-3.263,1.986-4.803,3.106c-0.783,0.544-1.543,1.116-2.282,1.716
	c-0.751,0.583-1.493,1.177-2.196,1.816c-1.433,1.245-2.829,2.526-4.147,3.882c-1.329,1.345-2.613,2.728-3.847,4.147
	c-0.619,0.708-1.232,1.419-1.823,2.148c-0.609,0.713-1.201,1.439-1.78,2.176c-1.166,1.465-2.292,2.955-3.412,4.446
	c-1.108,1.5-2.199,3.011-3.259,4.544c-1.06,1.542-2.094,3.065-3.088,4.7l-1.899,3.128l3.196-1.878l2.748-1.614l2.805-1.527
	c1.873-1.009,3.775-1.97,5.692-2.883c1.918-0.918,3.853-1.794,5.803-2.604c1.936-0.869,3.91-1.549,5.858-2.287
	c0.975-0.343,1.95-0.566,2.911-0.871l0.72-0.219l0.33-0.099l0.392-0.087l1.565-0.351l6.21-1.359
	c2.097-0.441,4.196-0.964,6.305-1.476c2.099-0.543,4.206-1.099,6.292-1.715c2.07-0.661,4.173-1.253,6.211-2.002
	c2.049-0.723,4.12-1.404,6.114-2.252c2.019-0.822,4.007-1.593,6.024-2.522c1.898-0.854,3.989-1.884,5.906-2.926
	c1.932-1.046,3.844-2.211,5.597-3.255c0.879-0.534,1.688-0.964,2.454-1.315c0.76-0.277,1.474-0.529,2.335-0.595
	c1.693-0.179,3.733-0.039,5.784,0.167l3.116,0.377c1.048,0.151,2.097,0.297,3.15,0.428l1.175-4.142L324.589,344.271z
	 M308.867,338.369c0.027-0.021,0.029-0.019,0.046-0.029c0.051-0.028,0.104-0.054,0.158-0.075c0.051-0.02,0.114-0.041,0.156-0.048
	l0.052,0.013c0.033,0.011,0.066,0.023,0.098,0.038l0.022,0.065c0.043,0.097-0.011,0.165-0.033,0.253
	c-0.156,0.32-0.443,0.452-0.731,0.302c-0.043-0.019-0.088-0.063-0.133-0.1c0.013-0.021,0.024-0.042,0.038-0.065
	c0.062-0.092,0.133-0.178,0.21-0.251C308.788,338.435,308.827,338.4,308.867,338.369z M219.202,349.812
	c-0.022-0.013-0.048-0.026-0.059-0.035C219.129,349.747,219.162,349.772,219.202,349.812z M271.896,337.083
	c-1.597,0.055-3.191,0.194-4.783,0.34c-1.593,0.126-3.182,0.331-4.766,0.568c-1.585,0.227-3.165,0.481-4.736,0.82
	c-1.572,0.329-3.139,0.658-4.695,1.079c-1.558,0.4-3.106,0.824-4.648,1.277l-4.6,1.423l-4.557,1.507
	c-1.513,0.532-3.017,1.075-4.529,1.569c-1.484,0.56-2.959,1.131-4.449,1.667l-0.01,0.004c-1.416,0.548-2.84,1.076-4.289,1.518
	c-1.445,0.441-2.919,0.822-4.382,1.017c-0.713,0.1-1.485,0.139-2.041,0.014c-0.021-0.003-0.034-0.011-0.053-0.016
	c0.041-0.072,0.099-0.183,0.187-0.278c0.359-0.462,0.921-0.924,1.479-1.355c0.564-0.435,1.174-0.844,1.791-1.239
	c2.5-1.56,5.181-2.901,7.87-4.18c1.336-0.657,2.693-1.271,4.051-1.882l4.068-1.824c5.43-2.404,10.977-4.514,16.597-6.26
	c2.805-0.891,5.643-1.654,8.503-2.238c2.723-0.576,5.469-0.971,8.214-1.158l3.549,1.181c1.385,0.471,2.788,0.892,4.185,1.331
	c2.793,0.88,5.617,1.677,8.424,2.52c2.811,0.833,5.622,1.661,8.411,2.551c0.867,0.263,1.725,0.55,2.581,0.839l-3.444-0.135
	c-1.59-0.072-3.18-0.137-4.771-0.243c-1.592-0.072-3.185-0.15-4.779-0.25l-4.789-0.204c-1.598-0.064-3.193-0.048-4.793-0.075
	C275.089,336.953,273.492,337.022,271.896,337.083z M312.512,344.345c-1.218,0.441-2.326,0.957-3.313,1.464
	c-1.984,1.024-3.76,2.021-5.634,2.917c-1.866,0.939-3.635,1.746-5.644,2.617c-1.863,0.858-3.875,1.597-5.791,2.436
	c-1.933,0.84-3.897,1.563-5.845,2.349c-1.942,0.806-3.935,1.447-5.904,2.167c-1.979,0.696-3.976,1.331-5.983,1.961
	c-2.014,0.608-4.04,1.193-6.091,1.776c-2.021,0.605-4.198,1.157-6.196,1.845l-1.524,0.497l-0.381,0.125
	c-0.194,0.063-0.281,0.109-0.426,0.165l-0.789,0.32c-1.04,0.439-2.107,0.856-3.1,1.341c-1.946,1.018-3.918,1.982-5.768,3.098
	c-0.936,0.546-1.884,1.069-2.807,1.627l-2.759,1.682c-1.852,1.096-3.648,2.273-5.49,3.373l-2.006,1.244
	c0.268-0.387,0.525-0.78,0.801-1.158c1.076-1.474,2.211-2.906,3.403-4.29c1.198-1.377,2.438-2.719,3.746-3.989
	c1.288-1.29,2.628-2.525,4.011-3.704c1.373-1.188,2.779-2.333,4.216-3.43c1.442-1.089,2.871-2.183,4.359-3.189
	c0.734-0.517,1.474-1.023,2.223-1.513c0.744-0.497,1.48-1.003,2.243-1.468c1.495-0.976,3.029-1.878,4.558-2.788l2.321-1.313
	l2.364-1.227c1.601-0.765,3.191-1.563,4.845-2.21c1.623-0.727,3.308-1.292,4.982-1.893l2.544-0.811l2.578-0.711
	c0.857-0.258,1.733-0.431,2.608-0.617c0.874-0.18,1.757-0.398,2.625-0.522l2.626-0.458l2.751-0.313l5.514-0.681
	c0.979-0.131,1.957-0.267,2.935-0.41l0.041,0.188c0.089,0.411,0.224,0.698,0.379,0.932c0.155,0.232,0.339,0.392,0.55,0.474
	c0.108,0.037,0.235,0.02,0.376-0.03c0.068-0.021,0.144-0.062,0.224-0.113c0.029-0.019,0.059-0.037,0.087-0.054
	c0.222,0.182,0.443,0.317,0.669,0.34c0.263,0.034,0.54-0.097,0.802-0.227c0.131-0.066,0.257-0.127,0.377-0.197
	c0.111-0.058,0.24-0.192,0.313-0.336c0.037-0.07,0.08-0.171,0.03-0.287c-0.016-0.032-0.029-0.064-0.041-0.098
	c-0.053-0.05-0.134-0.12-0.187-0.188l-0.041-0.053c-0.032-0.027-0.063-0.062-0.096-0.094c0.017-0.014,0.031-0.038,0.048-0.049
	c0.028-0.021,0.059-0.028,0.087-0.044c1.324,0.672,2.648,1.34,3.982,1.986l2.034,0.967
	C314.127,343.896,313.299,344.098,312.512,344.345z"/>
<path fill="#65B458" d="M262.171,389.286c6.547-2.745,20.854-11.722,31.222-12.61s2.861-5.464,17.86,1.172
	s35.613,2.766,44.291,0.914c8.679-1.85,11.759-2.323,12.968-4.34c1.21-2.017,3.88-0.954,11.467,4.85s11.592,7.398,4.126,10.612
	c-7.465,3.214-3.786,0.967-17.927,1.523c-14.14,0.558-13.663-3.997-24.009,0.752c-10.347,4.749-6.827,1.253-15.282,3.893
	c-8.455,2.639,4.2,2.236-11.602,0.986s-1.825-3.729-15.802-1.25c-13.977,2.478-14.876,7.068-23.58,3.294
	S252.114,393.504,262.171,389.286z"/>
<polygon fill="#333130" points="-13.545,294.743 -13.545,229.079 -19.897,229.079 -16.721,299.449 "/>
<g transform="matrix(0.1,0,0,-0.1,0,362)">
	<path fill="#FFFFFF" d="M188.306,1226.846c-5.571-1.357-17.324-3.76-26.084-5.322c-22.3-3.945-25.859-5.186-35.908-12.344
		c-14.243-10.186-24.473-30.205-24.746-48.555c-0.068-6.982,0.874-11.982,2.065-10.703c0.303,0.352,1.299,2.334,2.173,4.395
		c4.414,10.098,16.968,25.371,27.583,33.545c5.415,4.189,16.23,8.203,16.182,5.996c-0.015-0.762-3.779-5.273-8.208-9.746
		c-4.18-4.297-5.601-6.055-13.496-17.051c-8.193-11.553-18.975-32.256-26.328-50.742c-7.134-17.949-12.393-32.256-15.923-42.988
		c-5.962-18.379-11.304-32.881-12.207-33.154c-1.108-0.391-3.97,9.561-9.858,34.267c-9.16,38.691-13.14,51.992-22.773,76.279
		c-6.616,16.533-15.498,29.863-33.667,50.361c-9.961,11.348-24.229,22.285-32.891,25.371c-5.635,2.041-6.152,1.074-1.948-3.77
		c19.785-23.174,31.157-40.283,43.096-64.551c10.049-20.625,16.86-41.055,29.053-87.822c3.096-11.982,9.849-42.441,11.978-54.248
		c2.388-13.135,5.044-25.996,5.762-28.027c0.264-0.615,1.289-1.484,2.319-1.777c2.339-0.664,13.696-0.879,16.128-0.303
		c3.628,0.967,4.375,3.799,9.98,36.357c3.75,22.041,6.846,35.195,12.905,54.824c10.269,33.467,20.981,57.91,27.295,61.807
		c0.903,0.527,5.361,1.553,10.02,2.236c18.057,2.627,32.676,10.313,43.164,22.783c7.017,8.311,8.936,14.521,11.064,35.244
		c1.113,10.986,1.729,14.092,3.936,20.625c1.392,4.277,2.363,8.125,2.241,8.613C200.742,1229.707,199.634,1229.59,188.306,1226.846z
		"/>
</g>
</svg>
