<?xml version="1.0" encoding="utf-8"?>
<!-- Generator: Adobe Illustrator 16.0.0, SVG Export Plug-In . SVG Version: 6.00 Build 0)  -->
<!DOCTYPE svg PUBLIC "-//W3C//DTD SVG 1.1//EN" "http://www.w3.org/Graphics/SVG/1.1/DTD/svg11.dtd">
<svg version="1.1" id="Layer_1" xmlns="http://www.w3.org/2000/svg" xmlns:xlink="http://www.w3.org/1999/xlink" x="0px" y="0px"
	 width="43.731px" height="43.723px" viewBox="0 0 43.731 43.723" enable-background="new 0 0 43.731 43.723" xml:space="preserve">
<path fill="#FFFFFF" d="M41.325,30.909c1.366-2.893,2.058-5.985,2.058-9.199c0-11.947-9.72-21.667-21.668-21.667
	c-11.949,0-21.67,9.72-21.67,21.667c0,11.947,9.721,21.668,21.67,21.668c3.227,0,6.33-0.697,9.231-2.074l12.786,2.418L41.325,30.909
	z M39.175,39.161l-8.759-1.653l-0.554,0.28c-2.548,1.298-5.288,1.957-8.148,1.957c-2.793,0-5.438-0.638-7.8-1.777
	c1.528-4.657,3.015-7.893,3.999-8.524c0.179-0.109,1.053-0.328,1.971-0.479c3.564-0.588,6.427-2.167,8.455-4.672
	c1.356-1.674,1.713-2.904,2.056-7.016c0.178-2.179,0.288-2.793,0.699-4.097c0.261-0.849,0.438-1.614,0.412-1.711
	c-0.097-0.247-0.316-0.217-2.548,0.372c-1.097,0.287-3.413,0.807-5.138,1.149c-4.399,0.863-5.098,1.123-7.057,2.577
	c-2.781,2.067-4.728,6.069-4.713,9.699c0.013,1.384,0.219,2.371,0.452,2.112c0.056-0.069,0.248-0.467,0.411-0.876
	c0.835-2.016,3.261-5.086,5.329-6.743c1.056-0.85,3.18-1.685,3.18-1.247c0,0.152-0.726,1.056-1.59,1.961
	c-0.809,0.862-1.082,1.22-2.602,3.424c-1.575,2.317-3.631,6.455-5.016,10.139c-0.317,0.849-0.609,1.64-0.887,2.406
	c-4.621-3.27-7.646-8.649-7.646-14.728c0-9.944,8.09-18.033,18.035-18.033c9.943,0,18.033,8.089,18.033,18.033
	c0,2.848-0.651,5.578-1.939,8.121l-0.279,0.55L39.175,39.161z"/>
</svg>
