<?xml version="1.0" encoding="utf-8"?>
<!-- Generator: Adobe Illustrator 16.0.0, SVG Export Plug-In . SVG Version: 6.00 Build 0)  -->
<!DOCTYPE svg PUBLIC "-//W3C//DTD SVG 1.1//EN" "http://www.w3.org/Graphics/SVG/1.1/DTD/svg11.dtd">
<svg version="1.1" id="Layer_1" xmlns="http://www.w3.org/2000/svg" xmlns:xlink="http://www.w3.org/1999/xlink" x="0px" y="0px"
	 width="192.819px" height="43.723px" viewBox="-13.242 6.899 192.819 43.723"
	 enable-background="new -13.242 6.899 192.819 43.723" xml:space="preserve">
<g>
	<path fill="#383125" d="M51.628,26.114h6.077L47.064,47.572h-6.4l-1.526-21.458h5.607l0.397,11.757v0.749
		c0,1.408-0.079,2.662-0.236,3.759h0.117c0.137-0.628,0.355-1.398,0.654-2.313c0.298-0.913,0.57-1.626,0.814-2.135L51.628,26.114z"
		/>
	<path fill="#383125" d="M67.211,47.572h-12.74l4.535-21.458h12.741l-0.954,4.653h-7.001l-0.69,3.376h6.517l-1.057,4.651h-6.517
		l-0.837,4.053h7.001L67.211,47.572z"/>
	<path fill="#383125" d="M80.107,35.009h8.954L86.61,46.678c-2.446,0.792-4.996,1.188-7.647,1.188c-2.554,0-4.535-0.742-5.945-2.23
		c-1.409-1.486-2.113-3.598-2.113-6.326c0-2.613,0.538-4.971,1.614-7.076c1.076-2.104,2.551-3.703,4.426-4.805
		c1.874-1.103,4.053-1.652,6.538-1.652c2.604,0,4.795,0.523,6.576,1.572l-2.157,4.534c-1.498-0.88-2.995-1.323-4.492-1.323
		c-1.291,0-2.434,0.357-3.428,1.066c-0.993,0.709-1.785,1.759-2.377,3.147c-0.591,1.388-0.888,2.872-0.888,4.447
		c0,2.585,1.022,3.877,3.067,3.877c0.617,0,1.268-0.069,1.953-0.206l0.749-3.407h-3.361L80.107,35.009z"/>
	<path fill="#383125" d="M102.031,25.776c2.545,0,4.522,0.727,5.936,2.18c1.416,1.453,2.122,3.482,2.122,6.084
		c0,2.604-0.486,4.983-1.459,7.14c-0.974,2.16-2.318,3.813-4.029,4.964c-1.712,1.149-3.698,1.724-5.959,1.724
		c-2.634,0-4.667-0.729-6.099-2.187c-1.435-1.458-2.152-3.483-2.152-6.077c0-2.593,0.506-4.977,1.513-7.147
		c1.008-2.173,2.381-3.83,4.118-4.969C97.758,26.347,99.76,25.776,102.031,25.776z M104.292,34.098c0-1.115-0.235-1.988-0.704-2.62
		c-0.47-0.63-1.149-0.946-2.04-0.946c-0.969,0-1.86,0.412-2.673,1.232c-0.812,0.822-1.459,1.953-1.945,3.392
		c-0.482,1.438-0.726,2.911-0.726,4.418c0,2.368,0.979,3.552,2.936,3.552c0.93,0,1.793-0.405,2.591-1.218s1.424-1.907,1.878-3.288
		C104.063,37.24,104.292,35.732,104.292,34.098z"/>
	<path fill="#383125" d="M124.432,41.276c0,2.174-0.718,3.863-2.158,5.072c-1.438,1.208-3.444,1.813-6.018,1.813
		c-1.077,0-2.095-0.119-3.054-0.359c-0.959-0.239-1.785-0.59-2.481-1.05v-5.137c0.823,0.518,1.765,0.954,2.826,1.306
		c1.063,0.354,2.024,0.529,2.884,0.529c0.725,0,1.273-0.152,1.646-0.456c0.371-0.302,0.557-0.734,0.557-1.291
		c0-0.264-0.059-0.512-0.178-0.742c-0.115-0.229-0.282-0.46-0.497-0.688c-0.215-0.23-0.793-0.736-1.73-1.521
		c-1.146-0.921-1.979-1.859-2.497-2.817c-0.519-0.959-0.777-2.012-0.777-3.156c0-1.281,0.32-2.436,0.961-3.457
		c0.642-1.021,1.546-1.815,2.715-2.378c1.17-0.563,2.479-0.843,3.928-0.843c2.338,0,4.443,0.523,6.313,1.571l-1.982,4.358
		c-1.673-0.861-3.098-1.291-4.271-1.291c-0.626,0-1.109,0.138-1.446,0.411c-0.338,0.272-0.506,0.673-0.506,1.202
		c0,0.48,0.163,0.928,0.49,1.344c0.33,0.416,0.953,0.973,1.873,1.666c1.155,0.852,2.009,1.746,2.568,2.686
		C124.153,38.986,124.432,40.063,124.432,41.276z"/>
	<path fill="#383125" d="M139.75,26.407h6.075l-10.642,21.46h-6.397l-1.528-21.46h5.608l0.396,11.759v0.748
		c0,1.407-0.077,2.661-0.234,3.758h0.118c0.137-0.625,0.354-1.397,0.652-2.313c0.3-0.913,0.57-1.625,0.815-2.134L139.75,26.407z"/>
	<path fill="#383125" d="M154.324,43.847h-6.576l-1.834,4.021h-5.961l10.922-21.46h7.382l1.806,21.46h-5.593L154.324,43.847z
		 M149.847,39.266h4.3l-0.251-6.223l-0.027-1.264c0-0.733,0.02-1.374,0.059-1.923c-0.235,0.841-0.534,1.654-0.896,2.437
		L149.847,39.266z"/>
	<path fill="#383125" d="M168.422,40.059l-1.657,7.81h-5.739l4.535-21.462h5.681c2.466,0,4.354,0.489,5.666,1.469
		c1.312,0.979,1.966,2.453,1.966,4.418c0,1.526-0.347,2.857-1.042,3.992c-0.693,1.135-1.727,2.001-3.097,2.598l3.287,7.573
		l0.588,1.412h-6.253l-2.862-7.81H168.422z M169.347,35.699h0.75c0.93,0,1.668-0.267,2.215-0.8c0.548-0.533,0.823-1.279,0.823-2.238
		c0-0.606-0.169-1.068-0.508-1.388c-0.336-0.318-0.828-0.476-1.475-0.476h-0.777L169.347,35.699z"/>
</g>
<path fill="#383125" d="M29.095,37.795c1.367-2.896,2.059-5.991,2.059-9.208c0-11.959-9.73-21.688-21.69-21.688
	c-11.961,0-21.692,9.729-21.692,21.688s9.731,21.689,21.692,21.689c3.231,0,6.336-0.698,9.24-2.076l12.798,2.421L29.095,37.795z
	 M26.942,46.055L18.174,44.4l-0.554,0.28c-2.551,1.299-5.293,1.959-8.157,1.959c-2.795,0-5.443-0.639-7.808-1.779
	c1.53-4.661,3.019-7.9,4.003-8.532C5.837,36.218,6.713,36,7.632,35.848c3.567-0.589,6.433-2.169,8.463-4.677
	c1.357-1.676,1.715-2.907,2.058-7.023c0.178-2.181,0.288-2.796,0.699-4.101c0.261-0.85,0.439-1.616,0.413-1.713
	c-0.097-0.248-0.317-0.218-2.551,0.372c-1.098,0.288-3.417,0.808-5.144,1.15c-4.403,0.864-5.103,1.125-7.064,2.58
	c-2.784,2.069-4.732,6.075-4.718,9.709c0.014,1.385,0.22,2.373,0.453,2.113c0.056-0.068,0.248-0.467,0.412-0.877
	c0.835-2.018,3.264-5.091,5.334-6.75c1.057-0.851,3.183-1.687,3.183-1.248c0,0.152-0.727,1.057-1.591,1.963
	c-0.81,0.862-1.083,1.221-2.605,3.427c-1.577,2.32-3.635,6.461-5.021,10.149c-0.318,0.85-0.609,1.642-0.888,2.408
	c-4.625-3.273-7.654-8.658-7.654-14.742c0-9.953,8.098-18.051,18.053-18.051c9.954,0,18.051,8.098,18.051,18.051
	c0,2.851-0.653,5.584-1.942,8.129l-0.279,0.551L26.942,46.055z"/>
<g>
	<path fill="#383125" d="M46.508,12.795c0,1.125-0.227,2.118-0.679,2.98c-0.453,0.862-1.099,1.526-1.939,1.991
		c-0.84,0.465-1.825,0.698-2.955,0.698H38.66l1.998-9.452h2.211c1.189,0,2.093,0.322,2.711,0.966
		C46.199,10.624,46.508,11.563,46.508,12.795z M41.006,17.514c0.871,0,1.636-0.198,2.295-0.591c0.66-0.395,1.165-0.952,1.516-1.671
		c0.352-0.72,0.527-1.543,0.527-2.469c0-0.927-0.222-1.628-0.666-2.104s-1.095-0.715-1.953-0.715h-1.15l-1.616,7.551H41.006z"/>
	<path fill="#383125" d="M50.102,18.593c-0.793,0-1.416-0.235-1.869-0.704c-0.452-0.47-0.678-1.121-0.678-1.953
		c0-0.81,0.161-1.587,0.481-2.331c0.321-0.743,0.746-1.321,1.277-1.735c0.53-0.414,1.114-0.621,1.752-0.621
		c0.659,0,1.155,0.144,1.487,0.43c0.332,0.287,0.498,0.687,0.498,1.2c0,0.775-0.357,1.384-1.073,1.826
		c-0.716,0.442-1.739,0.663-3.071,0.663h-0.213l-0.026,0.517c0,0.564,0.132,1.005,0.397,1.322c0.265,0.317,0.675,0.475,1.231,0.475
		c0.272,0,0.55-0.039,0.837-0.116c0.286-0.078,0.644-0.22,1.07-0.427v0.943c-0.405,0.19-0.763,0.322-1.073,0.398
		S50.477,18.593,50.102,18.593z M51,12.174c-0.444,0-0.861,0.203-1.25,0.608c-0.391,0.405-0.689,0.967-0.896,1.687h0.078
		c0.982,0,1.735-0.128,2.259-0.385c0.523-0.256,0.786-0.628,0.786-1.115c0-0.229-0.079-0.418-0.236-0.569
		C51.583,12.25,51.337,12.174,51,12.174z"/>
	<path fill="#383125" d="M58.203,16.454c0,0.672-0.238,1.197-0.714,1.574c-0.476,0.377-1.147,0.565-2.013,0.565
		c-0.729,0-1.386-0.148-1.972-0.446v-1.021c0.302,0.181,0.626,0.321,0.976,0.42s0.673,0.148,0.97,0.148
		c0.543,0,0.952-0.108,1.229-0.323c0.275-0.216,0.413-0.492,0.413-0.828c0-0.245-0.075-0.452-0.226-0.621
		c-0.151-0.168-0.476-0.398-0.977-0.691c-0.56-0.315-0.957-0.623-1.189-0.925c-0.232-0.301-0.349-0.659-0.349-1.073
		c0-0.594,0.218-1.074,0.653-1.438c0.435-0.364,1.008-0.546,1.72-0.546c0.737,0,1.448,0.16,2.133,0.479l-0.35,0.886l-0.362-0.162
		c-0.435-0.185-0.909-0.278-1.422-0.278c-0.401,0-0.715,0.094-0.944,0.281c-0.229,0.188-0.342,0.43-0.342,0.728
		c0,0.241,0.077,0.448,0.229,0.621c0.153,0.172,0.469,0.394,0.948,0.666c0.46,0.258,0.792,0.48,0.992,0.666
		c0.2,0.185,0.35,0.385,0.449,0.598C58.153,15.947,58.203,16.187,58.203,16.454z"/>
	<path fill="#383125" d="M60.588,18.464h-1.086l1.512-7.085h1.086L60.588,18.464z M61.318,9.569c0-0.241,0.069-0.439,0.207-0.591
		c0.139-0.154,0.317-0.229,0.537-0.229c0.379,0,0.569,0.194,0.569,0.582c0,0.237-0.072,0.438-0.216,0.601
		c-0.145,0.164-0.312,0.246-0.501,0.246c-0.173,0-0.315-0.053-0.427-0.158C61.375,9.913,61.318,9.763,61.318,9.569z"/>
	<path fill="#383125" d="M69.593,11.379l-0.162,0.692l-1.364,0.155c0.177,0.268,0.265,0.608,0.265,1.021
		c0,0.823-0.25,1.479-0.753,1.969c-0.502,0.489-1.174,0.734-2.014,0.734c-0.237,0-0.418-0.017-0.543-0.052
		c-0.599,0.228-0.898,0.51-0.898,0.846c0,0.178,0.071,0.294,0.213,0.354c0.143,0.058,0.349,0.104,0.621,0.138l0.756,0.091
		c0.78,0.095,1.346,0.285,1.697,0.568c0.351,0.285,0.527,0.703,0.527,1.255c0,0.792-0.315,1.407-0.944,1.842
		c-0.628,0.436-1.515,0.653-2.657,0.653c-0.836,0-1.491-0.159-1.965-0.475c-0.474-0.317-0.711-0.764-0.711-1.342
		c0-0.452,0.155-0.845,0.465-1.176c0.31-0.332,0.813-0.614,1.507-0.847c-0.337-0.176-0.505-0.437-0.505-0.782
		c0-0.297,0.11-0.553,0.33-0.766c0.22-0.213,0.526-0.413,0.917-0.598c-0.271-0.138-0.494-0.342-0.666-0.611
		c-0.173-0.269-0.258-0.583-0.258-0.94c0-0.836,0.257-1.521,0.772-2.056c0.515-0.534,1.173-0.802,1.975-0.802
		c0.336,0,0.668,0.043,0.996,0.129H69.593z M62.708,19.725c0,0.332,0.14,0.595,0.42,0.789c0.28,0.194,0.696,0.291,1.248,0.291
		c0.785,0,1.398-0.136,1.839-0.41c0.442-0.274,0.663-0.661,0.663-1.161c0-0.267-0.116-0.479-0.349-0.633
		c-0.233-0.155-0.629-0.263-1.189-0.323l-1.028-0.104c-0.517,0.108-0.914,0.297-1.189,0.568
		C62.847,19.014,62.708,19.341,62.708,19.725z M64.506,14.068c0,0.366,0.097,0.646,0.291,0.837c0.194,0.192,0.463,0.288,0.808,0.288
		c0.34,0,0.638-0.09,0.892-0.271s0.45-0.43,0.585-0.747c0.135-0.317,0.203-0.661,0.203-1.032c0-0.354-0.095-0.623-0.284-0.808
		c-0.19-0.186-0.462-0.278-0.815-0.278c-0.336,0-0.63,0.087-0.883,0.262c-0.251,0.175-0.448,0.418-0.588,0.73
		C64.576,13.362,64.506,13.702,64.506,14.068z"/>
	<path fill="#383125" d="M73.828,18.464l0.957-4.474c0.086-0.449,0.129-0.759,0.129-0.931c0-0.271-0.076-0.489-0.23-0.653
		c-0.152-0.164-0.397-0.246-0.733-0.246c-0.384,0-0.757,0.129-1.122,0.388s-0.685,0.627-0.963,1.105
		c-0.278,0.479-0.488,1.058-0.63,1.739l-0.653,3.071h-1.086l1.513-7.085h0.899l-0.142,1.313h0.064
		c0.414-0.526,0.814-0.897,1.2-1.115s0.785-0.327,1.199-0.327c0.547,0,0.979,0.149,1.296,0.449c0.317,0.3,0.475,0.719,0.475,1.258
		c0,0.34-0.049,0.728-0.148,1.163l-0.924,4.345H73.828z"/>
	<path fill="#383125" d="M80.887,11.25c0.397,0,0.75,0.107,1.061,0.32c0.31,0.213,0.551,0.521,0.724,0.922h0.071l0.433-1.112h0.821
		l-1.506,7.085h-0.86l0.167-1.351h-0.052c-0.771,0.986-1.583,1.48-2.437,1.48c-0.599,0-1.068-0.213-1.409-0.64
		c-0.34-0.427-0.511-1.011-0.511-1.751c0-0.896,0.153-1.729,0.458-2.496c0.306-0.768,0.729-1.369,1.268-1.804
		C79.655,11.467,80.245,11.25,80.887,11.25z M79.659,17.695c0.418,0,0.835-0.199,1.248-0.597c0.414-0.399,0.75-0.919,1.009-1.559
		c0.258-0.64,0.388-1.281,0.388-1.923c0-0.444-0.121-0.797-0.362-1.06c-0.241-0.263-0.558-0.395-0.95-0.395
		c-0.448,0-0.865,0.186-1.25,0.556c-0.386,0.37-0.689,0.873-0.909,1.506c-0.22,0.633-0.33,1.302-0.33,2.004
		c0,0.491,0.102,0.859,0.304,1.102S79.293,17.695,79.659,17.695z"/>
	<path fill="#383125" d="M88.367,11.263c0.836,0,1.442,0.409,1.817,1.229h0.065c0.073-0.668,0.17-1.259,0.291-1.771l0.504-2.314
		h1.073l-2.134,10.059h-0.898l0.143-1.351h-0.052c-0.436,0.539-0.843,0.92-1.223,1.144c-0.378,0.224-0.771,0.336-1.176,0.336
		c-0.6,0-1.067-0.21-1.403-0.633c-0.336-0.422-0.504-1.008-0.504-1.758c0-0.923,0.155-1.768,0.465-2.535
		c0.31-0.768,0.729-1.36,1.257-1.778C87.12,11.472,87.711,11.263,88.367,11.263z M87.139,17.695c0.405,0,0.823-0.202,1.254-0.604
		c0.431-0.403,0.773-0.917,1.025-1.544c0.252-0.628,0.378-1.267,0.378-1.917c0-0.479-0.117-0.843-0.349-1.093
		c-0.233-0.249-0.571-0.375-1.015-0.375c-0.435,0-0.839,0.178-1.212,0.533c-0.373,0.355-0.672,0.856-0.899,1.5
		c-0.226,0.644-0.339,1.322-0.339,2.033C85.981,17.206,86.367,17.695,87.139,17.695z"/>
	<path fill="#383125" d="M95.744,16.253c0-0.638,0.193-1.193,0.582-1.665c0.388-0.472,1.04-0.927,1.959-1.367
		c-0.444-0.711-0.666-1.377-0.666-1.998c0-0.707,0.228-1.277,0.685-1.71c0.457-0.434,1.063-0.649,1.816-0.649
		c0.643,0,1.152,0.17,1.529,0.511s0.565,0.797,0.565,1.37c0,0.336-0.07,0.632-0.209,0.886c-0.141,0.254-0.329,0.486-0.567,0.698
		c-0.235,0.212-0.512,0.405-0.822,0.582c-0.313,0.176-0.644,0.355-0.992,0.536l1.797,2.515c0.547-0.474,0.975-1.11,1.286-1.907
		h1.085c-0.435,1.018-1.045,1.905-1.829,2.664l1.313,1.746h-1.3l-0.756-1.073c-0.518,0.431-1.013,0.739-1.486,0.924
		c-0.475,0.185-1.007,0.277-1.598,0.277c-0.725,0-1.305-0.207-1.739-0.621C95.96,17.559,95.744,16.986,95.744,16.253z
		 M98.362,17.695c0.375,0,0.736-0.071,1.086-0.213c0.349-0.142,0.77-0.409,1.261-0.801l-1.979-2.799
		c-0.552,0.289-0.948,0.539-1.188,0.75c-0.242,0.211-0.427,0.443-0.554,0.695c-0.127,0.252-0.191,0.535-0.191,0.85
		c0,0.457,0.145,0.824,0.431,1.102C97.514,17.556,97.891,17.695,98.362,17.695z M100.082,9.75c-0.452,0-0.804,0.129-1.055,0.388
		c-0.25,0.259-0.375,0.625-0.375,1.099c0,0.517,0.178,1.024,0.531,1.52c0.6-0.306,1.01-0.543,1.233-0.711
		c0.225-0.168,0.403-0.352,0.537-0.55c0.134-0.198,0.2-0.422,0.2-0.672c0-0.331-0.091-0.594-0.273-0.785
		C100.697,9.845,100.431,9.75,100.082,9.75z"/>
	<path fill="#383125" d="M111.149,18.593c-0.418,0-0.785-0.11-1.102-0.33s-0.556-0.519-0.715-0.898h-0.065l-0.451,1.099h-0.809
		l2.134-10.059h1.087c-0.221,1.042-0.391,1.841-0.508,2.395c-0.119,0.554-0.282,1.201-0.49,1.943h0.06
		c0.401-0.508,0.796-0.883,1.186-1.122c0.391-0.239,0.792-0.358,1.206-0.358c0.608,0,1.082,0.213,1.422,0.64
		c0.342,0.426,0.511,1.013,0.511,1.758c0,0.9-0.147,1.733-0.442,2.499c-0.296,0.765-0.707,1.362-1.235,1.791
		C112.409,18.379,111.814,18.593,111.149,18.593z M112.352,12.161c-0.414,0-0.835,0.205-1.265,0.614
		c-0.429,0.41-0.769,0.925-1.021,1.545c-0.252,0.621-0.378,1.256-0.378,1.907c0,0.474,0.12,0.837,0.359,1.089
		c0.239,0.252,0.584,0.378,1.037,0.378c0.426,0,0.824-0.174,1.192-0.523c0.369-0.35,0.665-0.846,0.89-1.49
		c0.224-0.644,0.337-1.328,0.337-2.052C113.503,12.65,113.119,12.161,112.352,12.161z"/>
	<path fill="#383125" d="M118.448,18.593c-0.793,0-1.416-0.235-1.868-0.704c-0.453-0.47-0.679-1.121-0.679-1.953
		c0-0.81,0.161-1.587,0.481-2.331c0.321-0.743,0.747-1.321,1.277-1.735c0.529-0.414,1.114-0.621,1.752-0.621
		c0.659,0,1.155,0.144,1.486,0.43c0.332,0.287,0.498,0.687,0.498,1.2c0,0.775-0.357,1.384-1.073,1.826
		c-0.715,0.442-1.738,0.663-3.071,0.663h-0.214l-0.023,0.517c0,0.564,0.131,1.005,0.396,1.322c0.265,0.317,0.676,0.475,1.23,0.475
		c0.272,0,0.552-0.039,0.839-0.116c0.286-0.078,0.644-0.22,1.068-0.427v0.943c-0.405,0.19-0.763,0.322-1.072,0.398
		C119.166,18.556,118.823,18.593,118.448,18.593z M119.347,12.174c-0.444,0-0.861,0.203-1.252,0.608
		c-0.39,0.405-0.688,0.967-0.895,1.687h0.077c0.983,0,1.735-0.128,2.26-0.385c0.523-0.256,0.785-0.628,0.785-1.115
		c0-0.229-0.078-0.418-0.235-0.569C119.929,12.25,119.683,12.174,119.347,12.174z"/>
	<path fill="#383125" d="M126.658,11.25c0.297,0,0.556,0.031,0.775,0.091l-0.231,0.969c-0.229-0.056-0.454-0.084-0.679-0.084
		c-0.393,0-0.76,0.129-1.104,0.388c-0.342,0.258-0.642,0.617-0.897,1.076c-0.257,0.459-0.445,0.969-0.566,1.529l-0.691,3.245h-1.086
		l1.513-7.085h0.898l-0.142,1.313h0.064c0.311-0.41,0.566-0.704,0.77-0.882c0.202-0.179,0.415-0.317,0.637-0.414
		S126.386,11.25,126.658,11.25z"/>
	<path fill="#383125" d="M131.17,11.25c0.397,0,0.751,0.107,1.06,0.32c0.312,0.213,0.553,0.521,0.725,0.922h0.071l0.434-1.112h0.82
		l-1.506,7.085h-0.86l0.169-1.351h-0.052c-0.771,0.986-1.583,1.48-2.438,1.48c-0.599,0-1.069-0.213-1.409-0.64
		s-0.511-1.011-0.511-1.751c0-0.896,0.153-1.729,0.458-2.496c0.308-0.768,0.729-1.369,1.269-1.804
		C129.939,11.467,130.529,11.25,131.17,11.25z M129.943,17.695c0.418,0,0.834-0.199,1.248-0.597
		c0.413-0.399,0.748-0.919,1.008-1.559c0.259-0.64,0.388-1.281,0.388-1.923c0-0.444-0.12-0.797-0.362-1.06
		c-0.241-0.263-0.558-0.395-0.95-0.395c-0.448,0-0.865,0.186-1.251,0.556c-0.385,0.37-0.688,0.873-0.908,1.506
		s-0.329,1.302-0.329,2.004c0,0.491,0.102,0.859,0.304,1.102S129.576,17.695,129.943,17.695z M129.975,9.556
		c0-0.198,0.06-0.37,0.181-0.514c0.12-0.144,0.279-0.216,0.479-0.216c0.336,0,0.505,0.172,0.505,0.518
		c0,0.211-0.064,0.39-0.192,0.536c-0.126,0.146-0.273,0.22-0.442,0.22c-0.15,0-0.275-0.047-0.377-0.142
		C130.025,9.862,129.975,9.729,129.975,9.556z M132.328,9.556c0-0.198,0.061-0.37,0.182-0.514c0.12-0.144,0.282-0.216,0.484-0.216
		c0.331,0,0.498,0.172,0.498,0.518c0,0.211-0.063,0.39-0.19,0.536c-0.128,0.146-0.275,0.22-0.442,0.22
		c-0.152,0-0.278-0.047-0.379-0.142C132.378,9.862,132.328,9.729,132.328,9.556z"/>
	<path fill="#383125" d="M137.073,17.708c0.236,0,0.547-0.056,0.931-0.168v0.833c-0.147,0.061-0.328,0.112-0.544,0.155
		s-0.387,0.064-0.517,0.064c-0.539,0-0.951-0.128-1.238-0.384c-0.286-0.257-0.429-0.639-0.429-1.147
		c0-0.284,0.038-0.608,0.115-0.969l0.821-3.893H135.1l0.091-0.472l1.195-0.504l0.81-1.474h0.632l-0.354,1.629h1.771l-0.169,0.821
		h-1.765l-0.834,3.905c-0.077,0.375-0.116,0.66-0.116,0.854c0,0.241,0.063,0.427,0.187,0.556
		C136.673,17.643,136.849,17.708,137.073,17.708z"/>
	<path fill="#383125" d="M141.366,17.708c0.236,0,0.548-0.056,0.931-0.168v0.833c-0.147,0.061-0.327,0.112-0.542,0.155
		c-0.216,0.043-0.389,0.064-0.519,0.064c-0.538,0-0.951-0.128-1.237-0.384c-0.287-0.257-0.43-0.639-0.43-1.147
		c0-0.284,0.039-0.608,0.115-0.969l0.822-3.893h-1.112l0.091-0.472l1.195-0.504l0.809-1.474h0.633l-0.355,1.629h1.771L143.37,12.2
		h-1.765l-0.834,3.905c-0.077,0.375-0.115,0.66-0.115,0.854c0,0.241,0.061,0.427,0.187,0.556
		C140.966,17.643,141.142,17.708,141.366,17.708z"/>
	<path fill="#383125" d="M147.235,11.25c0.397,0,0.751,0.107,1.061,0.32c0.311,0.213,0.551,0.521,0.725,0.922h0.07l0.435-1.112
		h0.819l-1.506,7.085h-0.859l0.168-1.351h-0.052c-0.771,0.986-1.583,1.48-2.438,1.48c-0.599,0-1.069-0.213-1.408-0.64
		c-0.342-0.427-0.511-1.011-0.511-1.751c0-0.896,0.152-1.729,0.458-2.496c0.307-0.768,0.729-1.369,1.268-1.804
		C146.003,11.467,146.593,11.25,147.235,11.25z M146.007,17.695c0.418,0,0.834-0.199,1.248-0.597
		c0.413-0.399,0.749-0.919,1.008-1.559c0.259-0.64,0.388-1.281,0.388-1.923c0-0.444-0.12-0.797-0.362-1.06
		c-0.241-0.263-0.557-0.395-0.95-0.395c-0.448,0-0.864,0.186-1.251,0.556c-0.386,0.37-0.688,0.873-0.908,1.506
		c-0.22,0.633-0.329,1.302-0.329,2.004c0,0.491,0.102,0.859,0.303,1.102C145.356,17.573,145.641,17.695,146.007,17.695z"/>
	<path fill="#383125" d="M154.715,11.263c0.836,0,1.441,0.409,1.816,1.229h0.064c0.073-0.668,0.171-1.259,0.291-1.771l0.505-2.314
		h1.072l-2.132,10.059h-0.899l0.142-1.351h-0.052c-0.435,0.539-0.842,0.92-1.222,1.144c-0.379,0.224-0.771,0.336-1.177,0.336
		c-0.598,0-1.066-0.21-1.401-0.633c-0.337-0.422-0.505-1.008-0.505-1.758c0-0.923,0.155-1.768,0.465-2.535
		c0.311-0.768,0.729-1.36,1.258-1.778S154.061,11.263,154.715,11.263z M153.487,17.695c0.405,0,0.823-0.202,1.254-0.604
		s0.773-0.917,1.024-1.544c0.253-0.628,0.38-1.267,0.38-1.917c0-0.479-0.117-0.843-0.35-1.093c-0.232-0.249-0.571-0.375-1.016-0.375
		c-0.436,0-0.839,0.178-1.213,0.533c-0.371,0.355-0.672,0.856-0.897,1.5c-0.227,0.644-0.339,1.322-0.339,2.033
		C152.331,17.206,152.716,17.695,153.487,17.695z"/>
	<path fill="#383125" d="M165.795,11.25c0.397,0,0.751,0.107,1.06,0.32c0.312,0.213,0.552,0.521,0.725,0.922h0.071l0.434-1.112h0.82
		l-1.507,7.085h-0.859l0.169-1.351h-0.052c-0.771,0.986-1.583,1.48-2.438,1.48c-0.6,0-1.069-0.213-1.409-0.64
		s-0.511-1.011-0.511-1.751c0-0.896,0.153-1.729,0.458-2.496c0.308-0.768,0.729-1.369,1.269-1.804
		C164.564,11.467,165.154,11.25,165.795,11.25z M164.568,17.695c0.417,0,0.834-0.199,1.247-0.597
		c0.414-0.399,0.749-0.919,1.009-1.559c0.259-0.64,0.387-1.281,0.387-1.923c0-0.444-0.119-0.797-0.361-1.06
		c-0.241-0.263-0.558-0.395-0.95-0.395c-0.448,0-0.865,0.186-1.251,0.556c-0.385,0.37-0.688,0.873-0.908,1.506
		s-0.329,1.302-0.329,2.004c0,0.491,0.101,0.859,0.304,1.102C163.917,17.573,164.201,17.695,164.568,17.695z"/>
	<path fill="#383125" d="M170.585,18.464l-0.808-7.085h1.087l0.413,3.963c0.104,1.111,0.155,1.892,0.155,2.339h0.039
		c0.547-1.185,0.933-1.984,1.157-2.398l2.102-3.904h1.15l-3.821,7.085H170.585z"/>
</g>
</svg>
