<?xml version="1.0" encoding="utf-8"?>
<!-- Generator: Adobe Illustrator 16.0.0, SVG Export Plug-In . SVG Version: 6.00 Build 0)  -->
<!DOCTYPE svg PUBLIC "-//W3C//DTD SVG 1.1//EN" "http://www.w3.org/Graphics/SVG/1.1/DTD/svg11.dtd">
<svg version="1.1" id="Layer_1" xmlns="http://www.w3.org/2000/svg" xmlns:xlink="http://www.w3.org/1999/xlink" x="0px" y="0px"
	 width="179.577px" height="43.411px" viewBox="0 0 179.577 43.411" enable-background="new 0 0 179.577 43.411"
	 xml:space="preserve">
<g>
	<path d="M7.466,10.342c0,0.633-0.165,1.197-0.494,1.692s-0.78,0.868-1.353,1.119c-0.573,0.251-1.249,0.376-2.027,0.376
		c-0.442,0-0.875-0.042-1.3-0.128C1.868,13.316,1.437,13.171,1,12.965v-0.821c0.819,0.462,1.693,0.693,2.623,0.693
		c0.944,0,1.687-0.217,2.227-0.652c0.54-0.434,0.811-1.018,0.811-1.752c0-0.306-0.043-0.569-0.128-0.787
		C6.446,9.427,6.314,9.229,6.136,9.054S5.729,8.707,5.45,8.541C5.171,8.375,4.841,8.187,4.459,7.976
		C3.706,7.594,3.179,7.182,2.88,6.74C2.581,6.298,2.432,5.781,2.432,5.188S2.58,4.074,2.876,3.624
		C3.173,3.175,3.587,2.825,4.12,2.577c0.533-0.249,1.128-0.373,1.786-0.373c0.498,0,0.95,0.044,1.356,0.132
		c0.407,0.088,0.829,0.24,1.266,0.456L8.287,3.5C7.956,3.299,7.575,3.141,7.146,3.025c-0.43-0.115-0.843-0.173-1.24-0.173
		c-0.819,0-1.471,0.208-1.956,0.622C3.465,3.888,3.223,4.437,3.223,5.12c0,0.518,0.123,0.944,0.369,1.281
		c0.246,0.337,0.704,0.671,1.372,1.002C5.737,7.8,6.274,8.127,6.573,8.383c0.299,0.256,0.522,0.54,0.671,0.852
		C7.392,9.546,7.466,9.916,7.466,10.342z"/>
	<path d="M10.442,9.785l4.589-4.597h0.942l-3.572,3.534l2.238,4.657h-0.798l-1.99-4.212l-1.545,1.417l-0.603,2.796H8.98
		l2.487-11.726h0.724L10.94,7.531l-0.528,2.253H10.442z"/>
	<path d="M20.458,5.06c1.166,0,1.866,0.55,2.103,1.65h0.045l0.445-1.522h0.603l-1.726,8.191h-0.618l0.339-2.065h-0.045
		c-0.422,0.713-0.892,1.261-1.409,1.643c-0.518,0.382-1.113,0.573-1.786,0.573c-1.412,0-2.118-0.939-2.118-2.818
		c0-0.99,0.188-1.934,0.565-2.833c0.376-0.899,0.88-1.594,1.511-2.083S19.694,5.06,20.458,5.06z M18.581,12.852
		c0.447,0,0.893-0.155,1.337-0.467c0.445-0.312,0.844-0.729,1.198-1.251c0.354-0.522,0.625-1.101,0.81-1.733
		c0.186-0.633,0.279-1.168,0.279-1.605c0-0.397-0.065-0.752-0.196-1.066c-0.13-0.314-0.324-0.563-0.58-0.746
		c-0.256-0.184-0.575-0.275-0.957-0.275c-0.623,0-1.186,0.206-1.688,0.618c-0.502,0.412-0.915,1.029-1.236,1.85
		c-0.322,0.821-0.482,1.639-0.482,2.453c0,0.764,0.125,1.325,0.377,1.684C17.694,12.672,18.074,12.852,18.581,12.852z"/>
	<path d="M27.813,13.5c-1.156,0-1.856-0.55-2.103-1.65h-0.03c-0.065,0.362-0.439,2.107-1.123,5.237h-0.746l2.532-11.899h0.618
		l-0.339,2.064h0.045c0.457-0.769,0.948-1.331,1.473-1.688c0.525-0.356,1.099-0.535,1.722-0.535c0.678,0,1.201,0.232,1.567,0.697
		s0.55,1.174,0.55,2.129c0,0.979-0.181,1.912-0.543,2.796c-0.361,0.884-0.858,1.58-1.488,2.087S28.606,13.5,27.813,13.5z
		 M29.696,5.708c-0.437,0-0.874,0.146-1.311,0.44s-0.843,0.715-1.217,1.263c-0.374,0.547-0.652,1.144-0.833,1.79
		c-0.181,0.646-0.271,1.169-0.271,1.571c0,0.628,0.155,1.131,0.463,1.511c0.309,0.379,0.732,0.569,1.27,0.569
		c0.623,0,1.188-0.211,1.696-0.633c0.507-0.422,0.919-1.034,1.236-1.835c0.316-0.801,0.475-1.619,0.475-2.453
		C31.204,6.449,30.701,5.708,29.696,5.708z"/>
	<path d="M37.654,5.06c1.166,0,1.866,0.55,2.103,1.65h0.045l0.445-1.522h0.603l-1.726,8.191h-0.618l0.339-2.065H38.8
		c-0.422,0.713-0.892,1.261-1.409,1.643c-0.518,0.382-1.113,0.573-1.786,0.573c-1.412,0-2.118-0.939-2.118-2.818
		c0-0.99,0.188-1.934,0.565-2.833c0.376-0.899,0.88-1.594,1.511-2.083S36.891,5.06,37.654,5.06z M35.778,12.852
		c0.447,0,0.893-0.155,1.337-0.467c0.445-0.312,0.844-0.729,1.198-1.251c0.354-0.522,0.625-1.101,0.81-1.733
		c0.186-0.633,0.279-1.168,0.279-1.605c0-0.397-0.065-0.752-0.196-1.066c-0.13-0.314-0.324-0.563-0.58-0.746
		c-0.256-0.184-0.575-0.275-0.957-0.275c-0.623,0-1.186,0.206-1.688,0.618c-0.502,0.412-0.915,1.029-1.236,1.85
		c-0.322,0.821-0.482,1.639-0.482,2.453c0,0.764,0.125,1.325,0.377,1.684C34.891,12.672,35.271,12.852,35.778,12.852z"/>
	<path d="M46.486,5.188l-0.136,0.61h-2.133l-1.017,4.785c-0.111,0.498-0.166,0.909-0.166,1.236c0,0.698,0.316,1.047,0.95,1.047
		c0.341,0,0.724-0.065,1.146-0.196v0.648c-0.508,0.141-0.935,0.211-1.281,0.211c-0.498,0-0.882-0.137-1.153-0.411
		c-0.271-0.273-0.407-0.672-0.407-1.194c0-0.367,0.073-0.884,0.219-1.552l0.972-4.574h-1.372l0.105-0.505L43.6,5.165l0.731-1.906
		h0.415l-0.415,1.929H46.486z"/>
	<path d="M54.844,5.06c1.166,0,1.866,0.55,2.103,1.65h0.045l0.445-1.522h0.603l-1.726,8.191h-0.618l0.339-2.065h-0.045
		c-0.422,0.713-0.892,1.261-1.409,1.643c-0.518,0.382-1.113,0.573-1.786,0.573c-1.412,0-2.118-0.939-2.118-2.818
		c0-0.99,0.188-1.934,0.565-2.833c0.376-0.899,0.88-1.594,1.511-2.083S54.08,5.06,54.844,5.06z M52.967,12.852
		c0.447,0,0.893-0.155,1.337-0.467c0.445-0.312,0.844-0.729,1.198-1.251c0.354-0.522,0.625-1.101,0.81-1.733
		c0.186-0.633,0.279-1.168,0.279-1.605c0-0.397-0.065-0.752-0.196-1.066c-0.13-0.314-0.324-0.563-0.58-0.746
		c-0.256-0.184-0.575-0.275-0.957-0.275c-0.623,0-1.186,0.206-1.688,0.618c-0.502,0.412-0.915,1.029-1.236,1.85
		c-0.322,0.821-0.482,1.639-0.482,2.453c0,0.764,0.125,1.325,0.377,1.684C52.081,12.672,52.46,12.852,52.967,12.852z"/>
	<path d="M60.526,13.379l-1.296-8.191h0.761l0.814,5.539c0.13,0.829,0.213,1.467,0.249,1.914h0.045
		c0.256-0.578,0.58-1.221,0.972-1.929l3.06-5.523h0.769l-4.521,8.191H60.526z"/>
</g>
<g>
	<g>
		<g>
			<path d="M13.388,20.096h6.513l-11.406,23H1.636L0,20.096h6.01l0.424,12.601V33.5c0,1.51-0.084,2.853-0.251,4.027h0.125
				c0.147-0.672,0.38-1.497,0.7-2.478c0.32-0.981,0.611-1.743,0.873-2.289L13.388,20.096z"/>
			<path d="M30.089,43.096H16.434l4.861-23H34.95l-1.022,4.987h-7.504l-0.739,3.618h6.985l-1.132,4.988h-6.985l-0.897,4.342h7.504
				L30.089,43.096z"/>
			<path d="M43.911,29.63h9.597L50.88,42.137c-2.622,0.85-5.354,1.274-8.196,1.274c-2.737,0-4.861-0.797-6.372-2.392
				c-1.51-1.594-2.266-3.854-2.266-6.78c0-2.8,0.577-5.327,1.731-7.583c1.153-2.254,2.734-3.973,4.743-5.151
				c2.008-1.18,4.344-1.771,7.008-1.771c2.79,0,5.139,0.562,7.048,1.684l-2.312,4.861c-1.605-0.944-3.21-1.416-4.814-1.416
				c-1.384,0-2.609,0.38-3.673,1.141c-1.065,0.76-1.915,1.885-2.549,3.374c-0.635,1.489-0.952,3.079-0.952,4.767
				c0,2.77,1.096,4.154,3.288,4.154c0.66,0,1.357-0.074,2.092-0.221l0.802-3.65h-3.602L43.911,29.63z"/>
			<path d="M67.408,19.734c2.727,0,4.848,0.779,6.363,2.336c1.516,1.558,2.273,3.731,2.273,6.521s-0.521,5.341-1.565,7.653
				s-2.483,4.085-4.319,5.317c-1.835,1.232-3.964,1.849-6.387,1.849c-2.821,0-5-0.781-6.537-2.344
				c-1.537-1.563-2.305-3.733-2.305-6.513s0.541-5.334,1.621-7.662c1.08-2.328,2.551-4.104,4.413-5.325
				C62.827,20.346,64.975,19.734,67.408,19.734z M69.831,28.654c0-1.195-0.251-2.131-0.755-2.808
				c-0.503-0.677-1.232-1.015-2.186-1.015c-1.038,0-1.993,0.439-2.863,1.32c-0.871,0.882-1.566,2.094-2.084,3.635
				c-0.52,1.541-0.779,3.12-0.779,4.735c0,2.538,1.048,3.808,3.146,3.808c0.996,0,1.921-0.436,2.776-1.307
				c0.854-0.87,1.526-2.045,2.014-3.523S69.831,30.406,69.831,28.654z"/>
			<path d="M90.794,36.033c0,2.328-0.771,4.14-2.312,5.436c-1.542,1.295-3.692,1.942-6.45,1.942c-1.154,0-2.245-0.129-3.272-0.386
				c-1.028-0.257-1.914-0.632-2.659-1.125v-5.506c0.88,0.557,1.89,1.023,3.028,1.4c1.137,0.377,2.168,0.566,3.091,0.566
				c0.776,0,1.363-0.162,1.762-0.488c0.398-0.324,0.597-0.786,0.597-1.384c0-0.283-0.063-0.548-0.188-0.794
				c-0.126-0.247-0.304-0.494-0.535-0.74c-0.231-0.246-0.85-0.789-1.856-1.628c-1.228-0.985-2.119-1.993-2.674-3.021
				c-0.556-1.027-0.834-2.155-0.834-3.383c0-1.373,0.344-2.608,1.031-3.705c0.687-1.096,1.657-1.945,2.91-2.548
				c1.253-0.603,2.656-0.904,4.208-0.904c2.506,0,4.761,0.561,6.764,1.683l-2.123,4.672c-1.794-0.922-3.319-1.384-4.578-1.384
				c-0.671,0-1.188,0.147-1.55,0.44c-0.361,0.294-0.542,0.724-0.542,1.29c0,0.515,0.175,0.994,0.527,1.439
				c0.352,0.446,1.02,1.041,2.006,1.786c1.237,0.912,2.155,1.871,2.753,2.879C90.496,33.578,90.794,34.732,90.794,36.033z"/>
			<path d="M107.212,20.096h6.514l-11.406,23H95.46l-1.636-23h6.01l0.425,12.601V33.5c0,1.51-0.084,2.853-0.252,4.027h0.126
				c0.146-0.672,0.38-1.497,0.7-2.478c0.32-0.981,0.611-1.743,0.873-2.289L107.212,20.096z"/>
			<path d="M123.237,38.785h-7.047l-1.967,4.311h-6.388l11.705-23h7.913l1.935,23h-5.994L123.237,38.785z M118.439,33.877h4.609
				l-0.268-6.67l-0.031-1.353c0-0.786,0.021-1.474,0.063-2.062c-0.253,0.902-0.572,1.773-0.96,2.611L118.439,33.877z"/>
			<path d="M138.35,34.727l-1.778,8.369h-6.15l4.86-23h6.089c2.643,0,4.666,0.524,6.072,1.574c1.405,1.049,2.107,2.627,2.107,4.734
				c0,1.637-0.372,3.063-1.117,4.279c-0.744,1.217-1.851,2.146-3.318,2.785l3.523,8.117l0.629,1.51h-6.701l-3.068-8.369H138.35z
				 M139.34,30.055h0.803c0.996,0,1.788-0.285,2.376-0.857c0.587-0.571,0.881-1.371,0.881-2.399c0-0.649-0.182-1.146-0.543-1.486
				s-0.889-0.511-1.581-0.511h-0.834L139.34,30.055z"/>
		</g>
		<g>
			<path d="M178.677,20.292c-2.782-0.406-10.316,0.823-15.76,5.164c-5.232,4.172-6.813,10.802-5.725,14.036
				C164.625,22.996,178.677,20.292,178.677,20.292z"/>
			<path d="M159.082,42.72c1.705,0.501,8.514,1.8,14.855-6.803c4.763-6.461,5.581-14.187,5.641-14.8
				C164.278,27.588,160.31,40.24,159.082,42.72z"/>
		</g>
	</g>
</g>
</svg>
