<?xml version="1.0" encoding="utf-8"?>
<!-- Generator: Adobe Illustrator 16.0.0, SVG Export Plug-In . SVG Version: 6.00 Build 0)  -->
<!DOCTYPE svg PUBLIC "-//W3C//DTD SVG 1.1//EN" "http://www.w3.org/Graphics/SVG/1.1/DTD/svg11.dtd">
<svg version="1.1" id="Layer_1" xmlns="http://www.w3.org/2000/svg" xmlns:xlink="http://www.w3.org/1999/xlink" x="0px" y="0px"
	 width="401.059px" height="452.852px" viewBox="0 0 401.059 452.852" enable-background="new 0 0 401.059 452.852"
	 xml:space="preserve">
<g>
	<g>
		<path fill="#101112" d="M334.39,81.398c-6.659-8.839-62.153-1.845-89.638,2.853l-3.84,48.248
			c3.475-0.893,37.744-2.221,42.008-2.839c28.227-4.098,19.459,13.18,33.267,29.5c13.81,16.318-6.903,55.723-6.903,55.723
			c5.65-1.254,30.128,17.088,26.361,11.438c-3.765-5.648,20.114-36.059,23.094-53.352C365.121,135.937,334.39,81.398,334.39,81.398z
			"/>
		<path fill="#F2F2F2" d="M250.594,235.15l0.722-5.151h-6.563C248.281,233.262,250.594,235.15,250.594,235.15z"/>
		<path fill="#101112" d="M223.921,90.873c-12.739,5.244-16.751,31.865-17.575,47.574c-1.285,24.477-2.413,21.787,3.293,42.053
			c5.729,20.348,25.234,40.364,35.113,49.499h6.563l2.98-21.255c13.18-10.043-25.612-24.479-16.827-49.584
			c7.625-21.784,3.633-9.55,2.442-5.93c1.269-3.332-19.237-13.542,4.841-19.731V84.25C225.584,87.528,233.703,86.846,223.921,90.873
			z"/>
		<path fill="#F2F2F2" d="M239.911,153.23c-0.22,0.575-0.299,0.906-0.299,0.906S239.729,153.782,239.911,153.23z"/>
	</g>
	<path opacity="0.2" fill="#0F131A" d="M401.059,415.204c0,20.246-89.781,36.66-200.533,36.66C89.778,451.864,0,435.45,0,415.204
		c0-20.242,89.779-36.662,200.526-36.662C311.277,378.542,401.059,394.962,401.059,415.204z"/>
	<path fill="#181B1E" d="M281.83,390.794c-6.459-31.781-2.701-44.795-2.299-82.311c0.201-18.886-7.328-34.933-39.234-35.791
		c-31.906-0.861-50.232-5.162-69.957-2.588c-32.655,4.271-51.819-11.854-54.816-13.363c-11.061-5.537-10.52-2.305-18.56-3.426
		c0,0-1.22-1.666-5.245-2.336c-2.954-1.158-6.356-1.582-8.561,2.336c-3.872,6.887,6.049,11.213,6.049,11.213
		s-4.154,1.289-10.582,9.002c0,0-5.956,5.363-14.153,12.689c-8.191,7.336-0.918,22.125,14.738,22.113
		c11.709-0.014,26.266,2.764,26.266,2.764s3.218,2.104,10.294,3.166c15.877,2.361,2.064,16.646,11.722,78.828
		c0.982,6.201,12.459,9.684,11.541-2.764c-0.41-5.479,0.121-14.709,0.86-23.477c0.178,2.568,0.334,4.137,0.334,4.137
		c0.256-9.725,1.282-17.209,2.809-22.945c2.179,10.285,8.264,38.402,10.734,43.664c2.997,6.459,12.472,7.73,9.211-3.211
		c-6.453-21.656,3.463-53.668,8.644-51.52c4.894,2.041,30.889,0.787,41.321-1.92c-0.179,0.262-0.273,0.412-0.273,0.412
		c1.009,1.775,2.624,5.797,5.656,8.541c-0.445,1.742-0.516,3.555,0.722,4.369c1.337,0.891,3.168-0.182,4.816-1.684
		c1.009,0.145,2.106,0.139,3.298-0.043c0.111,1.361,0.666,2.527,2.223,2.646c0.957,0.076,1.605-0.121,2.043-0.492l3.572,1.426
		c0,0,0.026-0.051,0.066-0.135c0.697,1.891,7.08,19.84,5.764,41.609c-0.422,7.014,8.449,10.777,12.328-2.588
		c2.87-9.904,3.825-25.908,4.129-33.559c0.893,1.596,1.75,3.135,2.553,4.586c3.064,11.041,8.361,29.23,11.857,36.238
		C276.875,406.731,284.738,405.167,281.83,390.794z"/>
	<g>
		<path fill="#101112" d="M261.487,59.988c-4.437,9.273,0,20.086-6.276,24.479c-6.277,4.395,23.935,21.799,33.894,8.16
			c17.872-24.479,11.927-7.533-7.53-32.639C262.115,34.88,261.487,59.988,261.487,59.988z"/>
		<path fill="#101112" d="M314.299,73.966c0,0,20.091,85.824,25.112,129.131c5.021,43.307-0.627,46.445,6.274,95.402
			c6.906,48.959,5.124,77.023,12.556,102.936c5.399,18.832-34.325,20.916-60.702,13.811c-47.257-12.73-93.076,10.672-87.428-1.881
			c6.639-14.752,7.987-60.465,9.904-83.48c1.885-22.596,7.043-46.447,8.299-84.734s3.583-131.795,0.85-158.229l17.98-3.08
			c0,0-6.903,50.211,28.773,43.309c28.199-5.457,27.716-7.535,21.621-51.801L314.299,73.966z"/>
		<path fill="#101112" d="M266.211,8.238c-19.272-1.453-30.625,18.83-30.625,34.521s4.445,40.799,18.229,46.447
			c13.783,5.65,27.173,3.137,33.031-4.395c5.859-7.533,10.252-29.5,8.368-45.191C293.332,23.929,291.188,10.119,266.211,8.238z"/>
		<path fill="#101112" d="M235.793,40.042c0.109-6.959,34.143-14.576,48.795-10.811s13.247,16.115,11.402,30.73
			c-2.102,16.645-16.014,33.92-18.307,13.205c0,0,15.711-26.988-1.766-23.223s-16.921,0.486-17.338,8.508
			c-1.255,24.199-1.527,6.625-4.284,0c-2.759-6.625-6.08-6.707-11.545-6.625c-5.466,0.082-3.955,6.625-3.955,6.625
			S235.616,51.207,235.793,40.042z"/>
		<path fill="#101112" d="M274.661,49.945c-4.922-4.393-11.202-3.742-12.77,2.383C260.325,58.453,279.584,54.337,274.661,49.945z"/>
		<path fill="#101112" d="M252.91,53.089c-4.181-5.072-10.464-5.389-12.938,0.404C237.497,59.289,257.087,58.164,252.91,53.089z"/>
		<circle fill="#101112" cx="270.255" cy="52.308" r="2.994"/>
		<circle fill="#101112" cx="248.894" cy="54.058" r="2.994"/>
		<path fill="#101112" d="M306.977,44.189c0,0-3.615-1.27-4.611-3.326c-1.533,13.934-5.602,30.471-11.519,34.475
			c0,0,0.053-5.016-0.761-14.395c-3.064,1.861-5.896,2.395-5.896,2.395c2.518-3.273,3.371-9.967,4.432-15.795
			c-0.207-1.596-0.432-3.246-0.679-4.965c-1.468-10.215-4.192-4.174-19.306,0.584c-15.117,4.754-25.941,7.209-32.818,6.057
			c-6.876-1.158-11.897-11.949-11.897-15.34c0,0,3.246,2.887,8.527,1.002c0,0-11.665-6.277-8.527-13.809
			c0,0,1.374,5.016,8.192,2.605c0,0,3.105-15.783,17.542-20.18c14.437-4.395,27.616,2.512,37.032,0
			c9.415-2.51,9.415-2.51,9.415-2.51s-2.511,6.193-6.905,7.176c0,0,10.672,4.75,13.182,14.162"/>
		<polygon fill="#101112" points="328.47,139.757 335.645,118.988 335.645,137.191 343.176,129.373 335.823,144.093 
			343.176,144.093 331.049,152.675 		"/>
		<polygon fill="#101112" points="230.416,142.208 223.386,138.447 226.899,146.605 218.9,146.605 224.656,152.675 223.386,159.791 
			230.416,165.435 		"/>
		<path fill="#101112" d="M254.361,95.138c5.335,5.646-0.341,10.668,17.247,10.668c17.589,0,20.728-4.393,20.099-5.334
			c-0.625-0.943,0.23,9.1-14.635,10.982c-14.865,1.885-11.342,9.418-4,7.533c7.34-1.881-10.994,11.924-18.711-8.16
			C246.643,90.748,254.361,95.138,254.361,95.138z"/>
		<path fill="#101112" d="M268.527,70.658c0,0-21.383,13.184-14.231-12.205C254.296,58.453,261.664,72.541,268.527,70.658z"/>
		<path fill="#101112" d="M253.495,155.296c8.712,33.99,12.147,20.811,11.687,44.66c-0.465,23.852-2.825,50.842-11.687,96.033
			c-8.862,45.193-10.458,83.48-13.738,38.916c-3.284-44.562,18.206-74.691,13.738-109.841
			C249.027,189.916,253.495,155.296,253.495,155.296z"/>
		<path fill="#101112" d="M284.189,147.861c10.658,7.533,28.86,14.438,30.115,32.639c1.254,18.201-12.553,26.363,7.531,89.756
			c20.085,63.394-6.902,109.841-6.277,63.394c0.628-46.447,7.533-26.988-5.646-55.234c-13.184-28.244-0.703-82.854-3.178-96.66
			C304.263,167.947,284.189,147.861,284.189,147.861z"/>
		<path fill="#101112" d="M284.189,262.097c-5.192,42.976-29.541,46.445-15.092,55.234c14.449,8.787,0.039-11.926,15.092-32.64
			c15.051-20.711,9.73-71.551-1.731-58.371c-11.464,13.18-29.691,48.6-13.36,28.693
			C285.432,235.107,286.084,246.404,284.189,262.097z"/>
		<path fill="#101112" d="M329.28,373.819c10.528,8.936,33.179,20.086,0,21.34c-33.178,1.256-22.509,5.65-41.338,5.65
			s-32.79-7.531-43.2-7.531c-10.412,0-30.146-5.105-21.356-13.891c8.785-8.789,14.444-21.887,30.976-11.844
			c16.53,10.043-0.916,23.223,29.828,18.203C314.934,380.724,320.406,366.288,329.28,373.819z"/>
		<path fill="#101112" d="M329.28,419.011c0,0,11.842-11.756,29.458-14.238c17.618-2.482,37.607,9.035,30.027,14.238
			S360.762,431.495,329.28,419.011z"/>
		<path fill="#101112" d="M253.764,410.646c0,0-22.59-15.646-40.689-5.707c-18.098,9.938-18.534,17.832-3.913,17.486
			C223.781,422.075,254.305,423.187,253.764,410.646z"/>
		<path fill="#101112" d="M287.742,20.238c0,0-25.984-11.205-38.241-2.912c-12.259,8.293-7.798,12.422-7.798,12.422
			S264.184,12.72,287.742,20.238z"/>
		<path fill="#101112" d="M261.561,45.767c-1.781,6.168,16.672,1.564,13.848-1.232C272.58,41.734,263.077,40.529,261.561,45.767z"/>
		<path fill="#101112" d="M253.395,46.328c2.283-4.459-16.432-1.225-13.855,0.82C243,49.894,250.446,52.085,253.395,46.328z"/>
	</g>
</g>
<path opacity="0.2" fill="#0F131A" d="M228.628,235.15c0,0-1.75,36.032-3.346,41.849s-6.534,53.819-7.212,77.731
	c-0.678,23.914-5.815,36.15-4.996,50.209c0.818,14.061,35.154,8.816,62.629,10.229c27.474,1.412,57.757,11.707,67.473,7.27
	c9.717-4.438,23.336,5.152,13.673-38.07c-9.663-43.225-7.439-72.438-12.193-101.368c-4.754-28.93-2.417-42.219-3.132-53.984
	s1.369,188.719-29.631,153.352s-70.291-51.271-76.106-127.353C229.971,178.931,228.628,235.15,228.628,235.15z"/>
</svg>
