<?xml version="1.0" encoding="utf-8"?>
<!-- Generator: Adobe Illustrator 16.0.0, SVG Export Plug-In . SVG Version: 6.00 Build 0)  -->
<!DOCTYPE svg PUBLIC "-//W3C//DTD SVG 1.1//EN" "http://www.w3.org/Graphics/SVG/1.1/DTD/svg11.dtd">
<svg version="1.1" id="Layer_1" xmlns="http://www.w3.org/2000/svg" xmlns:xlink="http://www.w3.org/1999/xlink" x="0px" y="0px"
	 width="125.794px" height="112.759px" viewBox="0 0 125.794 112.759" enable-background="new 0 0 125.794 112.759"
	 xml:space="preserve">
<path d="M112.555,46.315c8.605-10.398-1.793-11.474-3.281-27.25c-1.488-15.776-9.106-22.261-13.125-17.569
	c-22.095,25.8-23.951,61.861-24.1,69.012c-2.369-2.307-6.059-6.846-5.191-10.525c1.604-6.818-4.612-15.792-4.878-16.17
	c-0.513-0.733-1.524-0.913-2.257-0.398c-0.733,0.514-0.912,1.525-0.397,2.258c1.576,2.248,5.436,9.069,4.376,13.565
	c-0.739,3.148,0.548,6.338,2.238,8.941c-2.354-2.801-5.333-6.455-8.314-10.42c-7.092-9.432-14.039-8.181-14.33-8.124
	c-0.878,0.175-1.45,1.026-1.276,1.905c0.174,0.878,1.026,1.452,1.905,1.275c0.05-0.011,5.322-0.807,11.11,6.891l7.607,10.865
	C52.302,65.052,9.055,42.605,2.119,49.542c-7.888,7.888,8.247,9.681,15.776,18.644c7.531,8.965,25.099,19.361,25.099,19.361
	c0.717,18.287,35.856,30.479,39.801,22.949c3.943-7.529-5.737-27.609-5.737-27.609c2.868,2.51,10.398,13.984,11.832,11.133
	c1.435-2.85-3.585-7.548-3.585-7.548s3.227,1.435,12.52,4.662c9.295,3.228,18.674,8.604,26.205-15.417
	C131.559,51.693,112.555,46.315,112.555,46.315z"/>
</svg>
