<?xml version="1.0" encoding="utf-8"?>
<!-- Generator: Adobe Illustrator 16.0.0, SVG Export Plug-In . SVG Version: 6.00 Build 0)  -->
<!DOCTYPE svg PUBLIC "-//W3C//DTD SVG 1.1//EN" "http://www.w3.org/Graphics/SVG/1.1/DTD/svg11.dtd">
<svg version="1.1" id="Layer_1" xmlns="http://www.w3.org/2000/svg" xmlns:xlink="http://www.w3.org/1999/xlink" x="0px" y="0px"
	 width="84.75px" height="67.445px" viewBox="0 0 84.75 67.445" enable-background="new 0 0 84.75 67.445" xml:space="preserve">
<g>
	<path fill="#D1D2D3" d="M9.499,28.028c9.177-3.261,25.32,1.786,18.188,4.929c-7.133,3.143,3.611,17.76-12.12,9.103
		S-6.944,33.872,9.499,28.028z"/>
	<g>
		<path fill="#F2F2F2" d="M53.841,25.787c-0.632,1.328,5.298,0.381,13.246-2.12c7.947-2.501,7.947-2.501,7.947-2.501l5.786,4.621
			c0,0,1.56,2.424,2.378,4.722c0.817,2.298,0.688,6.241,0.688,6.241s3.399-3.966-3.297,2.768c-6.697,6.732-6.977,0.738-8.367,5.547
			c-1.394,4.81,2.397,2.295-6.379,7.314c-8.775,5.019-3.145,3.235-8.775,5.019c-5.629,1.784-5.364,2.228-11.319,1.919
			c-5.956-0.309-19.859-4.094-19.859-4.094s-2.486,1.191-2.486-2.466c0-3.656-1.377-3.097,1.453-11.448
			c2.83-8.351-6.147-2.852,2.83-8.352C36.663,27.457,53.841,25.787,53.841,25.787z"/>
		<path fill="#F2F2F2" d="M46.473,13.586C62.68,30.621,64.15,44.358,55.906,36.728c-8.245-7.631-13.49,2.992-22.707-11.175
			C23.982,11.386,30.267-3.449,46.473,13.586z"/>
		<path fill="#D1D2D3" d="M46.664,39.843c14.24,0.449,24.885-0.563,23.609-6.922C69,26.562,83.631,21.782,69,19.833
			c-14.633-1.949-13.991-9.157-19.249,1.121C44.493,31.232,38.983,39.601,46.664,39.843z"/>
		<path fill="#BBBDBF" d="M20.251,18.19c9.907,1.047,25.083-7.391,21.398,7.678c-3.686,15.065-1.306,14.812-13.644,13.459
			c-12.338-1.354-16.531-5.323-15.437-11.265C13.662,22.121,12.835,17.406,20.251,18.19z"/>
		<path fill="#DDDDDD" d="M21.551,47.699c6.686,4.127-0.139,20.192,11.788,7.276s2.146-8.057,7.649-16.608
			c5.502-8.552,12.479-19.651-2.735-12.75C23.039,32.518,9.763,40.421,21.551,47.699z"/>
		<path fill="#D1D2D3" d="M53.223,47.813c9.87-9.097,16.856,5.555,7.631,9.163c-9.227,3.609-13.849,7.053-15.104,2.34
			S45.563,54.871,53.223,47.813z"/>
	</g>
</g>
</svg>
