<?xml version="1.0" encoding="utf-8"?>
<!-- Generator: Adobe Illustrator 16.0.0, SVG Export Plug-In . SVG Version: 6.00 Build 0)  -->
<!DOCTYPE svg PUBLIC "-//W3C//DTD SVG 1.1//EN" "http://www.w3.org/Graphics/SVG/1.1/DTD/svg11.dtd">
<svg version="1.1" id="Layer_1" xmlns="http://www.w3.org/2000/svg" xmlns:xlink="http://www.w3.org/1999/xlink" x="0px" y="0px"
	 width="167.072px" height="151.919px" viewBox="0 0 167.072 151.919" enable-background="new 0 0 167.072 151.919"
	 xml:space="preserve">
<rect fill="#595A5C" width="167.072" height="151.919"/>
<g>
	<path fill="#595A5C" d="M54.626,85.303c6.622-6.133,12.042-11.298,18.974-12.758c6.932-1.459,31.745-6.567,44.151-2.919
		c12.404,3.649,22.622,6.568,26.27,12.406c3.65,5.838,8.029,12.043,5.109,16.42c-2.919,4.379-0.73,8.029-6.203,12.041
		c-5.473,4.014,6.568,14.596-20.068,6.934c-26.635-7.662-29.555-6.934-34.299-9.123c-4.742-2.189-24.812-5.838-27.365-8.756
		C58.641,96.627,50.161,89.442,54.626,85.303z"/>
	<path fill="#6E6F71" d="M49.154,53.207c18.977-7.287,27.73-10.582,41.231-10.217s16.419,1.068,23.718,5.095
		c7.297,4.027,14.594,1.109,12.77,10.23c-1.824,9.12-7.297,27.367-11.676,29.554c-4.379,2.189-2.919,7.264-16.785,6.369
		c-13.865-0.896-17.513,0.375-25.906,0.105c-8.392-0.27-15.325,3.709-23.352-0.105c-8.027-3.814-18.244,1.635-19.338-8.936
		c-1.096-10.568-4.379-14.994,2.189-19.53C38.572,61.235,46.413,54.26,49.154,53.207z"/>
	<path fill="#595A5C" d="M109.173,26.711c27.666-0.441,35.297,10.441,40.911,14.455c5.614,4.015,20.573,13.501,16.196,17.88
		c-4.379,4.377-10.863,12.04-16.196,14.229c-5.333,2.19-7.645,5.11-11.962,5.11s-5.332-1.507-10.967-1.46
		c-5.633,0.047-8.311,5.472-13.419,1.46c-5.108-4.014-14.96-2.945-14.96-10.047s-2.918-10.594,0-15.053
		C101.697,48.829,77.609,27.213,109.173,26.711z"/>
	<path fill="#595A5C" d="M19.598,91.883c25.183-8.742,30.285-10.215,33.752-10.215c3.466,0-1.642-2.92,7.115,0
		c8.756,2.918,6.552-2.58,10.209,3.635c3.657,6.215,9.859,16.066,10.954,17.527s5.1,1.51,3.28,4.223
		c-1.82,2.711-4.74,5.264-9.847,5.994c-5.108,0.73-6.933-0.365-16.785,1.824c-9.853,2.189-9.323,4.744-22.176,2.555
		c-12.853-2.189-12.853,5.107-16.501-2.92c-3.648-8.025-10.581-11.287-7.662-15.131C14.855,95.532,16.667,92.903,19.598,91.883z"/>
	<path opacity="0.2" fill="#F2F2F2" d="M20.8,137.922c3.72,5.234-20.798-1.828-12.041-21.531
		c8.757-19.703,17.514-12.461,18.974-31.406c1.459-18.947-8.94-36.097-8.94-36.097s25.045,24.498,17.324,49.99
		C28.396,124.368,10.948,124.061,20.8,137.922z"/>
	<path opacity="0.2" fill="#F2F2F2" d="M138.25,112.022c3.721,5.232-20.799-1.83-12.042-21.531
		c8.758-19.705,17.515-12.461,18.974-31.407c1.461-18.948-8.939-36.096-8.939-36.096s25.045,24.496,17.324,49.988
		C145.845,98.465,128.398,98.159,138.25,112.022z"/>
	<path fill="#808184" d="M21.752,118.696c5.375-0.303-6.404-14.799,21.244-19.004c27.649-4.209,29.109,3.871,31.663,9.502
		c2.554,5.629,2.495-12.594,18.214-9.502c15.72,3.088,35.67-2.77,41.934,8.916c6.265,11.688,1.883-16.387,13.559-8.916
		c11.676,7.467,18.029,0.533,13.575,12.574s14.348,21.531-19.5,27.002c-33.848,5.473-108.646,1.336-122.147-3.346
		C6.792,131.241,17.738,118.92,21.752,118.696z"/>
	<path fill="#595A5C" d="M28.022,125.819c9.456-10.947,30.848-34.523,49.567-35.76c18.718-1.236,31.763-6.143,31.583,7.51
		c-0.18,13.654-0.916,18.482,0,20.813c0.916,2.328,22.646-13.77,17.982,1.76c-4.662,15.529,21.328-8.188,22.929,5.678
		s-58.47,27.365-88.639,18.609C31.275,135.67,28.022,125.819,28.022,125.819z"/>
	<path fill="#6E6F71" d="M2.449,130.198c6.293-7.932,38.082-16.1,58.996-10.057c20.914,6.041,16.534-0.891,34.048,10.057
		c17.514,10.945,37.218,5.473,26.637,14.959C111.548,154.643-19.374,157.696,2.449,130.198z"/>
	<path opacity="0.2" fill="#F2F2F2" d="M104.301,121.627c5.452-13.555,11.54-32.277,7.456-41.398
		c-5.365-11.987-15.869-12.4-12.95-35.751c2.92-23.353,5.494-29.92,5.494-29.92S80.928,46.665,91.145,68.559
		c10.216,21.895,15.974,30.288,4.155,43.057s7.115,38.549,7.115,38.549S99.023,134.747,104.301,121.627z"/>
	<path opacity="0.2" fill="#F2F2F2" d="M77.185,107.069c5.452-13.553,11.54-32.274,7.457-41.397
		c-5.367-11.988-15.87-12.399-12.951-35.753C74.61,6.568,77.185,0,77.185,0S53.812,32.108,64.029,54.001
		c10.216,21.894,15.973,30.287,4.154,43.058c-11.817,12.768,7.117,38.547,7.117,38.547S71.907,120.19,77.185,107.069z"/>
</g>
</svg>
