<?xml version="1.0" encoding="utf-8"?>
<!-- Generator: Adobe Illustrator 16.0.0, SVG Export Plug-In . SVG Version: 6.00 Build 0)  -->
<!DOCTYPE svg PUBLIC "-//W3C//DTD SVG 1.1//EN" "http://www.w3.org/Graphics/SVG/1.1/DTD/svg11.dtd">
<svg version="1.1" id="Layer_1" xmlns="http://www.w3.org/2000/svg" xmlns:xlink="http://www.w3.org/1999/xlink" x="0px" y="0px"
	 width="194px" height="308.838px" viewBox="0 0 194 308.838" enable-background="new 0 0 194 308.838" xml:space="preserve">
<g>
	<g>
		<path fill="#F8A893" d="M125.046,56.305c-3.576-5.43-9.127,0-9.896,3.117c-0.768,3.117,1.762,32.582,0.813,39.789
			s-2.873,12.492-2.59,25.756c0.285,13.266-3.475,13.803-6.838,20.311c-3.361,6.51-8.152,13.334-8.152,13.334
			s4.699,12.336,2.801,22.188s2.305,8.904,1.672,15.229c-0.633,6.328-2.666,17.533-2.125,21.24c0.543,3.705,4.971,5.061,4.654,8.225
			c-0.316,3.162-0.859,8.586-0.859,8.586s2.803,8.494,1.719,10.211c-1.086,1.719,1.49-1.219,6.867,13.467
			c0,0-5.287,11.795,1.717,23.906c0,0-5.016,18.211-1.988,19.883s10.256,11.523,15.453,5.197s3.936-12.842,3.936-12.842
			l10.844-16.26c0,0,4.609-14.143,5.152-19.566c0.541-5.422,5.828,6.426,10.936,10.133c5.105,3.705,7.465,8.121,9.635,13.816
			c2.17,5.693,2.564,13.965,9.297,5.967c6.734-7.998-3.252-13.105-4.066-27.791c-0.813-14.688-3.432-34.117-9.805-47.99
			c-6.369-13.875-5.637-62.657-22.602-91.502C124.458,91.535,130.198,64.123,125.046,56.305z"/>
		<path fill="#FCD9D2" d="M113.815,112.906c-2.35,9.805,0.699-3.074,2.279-0.633c1.582,2.439,0.85,8.703,0.85,8.703
			s3.615,0.363,3.117,5.332c-0.496,4.973-0.111,3.584,0.43,7.287c0.543,3.707-1.445-5.561,1.762,3.432
			c3.209,8.992,5.717,1.484,2.961,6.229c-2.758,4.744-2.621,3.389-0.994,5.377c1.625,1.99,10.148-4.004,3.469,4.912
			c-6.678,8.917-5.955,6.25-4.555,10.499s5.412,7.387,4.672,9.139s0.164,5.037-0.582,6.332c-0.746,1.293-1.379-6.07-0.746,1.293
			c0.633,7.367,3.932,10.895,3.75,12.699c-0.182,1.809,2.893,3.029-0.498,4.971c-3.389,1.943-3.568,3.752-3.705,5.107
			c-0.135,1.355,1.221,1.49,1.355,4.701c0.135,3.207-2.711,8.855-2.711,8.855s0.994,3.75,1.445,8.359s2.723,1.186,1.633,7.01
			s-3.35-3.531-1.09,5.824c2.258,9.354,3.658,9.037,2.936,11.705c-0.723,2.666-3.164,4.246-3.57,8.314
			c-0.406,4.066-2.225,10.273,1.35,14.738c3.576,4.465,4.299,6.363,1.814,8.4c-2.486,2.031-5.018,4.516-5.018,4.516l-1.988,6.193
			c0,0-0.18,1.805-0.316,3.16c-0.135,1.357,1.131,2.396-0.451,4.52c-1.582,2.125-1.582,2.125-1.582,2.125l-1.07,4.434
			c0,0-7.328-1.82-6.875-7.576c0.451-5.758,0.158-14.523,0.158-14.523s2.678-3.656,0.715-7.139
			c-1.965-3.484-2.383,1.279-1.965-3.484s-2.26-4.791-1.898-8.406s-0.045,0.453,0.361-3.615c0.408-4.066,0.543-0.857,0.408-4.066
			c-0.137-3.207-0.137-3.207-0.137-3.207s-2.316,2.266-2.801-3.934s-4.115-2.586-2.484-7.094c1.629-4.508,1.174-2.621-0.814-5.559
			s0.092,3.66-1.988-2.938c-2.078-6.598,0.314-8.184-1.424-11.096s-1.738,1.652-1.738-2.912s1.943-1.174,0.723-7.23
			c-1.219-6.055-0.256-7.785,0.844-9.043c1.1-1.26,2.455-1.123,2.23-3.43c-0.227-2.305,1.604-1.643,0.779-5.16
			s-0.035-1.125-1.1-5.799s-0.549-1.373-1.992-6.525c-1.443-5.156-0.354-6.061-0.127-8.318c0.225-2.26-0.453,4.52,0.225-2.26
			c0.68-6.777-2.607-3.238-2.043-8.877c0.564-5.637-1.004-10.141,1.402-14.006c2.404-3.869,3.354-4.23,3.58-6.49
			c0.225-2.258,4.066,0.408,4.473-3.66c0.408-4.066,4.338-2.305,4.926-8.18c0.588-5.873-0.949-12.955,1.18-12.166L113.815,112.906z"
			/>
		<path fill="#771414" d="M115.976,124.119c0.961-1.283,2.453,9.33,2.564,12.082c0.111,2.748,3.018,8.516,2.883,9.871
			c-0.137,1.355-0.588,5.873-0.588,5.873s1.014,1.473-0.271,2.713s-0.016,2.737,0.014,5.022s-0.955,3.1-0.541,5.422
			c0.41,2.324-1.322,5.346,0.604,8.732c1.924,3.389,2.959,8.512,3.072,11.262c0.111,2.75-0.43,8.172-0.994,9.941
			s-2.785,6.566-0.934,12.23c1.852,5.662,0.316,21.025,0.18,22.381c-0.135,1.357-0.789-3.729-0.543,5.424
			s-2.369,12.088-1.807,18.074c0.561,5.99-3.262,8.348-0.934,12.688c2.326,4.34,1.672,7.014,2.121,10.254
			c0.451,3.238-0.744,3.574-0.588,5.873c0.156,2.297,0.699-3.125,0.156,2.297c-0.541,5.424-0.992,9.943-0.992,9.943
			s-1.285,1.24-0.453,4.52c0.834,3.277-0.143,7.721-0.143,7.721s-1.305,3.361-5.213-4.24c-3.908-7.604,0.195-9.932-0.93-14.15
			c-1.127-4.221-0.826-6.473-1.594-8.832c-0.77-2.359,0.922-2.646-0.441-5.064c-1.365-2.418-0.734-0.986-1.477-5.168
			c-0.744-4.184-0.699-4.635-0.473-6.895s0.227-2.26,0.453-4.518c0.227-2.26,0.156,2.297,0.227-2.26
			c0.068-4.557,0.768-6.455-0.67-7.779c-1.438-1.328-6.369-1.141-4.709-3.256c1.662-2.117,1.031-3.549,1.934-4.826
			c0.902-1.281-0.742-4.184-0.742-4.184s-2.322-3.883-2.523-5.73c-0.203-1.846,1.225-4.498,0.635-6.354
			c-0.588-1.855,1.17-0.086-0.395-3.777c-1.568-3.693-2.939-1.393-1.406-5.299s0.383-8.381,0.383-8.381s-1.127-1.025,0.453-4.52
			c1.578-3.492,1.801-5.322,2.797-7.936c0.994-2.611,1.357,1.102,0.994-2.611c-0.361-3.715-0.725-4.939-1.221-8.736
			c-0.494-3.799-0.129-8.313-0.129-8.313s2.686-6.557,0.541-7.695c-2.143-1.135-0.129-2.545-0.855-4.66
			c-0.725-2.115,1.156-2.166,0.635-6.327c-0.521-4.158-2.037-0.525,0.291-5.607c2.326-5.086,4.107-3.537,5.145-6.172
			s0.699-3.125,3.021-7C115.837,132.277,111.739,129.783,115.976,124.119z"/>
		<path fill="#9B1C20" d="M117.261,145.199c-1.363,0.01-8.904,2.305-4.52,4.111C117.124,151.119,127.985,145.119,117.261,145.199z"
			/>
		<path fill="#9B1C20" d="M114.358,153.58c-1.361,0.012-8.902,2.305-4.52,4.114C114.224,159.5,125.083,153.5,114.358,153.58z"/>
		<path fill="#9B1C20" d="M115.731,160.473c-1.361,0.01-9.227,4.672-4.518,4.113C118.058,163.774,126.456,160.395,115.731,160.473z"
			/>
		<path fill="#9B1C20" d="M113.597,169.045c-1.363,0.01-8.902,2.305-4.52,4.111C113.46,174.965,124.321,168.965,113.597,169.045z"/>
		<path fill="#9B1C20" d="M114.97,175.938c-1.363,0.01-9.229,4.67-4.52,4.111C117.294,179.237,125.694,175.858,114.97,175.938z"/>
		<path fill="#9B1C20" d="M117.017,180.963c-1.363,0.01-8.902,2.305-4.52,4.113C116.88,186.881,127.741,180.883,117.017,180.963z"/>
		<path fill="#9B1C20" d="M118.39,187.856c-1.363,0.01-9.229,4.67-4.52,4.111C120.714,191.157,129.114,187.776,118.39,187.856z"/>
		<path fill="#9B1C20" d="M116.651,194.948c-1.328-0.303-9.193,0.201-5.342,2.967C115.161,200.678,127.108,197.329,116.651,194.948z
			"/>
		<path fill="#9B1C20" d="M116.407,201.971c-1.328-0.303-10.053,2.432-5.34,2.967C117.915,205.717,126.866,204.354,116.407,201.971z
			"/>
		<path fill="#9B1C20" d="M116.011,209.208c-1.361,0.01-8.902,2.305-4.52,4.113C115.876,215.127,126.735,209.127,116.011,209.208z"
			/>
		<path fill="#9B1C20" d="M117.384,216.1c-1.361,0.01-9.227,4.67-4.518,4.111C119.71,219.399,128.108,216.02,117.384,216.1z"/>
		<path fill="#9B1C20" d="M116.979,222.993c-1.252-0.539-9.078-1.469-5.791,1.947C114.474,228.356,126.831,227.229,116.979,222.993z
			"/>
		<path fill="#9B1C20" d="M115.466,229.854c-1.252-0.537-10.326,0.568-5.791,1.949C116.269,233.811,125.317,234.09,115.466,229.854z
			"/>
		<path fill="#9B1C20" d="M117.124,236.102c-1.301-0.402-9.182-0.492-5.549,2.555C115.206,241.704,127.372,239.266,117.124,236.102z
			"/>
		<path fill="#9B1C20" d="M116.353,243.086c-1.303-0.4-10.209,1.666-5.551,2.557C117.571,246.936,126.601,246.25,116.353,243.086z"
			/>
		<path fill="#9B1C20" d="M114.894,251.344c-0.789,0.068-5.248,2.67-2.787,4.285C114.565,257.247,121.101,250.815,114.894,251.344z"
			/>
		<path fill="#9B1C20" d="M115.397,258.151c-0.789,0.066-5.535,5.039-2.789,4.285C116.603,261.338,121.604,257.62,115.397,258.151z"
			/>
		<path fill="#9B1C20" d="M115.515,265.516c-1.025,0.045-6.758,2.52-3.502,4.215C115.267,271.426,123.591,265.172,115.515,265.516z"
			/>
		<path fill="#9B1C20" d="M116.38,272.36c-1.027,0.043-7.063,4.887-3.504,4.213C118.048,275.594,124.454,272.014,116.38,272.36z"/>
		<path fill="#EA7575" d="M124.22,148.633c-2.797-2.561-4.717-4.986-5.025-0.932c-0.309,4.051,0.66,7.404,1.023,9.692
			c0.359,2.287-0.818,2.264-0.5,4.986s-2.75,4.898-3.271,6.854c-0.521,1.953-2.844,6.357,0.152,9.115
			c3,2.758,5.564,2.523,4.975,3.709c-0.588,1.186,2.139,3.039,2.139,3.039s-1.27,1.127-1.422,2.953s-3.045,3.537-2.082,8.172
			c0.961,4.637-3.203,2.094-0.813,6.57c2.389,4.477,4.871,6.813,4.824-2.908s5.783-13.246,2.258-19.076
			c-3.525-5.828-3.986-7.605-4.025-8.57c-0.041-0.963-1.783,3.988-0.041-0.963s0.723-7.23,0.723-7.23s-0.432-1.531-0.441-3.07
			c-0.012-1.539,0.963-2.305-0.582-4.311c-1.547-2.004-0.328-6.27-0.328-6.27L124.22,148.633z"/>
		<path fill="#F19A8D" d="M126.528,60.1c0,0-4.705,12.529-3.234,22.719c1.469,10.188,4.293,25.094,5.93,30.496
			c1.639,5.404,12.969,17.035,15.145,28.662c2.174,11.629,8.473,39.917,8.191,47.282c-0.279,7.367-3.48,21.105-0.547,28.291
			c2.934,7.184,17.795,8.369,19.396,19.471c1.6,11.1-0.59-6.68-4.482-17.979s-10.355-50.734-12.137-59.109
			c-1.779-8.375-5.219-27.475-11.094-37.19C137.821,113.025,129.241,86.166,126.528,60.1z"/>
		<path fill="#F19A8D" d="M146.54,265.958c0,0,1.785,6.699,1.729,11.84c-0.059,5.139,1.002,8.219-7.119,2.727
			c0,0-3.74,5.607-5.457,8.182s0.182-7.123,1.447-14.467s6.215-11.592,7.535-20.043c1.322-8.449,1.525-15.24,1.525-15.24
			s5.809,19.688,9.311,21.193c3.5,1.504,5.824,9.824,5.824,9.824s-11.857-9.604-12.852-12.961L146.54,265.958z"/>
		<path fill="#DC7F75" d="M125.479,300.288c-4.066-0.406-3.717,2.584-0.451,4.52C128.292,306.743,125.479,300.288,125.479,300.288z"
			/>
		<path fill="#F19A8D" d="M141.28,274.653c-4.096-0.736-12.713-3.516-10.326,1.412c2.389,4.928-3.404,11.662,1.865,10.354
			C138.091,285.108,147.54,275.778,141.28,274.653z"/>
		<path fill="#DC7F75" d="M141.28,274.653c0,0-6.742,4.383-10.326,1.412C127.372,273.092,137.884,295.11,141.28,274.653z"/>
		<path fill="#FFFFFF" d="M139.767,277.051c0,0-3.586-1.443-7.508-0.75S135.696,286.61,139.767,277.051z"/>
		<circle fill="#0F191F" cx="135.148" cy="279.629" r="1.844"/>
		<path fill="#F19A8D" d="M177.618,285.518c-4.436,4.881-2.381-8.133-2.381-8.133s-1.855,8.145-3.238,4.99
			c-2.055-4.695-3.746-5.025-3.746-5.025s-1.277,12.773,3.879,13.289C178.065,291.233,181.722,281.004,177.618,285.518z"/>
	</g>
	<path fill="#6E6D6E" d="M127.813,69.934"/>
	<g>
		<g>
			<path fill="#F8A893" d="M61.074,56.406c3.356-5.568,9.12-0.367,10.014,2.717c0.894,3.086-0.449,32.627,0.788,39.791
				c1.239,7.162,3.375,12.365,3.623,25.631c0.251,13.264,4.027,13.65,7.648,20.02c3.623,6.369,8.684,12.995,8.684,12.995
				s-4.199,12.516-1.906,22.281c2.292,9.768-1.945,8.99-1.059,15.285c0.887,6.297,3.37,17.41,2.977,21.135
				c-0.392,3.725-4.762,5.258-4.318,8.406c0.442,3.146,1.203,8.543,1.203,8.543s-2.459,8.604-1.305,10.275
				c1.152,1.672-1.539-1.16-6.322,13.73c0,0,5.758,11.572-0.752,23.957c0,0,5.743,17.994,2.785,19.783
				c-2.957,1.795-9.785,11.93-15.232,5.816c-5.447-6.111-4.449-12.674-4.449-12.674L51.966,278.29c0,0-5.176-13.947-5.936-19.346
				c-0.76-5.395-5.566,6.656-10.52,10.564s-7.133,8.418-9.072,14.195c-1.938,5.775-2,14.055-9.049,6.334
				c-7.051-7.721,2.723-13.225,2.943-27.932c0.223-14.707,2.059-34.229,7.868-48.348c5.808-14.117,3.112-62.833,18.905-92.334
				C63.077,91.582,56.242,64.424,61.074,56.406z"/>
			<path fill="#FCD9D2" d="M74.573,112.51c2.742,9.705-0.822-3.041-2.304-0.541c-1.483,2.502-0.499,8.732-0.499,8.732
				s-3.598,0.506-2.901,5.453c0.697,4.947,0.257,3.574-0.136,7.299c-0.393,3.723,1.223-5.617-1.623,3.498
				c-2.843,9.115-5.65,1.713-2.707,6.344c2.946,4.629,2.757,3.281,1.211,5.332c-1.547,2.053-10.301-3.594-3.27,5.047
				c7.031,8.641,6.201,6.006,4.973,10.307s-5.111,7.6-4.3,9.32c0.81,1.721,0.04,5.039,0.837,6.303s1.132-6.121,0.797,1.264
				c-0.336,7.385-3.49,11.041-3.237,12.838c0.254,1.799-2.767,3.143,0.696,4.947c3.465,1.805,3.719,3.604,3.908,4.953
				c0.191,1.35-1.158,1.539-1.164,4.75c-0.008,3.211,3.064,8.742,3.064,8.742s-0.843,3.787-1.107,8.41
				c-0.267,4.625-2.672,1.295-1.35,7.07c1.324,5.775,3.205-3.662,1.324,5.775c-1.882,9.438-3.295,9.178-2.465,11.813
				s3.332,4.117,3.902,8.166c0.568,4.047,2.637,10.176-0.756,14.781c-3.394,4.605-4.039,6.531-1.475,8.463s5.193,4.313,5.193,4.313
				l2.236,6.105c0,0,0.254,1.799,0.443,3.148s-1.031,2.439,0.633,4.498c1.666,2.059,1.666,2.059,1.666,2.059l1.248,4.387
				c0,0,7.25-2.113,6.566-7.846c-0.684-5.736-0.744-14.508-0.744-14.508s-2.822-3.545-1-7.102c1.822-3.563,2.432,1.18,1.822-3.563
				s2.064-4.875,1.559-8.475c-0.506-3.598,0.063,0.449-0.506-3.598c-0.571-4.047-0.577-0.836-0.571-4.047
				c0.007-3.211,0.007-3.211,0.007-3.211s2.404,2.172,2.641-4.041s4.009-2.75,2.197-7.189c-1.809-4.439-1.279-2.572,0.59-5.586
				c1.869-3.016,0.057,3.662,1.869-3.016c1.811-6.676-0.643-8.162,0.977-11.143s1.803,1.578,1.619-2.98
				c-0.184-4.563-1.988-1.096-1.014-7.197c0.977-6.1-0.055-7.787-1.205-9.002c-1.15-1.213-2.499-1.023-2.365-3.336
				c0.133-2.311-1.67-1.576-0.988-5.123c0.684-3.547-0.01-1.125,0.867-5.84c0.877-4.713-0.506-1.354,0.729-6.561
				c1.234-5.209,1.107-6.107,0.791-8.355c-0.316-2.25,0.634,4.496-0.316-2.25c-0.95-6.744,2.475-3.342,1.685-8.951
				s0.595-10.172-1.962-13.94c-2.561-3.768-3.523-4.09-3.839-6.34c-0.317-2.248-4.048,0.57-4.618-3.477
				c-0.57-4.049-4.428-2.129-5.25-7.975c-0.824-5.846,0.428-12.984-1.668-12.111L74.573,112.51z"/>
			<path fill="#771414" d="M72.864,123.801c-1.011-1.242-2.074,9.422-2.076,12.174c0,2.752-2.673,8.631-2.482,9.98
				c0.189,1.35,0.822,5.848,0.822,5.848s-0.953,1.508,0.381,2.697s0.125,2.735,0.188,5.02c0.063,2.283,1.079,3.057,0.76,5.395
				c-0.318,2.338,1.537,5.289-0.252,8.75c-1.787,3.463-2.615,8.623-2.617,11.375c-0.001,2.752,0.76,8.148,1.395,9.895
				c0.635,1.744,3.047,6.451,1.424,12.184c-1.625,5.73,0.529,21.021,0.721,22.369c0.189,1.35,0.637-3.758,0.758,5.396
				c0.125,9.156,2.855,11.98,2.535,17.988c-0.321,6.008,3.593,8.207,1.442,12.639c-2.151,4.43-1.389,7.074-1.708,10.328
				c-0.32,3.258,0.889,3.547,0.824,5.848c-0.064,2.303-0.826-3.092-0.064,2.303c0.758,5.396,1.392,9.895,1.392,9.895
				s1.335,1.188,0.634,4.496s0.453,7.711,0.453,7.711s1.439,3.307,5.039-4.447c3.598-7.754-0.596-9.916,0.36-14.178
				s0.563-6.5,1.238-8.889c0.674-2.387-1.028-2.605,0.237-5.078c1.266-2.471,0.691-1.016,1.266-5.223
				c0.574-4.209,0.511-4.658,0.194-6.906c-0.316-2.25-0.316-2.25-0.634-4.498c-0.316-2.248-0.063,2.303-0.316-2.248
				c-0.252-4.551-1.027-6.418,0.355-7.801c1.385-1.383,6.318-1.395,4.573-3.441c-1.745-2.049-1.171-3.504-2.124-4.746
				s0.573-4.209,0.573-4.209s2.163-3.973,2.292-5.826c0.127-1.852-1.405-4.445-0.892-6.324c0.514-1.877-1.171-0.039,0.244-3.791
				c1.417-3.752,2.88-1.508,1.191-5.35c-1.69-3.842-0.722-8.357-0.722-8.357s1.086-1.07-0.632-4.498
				c-1.718-3.426-2.015-5.246-3.114-7.816s-1.313,1.156-1.1-2.57s0.525-4.965,0.867-8.779c0.344-3.814-0.203-8.311-0.203-8.311
				s-2.947-6.443-0.851-7.666s0.026-2.547,0.665-4.691c0.641-2.143-1.24-2.117-0.886-6.297c0.354-4.178,2.014-0.605-0.515-5.59
				c-2.531-4.986-4.248-3.369-5.391-5.959c-1.143-2.592-0.824-3.096-3.301-6.875C73.333,131.947,77.327,129.289,72.864,123.801z"/>
			<path fill="#9B1C20" d="M72.43,144.916c1.36-0.045,8.987,1.945,4.681,3.928S61.71,145.268,72.43,144.916z"/>
			<path fill="#9B1C20" d="M75.665,153.174c1.361-0.045,8.988,1.945,4.681,3.928C76.039,159.084,64.946,153.527,75.665,153.174z"/>
			<path fill="#9B1C20" d="M74.569,160.118c1.363-0.045,9.408,4.295,4.682,3.926C72.38,163.508,63.853,160.469,74.569,160.118z"/>
			<path fill="#9B1C20" d="M77.05,168.596c1.361-0.045,8.986,1.943,4.68,3.926S66.331,168.948,77.05,168.596z"/>
			<path fill="#9B1C20" d="M75.954,175.538c1.361-0.045,9.406,4.295,4.682,3.928C73.765,178.928,65.235,175.889,75.954,175.538z"/>
			<path fill="#9B1C20" d="M74.11,180.641c1.361-0.045,8.99,1.945,4.682,3.928C74.484,186.551,63.392,180.993,74.11,180.641z"/>
			<path fill="#9B1C20" d="M73.017,187.584c1.361-0.045,9.407,4.295,4.68,3.926C70.826,190.975,62.298,187.936,73.017,187.584z"/>
			<path fill="#9B1C20" d="M75.038,194.598c1.314-0.354,9.193-0.166,5.457,2.752C76.757,200.266,64.685,197.399,75.038,194.598z"/>
			<path fill="#9B1C20" d="M75.563,201.608c1.315-0.355,10.143,2.023,5.457,2.75C74.21,205.411,65.211,204.409,75.563,201.608z"/>
			<path fill="#9B1C20" d="M76.251,208.823c1.361-0.045,8.988,1.943,4.682,3.928C76.624,214.731,65.532,209.174,76.251,208.823z"/>
			<path fill="#9B1C20" d="M75.155,215.764c1.361-0.045,9.408,4.295,4.682,3.928C72.966,219.155,64.437,216.118,75.155,215.764z"/>
			<path fill="#9B1C20" d="M75.839,222.633c1.229-0.588,9.01-1.832,5.863,1.715S66.165,227.264,75.839,222.633z"/>
			<path fill="#9B1C20" d="M77.626,229.43c1.229-0.59,10.342,0.152,5.864,1.715C76.983,233.417,67.952,234.061,77.626,229.43z"/>
			<path fill="#9B1C20" d="M76.22,235.739c1.285-0.453,9.154-0.859,5.648,2.33C78.36,241.26,66.108,239.313,76.22,235.739z"/>
			<path fill="#9B1C20" d="M77.272,242.688c1.285-0.453,10.266,1.254,5.648,2.33C76.208,246.583,67.16,246.262,77.272,242.688z"/>
			<path fill="#9B1C20" d="M79.063,250.881c0.79,0.035,5.35,2.455,2.958,4.168C79.628,256.764,72.838,250.6,79.063,250.881z"/>
			<path fill="#9B1C20" d="M78.833,257.702c0.789,0.035,5.732,4.813,2.957,4.168C77.756,260.934,72.608,257.418,78.833,257.702z"/>
			<path fill="#9B1C20" d="M79.009,265.067c1.028,0.002,6.855,2.244,3.67,4.07C79.495,270.961,70.929,265.047,79.009,265.067z"/>
			<path fill="#9B1C20" d="M78.423,271.938c1.027,0.002,7.252,4.598,3.67,4.068C76.886,275.237,70.341,271.917,78.423,271.938z"/>
			<path fill="#EA7575" d="M65.614,148.627c2.691-2.672,4.511-5.172,4.982-1.135c0.471,4.037-0.361,7.426-0.631,9.727
				c-0.27,2.301,0.906,2.229,0.698,4.963c-0.208,2.732,2.944,4.783,3.544,6.715s3.099,6.238,0.215,9.115
				c-2.886,2.877-5.458,2.746-4.822,3.906c0.637,1.158-2.014,3.121-2.014,3.121s1.313,1.074,1.539,2.895
				c0.226,1.818,3.186,3.412,2.41,8.082s3.283,1.963,1.076,6.531c-2.207,4.57-4.592,7.002-4.938-2.713
				c-0.346-9.713-6.311-13.002-3.023-18.967c3.287-5.967,3.678-7.764,3.678-8.727c0.002-0.965,1.941,3.914,0.002-0.965
				c-1.939-4.877-1.014-7.195-1.014-7.195s0.371-1.547,0.318-3.086c-0.053-1.537-1.056-2.264,0.408-4.33
				c1.465-2.065,0.076-6.278,0.076-6.278L65.614,148.627z"/>
			<path fill="#F19A8D" d="M59.745,60.258c0,0,5.206,12.33,4.147,22.568c-1.059,10.24-3.28,25.248-4.7,30.713
				s-12.273,17.541-13.978,29.248c-1.706,11.705-6.862,40.223-6.286,47.573c0.577,7.35,4.326,20.949,1.686,28.246
				c-2.641,7.295-17.445,9.078-18.598,20.234s0.32-6.699,3.755-18.145c3.435-11.447,8.308-51.109,9.749-59.549
				c1.443-8.44,4.111-27.665,9.592-37.608C50.591,113.594,58.083,86.41,59.745,60.258z"/>
			<path fill="#F19A8D" d="M48.03,266.756c0,0-1.516,6.764-1.252,11.896c0.266,5.135-0.672,8.254,7.223,2.438
				c0,0,3.961,5.451,5.781,7.957c1.82,2.504-0.469-7.109-2.027-14.396c-1.561-7.287-6.676-11.334-8.336-19.723
				c-1.66-8.391-2.137-15.168-2.137-15.168s-5.014,19.906-8.451,21.549c-3.437,1.645-5.424,10.053-5.424,10.053
				s11.462-10.074,12.32-13.469L48.03,266.756z"/>
			<path fill="#DC7F75" d="M70.452,300.209c4.047-0.568,3.818,2.432,0.635,4.498C67.901,306.772,70.452,300.209,70.452,300.209z"/>
			<path fill="#F19A8D" d="M53.634,275.231c4.063-0.898,12.563-4.023,10.375,0.996c-2.189,5.02,3.871,11.516-1.448,10.418
				C57.241,285.549,47.424,276.606,53.634,275.231z"/>
			<path fill="#DC7F75" d="M53.634,275.231c0,0,6.914,4.109,10.375,0.996C67.468,273.114,57.849,295.536,53.634,275.231z"/>
			<path fill="#FFFFFF" d="M55.243,277.569c0,0,3.523-1.59,7.471-1.055S59.694,286.954,55.243,277.569z"/>
			<circle fill="#0F191F" cx="59.96" cy="279.957" r="1.844"/>
			<path fill="#F19A8D" d="M17.761,287.549c4.631,4.697,2.053-8.223,2.053-8.223s2.182,8.064,3.436,4.854
				c1.867-4.771,3.543-5.168,3.543-5.168s1.789,12.711-3.342,13.432C17.546,293.278,13.481,283.204,17.761,287.549z"/>
		</g>
		<path fill="#6E6D6E" d="M71.088,59.123l2.78-5.877c0,0,3.256,5.164-2.49,9.699L71.088,59.123z"/>
	</g>
	<path fill="#6E6D6E" d="M115.149,59.422l-4.008-5.428c0,0,0.404,10.133,3.955,12.234L115.149,59.422z"/>
	<g>
		<path fill="#6E6D6E" d="M50.028,60.69c-0.656-8.901,0.801-10.558,1.635-10.806l0.531,0.008L53.651,0.35l-6.985-0.046l-0.15,49.507
			c0,0-2.949,27.83,14.486,20.878l-0.655-3.756C60.347,66.934,50.927,72.88,50.028,60.69z"/>
		<path fill="#6E6D6E" d="M136.063,50.506L133.853,0h-7.012l1.645,45.426c0.569,0.335,1.207,0.736,1.864,1.161
			c-0.079,0.303-0.13,0.546-0.13,0.546l0.626-0.223c0.148,0.098,0.297,0.196,0.445,0.295c0.087,1.292,0.116,3.416,0.04,6.79
			c-0.307,13.697-4.725,10.932-4.725,10.932l1.207,5.008c8.326-3.577,8.681-13.515,8.037-19.58
			C135.987,50.451,136.063,50.506,136.063,50.506z"/>
	</g>
	<path fill="#F19A8D" d="M69.284,57.154c0,0,7.928,0.729,3.137,8.244S69.284,57.154,69.284,57.154z"/>
</g>
<rect x="-1.667" y="-0.187" fill="#6E6D6E" width="198.333" height="7.5"/>
</svg>
