<?xml version="1.0" encoding="utf-8"?>
<!-- Generator: Adobe Illustrator 16.0.0, SVG Export Plug-In . SVG Version: 6.00 Build 0)  -->
<!DOCTYPE svg PUBLIC "-//W3C//DTD SVG 1.1//EN" "http://www.w3.org/Graphics/SVG/1.1/DTD/svg11.dtd">
<svg version="1.1" id="Layer_1" xmlns="http://www.w3.org/2000/svg" xmlns:xlink="http://www.w3.org/1999/xlink" x="0px" y="0px"
	 width="380.609px" height="380.609px" viewBox="0 0 380.609 380.609" enable-background="new 0 0 380.609 380.609"
	 xml:space="preserve">
<g>
	<defs>
		<circle id="SVGID_1_" cx="190.305" cy="190.305" r="190.305"/>
	</defs>
	<clipPath id="SVGID_2_">
		<use xlink:href="#SVGID_1_"  overflow="visible"/>
	</clipPath>
	<g clip-path="url(#SVGID_2_)">
		<rect x="-57.007" y="-4.247" fill="#1F3E45" width="484.085" height="389.102"/>
		<path fill="#27675B" d="M-247.206,187.396c-9.168-0.367,72.243-8.176,110.014-16.557c37.772-8.38,31.171-7.582,67.109-10.731
			c35.938-3.149,56.841,6.096,71.876,7.157c15.035,1.061,2.2-0.514,33.004,3.574c30.804,4.088,23.347,20.48,65.03,4.767
			c41.684-15.713,50.178-20.639,63.35-22.576c13.172-1.938,20.953-7.379,41.449-1.725c20.496,5.654,18.499,10.054,46.268,12.988
			c27.768,2.933,96.344-6.174,127.148-12.988c30.803-6.814,111.848-7.901,127.982-4.241c16.136,3.66,8.068-5.141,44.373,16.495
			c36.305,21.637,41.805,7.334,56.84,34.472c15.035,27.137,6.234,61.792,5.502,64.083c-0.734,2.293-3.668,58.399-3.668,58.399
			l-826.941-22.37L-247.206,187.396z"/>
		<path fill="#2D7B6C" d="M-138.466,375.495l6.402,82.14l615.386-47.963l-9.846-126.337l-14.102,1.1l-1.096-0.887
			c0.125-0.533,0.238-1.074,0.338-1.619l1.919,0.488l-1.755-1.489c0.073-0.479,0.137-0.964,0.188-1.454l3.23-0.721l-2.022-1.79
			l3.206-6.159l-4.036-3.64l-0.26-3.336l-0.601,2.612l-0.53-0.158l-0.494-2.013l0.667-3.466c0,0-0.552,0.258-1.367,0.617
			l-0.887-3.609l0.243-2.552l0.115-1.182l-1.361-2.159c0.207-0.485,0.332-0.771,0.332-0.771l-0.783,0.059l-1.285-2.041l-3.069,1.848
			l-0.142-5.891l-2.335,1.073l-0.621-3.768l-3.982,3.235l-2.567-4.535l-1.59-4.742l-2.066,2.863l-0.421,4.797l-0.077,0.247
			l-2.385-4.82l-1.311,4.192l-3.381-1.74l-0.115,0.561l-2.469-1.415l0.307,3.942l-2.494,0.303l1.924,3.944
			c-0.021,0.015-0.041,0.027-0.063,0.042l-1.258-0.149l-2.297-2.069l-0.275-3.529l-0.566,2.773l-1.988-1.789l0.654,4.081
			l-6.117-0.729l4.577,4.682l-3.448-0.478l3.135,5.745c-0.148,0.271-0.291,0.549-0.431,0.828l-2.442,1.027l-2.145-0.924l0.506,1.614
			l-1.477,0.621l2.104,1.776l-2.778,1.672l-0.141-5.891l-2.334,1.073l-0.623-3.767l-3.982,3.234l-2.567-4.533l-1.59-4.744
			l-2.065,2.863l-0.421,4.797l-0.077,0.246l-2.387-4.818l-1.31,4.191l-3.38-1.739l-0.116,0.56l-2.469-1.415l0.308,3.942
			l-2.494,0.303l1.923,3.944c-0.021,0.015-0.041,0.028-0.062,0.043l-1.258-0.149l-2.298-2.068l-0.275-3.531l-0.565,2.774
			l-1.989-1.79l0.654,4.082l-6.118-0.73l4.578,4.684l-3.448-0.479l3.136,5.744c-0.148,0.271-0.291,0.549-0.432,0.829l-2.441,1.027
			l-2.146-0.924l0.508,1.614l-1.477,0.621l2.275,1.92l0.824,2.627l-4.816,4.27l2.644,0.584l-5.005,2.898l5.721,2.008l0.719,1.275
			c0.024,0.271,0.052,0.545,0.081,0.814l-6.271,0.489l-0.211-0.226l-0.711,0.297l-4.018,0.313l0.018-4.535l-3.59,1.17l-0.791-3.754
			l-6.179,3.407l-3.715-4.447l-2.222-4.693l-3.254,2.955l-0.833,4.832l-0.126,0.249l-3.428-4.738l-2.159,4.259l-5.062-1.61
			l-0.199,0.567l-3.691-1.32l0.308,3.942l-3.8,0.405l2.762,3.879c-0.031,0.016-0.063,0.029-0.098,0.046l-1.902-0.101l-3.405-1.982
			l-0.275-3.529l-0.972,2.806l-2.947-1.715l0.828,4.067l-9.258-0.484l6.083,4.059l-2.854,0.223l-1.685-0.109l0.183,0.227
			l-24.491,1.909c0.119-0.278,0.187-0.437,0.187-0.437l-0.781,0.061l-1.284-2.041l-3.069,1.847l-0.142-5.89l-2.335,1.072
			l-0.622-3.768l-3.983,3.236l-2.566-4.535l-1.59-4.744l-2.066,2.863l-0.421,4.799l-0.077,0.246l-2.386-4.82l-1.311,4.192
			l-3.38-1.74l-0.115,0.56l-2.469-1.414l0.307,3.941l-2.495,0.304l1.925,3.944c-0.021,0.016-0.041,0.027-0.063,0.043l-1.257-0.15
			l-2.299-2.068l-0.275-3.531l-0.566,2.775l-1.987-1.789l0.653,4.08l-2.046-0.244l-0.02-0.801l-1.381,0.634l-1.047-0.125
			l-0.528-3.204l-3.981,3.236l-2.568-4.536l-1.59-4.743l-2.066,2.863l-0.421,4.799l-0.076,0.245l-2.386-4.819l-1.311,4.191
			l-3.381-1.74l-0.115,0.561l-2.469-1.414l0.307,3.941l-2.348,0.285l-0.087-3.627l-2.335,1.072l-0.621-3.768l-3.982,3.236
			l-2.567-4.535l-1.591-4.743l-2.065,2.862l-0.421,4.799l-0.076,0.246l-2.387-4.82l-1.311,4.193l-3.38-1.74l-0.115,0.559
			l-2.47-1.414l0.308,3.942l-2.495,0.302l1.925,3.945c-0.021,0.015-0.042,0.027-0.063,0.043l-1.257-0.15l-2.298-2.068l-0.275-3.531
			l-0.566,2.774l-1.988-1.79l0.654,4.082l-6.117-0.73l3.629,3.715l-0.881,0.715l-1.618-0.225l0.582,1.066l-0.043,0.035l-2.567-4.535
			l-1.59-4.743l-2.066,2.863l-0.421,4.798l-0.077,0.246l-2.385-4.819l-1.311,4.192l-3.38-1.741l-0.116,0.562l-2.469-1.415
			l0.308,3.941l-2.495,0.304l1.924,3.943c-0.021,0.016-0.042,0.027-0.063,0.044l-1.257-0.151l-2.298-2.068l-0.275-3.53l-0.567,2.774
			l-1.987-1.789l0.653,4.08l-4.282-0.511l-0.008-0.36l-0.623,0.285l-1.204-0.143l0.469,0.479l-0.977,0.45l-0.623-3.768l-3.982,3.236
			l-2.568-4.535l-1.59-4.744l-2.066,2.863l-0.42,4.798l-0.077,0.246l-2.387-4.819l-1.31,4.192l-3.38-1.741l-0.115,0.561
			l-2.469-1.414l0.307,3.941l-2.494,0.303l1.923,3.945c-0.02,0.015-0.041,0.027-0.063,0.043l-1.257-0.15l-2.298-2.068l-0.276-3.531
			l-0.565,2.775l-1.989-1.789l0.654,4.08l-2.185-0.262l-0.225-1.359l-1.432,1.163l-2.274-0.272l1.155,1.182l-1.432,1.163
			l-2.567-4.536l-1.59-4.742l-2.065,2.863l-0.42,4.798l-0.078,0.245l-2.385-4.818l-1.311,4.191l-3.379-1.74l-0.117,0.561
			l-2.469-1.415l0.307,3.942l-2.494,0.303l1.924,3.944c-0.021,0.015-0.041,0.027-0.063,0.044l-1.257-0.151l-2.298-2.068l-0.275-3.53
			l-0.566,2.774l-1.989-1.79l0.654,4.081l-2.301-0.274l0.237-2.479l0.115-1.183l-1.362-2.159c0.208-0.484,0.332-0.771,0.332-0.771
			l-0.783,0.059l-1.284-2.04l-3.069,1.847l-0.141-5.889l-2.336,1.072l-0.622-3.768l-3.982,3.236l-2.567-4.536l-1.59-4.743
			l-2.067,2.863l-0.42,4.797l-0.077,0.247L84.1,289.92l-0.792,2.532l-0.381-0.676l-1.591-4.743l-2.066,2.863l-0.253,2.877
			l-1.839-1.054l-0.791-1.599l-1.311,4.191l-3.38-1.74l-0.116,0.561l-2.468-1.415l0.307,3.942l-1.974,0.24l-1.364-2.411l-1.59-4.743
			l-2.066,2.863l-0.42,4.797l-0.077,0.247l-2.386-4.819l-1.311,4.191l-3.38-1.74l-0.116,0.56l-2.468-1.413l0.307,3.941l-2.494,0.303
			l1.924,3.944c-0.021,0.015-0.042,0.027-0.063,0.043l-1.257-0.15l-2.298-2.067l-0.275-3.531l-0.566,2.775l-1.988-1.791l0.654,4.082
			l-6.117-0.73l1.638,1.675l-3.767,3.06l-2.567-4.534l-1.591-4.743l-2.065,2.861l-0.421,4.799l-0.078,0.246l-2.384-4.82
			l-1.311,4.193l-3.38-1.74l-0.116,0.561l-2.468-1.415l0.307,3.942l-2.496,0.303l0.811,1.658l-1.739,0.799l-0.162-0.146
			l-0.588-3.563l-0.235,0.191l-0.054-0.702l-0.182,0.896l-1.3,1.055l-1.072-0.965l0.261,1.625l-1.398,1.137l-2.568-4.535
			l-1.589-4.743l-2.066,2.862l-0.421,4.799l-0.078,0.246l-2.385-4.82l-1.311,4.193l-3.38-1.741l-0.116,0.56l-0.207-0.118
			l-0.234-1.421l-0.929,0.754l-1.099-0.629l0.02,0.251l-3.438-3.101l-0.26-3.338l-0.6,2.614l-0.531-0.159l-0.494-2.012l0.667-3.465
			c0,0-0.553,0.256-1.368,0.617l-0.887-3.609l0.245-2.553l0.114-1.182l-1.362-2.16c0.21-0.484,0.333-0.771,0.333-0.771l-0.783,0.06
			l-1.285-2.04l-3.069,1.846l-0.142-5.889l-2.336,1.071l-0.621-3.767l-3.982,3.236l-2.568-4.535l-1.59-4.744l-2.066,2.863
			l-0.42,4.799l-0.078,0.245l-2.385-4.819l-1.311,4.191l-3.38-1.739l-0.116,0.559l-2.469-1.413l0.307,3.941l-2.494,0.303
			l1.924,3.945c-0.02,0.015-0.041,0.027-0.063,0.042l-1.256-0.149l-2.299-2.068l-0.275-3.531l-0.567,2.775l-1.988-1.79l0.655,4.081
			l-6.117-0.73l4.577,4.684l-3.449-0.479l3.134,5.744c-0.146,0.271-0.29,0.549-0.43,0.83l-2.441,1.027l-2.146-0.924l0.507,1.613
			l-1.476,0.622l2.275,1.919l0.824,2.627l-2.004,1.777l-0.047-0.141l-0.363,0.502l-2.403,2.131l0.747,0.165l-0.047,0.065
			l-0.137,1.558l-1.622,0.938l-1.124-2.271l-1.311,4.192l-3.38-1.741l-0.116,0.561l-2.469-1.414l0.292,3.738l-0.297,0.241
			l-2.181,0.265l0.526,1.079l-0.92,0.747l-1.503-2.655l-0.072-0.933l-0.122,0.592l-0.871-1.539l-1.59-4.742l-2.065,2.862
			l-0.421,4.798l-0.077,0.246l-2.385-4.818l-1.311,4.191l-3.379-1.74l-0.116,0.559l-2.469-1.414l0.307,3.943l-2.494,0.303
			l1.924,3.945c-0.02,0.014-0.042,0.027-0.063,0.041l-1.256-0.149l-2.299-2.069l-0.275-3.529l-0.565,2.774l-1.989-1.79l0.654,4.082
			l-6.117-0.731l4.577,4.684l-3.449-0.479l3.134,5.743c-0.147,0.273-0.29,0.55-0.43,0.831l-1.484,0.624l-0.071-2.979l-2.335,1.072
			l-0.623-3.767l-3.98,3.235l-2.568-4.535l-1.591-4.743l-2.065,2.863l-0.421,4.797l-0.076,0.246l-2.386-4.818l-1.311,4.191
			l-3.38-1.74l-0.115,0.561l-2.469-1.415l0.307,3.942l-2.494,0.303l1.924,3.943c-0.021,0.016-0.042,0.028-0.064,0.044l-1.256-0.15
			l-2.298-2.067l-0.275-3.532l-0.566,2.775l-1.989-1.79l0.622,3.875l-0.292,0.021l-1.285-2.039l-2.818,1.695l-0.255-0.031
			l-0.137-5.707l-2.335,1.072l-0.622-3.768l-3.983,3.235l-2.566-4.534l-1.589-4.744l-2.067,2.863l-0.421,4.799l-0.077,0.246
			l-2.385-4.82 M455.782,258.77l0.46,2.629c-0.189-0.43-0.386-0.851-0.59-1.266L455.782,258.77z M166.755,306.28l0.001,0.004h-0.001
			V306.28z M253.144,298.69l-0.407-0.057l-0.01-0.369L253.144,298.69z M228.002,295.712l-0.691,0.416l-0.046-1.927L228.002,295.712z
			 M169.053,304.901l-0.372,0.225l-1.96-0.272l-0.058-2.397L169.053,304.901z M44.413,304.67l-0.382,0.175l-1.611-0.224
			l-0.395-2.395L44.413,304.67z M21.319,308.583c-0.021,0.014-0.042,0.026-0.064,0.041l-0.524-0.063l-0.029-1.244L21.319,308.583z
			 M-9.633,290.784l0.458,2.629c-0.188-0.428-0.385-0.85-0.589-1.266L-9.633,290.784z M-54.094,306.264l-0.053,0.601l-0.077,0.245
			l-0.534-1.08L-54.094,306.264z"/>
		<g>
			<circle fill="#BBB494" cx="133.788" cy="87.666" r="28.838"/>
			<circle fill="#948759" cx="121.62" cy="96.911" r="8.881"/>
			<circle fill="#948759" cx="128.989" cy="70.322" r="5.798"/>
			<circle fill="#948759" cx="152.565" cy="90.248" r="3.508"/>
			<circle fill="#BBB494" cx="125.901" cy="69.324" r="5.961"/>
			<circle fill="#BBB494" cx="123.385" cy="96.208" r="5.962"/>
			<circle fill="#948759" cx="113.907" cy="77.523" r="3.509"/>
		</g>
		<path fill="#20423A" d="M151.367,255.53c-1.382-3.869-4.974-8.023-5.941-18.105c-0.327-3.402-0.371-5.986-0.758-8.199
			c2.278,4.748,3.107,6.855,3.107,6.855c-0.632-7.914-3.517-10.604-4.847-11.436c-1.353-2.035-3.647-4.034-7.629-6.534
			c0.005,0.002,0.021,0.009,0.021,0.009s-0.036-0.021-0.09-0.052c-0.493-0.309-1.002-0.622-1.548-0.947
			c-2.997-1.785-5.66-3.113-8.056-4.15c-0.02-0.01-0.04-0.02-0.059-0.029c-0.319-0.154-0.737-0.324-1.231-0.509
			c-3.516-1.429-6.422-2.246-8.912-2.986c-2.255-0.782-4.518-1.635-6.409-2.537c-0.06-0.029-0.116-0.048-0.175-0.075
			c-2.793-1.358-5.488-1.313-7.763-1.391c-0.169-0.007-0.333-0.013-0.51-0.021c-0.061-0.003-0.12-0.008-0.18-0.011
			c-2.252-0.11-3.75-1.184-5.041-2.503c-0.613-0.709-1.262-1.503-2.013-2.252c-0.014-0.015-0.027-0.031-0.041-0.047
			c-1.637-1.828-3.616-2.348-3.616-2.348c0.013,0.008,0.025,0.021,0.039,0.029c-1.427-0.497-3.157-0.669-5.356-0.237
			c-7.737,1.52-5.94,12.849-6.494,14.37c-0.553,1.52-2.487,2.072-2.625,6.355c0,0-3.04,5.527-3.592,8.566
			c-0.355,1.951-2.135,5.015-4.095,6.111c-0.288,0.135-1.052,0.439-1.821,0.352c-0.488-0.104-0.964-0.369-1.407-0.887
			c-2.763-3.228-5.388-16.214-12.71-20.774c0,0-1.796-1.105-0.691,2.073c1.106,3.177,0.801,1.795-0.359,3.039
			c-1.16,1.243,0.222,1.52,1.466,1.381c1.243-0.139,3.453,0.691,3.039,4.974c-0.365,3.778,0.563,10.776,3.537,13.703
			c-4.742-1.474-11.83-5.891-13.484-18.663c0,0-1.659-2.625-0.967,1.796c0.511,3.27,2.918,15.294,11.566,18.715
			c-9.166-0.538-15.32-9.339-16.09-18.513c-0.359-4.269-1.965-2.121-1.965-2.121c-0.25,15.227,7.781,25.059,21.591,23.74
			c2.248-0.214,4.289-0.637,6.133-1.197c3.547,1.334,7.971,1.379,13.306-4.473l1.382-0.967c0,0-0.69,3.453,2.764,0.967
			c3.454-2.487,4.145-6.258,7.322-3.682c0.467,0.379,0.872,0.826,1.239,1.32c0.292,2.109,0.916,4.998,1.109,7.611
			c0.276,3.73,0.809,7.046-0.632,11.328c-1.439,4.283-2.545,4.975-3.098,8.152c-0.552,3.178,0.919,5.389,8.059,4.421
			c0.118-0.017,0.222-0.03,0.332-0.046c0.193,0.389,0.524,0.85,1.014,1.423c1.89,2.21,12.011,1.524,13.807,0.005
			s-3.454-14.922-0.967-17.686c2.973-1.783,9.025-0.068,14.437,1.26c2.023,1.133,3.531,2.539,3.8,4.268
			c0.968,6.217-0.138,4.836-1.381,6.77c-1.244,1.935,4.581,5.729,11.064,2.035l0.256-8.65c1.172,1.378,1.773,2.805,1.529,4.129
			c-0.691,3.73-2.625,4.145-1.382,5.388c1.244,1.244,10.639,1.521,13.955,0.691C154.915,264.936,152.748,259.398,151.367,255.53z
			 M99.79,262.866c-0.133-0.881-0.199-2.095,0.1-3.795C100.834,261.545,100.608,262.333,99.79,262.866z"/>
		<g>
			<path fill="#A87E6E" d="M287.021,238.399c0,0-51.129,76.439-61.009,91.541c-9.88,15.1-10.759,18.049-12.009,16.346
				c-1.25-1.705-4.953-10.618-12.492-16.613c-7.537-5.995-3.288-8.486-7.537-5.995c-4.254,2.486-4.782,12.196-0.189,17.316
				c4.59,5.12,9.154,12.774,14.58,18.751c5.428,5.971,3.209,15.662,16.398,7.356c0,0,3.416-13.392,12.818-23.429
				c9.405-10.039,20.064-4.008,28.617-18.767c7.71-13.306,5.308-25.817,5.308-25.817s21.519-27.314,37.771-36.007
				c0,0-10.071,27.13-7.727,44.479c2.347,17.345,14.779,16.607,34.141,23.156c19.363,6.546,17.824,5.633,19.813,6.461
				c4.748,1.973,12.798,2.289,16.463,6.873c4.254,5.318,9.339,20.489-2.077,19.328c-5.374-0.544-10.757-0.579-12.081,4.477
				c-1.321,5.055,4.262,4.84,9.055,4.891c16.471,0.17,11.501-1.983,22.04,0.243c10.535,2.226-0.766-17.743,4.749-40.206
				c2.226-9.06-16.484-1.713-25.275-11.295c-14.204-15.488-31.527-10.104-32.908-14.255c-3.569-10.743,12.217-38.046,13.985-45.206
				C351.222,254.864,287.021,238.399,287.021,238.399z"/>
			<path fill="#A87E6E" d="M213.488,115.903c-2.791-12.419,12.809-26.488,19.2-26.775c15.075-0.668,36.853-6.179,43.015,15.45
				c6.166,21.632,3.104,33.577-19.67,43.392C232.794,157.987,221.366,150.95,213.488,115.903z"/>
			<path fill="#A87E6E" d="M275.891,116.559c6.738-2.801,52.412-16.679,64.412-18.464c11.999-1.789,25.747,11.781,23.748,19.425
				c-2,7.646-12.876,7.582-26.267,10.736c-7.262,1.709-16.68,9.837-16.68,9.837s-24.779-5.975-15.071-17.355
				c11.906-13.948,19.76-10.343,23.551-6.469c3.791,3.876,3.791,3.876,3.791,3.876s15.771-4.705,12.652-3.372
				c-4.94,2.109-27.502,14.554-27.11,22.703c0.387,8.151,11.563,20.41,18.465,27.672c6.905,7.266,14.44,19.327,14.44,19.327
				s-60.916,61.864-67.612,41.669c-10.603-31.977-3.067-34.771-30.064-48.965c-14.54-7.64-16.585-17.43-29.195-3.19
				c-12.618,14.238-11.824,29.58,13.05,33.686c0,0,6.816-9.989,16.825-5.087c10.011,4.9,12.378,7.802,7.521,13.499
				c-4.854,5.696-5.244,20.548-17.753,13.707c-12.513-6.847-12.938-11.643-12.438-13.559c0.499-1.909-0.501,1.916-0.501,1.916
				s-31.567,4.043-34.764-20.387c-2.233-17.065,0.948-42.76,39.927-57.667C275.796,125.184,275.891,116.559,275.891,116.559z"/>
			<path fill="#3B2416" d="M284.21,226.143c0,0,25.598-11.936,67.612-41.669c0,0,15.168,15.142,16.367,37.077
				c1.102,20.167-0.896,38.325-0.896,38.325c-5.021,4.735-18.866,16.087-19.839,17.517c-0.974,1.425-16.528-3.771-16.528-3.771
				s-15.732-0.949-17.738,7.175c-2.004,8.124-11.584-7.245-11.584-7.245l-8.375,4.441c0,0-12.042,5.619-9.614,2.771
				c2.427-2.848,2.558-14.828,2.558-14.828l-2.703-0.988l-16.605-1.14C266.863,263.808,289.553,233.366,284.21,226.143z"/>
			<path fill="#916758" d="M278.513,118.504c0,0,2.908,18.242-13.011,27.653c-15.914,9.409-20.1,9.365-20.1,9.365
				S291.332,152.188,278.513,118.504z"/>
			<path fill="#916758" d="M268.275,167.005c-3.311-3.401,17.434,10.09,38.869,0.422c23.186-10.451-30.305,21.237-31.885,23.613
				C273.683,193.42,278.641,177.661,268.275,167.005z"/>
			<path fill="#916758" d="M279.646,182.352c0,0,8.959,7.482,7.411,14.114c-1.549,6.626,10.001-2.848,12.997-6.874
				c2.998-4.033-9.936,4.683-14.988-9.77L279.646,182.352z"/>
			<path fill="#916758" d="M329.584,114.269c0,0-5.714-5.554-16.06-0.523c-10.346,5.029-13.325,14.514-5.774,18.496
				C307.75,132.241,298.907,114.894,329.584,114.269z"/>
			<g>
				
					<rect x="257.101" y="51.345" transform="matrix(0.779 0.627 -0.627 0.779 179.3993 -121.3697)" fill="#C3996B" width="9.579" height="284.981"/>
			</g>
			<path fill="#A87E6E" d="M233.09,220.541c0,0,5.37,7.496,11.504,9.25c6.13,1.748,10.034-9.015,10.034-9.015l7.757-13.708
				c0,0-9.88-7.353-14.511-5.74C243.241,202.938,233.09,220.541,233.09,220.541z"/>
			<path fill="#A87E6E" d="M313.487,117.219c0,0,9.046-15.486,19.888,0.925l-14.458,19.331c0,0-13.029-3.694-14.204-7.814
				C303.541,125.541,306.979,119.798,313.487,117.219z"/>
			<path fill="#FFFFFF" d="M235.85,132.876c-5.557-3.789,1.701-10.472,9.837-9.441C253.82,124.464,244.414,138.72,235.85,132.876z"
				/>
			<path fill="#FFFFFF" d="M227.54,139.432c6.459-4.74-2.828-11.601-7.061-9.424C216.241,132.188,220.832,144.354,227.54,139.432z"
				/>
			<path fill="#916758" d="M226.853,128.036c0,0-1.858,16.311,2.226,17.401c6.793,1.809,12.883-0.792,12.143-5.541
				c-0.737-4.747-2.494-3.681-2.494-3.681s1.228,7.583-6.24,6.887C227.119,142.603,233.85,134.21,226.853,128.036z"/>
			<circle fill="#3B2416" cx="221.73" cy="135.862" r="2.852"/>
			<circle fill="#3B2416" cx="237.266" cy="129.888" r="3.156"/>
			<path fill="#3B2416" d="M231.449,150.316c0,0,5.496-7.181,15.32-4.086C252.516,148.041,235.934,158.725,231.449,150.316z"/>
			<path fill="#3B2416" d="M248.81,105.083c-4.095-5.77,7.169,6.468,7.445,10.304s-1.099,13.011-0.218,19.927
				c0.885,6.918,0.67-2.75,3.324-11.948c2.658-9.194,6.5-2.235,5.113,3.874c-1.387,6.113,2.129,5.928-2.749,13.971
				c-4.881,8.047,0.231,7.888,4.662,11.878c4.428,3.989-6.662-4.343-1.789-11.844c4.876-7.503,10.37-15.115,10.37-15.115
				s3.84-1.205,1.217,5.769c-2.622,6.972,0.243,2.877-1.681,5.564c-1.927,2.687,10.707-2.033,8.065-13.841
				c-2.638-11.809-3.967-6.711-2.086-18.19c1.879-11.481-4.887-17.306-16.766-20.949c-11.88-3.645-11.634,3.066-18.945-0.208
				c-7.313-3.274-8.688-8.716-14.404-4.627c-5.715,4.088-10.852,6.265-14.384,7.989c-3.534,1.718-11.234,4.828-9.376,10.278
				c1.856,5.454,3.035,17.641-0.541,21.735c-3.575,4.098-3.951,9.38-9.684,7.631c-5.73-1.747,6.328,5.733,10.878-1.567
				c4.553-7.296,5.727,2.301,2.172,5.937c-3.553,3.634-0.253,2.68,3.522-0.441c3.775-3.124,4.252-1.674,4.252-1.674
				s-3.209-6.301,3.917-15.17c7.124-8.865,16.632,0.505,10.642,6.669c0,0,7.904-3.912,2.574-15.466c0,0,7.781-1.189,9.801,7.134
				C244.143,112.703,252.696,110.558,248.81,105.083z"/>
			<path fill="#916758" d="M310.344,118.854c0,0,9.41,16.248,14.61,16.217l-3.85,3.021c0,0-14.185-0.732-16.392-8.431
				C302.504,121.962,307.287,118.816,310.344,118.854z"/>
			<path fill="#916758" d="M225.267,145.317c0,0,4.359,7.796,10.574,10.1c0,0-10.709,2.422-17.17-6.104L225.267,145.317z"/>
			<path fill="#A6A8AC" d="M173.643,295.48c-2.463-0.347-4.719,1.228-4.719,1.228s-2.292,5.406-2.32,7.961
				c-0.028,2.555-6.763,5.037-6.763,5.037l-1.342,5.906l-4.237,7.451l-0.068,6.438l-3.559,4.067l-0.084,7.983l11.397-9.46
				l0.041-3.833l7.299-5.989l2.307-6.517l9.035-8.276l1.116-6.479L173.643,295.48z"/>
			<path fill="#916758" d="M266.812,268.634l-42.356,63.698l19.284-24.122l12.368-3.331l-6.34-4.35
				C249.768,300.53,266.102,283.427,266.812,268.634z"/>
			<path fill="#2D1C12" d="M287.855,264.606L298,242.353l-3.166,26.587l-11.65,13.924
				C283.184,282.864,289.418,267.817,287.855,264.606z"/>
			<polygon fill="#2D1C12" points="311.7,281.475 312.093,245.424 301.604,273.551 			"/>
			<path fill="#2D1C12" d="M346.854,257.233c-0.97,2.043-0.714,5.24,0.834,7.693c1.553,2.451,5.36,0.473,6.033-3.398
				c0.671-3.873,1.849-29.564-5.253-10.248"/>
			<polygon fill="#2D1C12" points="285.765,225.388 353.877,186.779 287.592,229.782 313.597,218.247 285.646,236.149 			"/>
			<polygon fill="#916758" points="341.31,108.012 345.489,105.821 345.434,110.847 337.436,111.805 			"/>
			<polygon fill="#E0AB76" points="201.218,278.038 241.366,227.907 238.229,226.069 			"/>
			<polygon fill="#E0AB76" points="255.928,203.879 311.689,136.055 314.475,137.426 259.796,205.313 			"/>
			<polygon fill="#E0AB76" points="329.592,113.563 352.315,83.702 354.974,85.845 331.76,115.913 			"/>
			<polygon fill="#929497" points="176.544,300.941 169.581,300.864 172.971,309.215 169.48,310.135 160.725,316.112 
				160.673,320.903 168.583,313.163 166.16,320.005 171.533,313.195 175.511,307.827 			"/>
			<path fill="#2D1C12" d="M236.512,93.935c0,0,11.264,9.011,9.389,15.828C244.021,116.58,258.291,104.488,236.512,93.935z"/>
			<path fill="#2D1C12" d="M268.613,103.138c-3.185-3.967-0.188,17.191-0.188,17.191S276.836,113.37,268.613,103.138z"/>
			<path fill="#3B2416" d="M217.209,129.536c6.729-1.844,9.514-0.873,9.321-3.466c-0.193-2.596-2.721-3.891-9.284-0.102
				C210.685,129.757,217.209,129.536,217.209,129.536z"/>
			<path fill="#3B2416" d="M229.981,121.568c0.123,2.497-0.495,5.658,6.438,2.28c6.935-3.377,8.197-0.902,9.393-3.189
				c1.198-2.286-0.932-6.333-5.855-4.764C235.032,117.466,229.981,121.568,229.981,121.568z"/>
		</g>
	</g>
</g>
</svg>
