<?xml version="1.0" encoding="utf-8"?>
<!-- Generator: Adobe Illustrator 16.0.0, SVG Export Plug-In . SVG Version: 6.00 Build 0)  -->
<!DOCTYPE svg PUBLIC "-//W3C//DTD SVG 1.1//EN" "http://www.w3.org/Graphics/SVG/1.1/DTD/svg11.dtd">
<svg version="1.1" id="Layer_1" xmlns="http://www.w3.org/2000/svg" xmlns:xlink="http://www.w3.org/1999/xlink" x="0px" y="0px"
	 width="43.292px" height="33.093px" viewBox="0 0 43.292 33.093" enable-background="new 0 0 43.292 33.093" xml:space="preserve">
<path fill="#7FA9BF" d="M0.956,10.109c-0.847-1.248-1.641-1.592,0-3.621c1.642-2.027,1.647-4.635,3.093-4.777
	c1.445-0.145,2.604,1.303,3.618,0c1.014-1.305,2.317-2.172,2.607-1.449c0.289,0.725,1.309,1.305,2.175,0.725
	c0.866-0.58,0.147,1.014,0,1.447c-0.148,0.434,1.589,0.725,3.328,1.305c1.738,0.578,5.069-1.305,12.165-1.305
	c7.097,0,15.351,3.041,15.351,7.676S41.83,22.42,40.237,25.17c-1.593,2.754-1.725,5.57-3.606,6.84
	c-1.883,1.271-3.477,0.926-2.462-0.494c1.014-1.422,1.986-4.752,2.131-6.633h-1.117c0,0-1.449,5.879-3.041,6.633
	c-1.594,0.752-4.055,1.477-2.896-0.697c1.158-2.172,2.462-2.895,2.606-6.082c0,0-4.331-0.678-9.124-2.172
	c0,0-0.578,1.447-1.737,1.738c0,0,0.551,5.213,0.638,5.938c0.086,0.725-0.783,0.789-1.217,1.77c-0.435,0.982-2.317,1.07-2.172-0.494
	c0.145-1.564,0.435-2.869,0-4.605c0,0-0.145,5.256-1.158,5.885c-1.014,0.631-3.331,0.285-2.752-1.279
	c0.58-1.564,1.593-3.883,1.303-6.633c0,0-3.614-1.885-7.382-6.953c-3.769-5.069-4.2-8.254-4.2-8.254S1.919,11.527,0.956,10.109z"/>
</svg>
