<?xml version="1.0" encoding="utf-8"?>
<!-- Generator: Adobe Illustrator 16.0.0, SVG Export Plug-In . SVG Version: 6.00 Build 0)  -->
<!DOCTYPE svg PUBLIC "-//W3C//DTD SVG 1.1//EN" "http://www.w3.org/Graphics/SVG/1.1/DTD/svg11.dtd">
<svg version="1.1" id="Layer_1" xmlns="http://www.w3.org/2000/svg" xmlns:xlink="http://www.w3.org/1999/xlink" x="0px" y="0px"
	 width="147.823px" height="34.354px" viewBox="0 0 147.823 34.354" enable-background="new 0 0 147.823 34.354"
	 xml:space="preserve">
<rect fill-rule="evenodd" clip-rule="evenodd" fill="#231F20" width="147.824" height="34.354"/>
<g>
	<g>
		<path fill-rule="evenodd" clip-rule="evenodd" fill="#F0EFEF" d="M28.714,12.293c-1.291,3.574-2.617,7.137-3.849,10.73
			c-0.324,0.947-0.851,1.121-1.75,1.162c-1.002,0.047-1.386-0.393-1.683-1.244c-1.112-3.186-2.32-6.34-3.373-9.545
			c-0.144-0.438-1.222-1.395,0.096-1.631c0.815-0.146,2.065-0.664,2.521,0.824c0.653,2.131,1.348,4.248,2.044,6.367
			c0.131,0.396,0.353,0.766,0.627,1.35c0.776-2.396,1.592-4.549,2.157-6.768c0.5-1.965,1.501-2.352,3.201-1.492
			C28.714,12.129,28.717,12.211,28.714,12.293z"/>
		<path fill-rule="evenodd" clip-rule="evenodd" fill="#EFEEEE" d="M10.055,21.605c1.048,0.211,2.077,0.518,3.124,0.596
			c0.701,0.053,1.472-0.199,1.687-1.045c0.224-0.879-0.122-1.537-0.963-1.918c-0.781-0.355-1.576-0.686-2.334-1.084
			c-1.41-0.744-2.102-1.895-1.907-3.529c0.184-1.545,1.156-2.443,2.502-2.951c1.242-0.469,2.56-0.346,3.833-0.096
			c1.12,0.221,0.914,1.186,0.812,1.924c-0.147,1.068-0.806,0.322-1.274,0.264c-0.568-0.07-1.141-0.117-1.712-0.145
			c-0.724-0.033-1.276,0.27-1.477,0.984c-0.22,0.785,0.333,1.217,0.909,1.523c0.756,0.406,1.576,0.689,2.341,1.08
			c1.497,0.762,2.225,2.008,2.076,3.686c-0.149,1.691-1.134,2.713-2.725,3.242c-0.983,0.328-1.976,0.363-2.981,0.268
			C10.215,24.238,9.319,23.465,10.055,21.605z"/>
		<path fill-rule="evenodd" clip-rule="evenodd" fill="#F1F0F0" d="M30.802,10.904c0.089-1.24,0.5-1.527,1.629-1.609
			c1.295-0.094,1.203,0.664,1.155,1.475c-0.039,0.658,0.29,0.918,0.896,0.912c0.754-0.008,1.438-0.039,1.445,1.07
			c0.006,1.02-0.499,1.213-1.35,1.172c-0.541-0.027-1,0.109-0.99,0.822c0.025,1.947-0.025,3.898,0.064,5.844
			c0.046,0.99,0.65,1.605,1.736,1.418c0.758-0.131,1.207-0.098,1.186,0.893c-0.02,0.846-0.207,1.32-1.109,1.508
			c-2.354,0.488-4.238-0.725-4.481-3.133c-0.166-1.646-0.005-3.322-0.118-4.975c-0.066-0.955,0.735-2.42-1.29-2.516
			c-0.559-0.025-0.091-0.697-0.074-1.078c0.03-0.662,1.66-1.082,1.186-0.82L30.802,10.904z"/>
		<path fill-rule="evenodd" clip-rule="evenodd" fill="#F0EFEF" d="M54.745,20.252c0.52,2.176,1.967,2.23,3.546,2.162
			c0.685-0.029,1.712-0.658,1.929,0.604c0.256,1.486-1.092,1.072-1.773,1.221c-2.018,0.438-3.973,0.145-5.208-1.67
			c-1.237-1.814-1.097-3.848-0.052-5.727c0.967-1.738,3.158-2.5,5.092-1.809c1.775,0.635,2.437,2.07,2.545,3.879
			c0.061,1.004-0.182,1.434-1.285,1.363C58.032,20.18,56.515,20.252,54.745,20.252z M58.573,18.414
			c-0.308-1.34-0.903-1.979-2.02-1.859c-1.043,0.109-1.567,0.768-1.654,1.859C56.142,18.414,57.276,18.414,58.573,18.414z"/>
		<path fill-rule="evenodd" clip-rule="evenodd" fill="#EBEBEB" d="M48.95,14.877c0.201,0.029,0.707,0.061,1.193,0.178
			c0.607,0.146,0.809,0.555,0.537,1.139c-0.197,0.426-0.244,0.924-1.035,0.65c-0.748-0.256-1.891-0.68-2.227,0.438
			c-0.313,1.041,0.902,1.137,1.553,1.422c1.271,0.559,2.285,1.264,2.28,2.797c-0.004,1.199-0.636,2.055-1.718,2.514
			c-1.469,0.621-2.965,0.49-4.406-0.105c-0.488-0.203-0.377-0.707-0.236-1.133c0.156-0.473,0.422-0.635,0.966-0.551
			c0.989,0.154,2.437,0.963,2.812-0.406c0.388-1.414-1.396-1.289-2.234-1.811c-1.179-0.736-1.773-1.695-1.367-3.068
			C45.595,15.15,47.033,14.832,48.95,14.877z"/>
		<path fill-rule="evenodd" clip-rule="evenodd" fill="#58A145" d="M37.821,21.604c0.244-1.633,0.957-2.762,2.752-2.732
			c1.791,0.031,2.567,1.111,2.572,2.783c0.004,1.734-0.993,2.734-2.662,2.723C38.782,24.365,37.978,23.215,37.821,21.604z"/>
	</g>
</g>
<path fill="#A6A8AC" d="M120.89,10.424c0,0.627,0.508,1.135,1.137,1.135h12.826c0.627,0,1.137-0.508,1.137-1.135l0,0
	c0-0.627-0.51-1.137-1.137-1.137h-12.826C121.398,9.287,120.89,9.797,120.89,10.424L120.89,10.424z"/>
<path fill="#A6A8AC" d="M120.89,16.424c0,0.627,0.508,1.135,1.137,1.135h12.826c0.627,0,1.137-0.508,1.137-1.135l0,0
	c0-0.627-0.51-1.137-1.137-1.137h-12.826C121.398,15.287,120.89,15.797,120.89,16.424L120.89,16.424z"/>
<path fill="#A6A8AC" d="M120.755,22.559c0,0.627,0.508,1.137,1.135,1.137h12.828c0.627,0,1.135-0.51,1.135-1.137l0,0
	c0-0.627-0.508-1.135-1.135-1.135H121.89C121.263,21.424,120.755,21.932,120.755,22.559L120.755,22.559z"/>
</svg>
