<?xml version="1.0" encoding="utf-8"?>
<!-- Generator: Adobe Illustrator 16.0.0, SVG Export Plug-In . SVG Version: 6.00 Build 0)  -->
<!DOCTYPE svg PUBLIC "-//W3C//DTD SVG 1.1//EN" "http://www.w3.org/Graphics/SVG/1.1/DTD/svg11.dtd">
<svg version="1.1" id="Layer_1" xmlns="http://www.w3.org/2000/svg" xmlns:xlink="http://www.w3.org/1999/xlink" x="0px" y="0px"
	 width="388.413px" height="591.519px" viewBox="0 0 388.413 591.519" enable-background="new 0 0 388.413 591.519"
	 xml:space="preserve">
<g>
	<g>
		<g>
			<path fill="#D8BCAD" d="M0,591.519c0,0,93.663-150.365,91.108-190.387c-2.555-40.018-24.693-102.176-20.435-137.085
				c4.256-34.912,7.766-78.336,20.486-91.961c12.72-13.623,26.344-12.771,39.968-31.504c13.624-18.732,19.583-32.355,31.505-20.436
				c11.921,11.922,0,61.307-6.812,71.523c-6.812,10.219-17.029,41.723-12.772,47.684c4.257,5.961,24.66-19.584,24.66-19.584
				S298.869,82.682,319.305,84.387c20.436,1.701,28.949,16.178,27.248,28.949c-1.703,12.771-11.07,18.732-11.07,18.732
				s24.693-0.852,28.098,20.436c3.406,21.287-7.662,26.396-7.662,26.396s30.652,5.107,28.1,30.652
				c-2.555,25.545-8.516,23.84-8.516,23.84s14.475,9.367,12.771,27.248s-12.771,18.732-16.178,28.951
				c-3.406,10.216-21.287,40.115-29.801,54.968c-8.516,14.852-17.883,37.842-41.723,70.197
				c-23.841,32.355-48.534,38.316-64.713,63.859c-16.178,25.547-41.652,112.902-41.652,112.902H0z"/>
			<path fill="#D4B9A6" d="M157.922,117.129c0,0,15.873,13.992,0,68.107C157.922,185.236,135.479,124.328,157.922,117.129z"/>
			<path fill="#C59C87" d="M309.938,103.969l-67.266,225.642c0,0,57.049-5.961,67.266,18.73c10.219,24.693,4.258,4.748,5.961-10.398
				c1.703-15.145,5.109-56.435,22.139-35.957c17.029,20.479-5.646-6.338,2.016-12.773c7.133-5.986,39.58-9.961,39.58-9.961
				l-18.605,0.121c0,0-22.99,8.516-36.615-2.555c-13.623-11.068-11.92-24.693,7.664-39.168c0,0-20.695-5.109-20.564-25.543
				c0.129-20.438,23.971-22.139,23.971-22.139s-14.475,1.701-19.584-9.367s-11.069-39.168,1.703-43.424
				c12.771-4.258,17.881-5.109,17.881-5.109s-13.928,8.08-20.436-7.664S309.938,103.969,309.938,103.969z"/>
			<g>
				<path fill="#E7E7E7" d="M158.922,312.781c0,8.045,6.519,14.564,14.563,14.564h129.857c8.044,0,14.564-6.52,14.564-14.564V14.563
					c0-8.041-6.52-14.563-14.564-14.563H173.485c-8.044,0-14.563,6.521-14.563,14.563V312.781z"/>
				<circle fill="#D1D2D3" cx="237.563" cy="303.689" r="15.327"/>
				<circle fill="#FFFFFF" cx="237.563" cy="303.689" r="13.164"/>
				<path fill="#414142" d="M226.494,19.033c0,1.059,0.857,1.916,1.915,1.916h18.521c1.058,0,1.916-0.857,1.916-1.916l0,0
					c0-1.057-0.858-1.914-1.916-1.914h-18.521C227.351,17.119,226.494,17.977,226.494,19.033L226.494,19.033z"/>
			</g>
			<path fill="#D4B9A6" d="M319.238,185.236c0,0-8.58-39.773,0-48.602C319.238,136.635,337.053,183.061,319.238,185.236z"/>
			<path fill="#E1C6BA" d="M345.814,266.846c0,0-12.184,6.172-21.035-4.49c-6.48-7.803-5.744-15.314,5.686-18.703
				C347.277,238.668,373.332,240.658,345.814,266.846z"/>
			<path fill="#E1C6BA" d="M320.688,195.018c0,0,12.986,11.129,18.574,25.605c0,0,29.855-18,18.572-25.605
				C346.553,187.414,320.688,195.018,320.688,195.018z"/>
			<path fill="#E1C6BA" d="M327.156,142.285c-3.316,0.273,18.43,5.109,13.379,26.396c0,0,5.393,13.225,11.125-7.746
				C357.395,139.967,347.779,140.582,327.156,142.285z"/>
			<path fill="#C59C87" d="M158.922,229.797c0,0-4.805,7.854-15.874,9.557l14.414,2.125L158.922,229.797z"/>
			<path fill="#C59C87" d="M355.918,178.9c0,0-8.609,12.707-28.146,12.738C327.771,191.639,337.186,184.008,355.918,178.9z"/>
			<path fill="#C59C87" d="M375.502,233.393c0,0-23.674-10.217-43.426,4.258C332.076,237.65,362.615,210.232,375.502,233.393z"/>
		</g>
	</g>
</g>
</svg>
