<?xml version="1.0" encoding="utf-8"?>
<!-- Generator: Adobe Illustrator 16.0.0, SVG Export Plug-In . SVG Version: 6.00 Build 0)  -->
<!DOCTYPE svg PUBLIC "-//W3C//DTD SVG 1.1//EN" "http://www.w3.org/Graphics/SVG/1.1/DTD/svg11.dtd">
<svg version="1.1" id="Layer_1" xmlns="http://www.w3.org/2000/svg" xmlns:xlink="http://www.w3.org/1999/xlink" x="0px" y="0px"
	 width="553.143px" height="239.772px" viewBox="0 0 553.143 239.772" enable-background="new 0 0 553.143 239.772"
	 xml:space="preserve">
<g>
	<polygon fill="#9C8576" points="70.829,12.131 417.259,10.778 420.464,217.54 42.571,201.579 	"/>
	<path fill="#94796D" d="M371.686,65.569c0,0-120.706-38.014-232.081-32.508c-111.375,5.505,4.525-7.006,41.07,25.005
		c36.544,32.011,231.929,11.83,123.052,38.972C194.848,124.18,94.707,27.684,163.968,85.505
		c69.261,57.822,52.851,59.681,116.744,46.569c63.892-13.11,111.041-39.562,52.312-52.091
		c-58.725-12.53-192.09-20.841-144.344-31.735S335.074,84.567,371.686,65.569z"/>
	<polygon fill="#E0D0C1" points="388.457,49.703 396.113,190.662 245.218,196.579 242.626,219.549 549.5,228.25 549.682,73.718 	"/>
	<path fill="#BE202E" d="M323.551,66.534c0,0,12.215,8.005,12.563,11.137c0,0,28.193,7.657,29.932,20.187
		c1.742,12.53,1.742,23.667,0,29.584c-1.738,5.917,1.436,13.922-2.24,19.143s4.98,25.466-8.396,24.741
		c-13.377-0.727-69.295,11.119-69.295,11.119l-24.132-13.934c0,0-12.238-33.064-11.165-48.378
		c1.072-15.314,3.856-41.417,16.038-43.854c12.182-2.437,23.319-2.437,23.319-2.437L323.551,66.534z"/>
	<path fill="#D5B1A9" d="M324.035,59.906c0,0,4.629,11.376,2.504,16.596c-2.123,5.221-12.912,24.711-15.348,27.148
		c-2.438,2.437-12.877,12.877-16.359,3.829c-3.48-9.049,0.697-23.319,0-29.236C294.137,72.326,324.035,59.906,324.035,59.906z"/>
	<path fill="#E4BDB2" d="M281.259,51.095c1.044,11.138,5.253,38.981,22.972,35.501c15.552-3.055,20.605-9.397,22.308-19.491
		c1.705-10.093,0-5.221,0-5.221s8.668,3.132,10.059-5.568c1.393-8.702-3.01-11.834-7.074-12.182V41.35
		c0,0-22.857-10.093-36.083-8.005C280.215,35.433,281.259,51.095,281.259,51.095z"/>
	<path fill="#FEE7D9" d="M274.414,106.435c0.696-8.353,45.252-4.176,55.109-1.392c0,0,9.998,52.297,2.793,55.21
		c-7.203,2.914-52.404,5.351-59.017-6.483S273.509,117.298,274.414,106.435z"/>
	<path fill="#EBCFC1" d="M330.609,111.105h-45.05l-4.318,2.291h44.22l-27.494,2.436l31.556,3.107c0,0,9.063,28.851-7.992,33.438
		c-17.054,4.588-35.972,6.265-45.144-22.803c-2.549-8.077-3.365-13.959-3.365-13.959s-7.826,22.144-2.927,33.63
		c4.9,11.485,39.29,22.623,53.94,17.054C338.686,160.73,335.41,135.266,330.609,111.105z"/>
	<path fill="#414142" d="M334.67,41.87c0,0-36.457-11.657-49.111-2.956c-12.653,8.701-7.779,16.01-10.913,16.01
		c-3.132,0-4.277-17.323,10.913-23.976C300.75,24.296,336.646,35.257,334.67,41.87z"/>
	<path fill="#D3AAA0" d="M297.211,50.61c0.422-1.688,5.05-6.613,11.226-2.437c6.176,4.177,7.115,4.324,1.252,6.338
		C303.825,56.527,296.168,54.787,297.211,50.61z"/>
	<path fill="#D3AAA0" d="M285.67,49.295c3.584-2.386,9.804,6.928,4.522,8.624C284.774,59.659,276.519,55.39,285.67,49.295z"/>
	<path fill="#D3AAA0" d="M331.146,48.413c0,0,6.727,7.214,2.729,8.854c-3.998,1.64-4.133-2.344-4.133-2.344
		S331.367,53.966,331.146,48.413z"/>
	<polygon fill="#4A423F" points="220.351,20.467 228.109,181.751 368.967,171.344 361.984,35.085 390.197,54.924 397.854,191.033 
		258.235,199.363 150.046,204.583 143.604,180.917 195.292,176.043 193.9,13.506 	"/>
	<path fill="#C7A394" d="M328.871,112.7h-55.124l-0.725,2.915l58.101-1.458c0,0,3.814,29.745,1.32,33.695
		c-2.496,3.95-27.304,12.878-57.797,11.834c0,0,52.451,22.759,60.498,2.964c6.113-15.038-1.127-39.218-4.535-51.545L328.871,112.7z"
		/>
	<path fill="#E4BDB2" d="M341.52,146.004c0,0,7.834-3.615,14.16,0c6.328,3.615,4.52,15.666,0,20.486
		c-4.518,4.82-11.748,9.038-18.678,7.532c-6.93-1.507-8.436-0.886-16.27,0.31c-7.832,1.196-17.473-6.636-13.557-9.95
		c3.916-3.314,13.791-7.833,19.549-7.231c5.758,0.604,9.072-0.903,7.867-4.819c-1.205-3.917-5.121-14.763,0.902-10.545
		c6.025,4.218,8.738,10.545,7.533,14.461C343.027,156.248,346.039,152.03,341.52,146.004z"/>
	<path fill="#F2F2F2" d="M300.053,52.397c-1.967-2.9,6.166-6.068,10.21-2.694c3.305,2.756,0.277,4.382,0.277,4.382
		S303.534,57.527,300.053,52.397z"/>
	<path fill="#F2F2F2" d="M291.217,51.911c0,0-6.496-3.792-8.703,5.361C282.514,57.272,292.083,61.107,291.217,51.911z"/>
	<circle fill="#231F20" cx="304.422" cy="51.701" r="2.492"/>
	<circle fill="#231F20" cx="287.561" cy="54.576" r="2.492"/>
	<path fill="#231F20" d="M274.646,54.924c0,0,6.045-2.393,6.594-6.049c0.547-3.656,1.273-7.616,1.273-7.616
		S275.342,46.571,274.646,54.924z"/>
	<path fill="#F6EC70" d="M336.113,77.671c0,0-4.736,13.101-11,20.758c0,0,8.641-7.851,13.717-19.936L336.113,77.671z"/>
	<g>
		<path fill="#F6EC70" d="M336.334,79.748c3.912,1.212,7.775,2.568,11.58,4.121c1.904,0.774,3.793,1.598,5.656,2.519
			c0.932,0.459,1.854,0.954,2.766,1.49c0.912,0.538,1.811,1.124,2.68,1.858c0.43,0.375,0.855,0.788,1.248,1.32l0.283,0.429
			l0.035,0.054l0.064,0.134l0.041,0.086l0.08,0.174l0.322,0.694c0.193,0.533,0.393,1.13,0.551,1.674l0.383,1.569
			c0.213,1.04,0.396,2.08,0.543,3.114c0.145,1.035,0.281,2.07,0.381,3.102c0.215,2.065,0.367,4.128,0.479,6.189
			c0.109,2.068,0.188,4.112,0.217,6.207l-1.316,1.843c0.006,0.005,0.021,0,0.018,0.004l-0.084,0.059
			c-0.059,0.044-0.111,0.062-0.176,0.119l-0.383,0.321c-0.232,0.279-0.504,0.5-0.693,0.843l-0.318,0.462l-0.25,0.537l-0.254,0.532
			c-0.078,0.181-0.115,0.396-0.178,0.591c-0.096,0.408-0.26,0.772-0.305,1.208l-0.156,1.286l-0.043,0.319l-0.01,0.079
			c-0.008,0.087,0.008-0.106,0.006-0.082v0.012v0.023l-0.002,0.048l-0.004,0.189l-0.016,0.759c-0.004,0.496,0.051,0.838,0.063,1.265
			c0.146,1.808,0.498,3.698,0.826,5.693c0.152,1,0.332,2.028,0.432,3.125c0.104,1.083,0.162,2.264,0.006,3.59
			c-0.064,0.351-0.098,0.671-0.205,1.038c-0.121,0.377-0.229,0.739-0.395,1.112c-0.209,0.385-0.412,0.769-0.678,1.122
			c-0.152,0.173-0.311,0.343-0.473,0.507l-0.246,0.241l-0.125,0.117l-0.031,0.029c-0.139,0.126,0.17-0.154,0.135-0.123l-0.008,0.008
			l-0.035,0.031l-0.143,0.127l-0.07,0.063c0,0.003,0.047-0.037,0.064-0.057c0.1-0.105,0.152-0.244,0.182-0.308
			c0.053-0.173,0.068-0.392,0.031-0.478c-0.061-0.166-0.029,0.075,0.145,0.346c0.17,0.281,0.43,0.61,0.73,0.951
			c0.318,0.368,0.611,0.649,1.104,1.226c0.051,0.058,0.152,0.187,0.234,0.304l0.063,0.089l0.113,0.192l0.1,0.202
			c0.035,0.09,0.045,0.066,0.119,0.336c0.057,0.211,0.08,0.443,0.07,0.664c-0.004,0.111-0.018,0.22-0.035,0.321
			c-0.035,0.151-0.092,0.32-0.174,0.483c-0.162,0.33-0.436,0.627-0.705,0.808c-0.174,0.109-0.256,0.14-0.4,0.199
			c-0.68,0.221-0.715,0.129-0.939,0.15c-0.604-0.048-0.842-0.137-1.143-0.223c-0.566-0.176-1.049-0.363-1.543-0.553
			c-0.855-0.363-1.881-0.694-2.807-1.072l-2.84-1.12l-2.822-1.186c-0.473-0.226-0.926-0.354-1.396-0.537l-1.414-0.547l0.064-0.496
			c1.018,0.03,2.102,0.035,3.125,0.154l3.029,0.41l3.012,0.476c1.021,0.167,1.959,0.325,3.037,0.553
			c0.477,0.092,0.967,0.187,1.387,0.234c0.189,0.026,0.451,0.04,0.352,0.018c-0.1,0.017-0.004-0.06-0.566,0.109
			c-0.115,0.049-0.164,0.074-0.311,0.169c-0.25,0.154-0.506,0.426-0.648,0.731c-0.072,0.149-0.121,0.307-0.146,0.444
			c-0.021,0.087-0.035,0.179-0.043,0.274c-0.014,0.189,0.008,0.391,0.059,0.57l0.084,0.25c0.016,0.04,0.033,0.08,0.055,0.119
			c0.02,0.037,0.045,0.078,0.066,0.108l0.004,0.015c0.004,0.019,0.029,0.046-0.01,0.013l-1.068-0.891
			c-0.42-0.366-0.861-0.77-1.305-1.293c-0.43-0.533-0.932-1.188-1.156-2.358c-0.098-0.582-0.059-1.328,0.213-1.96
			c0.109-0.307,0.316-0.647,0.563-0.959l0.176-0.211l0.064-0.069l0.129-0.139l0.033-0.035l0.008-0.009
			c-0.029,0.025,0.285-0.261,0.152-0.141v-0.006l0.004-0.021l0.01-0.037c0.01-0.022,0.023-0.038,0.043-0.051
			c0.02-0.059,0.025-0.143,0.066-0.194c0.021-0.094,0.031-0.228,0.064-0.332c0.025-0.118,0.016-0.31,0.033-0.457
			c0.031-0.685-0.018-1.537-0.164-2.458c-0.133-0.913-0.277-1.881-0.451-2.876c-0.168-0.995-0.309-2.021-0.436-3.08
			c-0.127-1.052-0.182-2.15-0.211-3.261c0.016-0.584,0.021-1.254,0.072-1.768l0.08-0.755l0.02-0.188l0.02-0.188l0.021-0.107
			l0.09-0.427l0.365-1.701c0.117-0.564,0.391-1.129,0.58-1.688c0.113-0.278,0.195-0.561,0.334-0.834l0.451-0.812
			c0.154-0.268,0.299-0.538,0.465-0.8l0.59-0.75c0.365-0.512,0.881-0.943,1.357-1.382c0.576-0.42,0.992-0.76,1.918-1.133
			l-1.318,1.843c0.098-1.985,0.145-4.022,0.16-6.034c0.018-2.017-0.008-4.033-0.094-6.036c-0.035-1.004-0.105-2-0.18-2.992
			c-0.078-0.994-0.193-1.972-0.328-2.943l-0.254-1.424l-0.313-1.26l-0.279-0.713l-0.07-0.178l-0.035-0.089l-0.008-0.022
			l-0.004-0.011c0.082,0.172,0.02,0.044,0.037,0.081l-0.016-0.026l-0.125-0.217c-0.193-0.304-0.479-0.631-0.799-0.946
			c-1.307-1.28-3.021-2.386-4.723-3.417c-1.723-1.027-3.51-1.981-5.322-2.89c-3.633-1.807-7.352-3.485-11.111-5.058L336.334,79.748z
			"/>
	</g>
	<g>
		<path fill="#F6EC70" d="M278.581,74.537c0,0,1.795,0.497,4.042,1.971c1.125,0.732,2.371,1.698,3.563,2.938
			c1.183,1.247,2.339,2.756,3.145,4.675c0.373,0.966,0.692,2.041,0.723,3.23c0.004,0.307-0.005,0.581-0.023,0.922
			c-0.018,0.206-0.041,0.411-0.074,0.613c-0.062,0.405-0.105,0.807-0.18,1.199c-0.139,0.787-0.299,1.543-0.484,2.261
			c-0.204,0.73-0.422,1.416-0.656,2.042c-0.455,1.256-0.973,2.265-1.398,2.961c-0.195,0.35-0.389,0.62-0.518,0.803
			c-0.125,0.184-0.207,0.278-0.207,0.278s-0.199-0.458-0.418-1.229c-0.25-0.776-0.482-1.867-0.693-3.143
			c-0.102-0.638-0.178-1.323-0.23-2.042c-0.066-0.734-0.107-1.509-0.117-2.307c-0.012-0.399,0.008-0.803,0.012-1.213
			c0-0.205,0.01-0.411,0.023-0.617c-0.008-0.071-0.004-0.214-0.008-0.323c-0.048-0.48-0.148-1.069-0.375-1.686
			c-0.41-1.253-1.121-2.618-1.848-3.904c-0.734-1.288-1.477-2.533-2.127-3.619c-0.652-1.085-1.188-2.039-1.567-2.715
			C278.789,74.951,278.581,74.537,278.581,74.537z"/>
	</g>
	<g>
		<path fill="#F6EC70" d="M281.493,77.92c0,0-1.344,0.168-3.637,0.744c-1.144,0.293-2.52,0.696-4.058,1.249
			c-1.53,0.566-3.229,1.288-4.923,2.304c-1.692,1.005-3.387,2.327-4.694,4.04c-0.655,0.853-1.174,1.819-1.537,2.852
			c-0.372,1.057-0.526,2.066-0.661,3.401c-0.573,5.07-1.147,10.459-1.488,15.838c-0.172,2.689-0.227,5.379-0.214,8.011
			c0.04,2.634,0.193,5.208,0.338,7.672c0.161,2.465,0.338,4.821,0.6,7.029c0.243,2.21,0.632,4.259,1.107,6.097
			c1.17,3.867,2.146,7.091,2.829,9.347c0.355,1.129,0.642,2.016,0.875,2.571c0.086,0.271,0.287,0.485,0.181,0.468
			c-0.068-0.012-0.172,0.06-0.178,0.097c-0.012,0.028-0.002,0.033,0.001,0.029c0.01-0.007,0.015-0.015,0.015-0.008l0.5,0.01
			c-0.001,0.006,0.005,0.042-0.003,0.117c-0.004,0.037-0.012,0.092-0.058,0.173c-0.041,0.089-0.214,0.2-0.366,0.177
			c-0.433-0.11-0.547-0.31-0.827-0.551c-0.493-0.496-1.103-1.259-1.798-2.269c-0.708-1.003-1.485-2.259-2.347-3.71
			c-0.423-0.729-0.852-1.512-1.308-2.342c-0.227-0.418-0.463-0.833-0.685-1.271c-0.227-0.436-0.456-0.95-0.69-1.441
			c-0.929-2.001-1.588-4.271-2.123-6.676c-0.507-2.411-0.829-4.975-0.885-7.612c-0.082-2.639,0.082-5.347,0.312-8.071
			c0.215-2.727,0.543-5.473,0.876-8.208c0.347-2.734,0.758-5.452,1.202-8.116c0.462-2.661,0.961-5.265,1.454-7.777
			c0.223-1.189,0.514-2.672,1.08-3.893c0.552-1.247,1.285-2.369,2.132-3.312c1.698-1.893,3.685-3.178,5.574-4.113
			c1.895-0.944,3.717-1.552,5.34-2.013c1.627-0.454,3.069-0.728,4.256-0.921c2.381-0.373,3.762-0.419,3.762-0.419L281.493,77.92z"/>
	</g>
	<path fill="#F2F2F2" d="M289.469,72.86c0,0,10.016-1.079,14.787-1.74l-0.348,1.74C303.909,72.86,292.396,77.095,289.469,72.86z"/>
	<path fill="#D3AAA0" d="M291.217,51.911c0,0,1.605,6.145,0,11.366s-0.561,4.078,3.615,3.257c4.178-0.821,3.131-2.514,0-3.954
		C291.702,61.142,294.559,54.816,291.217,51.911z"/>
	<path fill="#231F20" d="M298.618,45.354c-1.635-2.968,10.63-3.804,11.343-2.896S300.014,47.888,298.618,45.354z"/>
	<path fill="#231F20" d="M289.143,47.047c2.18,3.546-7.527,3.333-8.365,2.228C279.939,48.17,287.284,44.02,289.143,47.047z"/>
	<path fill="#FFFFFF" d="M294.181,88.05c0,0,8.351,12.027,28.167-2.545c0,0-5.369,13.242-10.178,16.912
		c0,0-14.912-0.998-18.74-0.914C293.43,101.503,291.442,96.466,294.181,88.05z"/>
	<path fill="#EDCEC8" d="M335.555,141.894c0,0,13.785,5.451,7.172,15.544C342.727,157.438,342.305,148.972,335.555,141.894z"/>
	<path opacity="0.8" fill="#E7F6FC" d="M144.764,178.561l404.796-0.777c0,0,8.44,37.716-20.567,40.52
		c-30.69,2.966-379.718,5.133-379.718,5.133L144.764,178.561z"/>
	<path fill="#231F20" d="M73.824,0.561h-2.862H0v239.211h72.432h12.529h468.181V0.561H73.824z M453.541,216.765
		c-142.701,0-280.872-1.74-280.872-1.74L86.625,48.413l0,0l-5.919-22.128c33.376-4.647,250.757-21.052,364.804,64.14
		C568.049,181.96,594.615,216.765,453.541,216.765z"/>
	<path fill="#D5B1A9" d="M121.854,177.784c2.088,1.393,15.567,19.491,21.75,20.188c0,0-14.806,29.932-55.867,31.324
		c-41.062,1.392-51.656,12.682-27.293-51.163S121.854,177.784,121.854,177.784z"/>
	<path fill="#D8ADA3" d="M133.247,105.042c3.227,2.566,13.319,5.917,13.319,10.789c0,4.873-3.48,13.213-9.049,13.742
		C131.948,130.102,133.247,105.042,133.247,105.042z"/>
	<path fill="#E4BDB2" d="M53.29,68.498c18.748-16.348,46.986-13.922,60.212,2.785c13.226,16.706,29.236,41.417,29.584,61.604
		c0.348,20.187,11.17,58.506-27.379,56.306c-48.379-2.762-62.615,9.996-71.316-17.848S9.784,106.435,53.29,68.498z"/>
	<path fill="#E4BDB2" d="M202.835,188.574l11.599,1.206c0,0,8.353-6.079,21.927-13.04c13.574-6.961,29.584-20.187,29.584-20.187
		s0.696-21.23,7.309-24.363c6.614-3.132,9.398-3.829,10.79,0c1.393,3.828-5.607,1.615-2.803,8.639
		c2.803,7.023,0.715,9.808,9.068,12.593c8.353,2.784,18.742,8.93,18.742,8.93s-15.224,10.654-20.433,11.699
		c0,0-31.025,52.184-76.62,65.722C211.998,239.772,223.953,209.456,202.835,188.574z"/>
	<path fill="#1D76BB" d="M202.835,188.574c0,0-19.164-10.8-104.3,7.656c-24.115,5.229-41.547,10.6-54.16,15.725
		c-0.607-0.271-11.26,3.424-11.26,3.424c-22.5,8.777-28.901,24.393-28.901,24.393h6.961h200.822
		C230.792,205.699,202.835,188.574,202.835,188.574z"/>
	<path fill="#146CA6" d="M174.054,185.499c0,0,16.366-1.942,22.283-0.826c5.917,1.116,11.423,0.888,11.567,4.543
		c0.144,3.656,2.741,2.943,6.184,11.502c3.443,8.56,6.956,11.871,2.782,27.533c0,0,2.438-19.49-11.483-33.412
		c0,0,0.483,18.493-0.561,29.318c0,0-1.989-41.712-29.839-34.377c-11.127,2.93-50.022,1.253-50.022,1.253
		S154.208,185.556,174.054,185.499z"/>
	<path fill="#D8ADA3" d="M99.579,101.5c2.717-5.856,4.525,6.675,10.094,25.47c5.569,18.795,23.397,25.581,19.008,40.809
		c-4.39,15.227-8.334,24.276-17.325,24.276C102.364,192.054,88.79,124.756,99.579,101.5z"/>
	<g>
		<g>
			<path fill="none" stroke="#F1E4E0" stroke-miterlimit="10" d="M75.912,95.645"/>
		</g>
	</g>
	<g>
		<g>
			<path fill="none" stroke="#F1E4E0" stroke-miterlimit="10" d="M73.476,97.038"/>
		</g>
	</g>
	<path fill="#4A372D" d="M115.733,149.843c0,0-14.232-47.269-14.065-30.904c0.342,33.676,20.535,59.048,6.96,72.094
		c-13.574,13.046-68.913,15.256-68.913,15.256s10.75-3.445,2.764-19.804c-7.985-16.357-4.853,1.438-4.853,4.548
		c0,3.109-1.419-2.807-5.756-14.641c-4.337-11.834-12.342-31.723-12.342-41.095s3.829-11.493,0-15.131
		c-3.828-3.639-1.308-15.287,1.971-26.206c4.198-13.978,4.939-20.748,11-24.45c3.703-2.262,3.039-3.578,11.74-9.604
		s48.378-10.551,57.775-4.982c9.397,5.569,23.667,28.888,33.064,7.657c0,0,0.331,5.23-4.188,17.804c0,0-4.39,6.659,2.223,3.179
		c6.613-3.48,6.489-3.928,6.489-3.928S139.841,130.832,115.733,149.843L115.733,149.843z"/>
	<path fill="#D8ADA3" d="M109.339,145.512c0,0-25.797,3.777-22.81-18.41c2.986-22.187,16.677-11.069,16.677-11.069L109.339,145.512z
		"/>
	<path fill="#D8ADA3" d="M307.541,163.635c0,0-12.554,1.631-24.464-0.985c-11.911-2.616,0.271,8.082-8.43,13.175
		c-8.701,5.092-15.662,36.416-51.859,52.426l-6.778,2.679l-4.011,8.843c0,0,18.535-4.563,26.8-11.521
		c8.265-6.959,22.455-18.288,28.837-24.949c6.382-6.662,13.076-11.247,20.982-29.251
		C288.618,174.05,302.809,169.959,307.541,163.635z"/>
	<polygon fill="#423B38" points="196.363,22.51 200.731,174.456 204.689,174.456 200.526,22.51 213.427,23.314 215.827,174.456 
		220.351,174.456 220.351,22.51 	"/>
	<polygon fill="#423B38" points="367.352,50.516 374.188,170.741 378.711,170.741 370.771,51.911 384.498,57.068 388.805,170.741 
		392.633,170.741 388.91,58.065 	"/>
	<path fill="#A12137" d="M331.971,109.045l4.279-10.562l1.266,14.043l7.006-5.743l-4.484,6.975l3.174,6.409l-3.174,3.432
		l2.129,15.133l0.35,6.338l-5.242-2.349C337.273,142.72,335.002,115.832,331.971,109.045z"/>
	<polygon fill="#A12137" points="276.917,103.696 270.73,91.817 278.581,98.483 280.711,90.077 281.241,98.43 285.086,98.43 
		282.514,102.209 	"/>
	<path fill="#A12137" d="M332.443,73.165l-5.346,20.797c0,0,7.836-9.9,9.016-16.29L332.443,73.165z"/>
	<path fill="#A12137" d="M355.68,146.004c0,0,7.021,17.563-3.941,23.975C351.738,169.979,372.326,156.338,355.68,146.004z"/>
	<path fill="#D3AAA0" d="M321.182,41.902c0,0-1.637,17.795-4.422,24.632s-4.461,10.307,2.211,11.137s5.064,0,5.064,0
		s1.969-2.85,1.871-12.103S330.826,37.582,321.182,41.902z"/>
	<path fill="#231F20" d="M307.799,36.17c0,0,19.385,0.498,16.236,18.754c-2.58,14.966,3.063,9.773,3.063,9.773
		s-0.471-12.906,2.426-20.563l5.588,2.963l-0.441-6.272C334.67,40.826,315.539,36.744,307.799,36.17z"/>
	<path fill="#D3AAA0" d="M282.514,41.258c0,0,10.219-5.088,38.207,0.644C320.721,41.902,305.27,23.948,282.514,41.258z"/>
	<path fill="#181516" d="M80.706,26.285c0,0,267.191-24.856,377.615,73.763C458.32,100.047,357.67-10.012,80.706,26.285z"/>
	<path fill="#402E26" d="M97.451,73.687c-10.093,4.196-15.188,2.108-15.773,15.334s12.83,32.243-5.537,39.266
		c-18.367,7.024,2.998-4.46,3.805-10.187s-10.686-27.438-0.245-41.485S97.451,73.687,97.451,73.687z"/>
	<path fill="#402E26" d="M94.011,169.979c-5.569,7.457-2.799,20.319-17.583,15.454c-14.785-4.864-22.094,4.865-22.094,4.865
		s5.702-10.241,23.385-10.16c0,0,3.415,1.475,6.547-3.398C87.398,171.868,94.011,169.979,94.011,169.979z"/>
	<path fill="#402E26" d="M29.056,121.776c1.485,3.545,1.262,3.566-1.522,8.383c-2.785,4.815-2.088,5.429,0,11.735
		s4.176,10.514,4.176,15.544c0,5.032-1.044,1.355,1.74-7.595c2.785-8.952-3.577-17.191-1.44-19.685
		c2.136-2.493,9.793,0.425,9.097,15.846c-0.696,15.421-9.308,11.941,0.044,19.946s8.309,11.833,8.309,11.833
		s-0.696-6.716-3.48-15.539c-2.785-8.823-0.716-21.24-1.228-32.086c-0.512-10.847-14.086-5.733-11.65-20.297
		c2.437-14.564,10.093-30.266,10.093-35.119C43.196,74.743,23.965,109.622,29.056,121.776z"/>
	<path fill="#CEBFB2" d="M406.904,100.047c-1.727,0.783,2.436,7.175,2.088,3.648C408.643,100.17,411.775,97.837,406.904,100.047z"/>
	<path fill="#CEBFB2" d="M418.531,100.047c3.686,1.515,4.73,4.299,2.643,4.995C419.086,105.739,418.531,100.047,418.531,100.047z"/>
	<path fill="#CEBFB2" d="M422.236,140.829c-4.891,2.847-3.5,4.936-4.891,2.847c-1.393-2.088,3.039-4.944,3.039-4.944
		L422.236,140.829z"/>
	<path fill="#CEBFB2" d="M427.785,112.526c0,0,3.482-1.043,2.438,4.786S428.83,119.314,427.785,112.526z"/>
	<path fill="#CEBFB2" d="M408.074,132.075c-1.52,0.812-1.316,0.115-1.592,4.64c-0.275,4.525,0,9.336,0,9.336L408.074,132.075z"/>
	<path fill="#CEBFB2" d="M504.705,149.843c0,0,1.391,8.45-2.438,10.538c-3.828,2.089-7.309,1.863-7.309,1.863
		S503.111,161.751,504.705,149.843z"/>
	<path fill="#CEBFB2" d="M483.125,146.189c2.785,2.359,5.221,2.012,2.785,2.359s-2.436,0.348-2.436,0.348L483.125,146.189z"/>
	<path fill="#CEBFB2" d="M445.885,126.263c2.088,0.706,2.088,3.318,2.088,3.318l-4.523-0.238L445.885,126.263z"/>
	<path fill="#CEBFB2" d="M447.973,154.117c2.438,1.045,4.525-0.695,2.438,1.045C448.32,156.902,445.537,153.073,447.973,154.117z"/>
	<path fill="#CEBFB2" d="M439.967,160.034c0,0,0.697,4.177,0,4.524C439.271,164.907,438.924,162.47,439.967,160.034z"/>
	<path fill="#CEBFB2" d="M421.031,164.592c4.221,1.75,0.934,8.501-1.375,6.148C417.346,168.386,417.756,163.233,421.031,164.592z"/>
	<path fill="#CEBFB2" d="M445.711,102.417c0.332-2.957,6.41,5.998,5.555,7.444C450.41,111.307,445.537,103.968,445.711,102.417z"/>
	<path fill="#CEBFB2" d="M477.209,146.004c2.568-2.865,4.873,7.765,1.74,6.372C475.816,150.985,475.121,148.333,477.209,146.004z"/>
	<path fill="#CEBFB2" d="M413.516,79.983c1.393-2.785,2.438,1.044,1.393,2.784C413.865,84.508,412.123,82.768,413.516,79.983z"/>
	<path fill="#CEBFB2" d="M469.18,168.451c2.561-1.739,6.314,2.632,4.027,3.328S466.396,170.343,469.18,168.451z"/>
	<g>
		<g>
			<path fill="#FFFFFF" d="M290.253,117.695c1.732-0.033,34.995-1.936,34.995-1.936l2.996,18.447h-40.025L290.253,117.695z"/>
			<path fill="#EBCFC1" d="M290.253,117.695c2.911-0.303,5.823-0.554,8.737-0.808c2.912-0.261,5.824-0.513,8.738-0.73l8.734-0.673
				l8.734-0.616l0.791-0.056l0.141,0.804c1.082,6.136,2.078,12.285,3.102,18.431l0.193,1.164l-1.18-0.005
				c-6.67-0.025-13.342-0.024-20.012-0.107l-10.007-0.129l-10.006-0.19l-0.658-0.013l0.09-0.63c0.395-2.745,0.838-5.484,1.268-8.225
				C289.347,123.17,289.778,120.43,290.253,117.695z M290.253,117.695c-0.202,2.769-0.45,5.532-0.7,8.295
				c-0.248,2.763-0.483,5.528-0.767,8.287l-0.567-0.643l10.006-0.19l10.007-0.129c6.67-0.083,13.342-0.082,20.012-0.107
				l-0.986,1.159c-0.975-6.153-1.977-12.302-2.893-18.464l0.934,0.748l-8.764,0.376c-2.92,0.116-5.842,0.232-8.762,0.316
				c-2.917,0.097-5.837,0.159-8.758,0.214C296.095,117.618,293.175,117.683,290.253,117.695z"/>
		</g>
		<polygon fill="#BE202E" points="322.113,121.739 323.156,125.057 309.35,125.633 309.35,123.398 		"/>
		<path fill="#A6A8AC" d="M324.773,126.625l-0.092,1.622c0,0-15.66,0.079-16.908,0.118c-1.248,0.038-0.09-1.162-0.09-1.162
			L324.773,126.625z"/>
		<path fill="#A6A8AC" d="M325.131,129.182l-0.092,1.622c0,0-15.662,0.079-16.91,0.118c-1.248,0.039-0.088-1.162-0.088-1.162
			L325.131,129.182z"/>
		<g>
			<path fill="#FAA62C" d="M301.752,130.144c-2.135,2.136-5.61,2.136-7.746,0c-2.135-2.136-2.135-5.61,0-7.745
				c2.136-2.136,5.611-2.136,7.746,0C303.888,124.534,303.888,128.008,301.752,130.144z"/>
			<path fill="#03AA5C" d="M302.826,124.702c0,0,1.931,2.068,0.898,3.3c-1.034,1.23-1.409,0.666-2.255,1.658
				s-1.026,2.813-1.809,2.389c-0.783-0.424,0.508-1.422-0.777-1.193c-1.287,0.228-0.72,1.157-1.188,1.116
				c-1.128-0.098-2.188-2.335-2.188-2.335L302.826,124.702z"/>
			<circle fill="#24572B" cx="295.962" cy="129.993" r="1.897"/>
			<path fill="#03AA5C" d="M294.782,131.077l0.793,0.512l-0.793-0.908l1.277,0.63l-1.086-0.949c0,0,0.598,0.278,1.125,0.511
				c0.43,0.188,0.813,0.346,0.793,0.299c-0.041-0.105-1.812-1.618-1.812-1.618l1.694,1.018l-1.842-1.272l-0.15,0.298l1.127,1
				l-1.127-0.554v0.415l-0.263,0.068L294.782,131.077z"/>
			<path fill="#3CB766" d="M299.974,131.636c0,0,0.938-1.631,0.399-1.46c-0.541,0.172-0.787,0.074-1.292,0.431
				C299.082,130.607,299.674,132.094,299.974,131.636z"/>
			<path fill="#3CB766" d="M294.583,121.372c0,0-0.271-0.422,0.736-0.896c0.822-0.388,1.361,0.207,1.865,0.07
				s-0.772,0.683-2.494,0.826"/>
			<circle fill="#24572B" cx="294.39" cy="127.558" r="1.788"/>
			<path fill="#03AA5C" d="M293.038,128.231l0.584,0.671l-0.48-1.03l0.99,0.904l-0.733-1.144c0,0,0.468,0.409,0.886,0.757
				c0.338,0.282,0.644,0.525,0.639,0.479c-0.01-0.105-1.217-1.938-1.217-1.938l1.268,1.364l-1.336-1.635l-0.213,0.23l0.759,1.2
				l-0.875-0.796l-0.108,0.376l-0.256-0.007L293.038,128.231z"/>
			<polygon fill="#FDEB03" points="293.871,121.876 302.826,122.334 303.729,128.583 291.788,126.659 			"/>
			<circle fill="#EE3326" cx="300.669" cy="129.064" r="2.632"/>
			<circle fill="#F1594E" cx="300.669" cy="129.064" r="2.085"/>
			<path fill="#511911" d="M301.378,129.384c-1.929,1.93-5.068,1.93-6.997,0c-1.93-1.929-1.93-5.067,0-6.997
				c1.929-1.93,5.068-1.93,6.997,0S303.307,127.456,301.378,129.384z"/>
			<g>
				<path fill="#371410" d="M294.913,125.68c0,0,0.414-0.491,1.344-0.972c0.467-0.248,1.066-0.486,1.818-0.619
					c0.749-0.126,1.672-0.154,2.706,0.169c0.256,0.092,0.521,0.172,0.779,0.317l0.39,0.212l0.114,0.08
					c-0.032-0.026,0.124,0.091,0.219,0.189c0.056,0.057,0.088,0.087,0.155,0.173c0.066,0.086,0.129,0.18,0.182,0.277l0.075,0.155
					c0.038,0.092,0.07,0.189,0.095,0.291c0.046,0.215,0.066,0.384,0.039,0.634c-0.025,0.238-0.111,0.495-0.219,0.686
					c-0.077,0.138-0.176,0.271-0.287,0.388c-0.136,0.138-0.177,0.161-0.247,0.216c-0.067,0.05-0.138,0.095-0.21,0.136
					c-0.094,0.051-0.166,0.083-0.252,0.119l-0.167,0.059c-0.372,0.11-0.495,0.101-0.669,0.125c-0.156,0.012-0.287,0.025-0.42,0.021
					c-0.26-0.002-0.5-0.015-0.738-0.047c-0.949-0.109-1.876-0.479-2.843-0.766c-0.48-0.127-0.972-0.257-1.449-0.27
					c-0.235-0.008-0.477-0.005-0.663,0.041c-0.085,0.014-0.184,0.056-0.146,0.043c0.012-0.006,0.104-0.075,0.133-0.237
					c0.004-0.019,0.005-0.037,0.005-0.056c0-0.001-0.007-0.128-0.003-0.066l0.002,0.012l0.002,0.024
					c0-0.021-0.004-0.056-0.012-0.082c-0.043-0.124-0.062-0.128-0.086-0.167c-0.094-0.089-0.021-0.032,0.06-0.031
					c0.085,0.009,0.192,0.012,0.305,0.011c0.226-0.007,0.474-0.036,0.722-0.088c0.5-0.085,1.014-0.241,1.535-0.391
					c0.522-0.149,1.053-0.308,1.613-0.403c0.576-0.109,1.113-0.178,1.922-0.084c0.213,0.034,0.449,0.07,0.805,0.221
					c0.18,0.083,0.394,0.185,0.672,0.442c0.266,0.237,0.582,0.716,0.655,1.248l0.021,0.192l0.006,0.096l-0.031,0.363l-0.002,0.049
					c-0.006,0.031,0.005-0.002-0.012,0.082c-0.035,0.164-0.093,0.334-0.169,0.495s-0.171,0.313-0.275,0.445
					c-0.067,0.081-0.122,0.138-0.188,0.204c-0.123,0.123-0.293,0.258-0.375,0.306c-0.104,0.067-0.211,0.129-0.32,0.185l-0.239,0.104
					c-0.179,0.073-0.273,0.096-0.409,0.138c-0.896,0.224-1.417,0.223-1.986,0.252c-1.086,0.026-2.045-0.108-2.826-0.22
					c-0.188-0.028-0.371-0.045-0.474-0.069c-0.05-0.012-0.082-0.019-0.03-0.045c-0.007-0.005,0.047-0.019,0.082-0.035l0.143-0.071
					c0.098-0.049,0.191-0.112,0.271-0.185c0.181-0.138,0.344-0.338,0.444-0.551c0.073-0.134,0.13-0.287,0.161-0.444
					c0.016-0.079,0.025-0.158,0.029-0.236l0.002-0.115c-0.023-0.446-0.008-0.118-0.012-0.215c-0.004,0,0.004,0.112-0.009,0.021
					c-0.017-0.138-0.07-0.299-0.122-0.401c-0.023-0.048-0.051-0.094-0.082-0.137c-0.095-0.13-0.162-0.157-0.18-0.157
					c-0.047,0.001,0.003,0.089,0.074,0.158c0.318,0.309,0.879,0.606,1.37,0.771c0.505,0.192,0.995,0.278,1.423,0.34
					c0.854,0.097,1.435,0.044,1.435,0.044l0.187,0.354c0,0-0.092,0.113-0.286,0.318c-0.197,0.198-0.511,0.48-0.981,0.745
					c-0.467,0.276-1.096,0.525-1.874,0.664c-0.784,0.107-1.688,0.17-2.794-0.219c-0.28-0.108-0.578-0.231-0.934-0.503
					c-0.172-0.134-0.378-0.319-0.585-0.625c-0.056-0.089-0.108-0.182-0.156-0.276c-0.069-0.15-0.138-0.362-0.172-0.551
					c-0.025-0.143-0.019-0.084-0.03-0.136c-0.005-0.104,0.01,0.219-0.013-0.235l0.007-0.134c0.007-0.091,0.02-0.183,0.039-0.274
					c0.037-0.184,0.102-0.363,0.18-0.522c0.135-0.254,0.334-0.493,0.549-0.671c0.127-0.099,0.268-0.188,0.412-0.265
					c0.151-0.076,0.189-0.086,0.293-0.128c0.086-0.032,0.19-0.066,0.238-0.079c0.262-0.074,0.447-0.106,0.616-0.136
					c0.336-0.059,0.599-0.072,0.864-0.092c1.028-0.069,1.97-0.017,2.859,0.067c0.414,0.05,0.906,0.071,1.008,0.099
					c-0.013,0.008,0.02,0.011-0.041,0.034c-0.021,0.011-0.038,0.022-0.061,0.038c-0.053,0.025-0.104,0.057-0.152,0.092
					c-0.023,0.023-0.15,0.107-0.225,0.189c-0.043,0.045-0.072,0.081-0.117,0.14c-0.088,0.104-0.166,0.229-0.227,0.362
					s-0.101,0.276-0.12,0.412c-0.007,0.055,0.006-0.011,0.008-0.011l0.014-0.047c-0.013,0.153,0.032-0.358-0.027,0.34l0.003,0.072
					l0.016,0.145c0.057,0.404,0.305,0.766,0.479,0.915c0.188,0.166,0.288,0.201,0.352,0.228c0.123,0.04,0.107,0.008,0.066-0.012
					c-0.21-0.106-0.723-0.193-1.193-0.319c-0.49-0.104-1.012-0.239-1.542-0.369c-0.531-0.131-1.071-0.268-1.62-0.377l-0.844-0.188
					c-0.146-0.032-0.297-0.069-0.464-0.126c-0.168-0.065-0.354-0.092-0.633-0.366c-0.069-0.085-0.126-0.144-0.188-0.329
					c-0.012-0.042-0.023-0.091-0.027-0.128l-0.003-0.024l-0.005-0.103l0.01-0.104c0.049-0.292,0.233-0.465,0.347-0.546
					c0.247-0.166,0.401-0.199,0.562-0.253c0.313-0.081,0.58-0.137,0.852-0.192c0.535-0.1,1.047-0.251,1.554-0.386
					c1.007-0.3,1.989-0.612,2.851-0.722c0.213-0.033,0.419-0.052,0.599-0.07c0.087-0.014,0.174-0.011,0.232-0.02
					c0.042,0.002,0.133-0.029-0.034,0.021l-0.09,0.034c-0.063,0.024-0.111,0.047-0.18,0.086c-0.062,0.033-0.121,0.071-0.178,0.113
					c-0.061,0.047-0.088,0.064-0.217,0.191c-0.104,0.106-0.193,0.229-0.262,0.356c-0.103,0.179-0.186,0.422-0.208,0.647
					c-0.021,0.238-0.01,0.394,0.036,0.596c0.021,0.095,0.053,0.187,0.09,0.272l0.065,0.138c0.046,0.087,0.101,0.169,0.16,0.244
					c0.06,0.074,0.081,0.097,0.128,0.145c0.076,0.08,0.215,0.178,0.16,0.137l-0.016-0.013l-0.007-0.007
					c0.034,0.024-0.087-0.062,0.074,0.053l-0.148-0.101c-0.087-0.08-0.202-0.14-0.308-0.207c-0.884-0.536-2.127-0.808-2.999-1.028
					c-0.942-0.221-1.479-0.348-1.479-0.348L294.913,125.68z"/>
			</g>
			<path fill="#FAA62C" d="M297.861,127.78c-2.814,0-5.104-1.935-5.104-4.312c0-2.378,2.29-4.313,5.104-4.313
				c2.815,0,5.105,1.935,5.104,4.313C302.966,125.845,300.676,127.78,297.861,127.78z"/>
		</g>
	</g>
	<polygon fill="#E7E7E7" points="305.27,117.312 325.113,120.341 325.248,115.759 	"/>
</g>
</svg>
