<?xml version="1.0" encoding="utf-8"?>
<!-- Generator: Adobe Illustrator 16.0.0, SVG Export Plug-In . SVG Version: 6.00 Build 0)  -->
<!DOCTYPE svg PUBLIC "-//W3C//DTD SVG 1.1//EN" "http://www.w3.org/Graphics/SVG/1.1/DTD/svg11.dtd">
<svg version="1.1" id="Layer_1" xmlns="http://www.w3.org/2000/svg" xmlns:xlink="http://www.w3.org/1999/xlink" x="0px" y="0px"
	 width="655.456px" height="149.784px" viewBox="0 0 655.456 149.784" enable-background="new 0 0 655.456 149.784"
	 xml:space="preserve">
<g>
	<g>
		<path fill="#3B2416" d="M186.708,45.641c0,0-9.128-2.417-16.108,5.369c-6.981,7.785-9.665,32.116-9.665,32.116l2.148-4.003
			c0,0,0,4.422-2.148,9.096c-2.148,4.672,0,11.864,0,11.864l1.342-2.478c0,0-2.148,4.95-0.537,7.904
			c1.61,2.954,2.953,4.564,2.953,4.564l8.651-11.313c0,0,4.504-16.071,2.893-30.836L186.708,45.641z"/>
		<path fill="#603A17" d="M331.951,42.956c-1.344,1.611-2.147,4.564-4.296,5.638c-2.147,1.073-5.369,2.416-6.175,0
			c-0.805-2.417-4.445-7.786-7.055-8.859c-2.61-1.073-6.905-2.148-7.442-4.296c0,0-1.343-1.166-3.222,2.504
			c-1.88,3.672-4.548,10.651-8.046,15.484c-3.499,4.832-3.229,14.766-3.229,18.525c0,3.757-5.37,7.585-6.443,11.173
			c-1.074,3.59-4.296,12.721-5.101,19.161c-0.805,6.444-0.279,7.249-1.213,11.813c-0.935,4.563-1.713,8.054-1.055,13.962
			c0.658,5.905,0.12,7.784,3.879,11.542c3.759,3.76,5.369,4.565,4.027,6.444c-1.342,1.879-8.875,2.685-9.404,0
			c-0.529-2.685,0.545-3.759-1.334-5.637c-1.879-1.881-4.027-6.177-3.758-9.129c0.269-2.954-0.023-14.766-0.023-14.766
			s-3.822,16.347,1.365,23.624c0,0,4.027,4.297-0.805,3.76c-4.833-0.537-7.518-0.537-6.175-6.174c0,0-0.806-0.808-2.148-4.029
			c-1.342-3.22-1.879-3.489,0-9.128c1.879-5.638,2.954-8.858,2.686-12.349c-0.269-3.49-0.806-1.879-0.269-7.25
			c0.537-5.367,1.688-14.714,1.381-16.753s-7.287,1.987-24.201,1.183c-16.914-0.805-24.163-6.438-30.069-7.918
			c-5.907-1.478-9.397-4.431-14.498,4.025c-5.101,8.457-9.128,17.586-11.007,23.223c-1.879,5.638-4.295,6.713-4.295,14.498
			c0,7.784-2.148,9.933-1.343,12.886c0.806,2.953,4.295,4.564,5.907,6.981c1.61,2.415,4.027,4.522-2.953,4.676
			c-6.981,0.155-5.102-0.65-5.371-3.603c-0.268-2.953-2.684-2.148-3.49-5.639c-0.805-3.489-1.611-12.886,0-19.599
			c1.611-6.711,1.343-12.08,1.343-12.08s-3.758,6.443-6.712,9.933c-2.954,3.49-4.564,13.424-5.907,18.525
			c-1.342,5.102-3.758,7.517-1.879,9.395c1.879,1.882,2.38,4.028-0.688,4.298c-3.069,0.269-7.902,0-6.56-4.027
			c1.342-4.027,2.417-5.639,2.417-7.248c0-1.612-1.61-2.417,0.805-7.519c2.417-5.103,6.98-24.443,11.276-30.479
			c4.295-6.034,6.98-6.301,6.98-14.222c0-7.919-6.175-19.733-1.611-29.398c4.564-9.664,4.296-16.376,26.042-15.303
			s26.043,5.102,38.929,2.954c12.886-2.147,14.574-4.38,26.885-8.499c12.311-4.12,17.68-14.858,29.225-21.57
			c11.543-6.713,11.007-5.369,11.007-5.369s2.953-6.712,3.759-8.323c0,0,3.072,4.297,2.341,7.786c0,0,6.224-3.489,5.431-7.786
			c0,0,4.551,6.444,0,11.813c0,0,5.114,4.564,4.846,8.054c-0.269,3.49,0.805,8.054,2.684,11.545
			C329.266,34.9,331.951,42.956,331.951,42.956z"/>
		<path fill="#3B2416" d="M282.552,139.604l-5.377,2.148c0,0-1.227,2.84,0,4.296c2.553,3.029,9.796,2.073,9.869-1.11
			C287.116,141.752,282.552,139.604,282.552,139.604z"/>
		<path fill="#3B2416" d="M273.424,140.141l-6.98-2.414c0,0-1.879,5.651,0,6.316c1.879,0.661,8.303,0.424,8.392-0.566
			C274.924,142.486,273.424,140.141,273.424,140.141z"/>
		<path fill="#3B2416" d="M186.708,141.04l-6.444,3.13c0,0-3.197,3.259,1.086,3.433c4.284,0.17,10.435,0.423,8.836-2.043
			C188.587,143.096,186.708,141.04,186.708,141.04z"/>
		<path fill="#3B2416" d="M163.619,144.705l-7.249,0.271c0,0,0.659,4.174,3.61,4.102
			C162.931,149.002,168.857,149.761,163.619,144.705z"/>
		<path fill="#502D14" d="M314.426,39.734c0,0-7.442-4.028-7.979-12.35c-0.537-8.323-3.49-5.907-3.49-5.907
			s1.342,7.961-3.222,16.465c-4.563,8.504-2.131-4.651-4.019,1.792c-1.888,6.442-8.062,13.903-6.72,19.973
			c1.342,6.068,3.487,11.435,3.487,11.435s1.881-13.958,4.298-18.251c2.417-4.297,6.175-17.276,11.007-14.948
			C312.621,40.272,314.426,39.734,314.426,39.734z"/>
		<path fill="#502D14" d="M265.608,69.802c-1.904-3.522,3.252,6.447-2.386,11.681c-5.638,5.232-13.961,3.664-16.377,4.984
			c-2.416,1.323-10.179,2.24-10.179,2.24s17.505,2.892,31.427-0.489C268.093,88.218,268.8,75.709,265.608,69.802z"/>
		<path fill="#502D14" d="M195.293,88.218l-17.176,18.634l-0.555,8.05C177.562,114.902,183.744,109.319,195.293,88.218z"/>
		<polygon fill="#502D14" points="272.083,117.59 268.093,88.218 266.712,104.971 270.85,124.828 		"/>
		<g>
			<path fill="#F2F2F2" d="M316.379,22.821c0,0-1.611-4.028-4.564-3.222C308.862,20.404,311.278,23.357,316.379,22.821z"/>
			<path fill="#3B2416" d="M316.219,22.874c-0.106,0.026-0.259,0.087-0.46,0.128c-0.2,0.05-0.446,0.1-0.732,0.141
				c-0.286,0.039-0.613,0.068-0.974,0.069c-0.36,0.006-0.754-0.023-1.171-0.09c-0.416-0.07-0.858-0.181-1.303-0.375
				c-0.441-0.2-0.903-0.458-1.295-0.932c-0.188-0.241-0.376-0.557-0.409-0.965c-0.039-0.414,0.138-0.849,0.381-1.117
				c0.245-0.274,0.519-0.437,0.781-0.559c0.07-0.029,0.141-0.058,0.212-0.085l0.106-0.04l0.083-0.023l0.164-0.045l0.043-0.014
				l0.026-0.005l0.05-0.011l0.101-0.021c0.532-0.114,1.103-0.081,1.6,0.076c0.501,0.151,0.916,0.425,1.253,0.711
				c0.334,0.291,0.593,0.608,0.801,0.908c0.409,0.612,0.625,1.171,0.75,1.563c0.125,0.395,0.154,0.631,0.154,0.631
				S316.324,22.838,316.219,22.874z M315.99,22.315c-0.253-0.311-0.617-0.748-1.102-1.181c-0.479-0.431-1.097-0.858-1.766-0.977
				c-0.167-0.035-0.336-0.04-0.506-0.04c-0.17,0.015-0.341,0.033-0.514,0.082l-0.109,0.029l-0.161,0.055l-0.081,0.026l-0.052,0.025
				l-0.104,0.045c-0.148,0.073-0.269,0.16-0.326,0.232c-0.061,0.072-0.064,0.091-0.068,0.136c0,0.049,0.032,0.158,0.114,0.273
				c0.084,0.115,0.206,0.233,0.339,0.348c0.139,0.112,0.293,0.214,0.454,0.309c0.324,0.188,0.675,0.342,1.02,0.464
				c0.346,0.121,0.688,0.224,1.01,0.296c0.322,0.08,0.625,0.137,0.895,0.186c0.271,0.044,0.512,0.086,0.712,0.111
				c0.201,0.026,0.359,0.049,0.468,0.061c0.108,0.018,0.167,0.025,0.167,0.025S316.241,22.629,315.99,22.315z"/>
		</g>
		<path fill="#3B2416" d="M328.998,45.285c0-1.523-1.611-4.746-3.222-2.329c-1.611,2.416,3.222,5.576,3.222,3.191"/>
		<circle fill="#3B2416" cx="312.92" cy="20.884" r="1.642"/>
	</g>
	<g>
		<path fill="#3B2416" d="M109.02,60.936c-0.013-0.021-0.031-0.048-0.053-0.086c0.295-0.942,0.741-2.014,1.371-3.336
			c0.762-1.604,1.395-3.429,2.007-5.192c1.563-4.514,3.181-9.18,7.013-10.407c6.322-2.022,12.745-6.192,13.015-6.368
			c0.688-0.45,0.881-1.371,0.432-2.062c-0.449-0.688-1.371-0.882-2.06-0.432c-0.053,0.035-4.613,2.993-9.623,5.045
			c0.48-3.471-0.339-7.158-0.385-7.358c-0.182-0.802-0.979-1.304-1.781-1.123c-0.801,0.183-1.303,0.979-1.123,1.78
			c0.319,1.417,0.882,5.408-0.042,7.925c-2.147,0.869-3.705,2.436-4.917,4.331c-1.228-3.187-1.079-6.257-1.077-6.295
			c0.046-0.82-0.579-1.521-1.398-1.572c-0.057-0.005-0.113-0.005-0.168,0c0.013-0.416,0.052-0.704,0.146-0.942
			c0.004-0.007,0.007-0.016,0.01-0.024c0.166-0.39,0.495-0.66,1.15-1.197c0.654-0.535,1.55-1.269,2.72-2.451
			c3.855-3.906,5.908-8.218,5.993-8.399c0.351-0.744,0.031-1.631-0.713-1.981c-0.743-0.351-1.631-0.03-1.981,0.713
			c-0.018,0.04-1.917,4.03-5.419,7.576c-1.058,1.07-1.849,1.718-2.484,2.239c-0.271,0.219-0.511,0.423-0.726,0.622
			c-3.707-5.35,0.396-12.958,0.447-13.052c0.397-0.719,0.138-1.625-0.58-2.023c-0.718-0.398-1.625-0.139-2.024,0.58
			c-0.241,0.433-5.654,10.401,0.591,17.305c-0.041,0.274-0.07,0.573-0.09,0.903c-0.727,2.094-1.759,4.593-2.799,6.969
			c-1.185-2.786-3.1-5.313-4.745-7.477c-0.462-0.609-0.898-1.185-1.278-1.713c-1.704-2.376-2.832-10.32-3.123-13.184
			c-0.083-0.817-0.814-1.413-1.631-1.329c-0.818,0.082-1.414,0.812-1.332,1.631c0.115,1.133,1.194,11.174,3.667,14.617
			c0.403,0.562,0.852,1.152,1.326,1.777c2.108,2.775,4.707,6.206,5.184,9.647c-0.258,0.525-0.506,1.071-0.737,1.642
			c-1.36-1.349-3.064-2.918-5.2-4.748c-4.689-4.011-9.275-7.38-9.322-7.416c-0.663-0.485-1.594-0.341-2.082,0.322
			c-0.485,0.663-0.342,1.595,0.32,2.081c4.51,3.306,10.906,8.485,14.994,12.688c-3.741,4.517-5.704,6.972-6.614,8.272
			c-4.209-1.076-7.732-2.367-8.354-3.122c-0.292-0.721-1.101-1.101-1.85-0.85c-0.78,0.258-1.202,1.103-0.941,1.881
			c0.369,1.106,1.528,2.375,7.468,4.152c1.914,0.571,3.77,1.028,4.909,1.293c-2.549,6.972,10.329,14.436,13.42,17.295
			c3.089,2.859,6.879,0.111,9.112-0.209c2.233-0.323,3.494,6.497,6.055,6.772c2.56,0.277,0-3.098,0-3.098
			c3.574,0.871,7.095,6.571,9.329,4.442c2.233-2.126,0-5.81,0-5.81l2.481-3.181c2.978-0.697,0.496-3.257,0.496-3.257
			c2.481-2.464,0-4.672,0-4.672s1.488-1.547,0.992-3.778c-0.496-2.233-2.977,0-3.969,3.474c-0.993,3.474-8.685,4.977-8.685,4.977
			s-1.488-0.511,1.489-1.236c2.977-0.726,2.481-7.71-2.233-2.996c-3.183,3.181-8.135,3.989-11.015,4.178
			c-0.943-1.411-2.333-3.817-3.093-6.709l-0.011-0.044c-0.622-2.363-1.022-3.896-0.996-5.429L109.02,60.936z M107.619,73.486
			c-2.525-2.321-5.696-5.2-7.363-6.592c-2.339-1.949-2.198-5.19-2.197-5.214l0.069-1.103c0.222-0.419,0.456-0.86,0.701-1.316
			c0.764-0.963,2.353-3.081,3.809-5.741c0.959,1.181,1.601,2.203,1.787,2.977c0.518,2.162,0.984,3.635,1.391,4.646
			c-0.668,2.938-0.116,5.047,0.805,8.552l0.011,0.042c0.411,1.565,0.976,2.992,1.57,4.233L107.619,73.486z M109.104,41.096
			c0.299,1.749,0.896,3.862,2.059,5.869c-0.613,1.441-1.133,2.94-1.633,4.381c-0.611,1.766-1.189,3.434-1.882,4.888
			c-0.05,0.106-0.098,0.209-0.146,0.313c-0.059-0.235-0.12-0.485-0.183-0.744c-0.15-0.625-0.499-2.065-3.265-5.196
			c0.615-0.785,1.145-2.053,1.596-3.548c0.518-0.958,1.07-1.862,1.617-2.746C107.935,43.229,108.585,42.173,109.104,41.096z"/>
		<path fill="#6E6F71" d="M2.784,147.932c2.729,0.25,6.14,0.496,5.303-4.465s-1.326-18.094,4.874-23.562
			c0,0,0.256,5.561,2.484,9.724c2.227,4.161,4.438,17.775,7.303,18.412s7.331,1.132,5.594-1.598c-1.737-2.729-9-15.681-7.602-22.853
			c1.398-7.17,7.991-17.593,7.991-17.593s6.061,8.283,18.964,6.375c12.902-1.906,14.375-2.125,14.375-2.125l4.638,1.63
			c0,0-0.589,5.415,0,11.184c0.589,5.766,3.132,18.17,0,21.894c-3.133,3.723,3.942,3.585,3.942,3.585s3.594,0.138,2.105-5.818
			c-1.489-5.954-0.022-9.829,0.361-15.459c0.383-5.631,0-7.357,0-7.357s3.36,11.154,3.857,16.118
			c0.496,4.962-0.497,12.631,1.984,12.517c2.482-0.112,7.196,1.377,6.452-1.104c-0.745-2.48-2.978-3.225-3.722-11.165
			c-0.745-7.938-2.234-20.5,0.744-23.897c2.978-3.396,1.985-3.015,6.203-3.826c4.218-0.809,13.398-3.187,17.368-8.946
			c3.971-5.759,5.956-4.271,7.444-3.774c1.489,0.497,1.972,1.359,8.438,2.234c0,0,2.977,2.433,4.713,1.54
			c2.887-1.483,4.467-3.774,2.481-6.504c-1.985-2.73-4.466-3.51-5.955-5.105c-1.489-1.593-7.691-5.315-7.691-6.556
			c0-1.241,0-1.241,0-1.241l-7.444-1.923c0,0-2.977-5.519-5.955-3.038c-2.977,2.482,0.249,4.641,0.249,4.641
			s-6.441,2.058-12.152,1.562c-5.712-0.497-6.706-6.202-17.126-5.211c-10.421,0.992-19.601,1.986-34.736-0.247
			c-15.136-2.235-14.626-1.737-22.821,0.247C7.25,78.211,7.232,78.466,6,83.549c-1.231,5.082,2.338,3.104,4.523,0
			c0,0-2.106,1.858-0.829,8.556c1.277,6.7,7.985,8.568,2.398,16.442c-5.587,7.874-6.581,7.234-7.325,10.656
			s-0.496,14.339-1.984,19.051c-1.489,4.716-2.978,7.694-1.489,8.686C2.784,147.932,2.784,147.932,2.784,147.932z"/>
		<path fill="#231F20" d="M28.73,105.999c0,0-13.436,4.318-15.101,7.619c-1.665,3.301-1.257,2.931-0.621,6.939
			c0.636,4.01,0.702,6.246,2.437,10.024c1.734,3.778,3.694,15.831,7.303,17.46s7.082,1.349,7.082,0c0-1.35-3.339-4.285-5.211-10.035
			c-1.871-5.745-4.537-15.731-1.772-19.649C25.611,114.437,28.73,105.999,28.73,105.999z"/>
		<path fill="#595A5C" d="M29.829,107.215c-1.509-1.646,8.684-0.014,21.09,0.627c12.406,0.639,15.787,4.036,15.787,4.036
			s-5.511-2.452-13.503-0.318C45.212,113.692,36.024,113.974,29.829,107.215z"/>
		<path fill="#595A5C" d="M0.679,145.7c0.95,1.007,1.839,4.427,5.321,2.213c3.483-2.213,2.575-3.46,2.087-7.176
			c-0.489-3.716,0.819-13.392,1.729-16.372c0.909-2.981,3.145-4.459,3.145-4.459s5.703-10.68,11.162-13.656
			c5.459-2.979,10.62-4.61,10.645-6.648c0.024-2.037,3.667-4.021-3.613-3.029s-6.18,3.794-10.7,6.737
			c-4.519,2.94-2.865-3.344-6.825,2.585c-3.958,5.928-8.236,5.884-8.86,13.31C4.145,126.627,2.04,136.519,2.04,139
			C2.04,141.481-1.427,143.467,0.679,145.7z"/>
		<path fill="#656667" d="M71.762,117.596c-0.745-2.911-3.226-12.13,0-7.894c3.225,4.238,4.218,6.563,7.195,2.671
			c2.978-3.893,1.985,0.805,0,4.784c-1.984,3.978-2.233,8.371-0.745,8.407c1.489,0.037,2.815,3.577,2.815,3.577
			s2.55,14.534,3.465,16.413c0.916,1.881,1.945,1.816,0.562,3.09c-1.383,1.272-5.406,2.003-7.117-0.721
			c-1.71-2.721-1.462-2.473-1.214-7.188c0.249-4.713-3.609-20.831-3.609-20.831L71.762,117.596z"/>
		<path fill="#231F20" d="M68.039,123.062c-0.247-2.67,1-8.273,2.609-3.858c1.609,4.415,2.466,8.06,2.466,8.06
			s-0.671,12.122-0.361,15.459c0.311,3.336,0.929,7.628-4.746,5.923c-5.675-1.705-0.032-5.305,0-7.103
			C68.039,139.744,68.039,123.062,68.039,123.062z"/>
		<g>
			<path fill="#E7E7E7" d="M114.646,84.113c1.628,1.544-0.763,1.92-2.664,1.813c-3.46-0.193-2.36-2.212-2.36-2.212
				S112.61,82.182,114.646,84.113z"/>
			<path fill="#595A5C" d="M114.646,84.113c0.122,0.134,0.266,0.239,0.381,0.386c0.13,0.134,0.252,0.289,0.307,0.521
				c0.052,0.226-0.039,0.526-0.188,0.722c-0.149,0.213-0.323,0.377-0.499,0.549c-0.717,0.641-1.513,1.242-2.38,1.706l-0.329,0.155
				l-0.083,0.038c-0.188-0.014-0.053-0.003-0.096-0.006l-0.002,0.001l-0.004,0.002l-0.009,0.005l-0.018,0.009l-0.035,0.017
				l-0.141,0.061l-0.282,0.119c-0.049,0.017-0.089,0.032-0.145,0.046l-0.238,0.022c-0.321,0.027-0.65,0.042-0.978-0.015
				c-0.167-0.022-0.324-0.05-0.497-0.092c-0.191-0.056-0.377-0.132-0.564-0.206c-0.172-0.061-0.409-0.216-0.606-0.341
				c-0.193-0.12-0.413-0.313-0.62-0.523c-0.402-0.401-0.766-1.015-0.938-1.646c-0.16-0.626-0.162-1.269-0.037-1.765
				c0.058-0.256,0.136-0.49,0.238-0.706c0.049-0.107,0.099-0.217,0.164-0.321l0.25-0.402l0.583-0.939l0.534-0.15
				c0.276-0.078,0.396-0.082,0.583-0.091c0.169-0.001,0.336-0.001,0.499,0.01c0.332,0.032,0.654,0.084,0.975,0.178
				c0.636,0.175,1.241,0.426,1.771,0.748c0.532,0.306,0.987,0.646,1.368,0.974c0.192,0.164,0.371,0.317,0.539,0.479
				C114.327,83.798,114.472,83.975,114.646,84.113z M114.646,84.113c-0.182-0.129-0.343-0.29-0.563-0.355
				c-0.204-0.09-0.425-0.133-0.649-0.132c-0.105-0.016-0.227,0.02-0.334,0.035c-0.109,0.02-0.213,0.035-0.322,0.088
				c-0.21,0.073-0.409,0.199-0.589,0.333c-0.363,0.303-0.651,0.655-0.885,1.026c-0.115,0.192-0.223,0.364-0.314,0.542
				c-0.05,0.079-0.09,0.162-0.129,0.241c-0.019,0.075-0.105,0.159-0.029,0.18l1.117-1.09c0.061-0.094,0.072-0.097,0.091-0.114
				c0.021-0.022,0.036-0.032,0.051-0.041c0.031-0.021,0.052-0.046,0.077-0.067c0.047-0.045,0.092-0.101,0.127-0.18
				c0.067-0.14,0.115-0.419,0.044-0.699c-0.05-0.296-0.242-0.582-0.381-0.737c-0.082-0.081-0.176-0.145-0.212-0.175
				c-0.045-0.03-0.147-0.062-0.149-0.059c-0.024,0.001-0.048,0.002-0.076,0.021c-0.004,0.019,0.013,0.037,0.016,0.07
				c0.012,0.065,0.041,0.123,0.072,0.222l0.027,0.072c0.033,0.024,0.083,0.047,0.124,0.073l0.254,0.17l0.127,0.086l0.031,0.023
				l0.016,0.012l0.008,0.006l0.004,0.003l0.002,0.002c-0.041-0.003,0.094,0.008-0.091-0.006l0.051,0.044l0.209,0.176
				c0.283,0.252,0.588,0.498,0.907,0.719c0.315,0.223,0.652,0.427,0.978,0.521c0.161,0.054,0.328,0.081,0.457,0.067
				c0.154-0.002,0.253-0.051,0.315-0.179c0.056-0.127,0.021-0.319-0.062-0.47C114.897,84.376,114.762,84.248,114.646,84.113z"/>
		</g>
		<path fill="#595A5C" d="M87.641,87.992c-0.787-4.043,0.992,13.11-4.963,22.257l-1.319,4.281c0,0,4.031-5.24,7.275-5.982
			C88.634,108.547,88.386,91.819,87.641,87.992z"/>
		<path fill="#656667" d="M34.425,100.494c0,0,4.312-3.521,1.274-14.415c-3.036-10.895,7.617-2.77,6.785-6.204
			c-0.833-3.438-1.864-4.668-11.33-4.884s-24.307,5.38-20.63,14.75c3.676,9.368,1.576,13.137,8.208,9.86
			C25.363,96.324,34.576,94.378,34.425,100.494z"/>
		<path fill="#595A5C" d="M129.44,97.228c0,0-3.585,1.856-8.772,0.659C120.668,97.887,126.645,101.607,129.44,97.228z"/>
		<path fill="#595A5C" d="M115.81,82c-1.628-1.26,2.53,6.376,7.092,8.907c4.561,2.531,2.152,2.147,6.326,2.147
			C129.228,93.055,121.235,86.19,115.81,82z"/>
		<path fill="#595A5C" d="M104.017,76.474c1.096-2.824,3.97,1.836,1.984,3.4C104.017,81.436,101.402,83.21,104.017,76.474z"/>
		<path fill="#5A3B23" d="M125.054,78.452c-1.085-1.384,10.97-2.707,10.97-2.707s0.706,2.557-4.256,2.707
			c-4.963,0.147-1.776,2.001-0.249,2.863C133.047,82.182,127.272,81.279,125.054,78.452z"/>
		<path fill="#5A3B23" d="M130.522,36.686c0,0-8.863,0.69-12.7,5.974C117.822,42.659,128.239,39.884,130.522,36.686z"/>
		<path fill="#5A3B23" d="M113.306,32.095c0,0-3.383,7.831-5.041,10.564c-1.657,2.732-4.211,7.947-4.211,7.947
			s4.801-13.171,6.333-15.788C111.918,32.2,113.306,32.095,113.306,32.095z"/>
		<path fill="#5A3B23" d="M88.634,37.084l10.367,8.508C99.001,45.592,91.153,41.223,88.634,37.084z"/>
		<circle fill="#231F20" cx="112.674" cy="84.501" r="1.223"/>
		<path fill="#3B2416" d="M107.987,78.272c0,0,2.023,4.512,7.444,1.923C120.851,77.606,107.987,78.272,107.987,78.272z"/>
	</g>
	<g>
		<path fill="#F69321" d="M544.123,136.617l-0.336,5.5c0,0,2.025,2.526,5,2.674c2.973,0.147,5.291-2.12,0.184-3.018
			c-5.107-0.896-3.997-1.159-3.997-1.159l0.327-5.364L544.123,136.617z"/>
		<path fill="#F69321" d="M541.529,136.657l-0.285,4.646c0,0-0.829,5.122,2.906,4.638s3.729-3.12,3.729-3.12l-5.446-1.446
			l0.384-6.275L541.529,136.657z"/>
		<path fill="#FFFFFF" d="M525.627,128.406l3.839,0.646c0,0,4.294,7.823,12.063,7.605c7.768-0.221,10.986,0.785,15.481-4.416
			c4.493-5.199,8.893-8.864,6.419-17.188c-2.475-8.326-6.968-14.596-5.641-21.673l3.795-1.824c0,0,2.527-2.285-0.014-4.652
			c-2.539-2.365-3.762-1.896-7.132-0.436s-3.437,7.424-3.077,11.322c0.357,3.9,2.17,13.275-1.162,14.104
			c-3.331,0.833-5.724,0.94-9.734,3.103c-4.01,2.163-8.484,2.198-9.746,3.31c-1.261,1.111,1.412,1.291,1.412,1.291l-6.203,3.882
			l3.783,1.564C529.711,125.042,526.07,126.024,525.627,128.406z"/>
		<path fill="#F69321" d="M562.51,88.231c0,0,3.072,0.242,3.479,1.48c0.405,1.242-4.422,2.141-4.422,2.141
			S560.136,90.075,562.51,88.231z"/>
		<path fill="#E7E7E7" d="M557.701,116.048c1.299-1.883,0.06,3.908-2.633,4.039c-2.693,0.132-3.846-0.53-3.846-0.53
			s-1.081,3.06-4.364,3.082c-3.282,0.025-3.282,0.025-3.282,0.025s-1.992,3.314-4.328,2.497c-2.337-0.816-5.953-3.453-4.404-6.016
			c1.548-2.565,0.312,4.658,5.243,2.045s3.472,1.765,7.831-1.247C552.278,116.933,554.756,120.322,557.701,116.048z"/>
		<path fill="#E7E7E7" d="M529.711,125.042c0,0,1.561,3.746,8.783,2.688c7.224-1.058,6.318,3.988,11.446-1.829
			c0,0-0.269,4.385-10.372,3.769C529.466,129.051,530.42,128.531,529.711,125.042z"/>
		<path fill="#FAAF42" d="M542.433,141.374l4.366,2.61C546.799,143.984,548.881,143.248,542.433,141.374z"/>
		<circle fill="#414142" cx="558.355" cy="87.59" r="0.64"/>
	</g>
	<g>
		<g>
			<g>
				<path fill="#FAAF42" d="M335.082,136.77v4.772c0,0-1.982,1.167-1.262,1.844c0.721,0.676,2.163-0.136,3.604,0
					c1.442,0.134,3.425,0.88,3.604-0.229c0.18-1.11,5.047-1.418,2.164-1.352c-2.885,0.062-6.489-0.685-6.489-0.685
					s1.081-2.813,0.36-4.351C336.343,135.231,335.082,136.77,335.082,136.77z"/>
				<path fill="#FFFFFF" d="M301.501,129.355c3.212-1.384,5.944-3.074,8.229-4.818c2.283-1.74,4.677-3.903,8.977-5.165
					c4.3-1.262,18.358-1.714,18.358-1.714s4.865-1.224,5.407-4.366c0.54-3.143,1.683-8.705,4.325-9.451
					c5.768-1.621,5.768,2.264,5.768,2.264s0,0.669,0,2.291c0,1.62-1.262,1.935-1.262,1.935s-5.406,1.081-4.506,3.964
					c0.9,2.885,2.522,6.673,0.36,11.01c-2.163,4.34-7.389,11.876-11.354,12.615c-3.965,0.738-5.587-0.739-7.209,0
					c-1.622,0.738-2.586,0.878-6.237-1.658c-3.65-2.537-6.102-2.697-8.945-5.92c0,0-9.156,1.842-9.197,1.141
					c-0.041-0.699,1.713-2.126,1.713-2.126S298.83,130.506,301.501,129.355z"/>
				<path fill="#F69321" d="M351.947,106.144c0,0,4.926,0.22,6.947,0.479c0.914,0.115,1.113,1.399-2.216,1.901
					c-3.329,0.503-3.2-0.558-3.2-0.558s6.34,1.505,4.957,2.425c-1.383,0.922-6.049-0.92-6.049-0.92S349.709,107.137,351.947,106.144
					z"/>
				<path fill="#FAAF42" d="M326.582,136.77c-0.776,1.431,0,7.624,0,7.624s-3.064,0.853-1.968,1.431
					c1.096,0.581,2.539-0.174,2.539-0.174s-0.192,1.565,1.801,1.082c2.315-0.563,0.722-1.83,0.722-1.83s1.748,1.156,2.818-0.073
					c0.874-1.005-3.571-1.194-3.571-1.194s-1.77-4.606-0.509-6.865C328.414,136.77,327.993,134.163,326.582,136.77z"/>
				<path fill="#FAAF42" d="M331.423,143.91c0,0-1.928,4.296-5.893,2.136C325.53,146.045,329.927,143.575,331.423,143.91z"/>
				<path fill="#E7E7E7" d="M349.705,110.799c0,0-4.871,0.047-5.602,2.492c-0.731,2.445,1.939,1.848,2.646,2.627
					c0.707,0.775,0.707,0.775,0.707,0.775S345.033,114.036,349.705,110.799z"/>
				<polygon fill="#E7E7E7" points="312.038,126.008 313.412,130.34 310.571,128.173 305.929,129.355 				"/>
				<path fill="#E7E7E7" d="M321.112,134.894c0,0,2.255-2.557,8.743-2.191c6.487,0.366-1.191,0.964-4.344,2.261
					C322.357,136.26,321.112,134.894,321.112,134.894z"/>
				<path fill="#E7E7E7" d="M340.575,116.016c0,0-5.573,3.145-7.967,3.88c0,0,4.096,2.148,5.537,0
					C339.588,117.749,340.575,116.016,340.575,116.016z"/>
			</g>
			<path fill="#F69321" d="M327.98,139.472c0,0-1.559,3.89,0.942,4.163L327.98,139.472z"/>
			<polygon fill="#F69321" points="336.704,141.121 339.056,142.452 341.956,141.786 			"/>
		</g>
		<path fill="#414142" d="M349.171,106.144c0-0.33-0.266-0.595-0.593-0.595s-0.593,0.265-0.593,0.595c0,0.325,0.266,0.59,0.593,0.59
			S349.171,106.469,349.171,106.144z"/>
	</g>
	<g>
		<path fill="#4D3F37" d="M389.52,92.955c4.665-0.317,7.051,1.888,10.184,0c3.135-1.89,3.479-0.777,6.454-3.891
			c2.974-3.11,4.153-1.938,5.727-4.885c1.574-2.945,1.844-4.52,2.692-7.271c0.848-2.754,0.848,1.57,0.848-2.754
			c0-4.326,0.271-2.02-0.848-5.334c-1.118-3.318,1.242-0.172-1.118-3.318s-4.375-3.146-4.548-4.72
			c-0.172-1.574,0.566-1.574-2.753-3.148c-3.319-1.572-0.565-1.178-3.319-1.572c-2.753-0.394-1.703,0.788-4.785,0
			c-3.081-0.786-5.133-0.083-5.133-0.083s-0.2,5.59-3.4,4.41c-3.201-1.181-2.105-2.755-2.105-2.755v-1.943
			c0,0-5.836,1.943-7.005,2.731c-1.169,0.786,0.797,0-1.169,0.786c-1.968,0.786-2.765,0.394-2.957,1.968
			c-0.189,1.572,0.562-2.919-0.189,1.572c-0.754,4.491-2.177,3.488-2.859,6.072c-0.682,2.581-1.074-1.354-0.682,2.581
			c0.394,3.933-0.725,1.985,1.261,5.623c1.985,3.636-0.242,3.775,3.009,7.156c3.252,3.382,3.825,4.835,6.268,5.859
			c2.441,1.026,2.219,2.916,4.324,2.916S389.52,92.955,389.52,92.955z"/>
		<path fill="#D8BCA4" d="M388.656,9.415c2.745,0.013,2.745,0.013,4.1,1.021c2.242,1.668,2.609,2.884,1.823,7.474
			c-0.787,4.588-1.574,6.815-2.36,17.566c-0.786,10.752-0.965,13.589-0.131,17.044c0.832,3.457,1.311,10.096-1.836,9.439
			c-3.146-0.655-3.802-1.835-3.54-6.948c0.263-5.112,0.093-14.945,0.702-20.32c0.609-5.376,3.362-13.505,2.051-16.127
			c-1.311-2.622-2.596-3.015-2.805-3.408c-0.21-0.394-2.115-0.532,0-3.54C387.665,10.186,388.656,9.415,388.656,9.415z"/>
		<path fill="#D8BCA4" d="M380.868,88.605c0,0,4.917,9.537,5.25,13.206c0.332,3.671-0.202,3.148,0,6.949
			c0.2,3.802,1.929,1.294,1.296,5.971c-0.634,4.674,0.046,14.877,0,20.645c-0.047,5.769-1.296,6.609-1.296,6.609
			s-3.099,0.601-5.25,1.388c-2.153,0.786-3.912-0.532-3.099,1.504c0.814,2.035,1.316,0.603,3.099,1.058
			c1.78,0.454-0.231,2.168,1.692,2.752c1.923,0.586,1.39-2.34,3.558-2.253c2.167,0.086,1.381,2.211,3.347,1.279
			c1.968-0.931,1.312-1.769,0-3.448c-1.311-1.679-0.285-2.001,0.055-3.938c0.339-1.936,0.724-10.4,1.188-16.198
			c0.463-5.797-0.333-8.649,0-11.68c0.332-3.032,2.035-2.508,0.856-6.965c-1.18-4.459-3.54-9.965-3.278-13.897
			C388.548,87.654,377.252,84.442,380.868,88.605z"/>
		<path fill="#D8BCA4" d="M406.98,88.266c0.435,2.409-3.143,5.156-3.576,7.516c-0.436,2.36,0.697,3.672,0,6.948
			c-0.697,3.278-0.959,4.398-1.354,8.759c-0.393,4.36,0,13.948,0,20.36c0,6.409,0.084,9.833,1.354,10.648
			c1.27,0.811,5.547,0.376,5.506,2.167c-0.041,1.79-3.318-1.259-4.892,0.768c-1.573,2.027,0.698,2.291-2.142,3.207
			c-2.84,0.919-2.054-2.77-4.676-2.695s-4.107-0.45-2.25-1.279c1.856-0.832,4.3-0.631,3.931-4.338
			c-0.37-3.705-0.287-17.397,0-25.596c0.286-8.199,0.895-7.675,0-10.429c-0.895-2.752-0.739-1.312,0.821-6.16
			c1.562-4.851-0.143-4.142,2.348-8.104C404.542,86.081,406.666,86.522,406.98,88.266z"/>
		<path fill="#FECD90" d="M387.176,15.622c0,0-4.921-1.389-4.527-2.567c0.393-1.179,3.42-0.786,4.527-1.048
			c1.109-0.263-0.333,0.076,0.585,1.808c0.919,1.731,1.313,0.575,0.919,1.731C388.284,16.7,387.176,15.622,387.176,15.622z"/>
		<path fill="#231F20" d="M390.274,11.929c0-0.447-0.362-0.812-0.81-0.812c-0.445,0-0.809,0.364-0.809,0.812
			c0,0.444,0.363,0.808,0.809,0.808C389.912,12.736,390.274,12.373,390.274,11.929z"/>
	</g>
	<g>
		<path fill="#CFC3E0" d="M622.334,133.248l1.855,8.548c0,0-1.404,2.619-1.357,3.71c0.047,1.092,0.92-1.307,2.23-1.307
			c1.309,0,0,2.398,1.526,2.398c1.528,0-0.437-2.398,0.873-2.398s1.746,0,3.71,0s-1.09-0.875-2.619-2.186
			c-1.527-1.31-1.309,0.837-1.964-2.092c-0.654-2.927-0.872-6.674-0.872-6.674H622.334z"/>
		<path fill="#BCAFD3" d="M627.945,132.628l2.354,6.33c0,0,4.365,0.874,5.02,2.618c0.654,1.747-1.706-0.119-2.636,0.873
			c-0.93,0.993,4.382,1.749,1.325,1.749c-3.055,0-6.671-1.027-6.063-2.696c0.607-1.67-1.98-9.784-1.98-9.784L627.945,132.628z"/>
		<path fill="#E7E7E7" d="M614.592,90.958c0,0-3.061-3.035-6.115-2.617c0,0-3.928-2.193-10.039-1.32
			c-6.109,0.874-6.497,1.867-6.497,1.867s-3.417,0.517-3.322,2.9c0,0-2.618,0.998-1.31,2.52c0,0-3.273,1.908-2.76,4.054
			c0,0-3.786,2.333-2.258,4.335c1.526,2.001,2.258,2.835,2.258,2.835s-0.141-0.181,0,2.657c0.142,2.837-0.731,3.615,1.232,6.281
			c1.963,2.664,1.328,5.105,4.801,3.776c3.474-1.328,6.041-12.063,6.041-12.063L614.592,90.958z"/>
		<path fill="#231F20" d="M626.807,133.939c0,0,5.238,0.438,7.421,0c2.181-0.436-2.62,2.837,0,2.184
			c2.618-0.655,2.181-2.619,2.181-2.619s1.529,2.4,3.711,0c0,0,1.745,0.436,3.491-2.619c1.746-3.054,3.71-7.191,6.11-7.962
			c2.4-0.768,3.056-4.516,4.364-6.678c1.31-2.163-0.655-1.017,0-4.426c0.655-3.412,2.45-6.104,0.462-9.122
			c-1.99-3.017-2.207-3.044-3.08-3.685c-0.874-0.644-2.619-1.575-4.365-3.182c-1.745-1.608-3.491-4.042-3.491-4.042
			s0.872,4.048-0.654,5.096c-1.528,1.048-1.528,1.048-1.528,1.048s-1.964-5.019-6.109-4.801c-4.146,0.22-5.893-2.853-7.201-4.371
			c0,0-3.055,0.645-5.783,0c-2.729-0.647-4.475,0.88-6.656,1.752c-2.182,0.875-2.837,1.276-2.837,1.276s-3.273-1.276-4.364-1.276
			c0,0-1.091-2.635-3.056-1.752c0,0-2.181-0.807-4.581-0.182c0,0-3.711-0.684-4.365,1.278c0,0-1.746-1.744-3.273,0.655
			c0,0-1.309-0.284-2.4,1.276c-1.092,1.563-2.836,2.158-2.183,4.042c0,0-3.491,2.191-3.056,3.782c0,0-2.256,3.388-0.037,4.018
			c2.219,0.631,2.219,0.631,2.219,0.631S586,106.226,586,107.972c0,1.745,0.655,0.875,0.655,0.875s-0.655,2.495,0.218,3.428
			c0.871,0.935,1.092,3.336,1.964,3.664c0.872,0.323,1.745,2.308,1.745,2.308l5.238-2.002c0,0,1.309,0.044,4.146,4.505
			s4.147,3.955,4.147,3.955s4.146-0.545,6.982-3.073c0,0-4.146,5.979-1.746,9.253s1.746,2.183,1.746,2.183s-1.31,3.012,3.055,3.143
			C618.515,136.341,626.807,133.939,626.807,133.939z"/>
		<path fill="#E7E7E7" d="M608.477,94.179c0,0-2.182,0.175-4.582,0c-2.4-0.176-1.965-1.571-4.146,0
			c-2.183,1.57-3.055,2.105-4.365,3.91c-0.226,0.313-0.426,0.613-0.602,0.896c-0.845,1.354-1.144,2.316-1.144,2.316h1.31
			l-1.31,1.395l-1.31,2.42c0,0-0.873,3.73,0,3.947s0.654,2.233,0.654,2.233l2.619,3.806c0,0-0.436-2.762,0-3.637
			c0,0-1.527-2.18-1.746-5.476c-0.218-3.294,2.401-4.688,2.401-4.688l1.091-2.29c0,0-0.873-1.211,1.527-2.128
			c2.4-0.915,4.801-1.382,4.801-1.382l1.745,0.328c0,0-4.314,1.468-5.212,4.293c-0.897,2.829-3.08,2.316-3.516,5.408
			c-0.437,3.093,0.654,5.935,0.654,5.935l1.964-1.413c0,0-2.222-3.227-1.091-5.782c1.131-2.555,3.273-2.969,3.273-2.969
			s-1.965-0.567,1.527-2.841S608.477,94.179,608.477,94.179z"/>
		<polygon fill="#E7E7E7" points="598.438,113.823 600.209,113.274 603.24,116.245 602.148,118.132 		"/>
		<path fill="#E7E7E7" d="M602.366,120.592l-3.929-5.489c0,0-2.399-2.152-2.617,1.142c0,0,4.801,8.707,6.546,8.583
			c1.747-0.123,5.531,0.456,7.566-2.309l-4.074-1.927l-1.528,1.039l1.311,1.114h-1.527L602.366,120.592z"/>
		<path fill="#E7E7E7" d="M622.334,126.92c0,0-4.255,3.528-9.93,5.708c0,0,6.248-3.006,7.598-6.849L622.334,126.92z"/>
		<path fill="#E7E7E7" d="M624.406,129.206c0,0-2.137,6.101-5.33,6.525c0,0,4.24,0.089,7.513-6.525H624.406z"/>
		<path fill="#E7E7E7" d="M643.773,95.298c0,0-0.927-5.195,0-8.482c0.928-3.285,6.602-3.041,8.13,0c0,0,0,1.54-1.746,3.054
			c-1.745,1.518-1.833,0.575-1.091,4.31c0.74,3.734,3.71,6.076,0.436,4.807C646.229,97.714,645.246,98.338,643.773,95.298z"/>
		<path fill="#CFC3E0" d="M648.645,91.887c0,0,2.167,2.052,3.259-0.099c1.091-2.148,2.952-2.781,0-4.973
			c-2.953-2.193-3.243-0.429-3.259,1.525C648.63,90.295,648.645,91.887,648.645,91.887z"/>
		<path fill="#F15B2A" d="M653.43,89.287c0,0,0.871,2.061,0,4.152l-2.901-0.669L653.43,89.287z"/>
		<path fill="#BE202E" d="M648.833,94.179c0,0,1.268-0.252,2.181,1.8c0.913,2.057,1.74,5.14,1.207,5.501
			c-0.531,0.363-2.045,4.151-3.854,1.336c-1.81-2.814-2.677-2.328-1.343-4.15C648.357,96.847,647.237,95.717,648.833,94.179z"/>
		<circle fill="#231F20" cx="650.956" cy="88.452" r="0.765"/>
		<path fill="#CFC3E0" d="M648.639,90.141c0,0,0,0-1.825,0c0,0-0.567-2.221,1.825-3.325c0,0,1.098,0-1.884,0
			c0,0,2.111-4.496,4.393-1.012l0.756,1.012c0,0-2.484-0.642-2.333,0C649.721,87.457,648.639,90.141,648.639,90.141z"/>
	</g>
	<g>
		<path fill="#3B2416" d="M506.959,77.147c0,0,3.824-3.374-1.574-7.647c-1.824-1.444-4.498-2.249-5.621-0.899
			c-1.125,1.35,2.953,2.924,3.838,4.949C504.486,75.573,503.811,79.169,506.959,77.147z"/>
		<path fill="#3B2416" d="M497.964,76.234l3.823-1.337c0,0-2.25-5.621-6.973-6.296c-4.723-0.675-6.071,0.225-5.848,1.574
			c0.226,1.35,5.15,0.627,6.398,2.338C496.614,74.224,497.964,76.234,497.964,76.234z"/>
		<path fill="#F2F2F2" d="M434.767,92.302c-0.45,3.286,2.698,7.169,5.622,8.487c0,0,0,3.004,2.249,7.447
			c2.249,4.444,2.698,8.425,1.125,12.057c-1.574,3.632-3.148,0.996-2.924,5.237c0.226,4.242-0.675,10.393-0.225,12.939
			c0.45,2.548,0.225,5.022,1.574,6.596c1.349,1.575,4.723,0.109,5.397-1.182c0.676-1.292-3.148-8.844-1.35-13.277
			c1.799-4.432,4.948-6.466,4.948-6.466s-0.45,3.727,2.024,6.703c2.474,2.978,4.498,7.806,5.847,10.227
			c1.351,2.422,2.475,1.824,5.173,1.561c2.699-0.264,4.723-0.328,2.25-3.218c-2.475-2.894-6.298-6.21-7.197-10.4
			c-0.9-4.188,2.249-8.72,2.249-8.72s12.594,2.451,19.116-0.444c0,0,4.498,3.451,2.698,9.948c-1.799,6.498-1.799,7.728-0.675,11.273
			c1.125,3.547,3.149,1.561,3.149,1.561s-0.45,3.802,2.024,3.119c2.473-0.685,6.971-0.882,5.621-2.808
			c-1.349-1.925-3.598-4.437-3.373-8.804c0.225-4.366,1.125-15.251,1.125-15.251s7.422-2.772,7.871-8.2
			c0.449-5.429,0.676-6.24,2.475-10.107s1.799-3.867,1.799-3.867l1.799-1.529c0,0-0.9,1.852,0,3.266c0.9,1.412,1.35,1.51,1.35,0
			c0-1.512,1.35,0.544,1.35,0.544s-1.35-1.724,0-2.789c1.35-1.066,1.574,1.182,1.574,1.182s-0.674-0.356,1.574-2.202
			c2.249-1.844,2.924-2.969,1.8-5.668s-2.249-2.925-1.8-5.397c0.45-2.474,0.9-3.824,0.9-3.824s6.746-3.822,4.272-5.847
			c0,0-4.723-0.224-6.297,1.35c0,0-4.724-4.948-8.997-2.7c-4.272,2.25-4.272,2.25-4.272,2.25s-1.8-2.25-2.924,0.45
			c-1.124,2.698,0,4.272,2.024,6.071c0,0-1.799,2.025-4.273,6.073c0,0-8.044,5.398-15.717,6.072
			c-7.673,0.676-13.52-3.647-22.066-1.712c-8.546,1.937-8.996,3.151-10.795,2.882s-3.148-3.869-5.173-4.768
			C435.666,89.516,434.767,92.302,434.767,92.302z"/>
		<path fill="#BBBDBF" d="M498.414,82.769c0.502-1.509,3.598-0.225,4.498,1.573C503.811,86.143,497.964,84.119,498.414,82.769z"/>
		<path fill="#BBBDBF" d="M510.921,77.855c-1.81-1.14,5.556-2.382,4.604-1.161c-0.952,1.22-3.938,4.511-3.938,4.511
			S512.477,78.831,510.921,77.855z"/>
		<path fill="#BBBDBF" d="M494.262,75.956c0.374-1.214,3.676,0.89,3.213,3.277C497.012,81.623,492.964,80.165,494.262,75.956z"/>
		<path fill="#595A5C" d="M508.615,91.577c-0.576-0.985,0.725-1.669,3.68-2.444c0,0,1.571,1.684,0.326,1.655
			c-1.244-0.029-0.469,1.471-1.416,2.072c-0.947,0.597,1.355-2.062-0.902-1.615C508.615,91.577,508.615,91.577,508.615,91.577z"/>
		<circle fill="#3B2416" cx="500.697" cy="83.129" r="1.476"/>
		<path fill="#3B2416" d="M486.473,145.542l6.992-2.599c0,0,1.98,1.272,0.541,2.599
			C492.566,146.866,487.125,147.157,486.473,145.542z"/>
		<path fill="#3B2416" d="M483.074,142.056l2.295-0.851l0.45,1.426c0,0-0.808,1.068-1.372,0.713
			C483.881,142.992,483.943,144.667,483.074,142.056z"/>
		<path fill="#3B2416" d="M467.363,140.647l-6.927,1.984c0,0,0.21,0.981,3.463,0.92
			C467.152,143.493,471.846,142.974,467.363,140.647z"/>
		<path fill="#3B2416" d="M442.863,145.833l4.723-1.948c0,0,3.148,0.689,2.023,1.948
			C448.485,147.091,442.638,148.396,442.863,145.833z"/>
		<path fill="#BBBDBF" d="M451.185,124.141c0,0,3.374-3.431,10.346-3.848l-2.051,4.542c0,0-8.602-0.251-8.229,1.412l-0.372-1.663
			L451.185,124.141z"/>
		<path fill="#D1D2D3" d="M485.369,141.206c0,0-1.171-5.709-0.922-8.12c0.248-2.413-0.693-6.838-0.693-6.838
			s-0.625,4.019-1.105,6.171C482.166,134.572,483.57,141.168,485.369,141.206z"/>
		<path fill="#D1D2D3" d="M494.006,103.547c-3.025-0.763,3.572,2.338,3.514,6.658c-0.06,4.324,0.263-3.173,1.702-5.397
			C500.662,102.583,497.919,104.535,494.006,103.547z"/>
		<polygon fill="#D1D2D3" points="440.389,100.79 440.389,97.386 437.9,99.088 		"/>
		<path fill="#E7E7E7" d="M497.52,92.947c0,0,1.982,1.292,5.486,1.292s2.154,0.945,2.154,0.945s-5.222,1.171-6.771,0
			C496.84,94.014,497.52,92.947,497.52,92.947z"/>
	</g>
</g>
</svg>
