<?xml version="1.0" encoding="utf-8"?>
<!-- Generator: Adobe Illustrator 16.0.0, SVG Export Plug-In . SVG Version: 6.00 Build 0)  -->
<!DOCTYPE svg PUBLIC "-//W3C//DTD SVG 1.1//EN" "http://www.w3.org/Graphics/SVG/1.1/DTD/svg11.dtd">
<svg version="1.1" id="Layer_1" xmlns="http://www.w3.org/2000/svg" xmlns:xlink="http://www.w3.org/1999/xlink" x="0px" y="0px"
	 width="854.098px" height="655.726px" viewBox="0 0 854.098 655.726" enable-background="new 0 0 854.098 655.726"
	 xml:space="preserve">
<g>
	<g>
		<defs>
			<rect id="SVGID_1_" x="-12" y="-22" width="881.725" height="678.726"/>
		</defs>
		<clipPath id="SVGID_2_">
			<use xlink:href="#SVGID_1_"  overflow="visible"/>
		</clipPath>
		<g clip-path="url(#SVGID_2_)">
			<g>
				<path fill="#512E1D" d="M179.917,652.877c-14.027-6.377-23.628-42.121-25.685-101.707
					c-2.055-59.588,11.302-44.178,12.843-98.627c1.542-54.449-17.979-33.902-5.65-116.091
					c12.328-82.188,5.138-113.008-1.026-117.117c-6.165-4.111-11.302,0-32.876,8.219c-21.573,8.218-42.122-1.028-63.694-22.603
					c-21.574-21.574-100.683-69.861-39.039-98.626c61.641-28.767,113.008,38.011,119.172,34.929
					c6.164-3.08,27.738-20.545,22.603-32.875c-5.138-12.327-19.521-22.601-6.164-40.065c13.354-17.466,29.793-15.411,34.932-30.822
					c5.137-15.409,0,8.22,7.189,9.247c7.192,1.026,14.383-16.438,39.04-24.656c24.656-8.219,53.423-18.491,73.969-9.246
					c20.549,9.246,28.768,9.246,41.095,9.246c12.328,0-10.273,7.191,0,14.383c10.273,7.19,21.574,26.711,41.095,38.012
					c19.521,11.302,21.573,30.82,17.465,39.039c-4.107,8.219-3.676,7.193,1.758,15.412c5.435,8.217,8.518,33.901,21.872,26.711
					c13.355-7.191,28.766-31.848,74.996-31.848s85.271,26.71,79.105,56.502c-6.164,29.795-88.354,99.654-132.527,76.025
					c-44.177-23.629-29.793,17.466-14.385,21.575c15.412,4.108,24.658,32.876,99.654,41.095
					c74.998,8.217,73.971,12.328,132.527,30.818c58.561,18.494,67.807-9.244,93.49,60.615
					c25.684,69.861,84.244,101.707,48.285,159.238c-35.957,57.535-50.303,127.781-50.303,127.781S428.538,765.887,179.917,652.877z"
					/>
				<path fill="#F2F2F2" d="M414.063,91.982c0,0-19.429-4.15-27.646,13.314c-8.221,17.465-23.631,55.479-36.985,81.162
					c-13.354,25.686-18.492,43.149-8.219,76.023c10.272,32.875,22.602,85.993,40.066,115.938
					c17.465,29.947,19.521,89.535,5.138,105.971c-14.384,16.439-7.192,0-26.713,11.3c-19.52,11.303-61.642,31.852-96.57,13.356
					c-34.932-18.49-28.767-12.328-52.396-27.738c-23.629-15.409-22.602-50.34-8.219-78.079c14.383-27.736,58.56-41.093,62.668-77.05
					c4.11-35.957,25.686-24.656,15.411-60.614c-10.272-35.957,7.191-16.438-10.272-56.505
					c-17.465-40.067-11.302-58.56-23.632-76.025c-12.326-17.463-39.039-46.23-60.611-46.23c-21.574,0-25.685,6.164-19.521,21.574
					c0,0-23.821-1.725-12.396-32.711c11.424-30.984,19.321-22.711,25.579-32.013c6.255-9.301,23.802-21.573,23.802-21.573
					s-7.191,16.438,1.028,16.438c8.218,0,16.197-7.19,30.188-16.438c13.986-9.246,24.755-17.803,28.37-12.895
					c3.614,4.907,25.196-12.356,46.229-1.434c21.036,10.924,40.491,6.109,53.847,0.971c13.355-5.134-3.082,8.219-3.082,8.219
					l15.41-2.053c0,0-4.608,25.684,3.609,34.931C387.367,59.068,412.946,70.448,414.063,91.982z"/>
				<path fill="#F2F2F2" d="M430.85,256.616c0,0-1.271,1.954-4.366,8.949c-8.565,19.347-9.246,0,21.571,36.983
					c30.822,36.984,38.014,44.898,35.959,75.872c-2.055,30.975-26.832-21.726-35.506,0c-8.67,21.729,0.576,29.947,9.822,41.248
					s10.271,7.191,7.189,27.738c-3.08,20.549,14.008,9.248,18.818,33.901c4.813,24.656,7.895,107.875,21.248,132.529
					c13.355,24.656,0,16.438,0,41.096c0,24.654-13.354-8.221-38.012-23.631c-24.656-15.409-63.695-8.219-59.586-36.983
					c4.108-28.766,4.108-77.054-21.573-32.875c-25.687,44.176-8.221,49.313-55.479,70.887s-48.286,59.586-53.422,38.012
					c-5.138-21.576,14.383-36.983-14.383-23.629c-28.767,13.355-45.204,19.521-42.121-2.053
					c3.08-21.576-17.466-109.928-23.63-70.889c-6.163,39.037,3.083,71.916-15.411,29.793
					c-18.492-42.121-30.396-67.681-28.243-41.123c2.153,26.559-63.55,228.284,70.364,114.313
					c105.818,37.765,160.818,59.82,287.432,64.476c126.613,4.653,245.645-12.297,266.191-18.459
					c20.547-6.168,47.777,16.083,73.463-23.046c-6.509,9.914,18.549-80-23-199.858c-18.576-39.479-53.832-83.129-58.238-94.066
					c0,0-15.732,19.002-19.842,71.398c-4.109,52.395,34.93,154.104-26.711,71.916c-61.643-82.189-8.217,149.994-45.203,143.828
					c-36.984-6.164-17.465,10.272-53.424-22.603c-35.955-32.875-77.051-53.422-68.83-86.299
					c8.219-32.873-4.109-29.793-18.492-48.283c-14.385-18.494-22.604-74.998-25.686-103.766
					c-3.082-28.766-10.273-60.611,8.219-38.01c18.492,22.601,3.082-20.547-6.164-36.985s16.439-9.246,40.066,9.246
					c23.629,18.493,16.115-14.46,11.654-44.955C565.528,321.291,476.43,282.908,430.85,256.616z"/>
				<path fill="#F2F2F2" d="M415.77,300.112c-4.108,11.3-8.218,50.34-12.326,58.56c0,0,6.164-16.438,33.902-13.354
					c27.738,3.082,32.873-8.219,15.408-22.603C435.29,308.33,415.77,300.112,415.77,300.112z"/>
				<path fill="#F2F2F2" d="M597.022,452.543c11.021-7.543,19.52-13.355,26.711,18.492s4.109,14.834,8.221,45.43
					c4.107,30.596,9.246,65.525-9.246,41.896C604.213,534.732,577.502,465.898,597.022,452.543z"/>
				<path fill="#F2F2F2" d="M387.443,196.731c17.112-7.081,30.819,15.413,17.465,23.63
					C391.552,228.58,357.649,209.06,387.443,196.731z"/>
				<path fill="#F2F2F2" d="M181.971,203.923c-13.088-24.307,35.958-21.574,31.849,0
					C209.711,225.498,189.164,217.279,181.971,203.923z"/>
				<path fill="#F8A893" d="M228.202,410.422c10.273-14.383,6.165-36.983,34.932-45.204c28.766-8.219,105.639-14.385,112.404,17.465
					c6.769,31.847,0.423,41.563,0,63.931s29.37,41.887-29.189,48.051c-58.559,6.166-88.59,10.272-111.585-8.219
					C211.765,467.955,219.945,433.752,228.202,410.422"/>
				<path fill="#E2816F" d="M375.538,392.959c-5.271-13.908-25.08,23.25-27.134,36.279c-2.057,13.03-0.364,24.744,13.564,17.375
					C375.898,439.246,384.371,416.258,375.538,392.959z"/>
				<path fill="#E2816F" d="M251.635,383.168c7.108-6.135,31.936,35.676,27.826,46.227c-4.109,10.548-16.613,36.23-27.826,18.769
					C240.422,430.693,234.081,398.309,251.635,383.168z"/>
				<circle fill="#181415" cx="197.766" cy="199.801" r="10.858"/>
				<path fill="#181415" d="M403.106,208.005c0,5.994-4.86,10.86-10.859,10.86c-5.996,0-10.857-4.866-10.857-10.86
					c0-5.996,4.861-10.858,10.857-10.858C398.246,197.147,403.106,202.009,403.106,208.005z"/>
				<path fill="#351E13" d="M461.413,217.199c-18.578-14.42-15.412-50.26,23.629-55.398c39.039-5.136,98.625-26.711,73.969,0
					C534.354,188.511,494.608,242.962,461.413,217.199z"/>
				<path fill="#351E13" d="M130.604,186.703c3.905-31.94-23.63-51.613-58.56-53.668c-34.932-2.053-67.808,12.574-43.149,26.834
					C53.552,174.13,123.413,245.506,130.604,186.703z"/>
				<path fill="#351E13" d="M430.85,256.616c0,0-29.491,105.073-31.745,137.056C399.104,393.67,389.716,290.655,430.85,256.616z"/>
			</g>
			<path fill="#E1E0E2" d="M363.766,23.3c-12,6-12,20-12,20s1,0,13,8S363.766,23.3,363.766,23.3z"/>
			<path fill="#E1E0E2" d="M332.766,29.3c9.415,4.166-18-5-29,3S286.385,8.78,332.766,29.3z"/>
			<path fill="#E1E0E2" d="M379.766,73.3c22.904-7.443-23,15-21,32s-19-33-27-17s-11-19,8-16S339.766,86.3,379.766,73.3z"/>
			<path fill="#E1E0E2" d="M235.766,40.3c12-6-37-6-28,9S215.766,50.3,235.766,40.3z"/>
			<path fill="#E1E0E2" d="M188.766,60.3c2.559-11.936-32,12-14,15S185.766,74.3,188.766,60.3z"/>
			<path fill="#E1E0E2" d="M301.766,242.3c-11.984-10.787,33,15,15,25s-42,10-19,27s37,15,19,26s2-6-13-11s-28-29-10-42
				S321.766,260.3,301.766,242.3z"/>
		</g>
	</g>
</g>
</svg>
