<?xml version="1.0" encoding="utf-8"?>
<!-- Generator: Adobe Illustrator 16.0.0, SVG Export Plug-In . SVG Version: 6.00 Build 0)  -->
<!DOCTYPE svg PUBLIC "-//W3C//DTD SVG 1.1//EN" "http://www.w3.org/Graphics/SVG/1.1/DTD/svg11.dtd">
<svg version="1.1" id="Layer_1" xmlns="http://www.w3.org/2000/svg" xmlns:xlink="http://www.w3.org/1999/xlink" x="0px" y="0px"
	 width="334.713px" height="109.514px" viewBox="0 0 334.713 109.514" enable-background="new 0 0 334.713 109.514"
	 xml:space="preserve">
<g>
	<ellipse opacity="0.1" fill="#0F131A" cx="167.356" cy="97.554" rx="167.356" ry="9.96"/>
	<g>
		<path fill="#FFDE74" d="M300.231,14.636c-5.59-3.073-9.356-6.684-18.713-8.912c-9.357-2.228-18.937-1.336-23.614,3.12
			c-4.679,4.455-3.342,7.128-4.901,10.024c-1.56,2.896-0.668,5.569-1.56,6.684s-3.342,4.9-2.896,6.237s5.569-0.668,8.688,0
			c3.119,0.669,7.352,1.114,6.684,2.228c-0.668,1.114-0.808,3.854-1.337,11.585c-0.668,9.764,0.38,19.741,4.416,24.641
			c4.037,4.902,14.075-2.586,18.085,4.987c3.008,5.683,19.827,5.792,27.179,2.006c7.352-3.788,9.579,0.445,10.247-6.906
			c0.669-7.352,10.771-10.503,8.766-19.858c-2.005-9.357,0-14.672-12.906-25.306C309.984,18.259,304.614,17.045,300.231,14.636z"/>
		<path fill="#FAAF42" d="M315.381,68.548c1.269-2.901,6.46-2.673,5.792,3.564s-2.383,10.693-2.862,14.258s1.525,6.683,4.422,7.129
			c2.896,0.445,5.347,2.228,3.119,3.118c-2.228,0.892-3.564,1.56-6.461,0c-2.896-1.559-2.005-2.896-4.01-2.228
			c-2.006,0.669,0.445,2.228-5.124,2.228c-5.57,0-6.684-0.445-4.455-2.004c0,0-3.343-0.224-4.456,0.667
			c-1.114,0.892-3.564-2.228,0-2.673s7.129,1.56,8.242-0.445c1.114-2.006,2.567-2.673,3.512-5.124
			C314.044,84.588,313.821,72.112,315.381,68.548z"/>
		<path fill="#FAAF42" d="M285.083,75.23c0,0-1.337,10.916-4.679,12.03c-3.341,1.113-6.684,2.45-9.134,2.45
			s-8.466,1.114-7.129,2.675c1.337,1.559,4.233,0.222,7.574,0c3.342-0.224,1.56,1.489,5.793,0.744
			c4.232-0.744,2.896,1.57,5.792,0.189c2.896-1.38,1.113-5.836,3.787-4.499c2.673,1.336,3.787,4.011,5.124,3.342
			c1.336-0.669,1.336-1.782-1.56-4.455c-2.896-2.674-3.905-6.854-1.173-11.336L285.083,75.23z"/>
		<path fill="#FAAF42" d="M261.914,26.888c-1.114,0-10.04-2.701-10.471-1.336c-0.431,1.364-2.335,2.228-2.95,5.124
			c-0.614,2.896,1.553,1.605,3.586,1.337c2.032-0.27,2.929,0.667,5.156-0.224C259.464,30.898,261.914,26.888,261.914,26.888z"/>
		<path fill="#EFBE5F" d="M297.336,31.344c-3.649-2.322,3.563,4.01,3.341,13.366s2.674,7.129,2.896,4.901s2.896-4.01,2.896,3.342
			c0,7.351,2.896,9.579,3.342,8.019c0.445-1.559,1.676-0.84,3.288,0.472c1.612,1.311-3.288-3.813-4.848-10.05
			c-1.56-6.237-0.624-8.465-2.874-6.684C303.128,46.493,302.236,34.462,297.336,31.344z"/>
		<path fill="#EFBE5F" d="M265.255,39.586c-6.452-6.464,13.662,31.973,15.322,33.239c1.66,1.265,6.075,9.327,15.726,7.004
			c5.784-1.393-8.992-4.375-15.229-12.172C274.835,59.859,268.152,42.489,265.255,39.586z"/>
		<path fill="#EFBE5F" d="M302.379,15.449c-9.944,0.301-13.911,1.639-13.911,1.639s-4.96-1.535,1.516-3.12
			C296.46,12.382,302.379,15.449,302.379,15.449z"/>
		<path fill="#EFBE5F" d="M263.95,20.874c-2.244-0.472-5.601-4.465-0.923-5.573c4.679-1.109,10.916-0.446,10.248,1.449
			C272.607,18.646,267.231,21.563,263.95,20.874z"/>
		<circle fill="#0F131A" cx="263.084" cy="17.583" r="2.284"/>
		<path fill="#FFFFFF" d="M263.78,16.693c0.631,0,1.143,0.511,1.143,1.142s-0.512,1.143-1.143,1.143"/>
		<path fill="#FFDE74" d="M322.575,38.055c-0.092,0.697,7.395,16.047,10.053,16.897c2.659,0.849-1.293,3.895,0.295,7.437
			c1.589,3.543,0.16,1.113-2.651,0.51c-2.811-0.604,0.611,2.142,0.798,4.148c0.186,2.006-0.8,5.753-2.068,4.48
			c-1.27-1.272-12.039-7.441-12.039-7.441c-1.179-0.178-1.824-24.603-1.824-24.603L322.575,38.055z"/>
		<path fill="#F69321" d="M315.604,90.825c-1.311-0.874-4.326,6.004-7.129,5.772c-2.802-0.231,6.461,1.579,7.129-1.094
			s2.765,0.468,2.765,0.468S317.608,92.162,315.604,90.825z"/>
		<path fill="#F69321" d="M285.306,89.929c0.164-2.456-6.461,1.076-4.232,2.233C283.301,93.319,285.083,93.264,285.306,89.929z"/>
		<path fill="#F69321" d="M271.716,92.386c2.003,0.238,8.221,0.083,5.793-1.637C275.079,89.028,271.716,92.386,271.716,92.386z"/>
		<path fill="#F69321" d="M324.481,93.944c1.238-0.377,1.37,2.673,1.37,2.673S321.553,94.835,324.481,93.944z"/>
	</g>
</g>
</svg>
