<?xml version="1.0" encoding="utf-8"?>
<!-- Generator: Adobe Illustrator 16.0.0, SVG Export Plug-In . SVG Version: 6.00 Build 0)  -->
<!DOCTYPE svg PUBLIC "-//W3C//DTD SVG 1.1//EN" "http://www.w3.org/Graphics/SVG/1.1/DTD/svg11.dtd">
<svg version="1.1" id="Layer_1" xmlns="http://www.w3.org/2000/svg" xmlns:xlink="http://www.w3.org/1999/xlink" x="0px" y="0px"
	 width="854.098px" height="311.288px" viewBox="0 0 854.098 311.288" enable-background="new 0 0 854.098 311.288"
	 xml:space="preserve">
<path fill="#8D8E90" d="M7.213,216.582c-7.281-19.128,9.652-16.04,29.615-42.13c19.962-26.089,42.009-59.184,106.803-86.272
	c64.793-27.089,174.213-47.307,174.213-47.307s10.214-27.159,45.805-27.857c35.59-0.698,58.034-7.442,58.034-7.442l11.875,11.03
	l-17.824,6.594l20.92,1.776c0,0,1.672,8.733-8.281,15.532l13.353-1.823l5.579,15.082c0,0,56.862-5.68,152.097,40.367
	c0,0,37.016-13.695,22.689,14.985c0,0,40.156,11.641,68.273,37.088c0,0,109.157,0.14,147.735,20.159
	c0,0-17.125,42.185-36.223,66.396c-19.1,24.21-21.484,21.976-27.023,36.494c-5.539,14.518-12.505,42.035-12.505,42.035
	s-42.28-34.235-65.27-58.462c-22.991-24.226-17.452-38.746-37.962-43.626c-20.509-4.881-31.422-13.313-35.385-7.171
	c-3.963,6.142,10.185,57.019-16.166,57.415c-26.351,0.397-57.964-47.135-89.442-47.958c-31.477-0.823-89.25-13.74-89.25-13.74
	s25.979,44.941,19.274,52.098c-6.704,7.157-15.026-6.911-22.292,11.364c-7.267,18.275-29.821,49.998-37.58,24.814
	c-7.759-25.184-16.121-68.851-16.121-68.851s-165.012,17.404-232.587,15.909c-67.576-1.496-88.811-4.123-99.998-4.874
	C28.381,227.454,13.029,231.856,7.213,216.582z"/>
<path fill="#41444D" d="M136.298,217.922c5.635,2.591,52.817,31.116,80.613,32.523c27.797,1.406,21.663-23.601,11.106-35.282
	c-10.556-11.681-7.821,8.35-33.459,2.247c-25.637-6.101-25.685-14.656-36.419-24.712c-10.735-10.057,7.533,18.254-17.878,19.084
	C114.85,212.608,136.298,217.922,136.298,217.922z"/>
<path fill="#41444D" d="M5.501,209.241c0,0,16.033-0.296,27.762-2.297c11.729-2.002,13.457-5.758,28.791-10.651
	c15.335-4.895,25.673-21.188,16.384-29.442c-9.288-8.254-26.933-3.285-12.331-16.48c14.601-13.195,30.334-7.308,52.008,3.661
	c15.669,7.93,16.054,39.175,16.054,39.175s9.984-35.858-17.362-55.357c-27.347-19.499,44.333-35.976,72.373-35.003
	c36.469,1.264,26.287,5.141,93.783-5.282c75.933-11.727,95.655-7.849,144.476-0.602c91.275,13.551,178.981,35.097,212.611,52.27
	c33.63,17.172,115.651,12.357,80.022,49.886s-45.405,20.499-45.405,20.499s14.563,47.802,87.683,91.671
	c0,0,18.496-42.693,29.67-54.621c11.174-11.927,57.851-62.707,55.597-75.121c-2.256-12.414,19.053-18.391-12.051-22.039
	c-31.105-3.649-96.735-23.44-145.2-13.304c0,0-68.131-34.593-83.166-37.317c0,0,25.229-16.064-14.069-8.539
	c0,0-54.889-38.119-164.38-48.291c-28.318-2.631-75.991-7.841-124.389,0.817c-84.066,15.039-175.906,41.656-208.067,60.59
	c-32.16,18.933-48.386,43.72-66.751,64.462C11.177,198.67,1.995,198.242,5.501,209.241z"/>
<path fill="#41444D" d="M540.719,209.361c-17.089-5.386,22.236-26.267,52.248-14.655c30.013,11.613,26.296,12.093,20.447,38.416
	C607.566,259.443,583.945,222.982,540.719,209.361z"/>
<path fill="#A3ADB7" d="M157.164,154.871c22.042,15.048-3.315,40.972,107.577,16.311c110.894-24.66,110.996-28.595,48.144-34.176
	C250.032,131.423,117.98,128.119,157.164,154.871z"/>
<path fill="#A3ADB7" d="M379.782,117.712c52.25,1.452,167.57,4.249,182.69,28.269c15.121,24.02-76.11,13.351-130.075,0.194
	C378.432,133.019,319.049,116.024,379.782,117.712z"/>
<path fill="#A3ADB7" d="M384.203,101.813c29.032-6.306,88.951,7.073,65.493,11.075C426.239,116.89,336.752,112.117,384.203,101.813z
	"/>
<path fill="#515561" d="M99.277,174.728c2.865,9.85,6.932,22.948,1.176,26.349c-5.756,3.402,14.96,0.414,10.395-11.926
	C106.282,176.813,99.277,174.728,99.277,174.728z"/>
<polygon fill="#A3ADB7" points="419.82,15.089 352.758,24.313 408.979,27.412 373.276,36.464 434.885,33.556 415.734,23.197 "/>
<polygon fill="#A3ADB7" points="412.637,205.824 425.765,241.31 419.035,203.457 434.912,224.599 424.091,195.351 378.617,208.018 
	"/>
<path fill="#41444D" d="M372.156,217.169c0,0,41.185,38.289,16.121,68.851C388.277,286.021,370.192,237.131,372.156,217.169z"/>
<path fill="#8D8E90" d="M45.951,182.289c1.529,4.131,10.23,4.72,14.362,3.192c4.133-1.529,6.243-6.117,4.714-10.25
	c-1.528-4.131-6.117-6.242-10.249-4.712C50.645,172.046,44.422,178.156,45.951,182.289z"/>
<circle fill="#191C21" cx="53.108" cy="176.357" r="7.977"/>
<path fill="#C6D8E5" d="M259.549,138.94c4.272,2.193-6.916,4.089-6.916,4.089S252.882,135.518,259.549,138.94z"/>
<path fill="#C6D8E5" d="M289.549,141.432c4.272,2.193-6.916,4.089-6.916,4.089S282.882,138.01,289.549,141.432z"/>
<path fill="#C6D8E5" d="M237.537,146.146c-3.41-3.382,7.829-1.807,7.829-1.807S242.857,151.424,237.537,146.146z"/>
<path fill="#C6D8E5" d="M265.072,150.996c-3.272-3.516,7.895-1.493,7.895-1.493S270.177,156.481,265.072,150.996z"/>
<path fill="#C6D8E5" d="M255.605,146.415c4.272,2.193-6.916,4.089-6.916,4.089S248.938,142.992,255.605,146.415z"/>
<path fill="#C6D8E5" d="M228.465,148.906c4.272,2.193-6.916,4.089-6.916,4.089S221.798,145.484,228.465,148.906z"/>
<path fill="#C6D8E5" d="M477.069,131.46c4.303,2.131-6.856,4.189-6.856,4.189S470.352,128.135,477.069,131.46z"/>
<path fill="#C6D8E5" d="M507.102,133.516c4.304,2.131-6.855,4.189-6.855,4.189S500.385,130.19,507.102,133.516z"/>
<path fill="#C6D8E5" d="M482.766,143.434c-3.323-3.467,7.873-1.607,7.873-1.607S487.95,148.845,482.766,143.434z"/>
<g>
	<path fill="#8D8E90" d="M328.006,143.624c3.519,1.806-5.695,3.368-5.695,3.368S322.516,140.806,328.006,143.624z"/>
	<path fill="#8D8E90" d="M352.713,145.676c3.519,1.806-5.696,3.368-5.696,3.368S347.223,142.858,352.713,145.676z"/>
	<path fill="#8D8E90" d="M309.879,149.559c-2.808-2.786,6.447-1.488,6.447-1.488S314.26,153.905,309.879,149.559z"/>
	<path fill="#8D8E90" d="M332.555,153.552c-2.695-2.895,6.502-1.229,6.502-1.229S336.76,158.07,332.555,153.552z"/>
	<path fill="#8D8E90" d="M302.407,151.832c3.519,1.806-5.696,3.368-5.696,3.368S296.917,149.013,302.407,151.832z"/>
</g>
<g>
	<path fill="#8D8E90" d="M584.967,197.117c3.668,3.166-7.753,2.365-7.753,2.365S579.244,192.176,584.967,197.117z"/>
	<path fill="#8D8E90" d="M613.787,206.693c3.666,3.166-7.754,2.365-7.754,2.365S608.064,201.752,613.787,206.693z"/>
	<path fill="#8D8E90" d="M561.674,198.947c-2.538-4.127,8.104,0.09,8.104,0.09S565.634,205.387,561.674,198.947z"/>
	<path fill="#8D8E90" d="M587.516,210.249c-2.373-4.225,8.095,0.413,8.095,0.413S591.217,216.841,587.516,210.249z"/>
	<path fill="#8D8E90" d="M552.123,199.496c3.667,3.166-7.754,2.365-7.754,2.365S546.4,194.555,552.123,199.496z"/>
</g>
<path fill="#C6D8E5" d="M177.664,75.717l140.18-34.844C317.844,40.873,247.621,43.877,177.664,75.717z"/>
<path fill="#C6D8E5" d="M225.493,212.766l10.335,16.439C235.829,229.205,245.438,224.168,225.493,212.766z"/>
<path fill="#C6D8E5" d="M372.156,217.169l-115.578,10.499C256.578,227.668,343.875,227.729,372.156,217.169z"/>
<path fill="#C6D8E5" d="M421.795,269.838l13.117-28.528C434.912,241.31,441.301,245.968,421.795,269.838z"/>
<path fill="#C6D8E5" d="M59.124,175.354c0,0-6.146,1.742-2.544,4.793C56.579,180.147,58.937,182.195,59.124,175.354z"/>
</svg>
