<?xml version="1.0" encoding="utf-8"?>
<!-- Generator: Adobe Illustrator 16.0.0, SVG Export Plug-In . SVG Version: 6.00 Build 0)  -->
<!DOCTYPE svg PUBLIC "-//W3C//DTD SVG 1.1//EN" "http://www.w3.org/Graphics/SVG/1.1/DTD/svg11.dtd">
<svg version="1.1" id="Layer_1" xmlns="http://www.w3.org/2000/svg" xmlns:xlink="http://www.w3.org/1999/xlink" x="0px" y="0px"
	 width="505.863px" height="571.927px" viewBox="0 0 505.863 571.927" enable-background="new 0 0 505.863 571.927"
	 xml:space="preserve">
<g>
	<path fill="#F8A893" d="M505.863,571.927c0,0-78.032-102.107-81.187-150.467c-3.153-48.361-53.585-130.701-76.714-187.472
		c-23.13-56.771-26.283-84.106-83.055-78.85c-56.772,5.256-108.286-2.103-126.159-27.334
		c-17.872-25.231-56.771,62.028-58.874,91.465s3.154,44.155,0,49.412c-3.153,5.257-23.129,43.105-31.539,66.234
		c-8.411,23.129-15.976,57.821-11.771,73.594c4.205,15.768,8.616,27.334,42.259,48.359c0,0-16.764,83.52-0.994,115.059H505.863z"/>
	<path fill="#F8A893" d="M292.243,169.857c3.153-2.103,10.514-49.412,78.85-64.131c68.336-14.718,77.798-16.821,100.927-23.129
		c23.13-6.308,8.41,18.292,0,40.685c-8.409,22.395-18.924,115.963-49.411,148.554c-30.488,32.591-72.541,42.052-72.541,42.052
		L292.243,169.857z"/>
	<path fill="#F8A893" d="M179.174,151.104c0,0-36.703-3.372-50.937-57.994c-11.484-44.068-39.95-70.438-67.285-89.361
		c-27.334-18.924-48.36,36.795-54.669,99.875c-6.308,63.08-7.359,129.313,13.668,139.826c21.026,10.514,57.654,29.438,76.662,7.359
		C115.621,228.73,179.174,151.104,179.174,151.104z"/>
	<path fill="#F48282" d="M307.229,207.183c-17.645-8.583,43.89-40.479,90.147-63.609c46.258-23.129,58.874-34.509,53.617-13.049
		s8.762,49.635-8.622,92.059c-17.384,42.423-40.172,89.523-96.943,38.468C345.428,261.051,375.298,240.295,307.229,207.183z"/>
	<path fill="#EF9787" d="M342.707,295.558c11.646,1.551-17.873,27.793-17.873,27.793s42.054,76.746-10.513,130.363
		c-52.567,53.617-127.21,58.627-161.903,62.832c-34.694,4.205-72.542-9.215-78.85-31.291c-6.308-22.078-27.334-43.105-19.976-59.926
		C60.952,408.509,157.674,270.917,342.707,295.558z"/>
	<path fill="#EF9787" d="M342.707,295.558c0,0,11.113,4.047,37.445,7.059c0,0,36.203,59.422,40.667,96.863
		c4.464,37.439-15.033-37.23-48.676,15.336S239.677,526.81,152.417,516.546c0,0,169.263-42.855,182.93-96.475
		c13.667-53.617-12.615-91.466-12.615-91.466S330.133,290.203,342.707,295.558z"/>
	<path fill="#F8A893" d="M339.374,287.255c0,0,8.411,51.866,0,50.814c0,0,17.55,46.252-25.053,95.671
		c-42.604,49.418-161.903,82.807-209.214,64.131c-29.088-11.482-38.898-56.771-38.898-56.771l68.336-162.43L339.374,287.255z"/>
	<path fill="#EF9787" d="M276.475,239.245c-7.065,6.381,35.744-3.729,47.31,9.174C335.349,261.322,309.064,209.807,276.475,239.245z
		"/>
	<path fill="#EF9787" d="M317.226,275.553c0,0,14.21,8.899,9.333,24.668c0,0-4.297-14.391-17.202-17.184
		C309.355,283.038,317.07,284.597,317.226,275.553z"/>
	<path fill="#F48282" d="M36.938,369.853c7.931-25.16,35.578-67.529,103.914-55.965c68.337,11.564,112.677,84.158,80.952,125.107
		c-35.384,45.672-114.146,27.559-163.166,4.154C28.893,428.947,28.875,395.431,36.938,369.853z"/>
	<path fill="#F48282" d="M52.7,12.441c9.039,1.891,70.28,65.085,61.87,118.084c-8.411,52.999,8.714,51.948,0.677,57.204
		c-8.036,5.257-15.28-18.924-27.954-21.025c-12.674-2.104,11.488,2.102,11.498,13.666c0.009,11.564-9.16,1.052-18.77,0
		c-9.607-1.051,16.312,11.612,10.711,17.371c-5.6,5.758-9.805-1.554-17.164,0c-7.359,1.553,11.857,2.604,6.453,9.964
		c-5.402,7.359-3.299,24.636-19.069,22.306c-15.77-2.33,11.564-2.376,5.257,10.263s9.637,20.653,9.637,20.653
		s-63.879,4.602-73.554-37.452C-7.384,181.421,14.363,4.424,52.7,12.441z"/>
	<path fill="#EF9787" d="M64.854,244.49c0,0,42.773-25.483,48.74-9.451c8.839,23.75,10.974,30.001-19.085,52.848
		c-30.06,22.848-40.115,31.258-40.115,31.258S78.185,283.038,64.854,244.49z"/>
	<path fill="#FFFFFF" d="M81.959,256.753c3.476-8.784,24.825,0.028,17.254,15.171C91.642,287.067,68.491,290.794,81.959,256.753z"/>
	<circle fill="#2B1211" cx="89.329" cy="267.562" r="11.145"/>
	<path fill="#EF9787" d="M302.243,230.288c0,0-30.96,5.803-30.96,15.265c0,9.462,10.762,51.029,48.484,42.335
		C319.769,287.888,354.229,244.459,302.243,230.288z"/>
	<path fill="#FFFFFF" d="M300.014,253.264c10.804-6.37,24.847,28.268,12.228,29.774S279.105,265.588,300.014,253.264z"/>
	<circle fill="#2B1211" cx="304.133" cy="267.562" r="11.145"/>
	<path fill="#EF9787" d="M129.057,291.716c-13.444,6.271,16.648-8.678,52.939,15.619c24.834,16.625-11.166-22.48-25.857-28.758
		c-14.691-6.28,25.198-3.6,26.521-10.875c2.726-14.987-13.143,0.585-30.379-4.16c-17.237-4.745,37.824-7.126,42.883-9.374
		c5.833-2.593-15.528-13.616-33.115-8.201c-17.587,5.414-33.796,20.645-20.591,23.634c13.204,2.991-1.565,0.226-9.059,8.618
		C124.904,286.614,160.074,277.249,129.057,291.716z"/>
	
		<ellipse transform="matrix(0.4143 -0.9102 0.9102 0.4143 -271.4617 388.0834)" fill="#BD4C4C" cx="165.784" cy="404.949" rx="15.169" ry="13.379"/>
	<ellipse fill="#BD4C4C" cx="72.915" cy="396.927" rx="9.633" ry="15.168"/>
	<path fill="#F8A893" d="M298.114,157.119c0,0-3.204-21.778-5.126-25.687c0,0-7.684,23.343-6.055,23.521
		c1.629,0.18-4.152,1.252-6.256-10.846c-2.103-12.099-3.021-1.586-9.396,4.723c-6.374,6.308-9.528-2.086-17.938-4.723
		c-8.411-2.637,3.99,14.185-24.813,5.773c-28.805-8.41-9.386-18.449-9.386-18.449s-12.694,1.531-14.485,12.676
		c-1.791,11.144-14.395,11.047-13.344,0c1.051-11.047-0.062-13.583-0.062-13.583s-4.144,15.649-20.965,13.298
		c-16.821-2.351-9.16-13.297-9.16-13.297l-14.209,0.906l-8.482-12.309c0,0,1.768,42.322,66.222,43.374
		C269.114,163.548,298.114,157.119,298.114,157.119z"/>
	<polygon fill="#F8A893" points="298.114,208.756 333.532,197.741 311.59,218.047 333.532,218.047 333.532,230.01 343.111,213.875 
		343.111,240.273 320.613,230.01 	"/>
	<path fill="#E2877A" d="M317.037,254.491c0,0-14.885-10.35-31.835-2.6C268.253,259.639,310.922,222.328,317.037,254.491z"/>
	<path fill="#E2877A" d="M107.627,250.675c0,0-17.424-5.001-30.975,7.792C63.103,271.264,91.479,222.198,107.627,250.675z"/>
</g>
</svg>
