<?xml version="1.0" encoding="utf-8"?>
<!-- Generator: Adobe Illustrator 16.0.0, SVG Export Plug-In . SVG Version: 6.00 Build 0)  -->
<!DOCTYPE svg PUBLIC "-//W3C//DTD SVG 1.1//EN" "http://www.w3.org/Graphics/SVG/1.1/DTD/svg11.dtd">
<svg version="1.1" id="Layer_1" xmlns="http://www.w3.org/2000/svg" xmlns:xlink="http://www.w3.org/1999/xlink" x="0px" y="0px"
	 width="380.16px" height="380.16px" viewBox="0 0 380.16 380.16" enable-background="new 0 0 380.16 380.16" xml:space="preserve">
<g>
	<defs>
		<circle id="SVGID_1_" cx="190.08" cy="190.08" r="190.08"/>
	</defs>
	<clipPath id="SVGID_2_">
		<use xlink:href="#SVGID_1_"  overflow="visible"/>
	</clipPath>
	<g clip-path="url(#SVGID_2_)">
		<rect x="-128.74" y="-25.096" fill="#3B2416" width="625.347" height="426.04"/>
		<g>
			<path fill="#414142" d="M193.102,94.462c-13.466-3.218-31.33-11.041-50.452-11.969c-19.12-0.928-23.128-9.145-30.58-1.738
				c-7.449,7.405-3.836,25.506,1.054,39.205c4.89,13.699,8.659,9.984,35.336,9.037c26.676-0.945,67.352,4.464,73.339,0.33
				c5.987-4.132,17.156-20.754,5.906-25.229C216.455,99.625,210.633,98.654,193.102,94.462z"/>
			<path fill="#333333" d="M147.24,96.77c4.93-1.364,15.43-4.045,15.43-4.045l2.019,7.701l-7.069,4.491l27.102,1.471
				c0,0,3.408-17.198,5.642-16.228c2.234,0.97,6.815,9.805,6.815,9.805s-0.111,8.211-1.367,10.976
				c-1.254,2.763-4.184,15.662-16.672,13.86c-12.49-1.801-3.555-5.463-12.49-1.801c-8.935,3.663-9.08-6.953-14.814-8.701
				c-5.736-1.743-3.445-13.134-3.445-13.134S138.036,99.317,147.24,96.77z"/>
			<path fill="#333333" d="M123.682,85.49c-1.938-0.059-7.146,1.998-5.992,4.208c1.153,2.212,13.379,0.76,13.379,0.76
				S134.529,85.801,123.682,85.49z"/>
			<path fill="#C3996B" d="M191.566,278.485c9.928,0.996,23.408-130.661,19.821-159.188c-3.586-28.525-12.341-31.364-21.038-33.826
				c-8.699-2.461-11.95,6.258-14.043,22.854c-2.087,16.6-0.73,24.098-0.924,34.638C175.188,153.505,170.047,276.329,191.566,278.485
				z"/>
			<polygon fill="#2D1B11" points="174.064,129.391 211.388,119.297 212.949,125.551 174.556,137.075 			"/>
			<polygon fill="#2D1B11" points="174.357,143.521 212.648,130.862 212.232,138.161 174.169,150.248 			"/>
			<polygon fill="#2D1B11" points="179.846,90.622 207.205,97.542 203.685,92.033 181.81,86.997 			"/>
			<polygon fill="#2D1B11" points="174.44,134.527 212.781,143.105 212.418,149.483 174.7,140.253 			"/>
			<path fill="#AF8062" d="M199.509,172.847c0.38-5.132-0.272,38.81-2.853,50.217c-2.582,11.409-2.951-8.949-3.335-25.379
				c-0.384-16.428-3.284-30.46-6.19-19.994c-2.905,10.466-4.539,47.349-2.276,40.08c2.261-7.265,2.563-11.71,3.627-18.662
				c1.063-6.951,2.746,5.622,1.284,14.32c-1.461,8.699-11.309,27.469-6.945-24.931c4.363-52.399,10.144-18.332,11.561-9.471
				C195.797,187.889,195.951,220.713,199.509,172.847z"/>
			<path fill="#414142" d="M228.867,164.549c1.498-4.816,4.432-13.268,5.383-15.643c0.951-2.376,6.979-7.877,6.979-7.877
				l9.215-3.972l12.342-1.589c0,0,4.059,7.617,2.339,9.12c-1.716,1.501-6.204,8.601-5.459,9.868
				c0.745,1.267,2.757,1.789,2.688,3.011c-0.069,1.22,0.976,11.588-0.394,14.116c-1.367,2.53-5.671,6.37-5.671,6.37
				s-7.764-0.85-10.405-0.591c-2.645,0.259-6.216-1.579-10.357-0.588c-4.141,0.991-5.824,1.847-7.332-0.349
				C226.686,174.228,228.867,164.549,228.867,164.549z"/>
			<path fill="#414142" d="M220.932,224c1.449-1.401,9.558-8.111,11.582-9.79c2.027-1.679,10.938-5.231,10.938-5.231l13.69-6.868
				l24.8-7.309l15.497-0.139l-12.763,23.589c0,0-7.486,3.582-11.512,5.51c-4.029,1.929-22.619,7.285-23.51,7.713
				c-0.891,0.426-16.309,0.73-16.309,0.73l-13.611-0.355L220.932,224z"/>
			<polygon fill="#333333" points="257.383,157.244 246.555,159.092 256.846,166.707 			"/>
			<polygon fill="#333333" points="252.914,141.525 247.277,146.349 244.301,151.294 257.822,149.506 			"/>
			<path fill="#333333" d="M265.198,205.64c4.604-2.206,22.629-0.016,22.629-0.016s-8.28,4.873-12.086,5.784
				c-3.808,0.911-3.044,2.366-11.197,5.357s-16.305,7.803-16.305,7.803l-9.563,1.04l-0.648-1.356L265.198,205.64z"/>
			<polyline fill="#333333" points="247.756,211.155 225.889,219.728 238.291,218.515 250.463,210.329 			"/>
			<path fill="#2D1B11" d="M156.8,211.489c-0.178-3.146-0.698-6.212-1.496-9.132c-0.217-0.724-0.4-1.457-0.646-2.163
				c-0.249-0.706-0.496-1.407-0.742-2.107c-0.286-0.682-0.569-1.36-0.853-2.035c-0.29-0.67-0.629-1.313-0.94-1.965
				c-2.601-5.157-5.936-9.595-9.521-13.324c-0.544-0.571-1.104-1.127-1.671-1.673c0.135-1.476,0.155-2.964,0.064-4.444
				c-0.095-1.89-0.378-3.765-0.794-5.602c-0.833-3.675-2.208-7.202-3.771-10.561c-3.177-6.736-7.421-13.068-13.006-18.279
				c-2.801-2.589-5.959-4.897-9.711-6.458c-1.875-0.769-3.932-1.344-6.196-1.398c-1.13-0.018-2.312,0.106-3.484,0.446
				c-1.17,0.336-2.323,0.9-3.322,1.662c-2.015,1.543-3.262,3.72-3.934,5.776c-0.692,2.08-0.934,4.134-0.992,6.109
				c-0.036,0.992-0.002,1.962,0.047,2.925l0.11,1.433l0.166,1.47l0.191,1.313l0.275,1.473c0.202,0.944,0.43,1.884,0.71,2.814
				c0.316,1.075,0.701,2.133,1.135,3.171c-2.586,1.816-5.299,4.036-7.98,6.758c-2.779,2.818-5.519,6.197-7.795,10.284
				c-2.25,4.071-4.125,8.906-4.422,14.411c-0.148,2.753,0.098,5.584,0.941,8.497c0.8,2.736,2.082,5.547,4.006,8.046
				c1.917,2.497,4.511,4.704,7.63,6.088c3.108,1.398,6.678,1.918,10.128,1.532c3.463-0.372,6.769-1.622,9.724-3.347
				c2.966-1.729,5.599-3.952,7.909-6.449c2.305-2.495,4.344-5.269,6.075-8.168c0.898-1.509,1.738-3.065,2.447-4.81
				c0.695-1.742,1.285-3.667,1.423-5.851c0.059-1.091-0.005-2.24-0.241-3.377c-0.232-1.137-0.638-2.25-1.164-3.254
				c-1.065-2.023-2.513-3.562-3.933-4.834c-0.962-0.837-1.926-1.585-2.88-2.29c1.007-0.101,2.036-0.111,3.078,0.015
				c1.809,0.227,3.649,0.77,5.449,1.652c3.252,1.584,6.308,4.129,9.169,7.257c-0.152,0.682-0.323,1.36-0.521,2.031
				c-0.511,1.67-1.175,3.298-1.932,4.888c-1.523,3.18-3.37,6.229-5.301,9.232c-3.834,6.006-7.821,12.098-10.19,18.936
				c-1.213,3.394-2.091,6.893-2.491,10.513c-0.371,3.651-0.003,7.521,1.673,11.047c0.824,1.756,2.016,3.389,3.528,4.721
				c1.495,1.352,3.356,2.318,5.306,2.869c1.962,0.541,4.01,0.586,5.945,0.314c1.941-0.277,3.776-0.889,5.458-1.695l1.236-0.639
				c0.413-0.23,0.827-0.492,1.236-0.745c0.221-0.132,0.375-0.243,0.543-0.359l0.501-0.349l0.251-0.172
				c-0.016,0.012,0.16-0.112,0.191-0.141l0.135-0.106l0.536-0.423c1.418-1.138,2.714-2.382,3.84-3.73
				c2.293-2.67,4.079-5.64,5.454-8.717c1.37-3.083,2.313-6.285,2.894-9.496C156.814,217.859,156.979,214.633,156.8,211.489z
				 M120.79,184.572c0.471,0.928,0.64,1.831,0.58,2.93c-0.135,2.21-1.357,4.928-2.845,7.407c-1.55,2.604-3.233,4.99-5.144,7.107
				c-1.907,2.103-3.997,3.938-6.243,5.326c-2.241,1.392-4.642,2.317-7.021,2.66c-2.378,0.352-4.733,0.088-6.839-0.761
				c-2.108-0.843-3.953-2.269-5.419-4.033c-1.456-1.783-2.58-3.835-3.349-6.07c-0.343-0.997-0.63-2.15-0.8-3.24
				c-0.172-1.109-0.248-2.227-0.244-3.34c0.031-4.464,1.313-8.772,3.106-12.544c1.815-3.78,4.116-7.075,6.496-9.914
				c2.153-2.557,4.404-4.721,6.566-6.594c0.857,1.614,1.85,3.153,2.97,4.57c2.18,2.787,4.764,5.098,7.35,7.117
				c-0.804,0.657-1.55,1.332-2.231,2.002c-2.353,2.333-4.107,4.669-5.493,6.768c-1.385,2.102-2.436,3.951-3.228,5.48
				c-0.792,1.527-1.354,2.716-1.724,3.521c-0.363,0.806-0.551,1.221-0.551,1.221l0.588,0.311c0,0,0.239-0.386,0.703-1.135
				c0.464-0.746,1.148-1.854,2.099-3.253c0.955-1.396,2.14-3.109,3.683-4.988c1.546-1.869,3.402-3.957,5.749-5.917
				c0.892-0.744,1.857-1.465,2.899-2.125c2.197,1.612,4.323,3.097,5.992,4.632C119.495,182.674,120.323,183.644,120.79,184.572z
				 M123.675,170.282c-2.318-0.121-4.559,0.241-6.563,0.891c-0.242,0.08-0.468,0.176-0.703,0.264
				c-0.557-0.39-1.108-0.782-1.645-1.18c-2.635-1.922-5.04-3.954-6.982-6.335c-1.143-1.375-2.121-2.869-2.935-4.465
				c2.956-2.075,5.574-3.574,7.578-4.645c1.491-0.799,2.666-1.356,3.458-1.733c0.798-0.365,1.209-0.552,1.209-0.552l-0.234-0.623
				c0,0-0.435,0.14-1.279,0.411c-0.84,0.284-2.088,0.707-3.691,1.337c-2.088,0.842-4.815,2.033-7.952,3.799
				c-0.206-0.516-0.402-1.038-0.576-1.573c-0.247-0.742-0.451-1.504-0.639-2.275l-0.242-1.114l-0.226-1.296l-0.159-1.158
				l-0.125-1.208c-0.062-0.8-0.112-1.601-0.103-2.38c-0.004-1.565,0.169-3.082,0.555-4.401c0.381-1.33,1.014-2.38,1.828-3.061
				c0.815-0.674,1.91-1.044,3.25-1.07c1.332-0.032,2.831,0.252,4.309,0.784c2.975,1.056,5.864,2.909,8.516,5.057
				c5.309,4.356,9.724,10.031,13.115,16.238c0.425,0.781,0.821,1.53,1.227,2.364c0.391,0.79,0.77,1.589,1.113,2.397
				c0.689,1.62,1.283,3.273,1.752,4.957c0.678,2.384,1.061,4.843,1.095,7.301c-2.489-2.091-5.172-3.862-8.046-5.088
				C128.355,170.963,125.991,170.393,123.675,170.282z M147.926,228.174c-2.294,5.242-5.881,10.205-10.903,13
				c-2.465,1.383-5.246,2.031-7.843,1.529c-2.59-0.49-4.944-2.244-6.379-4.815c-1.466-2.552-2.093-5.741-1.981-8.97
				c0.163-3.277,0.759-6.643,1.727-9.91c0.998-3.264,2.36-6.449,3.975-9.551c1.628-3.095,3.503-6.101,5.416-9.129
				c1.886-3.042,3.862-6.092,5.471-9.407c0.91-1.868,1.706-3.824,2.324-5.846c2.864,3.328,5.442,7.139,7.42,11.407
				c2.162,4.643,3.588,9.837,3.809,15.291C151.191,217.216,150.199,222.891,147.926,228.174z"/>
		</g>
		<g>
			<defs>
				<rect id="SVGID_3_" x="-128.74" y="117.123" width="623.018" height="283.167"/>
			</defs>
			<clipPath id="SVGID_4_">
				<use xlink:href="#SVGID_3_"  overflow="visible"/>
			</clipPath>
			<g clip-path="url(#SVGID_4_)">
				<g>
					<path fill="#A87E6E" d="M243.789,432.618c19.045,6,32.521-23.849,44.54-47.328c12.019-23.477,31.267-41.934,7.522-77.31
						c-20.215-30.119-66.355-35.228-62.789,40.101C234.921,387.325,212.526,422.768,243.789,432.618z"/>
					<path fill="#A87E6E" d="M256.203,289.031c0.061,11.08-5.999,62.618-12.549,62.654s-11.112-51.444-11.172-62.524
						c-0.061-11.08,5.201-20.09,11.752-20.127C250.784,268.998,256.143,277.952,256.203,289.031z"/>
					
						<ellipse transform="matrix(0.9781 0.2082 -0.2082 0.9781 65.0886 -49.3546)" fill="#A87E6E" cx="267.013" cy="284.539" rx="8.016" ry="13.372"/>
					
						<ellipse transform="matrix(0.915 0.4035 -0.4035 0.915 142.0596 -89.5692)" fill="#A87E6E" cx="283.547" cy="292.275" rx="8.85" ry="15.322"/>
					
						<ellipse transform="matrix(0.8849 0.4659 -0.4659 0.8849 176.3616 -104.2473)" fill="#A87E6E" cx="299.064" cy="304.641" rx="7.538" ry="15.126"/>
					<path fill="#A87E6E" d="M319.139,326.866c-2.959,6.488-24.387,52.422-28.938,50.348s9.502-51.373,12.46-57.861
						c2.96-6.488,9.046-10.066,13.597-7.99C320.807,313.436,322.098,320.377,319.139,326.866z"/>
					<path fill="#BF948A" d="M235.611,284.327c1.734,10.636,14.523,3.521,13.768-8.291
						C248.625,264.227,232.005,262.199,235.611,284.327z"/>
					<path fill="#BF948A" d="M263.079,275.289c-3.493,4.464,11.559,3.716,10.372,0.878
						C272.267,273.329,268.582,268.256,263.079,275.289z"/>
					<path fill="#BF948A" d="M282.549,284.726c0.224,6.368,13.902,4.999,10.189-0.357S282.258,276.421,282.549,284.726z"/>
					<path fill="#BF948A" d="M301.104,295.049c-4.643,8.292,9.58,7.68,6.852-0.24C305.228,286.888,304.028,289.825,301.104,295.049z
						"/>
					<path fill="#BF948A" d="M311.147,316.231c3.937,4.666,11.819,7.723,8.405-0.295
						C316.137,307.918,309.627,308.612,311.147,316.231"/>
					<polygon fill="#916758" points="308.85,312.153 295.079,324.586 299.863,327.432 					"/>
					<polygon fill="#916758" points="296.031,295.762 287.09,311.145 291.887,312.749 					"/>
					<path fill="#916758" d="M273.318,296.358l-3.796,3.793l4.899-12.573C274.422,287.578,277.117,292.567,273.318,296.358z"/>
					<path fill="#916758" d="M255.933,284.926l-0.229,13.137l3.51,4.51C259.213,302.573,261.996,300.135,255.933,284.926z"/>
					<g>
						<path fill="#916758" d="M243.538,314.444c0,0,0.182,0.035,0.534,0.102c0.359,0.046,0.875,0.091,1.566,0.133
							c1.377,0.096,3.41,0.158,5.99,0.418c2.578,0.256,5.725,0.604,9.281,1.385c3.555,0.764,7.557,1.86,11.714,3.711
							c0.521,0.23,1.046,0.464,1.577,0.699c0.516,0.271,1.035,0.546,1.562,0.822c0.524,0.281,1.062,0.551,1.591,0.85
							c0.514,0.325,1.033,0.654,1.557,0.986c0.518,0.34,1.064,0.65,1.572,1.027c0.499,0.391,1.002,0.784,1.509,1.182
							c1.046,0.793,1.992,1.607,2.96,2.508c0.484,0.453,0.969,0.914,1.461,1.439c0.247,0.272,0.492,0.538,0.756,0.896
							c0.128,0.168,0.266,0.371,0.412,0.641c0.076,0.156,0.143,0.26,0.227,0.523c0.038,0.13,0.068,0.198,0.1,0.383
							c0.029,0.193,0.041,0.396,0.033,0.592c-0.036,0.56-0.324,1.193-0.852,1.607c-0.19,0.143-0.393,0.254-0.607,0.344
							c-0.189,0.074-0.289,0.091-0.441,0.127c-0.157,0.035-0.262,0.045-0.346,0.05l-0.285,0.016l-0.436-0.017
							c-0.502-0.047-0.879-0.131-1.26-0.213c-0.734-0.174-1.401-0.373-2.064-0.579c-2.63-0.825-5.145-1.808-7.74-2.728
							c-5.159-1.868-10.521-3.634-15.972-4.845c-1.362-0.291-2.729-0.538-4.09-0.708c-1.316-0.16-2.814-0.26-4.229-0.357
							l-1.032-0.055l-0.451-0.008l-0.15,0.004c-0.015,0-0.049,0.001-0.003-0.001l0.041-0.006l0.16-0.032
							c0.099-0.024,0.195-0.059,0.287-0.1c0.462-0.205,0.979-0.551,1.295-1.33c0.484-1.518-0.401-2.491-0.337-2.372
							c-0.165-0.226-0.471-0.448-0.432-0.419c-0.23-0.156-0.178-0.111-0.18-0.117l0.35,0.137l0.969,0.336l4.209,1.4
							c5.648,1.996,11.273,4.344,16.433,7.607c2.573,1.634,5.023,3.534,7.112,5.867c0.511,0.582,1.033,1.203,1.473,1.814
							c0.195,0.258,0.477,0.67,0.693,1.004c0.223,0.345,0.439,0.72,0.646,1.12c0.202,0.421,0.401,0.858,0.55,1.437
							c0.143,0.535,0.269,1.329-0.014,2.267c-0.127,0.449-0.421,0.956-0.75,1.29c-0.17,0.189-0.346,0.34-0.518,0.455
							c-0.176,0.129-0.359,0.246-0.516,0.315c-0.684,0.343-1.224,0.427-1.718,0.495c-0.979,0.111-1.78,0.053-2.556-0.025
							c-0.77-0.084-1.498-0.207-2.207-0.346c-1.414-0.28-2.76-0.631-4.067-1.016c-2.616-0.762-5.103-1.605-7.511-2.439
							c-4.812-1.645-9.284-3.389-13.413-4.682c-1.025-0.313-2.046-0.6-2.968-0.76c-0.229-0.041-0.449-0.069-0.638-0.081
							l-0.073-0.007c0.048-0.002-0.043,0-0.058-0.001l-0.195-0.001c-0.079,0.008-0.138,0.001-0.197,0.012
							c-0.062,0.003-0.103,0.018-0.068-0.001c-0.009-0.009,0.173-0.087,0.27-0.301c0.117-0.244,0.097-0.433,0.069-0.495
							c-0.014-0.045-0.021-0.023,0.004,0.025c0.091,0.217,0.403,0.591,0.696,0.9c0.308,0.322,0.644,0.639,0.985,0.943
							c0.688,0.611,1.396,1.188,2.092,1.736c2.808,2.178,5.357,4.016,7.432,5.553c2.087,1.522,3.686,2.789,4.751,3.679
							c1.069,0.89,1.562,1.444,1.562,1.444s-0.558-0.486-1.723-1.226c-1.155-0.754-2.916-1.757-5.137-3.066
							c-2.225-1.312-4.958-2.841-8.002-4.829c-0.761-0.5-1.543-1.027-2.337-1.619c-0.397-0.297-0.798-0.609-1.2-0.963
							c-0.404-0.376-0.809-0.711-1.226-1.369c-0.102-0.167-0.21-0.38-0.286-0.67c-0.07-0.308-0.11-0.768,0.143-1.236
							c0.23-0.428,0.613-0.685,0.846-0.784c0.266-0.128,0.478-0.179,0.669-0.219c0.192-0.045,0.396-0.06,0.573-0.079l0.195-0.013
							l0.138-0.007h0.122c0.335-0.003,0.638,0.018,0.934,0.048c1.176,0.123,2.261,0.358,3.37,0.612
							c4.401,1.04,8.97,2.475,13.809,3.9c2.417,0.705,4.899,1.41,7.425,2.012c1.263,0.295,2.533,0.57,3.787,0.789
							c1.219,0.201,2.564,0.346,3.4,0.217c0.187-0.025,0.337-0.084,0.269-0.068c-0.04-0.01-0.36,0.252-0.441,0.551
							c-0.089,0.271-0.012,0.338-0.069,0.206c-0.026-0.1-0.119-0.302-0.227-0.509c-0.486-0.877-1.352-1.943-2.212-2.861
							c-1.778-1.846-3.938-3.473-6.263-4.936c-4.688-2.908-10.031-5.094-15.499-6.972l-4.163-1.431l-1.112-0.398
							c-0.196-0.074-0.407-0.158-0.672-0.277c-0.167-0.087-0.282-0.117-0.664-0.381c-0.001,0-0.337-0.25-0.533-0.509
							c0.021,0.091-0.87-0.928-0.384-2.493c0.33-0.816,0.899-1.184,1.395-1.416c0.136-0.054,0.277-0.1,0.42-0.135
							c0.174-0.043,0.258-0.053,0.296-0.058l0.178-0.022c0.138-0.016,0.194-0.015,0.272-0.019c0.162-0.009,0.285-0.009,0.4-0.007
							l0.65,0.018l1.166,0.072c1.512,0.121,2.938,0.225,4.521,0.43c1.536,0.207,3.034,0.495,4.505,0.824
							c5.88,1.332,11.301,3.434,16.479,5.445c2.578,1.015,5.113,2.043,7.512,2.951c0.596,0.22,1.188,0.426,1.728,0.581
							c0.257,0.072,0.521,0.136,0.67,0.159c0.018,0,0.045,0.005,0.054,0.01c-0.014-0.002-0.027-0.001-0.041,0.002
							c-0.003,0.005-0.026,0.008-0.104,0.02c-0.074,0.016-0.09,0.025-0.205,0.066c-0.143,0.052-0.271,0.128-0.393,0.23
							c-0.4,0.303-0.618,0.791-0.635,1.186c-0.014,0.115-0.008,0.236,0.016,0.35c0.023,0.104,0.018,0.096,0.035,0.148
							c0.045,0.104,0.027,0.068,0.034,0.077c-0.005-0.015-0.038-0.089-0.103-0.178c-0.109-0.171-0.287-0.392-0.462-0.603
							c-0.363-0.43-0.78-0.871-1.201-1.305c-0.845-0.869-1.751-1.73-2.636-2.465c-0.443-0.385-0.883-0.767-1.318-1.146
							c-0.45-0.362-0.928-0.688-1.384-1.031c-0.461-0.339-0.919-0.677-1.371-1.01c-0.472-0.31-0.954-0.594-1.425-0.889
							c-0.474-0.293-0.942-0.583-1.406-0.87c-0.484-0.256-0.964-0.508-1.438-0.758c-3.812-1.988-7.56-3.394-10.947-4.441
							c-3.396-1.037-6.436-1.732-8.953-2.25c-2.532-0.486-4.521-0.868-5.879-1.129c-0.68-0.129-1.211-0.246-1.551-0.334
							C243.713,314.5,243.538,314.444,243.538,314.444z"/>
					</g>
				</g>
				<g>
					<path fill="#A87E6E" d="M144.114,409.208c-18.578,7.32-34.112-21.512-47.746-44.092
						c-13.634-22.578-34.126-39.641-12.919-76.594c18.058-31.461,63.726-39.788,65.444,35.605
						C149.788,363.405,174.61,397.193,144.114,409.208z"/>
					<path fill="#A87E6E" d="M121.673,266.842c0.715,11.058,10.37,62.045,16.907,61.621c6.537-0.423,4.82-43.172,4.105-54.229
						c-0.716-11.058-3.934-28.601-10.473-28.178C125.677,246.479,120.958,255.788,121.673,266.842z"/>
					
						<ellipse transform="matrix(-0.9611 0.2762 -0.2762 -0.9611 289.5199 485.4638)" fill="#A87E6E" cx="110.576" cy="263.119" rx="8.016" ry="13.372"/>
					
						<ellipse transform="matrix(-0.8844 0.4666 -0.4666 -0.8844 305.2386 468.4003)" fill="#A87E6E" cx="94.624" cy="271.994" rx="8.85" ry="15.323"/>
					
						<ellipse transform="matrix(-0.85 0.5268 -0.5268 -0.85 298.376 485.8682)" fill="#A87E6E" cx="80.011" cy="285.417" rx="7.537" ry="15.127"/>
					<path fill="#A87E6E" d="M61.542,308.994c3.406,6.265,27.999,50.585,32.394,48.196c4.393-2.389-13.077-50.581-16.483-56.846
						c-3.406-6.266-9.729-9.409-14.123-7.02C58.938,295.713,58.137,302.727,61.542,308.994z"/>
					<path fill="#BF948A" d="M138.548,261.237c-0.984,10.731-14.242,4.529-14.316-7.305
						C124.159,242.098,140.596,238.913,138.548,261.237z"/>
					<path fill="#BF948A" d="M113.852,253.616c3.797,4.207-11.27,4.518-10.286,1.604C104.55,252.305,107.87,246.987,113.852,253.616
						z"/>
					<path fill="#BF948A" d="M95.09,264.395c0.224,6.369-13.518,5.96-10.189,0.357C88.229,259.149,94.799,256.089,95.09,264.395z"/>
					<path fill="#BF948A" d="M77.305,275.991c-5.213-7.946-9.02,8.334-6.852,0.241C67.462,287.388,84.52,286.991,77.305,275.991z"/>
					<path fill="#BF948A" d="M68.769,297.825c-3.601,4.93-11.249,8.531-8.405,0.295C63.208,289.883,69.754,290.118,68.769,297.825"
						/>
					<polygon fill="#916758" points="70.775,293.596 85.384,305.035 80.81,308.208 					"/>
					<polygon fill="#916758" points="82.415,276.347 92.412,291.066 87.738,293.001 					"/>
					<path fill="#916758" d="M105.113,275.351l4.053,3.517l-5.769-12.198C103.397,266.669,101.059,271.835,105.113,275.351z"/>
					<path fill="#916758" d="M121.657,262.731l1.147,13.087l-3.184,4.745C119.62,280.563,116.671,278.325,121.657,262.731z"/>
					<g>
						<path fill="#916758" d="M136.088,291.307c0,0-0.174,0.102-0.551,0.225c-0.374,0.122-0.935,0.281-1.669,0.473
							c-1.468,0.385-3.623,0.928-6.331,1.689c-2.702,0.78-5.958,1.801-9.553,3.264c-3.577,1.488-7.524,3.391-11.368,6.075
							c-1.918,1.342-3.788,2.897-5.55,4.65c-0.853,0.88-1.749,1.838-2.583,2.831c-0.414,0.49-0.825,0.992-1.165,1.473
							c-0.165,0.232-0.324,0.479-0.396,0.632c-0.035,0.062-0.044,0.14,0.003-0.021c0.012-0.084,0.081-0.271-0.022-0.693
							c-0.052-0.196-0.181-0.472-0.364-0.67c-0.182-0.203-0.379-0.33-0.536-0.402c-0.582-0.215-0.542-0.104-0.532-0.141l0.25-0.064
							c0.23-0.067,0.517-0.17,0.807-0.283c0.585-0.23,1.206-0.508,1.831-0.797c1.269-0.604,2.553-1.215,3.851-1.834
							c2.62-1.262,5.322-2.564,8.123-3.816c5.603-2.475,11.581-4.923,18.372-5.824c0.43-0.053,0.868-0.1,1.34-0.129
							c0.486-0.022,0.953-0.055,1.684,0.037c0.184,0.025,0.41,0.069,0.674,0.148c0.293,0.105,0.651,0.209,1.167,0.647
							c0.259,0.228,0.539,0.573,0.72,1.007c0.186,0.434,0.234,0.916,0.206,1.26c-0.064,0.717-0.288,1.095-0.422,1.344
							c-0.311,0.519-0.538,0.73-0.757,0.966c-0.217,0.22-0.412,0.393-0.604,0.555c-1.491,1.224-2.838,2.042-4.234,2.942
							c-2.762,1.748-5.534,3.369-8.272,5.041c-5.457,3.338-10.843,6.782-15.534,10.713c-2.322,1.971-4.513,4.031-6.077,6.32
							c-0.358,0.523-0.705,1.12-0.848,1.52c-0.077,0.189-0.083,0.341-0.087,0.238c0.028-0.092-0.193-0.555-0.382-0.646
							c-0.172-0.105-0.096-0.029,0.081-0.002c0.179,0.035,0.446,0.055,0.733,0.053c0.582-0.002,1.255-0.078,1.931-0.187
							c2.741-0.464,5.567-1.337,8.295-2.178c2.736-0.868,5.409-1.802,8.01-2.731c5.203-1.871,10.114-3.705,14.801-5.186
							c1.18-0.364,2.336-0.71,3.556-0.972c0.596-0.12,1.28-0.257,2.013-0.22c0.473,0.027,0.908,0.082,1.482,0.434
							c0.275,0.189,0.539,0.464,0.689,0.777c0.167,0.314,0.213,0.619,0.232,0.879c0.011,1.021-0.31,1.573-0.563,2.146
							c-0.276,0.548-0.579,1.028-0.887,1.488c-0.619,0.915-1.266,1.729-1.905,2.503c-2.567,3.075-5.035,5.471-7.052,7.463
							c-2.019,1.986-3.668,3.478-4.769,4.518c-1.097,1.045-1.682,1.602-1.682,1.602s0.516-0.623,1.482-1.791
							c0.976-1.156,2.408-2.854,4.23-5.014c1.801-2.164,4.004-4.804,6.253-7.951c0.552-0.79,1.103-1.617,1.587-2.479
							c0.24-0.428,0.466-0.868,0.638-1.297c0.171-0.403,0.275-0.899,0.23-0.989c-0.037-0.046,0.037,0.193,0.15,0.251
							c0.096,0.058-0.044,0.008-0.133,0.023c-0.401,0-0.849,0.11-1.378,0.25c-1.032,0.286-2.129,0.684-3.239,1.101
							c-4.454,1.71-9.254,3.848-14.417,5.923c-2.58,1.048-5.245,2.109-8.02,3.123c-2.788,1.009-5.639,1.986-8.854,2.621
							c-0.813,0.149-1.65,0.278-2.593,0.311c-0.475,0.013-0.975,0.006-1.552-0.082c-0.573-0.104-1.257-0.241-2.048-0.811
							c-0.385-0.283-0.77-0.704-1.02-1.191c-0.255-0.485-0.369-0.995-0.4-1.431c-0.052-0.876,0.125-1.491,0.296-2.03
							c0.37-1.064,0.825-1.813,1.314-2.592c1.906-2.898,4.296-5.266,6.789-7.418c5.025-4.275,10.533-7.838,16.048-11.277
							c2.748-1.681,5.495-3.361,8.231-5.035c1.315-0.821,2.706-1.693,3.692-2.498c0.115-0.096,0.218-0.188,0.283-0.252
							c0.058-0.051,0.105-0.135-0.004,0.038c-0.031,0.079-0.178,0.267-0.224,0.784c-0.018,0.245,0.014,0.627,0.163,0.967
							c0.143,0.342,0.359,0.607,0.545,0.768c0.364,0.307,0.534,0.334,0.64,0.375c0.072,0.024,0.103,0.025,0.09,0.023
							c-0.06-0.014-0.394-0.024-0.702-0.004c-0.322,0.017-0.674,0.05-1.034,0.092c-2.929,0.336-5.839,1.096-8.709,2.027
							c-2.865,0.936-5.692,1.988-8.448,3.13c-2.76,1.136-5.455,2.337-8.119,3.524c-1.333,0.594-2.657,1.184-4.017,1.729
							c-0.682,0.275-1.366,0.543-2.103,0.791c-0.371,0.124-0.75,0.244-1.195,0.35c-0.226,0.051-0.463,0.102-0.776,0.135
							c-0.333-0.002-0.654,0.133-1.559-0.219c-0.235-0.108-0.505-0.283-0.745-0.552c-0.24-0.263-0.413-0.616-0.484-0.896
							c-0.147-0.589-0.063-0.954-0.012-1.207c0.127-0.496,0.27-0.732,0.397-0.973c0.259-0.452,0.5-0.765,0.744-1.08
							c0.483-0.612,0.962-1.137,1.442-1.653c0.953-1.024,1.917-1.961,2.929-2.906c2.017-1.849,4.183-3.353,6.317-4.652
							c4.287-2.588,8.528-4.271,12.339-5.447c3.81-1.197,7.206-1.899,10.006-2.38c2.797-0.498,5.012-0.735,6.512-0.935
							c0.75-0.097,1.323-0.184,1.706-0.256C135.897,291.387,136.088,291.307,136.088,291.307z"/>
					</g>
				</g>
			</g>
		</g>
		<g>
			<path fill="#128848" d="M54.509,95.454c0,0,5.586-0.325,8.969,16.677c3.383,17.001-5.121,16.01-5.121,16.01
				S51.578,114.113,54.509,95.454z"/>
			<path fill="#128848" d="M262.49,70.543c0,0,1.365-5.426,18.598-3.556c17.234,1.87,13.738,9.686,13.738,9.686
				S279.412,78.933,262.49,70.543z"/>
		</g>
		<g>
			<path fill="#D7CA28" d="M18.345,211.608c-0.011-11.415,7.065-44.751,34.65-52.222c10.597-2.869,20.991-9.615,20.991-9.615
				s12.713-3.442,12.084,2c-0.694,6.002,4.454-0.64-3.025,2.865c-7.478,3.505-0.763,0.908-8.901,6.125
				c-8.139,5.216-22.82,20.335-31.171,44.177c-4.801,13.706-8.603,30.914-4.18,35.848c4.422,4.933,11.896-0.667,10.041,5.966
				c-1.855,6.634-6.885,5.44-12.641-1.686C30.435,237.94,18.356,224.286,18.345,211.608z"/>
			<path fill="#311D12" d="M76.193,158.264c0,0-5.791-4.072-4.653-7.458c1.138-3.386,8.443-8.981,13.772-3.729
				c5.33,5.25,7.148,5.692,2.2,8.122C82.565,157.627,79.561,161.454,76.193,158.264z"/>
			<path fill="#311D12" d="M38.793,240.786c0,0,10.758-2.369,12.312,0.924c1.556,3.293-1.273,16.625-7.392,12.525
				C27.998,243.708,36.101,241.428,38.793,240.786z"/>
			<path fill="#BFB031" d="M29.747,233.256c0,0,0.338-48.756,23.263-64.677c22.924-15.92,19.803-13.576,19.803-13.576
				S13.753,160.213,29.747,233.256z"/>
		</g>
	</g>
</g>
</svg>
