<?xml version="1.0" encoding="utf-8"?>
<!-- Generator: Adobe Illustrator 16.0.0, SVG Export Plug-In . SVG Version: 6.00 Build 0)  -->
<!DOCTYPE svg PUBLIC "-//W3C//DTD SVG 1.1//EN" "http://www.w3.org/Graphics/SVG/1.1/DTD/svg11.dtd">
<svg version="1.1" id="Layer_1" xmlns="http://www.w3.org/2000/svg" xmlns:xlink="http://www.w3.org/1999/xlink" x="0px" y="0px"
	 width="81.176px" height="50px" viewBox="0 0 81.176 50" enable-background="new 0 0 81.176 50" xml:space="preserve">
<path fill-rule="evenodd" clip-rule="evenodd" fill="#003A80" d="M0,0h34.63v26.943H0V0L0,0z M4.405,2.072h-1.21L2.849,1.036
	L2.504,2.072H1.295l0.951,0.692L1.899,3.973l0.95-0.778L3.8,3.885L3.455,2.764L4.405,2.072L4.405,2.072z M32.989,24.266h-1.124
	l-0.432-1.036l-0.345,1.036h-1.123l0.949,0.692l-0.432,1.208l0.951-0.778l0.95,0.778l-0.346-1.208L32.989,24.266L32.989,24.266z
	 M27.29,24.266h-1.21l-0.345-1.036l-0.346,1.036h-1.208l0.95,0.692l-0.346,1.208l0.951-0.778l0.95,0.778l-0.346-1.208L27.29,24.266
	L27.29,24.266z M21.502,24.266H20.38l-0.345-1.036l-0.346,1.036H18.48l0.95,0.692l-0.432,1.208l1.037-0.778l0.95,0.778l-0.346-1.208
	L21.502,24.266L21.502,24.266z M15.803,24.266h-1.123l-0.345-1.036l-0.432,1.036h-1.123l0.95,0.692l-0.433,1.208l1.038-0.778
	l0.95,0.778l-0.433-1.208L15.803,24.266L15.803,24.266z M10.104,24.266H8.981L8.549,23.23l-0.346,1.036H7.082l0.949,0.692
	l-0.432,1.208l0.95-0.778L9.5,26.166l-0.346-1.208L10.104,24.266L10.104,24.266z M4.405,24.266h-1.21L2.849,23.23l-0.345,1.036
	H1.295l0.951,0.692l-0.346,1.208l0.95-0.778L3.8,26.166l-0.345-1.208L4.405,24.266L4.405,24.266z M29.966,21.503h-1.123
	l-0.346-1.037l-0.345,1.037h-1.209l0.95,0.691l-0.431,1.209l1.036-0.777l0.95,0.689l-0.432-1.121L29.966,21.503L29.966,21.503z
	 M24.267,21.503h-1.122l-0.433-1.037l-0.345,1.037h-1.123l0.949,0.691l-0.431,1.209l0.949-0.777l0.95,0.689l-0.346-1.121
	L24.267,21.503L24.267,21.503z M18.567,21.503h-1.209l-0.345-1.037l-0.345,1.037h-1.21l0.949,0.691l-0.345,1.209l0.951-0.777
	l0.949,0.689l-0.346-1.121L18.567,21.503L18.567,21.503z M12.868,21.503h-1.209l-0.345-1.037l-0.346,1.037H9.758l0.95,0.691
	l-0.346,1.209l0.952-0.777l0.949,0.689l-0.346-1.121L12.868,21.503L12.868,21.503z M7.082,21.503H5.959l-0.346-1.037l-0.346,1.037
	H4.059l0.95,0.691l-0.433,1.209l1.037-0.777l0.95,0.689l-0.433-1.121L7.082,21.503L7.082,21.503z M29.966,15.975h-1.123
	l-0.346-1.034l-0.345,1.034h-1.209l0.95,0.692l-0.431,1.121l1.036-0.689l0.95,0.689l-0.432-1.121L29.966,15.975L29.966,15.975z
	 M24.267,15.975h-1.122l-0.433-1.034l-0.345,1.034h-1.123l0.949,0.692l-0.431,1.121l0.949-0.689l0.95,0.689l-0.346-1.121
	L24.267,15.975L24.267,15.975z M18.567,15.975h-1.209l-0.345-1.034l-0.345,1.034h-1.21l0.949,0.692l-0.345,1.121l0.951-0.689
	l0.949,0.689l-0.346-1.121L18.567,15.975L18.567,15.975z M12.868,15.975h-1.209l-0.345-1.034l-0.346,1.034H9.758l0.95,0.692
	l-0.346,1.121l0.952-0.689l0.949,0.689l-0.346-1.121L12.868,15.975L12.868,15.975z M7.082,15.975H5.959L5.613,14.94l-0.346,1.034
	H4.059l0.95,0.692l-0.433,1.121l1.037-0.689l0.95,0.689l-0.433-1.121L7.082,15.975L7.082,15.975z M29.966,10.449h-1.123
	l-0.346-1.124l-0.345,1.124h-1.209l0.95,0.689l-0.431,1.124l1.036-0.689l0.95,0.689l-0.432-1.124L29.966,10.449L29.966,10.449z
	 M24.267,10.449h-1.122l-0.433-1.124l-0.345,1.124h-1.123l0.949,0.689l-0.431,1.124l0.949-0.689l0.95,0.689l-0.346-1.124
	L24.267,10.449L24.267,10.449z M18.567,10.449h-1.209l-0.345-1.124l-0.345,1.124h-1.21l0.949,0.689l-0.345,1.124l0.951-0.689
	l0.949,0.689l-0.346-1.124L18.567,10.449L18.567,10.449z M12.868,10.449h-1.209l-0.345-1.124l-0.346,1.124H9.758l0.95,0.689
	l-0.346,1.124l0.952-0.689l0.949,0.689l-0.346-1.124L12.868,10.449L12.868,10.449z M7.082,10.449H5.959L5.613,9.325l-0.346,1.124
	H4.059l0.95,0.689l-0.433,1.124l1.037-0.689l0.95,0.689l-0.433-1.124L7.082,10.449L7.082,10.449z M29.966,4.834h-1.123L28.498,3.8
	l-0.345,1.035h-1.209l0.95,0.692l-0.431,1.209l1.036-0.778l0.95,0.778l-0.432-1.209L29.966,4.834L29.966,4.834z M24.267,4.834
	h-1.122L22.712,3.8l-0.345,1.035h-1.123l0.949,0.692l-0.431,1.209l0.949-0.778l0.95,0.778l-0.346-1.209L24.267,4.834L24.267,4.834z
	 M18.567,4.834h-1.209L17.013,3.8l-0.345,1.035h-1.21l0.949,0.692l-0.345,1.209l0.951-0.778l0.949,0.778l-0.346-1.209L18.567,4.834
	L18.567,4.834z M12.868,4.834h-1.209L11.313,3.8l-0.346,1.035H9.758l0.95,0.692l-0.346,1.209l0.952-0.778l0.949,0.778l-0.346-1.209
	L12.868,4.834L12.868,4.834z M7.082,4.834H5.959L5.613,3.8L5.267,4.834H4.059l0.95,0.692L4.576,6.736l1.037-0.778l0.95,0.778
	L6.131,5.527L7.082,4.834L7.082,4.834z M32.989,18.739h-1.124l-0.432-1.036l-0.345,1.036h-1.123l0.949,0.691l-0.432,1.123
	l0.951-0.689l0.95,0.689l-0.346-1.123L32.989,18.739L32.989,18.739z M27.29,18.739h-1.21l-0.345-1.036l-0.346,1.036h-1.208
	l0.95,0.691l-0.346,1.123l0.951-0.689l0.95,0.689l-0.346-1.123L27.29,18.739L27.29,18.739z M21.502,18.739H20.38l-0.345-1.036
	l-0.346,1.036H18.48l0.95,0.691l-0.432,1.123l1.037-0.689l0.95,0.689l-0.346-1.123L21.502,18.739L21.502,18.739z M15.803,18.739
	h-1.123l-0.345-1.036l-0.432,1.036h-1.123l0.95,0.691l-0.433,1.123l1.038-0.689l0.95,0.689l-0.433-1.123L15.803,18.739
	L15.803,18.739z M10.104,18.739H8.981l-0.432-1.036l-0.346,1.036H7.082l0.949,0.691l-0.432,1.123l0.95-0.689L9.5,20.552L9.154,19.43
	L10.104,18.739L10.104,18.739z M4.405,18.739h-1.21l-0.346-1.036l-0.345,1.036H1.295l0.951,0.691l-0.346,1.123l0.95-0.689
	L3.8,20.552L3.455,19.43L4.405,18.739L4.405,18.739z M32.989,13.212h-1.124l-0.432-1.124l-0.345,1.124h-1.123l0.949,0.692
	l-0.432,1.121l0.951-0.689l0.95,0.689l-0.346-1.121L32.989,13.212L32.989,13.212z M27.29,13.212h-1.21l-0.345-1.124l-0.346,1.124
	h-1.208l0.95,0.692l-0.346,1.121l0.951-0.689l0.95,0.689l-0.346-1.121L27.29,13.212L27.29,13.212z M21.502,13.212H20.38
	l-0.345-1.124l-0.346,1.124H18.48l0.95,0.692l-0.432,1.121l1.037-0.689l0.95,0.689l-0.346-1.121L21.502,13.212L21.502,13.212z
	 M15.803,13.212h-1.123l-0.345-1.124l-0.432,1.124h-1.123l0.95,0.692l-0.433,1.121l1.038-0.689l0.95,0.689l-0.433-1.121
	L15.803,13.212L15.803,13.212z M10.104,13.212H8.981l-0.432-1.124l-0.346,1.124H7.082l0.949,0.692l-0.432,1.121l0.95-0.689
	L9.5,15.025l-0.346-1.121L10.104,13.212L10.104,13.212z M4.405,13.212h-1.21l-0.346-1.124l-0.345,1.124H1.295l0.951,0.692
	l-0.346,1.121l0.95-0.689L3.8,15.025l-0.345-1.121L4.405,13.212L4.405,13.212z M32.989,7.687h-1.124l-0.432-1.124l-0.345,1.124
	h-1.123l0.949,0.689L30.483,9.5l0.951-0.691l0.95,0.691l-0.346-1.124L32.989,7.687L32.989,7.687z M27.29,7.687h-1.21l-0.345-1.124
	l-0.346,1.124h-1.208l0.95,0.689L24.784,9.5l0.951-0.691l0.95,0.691l-0.346-1.124L27.29,7.687L27.29,7.687z M21.502,7.687H20.38
	l-0.345-1.124l-0.346,1.124H18.48l0.95,0.689L18.999,9.5l1.037-0.691l0.95,0.691l-0.346-1.124L21.502,7.687L21.502,7.687z
	 M15.803,7.687h-1.123l-0.345-1.124l-0.432,1.124h-1.123l0.95,0.689L13.298,9.5l1.038-0.691l0.95,0.691l-0.433-1.124L15.803,7.687
	L15.803,7.687z M10.104,7.687H8.981L8.549,6.563L8.204,7.687H7.082l0.949,0.689L7.599,9.5l0.95-0.691L9.5,9.5L9.154,8.376
	L10.104,7.687L10.104,7.687z M4.405,7.687h-1.21L2.849,6.563L2.504,7.687H1.295l0.951,0.689L1.899,9.5l0.95-0.691L3.8,9.5
	L3.455,8.376L4.405,7.687L4.405,7.687z M32.989,2.072h-1.124l-0.432-1.036l-0.345,1.036h-1.123l0.949,0.692l-0.432,1.209
	l0.951-0.778l0.95,0.69l-0.346-1.121L32.989,2.072L32.989,2.072z M27.29,2.072h-1.21l-0.345-1.036l-0.346,1.036h-1.208l0.95,0.692
	l-0.346,1.209l0.951-0.778l0.95,0.69l-0.346-1.121L27.29,2.072L27.29,2.072z M21.502,2.072H20.38l-0.345-1.036l-0.346,1.036H18.48
	l0.95,0.692l-0.432,1.209l1.037-0.778l0.95,0.69l-0.346-1.121L21.502,2.072L21.502,2.072z M15.803,2.072h-1.123l-0.345-1.036
	l-0.432,1.036h-1.123l0.95,0.692l-0.433,1.209l1.038-0.778l0.95,0.69l-0.433-1.121L15.803,2.072L15.803,2.072z M10.104,2.072H8.981
	L8.549,1.036L8.204,2.072H7.082l0.949,0.692L7.599,3.973l0.95-0.778L9.5,3.885L9.154,2.764L10.104,2.072z"/>
<path fill-rule="evenodd" clip-rule="evenodd" fill="#E03A3E" d="M34.63,0h46.546v3.885H34.63V0L34.63,0z M34.63,7.687h46.546v3.887
	H34.63V7.687L34.63,7.687z M34.63,15.372h46.546v3.887H34.63V15.372L34.63,15.372z M34.63,23.057h46.546v3.887H34.63V23.057
	L34.63,23.057z M81.176,30.742v3.886H0v-3.886H81.176L81.176,30.742z M81.176,38.429v3.886H0v-3.886H81.176L81.176,38.429z
	 M81.176,46.115V50H0v-3.885H81.176z"/>
</svg>
