<?xml version="1.0" encoding="utf-8"?>
<!-- Generator: Adobe Illustrator 16.0.0, SVG Export Plug-In . SVG Version: 6.00 Build 0)  -->
<!DOCTYPE svg PUBLIC "-//W3C//DTD SVG 1.1//EN" "http://www.w3.org/Graphics/SVG/1.1/DTD/svg11.dtd">
<svg version="1.1" id="Layer_1" xmlns="http://www.w3.org/2000/svg" xmlns:xlink="http://www.w3.org/1999/xlink" x="0px" y="0px"
	 width="233px" height="397px" viewBox="0 0 233 397" enable-background="new 0 0 233 397" xml:space="preserve">
<g>
	<path fill="#65B458" d="M7.611,17c0,0,89.5-3.5,119-17c0,0,4.5,38,14,55c0,0-47,44-99.5,38.5L7.611,17z"/>
	<g transform="matrix(0.1,0,0,-0.1,0,362)">
		<path fill="#FFFFFF" d="M1007.549,3448.213c-10.342-5.469-32.402-16.147-48.955-23.647
			c-42.168-19.014-48.584-23.276-64.863-42.476c-23.096-27.334-33.252-72.124-24.57-108.594c3.389-13.872,7.773-23.306,9.492-20.142
			c0.4,0.815,1.396,5.259,2.08,9.785c3.662,22.207,20.82,58.755,37.725,80.283c8.613,11.021,27.998,24.409,29.023,20.005
			c0.352-1.519-4.824-12.31-11.367-23.428c-6.104-10.581-8.027-14.805-18.115-40.552c-10.4-26.978-21.328-73.403-26.582-113.701
			c-5.098-39.106-8.311-70.073-9.893-93.101c-2.559-39.38-5.82-70.791-7.48-71.763c-2.012-1.343-12.676,16.938-36.777,62.866
			c-37.598,71.968-52.158,96.309-83.467,139.536c-21.406,29.419-45.703,51.338-91.992,82.778
			c-25.43,17.441-59.17,31.919-77.871,33.647c-12.197,1.216-12.715-0.942-1.953-8.442c50.82-35.908,81.943-64.072,117.783-106.099
			c30.283-35.767,54.043-72.769,101.719-159.233c12.158-22.139,40.859-79.048,51.016-101.367
			c11.328-24.805,23.066-48.931,25.508-52.568c0.84-1.113,3.291-2.285,5.488-2.349c4.971-0.146,27.559,5.132,32.09,7.505
			c6.68,3.735,6.738,9.707,1.455,77.031c-3.672,45.479-4.17,73.105-2.051,115c3.486,71.411,12.402,125.205,22.93,136.094
			c1.533,1.514,9.834,5.781,18.711,9.458c34.424,14.292,59.502,36.86,73.994,66.831c9.707,19.99,10.381,33.223,4.16,75.342
			c-3.33,22.319-3.672,28.77-2.598,42.822c0.615,9.15,0.605,17.285,0.098,18.184
			C1030.742,3460.171,1028.603,3459.38,1007.549,3448.213z"/>
	</g>
	<path fill="#414142" d="M174.111,374.501c-6-2-8.5-10.5-11-11s-3-5.5-3.503-7s-1.997-8.5-0.322-14s-3.675-9-4.675-15
		s0.5-4.5-0.5-14.5s-3.5-26-3.5-26s3.5,0.5,7.5-3s-3.5-11.5-3.5-18s-2.5-13.5-4.5-22.5s-2.5-19-5-26s-17.73-8.5-17.73-8.5
		s1.73-4,4.73-5s4.5-5.5,5-11c0.126-1.384,0.283-2.767,0.385-4.126l13.865,0.958c0,0-1.02-0.987-2.516-2.543
		c12.413-4.763,21.766-18.932,21.766-18.932c-10.139,5.47-20.974,1.302-31.611-1.191c4.356-1.276,13.135,0.899,13.135,0.899
		c-6.644-5.65-18.357-3.837-24.771-2.248c-8.396,0.613-13.37,5.396-16.457,9.683c-2.311,3.208-1.08,9.293,1.229,13.608
		c0.418,4.477,2.063,8.693,2.976,10.392c2.146,4-0.5,5-0.5,5s-1-2.5-5.5-8s-16-17-21-21.5s-15.5-19-17-19.5s-2.5-11-8.5-16
		c-0.396-0.33-0.77-0.609-1.123-0.847C50.774,111.815,10.709,11.799,8.111,10.5c-3-1.5-9-0.5-8,4
		c0.863,3.886,43.851,100.22,55.57,126.447c-0.454,1.379-0.762,3.013-1.07,4.553c-1,5,6.5,8,6.5,8l16,40.5c0,0,0,0,3.5-1
		s-6.24-21-6.24-21s4.74,7.5,8.24,9.389s3.5,10.112,10,17.612s9.5,17,9.5,17s3.5,25.5,3.5,30.5s2,20.5-2.5,27s-11,36-15.5,52.5
		s-11,33-11,33l2.5,3c0,0-6,7.5-4.5,13.5s12.5,6,18,3s-3-14.5-3-14.5s5,0.5,9,0s5-20,5.5-25s1-12,5-20.5s14-26,14-26
		s8,4,12.5,13.482c4.5,9.484,8,31.518,8,37.018s-0.5,15.5,0,20.5s5.192,1,5.192,1v3.5c-2.308,1.5-3.692,5.5-3.692,9.5
		s19.5,4.5,29,4.5S180.111,376.501,174.111,374.501z M145.111,259.809c0,0-8-11.309-6.5-21.809
		C138.611,238.001,145.611,254.62,145.111,259.809z"/>
</g>
</svg>
