<?xml version="1.0" encoding="utf-8"?>
<!-- Generator: Adobe Illustrator 16.0.0, SVG Export Plug-In . SVG Version: 6.00 Build 0)  -->
<!DOCTYPE svg PUBLIC "-//W3C//DTD SVG 1.1//EN" "http://www.w3.org/Graphics/SVG/1.1/DTD/svg11.dtd">
<svg version="1.1" id="Layer_1" xmlns="http://www.w3.org/2000/svg" xmlns:xlink="http://www.w3.org/1999/xlink" x="0px" y="0px"
	 width="192.819px" height="43.723px" viewBox="-13.242 6.899 192.819 43.723"
	 enable-background="new -13.242 6.899 192.819 43.723" xml:space="preserve">
<g>
	<path d="M51.628,26.114h6.077L47.064,47.572h-6.4l-1.526-21.458h5.607l0.397,11.757v0.749c0,1.408-0.079,2.662-0.236,3.759h0.117
		c0.137-0.628,0.355-1.398,0.654-2.313c0.298-0.913,0.57-1.626,0.814-2.135L51.628,26.114z"/>
	<path d="M67.211,47.572h-12.74l4.535-21.458h12.741l-0.954,4.653h-7.001l-0.69,3.376h6.517l-1.057,4.651h-6.517l-0.837,4.053h7.001
		L67.211,47.572z"/>
	<path d="M80.107,35.009h8.954L86.61,46.678c-2.446,0.792-4.996,1.188-7.647,1.188c-2.554,0-4.535-0.742-5.945-2.23
		c-1.409-1.486-2.113-3.598-2.113-6.326c0-2.613,0.538-4.971,1.614-7.076c1.076-2.104,2.551-3.703,4.426-4.805
		c1.874-1.103,4.053-1.652,6.538-1.652c2.604,0,4.795,0.523,6.576,1.572l-2.157,4.534c-1.498-0.88-2.995-1.323-4.492-1.323
		c-1.291,0-2.434,0.357-3.428,1.066c-0.993,0.709-1.785,1.759-2.377,3.147c-0.591,1.388-0.888,2.872-0.888,4.447
		c0,2.585,1.022,3.877,3.067,3.877c0.617,0,1.268-0.069,1.953-0.206l0.749-3.407h-3.361L80.107,35.009z"/>
	<path d="M102.031,25.776c2.545,0,4.522,0.727,5.936,2.18c1.416,1.453,2.122,3.482,2.122,6.084c0,2.604-0.486,4.983-1.459,7.14
		c-0.974,2.16-2.318,3.813-4.029,4.964c-1.712,1.149-3.698,1.724-5.959,1.724c-2.634,0-4.667-0.729-6.099-2.187
		c-1.435-1.458-2.152-3.483-2.152-6.077c0-2.593,0.506-4.977,1.513-7.147c1.008-2.173,2.381-3.83,4.118-4.969
		C97.758,26.347,99.76,25.776,102.031,25.776z M104.292,34.098c0-1.115-0.235-1.988-0.704-2.62c-0.47-0.63-1.149-0.946-2.04-0.946
		c-0.969,0-1.86,0.412-2.673,1.232c-0.812,0.822-1.459,1.953-1.945,3.392c-0.482,1.438-0.726,2.911-0.726,4.418
		c0,2.368,0.979,3.552,2.936,3.552c0.93,0,1.793-0.405,2.591-1.218s1.424-1.907,1.878-3.288
		C104.063,37.24,104.292,35.732,104.292,34.098z"/>
	<path d="M124.432,41.276c0,2.174-0.718,3.863-2.158,5.072c-1.438,1.208-3.444,1.813-6.018,1.813c-1.077,0-2.095-0.119-3.054-0.359
		c-0.959-0.239-1.785-0.59-2.481-1.05v-5.137c0.823,0.518,1.765,0.954,2.826,1.306c1.063,0.354,2.024,0.529,2.884,0.529
		c0.725,0,1.273-0.152,1.646-0.456c0.371-0.302,0.557-0.734,0.557-1.291c0-0.264-0.059-0.512-0.178-0.742
		c-0.115-0.229-0.282-0.46-0.497-0.688c-0.215-0.23-0.793-0.736-1.73-1.521c-1.146-0.921-1.979-1.859-2.497-2.817
		c-0.519-0.959-0.777-2.012-0.777-3.156c0-1.281,0.32-2.436,0.961-3.457c0.642-1.021,1.546-1.815,2.715-2.378
		c1.17-0.563,2.479-0.843,3.928-0.843c2.338,0,4.443,0.523,6.313,1.571l-1.982,4.358c-1.673-0.861-3.098-1.291-4.271-1.291
		c-0.626,0-1.109,0.138-1.446,0.411c-0.338,0.272-0.506,0.673-0.506,1.202c0,0.48,0.163,0.928,0.49,1.344
		c0.33,0.416,0.953,0.973,1.873,1.666c1.155,0.852,2.009,1.746,2.568,2.686C124.153,38.986,124.432,40.063,124.432,41.276z"/>
	<path d="M139.75,26.407h6.075l-10.642,21.46h-6.397l-1.528-21.46h5.608l0.396,11.759v0.748c0,1.407-0.077,2.661-0.234,3.758h0.118
		c0.137-0.625,0.354-1.397,0.652-2.313c0.3-0.913,0.57-1.625,0.815-2.134L139.75,26.407z"/>
	<path d="M154.324,43.847h-6.576l-1.834,4.021h-5.961l10.922-21.46h7.382l1.806,21.46h-5.593L154.324,43.847z M149.847,39.266h4.3
		l-0.251-6.223l-0.027-1.264c0-0.733,0.02-1.374,0.059-1.923c-0.235,0.841-0.534,1.654-0.896,2.437L149.847,39.266z"/>
	<path d="M168.422,40.059l-1.657,7.81h-5.739l4.535-21.462h5.681c2.466,0,4.354,0.489,5.666,1.469
		c1.312,0.979,1.966,2.453,1.966,4.418c0,1.526-0.347,2.857-1.042,3.992c-0.693,1.135-1.727,2.001-3.097,2.598l3.287,7.573
		l0.588,1.412h-6.253l-2.862-7.81H168.422z M169.347,35.699h0.75c0.93,0,1.668-0.267,2.215-0.8c0.548-0.533,0.823-1.279,0.823-2.238
		c0-0.606-0.169-1.068-0.508-1.388c-0.336-0.318-0.828-0.476-1.475-0.476h-0.777L169.347,35.699z"/>
</g>
<path d="M29.095,37.795c1.367-2.896,2.059-5.991,2.059-9.208c0-11.959-9.73-21.688-21.69-21.688
	c-11.961,0-21.692,9.729-21.692,21.688s9.731,21.689,21.692,21.689c3.231,0,6.336-0.698,9.24-2.076l12.798,2.421L29.095,37.795z
	 M26.942,46.055L18.174,44.4l-0.554,0.28c-2.551,1.299-5.293,1.959-8.157,1.959c-2.795,0-5.443-0.639-7.808-1.779
	c1.53-4.661,3.019-7.9,4.003-8.532C5.837,36.218,6.713,36,7.632,35.848c3.567-0.589,6.433-2.169,8.463-4.677
	c1.357-1.676,1.715-2.907,2.058-7.023c0.178-2.181,0.288-2.796,0.699-4.101c0.261-0.85,0.439-1.616,0.413-1.713
	c-0.097-0.248-0.317-0.218-2.551,0.372c-1.098,0.288-3.417,0.808-5.144,1.15c-4.403,0.864-5.103,1.125-7.064,2.58
	c-2.784,2.069-4.732,6.075-4.718,9.709c0.014,1.385,0.22,2.373,0.453,2.113c0.056-0.068,0.248-0.467,0.412-0.877
	c0.835-2.018,3.264-5.091,5.334-6.75c1.057-0.851,3.183-1.687,3.183-1.248c0,0.152-0.727,1.057-1.591,1.963
	c-0.81,0.862-1.083,1.221-2.605,3.427c-1.577,2.32-3.635,6.461-5.021,10.149c-0.318,0.85-0.609,1.642-0.888,2.408
	c-4.625-3.273-7.654-8.658-7.654-14.742c0-9.953,8.098-18.051,18.053-18.051c9.954,0,18.051,8.098,18.051,18.051
	c0,2.851-0.653,5.584-1.942,8.129l-0.279,0.551L26.942,46.055z"/>
<g>
	<path d="M46.012,13.354c0,1.054-0.212,1.984-0.636,2.792s-1.03,1.429-1.817,1.865c-0.788,0.436-1.71,0.654-2.768,0.654H38.66
		l1.872-8.855h2.071c1.114,0,1.961,0.302,2.541,0.905C45.723,11.319,46.012,12.199,46.012,13.354z M40.858,17.775
		c0.816,0,1.533-0.185,2.15-0.554c0.618-0.37,1.091-0.892,1.42-1.566s0.494-1.445,0.494-2.313s-0.208-1.525-0.624-1.972
		c-0.416-0.446-1.026-0.669-1.829-0.669h-1.078l-1.514,7.075H40.858z"/>
	<path d="M49.38,18.786c-0.743,0-1.327-0.22-1.75-0.66s-0.636-1.05-0.636-1.829c0-0.759,0.15-1.487,0.451-2.184
		c0.301-0.696,0.699-1.238,1.196-1.626c0.497-0.388,1.043-0.582,1.641-0.582c0.618,0,1.082,0.134,1.393,0.403
		s0.466,0.643,0.466,1.124c0,0.727-0.335,1.297-1.005,1.711s-1.629,0.621-2.877,0.621h-0.2l-0.024,0.485
		c0,0.529,0.124,0.942,0.373,1.238c0.249,0.297,0.633,0.445,1.154,0.445c0.254,0,0.516-0.036,0.784-0.109s0.603-0.206,1.002-0.4
		v0.884c-0.379,0.178-0.714,0.302-1.005,0.373C50.052,18.751,49.731,18.786,49.38,18.786z M50.222,12.772
		c-0.416,0-0.807,0.19-1.172,0.569c-0.366,0.379-0.645,0.906-0.839,1.581h0.073c0.92,0,1.626-0.12,2.117-0.36
		s0.736-0.588,0.736-1.045c0-0.214-0.074-0.392-0.221-0.533S50.537,12.772,50.222,12.772z"/>
	<path d="M56.969,16.781c0,0.63-0.223,1.122-0.669,1.475c-0.446,0.353-1.075,0.53-1.886,0.53c-0.683,0-1.298-0.139-1.848-0.418
		v-0.957c0.283,0.17,0.587,0.301,0.915,0.394c0.327,0.093,0.63,0.139,0.909,0.139c0.509,0,0.892-0.101,1.151-0.303
		c0.258-0.202,0.388-0.46,0.388-0.775c0-0.23-0.071-0.424-0.212-0.582c-0.141-0.157-0.446-0.374-0.915-0.648
		c-0.525-0.295-0.896-0.583-1.114-0.866s-0.327-0.618-0.327-1.005c0-0.557,0.204-1.006,0.612-1.348s0.945-0.512,1.611-0.512
		c0.69,0,1.356,0.149,1.999,0.448l-0.327,0.83l-0.339-0.151c-0.408-0.173-0.852-0.26-1.332-0.26c-0.376,0-0.67,0.088-0.884,0.263
		c-0.214,0.176-0.321,0.403-0.321,0.682c0,0.226,0.072,0.42,0.215,0.582c0.144,0.161,0.439,0.369,0.888,0.624
		c0.432,0.242,0.742,0.45,0.93,0.624c0.188,0.173,0.328,0.36,0.421,0.56C56.923,16.306,56.969,16.531,56.969,16.781z"/>
	<path d="M59.204,18.665h-1.018l1.417-6.638h1.018L59.204,18.665z M59.888,10.331c0-0.226,0.065-0.411,0.194-0.554
		c0.129-0.144,0.297-0.215,0.503-0.215c0.355,0,0.533,0.182,0.533,0.545c0,0.222-0.067,0.41-0.203,0.563
		c-0.135,0.154-0.292,0.23-0.469,0.23c-0.162,0-0.295-0.049-0.4-0.148S59.888,10.513,59.888,10.331z"/>
	<path d="M67.641,12.027l-0.151,0.648l-1.278,0.146c0.166,0.25,0.249,0.569,0.249,0.957c0,0.771-0.235,1.386-0.706,1.844
		c-0.471,0.458-1.1,0.688-1.887,0.688c-0.222,0-0.392-0.016-0.509-0.048c-0.562,0.214-0.842,0.478-0.842,0.793
		c0,0.166,0.066,0.276,0.2,0.331c0.133,0.054,0.327,0.098,0.582,0.13l0.708,0.085c0.731,0.089,1.261,0.267,1.59,0.533
		c0.329,0.267,0.494,0.658,0.494,1.175c0,0.743-0.295,1.318-0.884,1.726s-1.419,0.612-2.489,0.612c-0.783,0-1.397-0.148-1.841-0.445
		c-0.444-0.297-0.666-0.716-0.666-1.257c0-0.424,0.145-0.792,0.436-1.102c0.291-0.311,0.761-0.576,1.411-0.793
		c-0.315-0.166-0.473-0.41-0.473-0.733c0-0.279,0.103-0.518,0.309-0.718s0.493-0.387,0.86-0.56c-0.254-0.129-0.462-0.32-0.624-0.573
		c-0.162-0.252-0.242-0.546-0.242-0.881c0-0.784,0.241-1.425,0.724-1.926c0.482-0.5,1.099-0.751,1.85-0.751
		c0.315,0,0.626,0.041,0.933,0.121H67.641z M61.19,19.846c0,0.311,0.131,0.557,0.394,0.739c0.263,0.182,0.652,0.272,1.169,0.272
		c0.735,0,1.31-0.128,1.723-0.384c0.414-0.257,0.621-0.619,0.621-1.087c0-0.25-0.109-0.448-0.327-0.594
		c-0.218-0.145-0.589-0.246-1.114-0.303l-0.963-0.097c-0.484,0.101-0.856,0.278-1.114,0.533S61.19,19.487,61.19,19.846z
		 M62.875,14.546c0,0.343,0.091,0.605,0.272,0.784c0.182,0.18,0.434,0.27,0.757,0.27c0.319,0,0.598-0.084,0.836-0.254
		c0.238-0.17,0.421-0.403,0.548-0.7c0.127-0.297,0.19-0.619,0.19-0.966c0-0.331-0.089-0.583-0.266-0.757
		c-0.178-0.174-0.432-0.261-0.763-0.261c-0.315,0-0.591,0.082-0.827,0.246c-0.236,0.164-0.42,0.392-0.551,0.684
		C62.94,13.885,62.875,14.203,62.875,14.546z"/>
	<path d="M71.608,18.665l0.896-4.191c0.081-0.42,0.122-0.71,0.122-0.872c0-0.254-0.072-0.458-0.215-0.612
		c-0.143-0.153-0.373-0.23-0.688-0.23c-0.359,0-0.709,0.121-1.051,0.363s-0.642,0.587-0.902,1.036s-0.458,0.991-0.59,1.629
		l-0.612,2.877H67.55l1.417-6.638h0.842l-0.133,1.229h0.061c0.388-0.493,0.762-0.841,1.124-1.045
		c0.361-0.204,0.736-0.306,1.124-0.306c0.513,0,0.917,0.14,1.214,0.421s0.445,0.673,0.445,1.178c0,0.319-0.046,0.682-0.139,1.09
		l-0.866,4.07H71.608z"/>
	<path d="M78.222,11.906c0.372,0,0.703,0.1,0.994,0.3c0.291,0.2,0.517,0.487,0.678,0.863h0.066l0.406-1.042h0.77l-1.411,6.638
		h-0.806l0.157-1.266h-0.048c-0.723,0.924-1.484,1.387-2.283,1.387c-0.562,0-1.001-0.2-1.32-0.6c-0.319-0.4-0.479-0.947-0.479-1.641
		c0-0.84,0.143-1.619,0.43-2.338s0.683-1.282,1.188-1.69C77.067,12.11,77.621,11.906,78.222,11.906z M77.071,17.944
		c0.392,0,0.782-0.187,1.169-0.56c0.388-0.374,0.703-0.86,0.945-1.46c0.242-0.6,0.363-1.2,0.363-1.802
		c0-0.416-0.113-0.747-0.339-0.993c-0.226-0.247-0.523-0.37-0.89-0.37c-0.42,0-0.811,0.174-1.172,0.521
		c-0.362,0.347-0.646,0.817-0.851,1.411c-0.206,0.593-0.309,1.219-0.309,1.877c0,0.46,0.095,0.805,0.285,1.033
		S76.729,17.944,77.071,17.944z"/>
	<path d="M85.229,11.918c0.783,0,1.351,0.383,1.702,1.151h0.061c0.068-0.626,0.159-1.179,0.272-1.66l0.473-2.168h1.005l-1.999,9.424
		h-0.842l0.133-1.266h-0.048c-0.408,0.504-0.79,0.862-1.145,1.072c-0.355,0.21-0.723,0.315-1.102,0.315
		c-0.562,0-1-0.198-1.314-0.594c-0.315-0.396-0.472-0.945-0.472-1.647c0-0.864,0.145-1.656,0.436-2.375
		c0.291-0.719,0.683-1.274,1.178-1.666S84.616,11.918,85.229,11.918z M84.079,17.944c0.38,0,0.771-0.189,1.175-0.566
		s0.724-0.86,0.96-1.447c0.236-0.588,0.354-1.187,0.354-1.796c0-0.448-0.109-0.79-0.327-1.024c-0.218-0.234-0.535-0.351-0.951-0.351
		c-0.408,0-0.786,0.167-1.135,0.5c-0.35,0.333-0.63,0.802-0.842,1.405s-0.318,1.239-0.318,1.905
		C82.995,17.486,83.356,17.944,84.079,17.944z"/>
	<path d="M92.14,16.594c0-0.598,0.182-1.118,0.546-1.56c0.363-0.442,0.975-0.869,1.835-1.281c-0.416-0.666-0.624-1.29-0.624-1.872
		c0-0.662,0.214-1.196,0.642-1.602c0.429-0.406,0.996-0.608,1.702-0.608c0.602,0,1.079,0.16,1.433,0.479s0.53,0.747,0.53,1.284
		c0,0.315-0.066,0.592-0.197,0.83s-0.308,0.456-0.53,0.654c-0.222,0.198-0.479,0.38-0.771,0.545
		c-0.293,0.166-0.603,0.333-0.93,0.502l1.684,2.356c0.513-0.444,0.914-1.04,1.205-1.787h1.018c-0.408,0.953-0.979,1.785-1.714,2.496
		l1.229,1.635h-1.218l-0.708-1.005c-0.485,0.404-0.949,0.692-1.394,0.866c-0.444,0.173-0.942,0.26-1.496,0.26
		c-0.679,0-1.222-0.194-1.629-0.582C92.344,17.817,92.14,17.28,92.14,16.594z M94.593,17.944c0.352,0,0.69-0.067,1.018-0.2
		c0.327-0.133,0.721-0.384,1.182-0.751l-1.854-2.623c-0.518,0.271-0.889,0.505-1.114,0.703c-0.227,0.198-0.399,0.415-0.519,0.651
		s-0.179,0.501-0.179,0.796c0,0.428,0.135,0.772,0.403,1.033C93.799,17.814,94.153,17.944,94.593,17.944z M96.205,10.5
		c-0.424,0-0.753,0.121-0.987,0.363c-0.234,0.243-0.352,0.586-0.352,1.03c0,0.484,0.166,0.959,0.497,1.423
		c0.562-0.287,0.946-0.509,1.156-0.666c0.21-0.158,0.378-0.329,0.503-0.515c0.125-0.186,0.188-0.396,0.188-0.63
		c0-0.311-0.085-0.556-0.257-0.736S96.532,10.5,96.205,10.5z"/>
	<path d="M106.574,18.786c-0.392,0-0.735-0.103-1.032-0.309c-0.297-0.206-0.521-0.486-0.67-0.842h-0.061l-0.424,1.03h-0.757
		l1.999-9.424h1.018c-0.206,0.977-0.365,1.725-0.476,2.244c-0.111,0.519-0.264,1.125-0.458,1.82h0.055
		c0.376-0.476,0.746-0.827,1.111-1.051c0.366-0.224,0.742-0.336,1.13-0.336c0.569,0,1.014,0.2,1.332,0.6
		c0.319,0.399,0.479,0.949,0.479,1.647c0,0.844-0.138,1.624-0.414,2.341c-0.277,0.717-0.663,1.276-1.157,1.678
		C107.753,18.585,107.196,18.786,106.574,18.786z M107.701,12.76c-0.388,0-0.782,0.192-1.185,0.575
		c-0.401,0.384-0.721,0.866-0.957,1.448s-0.354,1.177-0.354,1.787c0,0.444,0.112,0.784,0.337,1.021
		c0.224,0.236,0.548,0.354,0.972,0.354c0.399,0,0.772-0.164,1.117-0.491c0.346-0.327,0.623-0.792,0.833-1.396
		s0.315-1.245,0.315-1.923C108.779,13.218,108.419,12.76,107.701,12.76z"/>
	<path d="M113.412,18.786c-0.742,0-1.326-0.22-1.75-0.66s-0.636-1.05-0.636-1.829c0-0.759,0.15-1.487,0.451-2.184
		c0.301-0.696,0.699-1.238,1.196-1.626c0.496-0.388,1.044-0.582,1.642-0.582c0.617,0,1.082,0.134,1.393,0.403
		s0.467,0.643,0.467,1.124c0,0.727-0.336,1.297-1.006,1.711s-1.629,0.621-2.877,0.621h-0.2l-0.023,0.485
		c0,0.529,0.124,0.942,0.372,1.238c0.248,0.297,0.633,0.445,1.153,0.445c0.255,0,0.517-0.036,0.785-0.109s0.603-0.206,1.002-0.4
		v0.884c-0.38,0.178-0.715,0.302-1.005,0.373C114.084,18.751,113.763,18.786,113.412,18.786z M114.254,12.772
		c-0.416,0-0.807,0.19-1.173,0.569c-0.365,0.379-0.645,0.906-0.839,1.581h0.073c0.921,0,1.626-0.12,2.116-0.36
		c0.491-0.24,0.736-0.588,0.736-1.045c0-0.214-0.073-0.392-0.221-0.533S114.569,12.772,114.254,12.772z"/>
	<path d="M121.104,11.906c0.278,0,0.521,0.028,0.727,0.085l-0.218,0.908c-0.214-0.052-0.426-0.079-0.636-0.079
		c-0.368,0-0.712,0.121-1.033,0.363c-0.32,0.242-0.602,0.579-0.842,1.009c-0.24,0.43-0.417,0.907-0.53,1.432l-0.647,3.041h-1.018
		l1.417-6.638h0.842l-0.133,1.229h0.061c0.291-0.383,0.531-0.659,0.721-0.827s0.389-0.297,0.597-0.388
		S120.849,11.906,121.104,11.906z"/>
	<path d="M125.332,11.906c0.372,0,0.703,0.1,0.993,0.3c0.291,0.2,0.517,0.487,0.679,0.863h0.066l0.406-1.042h0.769l-1.411,6.638
		h-0.806l0.158-1.266h-0.049c-0.723,0.924-1.483,1.387-2.283,1.387c-0.562,0-1.002-0.2-1.32-0.6c-0.319-0.4-0.479-0.947-0.479-1.641
		c0-0.84,0.144-1.619,0.43-2.338c0.287-0.719,0.683-1.282,1.188-1.69S124.73,11.906,125.332,11.906z M124.181,17.944
		c0.392,0,0.781-0.187,1.169-0.56s0.702-0.86,0.944-1.46s0.363-1.2,0.363-1.802c0-0.416-0.112-0.747-0.339-0.993
		c-0.227-0.247-0.522-0.37-0.891-0.37c-0.42,0-0.811,0.174-1.172,0.521s-0.645,0.817-0.851,1.411
		c-0.206,0.593-0.309,1.219-0.309,1.877c0,0.46,0.095,0.805,0.284,1.033S123.837,17.944,124.181,17.944z M124.211,10.319
		c0-0.186,0.057-0.346,0.169-0.481c0.113-0.135,0.263-0.203,0.448-0.203c0.315,0,0.473,0.162,0.473,0.485
		c0,0.198-0.06,0.365-0.179,0.502s-0.257,0.206-0.415,0.206c-0.141,0-0.259-0.044-0.354-0.133
		C124.258,10.605,124.211,10.48,124.211,10.319z M126.416,10.319c0-0.186,0.057-0.346,0.17-0.481s0.265-0.203,0.454-0.203
		c0.311,0,0.467,0.162,0.467,0.485c0,0.198-0.06,0.365-0.179,0.502s-0.258,0.206-0.415,0.206c-0.142,0-0.26-0.044-0.354-0.133
		S126.416,10.48,126.416,10.319z"/>
	<path d="M130.861,17.957c0.222,0,0.513-0.053,0.872-0.158v0.781c-0.138,0.057-0.307,0.105-0.509,0.146s-0.363,0.061-0.484,0.061
		c-0.505,0-0.892-0.12-1.16-0.36s-0.402-0.599-0.402-1.075c0-0.266,0.036-0.569,0.108-0.908l0.77-3.646h-1.042l0.085-0.442
		l1.12-0.473l0.758-1.381h0.593l-0.333,1.526h1.66l-0.158,0.769h-1.653l-0.781,3.658c-0.072,0.352-0.108,0.618-0.108,0.8
		c0,0.226,0.058,0.4,0.175,0.521S130.651,17.957,130.861,17.957z"/>
	<path d="M134.883,17.957c0.222,0,0.513-0.053,0.872-0.158v0.781c-0.138,0.057-0.307,0.105-0.509,0.146s-0.363,0.061-0.484,0.061
		c-0.505,0-0.892-0.12-1.16-0.36s-0.402-0.599-0.402-1.075c0-0.266,0.036-0.569,0.108-0.908l0.77-3.646h-1.042l0.085-0.442
		l1.12-0.473l0.758-1.381h0.593l-0.333,1.526h1.66l-0.158,0.769h-1.653l-0.781,3.658c-0.072,0.352-0.108,0.618-0.108,0.8
		c0,0.226,0.058,0.4,0.175,0.521S134.673,17.957,134.883,17.957z"/>
	<path d="M140.382,11.906c0.372,0,0.703,0.1,0.993,0.3c0.291,0.2,0.517,0.487,0.679,0.863h0.066l0.406-1.042h0.769l-1.411,6.638
		h-0.806l0.158-1.266h-0.049c-0.723,0.924-1.483,1.387-2.283,1.387c-0.562,0-1.002-0.2-1.32-0.6c-0.319-0.4-0.479-0.947-0.479-1.641
		c0-0.84,0.144-1.619,0.43-2.338c0.287-0.719,0.683-1.282,1.188-1.69S139.781,11.906,140.382,11.906z M139.232,17.944
		c0.392,0,0.781-0.187,1.169-0.56s0.702-0.86,0.944-1.46s0.363-1.2,0.363-1.802c0-0.416-0.112-0.747-0.339-0.993
		c-0.227-0.247-0.522-0.37-0.891-0.37c-0.42,0-0.811,0.174-1.172,0.521s-0.645,0.817-0.851,1.411
		c-0.206,0.593-0.309,1.219-0.309,1.877c0,0.46,0.095,0.805,0.284,1.033S138.888,17.944,139.232,17.944z"/>
	<path d="M147.39,11.918c0.783,0,1.351,0.383,1.702,1.151h0.061c0.068-0.626,0.159-1.179,0.272-1.66l0.473-2.168h1.005l-1.998,9.424
		h-0.842l0.133-1.266h-0.049c-0.407,0.504-0.789,0.862-1.145,1.072s-0.723,0.315-1.103,0.315c-0.561,0-0.999-0.198-1.313-0.594
		c-0.315-0.396-0.473-0.945-0.473-1.647c0-0.864,0.146-1.656,0.436-2.375c0.291-0.719,0.684-1.274,1.179-1.666
		C146.222,12.114,146.777,11.918,147.39,11.918z M146.24,17.944c0.379,0,0.771-0.189,1.175-0.566c0.403-0.377,0.724-0.86,0.96-1.447
		c0.236-0.588,0.354-1.187,0.354-1.796c0-0.448-0.109-0.79-0.327-1.024c-0.218-0.234-0.535-0.351-0.951-0.351
		c-0.408,0-0.786,0.167-1.136,0.5c-0.349,0.333-0.63,0.802-0.842,1.405s-0.317,1.239-0.317,1.905
		C145.156,17.486,145.517,17.944,146.24,17.944z"/>
	<path d="M157.771,11.906c0.372,0,0.703,0.1,0.993,0.3c0.291,0.2,0.517,0.487,0.679,0.863h0.066l0.406-1.042h0.769l-1.411,6.638
		h-0.806l0.158-1.266h-0.049c-0.723,0.924-1.483,1.387-2.283,1.387c-0.562,0-1.002-0.2-1.32-0.6c-0.319-0.4-0.479-0.947-0.479-1.641
		c0-0.84,0.144-1.619,0.43-2.338c0.287-0.719,0.683-1.282,1.188-1.69S157.169,11.906,157.771,11.906z M156.621,17.944
		c0.392,0,0.781-0.187,1.169-0.56s0.702-0.86,0.944-1.46s0.363-1.2,0.363-1.802c0-0.416-0.112-0.747-0.339-0.993
		c-0.227-0.247-0.522-0.37-0.891-0.37c-0.42,0-0.811,0.174-1.172,0.521s-0.645,0.817-0.851,1.411
		c-0.206,0.593-0.309,1.219-0.309,1.877c0,0.46,0.095,0.805,0.284,1.033S156.277,17.944,156.621,17.944z"/>
	<path d="M162.259,18.665l-0.757-6.638h1.018l0.388,3.713c0.097,1.042,0.146,1.772,0.146,2.192h0.036
		c0.513-1.11,0.874-1.859,1.084-2.247l1.969-3.658h1.078l-3.58,6.638H162.259z"/>
</g>
</svg>
