<?xml version="1.0" encoding="utf-8"?>
<!-- Generator: Adobe Illustrator 16.0.0, SVG Export Plug-In . SVG Version: 6.00 Build 0)  -->
<!DOCTYPE svg PUBLIC "-//W3C//DTD SVG 1.1//EN" "http://www.w3.org/Graphics/SVG/1.1/DTD/svg11.dtd">
<svg version="1.1" id="Layer_1" xmlns="http://www.w3.org/2000/svg" xmlns:xlink="http://www.w3.org/1999/xlink" x="0px" y="0px"
	 width="516.111px" height="353.784px" viewBox="0 0 516.111 353.784" enable-background="new 0 0 516.111 353.784"
	 xml:space="preserve">
<g>
	<rect fill="#1D76BB" width="516.111" height="353.784"/>
	<path fill="#2985C4" d="M37.777,77.892c52.87-30.476,77.054-54.619,168.813-52.137c91.76,2.483,101.665,5.997,152.296,17.274
		c50.632,11.276,89.453-29.688,110.629,24.311c21.175,53.999,25.433,66.752,0,113.585c-25.434,46.829-47.048,81.823-64.03,92.928
		c-16.981,11.105-77.286,46.721-100.74,49.205c-23.453,2.482-51.686,8.068-106.977,11.172
		c-55.291,3.104-83.217,16.139-119.544,14.275c-36.328-1.861-38.34,6.175-44.223-34.308c-5.882-40.48-25.044-123.343-15.633-142.583
		C27.778,152.374,5.591,96.445,37.777,77.892z"/>
	<path fill="#1D76BB" d="M80.642,130.342c5.881-17.975,18.748-71.2,100.507-75.545c81.76-4.345,30.127-29.172,130.056-3.104
		c99.93,26.068,115.811-17.049,139.927,44.543s18.172,96.418-24.116,131.729s-4.705,31.654-81.759,49.033
		c-77.055,17.379-73.502,13.654-150.862,19.24c-77.359,5.586-117.944,49.646-126.768-25.141
		C58.804,196.311,80.642,130.342,80.642,130.342z"/>
	<path fill="#2985C4" d="M117.746,159.068c42.72-27.97-19.217-38.969,91.562-54.33C320.086,89.377,353.602,49.032,388.98,89.377
		c35.378,40.343,73.859,26.688,40.965,79.445c-32.896,52.758-4.966,68.897-78.826,86.274
		c-73.86,17.379-63.309,35.379-163.238,22.965C87.953,265.647,80.505,183.45,117.746,159.068z"/>
	<path fill="#1D76BB" d="M161.573,172.207c29.349-19.215-13.202-26.771,62.905-37.326c76.107-10.554,99.133-38.271,123.439-10.554
		s50.743,18.336,28.144,54.581c-22.6,36.247-3.412,47.333-54.154,59.274c-50.744,11.938-43.495,24.305-112.148,15.775
		C141.105,245.43,135.988,188.958,161.573,172.207z"/>
</g>
</svg>
